<?xml version="1.0" encoding="UTF-8"?>
<svg id="Layer_1" xmlns="http://www.w3.org/2000/svg" version="1.1" viewBox="0 0 4000 2667">
  <!-- Generator: Adobe Illustrator 30.1.0, SVG Export Plug-In . SVG Version: 2.1.1 Build 136)  -->
  <defs>
    <style>
      .st0 {
        fill: #fff;
      }
    </style>
  </defs>
  <path class="st0" d="M0,0v2666.7h4000V0H0Z"/>
  <path d="M510.7,1129.9l-1.4,1.6-3.3,1.6,3.3-1.6,1.4-1.6,1.9-.9c47-22.6,93.2-53.7,140.9-77.5,130.8-64.3,272.2-104,417.3-117.3-91.6,142.3-174.6,388.2-188.3,556.4l.7-2c11.5-33.4,17.9-69.5,27.3-103.6,18.4-66.8,40-130.8,66.8-194.8,22.7-54.2,48.4-107,77.1-158.3,15.2-27.3,34.8-54.3,47.6-82.6,41.2,46.9,79.5,95.5,117.6,144.9,17.2,22.3,33.2,45.8,51.4,67.4,90.8,107.9,206.4,180.6,341.1,220.7-39.4,146.2-18.8,251,42.7,387.5-96.6-71.3-181.4-124.7-307-106-51.9,7.7-93.1,29.6-138.4,55.2-21.6-66.7-64.4-124.1-127.7-156.4-58.5-29.8-132-32.5-194-11.9-25.1,8.3-49.8,21.8-71.4,37-5.6-108.5-40.7-200.8-123.1-274.9-74.4-66.9-158.6-88.5-256.5-83.1-9.9.6-19.8,1.2-29.7,1.8,25.9-114.4,12.2-216.3-51-316.5-45.4-71.9-112-121.4-191.8-150-24.2-8.7-49.6-14.7-74.3-21.8,227.2-122,493.2-150,740.8-77.9,109,32,205.8,81.2,298.6,146.1,28.8,20.2,58.6,41.7,83.6,66.7,36.3,36.3,66.1,83.4,96.9,124.6,94.4,126,195.9,217.8,354.3,250.7-73.7-150.8-115.5-321.9-113.3-489.9.4-32.8.3-74.3,11.2-105.5,2.6-7.6,7-15.4,14.3-19.2,5.3-2.8,10.2-2.1,15.7-.1,63.2,23.4,214.8,231.9,246.2,299.1,109.9-36.3,210.7-43.5,319.7,1.8,60.7-98.3,119.7-184.9,204.2-265.6,13.4-12.8,33.8-34.8,52.4-38.4,4.9-.9,8.6,0,12.4,3,15.8,12.3,19,60.2,20.7,79.6,12.8,151.8-20,316.3-76.5,456.9-10.9,27.1-21.8,54.4-36.4,79.8,167.8-50.1,250.8-114.2,355.5-253.1,35.6-47.3,69.4-95.8,114-135.2,81.1-71.6,179-133.6,279.8-173.4,253.2-99.9,572.8-89,812.9,42.9,4.1,2.3,8.2,4.7,12.1,7.3-114.8,28-210.7,78.6-273.7,182.2-44.3,72.9-60.7,159.2-52.4,243.8,2,21,6.9,41.3,10.2,62-107.8-5.1-211.7,12.3-294.3,87.4-71.6,65-109.2,154-113.6,250-.3,7.4-.6,14.8-.9,22.2-63.4-39.5-137.4-62.6-212.1-45.5-63.2,14.5-113.5,54.1-147.3,108.6-12.7,20.4-22.6,42.6-33.6,64-89.4-47.4-177.2-72.2-277.2-41.3-44.8,13.8-84,32.8-122.2,59.8-15.5,10.9-32.2,26-48.9,34.6,54.8-122.7,85-259.1,42.5-390.3,1.1-.2,2.2-.4,3.3-.6,133.7-28.8,253.7-116.6,341.5-219,32.2-37.6,59.9-78.4,89.9-117.6,24.3-31.7,54.3-60.6,76.2-93.6,13.4,20.3,24.7,42.4,36.5,63.7,53.5,97.3,99.3,198.7,136.8,303.3,17.4,49.4,30.9,100.4,49.4,149.3-25.7-137.1-72.6-282.2-129.5-409.5-18-40.3-39.1-79.6-59-119,123,2.2,291,55.8,401.8,110,26.2,12.7,52.1,25.8,77.9,39.4,17.8,9.6,36.3,22,55.2,29.1-20.4-19.8-52.8-35.6-77.1-50.9-132.2-83-271.6-147.3-429.3-158.8,133.9-102.8,345.3-161.7,511.5-180.1,31.5-3.8,63.2-6.4,94.9-8,22-1.1,44.6-.4,66.4-3.1l-1.2-.9c-24.5-3.9-50.1-3.2-74.9-3.3-77.8-.8-155.5,5.1-232.3,17.7-158.9,25.8-332.5,90.4-450.3,203.5-56.9,54.6-101.9,120.8-149.7,183.1-99.2,129.5-218.3,205.2-376.5,241.6,38.5,130.4,33.4,259.3-28.2,382.4-53.9,109.3-149.2,192.5-264.7,231.3-15.9,36.8-31.4,72.3-54.8,105-21.9-32.4-37.8-69.6-53.5-105.3l-4.6-1.5c-118.1-38.9-209.4-122.6-265.1-233.5-14.7-29.3-24.9-60.2-33.6-91.8-28.5-104.2-20.9-184.8,12.7-286.1-203.6-52.3-287.3-123.4-414-289.2-38.6-50.6-76.5-102.7-123.6-145.9-63.7-58.4-145.2-101.2-225-132.7-147.4-57.3-305-83.9-463-78.3-15,.5-56.1.3-68.1,5.5,5.7,2.5,67.4,1.2,79.1,1.7,50.3,2.2,100.5,7.1,150.2,14.7,114.8,17.9,226.4,52.9,330.9,103.7,41.5,20.6,80.7,45,121.9,66.2-167.5,24.7-308.1,76.7-450.1,169-27.9,18.2-57.8,35.9-83.1,57.7ZM1848.6,1091c-28.3,5.1-47.3,32-42.4,60.4,4.8,28.4,31.6,47.5,60,42.9,28.7-4.7,48.1-31.8,43.2-60.5-4.9-28.7-32.2-47.9-60.8-42.8ZM2138.3,1091c-28.2,4.3-47.6,30.5-43.5,58.8,4.1,28.2,30.3,47.8,58.5,43.8,28.5-4,48.2-30.4,44.1-58.8-4.2-28.4-30.7-48.1-59.1-43.7ZM1876.5,1261.7c8.8,20,21.4,33.4,40.3,44.1,3.4,20.3,8.3,56,21.7,71.8h3.4c10.6-11.9,14.7-29.8,22.6-43.7,23.6,1.5,46.3,1.6,69.9.2,9,15.8,17.8,31.9,27.2,47.5,6.5-14,12.7-27.8,17.3-42.5l6.2-27.7c21.7-14,34.6-27.7,48.1-49.7-59.3,32.3-113.3,52.4-181.7,32.1-26.6-7.9-49.2-23.5-75-32.1ZM3117.5,1460.3h1.6-1.6Z"/>
  <path d="M2342,1771.7l1-.8-1,.8Z"/>
</svg>