<?xml version="1.0" encoding="UTF-8"?>
<svg id="Layer_1" xmlns="http://www.w3.org/2000/svg" version="1.1" viewBox="0 0 450 150">
  <!-- Generator: Adobe Illustrator 30.1.0, SVG Export Plug-In . SVG Version: 2.1.1 Build 136)  -->
  <defs>
    <style>
      .st0 {
        fill: #010101;
      }

      .st1 {
        fill: #231f20;
      }

      .st2 {
        fill: #fff;
        stroke: #231f20;
        stroke-miterlimit: 10;
        stroke-width: 2px;
      }
    </style>
  </defs>
  <g>
    <path class="st2" d="M443.3,110.33v-5.59c0-6.54-1.87-11.9-5.57-15.93-3.81-4.16-9.07-6.26-15.62-6.26h-.12c-3.93,0-7.42.84-10.46,2.5-.92-1.09-2.27-1.8-3.81-1.8h-17.26c-.78,0-1.52.18-2.18.5-.1-.05-.21-.09-.32-.13.14-.13.29-.25.43-.38,2.31-2.32,4.16-5.2,5.5-8.55.01-.03.03-.06.04-.1l12.95-34.27.65-.1c2.45-.36,4.27-2.47,4.27-4.95v-6.19c0-2.76-2.24-5-5-5h-18.63c-.6,0-1.17.1-1.71.3-.53-.19-1.11-.3-1.71-.3h-18.63c-.4,0-.77.06-1.14.14-.37-.09-.75-.14-1.14-.14h-1.68v-4.32c0-2.76-2.24-5-5-5h-10.23c-.9,0-1.73.26-2.46.67v-3.16c0-2.76-2.24-5-5-5h-10.27c-2.76,0-5,2.24-5,5v7.7c0,1.7.85,3.2,2.15,4.11h-2.63c-1.56,0-2.94.73-3.85,1.85-.64-.31-1.3-.6-1.99-.86-2.99-1.12-6.36-1.69-10.02-1.69-7.32,0-13.12,2.4-17.25,7.12-3.96,4.53-5.96,10.29-5.96,17.11v1.05c0,6.83,1.95,12.57,5.81,17.07,4.05,4.73,9.74,7.13,16.91,7.13,4.72,0,8.87-1.22,12.38-3.59.81,1.68,2.51,2.85,4.5,2.85h20.14c1.6,0,3.01-.77,3.93-1.94,1.16.79,2.44,1.4,3.85,1.84v7.13c0,1.7.85,3.2,2.15,4.11h-2.63c-.48,0-.93.09-1.37.21-.44-.13-.89-.21-1.37-.21h-1.68v-4.32c0-2.76-2.24-5-5-5h-10.23c-2.76,0-5,2.24-5,5v4.32h-.59c-1.59,0-2.98.75-3.9,1.9-.68-.33-1.38-.64-2.12-.92-2.99-1.12-6.36-1.69-10.02-1.69-7.32,0-13.12,2.4-17.25,7.12-.27.3-.5.63-.75.94-.45-.63-.93-1.23-1.45-1.81-3.81-4.16-9.07-6.26-15.62-6.26h-.12c-5.91,0-10.86,1.9-14.73,5.64v-16.09c1.53-.08,2.86-.84,3.72-2,2.62,1.82,5.88,2.76,9.76,2.76,1.56,0,3.05-.11,4.43-.32,1.35-.21,2.73-.53,4.1-.95,2.31-.71,3.79-2.97,3.5-5.37l-.88-7.42c-.17-1.4-.91-2.66-2.06-3.48-1.14-.82-2.58-1.12-3.96-.82-.35.08-.67.13-.95.18v-13.38h1.68c2.76,0,5-2.24,5-5v-7.21c0-2.76-2.24-5-5-5h-1.68v-4.32c0-2.76-2.24-5-5-5h-10.23c-2.76,0-5,2.24-5,5v4.32h-.59c-1.73,0-3.26.88-4.15,2.22-3.4-1.93-7.46-2.92-12.13-2.92-3.42,0-6.65.54-9.61,1.59-2.81,1-5.35,2.27-7.57,3.76-.36.24-.67.52-.95.84-3.43-4.06-8.25-6.19-14.05-6.19-1.49,0-2.9.17-4.25.51v-11.61c0-2.76-2.24-5-5-5h-13.69c-.07,0-.14.02-.21.02-15.21.02-31.6,7.64-41.94,19.6-4.04,4.67-7.4,10.35-9.73,16.44-1.16,3.02-1.63,5.99-2.09,8.86l-.2,1.23c-.54,3.27-1.18,5.88-2.1,8.16-1.47-6.41-3.88-12.39-7.03-17.35l-.08-.12c-1.46-2.31-3.26-4.81-6.16-5.33-1.68-.31-3.34.11-4.67,1.17-1.85,1.48-2.55,3.63-3.02,5.06l-.11.32c-1.66,4.9-2.47,9.59-2.98,14.75-3.93.99-7.53,2.88-10.97,5.77-5.22-2.94-14.26-7.26-18.83-6.68-2.23.29-3.51,1.51-4.19,2.49-.66.95-1.38,2.56-1.05,4.84.36,2.44,1.5,4.68,2.42,6.49l.13.25c2.41,4.75,5.51,9.22,9.2,13.28-2.45-.58-5.07-1.56-8-2.96-.63-.3-1.26-.62-1.9-.94-1.9-.96-4.06-2.05-6.34-2.77-2.17-.68-4.35-1-6.4-1.26-6.73-.87-13-.7-19.17.53-14.72,2.96-27.46,11.44-35.89,23.87-1.14,1.68-1.15,3.89-.02,5.58,1.13,1.69,3.17,2.53,5.16,2.12.43-.09.85-.18,1.28-.28.86-.19,1.67-.37,2.41-.47,3.5-.49,6.67.09,9.45,1.69,4.1,2.38,6.51,5.62,7.81,10.51.41,1.53,1.51,2.77,2.97,3.36,1.46.59,3.12.45,4.47-.38.43-.26.87-.52,1.3-.78,3.67-2.19,6.73-2.74,10.23-1.84,4.04,1.03,6.94,3.36,9.42,7.54.9,1.52,2.54,2.46,4.3,2.46.05,0,.09,0,.14,0,1.82-.05,3.46-1.08,4.3-2.7.47-.91,1.04-1.73,1.59-2.3,1.54-1.6,3.83-2.64,5.82-2.66.03,0,.05,0,.08,0,2.77,0,4.88,1.5,6.16,2.76,1.07,1.05,2.56,1.56,4.05,1.4,1.49-.17,2.83-1,3.65-2.26,1.3-2.01,2.34-3.53,3.86-4.64,3.59-2.62,6.99-2.63,13.24-1.66.9.14,1.8.03,2.6-.29,4.8,2.33,10.03,3.31,15.25,2.83,1.25.97,2.63,1.96,4.15,2.78,1.44.78,3.17.8,4.64.06,1.46-.74,2.47-2.15,2.69-3.78.25-1.84.25-3.58.17-5.19,3.28-4.02,5.44-8.88,6.25-13.98.51-.34.96-.77,1.33-1.29.65-.92,1.09-1.89,1.45-2.67.12-.25.23-.51.35-.74.87-1.69,1.92-3.13,3.32-4.52.87-.87,1.82-1.54,2.9-2.06-2.95,4.2-4.46,9.28-4.46,15.17v1.05c0,6.83,1.95,12.57,5.81,17.07,4.05,4.73,9.74,7.13,16.91,7.13,5.65,0,10.49-1.72,14.39-5.11.81-.7,1.51-1.46,2.16-2.25.08.09.14.18.22.27,4.15,4.7,9.87,7.09,16.98,7.09,4.32,0,8.13-.91,11.38-2.69.91,1.18,2.33,1.95,3.93,1.95h20.18c.23,0,.45-.04.67-.07.22.03.44.07.67.07h20.18c1.69,0,3.17-.84,4.08-2.12,3.36,1.89,7.28,2.86,11.71,2.86,3.6,0,6.95-.51,9.95-1.53,3.03-1.02,5.59-2.35,7.6-3.94.15-.12.29-.26.42-.4,3.95,3.88,9.21,5.87,15.71,5.87,5.65,0,10.49-1.72,14.39-5.11,1.58-1.38,2.86-2.93,3.83-4.62.72,2.1,1.78,3.88,3.19,5.32,2.88,2.93,6.83,4.42,11.74,4.42,1.56,0,3.05-.11,4.43-.32,1.04-.16,2.09-.41,3.14-.69.5.17,1.02.28,1.57.28h20.14c2.76,0,5-2.24,5-5v-2.04l1.34,3.73c.71,1.99,2.6,3.31,4.71,3.31h9.81c2.11,0,4-1.33,4.71-3.31l3.66-10.23c1.05,2.75,2.59,5.23,4.63,7.42,4.25,4.55,9.9,6.86,16.8,6.86,3.6,0,6.95-.51,9.95-1.53,3.03-1.02,5.59-2.35,7.6-3.94,1.78-1.41,2.39-3.85,1.48-5.93l-2.4-5.47c2.11-.58,3.67-2.52,3.67-4.82ZM322.69,49.12h-9.28c-2.76,0-5,2.24-5,5,0,.13,0,.56-.13.68-.18.17-.7.19-.92.19-1.14,0-1.28-.25-1.39-.46-.7-1.31-1.07-3.34-1.07-5.86v-1.05c0-2.44.38-4.35,1.14-5.69.14-.25.36-.63,1.8-.63.09,0,.18,0,.25,0l1.09,3.85c.61,2.15,2.57,3.63,4.81,3.63h8.33c.64,0,1.27-.13,1.86-.37v.94c-.48-.15-.99-.24-1.51-.24ZM376.35,67.12l-.44,1.08c-.19.47-.42.84-.71,1.14-.11.02-.32.06-.68.06-.08,0-.16-.01-.26-.03l-.98-.14c-.48-.07-.94-.04-1.39.02-.42-.86-1.08-1.58-1.89-2.08.02-.32.02-.64-.01-.97l-.88-7.42c-.17-1.4-.91-2.66-2.06-3.48-1.14-.82-2.58-1.12-3.96-.82-.35.08-.67.13-.95.18v-13.38h1.68c.85,0,1.64-.23,2.35-.61l10.18,26.44ZM352.16,99.62v14.87s0,0,0,0c-1.14-.82-2.58-1.12-3.96-.82-.35.07-.67.13-.95.17v-13.38h1.68c1.06,0,2.05-.34,2.86-.91l.37.07ZM170.71,113.28c0,.13,0,.56-.13.68-.18.17-.7.19-.92.19-1.14,0-1.28-.25-1.38-.46-.7-1.32-1.07-3.34-1.07-5.86v-1.05c0-2.44.38-4.35,1.14-5.69.14-.25.36-.63,1.8-.63.09,0,.18,0,.25,0l1.09,3.85c.61,2.15,2.57,3.63,4.81,3.63h4.12c0,.11.01.22.01.34h-4.73c-2.76,0-5,2.24-5,5ZM208.47,49.16c0,3.32-.58,4.85-.98,5.54-.06.05-.41.18-1.15.18-1,0-1.49-.19-1.69-.3,0,0-.01,0-.02-.01v-12.79c.07-.06.13-.1.19-.14.29-.18.81-.28,1.45-.28.85,0,.93.15,1.1.5.5,1,1.1,2.95,1.1,6.56v.74ZM184.39,32.05c-.32-1.4-.46-2.8-.37-4.18.05-.82.19-1.61.37-2.38v6.56ZM187.4,88.68c-2.01-1.88-4.42-3.39-7.23-4.44-2.99-1.12-6.36-1.69-10.02-1.69-2.23,0-4.29.25-6.24.69,0-.5,0-.99.03-1.42.11-1.52.64-3.66,2.49-5.25,2.16-1.85,5.22-2.04,7.41-1.87,1.78.14,3.5-.69,4.5-2.17,1.01-1.47,1.15-3.37.38-4.98-.16-.34-.32-.67-.48-1.01-1.66-3.57-1.89-7.25-.64-10.64,1.08-2.93,3.27-5.29,6.78-7.3v18.53c0,2.76,2.24,5,5,5h8.86c1.11,0,2.15-.37,2.99-.99,2.26,1.15,4.85,1.73,7.7,1.73,1.49,0,2.91-.14,4.27-.41v5.18c0,2.4,1.7,4.46,4.06,4.91l1.43.27v5.2c-3.97-3.63-9.12-5.47-15.34-5.47-6.55,0-11.89,2.08-15.94,6.13ZM200.68,106.92c0-2.48.39-4.42,1.17-5.78.22-.38.39-.68,1.49-.68s1.32.32,1.55.72c.79,1.35,1.18,3.28,1.18,5.75v.74c0,2.5-.4,4.51-1.16,5.81-.22.38-.4.68-1.5.68-1.2,0-1.39-.32-1.58-.66-.75-1.3-1.15-3.32-1.15-5.84v-.74ZM238.95,115.04v-32.46l1.25.24v32.22l-.63.13-.63-.13ZM325.23,108.28h-9.28c-2.76,0-5,2.24-5,5,0,.13,0,.56-.13.68-.18.17-.7.19-.92.19-1.14,0-1.28-.25-1.38-.46-.7-1.32-1.07-3.34-1.07-5.86v-1.05c0-2.44.38-4.35,1.14-5.69.14-.25.36-.63,1.8-.63.09,0,.18,0,.25,0l1.09,3.85c.61,2.15,2.57,3.63,4.81,3.63h8.33c.75,0,1.48-.18,2.14-.5v1.18c-.56-.22-1.16-.34-1.79-.34ZM373.39,115.25l-.97-.21v-4.49l1.78,4.95c-.26-.1-.53-.19-.81-.25Z"/>
    <path class="st2" d="M294.89,8279.34c2.76,0,5-2.24,5-5h-10c0,2.76,2.24,5,5,5Z"/>
    <path class="st2" d="M294.89-8113.66c-2.76,0-5,2.24-5,5h10c0-2.76-2.24-5-5-5Z"/>
  </g>
  <g>
    <g>
      <path class="st1" d="M223.7,50.09c0,5.67-1.27,10.21-3.8,13.61-2.53,3.4-6.19,5.1-10.97,5.1-2.23,0-4.16-.46-5.8-1.39-1.64-.93-3.02-2.27-4.15-4.03l-.74,4.68h-8.86V20.46l-8.83-1.71,5.37-5.53h13.69v20.85c1.1-1.52,2.42-2.69,3.96-3.52,1.53-.82,3.3-1.23,5.29-1.23,4.83,0,8.51,1.82,11.04,5.47,2.53,3.64,3.8,8.5,3.8,14.57v.74ZM213.47,49.36c0-3.7-.54-6.64-1.63-8.81-1.09-2.17-2.95-3.25-5.57-3.25-1.59,0-2.94.33-4.04,1-1.1.67-1.97,1.62-2.6,2.87v16.07c.63,1.17,1.51,2.06,2.62,2.67,1.11.61,2.48.91,4.1.91,2.65,0,4.5-.93,5.55-2.79s1.58-4.51,1.58-7.93v-.74Z"/>
      <path class="st1" d="M248.35,68.06c-.28-.63-.53-1.28-.74-1.95s-.38-1.34-.49-2.02c-1.22,1.41-2.7,2.54-4.45,3.41-1.75.87-3.74,1.3-5.99,1.3-3.73,0-6.69-1.01-8.88-3.04-2.19-2.03-3.29-4.79-3.29-8.28s1.43-6.32,4.29-8.26c2.86-1.95,7.05-2.92,12.59-2.92h5.24v-3.73c0-1.83-.53-3.25-1.58-4.25-1.05-1.01-2.61-1.51-4.68-1.51-1.17,0-2.21.14-3.13.4-.91.27-1.65.59-2.21.97l-.67,4.08h-7.73l.04-8.44c1.88-1.27,4.03-2.33,6.45-3.2,2.43-.87,5.07-1.3,7.93-1.3,4.71,0,8.54,1.15,11.48,3.46,2.94,2.31,4.41,5.6,4.41,9.86v15.71c0,.59,0,1.14.02,1.65.01.52.05,1.01.12,1.48l3.13.42v6.15h-11.85ZM239.46,61.2c1.55,0,2.95-.33,4.22-1s2.25-1.51,2.95-2.51v-5.8h-5.24c-2.18,0-3.83.51-4.96,1.53s-1.69,2.24-1.69,3.67c0,1.29.42,2.3,1.25,3.02.83.73,1.99,1.09,3.46,1.09Z"/>
      <path class="st1" d="M273.14,20.7v9.32h6.68v7.21h-6.68v19.37c0,1.48.3,2.53.91,3.16.61.63,1.43.95,2.46.95.7,0,1.32-.03,1.85-.09.53-.06,1.12-.16,1.78-.3l.88,7.42c-1.15.35-2.29.62-3.41.79s-2.34.26-3.66.26c-3.54,0-6.26-.97-8.17-2.92-1.91-1.95-2.87-5.03-2.87-9.25v-19.41h-5.59v-7.21h5.59v-9.32h10.23Z"/>
    </g>
    <g>
      <path class="st1" d="M307.36,60.92c1.83,0,3.29-.53,4.39-1.6,1.1-1.07,1.65-2.49,1.65-4.27h9.28l.11.21c.09,3.84-1.35,7.06-4.32,9.65-2.98,2.59-6.68,3.88-11.11,3.88-5.67,0-10.04-1.79-13.11-5.38-3.07-3.59-4.61-8.19-4.61-13.82v-1.05c0-5.6,1.58-10.21,4.73-13.82,3.15-3.61,7.65-5.41,13.48-5.41,3.07,0,5.82.46,8.26,1.37,2.44.91,4.46,2.2,6.08,3.87l.14,10.16h-8.33l-1.69-5.94c-.52-.44-1.15-.81-1.9-1.11-.75-.29-1.61-.44-2.57-.44-2.91,0-4.96,1.05-6.15,3.16s-1.79,4.83-1.79,8.16v1.05c0,3.4.55,6.13,1.65,8.21,1.1,2.07,3.04,3.11,5.8,3.11Z"/>
      <path class="st1" d="M324.24,61.91l4.96-1.05v-23.59l-5.48-1.05v-6.19h15.75v30.83l4.92,1.05v6.15h-20.14v-6.15ZM339.46,20.91h-10.27v-7.7h10.27v7.7Z"/>
      <path class="st1" d="M357.15,20.7v9.32h6.68v7.21h-6.68v19.37c0,1.48.3,2.53.91,3.16.61.63,1.43.95,2.46.95.7,0,1.32-.03,1.85-.09.53-.06,1.12-.16,1.78-.3l.88,7.42c-1.15.35-2.29.62-3.41.79s-2.34.26-3.66.26c-3.54,0-6.26-.97-8.17-2.92-1.91-1.95-2.87-5.03-2.87-9.25v-19.41h-5.59v-7.21h5.59v-9.32h10.23Z"/>
      <path class="st1" d="M406.79,36.21l-3.55.53-13.99,37.02c-1.1,2.74-2.57,5.04-4.41,6.89-1.84,1.85-4.61,2.78-8.31,2.78-.87,0-1.68-.07-2.44-.21s-1.66-.34-2.69-.6l1.2-7.49c.33.05.67.09,1.02.14.35.05.66.07.91.07,1.71,0,3.02-.42,3.94-1.25.91-.83,1.62-1.87,2.11-3.11l1.16-2.88-12.06-31.32-3.55-.56v-6.19h18.63v6.19l-4.25.7,5.2,15.19.53,2.74.21.04,6.01-17.96-4.29-.7v-6.19h18.63v6.19Z"/>
    </g>
    <g>
      <path class="st1" d="M169.66,120.09c1.83,0,3.29-.53,4.39-1.6,1.1-1.07,1.65-2.49,1.65-4.27h9.28l.11.21c.09,3.84-1.35,7.06-4.32,9.65-2.98,2.59-6.68,3.88-11.11,3.88-5.67,0-10.04-1.79-13.11-5.38s-4.61-8.19-4.61-13.82v-1.05c0-5.6,1.58-10.21,4.73-13.82,3.15-3.61,7.65-5.41,13.48-5.41,3.07,0,5.82.46,8.26,1.37s4.46,2.2,6.08,3.87l.14,10.16h-8.33l-1.69-5.94c-.52-.44-1.15-.81-1.9-1.11-.75-.29-1.61-.44-2.57-.44-2.91,0-4.96,1.05-6.15,3.16s-1.79,4.83-1.79,8.16v1.05c0,3.4.55,6.13,1.65,8.21s3.04,3.11,5.8,3.11Z"/>
      <path class="st1" d="M185.41,107.85c0-5.67,1.59-10.32,4.76-13.94s7.56-5.43,13.17-5.43,10.03,1.81,13.2,5.41c3.18,3.61,4.76,8.26,4.76,13.96v.74c0,5.72-1.59,10.38-4.76,13.97-3.18,3.6-7.55,5.4-13.13,5.4s-10.06-1.8-13.24-5.4c-3.18-3.6-4.76-8.26-4.76-13.97v-.74ZM195.68,108.59c0,3.47.61,6.25,1.83,8.35,1.22,2.1,3.19,3.15,5.91,3.15s4.59-1.05,5.82-3.16,1.85-4.89,1.85-8.33v-.74c0-3.38-.62-6.13-1.86-8.26-1.24-2.13-3.2-3.2-5.87-3.2s-4.62,1.07-5.84,3.2c-1.22,2.13-1.83,4.89-1.83,8.26v.74Z"/>
      <path class="st1" d="M218.2,78.57v-6.19h15.75v47.64l4.96,1.05v6.15h-20.18v-6.15l4.96-1.05v-40.39l-5.48-1.05Z"/>
      <path class="st1" d="M239.72,78.57v-6.19h15.75v47.64l4.96,1.05v6.15h-20.18v-6.15l4.96-1.05v-40.39l-5.48-1.05Z"/>
      <path class="st1" d="M276.22,127.96c-5.48,0-9.87-1.76-13.15-5.27s-4.92-7.98-4.92-13.39v-1.41c0-5.65,1.55-10.3,4.66-13.96s7.27-5.47,12.5-5.45c5.13,0,9.12,1.55,11.95,4.64s4.25,7.28,4.25,12.55v5.59h-22.71l-.07.21c.19,2.51,1.03,4.57,2.51,6.19s3.51,2.43,6.06,2.43c2.27,0,4.16-.23,5.66-.69s3.14-1.18,4.92-2.16l2.78,6.33c-1.57,1.24-3.6,2.29-6.1,3.13s-5.28,1.27-8.35,1.27ZM275.3,96.39c-1.9,0-3.4.73-4.5,2.18-1.1,1.45-1.78,3.36-2.04,5.73l.11.18h12.59v-.91c0-2.18-.51-3.92-1.53-5.22s-2.56-1.95-4.62-1.95Z"/>
      <path class="st1" d="M309.9,120.09c1.83,0,3.29-.53,4.39-1.6,1.1-1.07,1.65-2.49,1.65-4.27h9.28l.11.21c.09,3.84-1.35,7.06-4.32,9.65-2.98,2.59-6.68,3.88-11.11,3.88-5.67,0-10.04-1.79-13.11-5.38s-4.61-8.19-4.61-13.82v-1.05c0-5.6,1.58-10.21,4.73-13.82,3.15-3.61,7.65-5.41,13.48-5.41,3.07,0,5.82.46,8.26,1.37s4.46,2.2,6.08,3.87l.14,10.16h-8.33l-1.69-5.94c-.52-.44-1.15-.81-1.9-1.11-.75-.29-1.61-.44-2.57-.44-2.91,0-4.96,1.05-6.15,3.16s-1.79,4.83-1.79,8.16v1.05c0,3.4.55,6.13,1.65,8.21s3.04,3.11,5.8,3.11Z"/>
      <path class="st1" d="M342.25,79.87v9.32h6.68v7.21h-6.68v19.37c0,1.48.3,2.53.91,3.16s1.43.95,2.46.95c.7,0,1.32-.03,1.85-.09.53-.06,1.12-.16,1.78-.3l.88,7.42c-1.15.35-2.29.62-3.41.79s-2.34.26-3.66.26c-3.54,0-6.26-.97-8.17-2.92-1.91-1.95-2.87-5.03-2.87-9.25v-19.41h-5.59v-7.21h5.59v-9.32h10.23Z"/>
      <path class="st1" d="M352.2,121.07l4.96-1.05v-23.59l-5.48-1.05v-6.19h15.75v30.83l4.92,1.05v6.15h-20.14v-6.15ZM367.42,80.08h-10.27v-7.7h10.27v7.7Z"/>
      <path class="st1" d="M386.1,95.37l-3.59.67,5.03,17.02.67,3.59h.21l.74-3.59,4.96-16.98-3.66-.7v-6.19h17.26v6.19l-3.3.53-11.21,31.32h-9.81l-11.25-31.32-3.3-.53v-6.19h17.26v6.19Z"/>
      <path class="st1" d="M423.01,127.96c-5.48,0-9.87-1.76-13.15-5.27s-4.92-7.98-4.92-13.39v-1.41c0-5.65,1.55-10.3,4.66-13.96s7.27-5.47,12.5-5.45c5.13,0,9.12,1.55,11.95,4.64s4.25,7.28,4.25,12.55v5.59h-22.71l-.07.21c.19,2.51,1.03,4.57,2.51,6.19s3.51,2.43,6.06,2.43c2.27,0,4.16-.23,5.66-.69s3.14-1.18,4.92-2.16l2.78,6.33c-1.57,1.24-3.6,2.29-6.1,3.13s-5.28,1.27-8.35,1.27ZM422.09,96.39c-1.9,0-3.4.73-4.5,2.18-1.1,1.45-1.78,3.36-2.04,5.73l.11.18h12.59v-.91c0-2.18-.51-3.92-1.53-5.22s-2.56-1.95-4.62-1.95Z"/>
    </g>
    <path class="st0" d="M37.91,114.52l-.02.11-.12.15.12-.15.02-.11.07-.09c1.65-2.21,3.04-4.79,4.69-7.07,4.54-6.21,10.18-11.53,16.64-15.7-.8,8.89,1.34,22.43,4.81,30.63l-.02-.11c-.28-1.84-.86-3.69-1.26-5.51-.77-3.58-1.33-7.1-1.65-10.74-.26-3.09-.35-6.19-.27-9.29.05-1.65.3-3.39.21-5.03,3.08,1.18,6.06,2.52,9.05,3.9,1.35.62,2.67,1.33,4.05,1.89,6.89,2.83,14.07,3.39,21.35,1.98,1.73,7.8,5.27,12.2,11.48,17.08-6.27-.97-11.53-1.39-16.95,2.56-2.24,1.63-3.63,3.66-5.12,5.97-2.64-2.59-6.05-4.23-9.8-4.19-3.47.04-6.97,1.71-9.37,4.19-.97,1-1.79,2.24-2.43,3.48-2.92-4.94-6.82-8.39-12.48-9.84-5.11-1.31-9.58-.26-14.03,2.39-.45.27-.9.54-1.35.81-1.59-5.99-4.72-10.41-10.13-13.55-3.88-2.25-8.21-2.94-12.64-2.32-1.35.19-2.68.53-4.01.8,7.64-11.27,19.39-19.08,32.74-21.77,5.88-1.17,11.61-1.24,17.54-.48,1.84.24,3.76.51,5.54,1.07,2.59.81,5.13,2.28,7.58,3.45,7.5,3.58,14.49,5.39,22.7,3.05-7.14-5.25-13.28-12.23-17.29-20.14-.78-1.54-1.8-3.48-2.06-5.21-.06-.42-.05-.89.2-1.25.18-.26.43-.35.73-.39,3.53-.45,15.72,5.59,18.83,7.96,4.25-4.39,8.79-7.19,15-7.74.43-6.08,1.07-11.58,3.05-17.42.31-.93.73-2.46,1.51-3.08.2-.16.4-.21.65-.16,1.04.19,2.36,2.35,2.91,3.22,4.31,6.79,6.81,15.28,7.6,23.24.15,1.53.31,3.08.25,4.62,6.62-6.45,8.93-11.48,10.43-20.54.51-3.08.9-6.18,2.02-9.11,2.04-5.33,5.1-10.63,8.84-14.96,9.4-10.87,24.61-18.18,39.07-17.89.25,0,.5.02.74.04-4.68,4.12-7.93,8.83-8.34,15.22-.29,4.5,1.06,8.93,3.51,12.68.61.93,1.33,1.76,2,2.65-5.17,2.4-9.6,5.76-11.63,11.29-1.76,4.79-1.34,9.88.8,14.47.17.35.33.71.5,1.06-3.93-.3-7.96.43-11.03,3.06-2.6,2.22-3.98,5.31-4.23,8.69-.09,1.27-.01,2.55,0,3.81-5.34-.03-10.05.96-13.97,4.85-1.76,1.74-3.12,3.59-4.25,5.78-.46.89-.87,2-1.44,2.81-.44-7.08-2.37-14.2-7.56-19.29.05-.04.09-.07.14-.11,5.55-4.62,9.01-11.66,10.61-18.6.59-2.55.88-5.13,1.33-7.7.36-2.08,1.06-4.16,1.27-6.24,1.13.62,2.19,1.38,3.27,2.08,4.89,3.24,9.51,6.86,13.82,10.83,2.02,1.88,3.9,3.94,5.96,5.77-4.56-5.78-10.3-11.42-16.08-15.98-1.83-1.44-3.77-2.76-5.67-4.12,5.81-2.91,14.97-4.51,21.48-4.69,1.54-.05,3.07-.07,4.61-.06,1.07.01,2.24.14,3.29,0-1.44-.42-3.34-.37-4.85-.49-8.22-.65-16.31-.24-23.96,3.08,3.74-8.08,12.19-16.01,19.51-20.94,1.38-.95,2.8-1.85,4.24-2.7,1-.59,2.07-1.11,3.03-1.77l-.08-.02c-1.24.42-2.42,1.08-3.58,1.68-3.66,1.87-7.15,4.05-10.43,6.52-6.8,5.09-13.34,12.37-16.08,20.54-1.33,3.95-1.81,8.14-2.52,12.23-1.47,8.49-5.18,14.94-11.69,20.51,4.99,5.16,7.91,11.31,8.04,18.57.15,6.43-2.26,12.65-6.72,17.29.16,2.11.3,4.15,0,6.25-1.82-.98-3.47-2.33-5.08-3.62l-.25.04c-6.47,1.07-12.79-.61-18.11-4.43-1.41-1.01-2.64-2.2-3.82-3.47-3.88-4.18-5.5-8.13-6.41-13.69-10.8,2.54-16.45,1.26-26.44-3.39-3.04-1.42-6.09-2.93-9.35-3.8-4.41-1.17-9.27-1.18-13.77-.7-8.3.93-16.32,3.54-23.57,7.67-.69.39-2.61,1.39-3.05,1.93.33-.02,3.18-1.59,3.74-1.85,2.41-1.13,4.87-2.13,7.39-2.99,5.81-1.97,11.88-3.07,18.01-3.25,2.45-.05,4.88.13,7.32.11-7.23,5.25-12.53,11.13-16.91,18.92-.86,1.53-1.82,3.09-2.47,4.73ZM99.52,79.96c-1.2.93-1.43,2.65-.51,3.86.92,1.21,2.64,1.45,3.86.54,1.23-.92,1.47-2.67.54-3.89-.93-1.22-2.68-1.45-3.89-.51ZM113.08,72.87c-1.21.89-1.48,2.59-.6,3.81.88,1.22,2.58,1.49,3.81.62,1.23-.88,1.51-2.6.62-3.83-.89-1.23-2.61-1.5-3.83-.6ZM105.01,87.26c.9.72,1.82,1.04,2.96,1.08.66.87,1.76,2.42,2.77,2.83l.16-.08c.2-.81-.04-1.75-.01-2.59,1.14-.51,2.21-1.06,3.27-1.7.81.52,1.61,1.06,2.43,1.55-.04-.81-.09-1.61-.23-2.41l-.39-1.44c.67-1.19.94-2.14,1.03-3.5-1.98,2.96-4.02,5.23-7.71,5.95-1.43.28-2.88.1-4.29.33ZM167.91,66.17l.08-.04-.08.04Z"/>
  </g>
</svg>