<?xml version="1.0" encoding="UTF-8"?>
<svg xmlns="http://www.w3.org/2000/svg" viewBox="0 0 210.9 60.0" width="210.9" height="60.0">
  <g transform="translate(11, 43) scale(0.037, -0.037)" 
     fill="#000" stroke="#000" stroke-width="47.6" stroke-linejoin="round">
    <g transform="translate(0, 0)"><path d="M171 -2Q131 -2 91.0 19.5Q51 41 14 88L88 233Q99 214 120.5 197.0Q142 180 166.0 170.0Q190 160 207 160Q233 160 256.5 176.0Q280 192 280 219Q280 254 248.0 283.0Q216 312 176 340Q137 368 104.5 403.5Q72 439 72 485Q72 537 102.0 581.5Q132 626 180.0 659.5Q228 693 282.5 711.5Q337 730 386 730Q421 730 451.0 718.5Q481 707 499.0 681.0Q517 655 517 611Q517 604 516.5 597.0Q516 590 515 583Q514 576 512.5 568.5Q511 561 510 553L365 511Q367 519 368.5 527.0Q370 535 370 543Q370 573 359.5 586.5Q349 600 332 600Q323 600 306.0 590.5Q289 581 275.5 564.5Q262 548 262 528Q262 495 289.5 473.5Q317 452 353 430Q370 420 391.0 398.5Q412 377 427.5 340.5Q443 304 443 247Q443 173 406.5 117.0Q370 61 308.0 29.5Q246 -2 171 -2Z"/></g>
        <g transform="translate(430, 0)"><path d="M90 -1Q101 54 112.5 108.5Q124 163 134 216Q172 406 196 580Q185 582 173.0 582.5Q161 583 150 582Q126 580 103 588Q104 596 104.0 605.5Q104 615 104 625Q104 636 104.0 646.5Q104 657 105 667Q106 678 106.0 690.5Q106 703 107 716Q133 714 159.0 713.0Q185 712 211 712Q285 712 352.5 717.0Q420 722 477 729L466 675L457 628Q452 602 448 587Q437 584 426.0 582.0Q415 580 404 579Q393 578 381.5 576.0Q370 574 359 572Q344 498 334.5 444.0Q325 390 317.5 340.5Q310 291 300 232Q283 131 270 27Z"/></g>
        <g transform="translate(792, 0)"><path d="M259 2Q261 19 263.0 35.0Q265 51 267 67L273 123Q274 137 275.0 149.0Q276 161 277 171H190L150 27Q128 24 98.0 20.5Q68 17 42 14Q26 12 10.5 10.0Q-5 8 -21 6L58 268Q72 315 90.0 375.0Q108 435 126.5 498.0Q145 561 161.5 616.5Q178 672 188 710Q256 715 326.5 722.0Q397 729 464 741Q459 685 454.5 614.5Q450 544 446.5 469.0Q443 394 439 321Q437 252 434.0 178.5Q431 105 428 28Q413 26 398.0 24.0Q383 22 368 20Q343 16 313.0 11.0Q283 6 259 2ZM214 271Q220 271 236.5 272.0Q253 273 268.0 274.0Q283 275 286 275Q286 288 290.0 328.0Q294 368 298 412Q300 438 302.5 465.5Q305 493 308 522L314 609L299 608L276 522Z"/></g>
        <g transform="translate(1225, 0)"><path d="M4 -1 56 259Q68 331 82.0 407.0Q96 483 108.5 557.0Q121 631 128 696Q185 714 251.0 722.5Q317 731 382 731Q458 731 485.5 698.0Q513 665 513 609Q513 558 489.0 506.5Q465 455 426.5 413.5Q388 372 342 348Q360 308 380.5 260.5Q401 213 419 170Q429 145 439.5 120.0Q450 95 460 70L305 16L269 136Q254 186 241.5 232.5Q229 279 227 298L214 294Q211 278 207.5 259.5Q204 241 200 219Q196 197 192.0 176.5Q188 156 184 136L166 41ZM239 433Q257 435 283.5 448.5Q310 462 336.5 482.0Q363 502 381.0 523.0Q399 544 399 560Q399 580 375.5 586.5Q352 593 314 593H292Q286 592 281.0 592.0Q276 592 271 592Z"/></g>
        <g transform="translate(1669, 0)"><path d="M90 -1Q101 54 112.5 108.5Q124 163 134 216Q172 406 196 580Q185 582 173.0 582.5Q161 583 150 582Q126 580 103 588Q104 596 104.0 605.5Q104 615 104 625Q104 636 104.0 646.5Q104 657 105 667Q106 678 106.0 690.5Q106 703 107 716Q133 714 159.0 713.0Q185 712 211 712Q285 712 352.5 717.0Q420 722 477 729L466 675L457 628Q452 602 448 587Q437 584 426.0 582.0Q415 580 404 579Q393 578 381.5 576.0Q370 574 359 572Q344 498 334.5 444.0Q325 390 317.5 340.5Q310 291 300 232Q283 131 270 27Z"/></g>
        <g transform="translate(2031, 0)"><path d="M5 1Q19 59 33.0 132.5Q47 206 61.0 285.0Q75 364 87 437Q98 501 108.5 567.0Q119 633 129 700L285 725L240 462Q225 369 213.5 295.0Q202 221 191.5 155.0Q181 89 170 20Q151 20 124.0 17.5Q97 15 70.0 11.5Q43 8 24.5 5.0Q6 2 5 1Z"/></g>
        <g transform="translate(2233, 0)"><path d="M5 -5Q35 139 62 274Q84 401 105.0 518.0Q126 635 135 733Q142 732 147.5 732.0Q153 732 157 732H178Q204 732 236.0 733.5Q268 735 295 736Q302 701 308.5 667.0Q315 633 320 601Q325 573 331.0 543.5Q337 514 343 484Q348 454 353.5 428.5Q359 403 363 382Q375 441 385.5 498.0Q396 555 406 601L435 735L557 750Q540 674 525.0 601.0Q510 528 497 460Q472 338 453.0 230.0Q434 122 424 42Q435 42 420.5 39.5Q406 37 378.0 32.5Q350 28 318.0 21.0Q286 14 261 4Q258 44 255.0 82.0Q252 120 248 156Q242 220 234.0 283.0Q226 346 218 383Q211 339 201.0 282.5Q191 226 179 169L151 29Z"/></g>
        <g transform="translate(2685, 0)"><path d="M223 -24Q186 -24 152.5 -8.0Q119 8 95 41Q70 73 56.0 122.0Q42 171 42 237Q42 366 79.0 462.0Q116 558 173 622Q229 686 293.5 717.0Q358 748 414 748Q468 748 502.0 724.5Q536 701 552.0 662.0Q568 623 568 575L431 549Q422 589 407.0 606.0Q392 623 373 623Q351 623 327.5 599.0Q304 575 281.5 534.5Q259 494 241.0 444.0Q223 394 211.5 341.0Q200 288 198 241Q198 179 216.5 152.5Q235 126 264 126Q292 126 319.5 144.0Q347 162 365.5 192.5Q384 223 385 261L278 245L297 344L389 356Q427 361 469.5 368.0Q512 375 544 381Q537 279 504.5 202.5Q472 126 424.0 76.0Q376 26 323.5 1.0Q271 -24 223 -24Z"/></g>
        <g transform="translate(3379, 0)"><path d="M-3 -1Q27 134 54 263Q65 315 76.5 374.5Q88 434 100.0 495.0Q112 556 122.0 610.5Q132 665 138 706Q178 718 224.5 728.0Q271 738 308 738Q368 738 403.0 712.5Q438 687 453.0 644.0Q468 601 468 550Q468 494 447.5 442.5Q427 391 392.5 350.0Q358 309 313.5 285.0Q269 261 221 261H210Q202 227 195.0 187.0Q188 147 183 113Q179 93 176.0 73.0Q173 53 170 33ZM230 366Q253 372 276.0 396.5Q299 421 314.0 459.0Q329 497 329 542Q329 579 312.5 598.0Q296 617 276 617Q265 551 254.0 492.0Q243 433 230 366Z"/></g>
        <g transform="translate(3758, 0)"><path d="M181 -4Q115 -4 73.0 47.0Q31 98 31 201Q31 258 45.0 321.0Q59 384 84.0 445.0Q109 506 142 558Q195 642 264.0 695.0Q333 748 409 748Q469 748 501.5 717.5Q534 687 547.0 639.5Q560 592 560 541Q560 422 523.5 319.5Q487 217 429 146Q371 73 305.5 34.5Q240 -4 181 -4ZM235 161Q280 161 314.5 191.0Q349 221 373.0 267.5Q397 314 409.0 365.0Q421 416 421 457Q421 473 418.0 491.5Q415 510 405.0 524.0Q395 538 374 538Q328 538 291.0 504.5Q254 471 229 420Q204 368 192.0 318.0Q180 268 180 227Q180 206 195.0 183.5Q210 161 235 161Z"/></g>
        <g transform="translate(4251, 0)"><path d="M5 1Q19 59 33.0 132.5Q47 206 61.0 285.0Q75 364 87 437Q98 501 108.5 567.0Q119 633 129 700L285 725L240 462Q225 369 213.5 295.0Q202 221 191.5 155.0Q181 89 170 20Q151 20 124.0 17.5Q97 15 70.0 11.5Q43 8 24.5 5.0Q6 2 5 1Z"/></g>
        <g transform="translate(4453, 0)"><path d="M5 -5Q35 139 62 274Q84 401 105.0 518.0Q126 635 135 733Q142 732 147.5 732.0Q153 732 157 732H178Q204 732 236.0 733.5Q268 735 295 736Q302 701 308.5 667.0Q315 633 320 601Q325 573 331.0 543.5Q337 514 343 484Q348 454 353.5 428.5Q359 403 363 382Q375 441 385.5 498.0Q396 555 406 601L435 735L557 750Q540 674 525.0 601.0Q510 528 497 460Q472 338 453.0 230.0Q434 122 424 42Q435 42 420.5 39.5Q406 37 378.0 32.5Q350 28 318.0 21.0Q286 14 261 4Q258 44 255.0 82.0Q252 120 248 156Q242 220 234.0 283.0Q226 346 218 383Q211 339 201.0 282.5Q191 226 179 169L151 29Z"/></g>
        <g transform="translate(4905, 0)"><path d="M90 -1Q101 54 112.5 108.5Q124 163 134 216Q172 406 196 580Q185 582 173.0 582.5Q161 583 150 582Q126 580 103 588Q104 596 104.0 605.5Q104 615 104 625Q104 636 104.0 646.5Q104 657 105 667Q106 678 106.0 690.5Q106 703 107 716Q133 714 159.0 713.0Q185 712 211 712Q285 712 352.5 717.0Q420 722 477 729L466 675L457 628Q452 602 448 587Q437 584 426.0 582.0Q415 580 404 579Q393 578 381.5 576.0Q370 574 359 572Q344 498 334.5 444.0Q325 390 317.5 340.5Q310 291 300 232Q283 131 270 27Z"/></g>
  </g>
  <g transform="translate(8, 40) scale(0.037, -0.037)" 
     fill="#000" stroke="#000" stroke-width="47.6" stroke-linejoin="round">
    <g transform="translate(0, 0)"><path d="M171 -2Q131 -2 91.0 19.5Q51 41 14 88L88 233Q99 214 120.5 197.0Q142 180 166.0 170.0Q190 160 207 160Q233 160 256.5 176.0Q280 192 280 219Q280 254 248.0 283.0Q216 312 176 340Q137 368 104.5 403.5Q72 439 72 485Q72 537 102.0 581.5Q132 626 180.0 659.5Q228 693 282.5 711.5Q337 730 386 730Q421 730 451.0 718.5Q481 707 499.0 681.0Q517 655 517 611Q517 604 516.5 597.0Q516 590 515 583Q514 576 512.5 568.5Q511 561 510 553L365 511Q367 519 368.5 527.0Q370 535 370 543Q370 573 359.5 586.5Q349 600 332 600Q323 600 306.0 590.5Q289 581 275.5 564.5Q262 548 262 528Q262 495 289.5 473.5Q317 452 353 430Q370 420 391.0 398.5Q412 377 427.5 340.5Q443 304 443 247Q443 173 406.5 117.0Q370 61 308.0 29.5Q246 -2 171 -2Z"/></g>
        <g transform="translate(430, 0)"><path d="M90 -1Q101 54 112.5 108.5Q124 163 134 216Q172 406 196 580Q185 582 173.0 582.5Q161 583 150 582Q126 580 103 588Q104 596 104.0 605.5Q104 615 104 625Q104 636 104.0 646.5Q104 657 105 667Q106 678 106.0 690.5Q106 703 107 716Q133 714 159.0 713.0Q185 712 211 712Q285 712 352.5 717.0Q420 722 477 729L466 675L457 628Q452 602 448 587Q437 584 426.0 582.0Q415 580 404 579Q393 578 381.5 576.0Q370 574 359 572Q344 498 334.5 444.0Q325 390 317.5 340.5Q310 291 300 232Q283 131 270 27Z"/></g>
        <g transform="translate(792, 0)"><path d="M259 2Q261 19 263.0 35.0Q265 51 267 67L273 123Q274 137 275.0 149.0Q276 161 277 171H190L150 27Q128 24 98.0 20.5Q68 17 42 14Q26 12 10.5 10.0Q-5 8 -21 6L58 268Q72 315 90.0 375.0Q108 435 126.5 498.0Q145 561 161.5 616.5Q178 672 188 710Q256 715 326.5 722.0Q397 729 464 741Q459 685 454.5 614.5Q450 544 446.5 469.0Q443 394 439 321Q437 252 434.0 178.5Q431 105 428 28Q413 26 398.0 24.0Q383 22 368 20Q343 16 313.0 11.0Q283 6 259 2ZM214 271Q220 271 236.5 272.0Q253 273 268.0 274.0Q283 275 286 275Q286 288 290.0 328.0Q294 368 298 412Q300 438 302.5 465.5Q305 493 308 522L314 609L299 608L276 522Z"/></g>
        <g transform="translate(1225, 0)"><path d="M4 -1 56 259Q68 331 82.0 407.0Q96 483 108.5 557.0Q121 631 128 696Q185 714 251.0 722.5Q317 731 382 731Q458 731 485.5 698.0Q513 665 513 609Q513 558 489.0 506.5Q465 455 426.5 413.5Q388 372 342 348Q360 308 380.5 260.5Q401 213 419 170Q429 145 439.5 120.0Q450 95 460 70L305 16L269 136Q254 186 241.5 232.5Q229 279 227 298L214 294Q211 278 207.5 259.5Q204 241 200 219Q196 197 192.0 176.5Q188 156 184 136L166 41ZM239 433Q257 435 283.5 448.5Q310 462 336.5 482.0Q363 502 381.0 523.0Q399 544 399 560Q399 580 375.5 586.5Q352 593 314 593H292Q286 592 281.0 592.0Q276 592 271 592Z"/></g>
        <g transform="translate(1669, 0)"><path d="M90 -1Q101 54 112.5 108.5Q124 163 134 216Q172 406 196 580Q185 582 173.0 582.5Q161 583 150 582Q126 580 103 588Q104 596 104.0 605.5Q104 615 104 625Q104 636 104.0 646.5Q104 657 105 667Q106 678 106.0 690.5Q106 703 107 716Q133 714 159.0 713.0Q185 712 211 712Q285 712 352.5 717.0Q420 722 477 729L466 675L457 628Q452 602 448 587Q437 584 426.0 582.0Q415 580 404 579Q393 578 381.5 576.0Q370 574 359 572Q344 498 334.5 444.0Q325 390 317.5 340.5Q310 291 300 232Q283 131 270 27Z"/></g>
        <g transform="translate(2031, 0)"><path d="M5 1Q19 59 33.0 132.5Q47 206 61.0 285.0Q75 364 87 437Q98 501 108.5 567.0Q119 633 129 700L285 725L240 462Q225 369 213.5 295.0Q202 221 191.5 155.0Q181 89 170 20Q151 20 124.0 17.5Q97 15 70.0 11.5Q43 8 24.5 5.0Q6 2 5 1Z"/></g>
        <g transform="translate(2233, 0)"><path d="M5 -5Q35 139 62 274Q84 401 105.0 518.0Q126 635 135 733Q142 732 147.5 732.0Q153 732 157 732H178Q204 732 236.0 733.5Q268 735 295 736Q302 701 308.5 667.0Q315 633 320 601Q325 573 331.0 543.5Q337 514 343 484Q348 454 353.5 428.5Q359 403 363 382Q375 441 385.5 498.0Q396 555 406 601L435 735L557 750Q540 674 525.0 601.0Q510 528 497 460Q472 338 453.0 230.0Q434 122 424 42Q435 42 420.5 39.5Q406 37 378.0 32.5Q350 28 318.0 21.0Q286 14 261 4Q258 44 255.0 82.0Q252 120 248 156Q242 220 234.0 283.0Q226 346 218 383Q211 339 201.0 282.5Q191 226 179 169L151 29Z"/></g>
        <g transform="translate(2685, 0)"><path d="M223 -24Q186 -24 152.5 -8.0Q119 8 95 41Q70 73 56.0 122.0Q42 171 42 237Q42 366 79.0 462.0Q116 558 173 622Q229 686 293.5 717.0Q358 748 414 748Q468 748 502.0 724.5Q536 701 552.0 662.0Q568 623 568 575L431 549Q422 589 407.0 606.0Q392 623 373 623Q351 623 327.5 599.0Q304 575 281.5 534.5Q259 494 241.0 444.0Q223 394 211.5 341.0Q200 288 198 241Q198 179 216.5 152.5Q235 126 264 126Q292 126 319.5 144.0Q347 162 365.5 192.5Q384 223 385 261L278 245L297 344L389 356Q427 361 469.5 368.0Q512 375 544 381Q537 279 504.5 202.5Q472 126 424.0 76.0Q376 26 323.5 1.0Q271 -24 223 -24Z"/></g>
        <g transform="translate(3379, 0)"><path d="M-3 -1Q27 134 54 263Q65 315 76.5 374.5Q88 434 100.0 495.0Q112 556 122.0 610.5Q132 665 138 706Q178 718 224.5 728.0Q271 738 308 738Q368 738 403.0 712.5Q438 687 453.0 644.0Q468 601 468 550Q468 494 447.5 442.5Q427 391 392.5 350.0Q358 309 313.5 285.0Q269 261 221 261H210Q202 227 195.0 187.0Q188 147 183 113Q179 93 176.0 73.0Q173 53 170 33ZM230 366Q253 372 276.0 396.5Q299 421 314.0 459.0Q329 497 329 542Q329 579 312.5 598.0Q296 617 276 617Q265 551 254.0 492.0Q243 433 230 366Z"/></g>
        <g transform="translate(3758, 0)"><path d="M181 -4Q115 -4 73.0 47.0Q31 98 31 201Q31 258 45.0 321.0Q59 384 84.0 445.0Q109 506 142 558Q195 642 264.0 695.0Q333 748 409 748Q469 748 501.5 717.5Q534 687 547.0 639.5Q560 592 560 541Q560 422 523.5 319.5Q487 217 429 146Q371 73 305.5 34.5Q240 -4 181 -4ZM235 161Q280 161 314.5 191.0Q349 221 373.0 267.5Q397 314 409.0 365.0Q421 416 421 457Q421 473 418.0 491.5Q415 510 405.0 524.0Q395 538 374 538Q328 538 291.0 504.5Q254 471 229 420Q204 368 192.0 318.0Q180 268 180 227Q180 206 195.0 183.5Q210 161 235 161Z"/></g>
        <g transform="translate(4251, 0)"><path d="M5 1Q19 59 33.0 132.5Q47 206 61.0 285.0Q75 364 87 437Q98 501 108.5 567.0Q119 633 129 700L285 725L240 462Q225 369 213.5 295.0Q202 221 191.5 155.0Q181 89 170 20Q151 20 124.0 17.5Q97 15 70.0 11.5Q43 8 24.5 5.0Q6 2 5 1Z"/></g>
        <g transform="translate(4453, 0)"><path d="M5 -5Q35 139 62 274Q84 401 105.0 518.0Q126 635 135 733Q142 732 147.5 732.0Q153 732 157 732H178Q204 732 236.0 733.5Q268 735 295 736Q302 701 308.5 667.0Q315 633 320 601Q325 573 331.0 543.5Q337 514 343 484Q348 454 353.5 428.5Q359 403 363 382Q375 441 385.5 498.0Q396 555 406 601L435 735L557 750Q540 674 525.0 601.0Q510 528 497 460Q472 338 453.0 230.0Q434 122 424 42Q435 42 420.5 39.5Q406 37 378.0 32.5Q350 28 318.0 21.0Q286 14 261 4Q258 44 255.0 82.0Q252 120 248 156Q242 220 234.0 283.0Q226 346 218 383Q211 339 201.0 282.5Q191 226 179 169L151 29Z"/></g>
        <g transform="translate(4905, 0)"><path d="M90 -1Q101 54 112.5 108.5Q124 163 134 216Q172 406 196 580Q185 582 173.0 582.5Q161 583 150 582Q126 580 103 588Q104 596 104.0 605.5Q104 615 104 625Q104 636 104.0 646.5Q104 657 105 667Q106 678 106.0 690.5Q106 703 107 716Q133 714 159.0 713.0Q185 712 211 712Q285 712 352.5 717.0Q420 722 477 729L466 675L457 628Q452 602 448 587Q437 584 426.0 582.0Q415 580 404 579Q393 578 381.5 576.0Q370 574 359 572Q344 498 334.5 444.0Q325 390 317.5 340.5Q310 291 300 232Q283 131 270 27Z"/></g>
  </g>
  <g transform="translate(8, 40) scale(0.037, -0.037)" 
     fill="#FFFFFF" stroke="none">
    <g transform="translate(0, 0)"><path d="M171 -2Q131 -2 91.0 19.5Q51 41 14 88L88 233Q99 214 120.5 197.0Q142 180 166.0 170.0Q190 160 207 160Q233 160 256.5 176.0Q280 192 280 219Q280 254 248.0 283.0Q216 312 176 340Q137 368 104.5 403.5Q72 439 72 485Q72 537 102.0 581.5Q132 626 180.0 659.5Q228 693 282.5 711.5Q337 730 386 730Q421 730 451.0 718.5Q481 707 499.0 681.0Q517 655 517 611Q517 604 516.5 597.0Q516 590 515 583Q514 576 512.5 568.5Q511 561 510 553L365 511Q367 519 368.5 527.0Q370 535 370 543Q370 573 359.5 586.5Q349 600 332 600Q323 600 306.0 590.5Q289 581 275.5 564.5Q262 548 262 528Q262 495 289.5 473.5Q317 452 353 430Q370 420 391.0 398.5Q412 377 427.5 340.5Q443 304 443 247Q443 173 406.5 117.0Q370 61 308.0 29.5Q246 -2 171 -2Z"/></g>
        <g transform="translate(430, 0)"><path d="M90 -1Q101 54 112.5 108.5Q124 163 134 216Q172 406 196 580Q185 582 173.0 582.5Q161 583 150 582Q126 580 103 588Q104 596 104.0 605.5Q104 615 104 625Q104 636 104.0 646.5Q104 657 105 667Q106 678 106.0 690.5Q106 703 107 716Q133 714 159.0 713.0Q185 712 211 712Q285 712 352.5 717.0Q420 722 477 729L466 675L457 628Q452 602 448 587Q437 584 426.0 582.0Q415 580 404 579Q393 578 381.5 576.0Q370 574 359 572Q344 498 334.5 444.0Q325 390 317.5 340.5Q310 291 300 232Q283 131 270 27Z"/></g>
        <g transform="translate(792, 0)"><path d="M259 2Q261 19 263.0 35.0Q265 51 267 67L273 123Q274 137 275.0 149.0Q276 161 277 171H190L150 27Q128 24 98.0 20.5Q68 17 42 14Q26 12 10.5 10.0Q-5 8 -21 6L58 268Q72 315 90.0 375.0Q108 435 126.5 498.0Q145 561 161.5 616.5Q178 672 188 710Q256 715 326.5 722.0Q397 729 464 741Q459 685 454.5 614.5Q450 544 446.5 469.0Q443 394 439 321Q437 252 434.0 178.5Q431 105 428 28Q413 26 398.0 24.0Q383 22 368 20Q343 16 313.0 11.0Q283 6 259 2ZM214 271Q220 271 236.5 272.0Q253 273 268.0 274.0Q283 275 286 275Q286 288 290.0 328.0Q294 368 298 412Q300 438 302.5 465.5Q305 493 308 522L314 609L299 608L276 522Z"/></g>
        <g transform="translate(1225, 0)"><path d="M4 -1 56 259Q68 331 82.0 407.0Q96 483 108.5 557.0Q121 631 128 696Q185 714 251.0 722.5Q317 731 382 731Q458 731 485.5 698.0Q513 665 513 609Q513 558 489.0 506.5Q465 455 426.5 413.5Q388 372 342 348Q360 308 380.5 260.5Q401 213 419 170Q429 145 439.5 120.0Q450 95 460 70L305 16L269 136Q254 186 241.5 232.5Q229 279 227 298L214 294Q211 278 207.5 259.5Q204 241 200 219Q196 197 192.0 176.5Q188 156 184 136L166 41ZM239 433Q257 435 283.5 448.5Q310 462 336.5 482.0Q363 502 381.0 523.0Q399 544 399 560Q399 580 375.5 586.5Q352 593 314 593H292Q286 592 281.0 592.0Q276 592 271 592Z"/></g>
        <g transform="translate(1669, 0)"><path d="M90 -1Q101 54 112.5 108.5Q124 163 134 216Q172 406 196 580Q185 582 173.0 582.5Q161 583 150 582Q126 580 103 588Q104 596 104.0 605.5Q104 615 104 625Q104 636 104.0 646.5Q104 657 105 667Q106 678 106.0 690.5Q106 703 107 716Q133 714 159.0 713.0Q185 712 211 712Q285 712 352.5 717.0Q420 722 477 729L466 675L457 628Q452 602 448 587Q437 584 426.0 582.0Q415 580 404 579Q393 578 381.5 576.0Q370 574 359 572Q344 498 334.5 444.0Q325 390 317.5 340.5Q310 291 300 232Q283 131 270 27Z"/></g>
        <g transform="translate(2031, 0)"><path d="M5 1Q19 59 33.0 132.5Q47 206 61.0 285.0Q75 364 87 437Q98 501 108.5 567.0Q119 633 129 700L285 725L240 462Q225 369 213.5 295.0Q202 221 191.5 155.0Q181 89 170 20Q151 20 124.0 17.5Q97 15 70.0 11.5Q43 8 24.5 5.0Q6 2 5 1Z"/></g>
        <g transform="translate(2233, 0)"><path d="M5 -5Q35 139 62 274Q84 401 105.0 518.0Q126 635 135 733Q142 732 147.5 732.0Q153 732 157 732H178Q204 732 236.0 733.5Q268 735 295 736Q302 701 308.5 667.0Q315 633 320 601Q325 573 331.0 543.5Q337 514 343 484Q348 454 353.5 428.5Q359 403 363 382Q375 441 385.5 498.0Q396 555 406 601L435 735L557 750Q540 674 525.0 601.0Q510 528 497 460Q472 338 453.0 230.0Q434 122 424 42Q435 42 420.5 39.5Q406 37 378.0 32.5Q350 28 318.0 21.0Q286 14 261 4Q258 44 255.0 82.0Q252 120 248 156Q242 220 234.0 283.0Q226 346 218 383Q211 339 201.0 282.5Q191 226 179 169L151 29Z"/></g>
        <g transform="translate(2685, 0)"><path d="M223 -24Q186 -24 152.5 -8.0Q119 8 95 41Q70 73 56.0 122.0Q42 171 42 237Q42 366 79.0 462.0Q116 558 173 622Q229 686 293.5 717.0Q358 748 414 748Q468 748 502.0 724.5Q536 701 552.0 662.0Q568 623 568 575L431 549Q422 589 407.0 606.0Q392 623 373 623Q351 623 327.5 599.0Q304 575 281.5 534.5Q259 494 241.0 444.0Q223 394 211.5 341.0Q200 288 198 241Q198 179 216.5 152.5Q235 126 264 126Q292 126 319.5 144.0Q347 162 365.5 192.5Q384 223 385 261L278 245L297 344L389 356Q427 361 469.5 368.0Q512 375 544 381Q537 279 504.5 202.5Q472 126 424.0 76.0Q376 26 323.5 1.0Q271 -24 223 -24Z"/></g>
        <g transform="translate(3379, 0)"><path d="M-3 -1Q27 134 54 263Q65 315 76.5 374.5Q88 434 100.0 495.0Q112 556 122.0 610.5Q132 665 138 706Q178 718 224.5 728.0Q271 738 308 738Q368 738 403.0 712.5Q438 687 453.0 644.0Q468 601 468 550Q468 494 447.5 442.5Q427 391 392.5 350.0Q358 309 313.5 285.0Q269 261 221 261H210Q202 227 195.0 187.0Q188 147 183 113Q179 93 176.0 73.0Q173 53 170 33ZM230 366Q253 372 276.0 396.5Q299 421 314.0 459.0Q329 497 329 542Q329 579 312.5 598.0Q296 617 276 617Q265 551 254.0 492.0Q243 433 230 366Z"/></g>
        <g transform="translate(3758, 0)"><path d="M181 -4Q115 -4 73.0 47.0Q31 98 31 201Q31 258 45.0 321.0Q59 384 84.0 445.0Q109 506 142 558Q195 642 264.0 695.0Q333 748 409 748Q469 748 501.5 717.5Q534 687 547.0 639.5Q560 592 560 541Q560 422 523.5 319.5Q487 217 429 146Q371 73 305.5 34.5Q240 -4 181 -4ZM235 161Q280 161 314.5 191.0Q349 221 373.0 267.5Q397 314 409.0 365.0Q421 416 421 457Q421 473 418.0 491.5Q415 510 405.0 524.0Q395 538 374 538Q328 538 291.0 504.5Q254 471 229 420Q204 368 192.0 318.0Q180 268 180 227Q180 206 195.0 183.5Q210 161 235 161Z"/></g>
        <g transform="translate(4251, 0)"><path d="M5 1Q19 59 33.0 132.5Q47 206 61.0 285.0Q75 364 87 437Q98 501 108.5 567.0Q119 633 129 700L285 725L240 462Q225 369 213.5 295.0Q202 221 191.5 155.0Q181 89 170 20Q151 20 124.0 17.5Q97 15 70.0 11.5Q43 8 24.5 5.0Q6 2 5 1Z"/></g>
        <g transform="translate(4453, 0)"><path d="M5 -5Q35 139 62 274Q84 401 105.0 518.0Q126 635 135 733Q142 732 147.5 732.0Q153 732 157 732H178Q204 732 236.0 733.5Q268 735 295 736Q302 701 308.5 667.0Q315 633 320 601Q325 573 331.0 543.5Q337 514 343 484Q348 454 353.5 428.5Q359 403 363 382Q375 441 385.5 498.0Q396 555 406 601L435 735L557 750Q540 674 525.0 601.0Q510 528 497 460Q472 338 453.0 230.0Q434 122 424 42Q435 42 420.5 39.5Q406 37 378.0 32.5Q350 28 318.0 21.0Q286 14 261 4Q258 44 255.0 82.0Q252 120 248 156Q242 220 234.0 283.0Q226 346 218 383Q211 339 201.0 282.5Q191 226 179 169L151 29Z"/></g>
        <g transform="translate(4905, 0)"><path d="M90 -1Q101 54 112.5 108.5Q124 163 134 216Q172 406 196 580Q185 582 173.0 582.5Q161 583 150 582Q126 580 103 588Q104 596 104.0 605.5Q104 615 104 625Q104 636 104.0 646.5Q104 657 105 667Q106 678 106.0 690.5Q106 703 107 716Q133 714 159.0 713.0Q185 712 211 712Q285 712 352.5 717.0Q420 722 477 729L466 675L457 628Q452 602 448 587Q437 584 426.0 582.0Q415 580 404 579Q393 578 381.5 576.0Q370 574 359 572Q344 498 334.5 444.0Q325 390 317.5 340.5Q310 291 300 232Q283 131 270 27Z"/></g>
  </g>
</svg>