<svg xmlns="http://www.w3.org/2000/svg" viewBox="0 0 397.224 76" width="397.224" height="76">
  <path d="M4 -1 56 259Q68 331 82.0 407.0Q96 483 108.5 557.0Q121 631 128 696Q185 714 251.0 722.5Q317 731 382 731Q458 731 485.5 698.0Q513 665 513 609Q513 558 489.0 506.5Q465 455 426.5 413.5Q388 372 342 348Q360 308 380.5 260.5Q401 213 419 170Q429 145 439.5 120.0Q450 95 460 70L305 16Q295 51 286.0 83.0Q277 115 269 146Q259 183 250.0 217.5Q241 252 234.5 279.0Q228 306 227 317L214 313Q208 281 199.5 235.0Q191 189 184 146L166 41ZM239 433Q257 435 283.5 448.5Q310 462 336.5 482.0Q363 502 381.0 523.0Q399 544 399 560Q399 580 375.5 586.5Q352 593 314 593H292Q286 592 281.0 592.0Q276 592 271 592Z" transform="translate(14, 58) scale(0.052, -0.052)" fill="#000" stroke="#000" stroke-width="50"/>
  <path d="M4 -1 56 259Q68 331 82.0 407.0Q96 483 108.5 557.0Q121 631 128 696Q185 714 251.0 722.5Q317 731 382 731Q458 731 485.5 698.0Q513 665 513 609Q513 558 489.0 506.5Q465 455 426.5 413.5Q388 372 342 348Q360 308 380.5 260.5Q401 213 419 170Q429 145 439.5 120.0Q450 95 460 70L305 16Q295 51 286.0 83.0Q277 115 269 146Q259 183 250.0 217.5Q241 252 234.5 279.0Q228 306 227 317L214 313Q208 281 199.5 235.0Q191 189 184 146L166 41ZM239 433Q257 435 283.5 448.5Q310 462 336.5 482.0Q363 502 381.0 523.0Q399 544 399 560Q399 580 375.5 586.5Q352 593 314 593H292Q286 592 281.0 592.0Q276 592 271 592Z" transform="translate(10, 54) scale(0.052, -0.052)" fill="#000" stroke="#000" stroke-width="50"/>
  <path d="M4 -1 56 259Q68 331 82.0 407.0Q96 483 108.5 557.0Q121 631 128 696Q185 714 251.0 722.5Q317 731 382 731Q458 731 485.5 698.0Q513 665 513 609Q513 558 489.0 506.5Q465 455 426.5 413.5Q388 372 342 348Q360 308 380.5 260.5Q401 213 419 170Q429 145 439.5 120.0Q450 95 460 70L305 16Q295 51 286.0 83.0Q277 115 269 146Q259 183 250.0 217.5Q241 252 234.5 279.0Q228 306 227 317L214 313Q208 281 199.5 235.0Q191 189 184 146L166 41ZM239 433Q257 435 283.5 448.5Q310 462 336.5 482.0Q363 502 381.0 523.0Q399 544 399 560Q399 580 375.5 586.5Q352 593 314 593H292Q286 592 281.0 592.0Q276 592 271 592Z" transform="translate(10, 54) scale(0.052, -0.052)" fill="#fff"/>
  <path d="M8 -1 139 710 455 737Q448 715 443 692Q438 673 433.5 652.5Q429 632 426 616Q413 615 389.0 614.5Q365 614 340.0 613.5Q315 613 297.0 613.0Q279 613 278 613L243 434L301 437Q312 438 323.5 438.0Q335 438 346 438Q357 438 366.0 438.0Q375 438 380 439Q378 425 376.5 411.5Q375 398 373 384L364 329Q359 328 351.0 328.0Q343 328 332 328Q321 327 309.0 327.0Q297 327 286 326Q273 325 259.0 325.0Q245 325 229 324L195 140L341 163L331 49Z" transform="translate(40.087999999999994, 58) scale(0.052, -0.052)" fill="#000" stroke="#000" stroke-width="50"/>
  <path d="M8 -1 139 710 455 737Q448 715 443 692Q438 673 433.5 652.5Q429 632 426 616Q413 615 389.0 614.5Q365 614 340.0 613.5Q315 613 297.0 613.0Q279 613 278 613L243 434L301 437Q312 438 323.5 438.0Q335 438 346 438Q357 438 366.0 438.0Q375 438 380 439Q378 425 376.5 411.5Q375 398 373 384L364 329Q359 328 351.0 328.0Q343 328 332 328Q321 327 309.0 327.0Q297 327 286 326Q273 325 259.0 325.0Q245 325 229 324L195 140L341 163L331 49Z" transform="translate(36.087999999999994, 54) scale(0.052, -0.052)" fill="#000" stroke="#000" stroke-width="50"/>
  <path d="M8 -1 139 710 455 737Q448 715 443 692Q438 673 433.5 652.5Q429 632 426 616Q413 615 389.0 614.5Q365 614 340.0 613.5Q315 613 297.0 613.0Q279 613 278 613L243 434L301 437Q312 438 323.5 438.0Q335 438 346 438Q357 438 366.0 438.0Q375 438 380 439Q378 425 376.5 411.5Q375 398 373 384L364 329Q359 328 351.0 328.0Q343 328 332 328Q321 327 309.0 327.0Q297 327 286 326Q273 325 259.0 325.0Q245 325 229 324L195 140L341 163L331 49Z" transform="translate(36.087999999999994, 54) scale(0.052, -0.052)" fill="#fff"/>
  <path d="M259 2Q261 19 263.0 35.0Q265 51 267 67L273 123Q274 137 275.0 149.0Q276 161 277 171H190L150 27Q128 24 98.0 20.5Q68 17 42 14Q26 12 10.5 10.0Q-5 8 -21 6L58 268Q72 315 90.0 375.0Q108 435 126.5 498.0Q145 561 161.5 616.5Q178 672 188 710Q256 715 326.5 722.0Q397 729 464 741Q459 685 454.5 614.5Q450 544 446.5 469.0Q443 394 439 321Q437 252 434.0 178.5Q431 105 428 28Q413 26 398.0 24.0Q383 22 368 20Q343 16 313.0 11.0Q283 6 259 2ZM214 271Q220 271 236.5 272.0Q253 273 268.0 274.0Q283 275 286 275Q286 288 290.0 328.0Q294 368 298 412Q300 438 302.5 465.5Q305 493 308 522L314 609L299 608L276 522Z" transform="translate(60.81999999999999, 58) scale(0.052, -0.052)" fill="#000" stroke="#000" stroke-width="50"/>
  <path d="M259 2Q261 19 263.0 35.0Q265 51 267 67L273 123Q274 137 275.0 149.0Q276 161 277 171H190L150 27Q128 24 98.0 20.5Q68 17 42 14Q26 12 10.5 10.0Q-5 8 -21 6L58 268Q72 315 90.0 375.0Q108 435 126.5 498.0Q145 561 161.5 616.5Q178 672 188 710Q256 715 326.5 722.0Q397 729 464 741Q459 685 454.5 614.5Q450 544 446.5 469.0Q443 394 439 321Q437 252 434.0 178.5Q431 105 428 28Q413 26 398.0 24.0Q383 22 368 20Q343 16 313.0 11.0Q283 6 259 2ZM214 271Q220 271 236.5 272.0Q253 273 268.0 274.0Q283 275 286 275Q286 288 290.0 328.0Q294 368 298 412Q300 438 302.5 465.5Q305 493 308 522L314 609L299 608L276 522Z" transform="translate(56.81999999999999, 54) scale(0.052, -0.052)" fill="#000" stroke="#000" stroke-width="50"/>
  <path d="M259 2Q261 19 263.0 35.0Q265 51 267 67L273 123Q274 137 275.0 149.0Q276 161 277 171H190L150 27Q128 24 98.0 20.5Q68 17 42 14Q26 12 10.5 10.0Q-5 8 -21 6L58 268Q72 315 90.0 375.0Q108 435 126.5 498.0Q145 561 161.5 616.5Q178 672 188 710Q256 715 326.5 722.0Q397 729 464 741Q459 685 454.5 614.5Q450 544 446.5 469.0Q443 394 439 321Q437 252 434.0 178.5Q431 105 428 28Q413 26 398.0 24.0Q383 22 368 20Q343 16 313.0 11.0Q283 6 259 2ZM214 271Q220 271 236.5 272.0Q253 273 268.0 274.0Q283 275 286 275Q286 288 290.0 328.0Q294 368 298 412Q300 438 302.5 465.5Q305 493 308 522L314 609L299 608L276 522Z" transform="translate(56.81999999999999, 54) scale(0.052, -0.052)" fill="#fff"/>
  <path d="M60 -5Q46 -5 32.0 -3.5Q18 -2 4 0L57 269Q67 324 78.5 385.5Q90 447 101.0 507.5Q112 568 120.5 620.0Q129 672 134 708Q177 716 221.0 723.0Q265 730 311 730Q385 730 428.0 699.5Q471 669 490.0 619.5Q509 570 509 511Q509 458 494.0 399.5Q479 341 451.5 283.5Q424 226 386 175Q327 96 242.5 45.5Q158 -5 60 -5ZM179 121Q214 144 245.5 191.0Q277 238 305 304Q330 365 344.0 419.5Q358 474 358 510Q358 547 337.5 568.0Q317 589 273 589Q257 503 240.5 430.0Q224 357 208.5 283.0Q193 209 179 121Z" transform="translate(86.33599999999998, 58) scale(0.052, -0.052)" fill="#000" stroke="#000" stroke-width="50"/>
  <path d="M60 -5Q46 -5 32.0 -3.5Q18 -2 4 0L57 269Q67 324 78.5 385.5Q90 447 101.0 507.5Q112 568 120.5 620.0Q129 672 134 708Q177 716 221.0 723.0Q265 730 311 730Q385 730 428.0 699.5Q471 669 490.0 619.5Q509 570 509 511Q509 458 494.0 399.5Q479 341 451.5 283.5Q424 226 386 175Q327 96 242.5 45.5Q158 -5 60 -5ZM179 121Q214 144 245.5 191.0Q277 238 305 304Q330 365 344.0 419.5Q358 474 358 510Q358 547 337.5 568.0Q317 589 273 589Q257 503 240.5 430.0Q224 357 208.5 283.0Q193 209 179 121Z" transform="translate(82.33599999999998, 54) scale(0.052, -0.052)" fill="#000" stroke="#000" stroke-width="50"/>
  <path d="M60 -5Q46 -5 32.0 -3.5Q18 -2 4 0L57 269Q67 324 78.5 385.5Q90 447 101.0 507.5Q112 568 120.5 620.0Q129 672 134 708Q177 716 221.0 723.0Q265 730 311 730Q385 730 428.0 699.5Q471 669 490.0 619.5Q509 570 509 511Q509 458 494.0 399.5Q479 341 451.5 283.5Q424 226 386 175Q327 96 242.5 45.5Q158 -5 60 -5ZM179 121Q214 144 245.5 191.0Q277 238 305 304Q330 365 344.0 419.5Q358 474 358 510Q358 547 337.5 568.0Q317 589 273 589Q257 503 240.5 430.0Q224 357 208.5 283.0Q193 209 179 121Z" transform="translate(82.33599999999998, 54) scale(0.052, -0.052)" fill="#fff"/>
  <path d="M-6 1Q11 60 27.5 135.0Q44 210 59.5 288.5Q75 367 89 437Q102 501 114.0 567.0Q126 633 138 700L294 725Q281 658 268.0 592.5Q255 527 242 462Q228 392 213.0 314.0Q198 236 184.0 160.5Q170 85 158 20Q140 20 113.0 17.5Q86 15 59.0 11.5Q32 8 13.5 5.0Q-5 2 -6 1Z" transform="translate(112.26799999999999, 58) scale(0.052, -0.052)" fill="#000" stroke="#000" stroke-width="50"/>
  <path d="M-6 1Q11 60 27.5 135.0Q44 210 59.5 288.5Q75 367 89 437Q102 501 114.0 567.0Q126 633 138 700L294 725Q281 658 268.0 592.5Q255 527 242 462Q228 392 213.0 314.0Q198 236 184.0 160.5Q170 85 158 20Q140 20 113.0 17.5Q86 15 59.0 11.5Q32 8 13.5 5.0Q-5 2 -6 1Z" transform="translate(108.26799999999999, 54) scale(0.052, -0.052)" fill="#000" stroke="#000" stroke-width="50"/>
  <path d="M-6 1Q11 60 27.5 135.0Q44 210 59.5 288.5Q75 367 89 437Q102 501 114.0 567.0Q126 633 138 700L294 725Q281 658 268.0 592.5Q255 527 242 462Q228 392 213.0 314.0Q198 236 184.0 160.5Q170 85 158 20Q140 20 113.0 17.5Q86 15 59.0 11.5Q32 8 13.5 5.0Q-5 2 -6 1Z" transform="translate(108.26799999999999, 54) scale(0.052, -0.052)" fill="#fff"/>
  <path d="M6 -5Q20 66 33.5 134.5Q47 203 60 270Q74 348 88.5 428.0Q103 508 115.5 584.0Q128 660 135 725Q151 726 166.0 727.0Q181 728 195 729Q208 730 221.5 731.0Q235 732 248 733L296 736Q303 698 308.5 661.0Q314 624 319 589Q323 565 328.5 533.0Q334 501 339.5 467.5Q345 434 350.5 405.0Q356 376 360 358Q370 411 376.5 445.5Q383 480 389.5 512.5Q396 545 405 589L436 735L558 750Q541 675 526.0 604.0Q511 533 498 466Q473 345 454.0 239.5Q435 134 425 55L262 17L247 171Q245 194 241.0 226.5Q237 259 233.0 293.5Q229 328 225.0 356.5Q221 385 219 399Q209 340 200.0 284.5Q191 229 180 177Q173 142 166.5 104.5Q160 67 152 29Z" transform="translate(125.66799999999999, 58) scale(0.052, -0.052)" fill="#000" stroke="#000" stroke-width="50"/>
  <path d="M6 -5Q20 66 33.5 134.5Q47 203 60 270Q74 348 88.5 428.0Q103 508 115.5 584.0Q128 660 135 725Q151 726 166.0 727.0Q181 728 195 729Q208 730 221.5 731.0Q235 732 248 733L296 736Q303 698 308.5 661.0Q314 624 319 589Q323 565 328.5 533.0Q334 501 339.5 467.5Q345 434 350.5 405.0Q356 376 360 358Q370 411 376.5 445.5Q383 480 389.5 512.5Q396 545 405 589L436 735L558 750Q541 675 526.0 604.0Q511 533 498 466Q473 345 454.0 239.5Q435 134 425 55L262 17L247 171Q245 194 241.0 226.5Q237 259 233.0 293.5Q229 328 225.0 356.5Q221 385 219 399Q209 340 200.0 284.5Q191 229 180 177Q173 142 166.5 104.5Q160 67 152 29Z" transform="translate(121.66799999999999, 54) scale(0.052, -0.052)" fill="#000" stroke="#000" stroke-width="50"/>
  <path d="M6 -5Q20 66 33.5 134.5Q47 203 60 270Q74 348 88.5 428.0Q103 508 115.5 584.0Q128 660 135 725Q151 726 166.0 727.0Q181 728 195 729Q208 730 221.5 731.0Q235 732 248 733L296 736Q303 698 308.5 661.0Q314 624 319 589Q323 565 328.5 533.0Q334 501 339.5 467.5Q345 434 350.5 405.0Q356 376 360 358Q370 411 376.5 445.5Q383 480 389.5 512.5Q396 545 405 589L436 735L558 750Q541 675 526.0 604.0Q511 533 498 466Q473 345 454.0 239.5Q435 134 425 55L262 17L247 171Q245 194 241.0 226.5Q237 259 233.0 293.5Q229 328 225.0 356.5Q221 385 219 399Q209 340 200.0 284.5Q191 229 180 177Q173 142 166.5 104.5Q160 67 152 29Z" transform="translate(121.66799999999999, 54) scale(0.052, -0.052)" fill="#fff"/>
  <path d="M223 -24Q186 -24 152.5 -8.0Q119 8 95 41Q70 73 56.0 122.0Q42 171 42 237Q42 366 79.0 462.0Q116 558 173 622Q229 686 293.5 717.0Q358 748 414 748Q468 748 502.0 724.5Q536 701 552.0 662.0Q568 623 568 575L431 549Q422 589 407.0 606.0Q392 623 373 623Q351 623 327.5 599.0Q304 575 281.5 534.5Q259 494 241.0 444.0Q223 394 211.5 341.0Q200 288 198 241Q198 179 216.5 152.5Q235 126 264 126Q292 126 319.5 144.0Q347 162 365.5 192.5Q384 223 385 261L278 245L297 344L389 356Q427 361 469.5 368.0Q512 375 544 381Q537 279 504.5 202.5Q472 126 424.0 76.0Q376 26 323.5 1.0Q271 -24 223 -24Z" transform="translate(152.224, 58) scale(0.052, -0.052)" fill="#000" stroke="#000" stroke-width="50"/>
  <path d="M223 -24Q186 -24 152.5 -8.0Q119 8 95 41Q70 73 56.0 122.0Q42 171 42 237Q42 366 79.0 462.0Q116 558 173 622Q229 686 293.5 717.0Q358 748 414 748Q468 748 502.0 724.5Q536 701 552.0 662.0Q568 623 568 575L431 549Q422 589 407.0 606.0Q392 623 373 623Q351 623 327.5 599.0Q304 575 281.5 534.5Q259 494 241.0 444.0Q223 394 211.5 341.0Q200 288 198 241Q198 179 216.5 152.5Q235 126 264 126Q292 126 319.5 144.0Q347 162 365.5 192.5Q384 223 385 261L278 245L297 344L389 356Q427 361 469.5 368.0Q512 375 544 381Q537 279 504.5 202.5Q472 126 424.0 76.0Q376 26 323.5 1.0Q271 -24 223 -24Z" transform="translate(148.224, 54) scale(0.052, -0.052)" fill="#000" stroke="#000" stroke-width="50"/>
  <path d="M223 -24Q186 -24 152.5 -8.0Q119 8 95 41Q70 73 56.0 122.0Q42 171 42 237Q42 366 79.0 462.0Q116 558 173 622Q229 686 293.5 717.0Q358 748 414 748Q468 748 502.0 724.5Q536 701 552.0 662.0Q568 623 568 575L431 549Q422 589 407.0 606.0Q392 623 373 623Q351 623 327.5 599.0Q304 575 281.5 534.5Q259 494 241.0 444.0Q223 394 211.5 341.0Q200 288 198 241Q198 179 216.5 152.5Q235 126 264 126Q292 126 319.5 144.0Q347 162 365.5 192.5Q384 223 385 261L278 245L297 344L389 356Q427 361 469.5 368.0Q512 375 544 381Q537 279 504.5 202.5Q472 126 424.0 76.0Q376 26 323.5 1.0Q271 -24 223 -24Z" transform="translate(148.224, 54) scale(0.052, -0.052)" fill="#fff"/>
  <path d="M4 -1Q18 47 31.0 108.5Q44 170 55.5 234.0Q67 298 77.0 353.0Q87 408 93 444Q104 511 114.5 579.5Q125 648 135 719L470 736L441 613H284L253 435Q269 436 283.5 436.0Q298 436 312 436H359Q371 436 380.0 436.0Q389 436 396 437Q395 423 393.0 409.5Q391 396 389 382L380 328Q359 328 319.5 329.5Q280 331 236 332L190 37Q173 34 156.5 31.0Q140 28 123 24Q95 19 62.0 12.0Q29 5 4 -1Z" transform="translate(196.772, 58) scale(0.052, -0.052)" fill="#000" stroke="#000" stroke-width="50"/>
  <path d="M4 -1Q18 47 31.0 108.5Q44 170 55.5 234.0Q67 298 77.0 353.0Q87 408 93 444Q104 511 114.5 579.5Q125 648 135 719L470 736L441 613H284L253 435Q269 436 283.5 436.0Q298 436 312 436H359Q371 436 380.0 436.0Q389 436 396 437Q395 423 393.0 409.5Q391 396 389 382L380 328Q359 328 319.5 329.5Q280 331 236 332L190 37Q173 34 156.5 31.0Q140 28 123 24Q95 19 62.0 12.0Q29 5 4 -1Z" transform="translate(192.772, 54) scale(0.052, -0.052)" fill="#000" stroke="#000" stroke-width="50"/>
  <path d="M4 -1Q18 47 31.0 108.5Q44 170 55.5 234.0Q67 298 77.0 353.0Q87 408 93 444Q104 511 114.5 579.5Q125 648 135 719L470 736L441 613H284L253 435Q269 436 283.5 436.0Q298 436 312 436H359Q371 436 380.0 436.0Q389 436 396 437Q395 423 393.0 409.5Q391 396 389 382L380 328Q359 328 319.5 329.5Q280 331 236 332L190 37Q173 34 156.5 31.0Q140 28 123 24Q95 19 62.0 12.0Q29 5 4 -1Z" transform="translate(192.772, 54) scale(0.052, -0.052)" fill="#fff"/>
  <path d="M8 -1 139 710 455 737Q448 715 443 692Q438 673 433.5 652.5Q429 632 426 616Q413 615 389.0 614.5Q365 614 340.0 613.5Q315 613 297.0 613.0Q279 613 278 613L243 434L301 437Q312 438 323.5 438.0Q335 438 346 438Q357 438 366.0 438.0Q375 438 380 439Q378 425 376.5 411.5Q375 398 373 384L364 329Q359 328 351.0 328.0Q343 328 332 328Q321 327 309.0 327.0Q297 327 286 326Q273 325 259.0 325.0Q245 325 229 324L195 140L341 163L331 49Z" transform="translate(217.504, 58) scale(0.052, -0.052)" fill="#000" stroke="#000" stroke-width="50"/>
  <path d="M8 -1 139 710 455 737Q448 715 443 692Q438 673 433.5 652.5Q429 632 426 616Q413 615 389.0 614.5Q365 614 340.0 613.5Q315 613 297.0 613.0Q279 613 278 613L243 434L301 437Q312 438 323.5 438.0Q335 438 346 438Q357 438 366.0 438.0Q375 438 380 439Q378 425 376.5 411.5Q375 398 373 384L364 329Q359 328 351.0 328.0Q343 328 332 328Q321 327 309.0 327.0Q297 327 286 326Q273 325 259.0 325.0Q245 325 229 324L195 140L341 163L331 49Z" transform="translate(213.504, 54) scale(0.052, -0.052)" fill="#000" stroke="#000" stroke-width="50"/>
  <path d="M8 -1 139 710 455 737Q448 715 443 692Q438 673 433.5 652.5Q429 632 426 616Q413 615 389.0 614.5Q365 614 340.0 613.5Q315 613 297.0 613.0Q279 613 278 613L243 434L301 437Q312 438 323.5 438.0Q335 438 346 438Q357 438 366.0 438.0Q375 438 380 439Q378 425 376.5 411.5Q375 398 373 384L364 329Q359 328 351.0 328.0Q343 328 332 328Q321 327 309.0 327.0Q297 327 286 326Q273 325 259.0 325.0Q245 325 229 324L195 140L341 163L331 49Z" transform="translate(213.504, 54) scale(0.052, -0.052)" fill="#fff"/>
  <path d="M8 -1 139 710 455 737Q448 715 443 692Q438 673 433.5 652.5Q429 632 426 616Q413 615 389.0 614.5Q365 614 340.0 613.5Q315 613 297.0 613.0Q279 613 278 613L243 434L301 437Q312 438 323.5 438.0Q335 438 346 438Q357 438 366.0 438.0Q375 438 380 439Q378 425 376.5 411.5Q375 398 373 384L364 329Q359 328 351.0 328.0Q343 328 332 328Q321 327 309.0 327.0Q297 327 286 326Q273 325 259.0 325.0Q245 325 229 324L195 140L341 163L331 49Z" transform="translate(238.236, 58) scale(0.052, -0.052)" fill="#000" stroke="#000" stroke-width="50"/>
  <path d="M8 -1 139 710 455 737Q448 715 443 692Q438 673 433.5 652.5Q429 632 426 616Q413 615 389.0 614.5Q365 614 340.0 613.5Q315 613 297.0 613.0Q279 613 278 613L243 434L301 437Q312 438 323.5 438.0Q335 438 346 438Q357 438 366.0 438.0Q375 438 380 439Q378 425 376.5 411.5Q375 398 373 384L364 329Q359 328 351.0 328.0Q343 328 332 328Q321 327 309.0 327.0Q297 327 286 326Q273 325 259.0 325.0Q245 325 229 324L195 140L341 163L331 49Z" transform="translate(234.236, 54) scale(0.052, -0.052)" fill="#000" stroke="#000" stroke-width="50"/>
  <path d="M8 -1 139 710 455 737Q448 715 443 692Q438 673 433.5 652.5Q429 632 426 616Q413 615 389.0 614.5Q365 614 340.0 613.5Q315 613 297.0 613.0Q279 613 278 613L243 434L301 437Q312 438 323.5 438.0Q335 438 346 438Q357 438 366.0 438.0Q375 438 380 439Q378 425 376.5 411.5Q375 398 373 384L364 329Q359 328 351.0 328.0Q343 328 332 328Q321 327 309.0 327.0Q297 327 286 326Q273 325 259.0 325.0Q245 325 229 324L195 140L341 163L331 49Z" transform="translate(234.236, 54) scale(0.052, -0.052)" fill="#fff"/>
  <path d="M60 -5Q46 -5 32.0 -3.5Q18 -2 4 0L57 269Q67 324 78.5 385.5Q90 447 101.0 507.5Q112 568 120.5 620.0Q129 672 134 708Q177 716 221.0 723.0Q265 730 311 730Q385 730 428.0 699.5Q471 669 490.0 619.5Q509 570 509 511Q509 458 494.0 399.5Q479 341 451.5 283.5Q424 226 386 175Q327 96 242.5 45.5Q158 -5 60 -5ZM179 121Q214 144 245.5 191.0Q277 238 305 304Q330 365 344.0 419.5Q358 474 358 510Q358 547 337.5 568.0Q317 589 273 589Q257 503 240.5 430.0Q224 357 208.5 283.0Q193 209 179 121Z" transform="translate(258.96799999999996, 58) scale(0.052, -0.052)" fill="#000" stroke="#000" stroke-width="50"/>
  <path d="M60 -5Q46 -5 32.0 -3.5Q18 -2 4 0L57 269Q67 324 78.5 385.5Q90 447 101.0 507.5Q112 568 120.5 620.0Q129 672 134 708Q177 716 221.0 723.0Q265 730 311 730Q385 730 428.0 699.5Q471 669 490.0 619.5Q509 570 509 511Q509 458 494.0 399.5Q479 341 451.5 283.5Q424 226 386 175Q327 96 242.5 45.5Q158 -5 60 -5ZM179 121Q214 144 245.5 191.0Q277 238 305 304Q330 365 344.0 419.5Q358 474 358 510Q358 547 337.5 568.0Q317 589 273 589Q257 503 240.5 430.0Q224 357 208.5 283.0Q193 209 179 121Z" transform="translate(254.968, 54) scale(0.052, -0.052)" fill="#000" stroke="#000" stroke-width="50"/>
  <path d="M60 -5Q46 -5 32.0 -3.5Q18 -2 4 0L57 269Q67 324 78.5 385.5Q90 447 101.0 507.5Q112 568 120.5 620.0Q129 672 134 708Q177 716 221.0 723.0Q265 730 311 730Q385 730 428.0 699.5Q471 669 490.0 619.5Q509 570 509 511Q509 458 494.0 399.5Q479 341 451.5 283.5Q424 226 386 175Q327 96 242.5 45.5Q158 -5 60 -5ZM179 121Q214 144 245.5 191.0Q277 238 305 304Q330 365 344.0 419.5Q358 474 358 510Q358 547 337.5 568.0Q317 589 273 589Q257 503 240.5 430.0Q224 357 208.5 283.0Q193 209 179 121Z" transform="translate(254.968, 54) scale(0.052, -0.052)" fill="#fff"/>
  <path d="M68 -4Q31 -4 -1 2Q47 177 75.5 354.5Q104 532 130 712Q182 723 238.0 731.5Q294 740 354 740Q387 740 424.0 728.5Q461 717 486.5 687.5Q512 658 512 604Q512 554 491.0 512.0Q470 470 438.0 440.0Q406 410 372 397Q386 390 405.0 372.0Q424 354 438.0 324.0Q452 294 452 251Q452 191 416.5 142.5Q381 94 322 62Q265 30 199.0 13.0Q133 -4 68 -4ZM246 479Q277 485 305.0 495.0Q333 505 350.5 518.0Q368 531 368 546Q368 565 353.0 576.0Q338 587 317.0 592.0Q296 597 278 597H268Q261 557 255.0 527.5Q249 498 246 479ZM195 198Q215 200 239.0 205.0Q263 210 285.0 220.5Q307 231 321.5 248.5Q336 266 336 291Q336 315 320.0 329.0Q304 343 281.5 349.5Q259 356 239 356H231Q226 356 223 355Q217 318 209.0 277.0Q201 236 195 198Z" transform="translate(284.9, 58) scale(0.052, -0.052)" fill="#000" stroke="#000" stroke-width="50"/>
  <path d="M68 -4Q31 -4 -1 2Q47 177 75.5 354.5Q104 532 130 712Q182 723 238.0 731.5Q294 740 354 740Q387 740 424.0 728.5Q461 717 486.5 687.5Q512 658 512 604Q512 554 491.0 512.0Q470 470 438.0 440.0Q406 410 372 397Q386 390 405.0 372.0Q424 354 438.0 324.0Q452 294 452 251Q452 191 416.5 142.5Q381 94 322 62Q265 30 199.0 13.0Q133 -4 68 -4ZM246 479Q277 485 305.0 495.0Q333 505 350.5 518.0Q368 531 368 546Q368 565 353.0 576.0Q338 587 317.0 592.0Q296 597 278 597H268Q261 557 255.0 527.5Q249 498 246 479ZM195 198Q215 200 239.0 205.0Q263 210 285.0 220.5Q307 231 321.5 248.5Q336 266 336 291Q336 315 320.0 329.0Q304 343 281.5 349.5Q259 356 239 356H231Q226 356 223 355Q217 318 209.0 277.0Q201 236 195 198Z" transform="translate(280.9, 54) scale(0.052, -0.052)" fill="#000" stroke="#000" stroke-width="50"/>
  <path d="M68 -4Q31 -4 -1 2Q47 177 75.5 354.5Q104 532 130 712Q182 723 238.0 731.5Q294 740 354 740Q387 740 424.0 728.5Q461 717 486.5 687.5Q512 658 512 604Q512 554 491.0 512.0Q470 470 438.0 440.0Q406 410 372 397Q386 390 405.0 372.0Q424 354 438.0 324.0Q452 294 452 251Q452 191 416.5 142.5Q381 94 322 62Q265 30 199.0 13.0Q133 -4 68 -4ZM246 479Q277 485 305.0 495.0Q333 505 350.5 518.0Q368 531 368 546Q368 565 353.0 576.0Q338 587 317.0 592.0Q296 597 278 597H268Q261 557 255.0 527.5Q249 498 246 479ZM195 198Q215 200 239.0 205.0Q263 210 285.0 220.5Q307 231 321.5 248.5Q336 266 336 291Q336 315 320.0 329.0Q304 343 281.5 349.5Q259 356 239 356H231Q226 356 223 355Q217 318 209.0 277.0Q201 236 195 198Z" transform="translate(280.9, 54) scale(0.052, -0.052)" fill="#fff"/>
  <path d="M259 2Q261 19 263.0 35.0Q265 51 267 67L273 123Q274 137 275.0 149.0Q276 161 277 171H190L150 27Q128 24 98.0 20.5Q68 17 42 14Q26 12 10.5 10.0Q-5 8 -21 6L58 268Q72 315 90.0 375.0Q108 435 126.5 498.0Q145 561 161.5 616.5Q178 672 188 710Q256 715 326.5 722.0Q397 729 464 741Q459 685 454.5 614.5Q450 544 446.5 469.0Q443 394 439 321Q437 252 434.0 178.5Q431 105 428 28Q413 26 398.0 24.0Q383 22 368 20Q343 16 313.0 11.0Q283 6 259 2ZM214 271Q220 271 236.5 272.0Q253 273 268.0 274.0Q283 275 286 275Q286 288 290.0 328.0Q294 368 298 412Q300 438 302.5 465.5Q305 493 308 522L314 609L299 608L276 522Z" transform="translate(310.15599999999995, 58) scale(0.052, -0.052)" fill="#000" stroke="#000" stroke-width="50"/>
  <path d="M259 2Q261 19 263.0 35.0Q265 51 267 67L273 123Q274 137 275.0 149.0Q276 161 277 171H190L150 27Q128 24 98.0 20.5Q68 17 42 14Q26 12 10.5 10.0Q-5 8 -21 6L58 268Q72 315 90.0 375.0Q108 435 126.5 498.0Q145 561 161.5 616.5Q178 672 188 710Q256 715 326.5 722.0Q397 729 464 741Q459 685 454.5 614.5Q450 544 446.5 469.0Q443 394 439 321Q437 252 434.0 178.5Q431 105 428 28Q413 26 398.0 24.0Q383 22 368 20Q343 16 313.0 11.0Q283 6 259 2ZM214 271Q220 271 236.5 272.0Q253 273 268.0 274.0Q283 275 286 275Q286 288 290.0 328.0Q294 368 298 412Q300 438 302.5 465.5Q305 493 308 522L314 609L299 608L276 522Z" transform="translate(306.15599999999995, 54) scale(0.052, -0.052)" fill="#000" stroke="#000" stroke-width="50"/>
  <path d="M259 2Q261 19 263.0 35.0Q265 51 267 67L273 123Q274 137 275.0 149.0Q276 161 277 171H190L150 27Q128 24 98.0 20.5Q68 17 42 14Q26 12 10.5 10.0Q-5 8 -21 6L58 268Q72 315 90.0 375.0Q108 435 126.5 498.0Q145 561 161.5 616.5Q178 672 188 710Q256 715 326.5 722.0Q397 729 464 741Q459 685 454.5 614.5Q450 544 446.5 469.0Q443 394 439 321Q437 252 434.0 178.5Q431 105 428 28Q413 26 398.0 24.0Q383 22 368 20Q343 16 313.0 11.0Q283 6 259 2ZM214 271Q220 271 236.5 272.0Q253 273 268.0 274.0Q283 275 286 275Q286 288 290.0 328.0Q294 368 298 412Q300 438 302.5 465.5Q305 493 308 522L314 609L299 608L276 522Z" transform="translate(306.15599999999995, 54) scale(0.052, -0.052)" fill="#fff"/>
  <path d="M182 -2Q119 -2 79.0 57.0Q39 116 39 219Q39 313 65.0 404.5Q91 496 138 569Q185 642 249.5 686.5Q314 731 392 731Q441 731 476.0 693.0Q511 655 511 591V579Q511 575 511.0 572.0Q511 569 510 565L379 530Q367 555 351 555Q327 555 300.5 516.0Q274 477 250 423Q234 387 221.5 349.0Q209 311 202.0 278.0Q195 245 195 224Q195 193 204 179Q211 166 226 166Q241 166 259.0 180.5Q277 195 292.5 217.0Q308 239 313 261L427 215Q378 103 310.5 50.5Q243 -2 182 -2Z" transform="translate(335.67199999999997, 58) scale(0.052, -0.052)" fill="#000" stroke="#000" stroke-width="50"/>
  <path d="M182 -2Q119 -2 79.0 57.0Q39 116 39 219Q39 313 65.0 404.5Q91 496 138 569Q185 642 249.5 686.5Q314 731 392 731Q441 731 476.0 693.0Q511 655 511 591V579Q511 575 511.0 572.0Q511 569 510 565L379 530Q367 555 351 555Q327 555 300.5 516.0Q274 477 250 423Q234 387 221.5 349.0Q209 311 202.0 278.0Q195 245 195 224Q195 193 204 179Q211 166 226 166Q241 166 259.0 180.5Q277 195 292.5 217.0Q308 239 313 261L427 215Q378 103 310.5 50.5Q243 -2 182 -2Z" transform="translate(331.67199999999997, 54) scale(0.052, -0.052)" fill="#000" stroke="#000" stroke-width="50"/>
  <path d="M182 -2Q119 -2 79.0 57.0Q39 116 39 219Q39 313 65.0 404.5Q91 496 138 569Q185 642 249.5 686.5Q314 731 392 731Q441 731 476.0 693.0Q511 655 511 591V579Q511 575 511.0 572.0Q511 569 510 565L379 530Q367 555 351 555Q327 555 300.5 516.0Q274 477 250 423Q234 387 221.5 349.0Q209 311 202.0 278.0Q195 245 195 224Q195 193 204 179Q211 166 226 166Q241 166 259.0 180.5Q277 195 292.5 217.0Q308 239 313 261L427 215Q378 103 310.5 50.5Q243 -2 182 -2Z" transform="translate(331.67199999999997, 54) scale(0.052, -0.052)" fill="#fff"/>
  <path d="M7 -1Q22 69 36.0 137.0Q50 205 63 271Q84 390 104.0 506.5Q124 623 133 729L185 726Q199 725 212.5 724.0Q226 723 239 722Q254 721 269.0 720.5Q284 720 299 720Q297 712 292.5 688.0Q288 664 283.5 639.5Q279 615 277 606L259 507L265 508Q294 553 332.0 612.0Q370 671 403 725Q453 729 503.0 734.0Q553 739 603 747Q580 716 557.0 685.0Q534 654 512 623Q489 591 462.0 553.0Q435 515 410.5 478.5Q386 442 370 416Q381 366 394.0 317.0Q407 268 422 221Q437 174 452.0 126.0Q467 78 483 29Q460 30 436.0 30.5Q412 31 389 31Q360 31 333.0 30.5Q306 30 277 29Q273 61 268.0 95.5Q263 130 258 166Q253 201 248.0 235.5Q243 270 238 302L220 281Q213 252 205 207Q201 185 196.5 163.5Q192 142 188 122Q184 98 179.0 73.5Q174 49 169 23Z" transform="translate(360.2, 58) scale(0.052, -0.052)" fill="#000" stroke="#000" stroke-width="50"/>
  <path d="M7 -1Q22 69 36.0 137.0Q50 205 63 271Q84 390 104.0 506.5Q124 623 133 729L185 726Q199 725 212.5 724.0Q226 723 239 722Q254 721 269.0 720.5Q284 720 299 720Q297 712 292.5 688.0Q288 664 283.5 639.5Q279 615 277 606L259 507L265 508Q294 553 332.0 612.0Q370 671 403 725Q453 729 503.0 734.0Q553 739 603 747Q580 716 557.0 685.0Q534 654 512 623Q489 591 462.0 553.0Q435 515 410.5 478.5Q386 442 370 416Q381 366 394.0 317.0Q407 268 422 221Q437 174 452.0 126.0Q467 78 483 29Q460 30 436.0 30.5Q412 31 389 31Q360 31 333.0 30.5Q306 30 277 29Q273 61 268.0 95.5Q263 130 258 166Q253 201 248.0 235.5Q243 270 238 302L220 281Q213 252 205 207Q201 185 196.5 163.5Q192 142 188 122Q184 98 179.0 73.5Q174 49 169 23Z" transform="translate(356.2, 54) scale(0.052, -0.052)" fill="#000" stroke="#000" stroke-width="50"/>
  <path d="M7 -1Q22 69 36.0 137.0Q50 205 63 271Q84 390 104.0 506.5Q124 623 133 729L185 726Q199 725 212.5 724.0Q226 723 239 722Q254 721 269.0 720.5Q284 720 299 720Q297 712 292.5 688.0Q288 664 283.5 639.5Q279 615 277 606L259 507L265 508Q294 553 332.0 612.0Q370 671 403 725Q453 729 503.0 734.0Q553 739 603 747Q580 716 557.0 685.0Q534 654 512 623Q489 591 462.0 553.0Q435 515 410.5 478.5Q386 442 370 416Q381 366 394.0 317.0Q407 268 422 221Q437 174 452.0 126.0Q467 78 483 29Q460 30 436.0 30.5Q412 31 389 31Q360 31 333.0 30.5Q306 30 277 29Q273 61 268.0 95.5Q263 130 258 166Q253 201 248.0 235.5Q243 270 238 302L220 281Q213 252 205 207Q201 185 196.5 163.5Q192 142 188 122Q184 98 179.0 73.5Q174 49 169 23Z" transform="translate(356.2, 54) scale(0.052, -0.052)" fill="#fff"/>
</svg>