<?xml version="1.0" encoding="UTF-8"?>
<svg xmlns="http://www.w3.org/2000/svg" viewBox="0 0 129.0 60.0" width="129.0" height="60.0">
  <g transform="translate(11, 43) scale(0.037, -0.037)" 
     fill="#000" stroke="#000" stroke-width="47.6" stroke-linejoin="round">
    <g transform="translate(0, 0)"><path d="M9 -2Q22 67 34.5 134.5Q47 202 60 269Q74 352 86.5 425.0Q99 498 111.5 570.0Q124 642 136 721L298 732Q281 662 264.5 586.0Q248 510 234 438L333 449Q340 484 346.5 518.5Q353 553 358 587Q363 620 370.5 654.5Q378 689 387 724Q423 730 460.0 733.5Q497 737 522.0 738.5Q547 740 547 740Q534 700 521.0 646.0Q508 592 496.0 532.0Q484 472 473.0 412.5Q462 353 453 302Q442 238 432.0 173.5Q422 109 412 42L256 24Q263 54 268.5 83.5Q274 113 279 141Q289 189 299.5 241.0Q310 293 316 330L219 321Q215 302 211.5 280.0Q208 258 203 233Q198 208 193.5 184.5Q189 161 185 138Q180 111 174.0 84.0Q168 57 163 30Z"/></g>
        <g transform="translate(442, 0)"><path d="M259 2Q261 19 263.0 35.0Q265 51 267 67L273 123Q274 137 275.0 149.0Q276 161 277 171H190L150 27Q128 24 98.0 20.5Q68 17 42 14Q26 12 10.5 10.0Q-5 8 -21 6L58 268Q72 315 90.0 375.0Q108 435 126.5 498.0Q145 561 161.5 616.5Q178 672 188 710Q256 715 326.5 722.0Q397 729 464 741Q459 685 454.5 614.5Q450 544 446.5 469.0Q443 394 439 321Q437 252 434.0 178.5Q431 105 428 28Q413 26 398.0 24.0Q383 22 368 20Q343 16 313.0 11.0Q283 6 259 2ZM214 271Q220 271 236.5 272.0Q253 273 268.0 274.0Q283 275 286 275Q286 288 290.0 328.0Q294 368 298 412Q300 438 302.5 465.5Q305 493 308 522L314 609L299 608L276 522Z"/></g>
        <g transform="translate(875, 0)"><path d="M9 9V155L293 542Q271 542 237.0 538.5Q203 535 172.5 530.5Q142 526 128 523L104 521L123 678L532 707L506 569L233 181Q247 181 279.5 182.5Q312 184 353.5 186.5Q395 189 434 192V40Q422 40 372.5 38.0Q323 36 239 31Q163 26 102.0 20.5Q41 15 9 9Z"/></g>
        <g transform="translate(1306, 0)"><path d="M259 2Q261 19 263.0 35.0Q265 51 267 67L273 123Q274 137 275.0 149.0Q276 161 277 171H190L150 27Q128 24 98.0 20.5Q68 17 42 14Q26 12 10.5 10.0Q-5 8 -21 6L58 268Q72 315 90.0 375.0Q108 435 126.5 498.0Q145 561 161.5 616.5Q178 672 188 710Q256 715 326.5 722.0Q397 729 464 741Q459 685 454.5 614.5Q450 544 446.5 469.0Q443 394 439 321Q437 252 434.0 178.5Q431 105 428 28Q413 26 398.0 24.0Q383 22 368 20Q343 16 313.0 11.0Q283 6 259 2ZM214 271Q220 271 236.5 272.0Q253 273 268.0 274.0Q283 275 286 275Q286 288 290.0 328.0Q294 368 298 412Q300 438 302.5 465.5Q305 493 308 522L314 609L299 608L276 522Z"/></g>
        <g transform="translate(1739, 0)"><path d="M4 -1 56 259Q68 331 82.0 407.0Q96 483 108.5 557.0Q121 631 128 696Q185 714 251.0 722.5Q317 731 382 731Q458 731 485.5 698.0Q513 665 513 609Q513 558 489.0 506.5Q465 455 426.5 413.5Q388 372 342 348Q360 308 380.5 260.5Q401 213 419 170Q429 145 439.5 120.0Q450 95 460 70L305 16L269 136Q254 186 241.5 232.5Q229 279 227 298L214 294Q211 278 207.5 259.5Q204 241 200 219Q196 197 192.0 176.5Q188 156 184 136L166 41ZM239 433Q257 435 283.5 448.5Q310 462 336.5 482.0Q363 502 381.0 523.0Q399 544 399 560Q399 580 375.5 586.5Q352 593 314 593H292Q286 592 281.0 592.0Q276 592 271 592Z"/></g>
        <g transform="translate(2183, 0)"><path d="M60 -5Q46 -5 32.0 -3.5Q18 -2 4 0L57 269Q67 324 78.5 385.5Q90 447 101.0 507.5Q112 568 120.5 620.0Q129 672 134 708Q177 716 221.0 723.0Q265 730 311 730Q385 730 428.0 699.5Q471 669 490.0 619.5Q509 570 509 511Q509 458 494.0 399.5Q479 341 451.5 283.5Q424 226 386 175Q327 96 242.5 45.5Q158 -5 60 -5ZM179 121Q214 144 245.5 191.0Q277 238 305 304Q330 365 344.0 419.5Q358 474 358 510Q358 547 337.5 568.0Q317 589 273 589Q257 503 240.5 430.0Q224 357 208.5 283.0Q193 209 179 121Z"/></g>
        <g transform="translate(2624, 0)"><path d="M171 -2Q131 -2 91.0 19.5Q51 41 14 88L88 233Q99 214 120.5 197.0Q142 180 166.0 170.0Q190 160 207 160Q233 160 256.5 176.0Q280 192 280 219Q280 254 248.0 283.0Q216 312 176 340Q137 368 104.5 403.5Q72 439 72 485Q72 537 102.0 581.5Q132 626 180.0 659.5Q228 693 282.5 711.5Q337 730 386 730Q421 730 451.0 718.5Q481 707 499.0 681.0Q517 655 517 611Q517 604 516.5 597.0Q516 590 515 583Q514 576 512.5 568.5Q511 561 510 553L365 511Q367 519 368.5 527.0Q370 535 370 543Q370 573 359.5 586.5Q349 600 332 600Q323 600 306.0 590.5Q289 581 275.5 564.5Q262 548 262 528Q262 495 289.5 473.5Q317 452 353 430Q370 420 391.0 398.5Q412 377 427.5 340.5Q443 304 443 247Q443 173 406.5 117.0Q370 61 308.0 29.5Q246 -2 171 -2Z"/></g>
  </g>
  <g transform="translate(8, 40) scale(0.037, -0.037)" 
     fill="#000" stroke="#000" stroke-width="47.6" stroke-linejoin="round">
    <g transform="translate(0, 0)"><path d="M9 -2Q22 67 34.5 134.5Q47 202 60 269Q74 352 86.5 425.0Q99 498 111.5 570.0Q124 642 136 721L298 732Q281 662 264.5 586.0Q248 510 234 438L333 449Q340 484 346.5 518.5Q353 553 358 587Q363 620 370.5 654.5Q378 689 387 724Q423 730 460.0 733.5Q497 737 522.0 738.5Q547 740 547 740Q534 700 521.0 646.0Q508 592 496.0 532.0Q484 472 473.0 412.5Q462 353 453 302Q442 238 432.0 173.5Q422 109 412 42L256 24Q263 54 268.5 83.5Q274 113 279 141Q289 189 299.5 241.0Q310 293 316 330L219 321Q215 302 211.5 280.0Q208 258 203 233Q198 208 193.5 184.5Q189 161 185 138Q180 111 174.0 84.0Q168 57 163 30Z"/></g>
        <g transform="translate(442, 0)"><path d="M259 2Q261 19 263.0 35.0Q265 51 267 67L273 123Q274 137 275.0 149.0Q276 161 277 171H190L150 27Q128 24 98.0 20.5Q68 17 42 14Q26 12 10.5 10.0Q-5 8 -21 6L58 268Q72 315 90.0 375.0Q108 435 126.5 498.0Q145 561 161.5 616.5Q178 672 188 710Q256 715 326.5 722.0Q397 729 464 741Q459 685 454.5 614.5Q450 544 446.5 469.0Q443 394 439 321Q437 252 434.0 178.5Q431 105 428 28Q413 26 398.0 24.0Q383 22 368 20Q343 16 313.0 11.0Q283 6 259 2ZM214 271Q220 271 236.5 272.0Q253 273 268.0 274.0Q283 275 286 275Q286 288 290.0 328.0Q294 368 298 412Q300 438 302.5 465.5Q305 493 308 522L314 609L299 608L276 522Z"/></g>
        <g transform="translate(875, 0)"><path d="M9 9V155L293 542Q271 542 237.0 538.5Q203 535 172.5 530.5Q142 526 128 523L104 521L123 678L532 707L506 569L233 181Q247 181 279.5 182.5Q312 184 353.5 186.5Q395 189 434 192V40Q422 40 372.5 38.0Q323 36 239 31Q163 26 102.0 20.5Q41 15 9 9Z"/></g>
        <g transform="translate(1306, 0)"><path d="M259 2Q261 19 263.0 35.0Q265 51 267 67L273 123Q274 137 275.0 149.0Q276 161 277 171H190L150 27Q128 24 98.0 20.5Q68 17 42 14Q26 12 10.5 10.0Q-5 8 -21 6L58 268Q72 315 90.0 375.0Q108 435 126.5 498.0Q145 561 161.5 616.5Q178 672 188 710Q256 715 326.5 722.0Q397 729 464 741Q459 685 454.5 614.5Q450 544 446.5 469.0Q443 394 439 321Q437 252 434.0 178.5Q431 105 428 28Q413 26 398.0 24.0Q383 22 368 20Q343 16 313.0 11.0Q283 6 259 2ZM214 271Q220 271 236.5 272.0Q253 273 268.0 274.0Q283 275 286 275Q286 288 290.0 328.0Q294 368 298 412Q300 438 302.5 465.5Q305 493 308 522L314 609L299 608L276 522Z"/></g>
        <g transform="translate(1739, 0)"><path d="M4 -1 56 259Q68 331 82.0 407.0Q96 483 108.5 557.0Q121 631 128 696Q185 714 251.0 722.5Q317 731 382 731Q458 731 485.5 698.0Q513 665 513 609Q513 558 489.0 506.5Q465 455 426.5 413.5Q388 372 342 348Q360 308 380.5 260.5Q401 213 419 170Q429 145 439.5 120.0Q450 95 460 70L305 16L269 136Q254 186 241.5 232.5Q229 279 227 298L214 294Q211 278 207.5 259.5Q204 241 200 219Q196 197 192.0 176.5Q188 156 184 136L166 41ZM239 433Q257 435 283.5 448.5Q310 462 336.5 482.0Q363 502 381.0 523.0Q399 544 399 560Q399 580 375.5 586.5Q352 593 314 593H292Q286 592 281.0 592.0Q276 592 271 592Z"/></g>
        <g transform="translate(2183, 0)"><path d="M60 -5Q46 -5 32.0 -3.5Q18 -2 4 0L57 269Q67 324 78.5 385.5Q90 447 101.0 507.5Q112 568 120.5 620.0Q129 672 134 708Q177 716 221.0 723.0Q265 730 311 730Q385 730 428.0 699.5Q471 669 490.0 619.5Q509 570 509 511Q509 458 494.0 399.5Q479 341 451.5 283.5Q424 226 386 175Q327 96 242.5 45.5Q158 -5 60 -5ZM179 121Q214 144 245.5 191.0Q277 238 305 304Q330 365 344.0 419.5Q358 474 358 510Q358 547 337.5 568.0Q317 589 273 589Q257 503 240.5 430.0Q224 357 208.5 283.0Q193 209 179 121Z"/></g>
        <g transform="translate(2624, 0)"><path d="M171 -2Q131 -2 91.0 19.5Q51 41 14 88L88 233Q99 214 120.5 197.0Q142 180 166.0 170.0Q190 160 207 160Q233 160 256.5 176.0Q280 192 280 219Q280 254 248.0 283.0Q216 312 176 340Q137 368 104.5 403.5Q72 439 72 485Q72 537 102.0 581.5Q132 626 180.0 659.5Q228 693 282.5 711.5Q337 730 386 730Q421 730 451.0 718.5Q481 707 499.0 681.0Q517 655 517 611Q517 604 516.5 597.0Q516 590 515 583Q514 576 512.5 568.5Q511 561 510 553L365 511Q367 519 368.5 527.0Q370 535 370 543Q370 573 359.5 586.5Q349 600 332 600Q323 600 306.0 590.5Q289 581 275.5 564.5Q262 548 262 528Q262 495 289.5 473.5Q317 452 353 430Q370 420 391.0 398.5Q412 377 427.5 340.5Q443 304 443 247Q443 173 406.5 117.0Q370 61 308.0 29.5Q246 -2 171 -2Z"/></g>
  </g>
  <g transform="translate(8, 40) scale(0.037, -0.037)" 
     fill="#FFFFFF" stroke="none">
    <g transform="translate(0, 0)"><path d="M9 -2Q22 67 34.5 134.5Q47 202 60 269Q74 352 86.5 425.0Q99 498 111.5 570.0Q124 642 136 721L298 732Q281 662 264.5 586.0Q248 510 234 438L333 449Q340 484 346.5 518.5Q353 553 358 587Q363 620 370.5 654.5Q378 689 387 724Q423 730 460.0 733.5Q497 737 522.0 738.5Q547 740 547 740Q534 700 521.0 646.0Q508 592 496.0 532.0Q484 472 473.0 412.5Q462 353 453 302Q442 238 432.0 173.5Q422 109 412 42L256 24Q263 54 268.5 83.5Q274 113 279 141Q289 189 299.5 241.0Q310 293 316 330L219 321Q215 302 211.5 280.0Q208 258 203 233Q198 208 193.5 184.5Q189 161 185 138Q180 111 174.0 84.0Q168 57 163 30Z"/></g>
        <g transform="translate(442, 0)"><path d="M259 2Q261 19 263.0 35.0Q265 51 267 67L273 123Q274 137 275.0 149.0Q276 161 277 171H190L150 27Q128 24 98.0 20.5Q68 17 42 14Q26 12 10.5 10.0Q-5 8 -21 6L58 268Q72 315 90.0 375.0Q108 435 126.5 498.0Q145 561 161.5 616.5Q178 672 188 710Q256 715 326.5 722.0Q397 729 464 741Q459 685 454.5 614.5Q450 544 446.5 469.0Q443 394 439 321Q437 252 434.0 178.5Q431 105 428 28Q413 26 398.0 24.0Q383 22 368 20Q343 16 313.0 11.0Q283 6 259 2ZM214 271Q220 271 236.5 272.0Q253 273 268.0 274.0Q283 275 286 275Q286 288 290.0 328.0Q294 368 298 412Q300 438 302.5 465.5Q305 493 308 522L314 609L299 608L276 522Z"/></g>
        <g transform="translate(875, 0)"><path d="M9 9V155L293 542Q271 542 237.0 538.5Q203 535 172.5 530.5Q142 526 128 523L104 521L123 678L532 707L506 569L233 181Q247 181 279.5 182.5Q312 184 353.5 186.5Q395 189 434 192V40Q422 40 372.5 38.0Q323 36 239 31Q163 26 102.0 20.5Q41 15 9 9Z"/></g>
        <g transform="translate(1306, 0)"><path d="M259 2Q261 19 263.0 35.0Q265 51 267 67L273 123Q274 137 275.0 149.0Q276 161 277 171H190L150 27Q128 24 98.0 20.5Q68 17 42 14Q26 12 10.5 10.0Q-5 8 -21 6L58 268Q72 315 90.0 375.0Q108 435 126.5 498.0Q145 561 161.5 616.5Q178 672 188 710Q256 715 326.5 722.0Q397 729 464 741Q459 685 454.5 614.5Q450 544 446.5 469.0Q443 394 439 321Q437 252 434.0 178.5Q431 105 428 28Q413 26 398.0 24.0Q383 22 368 20Q343 16 313.0 11.0Q283 6 259 2ZM214 271Q220 271 236.5 272.0Q253 273 268.0 274.0Q283 275 286 275Q286 288 290.0 328.0Q294 368 298 412Q300 438 302.5 465.5Q305 493 308 522L314 609L299 608L276 522Z"/></g>
        <g transform="translate(1739, 0)"><path d="M4 -1 56 259Q68 331 82.0 407.0Q96 483 108.5 557.0Q121 631 128 696Q185 714 251.0 722.5Q317 731 382 731Q458 731 485.5 698.0Q513 665 513 609Q513 558 489.0 506.5Q465 455 426.5 413.5Q388 372 342 348Q360 308 380.5 260.5Q401 213 419 170Q429 145 439.5 120.0Q450 95 460 70L305 16L269 136Q254 186 241.5 232.5Q229 279 227 298L214 294Q211 278 207.5 259.5Q204 241 200 219Q196 197 192.0 176.5Q188 156 184 136L166 41ZM239 433Q257 435 283.5 448.5Q310 462 336.5 482.0Q363 502 381.0 523.0Q399 544 399 560Q399 580 375.5 586.5Q352 593 314 593H292Q286 592 281.0 592.0Q276 592 271 592Z"/></g>
        <g transform="translate(2183, 0)"><path d="M60 -5Q46 -5 32.0 -3.5Q18 -2 4 0L57 269Q67 324 78.5 385.5Q90 447 101.0 507.5Q112 568 120.5 620.0Q129 672 134 708Q177 716 221.0 723.0Q265 730 311 730Q385 730 428.0 699.5Q471 669 490.0 619.5Q509 570 509 511Q509 458 494.0 399.5Q479 341 451.5 283.5Q424 226 386 175Q327 96 242.5 45.5Q158 -5 60 -5ZM179 121Q214 144 245.5 191.0Q277 238 305 304Q330 365 344.0 419.5Q358 474 358 510Q358 547 337.5 568.0Q317 589 273 589Q257 503 240.5 430.0Q224 357 208.5 283.0Q193 209 179 121Z"/></g>
        <g transform="translate(2624, 0)"><path d="M171 -2Q131 -2 91.0 19.5Q51 41 14 88L88 233Q99 214 120.5 197.0Q142 180 166.0 170.0Q190 160 207 160Q233 160 256.5 176.0Q280 192 280 219Q280 254 248.0 283.0Q216 312 176 340Q137 368 104.5 403.5Q72 439 72 485Q72 537 102.0 581.5Q132 626 180.0 659.5Q228 693 282.5 711.5Q337 730 386 730Q421 730 451.0 718.5Q481 707 499.0 681.0Q517 655 517 611Q517 604 516.5 597.0Q516 590 515 583Q514 576 512.5 568.5Q511 561 510 553L365 511Q367 519 368.5 527.0Q370 535 370 543Q370 573 359.5 586.5Q349 600 332 600Q323 600 306.0 590.5Q289 581 275.5 564.5Q262 548 262 528Q262 495 289.5 473.5Q317 452 353 430Q370 420 391.0 398.5Q412 377 427.5 340.5Q443 304 443 247Q443 173 406.5 117.0Q370 61 308.0 29.5Q246 -2 171 -2Z"/></g>
  </g>
</svg>