<?xml version="1.0" encoding="UTF-8"?>
<svg xmlns="http://www.w3.org/2000/svg" viewBox="0 0 232.0 60.0" width="232.0" height="60.0">
  <!-- Shadow layer -->
  <g transform="translate(11, 43) scale(0.037, -0.037)" 
     fill="#000" stroke="#000" stroke-width="47.6" stroke-linejoin="round">
    <g transform="translate(0, 0)"><path d="M171 -2Q131 -2 91.0 19.5Q51 41 14 88L88 233Q99 214 120.5 197.0Q142 180 166.0 170.0Q190 160 207 160Q233 160 256.5 176.0Q280 192 280 219Q280 254 248.0 283.0Q216 312 176 340Q137 368 104.5 403.5Q72 439 72 485Q72 537 102.0 581.5Q132 626 180.0 659.5Q228 693 282.5 711.5Q337 730 386 730Q421 730 451.0 718.5Q481 707 499.0 681.0Q517 655 517 611Q517 604 516.5 597.0Q516 590 515 583Q514 576 512.5 568.5Q511 561 510 553L365 511Q367 519 368.5 527.0Q370 535 370 543Q370 573 359.5 586.5Q349 600 332 600Q323 600 306.0 590.5Q289 581 275.5 564.5Q262 548 262 528Q262 495 289.5 473.5Q317 452 353 430Q370 420 391.0 398.5Q412 377 427.5 340.5Q443 304 443 247Q443 173 406.5 117.0Q370 61 308.0 29.5Q246 -2 171 -2Z"/></g>
        <g transform="translate(430, 0)"><path d="M8 -1 139 710 455 737Q448 715 443 692Q438 673 433.5 652.5Q429 632 426 616Q413 615 389.0 614.5Q365 614 340.0 613.5Q315 613 297.0 613.0Q279 613 278 613L243 434L301 437Q312 438 323.5 438.0Q335 438 346 438Q357 438 366.0 438.0Q375 438 380 439Q378 425 376.5 411.5Q375 398 373 384L364 329Q359 328 351.0 328.0Q343 328 332 328Q321 327 309.0 327.0Q297 327 286 326Q273 325 259.0 325.0Q245 325 229 324L195 140L341 163L331 49Z"/></g>
        <g transform="translate(771, 0)"><path d="M4 -1 56 259Q68 331 82.0 407.0Q96 483 108.5 557.0Q121 631 128 696Q185 714 251.0 722.5Q317 731 382 731Q458 731 485.5 698.0Q513 665 513 609Q513 558 489.0 506.5Q465 455 426.5 413.5Q388 372 342 348Q360 308 380.5 260.5Q401 213 419 170Q429 145 439.5 120.0Q450 95 460 70L305 16L269 136Q254 186 241.5 232.5Q229 279 227 298L214 294Q211 278 207.5 259.5Q204 241 200 219Q196 197 192.0 176.5Q188 156 184 136L166 41ZM239 433Q257 435 283.5 448.5Q310 462 336.5 482.0Q363 502 381.0 523.0Q399 544 399 560Q399 580 375.5 586.5Q352 593 314 593H292Q286 592 281.0 592.0Q276 592 271 592Z"/></g>
        <g transform="translate(1215, 0)"><path d="M59 -9Q66 61 72.0 130.0Q78 199 83 266Q94 388 100.5 506.0Q107 624 109 727Q187 727 226.0 730.5Q265 734 265 734Q260 676 255.0 628.5Q250 581 246 544L234 423Q229 368 225.5 330.0Q222 292 219.0 260.0Q216 228 211 190H229L341 722L396 725Q409 726 422.0 726.5Q435 727 449 728Q463 729 475.5 730.0Q488 731 499 732Q480 673 460.5 600.0Q441 527 421.5 449.0Q402 371 382 295Q366 231 350.0 164.5Q334 98 318 30Z"/></g>
        <g transform="translate(1594, 0)"><path d="M8 -1 139 710 455 737Q448 715 443 692Q438 673 433.5 652.5Q429 632 426 616Q413 615 389.0 614.5Q365 614 340.0 613.5Q315 613 297.0 613.0Q279 613 278 613L243 434L301 437Q312 438 323.5 438.0Q335 438 346 438Q357 438 366.0 438.0Q375 438 380 439Q378 425 376.5 411.5Q375 398 373 384L364 329Q359 328 351.0 328.0Q343 328 332 328Q321 327 309.0 327.0Q297 327 286 326Q273 325 259.0 325.0Q245 325 229 324L195 140L341 163L331 49Z"/></g>
        <g transform="translate(1935, 0)"><path d="M4 -1 56 259Q68 331 82.0 407.0Q96 483 108.5 557.0Q121 631 128 696Q185 714 251.0 722.5Q317 731 382 731Q458 731 485.5 698.0Q513 665 513 609Q513 558 489.0 506.5Q465 455 426.5 413.5Q388 372 342 348Q360 308 380.5 260.5Q401 213 419 170Q429 145 439.5 120.0Q450 95 460 70L305 16L269 136Q254 186 241.5 232.5Q229 279 227 298L214 294Q211 278 207.5 259.5Q204 241 200 219Q196 197 192.0 176.5Q188 156 184 136L166 41ZM239 433Q257 435 283.5 448.5Q310 462 336.5 482.0Q363 502 381.0 523.0Q399 544 399 560Q399 580 375.5 586.5Q352 593 314 593H292Q286 592 281.0 592.0Q276 592 271 592Z"/></g>
        <g transform="translate(2574, 0)"><path d="M182 -2Q119 -2 79.0 57.0Q39 116 39 219Q39 313 65.0 404.5Q91 496 138 569Q185 642 249.5 686.5Q314 731 392 731Q441 731 476.0 693.0Q511 655 511 591V579Q511 575 511.0 572.0Q511 569 510 565L379 530Q367 555 351 555Q327 555 300.5 516.0Q274 477 250 423Q234 387 221.5 349.0Q209 311 202.0 278.0Q195 245 195 224Q195 193 204 179Q211 166 226 166Q241 166 259.0 180.5Q277 195 292.5 217.0Q308 239 313 261L427 215Q378 103 310.5 50.5Q243 -2 182 -2Z"/></g>
        <g transform="translate(2988, 0)"><path d="M8 -2Q37 138 62 271Q76 352 90.5 435.0Q105 518 117.0 594.0Q129 670 135 730Q162 729 179.5 727.5Q197 726 212.5 725.0Q228 724 247.5 723.5Q267 723 297 723Q280 652 263.5 581.0Q247 510 233 438L332 449Q339 484 345.5 518.5Q352 553 357 587Q362 620 369.5 654.5Q377 689 386 724Q422 730 459.0 733.5Q496 737 521.0 738.5Q546 740 546 740Q533 700 520.0 646.0Q507 592 495.0 532.0Q483 472 472.0 412.5Q461 353 452 302Q441 238 431.0 173.5Q421 109 411 42L255 24Q262 54 267.5 83.5Q273 113 278 141Q288 189 298.5 241.0Q309 293 315 330L218 321Q214 302 210.5 280.0Q207 258 202 233Q197 208 192.5 184.5Q188 161 184 138Q179 111 173.0 84.0Q167 57 162 30Z"/></g>
        <g transform="translate(3429, 0)"><path d="M259 2Q261 19 263.0 35.0Q265 51 267 67L273 123Q274 137 275.0 149.0Q276 161 277 171H190L150 27Q128 24 98.0 20.5Q68 17 42 14Q26 12 10.5 10.0Q-5 8 -21 6L58 268Q72 315 90.0 375.0Q108 435 126.5 498.0Q145 561 161.5 616.5Q178 672 188 710Q256 715 326.5 722.0Q397 729 464 741Q459 685 454.5 614.5Q450 544 446.5 469.0Q443 394 439 321Q437 252 434.0 178.5Q431 105 428 28Q413 26 398.0 24.0Q383 22 368 20Q343 16 313.0 11.0Q283 6 259 2ZM214 271Q220 271 236.5 272.0Q253 273 268.0 274.0Q283 275 286 275Q286 288 290.0 328.0Q294 368 298 412Q300 438 302.5 465.5Q305 493 308 522L314 609L299 608L276 522Z"/></g>
        <g transform="translate(3862, 0)"><path d="M5 -5Q35 139 62 274Q84 401 105.0 518.0Q126 635 135 733Q142 732 147.5 732.0Q153 732 157 732H178Q204 732 236.0 733.5Q268 735 295 736Q302 701 308.5 667.0Q315 633 320 601Q325 573 331.0 543.5Q337 514 343 484Q348 454 353.5 428.5Q359 403 363 382Q375 441 385.5 498.0Q396 555 406 601L435 735L557 750Q540 674 525.0 601.0Q510 528 497 460Q472 338 453.0 230.0Q434 122 424 42Q435 42 420.5 39.5Q406 37 378.0 32.5Q350 28 318.0 21.0Q286 14 261 4Q258 44 255.0 82.0Q252 120 248 156Q242 220 234.0 283.0Q226 346 218 383Q211 339 201.0 282.5Q191 226 179 169L151 29Z"/></g>
        <g transform="translate(4314, 0)"><path d="M5 -5Q35 139 62 274Q84 401 105.0 518.0Q126 635 135 733Q142 732 147.5 732.0Q153 732 157 732H178Q204 732 236.0 733.5Q268 735 295 736Q302 701 308.5 667.0Q315 633 320 601Q325 573 331.0 543.5Q337 514 343 484Q348 454 353.5 428.5Q359 403 363 382Q375 441 385.5 498.0Q396 555 406 601L435 735L557 750Q540 674 525.0 601.0Q510 528 497 460Q472 338 453.0 230.0Q434 122 424 42Q435 42 420.5 39.5Q406 37 378.0 32.5Q350 28 318.0 21.0Q286 14 261 4Q258 44 255.0 82.0Q252 120 248 156Q242 220 234.0 283.0Q226 346 218 383Q211 339 201.0 282.5Q191 226 179 169L151 29Z"/></g>
        <g transform="translate(4766, 0)"><path d="M8 -1 139 710 455 737Q448 715 443 692Q438 673 433.5 652.5Q429 632 426 616Q413 615 389.0 614.5Q365 614 340.0 613.5Q315 613 297.0 613.0Q279 613 278 613L243 434L301 437Q312 438 323.5 438.0Q335 438 346 438Q357 438 366.0 438.0Q375 438 380 439Q378 425 376.5 411.5Q375 398 373 384L364 329Q359 328 351.0 328.0Q343 328 332 328Q321 327 309.0 327.0Q297 327 286 326Q273 325 259.0 325.0Q245 325 229 324L195 140L341 163L331 49Z"/></g>
        <g transform="translate(5107, 0)"><path d="M12 -2Q23 77 35.5 157.0Q48 237 61.5 311.5Q75 386 87 446Q100 511 113.0 578.0Q126 645 140 713L315 736L263 510Q249 451 234.5 383.5Q220 316 208.0 253.0Q196 190 189 141Q214 143 242.5 143.5Q271 144 293 144Q294 121 297.0 95.5Q300 70 303.5 51.5Q307 33 307 31Q303 31 299.5 31.0Q296 31 292 32H276Q237 32 189.5 28.5Q142 25 95.5 17.5Q49 10 12 -2Z"/></g>
        <g transform="translate(5409, 0)"><path d="M171 -2Q131 -2 91.0 19.5Q51 41 14 88L88 233Q99 214 120.5 197.0Q142 180 166.0 170.0Q190 160 207 160Q233 160 256.5 176.0Q280 192 280 219Q280 254 248.0 283.0Q216 312 176 340Q137 368 104.5 403.5Q72 439 72 485Q72 537 102.0 581.5Q132 626 180.0 659.5Q228 693 282.5 711.5Q337 730 386 730Q421 730 451.0 718.5Q481 707 499.0 681.0Q517 655 517 611Q517 604 516.5 597.0Q516 590 515 583Q514 576 512.5 568.5Q511 561 510 553L365 511Q367 519 368.5 527.0Q370 535 370 543Q370 573 359.5 586.5Q349 600 332 600Q323 600 306.0 590.5Q289 581 275.5 564.5Q262 548 262 528Q262 495 289.5 473.5Q317 452 353 430Q370 420 391.0 398.5Q412 377 427.5 340.5Q443 304 443 247Q443 173 406.5 117.0Q370 61 308.0 29.5Q246 -2 171 -2Z"/></g>
  </g>
  <!-- Stroke layer -->
  <g transform="translate(8, 40) scale(0.037, -0.037)" 
     fill="#000" stroke="#000" stroke-width="47.6" stroke-linejoin="round">
    <g transform="translate(0, 0)"><path d="M171 -2Q131 -2 91.0 19.5Q51 41 14 88L88 233Q99 214 120.5 197.0Q142 180 166.0 170.0Q190 160 207 160Q233 160 256.5 176.0Q280 192 280 219Q280 254 248.0 283.0Q216 312 176 340Q137 368 104.5 403.5Q72 439 72 485Q72 537 102.0 581.5Q132 626 180.0 659.5Q228 693 282.5 711.5Q337 730 386 730Q421 730 451.0 718.5Q481 707 499.0 681.0Q517 655 517 611Q517 604 516.5 597.0Q516 590 515 583Q514 576 512.5 568.5Q511 561 510 553L365 511Q367 519 368.5 527.0Q370 535 370 543Q370 573 359.5 586.5Q349 600 332 600Q323 600 306.0 590.5Q289 581 275.5 564.5Q262 548 262 528Q262 495 289.5 473.5Q317 452 353 430Q370 420 391.0 398.5Q412 377 427.5 340.5Q443 304 443 247Q443 173 406.5 117.0Q370 61 308.0 29.5Q246 -2 171 -2Z"/></g>
        <g transform="translate(430, 0)"><path d="M8 -1 139 710 455 737Q448 715 443 692Q438 673 433.5 652.5Q429 632 426 616Q413 615 389.0 614.5Q365 614 340.0 613.5Q315 613 297.0 613.0Q279 613 278 613L243 434L301 437Q312 438 323.5 438.0Q335 438 346 438Q357 438 366.0 438.0Q375 438 380 439Q378 425 376.5 411.5Q375 398 373 384L364 329Q359 328 351.0 328.0Q343 328 332 328Q321 327 309.0 327.0Q297 327 286 326Q273 325 259.0 325.0Q245 325 229 324L195 140L341 163L331 49Z"/></g>
        <g transform="translate(771, 0)"><path d="M4 -1 56 259Q68 331 82.0 407.0Q96 483 108.5 557.0Q121 631 128 696Q185 714 251.0 722.5Q317 731 382 731Q458 731 485.5 698.0Q513 665 513 609Q513 558 489.0 506.5Q465 455 426.5 413.5Q388 372 342 348Q360 308 380.5 260.5Q401 213 419 170Q429 145 439.5 120.0Q450 95 460 70L305 16L269 136Q254 186 241.5 232.5Q229 279 227 298L214 294Q211 278 207.5 259.5Q204 241 200 219Q196 197 192.0 176.5Q188 156 184 136L166 41ZM239 433Q257 435 283.5 448.5Q310 462 336.5 482.0Q363 502 381.0 523.0Q399 544 399 560Q399 580 375.5 586.5Q352 593 314 593H292Q286 592 281.0 592.0Q276 592 271 592Z"/></g>
        <g transform="translate(1215, 0)"><path d="M59 -9Q66 61 72.0 130.0Q78 199 83 266Q94 388 100.5 506.0Q107 624 109 727Q187 727 226.0 730.5Q265 734 265 734Q260 676 255.0 628.5Q250 581 246 544L234 423Q229 368 225.5 330.0Q222 292 219.0 260.0Q216 228 211 190H229L341 722L396 725Q409 726 422.0 726.5Q435 727 449 728Q463 729 475.5 730.0Q488 731 499 732Q480 673 460.5 600.0Q441 527 421.5 449.0Q402 371 382 295Q366 231 350.0 164.5Q334 98 318 30Z"/></g>
        <g transform="translate(1594, 0)"><path d="M8 -1 139 710 455 737Q448 715 443 692Q438 673 433.5 652.5Q429 632 426 616Q413 615 389.0 614.5Q365 614 340.0 613.5Q315 613 297.0 613.0Q279 613 278 613L243 434L301 437Q312 438 323.5 438.0Q335 438 346 438Q357 438 366.0 438.0Q375 438 380 439Q378 425 376.5 411.5Q375 398 373 384L364 329Q359 328 351.0 328.0Q343 328 332 328Q321 327 309.0 327.0Q297 327 286 326Q273 325 259.0 325.0Q245 325 229 324L195 140L341 163L331 49Z"/></g>
        <g transform="translate(1935, 0)"><path d="M4 -1 56 259Q68 331 82.0 407.0Q96 483 108.5 557.0Q121 631 128 696Q185 714 251.0 722.5Q317 731 382 731Q458 731 485.5 698.0Q513 665 513 609Q513 558 489.0 506.5Q465 455 426.5 413.5Q388 372 342 348Q360 308 380.5 260.5Q401 213 419 170Q429 145 439.5 120.0Q450 95 460 70L305 16L269 136Q254 186 241.5 232.5Q229 279 227 298L214 294Q211 278 207.5 259.5Q204 241 200 219Q196 197 192.0 176.5Q188 156 184 136L166 41ZM239 433Q257 435 283.5 448.5Q310 462 336.5 482.0Q363 502 381.0 523.0Q399 544 399 560Q399 580 375.5 586.5Q352 593 314 593H292Q286 592 281.0 592.0Q276 592 271 592Z"/></g>
        <g transform="translate(2574, 0)"><path d="M182 -2Q119 -2 79.0 57.0Q39 116 39 219Q39 313 65.0 404.5Q91 496 138 569Q185 642 249.5 686.5Q314 731 392 731Q441 731 476.0 693.0Q511 655 511 591V579Q511 575 511.0 572.0Q511 569 510 565L379 530Q367 555 351 555Q327 555 300.5 516.0Q274 477 250 423Q234 387 221.5 349.0Q209 311 202.0 278.0Q195 245 195 224Q195 193 204 179Q211 166 226 166Q241 166 259.0 180.5Q277 195 292.5 217.0Q308 239 313 261L427 215Q378 103 310.5 50.5Q243 -2 182 -2Z"/></g>
        <g transform="translate(2988, 0)"><path d="M8 -2Q37 138 62 271Q76 352 90.5 435.0Q105 518 117.0 594.0Q129 670 135 730Q162 729 179.5 727.5Q197 726 212.5 725.0Q228 724 247.5 723.5Q267 723 297 723Q280 652 263.5 581.0Q247 510 233 438L332 449Q339 484 345.5 518.5Q352 553 357 587Q362 620 369.5 654.5Q377 689 386 724Q422 730 459.0 733.5Q496 737 521.0 738.5Q546 740 546 740Q533 700 520.0 646.0Q507 592 495.0 532.0Q483 472 472.0 412.5Q461 353 452 302Q441 238 431.0 173.5Q421 109 411 42L255 24Q262 54 267.5 83.5Q273 113 278 141Q288 189 298.5 241.0Q309 293 315 330L218 321Q214 302 210.5 280.0Q207 258 202 233Q197 208 192.5 184.5Q188 161 184 138Q179 111 173.0 84.0Q167 57 162 30Z"/></g>
        <g transform="translate(3429, 0)"><path d="M259 2Q261 19 263.0 35.0Q265 51 267 67L273 123Q274 137 275.0 149.0Q276 161 277 171H190L150 27Q128 24 98.0 20.5Q68 17 42 14Q26 12 10.5 10.0Q-5 8 -21 6L58 268Q72 315 90.0 375.0Q108 435 126.5 498.0Q145 561 161.5 616.5Q178 672 188 710Q256 715 326.5 722.0Q397 729 464 741Q459 685 454.5 614.5Q450 544 446.5 469.0Q443 394 439 321Q437 252 434.0 178.5Q431 105 428 28Q413 26 398.0 24.0Q383 22 368 20Q343 16 313.0 11.0Q283 6 259 2ZM214 271Q220 271 236.5 272.0Q253 273 268.0 274.0Q283 275 286 275Q286 288 290.0 328.0Q294 368 298 412Q300 438 302.5 465.5Q305 493 308 522L314 609L299 608L276 522Z"/></g>
        <g transform="translate(3862, 0)"><path d="M5 -5Q35 139 62 274Q84 401 105.0 518.0Q126 635 135 733Q142 732 147.5 732.0Q153 732 157 732H178Q204 732 236.0 733.5Q268 735 295 736Q302 701 308.5 667.0Q315 633 320 601Q325 573 331.0 543.5Q337 514 343 484Q348 454 353.5 428.5Q359 403 363 382Q375 441 385.5 498.0Q396 555 406 601L435 735L557 750Q540 674 525.0 601.0Q510 528 497 460Q472 338 453.0 230.0Q434 122 424 42Q435 42 420.5 39.5Q406 37 378.0 32.5Q350 28 318.0 21.0Q286 14 261 4Q258 44 255.0 82.0Q252 120 248 156Q242 220 234.0 283.0Q226 346 218 383Q211 339 201.0 282.5Q191 226 179 169L151 29Z"/></g>
        <g transform="translate(4314, 0)"><path d="M5 -5Q35 139 62 274Q84 401 105.0 518.0Q126 635 135 733Q142 732 147.5 732.0Q153 732 157 732H178Q204 732 236.0 733.5Q268 735 295 736Q302 701 308.5 667.0Q315 633 320 601Q325 573 331.0 543.5Q337 514 343 484Q348 454 353.5 428.5Q359 403 363 382Q375 441 385.5 498.0Q396 555 406 601L435 735L557 750Q540 674 525.0 601.0Q510 528 497 460Q472 338 453.0 230.0Q434 122 424 42Q435 42 420.5 39.5Q406 37 378.0 32.5Q350 28 318.0 21.0Q286 14 261 4Q258 44 255.0 82.0Q252 120 248 156Q242 220 234.0 283.0Q226 346 218 383Q211 339 201.0 282.5Q191 226 179 169L151 29Z"/></g>
        <g transform="translate(4766, 0)"><path d="M8 -1 139 710 455 737Q448 715 443 692Q438 673 433.5 652.5Q429 632 426 616Q413 615 389.0 614.5Q365 614 340.0 613.5Q315 613 297.0 613.0Q279 613 278 613L243 434L301 437Q312 438 323.5 438.0Q335 438 346 438Q357 438 366.0 438.0Q375 438 380 439Q378 425 376.5 411.5Q375 398 373 384L364 329Q359 328 351.0 328.0Q343 328 332 328Q321 327 309.0 327.0Q297 327 286 326Q273 325 259.0 325.0Q245 325 229 324L195 140L341 163L331 49Z"/></g>
        <g transform="translate(5107, 0)"><path d="M12 -2Q23 77 35.5 157.0Q48 237 61.5 311.5Q75 386 87 446Q100 511 113.0 578.0Q126 645 140 713L315 736L263 510Q249 451 234.5 383.5Q220 316 208.0 253.0Q196 190 189 141Q214 143 242.5 143.5Q271 144 293 144Q294 121 297.0 95.5Q300 70 303.5 51.5Q307 33 307 31Q303 31 299.5 31.0Q296 31 292 32H276Q237 32 189.5 28.5Q142 25 95.5 17.5Q49 10 12 -2Z"/></g>
        <g transform="translate(5409, 0)"><path d="M171 -2Q131 -2 91.0 19.5Q51 41 14 88L88 233Q99 214 120.5 197.0Q142 180 166.0 170.0Q190 160 207 160Q233 160 256.5 176.0Q280 192 280 219Q280 254 248.0 283.0Q216 312 176 340Q137 368 104.5 403.5Q72 439 72 485Q72 537 102.0 581.5Q132 626 180.0 659.5Q228 693 282.5 711.5Q337 730 386 730Q421 730 451.0 718.5Q481 707 499.0 681.0Q517 655 517 611Q517 604 516.5 597.0Q516 590 515 583Q514 576 512.5 568.5Q511 561 510 553L365 511Q367 519 368.5 527.0Q370 535 370 543Q370 573 359.5 586.5Q349 600 332 600Q323 600 306.0 590.5Q289 581 275.5 564.5Q262 548 262 528Q262 495 289.5 473.5Q317 452 353 430Q370 420 391.0 398.5Q412 377 427.5 340.5Q443 304 443 247Q443 173 406.5 117.0Q370 61 308.0 29.5Q246 -2 171 -2Z"/></g>
  </g>
  <!-- Fill layer -->
  <g transform="translate(8, 40) scale(0.037, -0.037)" 
     fill="#FFFFFF" stroke="none">
    <g transform="translate(0, 0)"><path d="M171 -2Q131 -2 91.0 19.5Q51 41 14 88L88 233Q99 214 120.5 197.0Q142 180 166.0 170.0Q190 160 207 160Q233 160 256.5 176.0Q280 192 280 219Q280 254 248.0 283.0Q216 312 176 340Q137 368 104.5 403.5Q72 439 72 485Q72 537 102.0 581.5Q132 626 180.0 659.5Q228 693 282.5 711.5Q337 730 386 730Q421 730 451.0 718.5Q481 707 499.0 681.0Q517 655 517 611Q517 604 516.5 597.0Q516 590 515 583Q514 576 512.5 568.5Q511 561 510 553L365 511Q367 519 368.5 527.0Q370 535 370 543Q370 573 359.5 586.5Q349 600 332 600Q323 600 306.0 590.5Q289 581 275.5 564.5Q262 548 262 528Q262 495 289.5 473.5Q317 452 353 430Q370 420 391.0 398.5Q412 377 427.5 340.5Q443 304 443 247Q443 173 406.5 117.0Q370 61 308.0 29.5Q246 -2 171 -2Z"/></g>
        <g transform="translate(430, 0)"><path d="M8 -1 139 710 455 737Q448 715 443 692Q438 673 433.5 652.5Q429 632 426 616Q413 615 389.0 614.5Q365 614 340.0 613.5Q315 613 297.0 613.0Q279 613 278 613L243 434L301 437Q312 438 323.5 438.0Q335 438 346 438Q357 438 366.0 438.0Q375 438 380 439Q378 425 376.5 411.5Q375 398 373 384L364 329Q359 328 351.0 328.0Q343 328 332 328Q321 327 309.0 327.0Q297 327 286 326Q273 325 259.0 325.0Q245 325 229 324L195 140L341 163L331 49Z"/></g>
        <g transform="translate(771, 0)"><path d="M4 -1 56 259Q68 331 82.0 407.0Q96 483 108.5 557.0Q121 631 128 696Q185 714 251.0 722.5Q317 731 382 731Q458 731 485.5 698.0Q513 665 513 609Q513 558 489.0 506.5Q465 455 426.5 413.5Q388 372 342 348Q360 308 380.5 260.5Q401 213 419 170Q429 145 439.5 120.0Q450 95 460 70L305 16L269 136Q254 186 241.5 232.5Q229 279 227 298L214 294Q211 278 207.5 259.5Q204 241 200 219Q196 197 192.0 176.5Q188 156 184 136L166 41ZM239 433Q257 435 283.5 448.5Q310 462 336.5 482.0Q363 502 381.0 523.0Q399 544 399 560Q399 580 375.5 586.5Q352 593 314 593H292Q286 592 281.0 592.0Q276 592 271 592Z"/></g>
        <g transform="translate(1215, 0)"><path d="M59 -9Q66 61 72.0 130.0Q78 199 83 266Q94 388 100.5 506.0Q107 624 109 727Q187 727 226.0 730.5Q265 734 265 734Q260 676 255.0 628.5Q250 581 246 544L234 423Q229 368 225.5 330.0Q222 292 219.0 260.0Q216 228 211 190H229L341 722L396 725Q409 726 422.0 726.5Q435 727 449 728Q463 729 475.5 730.0Q488 731 499 732Q480 673 460.5 600.0Q441 527 421.5 449.0Q402 371 382 295Q366 231 350.0 164.5Q334 98 318 30Z"/></g>
        <g transform="translate(1594, 0)"><path d="M8 -1 139 710 455 737Q448 715 443 692Q438 673 433.5 652.5Q429 632 426 616Q413 615 389.0 614.5Q365 614 340.0 613.5Q315 613 297.0 613.0Q279 613 278 613L243 434L301 437Q312 438 323.5 438.0Q335 438 346 438Q357 438 366.0 438.0Q375 438 380 439Q378 425 376.5 411.5Q375 398 373 384L364 329Q359 328 351.0 328.0Q343 328 332 328Q321 327 309.0 327.0Q297 327 286 326Q273 325 259.0 325.0Q245 325 229 324L195 140L341 163L331 49Z"/></g>
        <g transform="translate(1935, 0)"><path d="M4 -1 56 259Q68 331 82.0 407.0Q96 483 108.5 557.0Q121 631 128 696Q185 714 251.0 722.5Q317 731 382 731Q458 731 485.5 698.0Q513 665 513 609Q513 558 489.0 506.5Q465 455 426.5 413.5Q388 372 342 348Q360 308 380.5 260.5Q401 213 419 170Q429 145 439.5 120.0Q450 95 460 70L305 16L269 136Q254 186 241.5 232.5Q229 279 227 298L214 294Q211 278 207.5 259.5Q204 241 200 219Q196 197 192.0 176.5Q188 156 184 136L166 41ZM239 433Q257 435 283.5 448.5Q310 462 336.5 482.0Q363 502 381.0 523.0Q399 544 399 560Q399 580 375.5 586.5Q352 593 314 593H292Q286 592 281.0 592.0Q276 592 271 592Z"/></g>
        <g transform="translate(2574, 0)"><path d="M182 -2Q119 -2 79.0 57.0Q39 116 39 219Q39 313 65.0 404.5Q91 496 138 569Q185 642 249.5 686.5Q314 731 392 731Q441 731 476.0 693.0Q511 655 511 591V579Q511 575 511.0 572.0Q511 569 510 565L379 530Q367 555 351 555Q327 555 300.5 516.0Q274 477 250 423Q234 387 221.5 349.0Q209 311 202.0 278.0Q195 245 195 224Q195 193 204 179Q211 166 226 166Q241 166 259.0 180.5Q277 195 292.5 217.0Q308 239 313 261L427 215Q378 103 310.5 50.5Q243 -2 182 -2Z"/></g>
        <g transform="translate(2988, 0)"><path d="M8 -2Q37 138 62 271Q76 352 90.5 435.0Q105 518 117.0 594.0Q129 670 135 730Q162 729 179.5 727.5Q197 726 212.5 725.0Q228 724 247.5 723.5Q267 723 297 723Q280 652 263.5 581.0Q247 510 233 438L332 449Q339 484 345.5 518.5Q352 553 357 587Q362 620 369.5 654.5Q377 689 386 724Q422 730 459.0 733.5Q496 737 521.0 738.5Q546 740 546 740Q533 700 520.0 646.0Q507 592 495.0 532.0Q483 472 472.0 412.5Q461 353 452 302Q441 238 431.0 173.5Q421 109 411 42L255 24Q262 54 267.5 83.5Q273 113 278 141Q288 189 298.5 241.0Q309 293 315 330L218 321Q214 302 210.5 280.0Q207 258 202 233Q197 208 192.5 184.5Q188 161 184 138Q179 111 173.0 84.0Q167 57 162 30Z"/></g>
        <g transform="translate(3429, 0)"><path d="M259 2Q261 19 263.0 35.0Q265 51 267 67L273 123Q274 137 275.0 149.0Q276 161 277 171H190L150 27Q128 24 98.0 20.5Q68 17 42 14Q26 12 10.5 10.0Q-5 8 -21 6L58 268Q72 315 90.0 375.0Q108 435 126.5 498.0Q145 561 161.5 616.5Q178 672 188 710Q256 715 326.5 722.0Q397 729 464 741Q459 685 454.5 614.5Q450 544 446.5 469.0Q443 394 439 321Q437 252 434.0 178.5Q431 105 428 28Q413 26 398.0 24.0Q383 22 368 20Q343 16 313.0 11.0Q283 6 259 2ZM214 271Q220 271 236.5 272.0Q253 273 268.0 274.0Q283 275 286 275Q286 288 290.0 328.0Q294 368 298 412Q300 438 302.5 465.5Q305 493 308 522L314 609L299 608L276 522Z"/></g>
        <g transform="translate(3862, 0)"><path d="M5 -5Q35 139 62 274Q84 401 105.0 518.0Q126 635 135 733Q142 732 147.5 732.0Q153 732 157 732H178Q204 732 236.0 733.5Q268 735 295 736Q302 701 308.5 667.0Q315 633 320 601Q325 573 331.0 543.5Q337 514 343 484Q348 454 353.5 428.5Q359 403 363 382Q375 441 385.5 498.0Q396 555 406 601L435 735L557 750Q540 674 525.0 601.0Q510 528 497 460Q472 338 453.0 230.0Q434 122 424 42Q435 42 420.5 39.5Q406 37 378.0 32.5Q350 28 318.0 21.0Q286 14 261 4Q258 44 255.0 82.0Q252 120 248 156Q242 220 234.0 283.0Q226 346 218 383Q211 339 201.0 282.5Q191 226 179 169L151 29Z"/></g>
        <g transform="translate(4314, 0)"><path d="M5 -5Q35 139 62 274Q84 401 105.0 518.0Q126 635 135 733Q142 732 147.5 732.0Q153 732 157 732H178Q204 732 236.0 733.5Q268 735 295 736Q302 701 308.5 667.0Q315 633 320 601Q325 573 331.0 543.5Q337 514 343 484Q348 454 353.5 428.5Q359 403 363 382Q375 441 385.5 498.0Q396 555 406 601L435 735L557 750Q540 674 525.0 601.0Q510 528 497 460Q472 338 453.0 230.0Q434 122 424 42Q435 42 420.5 39.5Q406 37 378.0 32.5Q350 28 318.0 21.0Q286 14 261 4Q258 44 255.0 82.0Q252 120 248 156Q242 220 234.0 283.0Q226 346 218 383Q211 339 201.0 282.5Q191 226 179 169L151 29Z"/></g>
        <g transform="translate(4766, 0)"><path d="M8 -1 139 710 455 737Q448 715 443 692Q438 673 433.5 652.5Q429 632 426 616Q413 615 389.0 614.5Q365 614 340.0 613.5Q315 613 297.0 613.0Q279 613 278 613L243 434L301 437Q312 438 323.5 438.0Q335 438 346 438Q357 438 366.0 438.0Q375 438 380 439Q378 425 376.5 411.5Q375 398 373 384L364 329Q359 328 351.0 328.0Q343 328 332 328Q321 327 309.0 327.0Q297 327 286 326Q273 325 259.0 325.0Q245 325 229 324L195 140L341 163L331 49Z"/></g>
        <g transform="translate(5107, 0)"><path d="M12 -2Q23 77 35.5 157.0Q48 237 61.5 311.5Q75 386 87 446Q100 511 113.0 578.0Q126 645 140 713L315 736L263 510Q249 451 234.5 383.5Q220 316 208.0 253.0Q196 190 189 141Q214 143 242.5 143.5Q271 144 293 144Q294 121 297.0 95.5Q300 70 303.5 51.5Q307 33 307 31Q303 31 299.5 31.0Q296 31 292 32H276Q237 32 189.5 28.5Q142 25 95.5 17.5Q49 10 12 -2Z"/></g>
        <g transform="translate(5409, 0)"><path d="M171 -2Q131 -2 91.0 19.5Q51 41 14 88L88 233Q99 214 120.5 197.0Q142 180 166.0 170.0Q190 160 207 160Q233 160 256.5 176.0Q280 192 280 219Q280 254 248.0 283.0Q216 312 176 340Q137 368 104.5 403.5Q72 439 72 485Q72 537 102.0 581.5Q132 626 180.0 659.5Q228 693 282.5 711.5Q337 730 386 730Q421 730 451.0 718.5Q481 707 499.0 681.0Q517 655 517 611Q517 604 516.5 597.0Q516 590 515 583Q514 576 512.5 568.5Q511 561 510 553L365 511Q367 519 368.5 527.0Q370 535 370 543Q370 573 359.5 586.5Q349 600 332 600Q323 600 306.0 590.5Q289 581 275.5 564.5Q262 548 262 528Q262 495 289.5 473.5Q317 452 353 430Q370 420 391.0 398.5Q412 377 427.5 340.5Q443 304 443 247Q443 173 406.5 117.0Q370 61 308.0 29.5Q246 -2 171 -2Z"/></g>
  </g>
</svg>