<?xml version="1.0" encoding="UTF-8"?>
<svg xmlns="http://www.w3.org/2000/svg" viewBox="0 0 340.3 60.0" width="340.3" height="60.0">
  <!-- Shadow layer -->
  <g transform="translate(11, 43) scale(0.037, -0.037)" 
     fill="#000" stroke="#000" stroke-width="47.6" stroke-linejoin="round">
    <g transform="translate(0, 0)"><path d="M165 -18Q135 -18 104.0 -5.0Q73 8 52.0 35.0Q31 62 31 104V112Q31 117 32 120Q35 146 40.5 188.0Q46 230 54.0 279.5Q62 329 70.5 378.0Q79 427 86 467Q101 547 110.0 596.0Q119 645 124.5 671.5Q130 698 133 711L298 727Q285 666 273.5 611.5Q262 557 252 508L206 287Q200 262 197 245Q193 229 188.5 204.5Q184 180 184 160Q184 144 192.0 133.5Q200 123 212 123Q229 123 240.0 136.0Q251 149 258.0 168.0Q265 187 269.0 206.5Q273 226 276 238Q286 284 294.5 327.5Q303 371 312.5 420.0Q322 469 334 533Q342 577 350.5 622.5Q359 668 367 715L519 725L484 532Q477 495 468.5 449.0Q460 403 450.0 356.0Q440 309 431.5 267.0Q423 225 416 195Q396 113 354.0 66.5Q312 20 261.5 1.0Q211 -18 165 -18Z"/></g>
        <g transform="translate(419, 0)"><path d="M5 -5Q35 139 62 274Q84 401 105.0 518.0Q126 635 135 733Q142 732 147.5 732.0Q153 732 157 732H178Q204 732 236.0 733.5Q268 735 295 736Q302 701 308.5 667.0Q315 633 320 601Q325 573 331.0 543.5Q337 514 343 484Q348 454 353.5 428.5Q359 403 363 382Q375 441 385.5 498.0Q396 555 406 601L435 735L557 750Q540 674 525.0 601.0Q510 528 497 460Q472 338 453.0 230.0Q434 122 424 42Q435 42 420.5 39.5Q406 37 378.0 32.5Q350 28 318.0 21.0Q286 14 261 4Q258 44 255.0 82.0Q252 120 248 156Q242 220 234.0 283.0Q226 346 218 383Q211 339 201.0 282.5Q191 226 179 169L151 29Z"/></g>
        <g transform="translate(871, 0)"><path d="M60 -5Q46 -5 32.0 -3.5Q18 -2 4 0L57 269Q67 324 78.5 385.5Q90 447 101.0 507.5Q112 568 120.5 620.0Q129 672 134 708Q177 716 221.0 723.0Q265 730 311 730Q385 730 428.0 699.5Q471 669 490.0 619.5Q509 570 509 511Q509 458 494.0 399.5Q479 341 451.5 283.5Q424 226 386 175Q327 96 242.5 45.5Q158 -5 60 -5ZM179 121Q214 144 245.5 191.0Q277 238 305 304Q330 365 344.0 419.5Q358 474 358 510Q358 547 337.5 568.0Q317 589 273 589Q257 503 240.5 430.0Q224 357 208.5 283.0Q193 209 179 121Z"/></g>
        <g transform="translate(1312, 0)"><path d="M8 -1 139 710 455 737Q448 715 443 692Q438 673 433.5 652.5Q429 632 426 616Q413 615 389.0 614.5Q365 614 340.0 613.5Q315 613 297.0 613.0Q279 613 278 613L243 434L301 437Q312 438 323.5 438.0Q335 438 346 438Q357 438 366.0 438.0Q375 438 380 439Q378 425 376.5 411.5Q375 398 373 384L364 329Q359 328 351.0 328.0Q343 328 332 328Q321 327 309.0 327.0Q297 327 286 326Q273 325 259.0 325.0Q245 325 229 324L195 140L341 163L331 49Z"/></g>
        <g transform="translate(1653, 0)"><path d="M4 -1 56 259Q68 331 82.0 407.0Q96 483 108.5 557.0Q121 631 128 696Q185 714 251.0 722.5Q317 731 382 731Q458 731 485.5 698.0Q513 665 513 609Q513 558 489.0 506.5Q465 455 426.5 413.5Q388 372 342 348Q360 308 380.5 260.5Q401 213 419 170Q429 145 439.5 120.0Q450 95 460 70L305 16L269 136Q254 186 241.5 232.5Q229 279 227 298L214 294Q211 278 207.5 259.5Q204 241 200 219Q196 197 192.0 176.5Q188 156 184 136L166 41ZM239 433Q257 435 283.5 448.5Q310 462 336.5 482.0Q363 502 381.0 523.0Q399 544 399 560Q399 580 375.5 586.5Q352 593 314 593H292Q286 592 281.0 592.0Q276 592 271 592Z"/></g>
        <g transform="translate(2097, 0)"><path d="M171 -2Q131 -2 91.0 19.5Q51 41 14 88L88 233Q99 214 120.5 197.0Q142 180 166.0 170.0Q190 160 207 160Q233 160 256.5 176.0Q280 192 280 219Q280 254 248.0 283.0Q216 312 176 340Q137 368 104.5 403.5Q72 439 72 485Q72 537 102.0 581.5Q132 626 180.0 659.5Q228 693 282.5 711.5Q337 730 386 730Q421 730 451.0 718.5Q481 707 499.0 681.0Q517 655 517 611Q517 604 516.5 597.0Q516 590 515 583Q514 576 512.5 568.5Q511 561 510 553L365 511Q367 519 368.5 527.0Q370 535 370 543Q370 573 359.5 586.5Q349 600 332 600Q323 600 306.0 590.5Q289 581 275.5 564.5Q262 548 262 528Q262 495 289.5 473.5Q317 452 353 430Q370 420 391.0 398.5Q412 377 427.5 340.5Q443 304 443 247Q443 173 406.5 117.0Q370 61 308.0 29.5Q246 -2 171 -2Z"/></g>
        <g transform="translate(2527, 0)"><path d="M90 -1Q101 54 112.5 108.5Q124 163 134 216Q172 406 196 580Q185 582 173.0 582.5Q161 583 150 582Q126 580 103 588Q104 596 104.0 605.5Q104 615 104 625Q104 636 104.0 646.5Q104 657 105 667Q106 678 106.0 690.5Q106 703 107 716Q133 714 159.0 713.0Q185 712 211 712Q285 712 352.5 717.0Q420 722 477 729L466 675L457 628Q452 602 448 587Q437 584 426.0 582.0Q415 580 404 579Q393 578 381.5 576.0Q370 574 359 572Q344 498 334.5 444.0Q325 390 317.5 340.5Q310 291 300 232Q283 131 270 27Z"/></g>
        <g transform="translate(2889, 0)"><path d="M259 2Q261 19 263.0 35.0Q265 51 267 67L273 123Q274 137 275.0 149.0Q276 161 277 171H190L150 27Q128 24 98.0 20.5Q68 17 42 14Q26 12 10.5 10.0Q-5 8 -21 6L58 268Q72 315 90.0 375.0Q108 435 126.5 498.0Q145 561 161.5 616.5Q178 672 188 710Q256 715 326.5 722.0Q397 729 464 741Q459 685 454.5 614.5Q450 544 446.5 469.0Q443 394 439 321Q437 252 434.0 178.5Q431 105 428 28Q413 26 398.0 24.0Q383 22 368 20Q343 16 313.0 11.0Q283 6 259 2ZM214 271Q220 271 236.5 272.0Q253 273 268.0 274.0Q283 275 286 275Q286 288 290.0 328.0Q294 368 298 412Q300 438 302.5 465.5Q305 493 308 522L314 609L299 608L276 522Z"/></g>
        <g transform="translate(3322, 0)"><path d="M5 -5Q35 139 62 274Q84 401 105.0 518.0Q126 635 135 733Q142 732 147.5 732.0Q153 732 157 732H178Q204 732 236.0 733.5Q268 735 295 736Q302 701 308.5 667.0Q315 633 320 601Q325 573 331.0 543.5Q337 514 343 484Q348 454 353.5 428.5Q359 403 363 382Q375 441 385.5 498.0Q396 555 406 601L435 735L557 750Q540 674 525.0 601.0Q510 528 497 460Q472 338 453.0 230.0Q434 122 424 42Q435 42 420.5 39.5Q406 37 378.0 32.5Q350 28 318.0 21.0Q286 14 261 4Q258 44 255.0 82.0Q252 120 248 156Q242 220 234.0 283.0Q226 346 218 383Q211 339 201.0 282.5Q191 226 179 169L151 29Z"/></g>
        <g transform="translate(3774, 0)"><path d="M60 -5Q46 -5 32.0 -3.5Q18 -2 4 0L57 269Q67 324 78.5 385.5Q90 447 101.0 507.5Q112 568 120.5 620.0Q129 672 134 708Q177 716 221.0 723.0Q265 730 311 730Q385 730 428.0 699.5Q471 669 490.0 619.5Q509 570 509 511Q509 458 494.0 399.5Q479 341 451.5 283.5Q424 226 386 175Q327 96 242.5 45.5Q158 -5 60 -5ZM179 121Q214 144 245.5 191.0Q277 238 305 304Q330 365 344.0 419.5Q358 474 358 510Q358 547 337.5 568.0Q317 589 273 589Q257 503 240.5 430.0Q224 357 208.5 283.0Q193 209 179 121Z"/></g>
        <g transform="translate(4215, 0)"><path d="M5 1Q19 59 33.0 132.5Q47 206 61.0 285.0Q75 364 87 437Q98 501 108.5 567.0Q119 633 129 700L285 725L240 462Q225 369 213.5 295.0Q202 221 191.5 155.0Q181 89 170 20Q151 20 124.0 17.5Q97 15 70.0 11.5Q43 8 24.5 5.0Q6 2 5 1Z"/></g>
        <g transform="translate(4417, 0)"><path d="M5 -5Q35 139 62 274Q84 401 105.0 518.0Q126 635 135 733Q142 732 147.5 732.0Q153 732 157 732H178Q204 732 236.0 733.5Q268 735 295 736Q302 701 308.5 667.0Q315 633 320 601Q325 573 331.0 543.5Q337 514 343 484Q348 454 353.5 428.5Q359 403 363 382Q375 441 385.5 498.0Q396 555 406 601L435 735L557 750Q540 674 525.0 601.0Q510 528 497 460Q472 338 453.0 230.0Q434 122 424 42Q435 42 420.5 39.5Q406 37 378.0 32.5Q350 28 318.0 21.0Q286 14 261 4Q258 44 255.0 82.0Q252 120 248 156Q242 220 234.0 283.0Q226 346 218 383Q211 339 201.0 282.5Q191 226 179 169L151 29Z"/></g>
        <g transform="translate(4869, 0)"><path d="M223 -24Q186 -24 152.5 -8.0Q119 8 95 41Q70 73 56.0 122.0Q42 171 42 237Q42 366 79.0 462.0Q116 558 173 622Q229 686 293.5 717.0Q358 748 414 748Q468 748 502.0 724.5Q536 701 552.0 662.0Q568 623 568 575L431 549Q422 589 407.0 606.0Q392 623 373 623Q351 623 327.5 599.0Q304 575 281.5 534.5Q259 494 241.0 444.0Q223 394 211.5 341.0Q200 288 198 241Q198 179 216.5 152.5Q235 126 264 126Q292 126 319.5 144.0Q347 162 365.5 192.5Q384 223 385 261L278 245L297 344L389 356Q427 361 469.5 368.0Q512 375 544 381Q537 279 504.5 202.5Q472 126 424.0 76.0Q376 26 323.5 1.0Q271 -24 223 -24Z"/></g>
        <g transform="translate(5563, 0)"><path d="M4 -1Q18 47 31.0 108.5Q44 170 55.5 234.0Q67 298 77.0 353.0Q87 408 93 444Q104 511 114.5 579.5Q125 648 135 719L470 736L441 613H284L253 435Q269 436 283.5 436.0Q298 436 312 436H359Q371 436 380.0 436.0Q389 436 396 437Q395 423 393.0 409.5Q391 396 389 382L380 328Q359 328 319.5 329.5Q280 331 236 332L190 37Q173 34 156.5 31.0Q140 28 123 24Q95 19 62.0 12.0Q29 5 4 -1Z"/></g>
        <g transform="translate(5904, 0)"><path d="M8 -1 139 710 455 737Q448 715 443 692Q438 673 433.5 652.5Q429 632 426 616Q413 615 389.0 614.5Q365 614 340.0 613.5Q315 613 297.0 613.0Q279 613 278 613L243 434L301 437Q312 438 323.5 438.0Q335 438 346 438Q357 438 366.0 438.0Q375 438 380 439Q378 425 376.5 411.5Q375 398 373 384L364 329Q359 328 351.0 328.0Q343 328 332 328Q321 327 309.0 327.0Q297 327 286 326Q273 325 259.0 325.0Q245 325 229 324L195 140L341 163L331 49Z"/></g>
        <g transform="translate(6245, 0)"><path d="M8 -1 139 710 455 737Q448 715 443 692Q438 673 433.5 652.5Q429 632 426 616Q413 615 389.0 614.5Q365 614 340.0 613.5Q315 613 297.0 613.0Q279 613 278 613L243 434L301 437Q312 438 323.5 438.0Q335 438 346 438Q357 438 366.0 438.0Q375 438 380 439Q378 425 376.5 411.5Q375 398 373 384L364 329Q359 328 351.0 328.0Q343 328 332 328Q321 327 309.0 327.0Q297 327 286 326Q273 325 259.0 325.0Q245 325 229 324L195 140L341 163L331 49Z"/></g>
        <g transform="translate(6586, 0)"><path d="M60 -5Q46 -5 32.0 -3.5Q18 -2 4 0L57 269Q67 324 78.5 385.5Q90 447 101.0 507.5Q112 568 120.5 620.0Q129 672 134 708Q177 716 221.0 723.0Q265 730 311 730Q385 730 428.0 699.5Q471 669 490.0 619.5Q509 570 509 511Q509 458 494.0 399.5Q479 341 451.5 283.5Q424 226 386 175Q327 96 242.5 45.5Q158 -5 60 -5ZM179 121Q214 144 245.5 191.0Q277 238 305 304Q330 365 344.0 419.5Q358 474 358 510Q358 547 337.5 568.0Q317 589 273 589Q257 503 240.5 430.0Q224 357 208.5 283.0Q193 209 179 121Z"/></g>
        <g transform="translate(7027, 0)"><path d="M68 -4Q31 -4 -1 2Q47 177 75.5 354.5Q104 532 130 712Q182 723 238.0 731.5Q294 740 354 740Q387 740 424.0 728.5Q461 717 486.5 687.5Q512 658 512 604Q512 554 491.0 512.0Q470 470 438.0 440.0Q406 410 372 397Q386 390 405.0 372.0Q424 354 438.0 324.0Q452 294 452 251Q452 191 416.5 142.5Q381 94 322 62Q265 30 199.0 13.0Q133 -4 68 -4ZM246 479Q277 485 305.0 495.0Q333 505 350.5 518.0Q368 531 368 546Q368 565 353.0 576.0Q338 587 317.0 592.0Q296 597 278 597H268Q261 557 255.0 527.5Q249 498 246 479ZM195 198Q215 200 239.0 205.0Q263 210 285.0 220.5Q307 231 321.5 248.5Q336 266 336 291Q336 315 320.0 329.0Q304 343 281.5 349.5Q259 356 239 356H231Q226 356 223 355Q217 318 209.0 277.0Q201 236 195 198Z"/></g>
        <g transform="translate(7455, 0)"><path d="M259 2Q261 19 263.0 35.0Q265 51 267 67L273 123Q274 137 275.0 149.0Q276 161 277 171H190L150 27Q128 24 98.0 20.5Q68 17 42 14Q26 12 10.5 10.0Q-5 8 -21 6L58 268Q72 315 90.0 375.0Q108 435 126.5 498.0Q145 561 161.5 616.5Q178 672 188 710Q256 715 326.5 722.0Q397 729 464 741Q459 685 454.5 614.5Q450 544 446.5 469.0Q443 394 439 321Q437 252 434.0 178.5Q431 105 428 28Q413 26 398.0 24.0Q383 22 368 20Q343 16 313.0 11.0Q283 6 259 2ZM214 271Q220 271 236.5 272.0Q253 273 268.0 274.0Q283 275 286 275Q286 288 290.0 328.0Q294 368 298 412Q300 438 302.5 465.5Q305 493 308 522L314 609L299 608L276 522Z"/></g>
        <g transform="translate(7888, 0)"><path d="M182 -2Q119 -2 79.0 57.0Q39 116 39 219Q39 313 65.0 404.5Q91 496 138 569Q185 642 249.5 686.5Q314 731 392 731Q441 731 476.0 693.0Q511 655 511 591V579Q511 575 511.0 572.0Q511 569 510 565L379 530Q367 555 351 555Q327 555 300.5 516.0Q274 477 250 423Q234 387 221.5 349.0Q209 311 202.0 278.0Q195 245 195 224Q195 193 204 179Q211 166 226 166Q241 166 259.0 180.5Q277 195 292.5 217.0Q308 239 313 261L427 215Q378 103 310.5 50.5Q243 -2 182 -2Z"/></g>
        <g transform="translate(8302, 0)"><path d="M7 -1Q22 69 36.0 137.0Q50 205 63 271Q84 390 104.0 506.5Q124 623 133 729L185 726Q199 725 212.5 724.0Q226 723 239 722Q254 721 269.0 720.5Q284 720 299 720Q297 712 292.5 688.0Q288 664 283.5 639.5Q279 615 277 606L259 507L265 508Q294 553 332.0 612.0Q370 671 403 725Q453 729 503.0 734.0Q553 739 603 747Q580 716 557.0 685.0Q534 654 512 623Q489 591 462.0 553.0Q435 515 410.5 478.5Q386 442 370 416Q381 366 394.0 317.0Q407 268 422 221Q437 174 452.0 126.0Q467 78 483 29Q460 30 436.0 30.5Q412 31 389 31Q360 31 333.0 30.5Q306 30 277 29Q273 61 268.0 95.5Q263 130 258 166Q253 201 248.0 235.5Q243 270 238 302L220 281Q213 252 205 207Q201 185 196.5 163.5Q192 142 188 122Q184 98 179.0 73.5Q174 49 169 23Z"/></g>
  </g>
  <!-- Stroke layer -->
  <g transform="translate(8, 40) scale(0.037, -0.037)" 
     fill="#000" stroke="#000" stroke-width="47.6" stroke-linejoin="round">
    <g transform="translate(0, 0)"><path d="M165 -18Q135 -18 104.0 -5.0Q73 8 52.0 35.0Q31 62 31 104V112Q31 117 32 120Q35 146 40.5 188.0Q46 230 54.0 279.5Q62 329 70.5 378.0Q79 427 86 467Q101 547 110.0 596.0Q119 645 124.5 671.5Q130 698 133 711L298 727Q285 666 273.5 611.5Q262 557 252 508L206 287Q200 262 197 245Q193 229 188.5 204.5Q184 180 184 160Q184 144 192.0 133.5Q200 123 212 123Q229 123 240.0 136.0Q251 149 258.0 168.0Q265 187 269.0 206.5Q273 226 276 238Q286 284 294.5 327.5Q303 371 312.5 420.0Q322 469 334 533Q342 577 350.5 622.5Q359 668 367 715L519 725L484 532Q477 495 468.5 449.0Q460 403 450.0 356.0Q440 309 431.5 267.0Q423 225 416 195Q396 113 354.0 66.5Q312 20 261.5 1.0Q211 -18 165 -18Z"/></g>
        <g transform="translate(419, 0)"><path d="M5 -5Q35 139 62 274Q84 401 105.0 518.0Q126 635 135 733Q142 732 147.5 732.0Q153 732 157 732H178Q204 732 236.0 733.5Q268 735 295 736Q302 701 308.5 667.0Q315 633 320 601Q325 573 331.0 543.5Q337 514 343 484Q348 454 353.5 428.5Q359 403 363 382Q375 441 385.5 498.0Q396 555 406 601L435 735L557 750Q540 674 525.0 601.0Q510 528 497 460Q472 338 453.0 230.0Q434 122 424 42Q435 42 420.5 39.5Q406 37 378.0 32.5Q350 28 318.0 21.0Q286 14 261 4Q258 44 255.0 82.0Q252 120 248 156Q242 220 234.0 283.0Q226 346 218 383Q211 339 201.0 282.5Q191 226 179 169L151 29Z"/></g>
        <g transform="translate(871, 0)"><path d="M60 -5Q46 -5 32.0 -3.5Q18 -2 4 0L57 269Q67 324 78.5 385.5Q90 447 101.0 507.5Q112 568 120.5 620.0Q129 672 134 708Q177 716 221.0 723.0Q265 730 311 730Q385 730 428.0 699.5Q471 669 490.0 619.5Q509 570 509 511Q509 458 494.0 399.5Q479 341 451.5 283.5Q424 226 386 175Q327 96 242.5 45.5Q158 -5 60 -5ZM179 121Q214 144 245.5 191.0Q277 238 305 304Q330 365 344.0 419.5Q358 474 358 510Q358 547 337.5 568.0Q317 589 273 589Q257 503 240.5 430.0Q224 357 208.5 283.0Q193 209 179 121Z"/></g>
        <g transform="translate(1312, 0)"><path d="M8 -1 139 710 455 737Q448 715 443 692Q438 673 433.5 652.5Q429 632 426 616Q413 615 389.0 614.5Q365 614 340.0 613.5Q315 613 297.0 613.0Q279 613 278 613L243 434L301 437Q312 438 323.5 438.0Q335 438 346 438Q357 438 366.0 438.0Q375 438 380 439Q378 425 376.5 411.5Q375 398 373 384L364 329Q359 328 351.0 328.0Q343 328 332 328Q321 327 309.0 327.0Q297 327 286 326Q273 325 259.0 325.0Q245 325 229 324L195 140L341 163L331 49Z"/></g>
        <g transform="translate(1653, 0)"><path d="M4 -1 56 259Q68 331 82.0 407.0Q96 483 108.5 557.0Q121 631 128 696Q185 714 251.0 722.5Q317 731 382 731Q458 731 485.5 698.0Q513 665 513 609Q513 558 489.0 506.5Q465 455 426.5 413.5Q388 372 342 348Q360 308 380.5 260.5Q401 213 419 170Q429 145 439.5 120.0Q450 95 460 70L305 16L269 136Q254 186 241.5 232.5Q229 279 227 298L214 294Q211 278 207.5 259.5Q204 241 200 219Q196 197 192.0 176.5Q188 156 184 136L166 41ZM239 433Q257 435 283.5 448.5Q310 462 336.5 482.0Q363 502 381.0 523.0Q399 544 399 560Q399 580 375.5 586.5Q352 593 314 593H292Q286 592 281.0 592.0Q276 592 271 592Z"/></g>
        <g transform="translate(2097, 0)"><path d="M171 -2Q131 -2 91.0 19.5Q51 41 14 88L88 233Q99 214 120.5 197.0Q142 180 166.0 170.0Q190 160 207 160Q233 160 256.5 176.0Q280 192 280 219Q280 254 248.0 283.0Q216 312 176 340Q137 368 104.5 403.5Q72 439 72 485Q72 537 102.0 581.5Q132 626 180.0 659.5Q228 693 282.5 711.5Q337 730 386 730Q421 730 451.0 718.5Q481 707 499.0 681.0Q517 655 517 611Q517 604 516.5 597.0Q516 590 515 583Q514 576 512.5 568.5Q511 561 510 553L365 511Q367 519 368.5 527.0Q370 535 370 543Q370 573 359.5 586.5Q349 600 332 600Q323 600 306.0 590.5Q289 581 275.5 564.5Q262 548 262 528Q262 495 289.5 473.5Q317 452 353 430Q370 420 391.0 398.5Q412 377 427.5 340.5Q443 304 443 247Q443 173 406.5 117.0Q370 61 308.0 29.5Q246 -2 171 -2Z"/></g>
        <g transform="translate(2527, 0)"><path d="M90 -1Q101 54 112.5 108.5Q124 163 134 216Q172 406 196 580Q185 582 173.0 582.5Q161 583 150 582Q126 580 103 588Q104 596 104.0 605.5Q104 615 104 625Q104 636 104.0 646.5Q104 657 105 667Q106 678 106.0 690.5Q106 703 107 716Q133 714 159.0 713.0Q185 712 211 712Q285 712 352.5 717.0Q420 722 477 729L466 675L457 628Q452 602 448 587Q437 584 426.0 582.0Q415 580 404 579Q393 578 381.5 576.0Q370 574 359 572Q344 498 334.5 444.0Q325 390 317.5 340.5Q310 291 300 232Q283 131 270 27Z"/></g>
        <g transform="translate(2889, 0)"><path d="M259 2Q261 19 263.0 35.0Q265 51 267 67L273 123Q274 137 275.0 149.0Q276 161 277 171H190L150 27Q128 24 98.0 20.5Q68 17 42 14Q26 12 10.5 10.0Q-5 8 -21 6L58 268Q72 315 90.0 375.0Q108 435 126.5 498.0Q145 561 161.5 616.5Q178 672 188 710Q256 715 326.5 722.0Q397 729 464 741Q459 685 454.5 614.5Q450 544 446.5 469.0Q443 394 439 321Q437 252 434.0 178.5Q431 105 428 28Q413 26 398.0 24.0Q383 22 368 20Q343 16 313.0 11.0Q283 6 259 2ZM214 271Q220 271 236.5 272.0Q253 273 268.0 274.0Q283 275 286 275Q286 288 290.0 328.0Q294 368 298 412Q300 438 302.5 465.5Q305 493 308 522L314 609L299 608L276 522Z"/></g>
        <g transform="translate(3322, 0)"><path d="M5 -5Q35 139 62 274Q84 401 105.0 518.0Q126 635 135 733Q142 732 147.5 732.0Q153 732 157 732H178Q204 732 236.0 733.5Q268 735 295 736Q302 701 308.5 667.0Q315 633 320 601Q325 573 331.0 543.5Q337 514 343 484Q348 454 353.5 428.5Q359 403 363 382Q375 441 385.5 498.0Q396 555 406 601L435 735L557 750Q540 674 525.0 601.0Q510 528 497 460Q472 338 453.0 230.0Q434 122 424 42Q435 42 420.5 39.5Q406 37 378.0 32.5Q350 28 318.0 21.0Q286 14 261 4Q258 44 255.0 82.0Q252 120 248 156Q242 220 234.0 283.0Q226 346 218 383Q211 339 201.0 282.5Q191 226 179 169L151 29Z"/></g>
        <g transform="translate(3774, 0)"><path d="M60 -5Q46 -5 32.0 -3.5Q18 -2 4 0L57 269Q67 324 78.5 385.5Q90 447 101.0 507.5Q112 568 120.5 620.0Q129 672 134 708Q177 716 221.0 723.0Q265 730 311 730Q385 730 428.0 699.5Q471 669 490.0 619.5Q509 570 509 511Q509 458 494.0 399.5Q479 341 451.5 283.5Q424 226 386 175Q327 96 242.5 45.5Q158 -5 60 -5ZM179 121Q214 144 245.5 191.0Q277 238 305 304Q330 365 344.0 419.5Q358 474 358 510Q358 547 337.5 568.0Q317 589 273 589Q257 503 240.5 430.0Q224 357 208.5 283.0Q193 209 179 121Z"/></g>
        <g transform="translate(4215, 0)"><path d="M5 1Q19 59 33.0 132.5Q47 206 61.0 285.0Q75 364 87 437Q98 501 108.5 567.0Q119 633 129 700L285 725L240 462Q225 369 213.5 295.0Q202 221 191.5 155.0Q181 89 170 20Q151 20 124.0 17.5Q97 15 70.0 11.5Q43 8 24.5 5.0Q6 2 5 1Z"/></g>
        <g transform="translate(4417, 0)"><path d="M5 -5Q35 139 62 274Q84 401 105.0 518.0Q126 635 135 733Q142 732 147.5 732.0Q153 732 157 732H178Q204 732 236.0 733.5Q268 735 295 736Q302 701 308.5 667.0Q315 633 320 601Q325 573 331.0 543.5Q337 514 343 484Q348 454 353.5 428.5Q359 403 363 382Q375 441 385.5 498.0Q396 555 406 601L435 735L557 750Q540 674 525.0 601.0Q510 528 497 460Q472 338 453.0 230.0Q434 122 424 42Q435 42 420.5 39.5Q406 37 378.0 32.5Q350 28 318.0 21.0Q286 14 261 4Q258 44 255.0 82.0Q252 120 248 156Q242 220 234.0 283.0Q226 346 218 383Q211 339 201.0 282.5Q191 226 179 169L151 29Z"/></g>
        <g transform="translate(4869, 0)"><path d="M223 -24Q186 -24 152.5 -8.0Q119 8 95 41Q70 73 56.0 122.0Q42 171 42 237Q42 366 79.0 462.0Q116 558 173 622Q229 686 293.5 717.0Q358 748 414 748Q468 748 502.0 724.5Q536 701 552.0 662.0Q568 623 568 575L431 549Q422 589 407.0 606.0Q392 623 373 623Q351 623 327.5 599.0Q304 575 281.5 534.5Q259 494 241.0 444.0Q223 394 211.5 341.0Q200 288 198 241Q198 179 216.5 152.5Q235 126 264 126Q292 126 319.5 144.0Q347 162 365.5 192.5Q384 223 385 261L278 245L297 344L389 356Q427 361 469.5 368.0Q512 375 544 381Q537 279 504.5 202.5Q472 126 424.0 76.0Q376 26 323.5 1.0Q271 -24 223 -24Z"/></g>
        <g transform="translate(5563, 0)"><path d="M4 -1Q18 47 31.0 108.5Q44 170 55.5 234.0Q67 298 77.0 353.0Q87 408 93 444Q104 511 114.5 579.5Q125 648 135 719L470 736L441 613H284L253 435Q269 436 283.5 436.0Q298 436 312 436H359Q371 436 380.0 436.0Q389 436 396 437Q395 423 393.0 409.5Q391 396 389 382L380 328Q359 328 319.5 329.5Q280 331 236 332L190 37Q173 34 156.5 31.0Q140 28 123 24Q95 19 62.0 12.0Q29 5 4 -1Z"/></g>
        <g transform="translate(5904, 0)"><path d="M8 -1 139 710 455 737Q448 715 443 692Q438 673 433.5 652.5Q429 632 426 616Q413 615 389.0 614.5Q365 614 340.0 613.5Q315 613 297.0 613.0Q279 613 278 613L243 434L301 437Q312 438 323.5 438.0Q335 438 346 438Q357 438 366.0 438.0Q375 438 380 439Q378 425 376.5 411.5Q375 398 373 384L364 329Q359 328 351.0 328.0Q343 328 332 328Q321 327 309.0 327.0Q297 327 286 326Q273 325 259.0 325.0Q245 325 229 324L195 140L341 163L331 49Z"/></g>
        <g transform="translate(6245, 0)"><path d="M8 -1 139 710 455 737Q448 715 443 692Q438 673 433.5 652.5Q429 632 426 616Q413 615 389.0 614.5Q365 614 340.0 613.5Q315 613 297.0 613.0Q279 613 278 613L243 434L301 437Q312 438 323.5 438.0Q335 438 346 438Q357 438 366.0 438.0Q375 438 380 439Q378 425 376.5 411.5Q375 398 373 384L364 329Q359 328 351.0 328.0Q343 328 332 328Q321 327 309.0 327.0Q297 327 286 326Q273 325 259.0 325.0Q245 325 229 324L195 140L341 163L331 49Z"/></g>
        <g transform="translate(6586, 0)"><path d="M60 -5Q46 -5 32.0 -3.5Q18 -2 4 0L57 269Q67 324 78.5 385.5Q90 447 101.0 507.5Q112 568 120.5 620.0Q129 672 134 708Q177 716 221.0 723.0Q265 730 311 730Q385 730 428.0 699.5Q471 669 490.0 619.5Q509 570 509 511Q509 458 494.0 399.5Q479 341 451.5 283.5Q424 226 386 175Q327 96 242.5 45.5Q158 -5 60 -5ZM179 121Q214 144 245.5 191.0Q277 238 305 304Q330 365 344.0 419.5Q358 474 358 510Q358 547 337.5 568.0Q317 589 273 589Q257 503 240.5 430.0Q224 357 208.5 283.0Q193 209 179 121Z"/></g>
        <g transform="translate(7027, 0)"><path d="M68 -4Q31 -4 -1 2Q47 177 75.5 354.5Q104 532 130 712Q182 723 238.0 731.5Q294 740 354 740Q387 740 424.0 728.5Q461 717 486.5 687.5Q512 658 512 604Q512 554 491.0 512.0Q470 470 438.0 440.0Q406 410 372 397Q386 390 405.0 372.0Q424 354 438.0 324.0Q452 294 452 251Q452 191 416.5 142.5Q381 94 322 62Q265 30 199.0 13.0Q133 -4 68 -4ZM246 479Q277 485 305.0 495.0Q333 505 350.5 518.0Q368 531 368 546Q368 565 353.0 576.0Q338 587 317.0 592.0Q296 597 278 597H268Q261 557 255.0 527.5Q249 498 246 479ZM195 198Q215 200 239.0 205.0Q263 210 285.0 220.5Q307 231 321.5 248.5Q336 266 336 291Q336 315 320.0 329.0Q304 343 281.5 349.5Q259 356 239 356H231Q226 356 223 355Q217 318 209.0 277.0Q201 236 195 198Z"/></g>
        <g transform="translate(7455, 0)"><path d="M259 2Q261 19 263.0 35.0Q265 51 267 67L273 123Q274 137 275.0 149.0Q276 161 277 171H190L150 27Q128 24 98.0 20.5Q68 17 42 14Q26 12 10.5 10.0Q-5 8 -21 6L58 268Q72 315 90.0 375.0Q108 435 126.5 498.0Q145 561 161.5 616.5Q178 672 188 710Q256 715 326.5 722.0Q397 729 464 741Q459 685 454.5 614.5Q450 544 446.5 469.0Q443 394 439 321Q437 252 434.0 178.5Q431 105 428 28Q413 26 398.0 24.0Q383 22 368 20Q343 16 313.0 11.0Q283 6 259 2ZM214 271Q220 271 236.5 272.0Q253 273 268.0 274.0Q283 275 286 275Q286 288 290.0 328.0Q294 368 298 412Q300 438 302.5 465.5Q305 493 308 522L314 609L299 608L276 522Z"/></g>
        <g transform="translate(7888, 0)"><path d="M182 -2Q119 -2 79.0 57.0Q39 116 39 219Q39 313 65.0 404.5Q91 496 138 569Q185 642 249.5 686.5Q314 731 392 731Q441 731 476.0 693.0Q511 655 511 591V579Q511 575 511.0 572.0Q511 569 510 565L379 530Q367 555 351 555Q327 555 300.5 516.0Q274 477 250 423Q234 387 221.5 349.0Q209 311 202.0 278.0Q195 245 195 224Q195 193 204 179Q211 166 226 166Q241 166 259.0 180.5Q277 195 292.5 217.0Q308 239 313 261L427 215Q378 103 310.5 50.5Q243 -2 182 -2Z"/></g>
        <g transform="translate(8302, 0)"><path d="M7 -1Q22 69 36.0 137.0Q50 205 63 271Q84 390 104.0 506.5Q124 623 133 729L185 726Q199 725 212.5 724.0Q226 723 239 722Q254 721 269.0 720.5Q284 720 299 720Q297 712 292.5 688.0Q288 664 283.5 639.5Q279 615 277 606L259 507L265 508Q294 553 332.0 612.0Q370 671 403 725Q453 729 503.0 734.0Q553 739 603 747Q580 716 557.0 685.0Q534 654 512 623Q489 591 462.0 553.0Q435 515 410.5 478.5Q386 442 370 416Q381 366 394.0 317.0Q407 268 422 221Q437 174 452.0 126.0Q467 78 483 29Q460 30 436.0 30.5Q412 31 389 31Q360 31 333.0 30.5Q306 30 277 29Q273 61 268.0 95.5Q263 130 258 166Q253 201 248.0 235.5Q243 270 238 302L220 281Q213 252 205 207Q201 185 196.5 163.5Q192 142 188 122Q184 98 179.0 73.5Q174 49 169 23Z"/></g>
  </g>
  <!-- Fill layer -->
  <g transform="translate(8, 40) scale(0.037, -0.037)" 
     fill="#FFFFFF" stroke="none">
    <g transform="translate(0, 0)"><path d="M165 -18Q135 -18 104.0 -5.0Q73 8 52.0 35.0Q31 62 31 104V112Q31 117 32 120Q35 146 40.5 188.0Q46 230 54.0 279.5Q62 329 70.5 378.0Q79 427 86 467Q101 547 110.0 596.0Q119 645 124.5 671.5Q130 698 133 711L298 727Q285 666 273.5 611.5Q262 557 252 508L206 287Q200 262 197 245Q193 229 188.5 204.5Q184 180 184 160Q184 144 192.0 133.5Q200 123 212 123Q229 123 240.0 136.0Q251 149 258.0 168.0Q265 187 269.0 206.5Q273 226 276 238Q286 284 294.5 327.5Q303 371 312.5 420.0Q322 469 334 533Q342 577 350.5 622.5Q359 668 367 715L519 725L484 532Q477 495 468.5 449.0Q460 403 450.0 356.0Q440 309 431.5 267.0Q423 225 416 195Q396 113 354.0 66.5Q312 20 261.5 1.0Q211 -18 165 -18Z"/></g>
        <g transform="translate(419, 0)"><path d="M5 -5Q35 139 62 274Q84 401 105.0 518.0Q126 635 135 733Q142 732 147.5 732.0Q153 732 157 732H178Q204 732 236.0 733.5Q268 735 295 736Q302 701 308.5 667.0Q315 633 320 601Q325 573 331.0 543.5Q337 514 343 484Q348 454 353.5 428.5Q359 403 363 382Q375 441 385.5 498.0Q396 555 406 601L435 735L557 750Q540 674 525.0 601.0Q510 528 497 460Q472 338 453.0 230.0Q434 122 424 42Q435 42 420.5 39.5Q406 37 378.0 32.5Q350 28 318.0 21.0Q286 14 261 4Q258 44 255.0 82.0Q252 120 248 156Q242 220 234.0 283.0Q226 346 218 383Q211 339 201.0 282.5Q191 226 179 169L151 29Z"/></g>
        <g transform="translate(871, 0)"><path d="M60 -5Q46 -5 32.0 -3.5Q18 -2 4 0L57 269Q67 324 78.5 385.5Q90 447 101.0 507.5Q112 568 120.5 620.0Q129 672 134 708Q177 716 221.0 723.0Q265 730 311 730Q385 730 428.0 699.5Q471 669 490.0 619.5Q509 570 509 511Q509 458 494.0 399.5Q479 341 451.5 283.5Q424 226 386 175Q327 96 242.5 45.5Q158 -5 60 -5ZM179 121Q214 144 245.5 191.0Q277 238 305 304Q330 365 344.0 419.5Q358 474 358 510Q358 547 337.5 568.0Q317 589 273 589Q257 503 240.5 430.0Q224 357 208.5 283.0Q193 209 179 121Z"/></g>
        <g transform="translate(1312, 0)"><path d="M8 -1 139 710 455 737Q448 715 443 692Q438 673 433.5 652.5Q429 632 426 616Q413 615 389.0 614.5Q365 614 340.0 613.5Q315 613 297.0 613.0Q279 613 278 613L243 434L301 437Q312 438 323.5 438.0Q335 438 346 438Q357 438 366.0 438.0Q375 438 380 439Q378 425 376.5 411.5Q375 398 373 384L364 329Q359 328 351.0 328.0Q343 328 332 328Q321 327 309.0 327.0Q297 327 286 326Q273 325 259.0 325.0Q245 325 229 324L195 140L341 163L331 49Z"/></g>
        <g transform="translate(1653, 0)"><path d="M4 -1 56 259Q68 331 82.0 407.0Q96 483 108.5 557.0Q121 631 128 696Q185 714 251.0 722.5Q317 731 382 731Q458 731 485.5 698.0Q513 665 513 609Q513 558 489.0 506.5Q465 455 426.5 413.5Q388 372 342 348Q360 308 380.5 260.5Q401 213 419 170Q429 145 439.5 120.0Q450 95 460 70L305 16L269 136Q254 186 241.5 232.5Q229 279 227 298L214 294Q211 278 207.5 259.5Q204 241 200 219Q196 197 192.0 176.5Q188 156 184 136L166 41ZM239 433Q257 435 283.5 448.5Q310 462 336.5 482.0Q363 502 381.0 523.0Q399 544 399 560Q399 580 375.5 586.5Q352 593 314 593H292Q286 592 281.0 592.0Q276 592 271 592Z"/></g>
        <g transform="translate(2097, 0)"><path d="M171 -2Q131 -2 91.0 19.5Q51 41 14 88L88 233Q99 214 120.5 197.0Q142 180 166.0 170.0Q190 160 207 160Q233 160 256.5 176.0Q280 192 280 219Q280 254 248.0 283.0Q216 312 176 340Q137 368 104.5 403.5Q72 439 72 485Q72 537 102.0 581.5Q132 626 180.0 659.5Q228 693 282.5 711.5Q337 730 386 730Q421 730 451.0 718.5Q481 707 499.0 681.0Q517 655 517 611Q517 604 516.5 597.0Q516 590 515 583Q514 576 512.5 568.5Q511 561 510 553L365 511Q367 519 368.5 527.0Q370 535 370 543Q370 573 359.5 586.5Q349 600 332 600Q323 600 306.0 590.5Q289 581 275.5 564.5Q262 548 262 528Q262 495 289.5 473.5Q317 452 353 430Q370 420 391.0 398.5Q412 377 427.5 340.5Q443 304 443 247Q443 173 406.5 117.0Q370 61 308.0 29.5Q246 -2 171 -2Z"/></g>
        <g transform="translate(2527, 0)"><path d="M90 -1Q101 54 112.5 108.5Q124 163 134 216Q172 406 196 580Q185 582 173.0 582.5Q161 583 150 582Q126 580 103 588Q104 596 104.0 605.5Q104 615 104 625Q104 636 104.0 646.5Q104 657 105 667Q106 678 106.0 690.5Q106 703 107 716Q133 714 159.0 713.0Q185 712 211 712Q285 712 352.5 717.0Q420 722 477 729L466 675L457 628Q452 602 448 587Q437 584 426.0 582.0Q415 580 404 579Q393 578 381.5 576.0Q370 574 359 572Q344 498 334.5 444.0Q325 390 317.5 340.5Q310 291 300 232Q283 131 270 27Z"/></g>
        <g transform="translate(2889, 0)"><path d="M259 2Q261 19 263.0 35.0Q265 51 267 67L273 123Q274 137 275.0 149.0Q276 161 277 171H190L150 27Q128 24 98.0 20.5Q68 17 42 14Q26 12 10.5 10.0Q-5 8 -21 6L58 268Q72 315 90.0 375.0Q108 435 126.5 498.0Q145 561 161.5 616.5Q178 672 188 710Q256 715 326.5 722.0Q397 729 464 741Q459 685 454.5 614.5Q450 544 446.5 469.0Q443 394 439 321Q437 252 434.0 178.5Q431 105 428 28Q413 26 398.0 24.0Q383 22 368 20Q343 16 313.0 11.0Q283 6 259 2ZM214 271Q220 271 236.5 272.0Q253 273 268.0 274.0Q283 275 286 275Q286 288 290.0 328.0Q294 368 298 412Q300 438 302.5 465.5Q305 493 308 522L314 609L299 608L276 522Z"/></g>
        <g transform="translate(3322, 0)"><path d="M5 -5Q35 139 62 274Q84 401 105.0 518.0Q126 635 135 733Q142 732 147.5 732.0Q153 732 157 732H178Q204 732 236.0 733.5Q268 735 295 736Q302 701 308.5 667.0Q315 633 320 601Q325 573 331.0 543.5Q337 514 343 484Q348 454 353.5 428.5Q359 403 363 382Q375 441 385.5 498.0Q396 555 406 601L435 735L557 750Q540 674 525.0 601.0Q510 528 497 460Q472 338 453.0 230.0Q434 122 424 42Q435 42 420.5 39.5Q406 37 378.0 32.5Q350 28 318.0 21.0Q286 14 261 4Q258 44 255.0 82.0Q252 120 248 156Q242 220 234.0 283.0Q226 346 218 383Q211 339 201.0 282.5Q191 226 179 169L151 29Z"/></g>
        <g transform="translate(3774, 0)"><path d="M60 -5Q46 -5 32.0 -3.5Q18 -2 4 0L57 269Q67 324 78.5 385.5Q90 447 101.0 507.5Q112 568 120.5 620.0Q129 672 134 708Q177 716 221.0 723.0Q265 730 311 730Q385 730 428.0 699.5Q471 669 490.0 619.5Q509 570 509 511Q509 458 494.0 399.5Q479 341 451.5 283.5Q424 226 386 175Q327 96 242.5 45.5Q158 -5 60 -5ZM179 121Q214 144 245.5 191.0Q277 238 305 304Q330 365 344.0 419.5Q358 474 358 510Q358 547 337.5 568.0Q317 589 273 589Q257 503 240.5 430.0Q224 357 208.5 283.0Q193 209 179 121Z"/></g>
        <g transform="translate(4215, 0)"><path d="M5 1Q19 59 33.0 132.5Q47 206 61.0 285.0Q75 364 87 437Q98 501 108.5 567.0Q119 633 129 700L285 725L240 462Q225 369 213.5 295.0Q202 221 191.5 155.0Q181 89 170 20Q151 20 124.0 17.5Q97 15 70.0 11.5Q43 8 24.5 5.0Q6 2 5 1Z"/></g>
        <g transform="translate(4417, 0)"><path d="M5 -5Q35 139 62 274Q84 401 105.0 518.0Q126 635 135 733Q142 732 147.5 732.0Q153 732 157 732H178Q204 732 236.0 733.5Q268 735 295 736Q302 701 308.5 667.0Q315 633 320 601Q325 573 331.0 543.5Q337 514 343 484Q348 454 353.5 428.5Q359 403 363 382Q375 441 385.5 498.0Q396 555 406 601L435 735L557 750Q540 674 525.0 601.0Q510 528 497 460Q472 338 453.0 230.0Q434 122 424 42Q435 42 420.5 39.5Q406 37 378.0 32.5Q350 28 318.0 21.0Q286 14 261 4Q258 44 255.0 82.0Q252 120 248 156Q242 220 234.0 283.0Q226 346 218 383Q211 339 201.0 282.5Q191 226 179 169L151 29Z"/></g>
        <g transform="translate(4869, 0)"><path d="M223 -24Q186 -24 152.5 -8.0Q119 8 95 41Q70 73 56.0 122.0Q42 171 42 237Q42 366 79.0 462.0Q116 558 173 622Q229 686 293.5 717.0Q358 748 414 748Q468 748 502.0 724.5Q536 701 552.0 662.0Q568 623 568 575L431 549Q422 589 407.0 606.0Q392 623 373 623Q351 623 327.5 599.0Q304 575 281.5 534.5Q259 494 241.0 444.0Q223 394 211.5 341.0Q200 288 198 241Q198 179 216.5 152.5Q235 126 264 126Q292 126 319.5 144.0Q347 162 365.5 192.5Q384 223 385 261L278 245L297 344L389 356Q427 361 469.5 368.0Q512 375 544 381Q537 279 504.5 202.5Q472 126 424.0 76.0Q376 26 323.5 1.0Q271 -24 223 -24Z"/></g>
        <g transform="translate(5563, 0)"><path d="M4 -1Q18 47 31.0 108.5Q44 170 55.5 234.0Q67 298 77.0 353.0Q87 408 93 444Q104 511 114.5 579.5Q125 648 135 719L470 736L441 613H284L253 435Q269 436 283.5 436.0Q298 436 312 436H359Q371 436 380.0 436.0Q389 436 396 437Q395 423 393.0 409.5Q391 396 389 382L380 328Q359 328 319.5 329.5Q280 331 236 332L190 37Q173 34 156.5 31.0Q140 28 123 24Q95 19 62.0 12.0Q29 5 4 -1Z"/></g>
        <g transform="translate(5904, 0)"><path d="M8 -1 139 710 455 737Q448 715 443 692Q438 673 433.5 652.5Q429 632 426 616Q413 615 389.0 614.5Q365 614 340.0 613.5Q315 613 297.0 613.0Q279 613 278 613L243 434L301 437Q312 438 323.5 438.0Q335 438 346 438Q357 438 366.0 438.0Q375 438 380 439Q378 425 376.5 411.5Q375 398 373 384L364 329Q359 328 351.0 328.0Q343 328 332 328Q321 327 309.0 327.0Q297 327 286 326Q273 325 259.0 325.0Q245 325 229 324L195 140L341 163L331 49Z"/></g>
        <g transform="translate(6245, 0)"><path d="M8 -1 139 710 455 737Q448 715 443 692Q438 673 433.5 652.5Q429 632 426 616Q413 615 389.0 614.5Q365 614 340.0 613.5Q315 613 297.0 613.0Q279 613 278 613L243 434L301 437Q312 438 323.5 438.0Q335 438 346 438Q357 438 366.0 438.0Q375 438 380 439Q378 425 376.5 411.5Q375 398 373 384L364 329Q359 328 351.0 328.0Q343 328 332 328Q321 327 309.0 327.0Q297 327 286 326Q273 325 259.0 325.0Q245 325 229 324L195 140L341 163L331 49Z"/></g>
        <g transform="translate(6586, 0)"><path d="M60 -5Q46 -5 32.0 -3.5Q18 -2 4 0L57 269Q67 324 78.5 385.5Q90 447 101.0 507.5Q112 568 120.5 620.0Q129 672 134 708Q177 716 221.0 723.0Q265 730 311 730Q385 730 428.0 699.5Q471 669 490.0 619.5Q509 570 509 511Q509 458 494.0 399.5Q479 341 451.5 283.5Q424 226 386 175Q327 96 242.5 45.5Q158 -5 60 -5ZM179 121Q214 144 245.5 191.0Q277 238 305 304Q330 365 344.0 419.5Q358 474 358 510Q358 547 337.5 568.0Q317 589 273 589Q257 503 240.5 430.0Q224 357 208.5 283.0Q193 209 179 121Z"/></g>
        <g transform="translate(7027, 0)"><path d="M68 -4Q31 -4 -1 2Q47 177 75.5 354.5Q104 532 130 712Q182 723 238.0 731.5Q294 740 354 740Q387 740 424.0 728.5Q461 717 486.5 687.5Q512 658 512 604Q512 554 491.0 512.0Q470 470 438.0 440.0Q406 410 372 397Q386 390 405.0 372.0Q424 354 438.0 324.0Q452 294 452 251Q452 191 416.5 142.5Q381 94 322 62Q265 30 199.0 13.0Q133 -4 68 -4ZM246 479Q277 485 305.0 495.0Q333 505 350.5 518.0Q368 531 368 546Q368 565 353.0 576.0Q338 587 317.0 592.0Q296 597 278 597H268Q261 557 255.0 527.5Q249 498 246 479ZM195 198Q215 200 239.0 205.0Q263 210 285.0 220.5Q307 231 321.5 248.5Q336 266 336 291Q336 315 320.0 329.0Q304 343 281.5 349.5Q259 356 239 356H231Q226 356 223 355Q217 318 209.0 277.0Q201 236 195 198Z"/></g>
        <g transform="translate(7455, 0)"><path d="M259 2Q261 19 263.0 35.0Q265 51 267 67L273 123Q274 137 275.0 149.0Q276 161 277 171H190L150 27Q128 24 98.0 20.5Q68 17 42 14Q26 12 10.5 10.0Q-5 8 -21 6L58 268Q72 315 90.0 375.0Q108 435 126.5 498.0Q145 561 161.5 616.5Q178 672 188 710Q256 715 326.5 722.0Q397 729 464 741Q459 685 454.5 614.5Q450 544 446.5 469.0Q443 394 439 321Q437 252 434.0 178.5Q431 105 428 28Q413 26 398.0 24.0Q383 22 368 20Q343 16 313.0 11.0Q283 6 259 2ZM214 271Q220 271 236.5 272.0Q253 273 268.0 274.0Q283 275 286 275Q286 288 290.0 328.0Q294 368 298 412Q300 438 302.5 465.5Q305 493 308 522L314 609L299 608L276 522Z"/></g>
        <g transform="translate(7888, 0)"><path d="M182 -2Q119 -2 79.0 57.0Q39 116 39 219Q39 313 65.0 404.5Q91 496 138 569Q185 642 249.5 686.5Q314 731 392 731Q441 731 476.0 693.0Q511 655 511 591V579Q511 575 511.0 572.0Q511 569 510 565L379 530Q367 555 351 555Q327 555 300.5 516.0Q274 477 250 423Q234 387 221.5 349.0Q209 311 202.0 278.0Q195 245 195 224Q195 193 204 179Q211 166 226 166Q241 166 259.0 180.5Q277 195 292.5 217.0Q308 239 313 261L427 215Q378 103 310.5 50.5Q243 -2 182 -2Z"/></g>
        <g transform="translate(8302, 0)"><path d="M7 -1Q22 69 36.0 137.0Q50 205 63 271Q84 390 104.0 506.5Q124 623 133 729L185 726Q199 725 212.5 724.0Q226 723 239 722Q254 721 269.0 720.5Q284 720 299 720Q297 712 292.5 688.0Q288 664 283.5 639.5Q279 615 277 606L259 507L265 508Q294 553 332.0 612.0Q370 671 403 725Q453 729 503.0 734.0Q553 739 603 747Q580 716 557.0 685.0Q534 654 512 623Q489 591 462.0 553.0Q435 515 410.5 478.5Q386 442 370 416Q381 366 394.0 317.0Q407 268 422 221Q437 174 452.0 126.0Q467 78 483 29Q460 30 436.0 30.5Q412 31 389 31Q360 31 333.0 30.5Q306 30 277 29Q273 61 268.0 95.5Q263 130 258 166Q253 201 248.0 235.5Q243 270 238 302L220 281Q213 252 205 207Q201 185 196.5 163.5Q192 142 188 122Q184 98 179.0 73.5Q174 49 169 23Z"/></g>
  </g>
</svg>