<svg xmlns="http://www.w3.org/2000/svg" viewBox="0 0 273.90799999999996 76" width="273.90799999999996" height="76">
  <path d="M60 -5Q46 -5 32.0 -3.5Q18 -2 4 0L57 269Q67 324 78.5 385.5Q90 447 101.0 507.5Q112 568 120.5 620.0Q129 672 134 708Q177 716 221.0 723.0Q265 730 311 730Q385 730 428.0 699.5Q471 669 490.0 619.5Q509 570 509 511Q509 458 494.0 399.5Q479 341 451.5 283.5Q424 226 386 175Q327 96 242.5 45.5Q158 -5 60 -5ZM179 121Q214 144 245.5 191.0Q277 238 305 304Q330 365 344.0 419.5Q358 474 358 510Q358 547 337.5 568.0Q317 589 273 589Q257 503 240.5 430.0Q224 357 208.5 283.0Q193 209 179 121Z" transform="translate(14, 58) scale(0.052, -0.052)" fill="#000" stroke="#000" stroke-width="50"/>
  <path d="M60 -5Q46 -5 32.0 -3.5Q18 -2 4 0L57 269Q67 324 78.5 385.5Q90 447 101.0 507.5Q112 568 120.5 620.0Q129 672 134 708Q177 716 221.0 723.0Q265 730 311 730Q385 730 428.0 699.5Q471 669 490.0 619.5Q509 570 509 511Q509 458 494.0 399.5Q479 341 451.5 283.5Q424 226 386 175Q327 96 242.5 45.5Q158 -5 60 -5ZM179 121Q214 144 245.5 191.0Q277 238 305 304Q330 365 344.0 419.5Q358 474 358 510Q358 547 337.5 568.0Q317 589 273 589Q257 503 240.5 430.0Q224 357 208.5 283.0Q193 209 179 121Z" transform="translate(10, 54) scale(0.052, -0.052)" fill="#000" stroke="#000" stroke-width="50"/>
  <path d="M60 -5Q46 -5 32.0 -3.5Q18 -2 4 0L57 269Q67 324 78.5 385.5Q90 447 101.0 507.5Q112 568 120.5 620.0Q129 672 134 708Q177 716 221.0 723.0Q265 730 311 730Q385 730 428.0 699.5Q471 669 490.0 619.5Q509 570 509 511Q509 458 494.0 399.5Q479 341 451.5 283.5Q424 226 386 175Q327 96 242.5 45.5Q158 -5 60 -5ZM179 121Q214 144 245.5 191.0Q277 238 305 304Q330 365 344.0 419.5Q358 474 358 510Q358 547 337.5 568.0Q317 589 273 589Q257 503 240.5 430.0Q224 357 208.5 283.0Q193 209 179 121Z" transform="translate(10, 54) scale(0.052, -0.052)" fill="#fff"/>
  <path d="M4 -1 56 259Q68 331 82.0 407.0Q96 483 108.5 557.0Q121 631 128 696Q185 714 251.0 722.5Q317 731 382 731Q458 731 485.5 698.0Q513 665 513 609Q513 558 489.0 506.5Q465 455 426.5 413.5Q388 372 342 348Q360 308 380.5 260.5Q401 213 419 170Q429 145 439.5 120.0Q450 95 460 70L305 16Q295 51 286.0 83.0Q277 115 269 146Q259 183 250.0 217.5Q241 252 234.5 279.0Q228 306 227 317L214 313Q208 281 199.5 235.0Q191 189 184 146L166 41ZM239 433Q257 435 283.5 448.5Q310 462 336.5 482.0Q363 502 381.0 523.0Q399 544 399 560Q399 580 375.5 586.5Q352 593 314 593H292Q286 592 281.0 592.0Q276 592 271 592Z" transform="translate(39.932, 58) scale(0.052, -0.052)" fill="#000" stroke="#000" stroke-width="50"/>
  <path d="M4 -1 56 259Q68 331 82.0 407.0Q96 483 108.5 557.0Q121 631 128 696Q185 714 251.0 722.5Q317 731 382 731Q458 731 485.5 698.0Q513 665 513 609Q513 558 489.0 506.5Q465 455 426.5 413.5Q388 372 342 348Q360 308 380.5 260.5Q401 213 419 170Q429 145 439.5 120.0Q450 95 460 70L305 16Q295 51 286.0 83.0Q277 115 269 146Q259 183 250.0 217.5Q241 252 234.5 279.0Q228 306 227 317L214 313Q208 281 199.5 235.0Q191 189 184 146L166 41ZM239 433Q257 435 283.5 448.5Q310 462 336.5 482.0Q363 502 381.0 523.0Q399 544 399 560Q399 580 375.5 586.5Q352 593 314 593H292Q286 592 281.0 592.0Q276 592 271 592Z" transform="translate(35.932, 54) scale(0.052, -0.052)" fill="#000" stroke="#000" stroke-width="50"/>
  <path d="M4 -1 56 259Q68 331 82.0 407.0Q96 483 108.5 557.0Q121 631 128 696Q185 714 251.0 722.5Q317 731 382 731Q458 731 485.5 698.0Q513 665 513 609Q513 558 489.0 506.5Q465 455 426.5 413.5Q388 372 342 348Q360 308 380.5 260.5Q401 213 419 170Q429 145 439.5 120.0Q450 95 460 70L305 16Q295 51 286.0 83.0Q277 115 269 146Q259 183 250.0 217.5Q241 252 234.5 279.0Q228 306 227 317L214 313Q208 281 199.5 235.0Q191 189 184 146L166 41ZM239 433Q257 435 283.5 448.5Q310 462 336.5 482.0Q363 502 381.0 523.0Q399 544 399 560Q399 580 375.5 586.5Q352 593 314 593H292Q286 592 281.0 592.0Q276 592 271 592Z" transform="translate(35.932, 54) scale(0.052, -0.052)" fill="#fff"/>
  <path d="M181 -4Q115 -4 73.0 47.0Q31 98 31 201Q31 258 45.0 321.0Q59 384 84.0 445.0Q109 506 142 558Q195 642 264.0 695.0Q333 748 409 748Q469 748 501.5 717.5Q534 687 547.0 639.5Q560 592 560 541Q560 422 523.5 319.5Q487 217 429 146Q371 73 305.5 34.5Q240 -4 181 -4ZM235 161Q280 161 314.5 191.0Q349 221 373.0 267.5Q397 314 409.0 365.0Q421 416 421 457Q421 473 418.0 491.5Q415 510 405.0 524.0Q395 538 374 538Q328 538 291.0 504.5Q254 471 229 420Q204 368 192.0 318.0Q180 268 180 227Q180 206 195.0 183.5Q210 161 235 161Z" transform="translate(66.02, 58) scale(0.052, -0.052)" fill="#000" stroke="#000" stroke-width="50"/>
  <path d="M181 -4Q115 -4 73.0 47.0Q31 98 31 201Q31 258 45.0 321.0Q59 384 84.0 445.0Q109 506 142 558Q195 642 264.0 695.0Q333 748 409 748Q469 748 501.5 717.5Q534 687 547.0 639.5Q560 592 560 541Q560 422 523.5 319.5Q487 217 429 146Q371 73 305.5 34.5Q240 -4 181 -4ZM235 161Q280 161 314.5 191.0Q349 221 373.0 267.5Q397 314 409.0 365.0Q421 416 421 457Q421 473 418.0 491.5Q415 510 405.0 524.0Q395 538 374 538Q328 538 291.0 504.5Q254 471 229 420Q204 368 192.0 318.0Q180 268 180 227Q180 206 195.0 183.5Q210 161 235 161Z" transform="translate(62.019999999999996, 54) scale(0.052, -0.052)" fill="#000" stroke="#000" stroke-width="50"/>
  <path d="M181 -4Q115 -4 73.0 47.0Q31 98 31 201Q31 258 45.0 321.0Q59 384 84.0 445.0Q109 506 142 558Q195 642 264.0 695.0Q333 748 409 748Q469 748 501.5 717.5Q534 687 547.0 639.5Q560 592 560 541Q560 422 523.5 319.5Q487 217 429 146Q371 73 305.5 34.5Q240 -4 181 -4ZM235 161Q280 161 314.5 191.0Q349 221 373.0 267.5Q397 314 409.0 365.0Q421 416 421 457Q421 473 418.0 491.5Q415 510 405.0 524.0Q395 538 374 538Q328 538 291.0 504.5Q254 471 229 420Q204 368 192.0 318.0Q180 268 180 227Q180 206 195.0 183.5Q210 161 235 161Z" transform="translate(62.019999999999996, 54) scale(0.052, -0.052)" fill="#fff"/>
  <path d="M-3 -1Q27 134 54 263Q65 315 76.5 374.5Q88 434 100.0 495.0Q112 556 122.0 610.5Q132 665 138 706Q178 718 224.5 728.0Q271 738 308 738Q368 738 403.0 712.5Q438 687 453.0 644.0Q468 601 468 550Q468 494 447.5 442.5Q427 391 392.5 350.0Q358 309 313.5 285.0Q269 261 221 261H210Q202 227 195.0 187.0Q188 147 183 113Q179 93 176.0 73.0Q173 53 170 33ZM230 366Q253 372 276.0 396.5Q299 421 314.0 459.0Q329 497 329 542Q329 579 312.5 598.0Q296 617 276 617Q265 551 254.0 492.0Q243 433 230 366Z" transform="translate(94.65599999999999, 58) scale(0.052, -0.052)" fill="#000" stroke="#000" stroke-width="50"/>
  <path d="M-3 -1Q27 134 54 263Q65 315 76.5 374.5Q88 434 100.0 495.0Q112 556 122.0 610.5Q132 665 138 706Q178 718 224.5 728.0Q271 738 308 738Q368 738 403.0 712.5Q438 687 453.0 644.0Q468 601 468 550Q468 494 447.5 442.5Q427 391 392.5 350.0Q358 309 313.5 285.0Q269 261 221 261H210Q202 227 195.0 187.0Q188 147 183 113Q179 93 176.0 73.0Q173 53 170 33ZM230 366Q253 372 276.0 396.5Q299 421 314.0 459.0Q329 497 329 542Q329 579 312.5 598.0Q296 617 276 617Q265 551 254.0 492.0Q243 433 230 366Z" transform="translate(90.65599999999999, 54) scale(0.052, -0.052)" fill="#000" stroke="#000" stroke-width="50"/>
  <path d="M-3 -1Q27 134 54 263Q65 315 76.5 374.5Q88 434 100.0 495.0Q112 556 122.0 610.5Q132 665 138 706Q178 718 224.5 728.0Q271 738 308 738Q368 738 403.0 712.5Q438 687 453.0 644.0Q468 601 468 550Q468 494 447.5 442.5Q427 391 392.5 350.0Q358 309 313.5 285.0Q269 261 221 261H210Q202 227 195.0 187.0Q188 147 183 113Q179 93 176.0 73.0Q173 53 170 33ZM230 366Q253 372 276.0 396.5Q299 421 314.0 459.0Q329 497 329 542Q329 579 312.5 598.0Q296 617 276 617Q265 551 254.0 492.0Q243 433 230 366Z" transform="translate(90.65599999999999, 54) scale(0.052, -0.052)" fill="#fff"/>
  <path d="M-3 -1Q27 134 54 263Q65 315 76.5 374.5Q88 434 100.0 495.0Q112 556 122.0 610.5Q132 665 138 706Q178 718 224.5 728.0Q271 738 308 738Q368 738 403.0 712.5Q438 687 453.0 644.0Q468 601 468 550Q468 494 447.5 442.5Q427 391 392.5 350.0Q358 309 313.5 285.0Q269 261 221 261H210Q202 227 195.0 187.0Q188 147 183 113Q179 93 176.0 73.0Q173 53 170 33ZM230 366Q253 372 276.0 396.5Q299 421 314.0 459.0Q329 497 329 542Q329 579 312.5 598.0Q296 617 276 617Q265 551 254.0 492.0Q243 433 230 366Z" transform="translate(132.964, 58) scale(0.052, -0.052)" fill="#000" stroke="#000" stroke-width="50"/>
  <path d="M-3 -1Q27 134 54 263Q65 315 76.5 374.5Q88 434 100.0 495.0Q112 556 122.0 610.5Q132 665 138 706Q178 718 224.5 728.0Q271 738 308 738Q368 738 403.0 712.5Q438 687 453.0 644.0Q468 601 468 550Q468 494 447.5 442.5Q427 391 392.5 350.0Q358 309 313.5 285.0Q269 261 221 261H210Q202 227 195.0 187.0Q188 147 183 113Q179 93 176.0 73.0Q173 53 170 33ZM230 366Q253 372 276.0 396.5Q299 421 314.0 459.0Q329 497 329 542Q329 579 312.5 598.0Q296 617 276 617Q265 551 254.0 492.0Q243 433 230 366Z" transform="translate(128.964, 54) scale(0.052, -0.052)" fill="#000" stroke="#000" stroke-width="50"/>
  <path d="M-3 -1Q27 134 54 263Q65 315 76.5 374.5Q88 434 100.0 495.0Q112 556 122.0 610.5Q132 665 138 706Q178 718 224.5 728.0Q271 738 308 738Q368 738 403.0 712.5Q438 687 453.0 644.0Q468 601 468 550Q468 494 447.5 442.5Q427 391 392.5 350.0Q358 309 313.5 285.0Q269 261 221 261H210Q202 227 195.0 187.0Q188 147 183 113Q179 93 176.0 73.0Q173 53 170 33ZM230 366Q253 372 276.0 396.5Q299 421 314.0 459.0Q329 497 329 542Q329 579 312.5 598.0Q296 617 276 617Q265 551 254.0 492.0Q243 433 230 366Z" transform="translate(128.964, 54) scale(0.052, -0.052)" fill="#fff"/>
  <path d="M181 -4Q115 -4 73.0 47.0Q31 98 31 201Q31 258 45.0 321.0Q59 384 84.0 445.0Q109 506 142 558Q195 642 264.0 695.0Q333 748 409 748Q469 748 501.5 717.5Q534 687 547.0 639.5Q560 592 560 541Q560 422 523.5 319.5Q487 217 429 146Q371 73 305.5 34.5Q240 -4 181 -4ZM235 161Q280 161 314.5 191.0Q349 221 373.0 267.5Q397 314 409.0 365.0Q421 416 421 457Q421 473 418.0 491.5Q415 510 405.0 524.0Q395 538 374 538Q328 538 291.0 504.5Q254 471 229 420Q204 368 192.0 318.0Q180 268 180 227Q180 206 195.0 183.5Q210 161 235 161Z" transform="translate(155.672, 58) scale(0.052, -0.052)" fill="#000" stroke="#000" stroke-width="50"/>
  <path d="M181 -4Q115 -4 73.0 47.0Q31 98 31 201Q31 258 45.0 321.0Q59 384 84.0 445.0Q109 506 142 558Q195 642 264.0 695.0Q333 748 409 748Q469 748 501.5 717.5Q534 687 547.0 639.5Q560 592 560 541Q560 422 523.5 319.5Q487 217 429 146Q371 73 305.5 34.5Q240 -4 181 -4ZM235 161Q280 161 314.5 191.0Q349 221 373.0 267.5Q397 314 409.0 365.0Q421 416 421 457Q421 473 418.0 491.5Q415 510 405.0 524.0Q395 538 374 538Q328 538 291.0 504.5Q254 471 229 420Q204 368 192.0 318.0Q180 268 180 227Q180 206 195.0 183.5Q210 161 235 161Z" transform="translate(151.672, 54) scale(0.052, -0.052)" fill="#000" stroke="#000" stroke-width="50"/>
  <path d="M181 -4Q115 -4 73.0 47.0Q31 98 31 201Q31 258 45.0 321.0Q59 384 84.0 445.0Q109 506 142 558Q195 642 264.0 695.0Q333 748 409 748Q469 748 501.5 717.5Q534 687 547.0 639.5Q560 592 560 541Q560 422 523.5 319.5Q487 217 429 146Q371 73 305.5 34.5Q240 -4 181 -4ZM235 161Q280 161 314.5 191.0Q349 221 373.0 267.5Q397 314 409.0 365.0Q421 416 421 457Q421 473 418.0 491.5Q415 510 405.0 524.0Q395 538 374 538Q328 538 291.0 504.5Q254 471 229 420Q204 368 192.0 318.0Q180 268 180 227Q180 206 195.0 183.5Q210 161 235 161Z" transform="translate(151.672, 54) scale(0.052, -0.052)" fill="#fff"/>
  <path d="M12 -2Q23 77 35.5 157.0Q48 237 61.5 311.5Q75 386 87 446Q100 511 113.0 578.0Q126 645 140 713L315 736L263 510Q249 451 234.5 383.5Q220 316 208.0 253.0Q196 190 189 141Q214 143 242.5 143.5Q271 144 293 144Q294 121 297.0 95.5Q300 70 303.5 51.5Q307 33 307 31Q303 31 299.5 31.0Q296 31 292 32H276Q237 32 189.5 28.5Q142 25 95.5 17.5Q49 10 12 -2Z" transform="translate(184.308, 58) scale(0.052, -0.052)" fill="#000" stroke="#000" stroke-width="50"/>
  <path d="M12 -2Q23 77 35.5 157.0Q48 237 61.5 311.5Q75 386 87 446Q100 511 113.0 578.0Q126 645 140 713L315 736L263 510Q249 451 234.5 383.5Q220 316 208.0 253.0Q196 190 189 141Q214 143 242.5 143.5Q271 144 293 144Q294 121 297.0 95.5Q300 70 303.5 51.5Q307 33 307 31Q303 31 299.5 31.0Q296 31 292 32H276Q237 32 189.5 28.5Q142 25 95.5 17.5Q49 10 12 -2Z" transform="translate(180.308, 54) scale(0.052, -0.052)" fill="#000" stroke="#000" stroke-width="50"/>
  <path d="M12 -2Q23 77 35.5 157.0Q48 237 61.5 311.5Q75 386 87 446Q100 511 113.0 578.0Q126 645 140 713L315 736L263 510Q249 451 234.5 383.5Q220 316 208.0 253.0Q196 190 189 141Q214 143 242.5 143.5Q271 144 293 144Q294 121 297.0 95.5Q300 70 303.5 51.5Q307 33 307 31Q303 31 299.5 31.0Q296 31 292 32H276Q237 32 189.5 28.5Q142 25 95.5 17.5Q49 10 12 -2Z" transform="translate(180.308, 54) scale(0.052, -0.052)" fill="#fff"/>
  <path d="M-6 1Q11 60 27.5 135.0Q44 210 59.5 288.5Q75 367 89 437Q102 501 114.0 567.0Q126 633 138 700L294 725Q281 658 268.0 592.5Q255 527 242 462Q228 392 213.0 314.0Q198 236 184.0 160.5Q170 85 158 20Q140 20 113.0 17.5Q86 15 59.0 11.5Q32 8 13.5 5.0Q-5 2 -6 1Z" transform="translate(203.012, 58) scale(0.052, -0.052)" fill="#000" stroke="#000" stroke-width="50"/>
  <path d="M-6 1Q11 60 27.5 135.0Q44 210 59.5 288.5Q75 367 89 437Q102 501 114.0 567.0Q126 633 138 700L294 725Q281 658 268.0 592.5Q255 527 242 462Q228 392 213.0 314.0Q198 236 184.0 160.5Q170 85 158 20Q140 20 113.0 17.5Q86 15 59.0 11.5Q32 8 13.5 5.0Q-5 2 -6 1Z" transform="translate(199.012, 54) scale(0.052, -0.052)" fill="#000" stroke="#000" stroke-width="50"/>
  <path d="M-6 1Q11 60 27.5 135.0Q44 210 59.5 288.5Q75 367 89 437Q102 501 114.0 567.0Q126 633 138 700L294 725Q281 658 268.0 592.5Q255 527 242 462Q228 392 213.0 314.0Q198 236 184.0 160.5Q170 85 158 20Q140 20 113.0 17.5Q86 15 59.0 11.5Q32 8 13.5 5.0Q-5 2 -6 1Z" transform="translate(199.012, 54) scale(0.052, -0.052)" fill="#fff"/>
  <path d="M182 -2Q119 -2 79.0 57.0Q39 116 39 219Q39 313 65.0 404.5Q91 496 138 569Q185 642 249.5 686.5Q314 731 392 731Q441 731 476.0 693.0Q511 655 511 591V579Q511 575 511.0 572.0Q511 569 510 565L379 530Q367 555 351 555Q327 555 300.5 516.0Q274 477 250 423Q234 387 221.5 349.0Q209 311 202.0 278.0Q195 245 195 224Q195 193 204 179Q211 166 226 166Q241 166 259.0 180.5Q277 195 292.5 217.0Q308 239 313 261L427 215Q378 103 310.5 50.5Q243 -2 182 -2Z" transform="translate(216.412, 58) scale(0.052, -0.052)" fill="#000" stroke="#000" stroke-width="50"/>
  <path d="M182 -2Q119 -2 79.0 57.0Q39 116 39 219Q39 313 65.0 404.5Q91 496 138 569Q185 642 249.5 686.5Q314 731 392 731Q441 731 476.0 693.0Q511 655 511 591V579Q511 575 511.0 572.0Q511 569 510 565L379 530Q367 555 351 555Q327 555 300.5 516.0Q274 477 250 423Q234 387 221.5 349.0Q209 311 202.0 278.0Q195 245 195 224Q195 193 204 179Q211 166 226 166Q241 166 259.0 180.5Q277 195 292.5 217.0Q308 239 313 261L427 215Q378 103 310.5 50.5Q243 -2 182 -2Z" transform="translate(212.412, 54) scale(0.052, -0.052)" fill="#000" stroke="#000" stroke-width="50"/>
  <path d="M182 -2Q119 -2 79.0 57.0Q39 116 39 219Q39 313 65.0 404.5Q91 496 138 569Q185 642 249.5 686.5Q314 731 392 731Q441 731 476.0 693.0Q511 655 511 591V579Q511 575 511.0 572.0Q511 569 510 565L379 530Q367 555 351 555Q327 555 300.5 516.0Q274 477 250 423Q234 387 221.5 349.0Q209 311 202.0 278.0Q195 245 195 224Q195 193 204 179Q211 166 226 166Q241 166 259.0 180.5Q277 195 292.5 217.0Q308 239 313 261L427 215Q378 103 310.5 50.5Q243 -2 182 -2Z" transform="translate(212.412, 54) scale(0.052, -0.052)" fill="#fff"/>
  <path d="M77 15 123 216Q123 287 119.5 361.5Q116 436 111 510Q107 584 103.5 629.0Q100 674 100 674L263 736V614Q263 556 262.5 509.5Q262 463 262 428Q275 462 293.5 512.0Q312 562 328 609Q338 637 347.5 665.5Q357 694 367 725L522 690Q479 605 438 519Q414 466 385.5 407.5Q357 349 332.5 298.5Q308 248 294 218Q289 192 281.5 161.0Q274 130 267 102Q263 86 258.0 69.5Q253 53 248 36Z" transform="translate(240.94, 58) scale(0.052, -0.052)" fill="#000" stroke="#000" stroke-width="50"/>
  <path d="M77 15 123 216Q123 287 119.5 361.5Q116 436 111 510Q107 584 103.5 629.0Q100 674 100 674L263 736V614Q263 556 262.5 509.5Q262 463 262 428Q275 462 293.5 512.0Q312 562 328 609Q338 637 347.5 665.5Q357 694 367 725L522 690Q479 605 438 519Q414 466 385.5 407.5Q357 349 332.5 298.5Q308 248 294 218Q289 192 281.5 161.0Q274 130 267 102Q263 86 258.0 69.5Q253 53 248 36Z" transform="translate(236.94, 54) scale(0.052, -0.052)" fill="#000" stroke="#000" stroke-width="50"/>
  <path d="M77 15 123 216Q123 287 119.5 361.5Q116 436 111 510Q107 584 103.5 629.0Q100 674 100 674L263 736V614Q263 556 262.5 509.5Q262 463 262 428Q275 462 293.5 512.0Q312 562 328 609Q338 637 347.5 665.5Q357 694 367 725L522 690Q479 605 438 519Q414 466 385.5 407.5Q357 349 332.5 298.5Q308 248 294 218Q289 192 281.5 161.0Q274 130 267 102Q263 86 258.0 69.5Q253 53 248 36Z" transform="translate(236.94, 54) scale(0.052, -0.052)" fill="#fff"/>
</svg>