<svg xmlns="http://www.w3.org/2000/svg" viewBox="0 0 374.812 76" width="374.812" height="76">
  <path d="M259 2Q261 19 263.0 35.0Q265 51 267 67L273 123Q274 137 275.0 149.0Q276 161 277 171H190L150 27Q128 24 98.0 20.5Q68 17 42 14Q26 12 10.5 10.0Q-5 8 -21 6L58 268Q72 315 90.0 375.0Q108 435 126.5 498.0Q145 561 161.5 616.5Q178 672 188 710Q256 715 326.5 722.0Q397 729 464 741Q459 685 454.5 614.5Q450 544 446.5 469.0Q443 394 439 321Q437 252 434.0 178.5Q431 105 428 28Q413 26 398.0 24.0Q383 22 368 20Q343 16 313.0 11.0Q283 6 259 2ZM214 271Q220 271 236.5 272.0Q253 273 268.0 274.0Q283 275 286 275Q286 288 290.0 328.0Q294 368 298 412Q300 438 302.5 465.5Q305 493 308 522L314 609L299 608L276 522Z" transform="translate(14, 58) scale(0.052, -0.052)" fill="#000" stroke="#000" stroke-width="50"/>
  <path d="M259 2Q261 19 263.0 35.0Q265 51 267 67L273 123Q274 137 275.0 149.0Q276 161 277 171H190L150 27Q128 24 98.0 20.5Q68 17 42 14Q26 12 10.5 10.0Q-5 8 -21 6L58 268Q72 315 90.0 375.0Q108 435 126.5 498.0Q145 561 161.5 616.5Q178 672 188 710Q256 715 326.5 722.0Q397 729 464 741Q459 685 454.5 614.5Q450 544 446.5 469.0Q443 394 439 321Q437 252 434.0 178.5Q431 105 428 28Q413 26 398.0 24.0Q383 22 368 20Q343 16 313.0 11.0Q283 6 259 2ZM214 271Q220 271 236.5 272.0Q253 273 268.0 274.0Q283 275 286 275Q286 288 290.0 328.0Q294 368 298 412Q300 438 302.5 465.5Q305 493 308 522L314 609L299 608L276 522Z" transform="translate(10, 54) scale(0.052, -0.052)" fill="#000" stroke="#000" stroke-width="50"/>
  <path d="M259 2Q261 19 263.0 35.0Q265 51 267 67L273 123Q274 137 275.0 149.0Q276 161 277 171H190L150 27Q128 24 98.0 20.5Q68 17 42 14Q26 12 10.5 10.0Q-5 8 -21 6L58 268Q72 315 90.0 375.0Q108 435 126.5 498.0Q145 561 161.5 616.5Q178 672 188 710Q256 715 326.5 722.0Q397 729 464 741Q459 685 454.5 614.5Q450 544 446.5 469.0Q443 394 439 321Q437 252 434.0 178.5Q431 105 428 28Q413 26 398.0 24.0Q383 22 368 20Q343 16 313.0 11.0Q283 6 259 2ZM214 271Q220 271 236.5 272.0Q253 273 268.0 274.0Q283 275 286 275Q286 288 290.0 328.0Q294 368 298 412Q300 438 302.5 465.5Q305 493 308 522L314 609L299 608L276 522Z" transform="translate(10, 54) scale(0.052, -0.052)" fill="#fff"/>
  <path d="M59 -9Q66 61 72.0 130.0Q78 199 83 266Q94 388 100.5 506.0Q107 624 109 727Q187 727 226.0 730.5Q265 734 265 734Q260 676 255.0 628.5Q250 581 246 544L234 423Q229 368 225.5 330.0Q222 292 219.0 260.0Q216 228 211 190H229L341 722L396 725Q409 726 422.0 726.5Q435 727 449 728Q463 729 475.5 730.0Q488 731 499 732Q480 673 460.5 600.0Q441 527 421.5 449.0Q402 371 382 295Q366 231 350.0 164.5Q334 98 318 30Z" transform="translate(39.516, 58) scale(0.052, -0.052)" fill="#000" stroke="#000" stroke-width="50"/>
  <path d="M59 -9Q66 61 72.0 130.0Q78 199 83 266Q94 388 100.5 506.0Q107 624 109 727Q187 727 226.0 730.5Q265 734 265 734Q260 676 255.0 628.5Q250 581 246 544L234 423Q229 368 225.5 330.0Q222 292 219.0 260.0Q216 228 211 190H229L341 722L396 725Q409 726 422.0 726.5Q435 727 449 728Q463 729 475.5 730.0Q488 731 499 732Q480 673 460.5 600.0Q441 527 421.5 449.0Q402 371 382 295Q366 231 350.0 164.5Q334 98 318 30Z" transform="translate(35.516, 54) scale(0.052, -0.052)" fill="#000" stroke="#000" stroke-width="50"/>
  <path d="M59 -9Q66 61 72.0 130.0Q78 199 83 266Q94 388 100.5 506.0Q107 624 109 727Q187 727 226.0 730.5Q265 734 265 734Q260 676 255.0 628.5Q250 581 246 544L234 423Q229 368 225.5 330.0Q222 292 219.0 260.0Q216 228 211 190H229L341 722L396 725Q409 726 422.0 726.5Q435 727 449 728Q463 729 475.5 730.0Q488 731 499 732Q480 673 460.5 600.0Q441 527 421.5 449.0Q402 371 382 295Q366 231 350.0 164.5Q334 98 318 30Z" transform="translate(35.516, 54) scale(0.052, -0.052)" fill="#fff"/>
  <path d="M259 2Q261 19 263.0 35.0Q265 51 267 67L273 123Q274 137 275.0 149.0Q276 161 277 171H190L150 27Q128 24 98.0 20.5Q68 17 42 14Q26 12 10.5 10.0Q-5 8 -21 6L58 268Q72 315 90.0 375.0Q108 435 126.5 498.0Q145 561 161.5 616.5Q178 672 188 710Q256 715 326.5 722.0Q397 729 464 741Q459 685 454.5 614.5Q450 544 446.5 469.0Q443 394 439 321Q437 252 434.0 178.5Q431 105 428 28Q413 26 398.0 24.0Q383 22 368 20Q343 16 313.0 11.0Q283 6 259 2ZM214 271Q220 271 236.5 272.0Q253 273 268.0 274.0Q283 275 286 275Q286 288 290.0 328.0Q294 368 298 412Q300 438 302.5 465.5Q305 493 308 522L314 609L299 608L276 522Z" transform="translate(62.224, 58) scale(0.052, -0.052)" fill="#000" stroke="#000" stroke-width="50"/>
  <path d="M259 2Q261 19 263.0 35.0Q265 51 267 67L273 123Q274 137 275.0 149.0Q276 161 277 171H190L150 27Q128 24 98.0 20.5Q68 17 42 14Q26 12 10.5 10.0Q-5 8 -21 6L58 268Q72 315 90.0 375.0Q108 435 126.5 498.0Q145 561 161.5 616.5Q178 672 188 710Q256 715 326.5 722.0Q397 729 464 741Q459 685 454.5 614.5Q450 544 446.5 469.0Q443 394 439 321Q437 252 434.0 178.5Q431 105 428 28Q413 26 398.0 24.0Q383 22 368 20Q343 16 313.0 11.0Q283 6 259 2ZM214 271Q220 271 236.5 272.0Q253 273 268.0 274.0Q283 275 286 275Q286 288 290.0 328.0Q294 368 298 412Q300 438 302.5 465.5Q305 493 308 522L314 609L299 608L276 522Z" transform="translate(58.224, 54) scale(0.052, -0.052)" fill="#000" stroke="#000" stroke-width="50"/>
  <path d="M259 2Q261 19 263.0 35.0Q265 51 267 67L273 123Q274 137 275.0 149.0Q276 161 277 171H190L150 27Q128 24 98.0 20.5Q68 17 42 14Q26 12 10.5 10.0Q-5 8 -21 6L58 268Q72 315 90.0 375.0Q108 435 126.5 498.0Q145 561 161.5 616.5Q178 672 188 710Q256 715 326.5 722.0Q397 729 464 741Q459 685 454.5 614.5Q450 544 446.5 469.0Q443 394 439 321Q437 252 434.0 178.5Q431 105 428 28Q413 26 398.0 24.0Q383 22 368 20Q343 16 313.0 11.0Q283 6 259 2ZM214 271Q220 271 236.5 272.0Q253 273 268.0 274.0Q283 275 286 275Q286 288 290.0 328.0Q294 368 298 412Q300 438 302.5 465.5Q305 493 308 522L314 609L299 608L276 522Z" transform="translate(58.224, 54) scale(0.052, -0.052)" fill="#fff"/>
  <path d="M-6 1Q11 60 27.5 135.0Q44 210 59.5 288.5Q75 367 89 437Q102 501 114.0 567.0Q126 633 138 700L294 725Q281 658 268.0 592.5Q255 527 242 462Q228 392 213.0 314.0Q198 236 184.0 160.5Q170 85 158 20Q140 20 113.0 17.5Q86 15 59.0 11.5Q32 8 13.5 5.0Q-5 2 -6 1Z" transform="translate(87.74, 58) scale(0.052, -0.052)" fill="#000" stroke="#000" stroke-width="50"/>
  <path d="M-6 1Q11 60 27.5 135.0Q44 210 59.5 288.5Q75 367 89 437Q102 501 114.0 567.0Q126 633 138 700L294 725Q281 658 268.0 592.5Q255 527 242 462Q228 392 213.0 314.0Q198 236 184.0 160.5Q170 85 158 20Q140 20 113.0 17.5Q86 15 59.0 11.5Q32 8 13.5 5.0Q-5 2 -6 1Z" transform="translate(83.74, 54) scale(0.052, -0.052)" fill="#000" stroke="#000" stroke-width="50"/>
  <path d="M-6 1Q11 60 27.5 135.0Q44 210 59.5 288.5Q75 367 89 437Q102 501 114.0 567.0Q126 633 138 700L294 725Q281 658 268.0 592.5Q255 527 242 462Q228 392 213.0 314.0Q198 236 184.0 160.5Q170 85 158 20Q140 20 113.0 17.5Q86 15 59.0 11.5Q32 8 13.5 5.0Q-5 2 -6 1Z" transform="translate(83.74, 54) scale(0.052, -0.052)" fill="#fff"/>
  <path d="M12 -2Q23 77 35.5 157.0Q48 237 61.5 311.5Q75 386 87 446Q100 511 113.0 578.0Q126 645 140 713L315 736L263 510Q249 451 234.5 383.5Q220 316 208.0 253.0Q196 190 189 141Q214 143 242.5 143.5Q271 144 293 144Q294 121 297.0 95.5Q300 70 303.5 51.5Q307 33 307 31Q303 31 299.5 31.0Q296 31 292 32H276Q237 32 189.5 28.5Q142 25 95.5 17.5Q49 10 12 -2Z" transform="translate(101.14, 58) scale(0.052, -0.052)" fill="#000" stroke="#000" stroke-width="50"/>
  <path d="M12 -2Q23 77 35.5 157.0Q48 237 61.5 311.5Q75 386 87 446Q100 511 113.0 578.0Q126 645 140 713L315 736L263 510Q249 451 234.5 383.5Q220 316 208.0 253.0Q196 190 189 141Q214 143 242.5 143.5Q271 144 293 144Q294 121 297.0 95.5Q300 70 303.5 51.5Q307 33 307 31Q303 31 299.5 31.0Q296 31 292 32H276Q237 32 189.5 28.5Q142 25 95.5 17.5Q49 10 12 -2Z" transform="translate(97.14, 54) scale(0.052, -0.052)" fill="#000" stroke="#000" stroke-width="50"/>
  <path d="M12 -2Q23 77 35.5 157.0Q48 237 61.5 311.5Q75 386 87 446Q100 511 113.0 578.0Q126 645 140 713L315 736L263 510Q249 451 234.5 383.5Q220 316 208.0 253.0Q196 190 189 141Q214 143 242.5 143.5Q271 144 293 144Q294 121 297.0 95.5Q300 70 303.5 51.5Q307 33 307 31Q303 31 299.5 31.0Q296 31 292 32H276Q237 32 189.5 28.5Q142 25 95.5 17.5Q49 10 12 -2Z" transform="translate(97.14, 54) scale(0.052, -0.052)" fill="#fff"/>
  <path d="M259 2Q261 19 263.0 35.0Q265 51 267 67L273 123Q274 137 275.0 149.0Q276 161 277 171H190L150 27Q128 24 98.0 20.5Q68 17 42 14Q26 12 10.5 10.0Q-5 8 -21 6L58 268Q72 315 90.0 375.0Q108 435 126.5 498.0Q145 561 161.5 616.5Q178 672 188 710Q256 715 326.5 722.0Q397 729 464 741Q459 685 454.5 614.5Q450 544 446.5 469.0Q443 394 439 321Q437 252 434.0 178.5Q431 105 428 28Q413 26 398.0 24.0Q383 22 368 20Q343 16 313.0 11.0Q283 6 259 2ZM214 271Q220 271 236.5 272.0Q253 273 268.0 274.0Q283 275 286 275Q286 288 290.0 328.0Q294 368 298 412Q300 438 302.5 465.5Q305 493 308 522L314 609L299 608L276 522Z" transform="translate(119.844, 58) scale(0.052, -0.052)" fill="#000" stroke="#000" stroke-width="50"/>
  <path d="M259 2Q261 19 263.0 35.0Q265 51 267 67L273 123Q274 137 275.0 149.0Q276 161 277 171H190L150 27Q128 24 98.0 20.5Q68 17 42 14Q26 12 10.5 10.0Q-5 8 -21 6L58 268Q72 315 90.0 375.0Q108 435 126.5 498.0Q145 561 161.5 616.5Q178 672 188 710Q256 715 326.5 722.0Q397 729 464 741Q459 685 454.5 614.5Q450 544 446.5 469.0Q443 394 439 321Q437 252 434.0 178.5Q431 105 428 28Q413 26 398.0 24.0Q383 22 368 20Q343 16 313.0 11.0Q283 6 259 2ZM214 271Q220 271 236.5 272.0Q253 273 268.0 274.0Q283 275 286 275Q286 288 290.0 328.0Q294 368 298 412Q300 438 302.5 465.5Q305 493 308 522L314 609L299 608L276 522Z" transform="translate(115.844, 54) scale(0.052, -0.052)" fill="#000" stroke="#000" stroke-width="50"/>
  <path d="M259 2Q261 19 263.0 35.0Q265 51 267 67L273 123Q274 137 275.0 149.0Q276 161 277 171H190L150 27Q128 24 98.0 20.5Q68 17 42 14Q26 12 10.5 10.0Q-5 8 -21 6L58 268Q72 315 90.0 375.0Q108 435 126.5 498.0Q145 561 161.5 616.5Q178 672 188 710Q256 715 326.5 722.0Q397 729 464 741Q459 685 454.5 614.5Q450 544 446.5 469.0Q443 394 439 321Q437 252 434.0 178.5Q431 105 428 28Q413 26 398.0 24.0Q383 22 368 20Q343 16 313.0 11.0Q283 6 259 2ZM214 271Q220 271 236.5 272.0Q253 273 268.0 274.0Q283 275 286 275Q286 288 290.0 328.0Q294 368 298 412Q300 438 302.5 465.5Q305 493 308 522L314 609L299 608L276 522Z" transform="translate(115.844, 54) scale(0.052, -0.052)" fill="#fff"/>
  <path d="M68 -4Q31 -4 -1 2Q47 177 75.5 354.5Q104 532 130 712Q182 723 238.0 731.5Q294 740 354 740Q387 740 424.0 728.5Q461 717 486.5 687.5Q512 658 512 604Q512 554 491.0 512.0Q470 470 438.0 440.0Q406 410 372 397Q386 390 405.0 372.0Q424 354 438.0 324.0Q452 294 452 251Q452 191 416.5 142.5Q381 94 322 62Q265 30 199.0 13.0Q133 -4 68 -4ZM246 479Q277 485 305.0 495.0Q333 505 350.5 518.0Q368 531 368 546Q368 565 353.0 576.0Q338 587 317.0 592.0Q296 597 278 597H268Q261 557 255.0 527.5Q249 498 246 479ZM195 198Q215 200 239.0 205.0Q263 210 285.0 220.5Q307 231 321.5 248.5Q336 266 336 291Q336 315 320.0 329.0Q304 343 281.5 349.5Q259 356 239 356H231Q226 356 223 355Q217 318 209.0 277.0Q201 236 195 198Z" transform="translate(145.35999999999999, 58) scale(0.052, -0.052)" fill="#000" stroke="#000" stroke-width="50"/>
  <path d="M68 -4Q31 -4 -1 2Q47 177 75.5 354.5Q104 532 130 712Q182 723 238.0 731.5Q294 740 354 740Q387 740 424.0 728.5Q461 717 486.5 687.5Q512 658 512 604Q512 554 491.0 512.0Q470 470 438.0 440.0Q406 410 372 397Q386 390 405.0 372.0Q424 354 438.0 324.0Q452 294 452 251Q452 191 416.5 142.5Q381 94 322 62Q265 30 199.0 13.0Q133 -4 68 -4ZM246 479Q277 485 305.0 495.0Q333 505 350.5 518.0Q368 531 368 546Q368 565 353.0 576.0Q338 587 317.0 592.0Q296 597 278 597H268Q261 557 255.0 527.5Q249 498 246 479ZM195 198Q215 200 239.0 205.0Q263 210 285.0 220.5Q307 231 321.5 248.5Q336 266 336 291Q336 315 320.0 329.0Q304 343 281.5 349.5Q259 356 239 356H231Q226 356 223 355Q217 318 209.0 277.0Q201 236 195 198Z" transform="translate(141.35999999999999, 54) scale(0.052, -0.052)" fill="#000" stroke="#000" stroke-width="50"/>
  <path d="M68 -4Q31 -4 -1 2Q47 177 75.5 354.5Q104 532 130 712Q182 723 238.0 731.5Q294 740 354 740Q387 740 424.0 728.5Q461 717 486.5 687.5Q512 658 512 604Q512 554 491.0 512.0Q470 470 438.0 440.0Q406 410 372 397Q386 390 405.0 372.0Q424 354 438.0 324.0Q452 294 452 251Q452 191 416.5 142.5Q381 94 322 62Q265 30 199.0 13.0Q133 -4 68 -4ZM246 479Q277 485 305.0 495.0Q333 505 350.5 518.0Q368 531 368 546Q368 565 353.0 576.0Q338 587 317.0 592.0Q296 597 278 597H268Q261 557 255.0 527.5Q249 498 246 479ZM195 198Q215 200 239.0 205.0Q263 210 285.0 220.5Q307 231 321.5 248.5Q336 266 336 291Q336 315 320.0 329.0Q304 343 281.5 349.5Q259 356 239 356H231Q226 356 223 355Q217 318 209.0 277.0Q201 236 195 198Z" transform="translate(141.35999999999999, 54) scale(0.052, -0.052)" fill="#fff"/>
  <path d="M12 -2Q23 77 35.5 157.0Q48 237 61.5 311.5Q75 386 87 446Q100 511 113.0 578.0Q126 645 140 713L315 736L263 510Q249 451 234.5 383.5Q220 316 208.0 253.0Q196 190 189 141Q214 143 242.5 143.5Q271 144 293 144Q294 121 297.0 95.5Q300 70 303.5 51.5Q307 33 307 31Q303 31 299.5 31.0Q296 31 292 32H276Q237 32 189.5 28.5Q142 25 95.5 17.5Q49 10 12 -2Z" transform="translate(170.61599999999999, 58) scale(0.052, -0.052)" fill="#000" stroke="#000" stroke-width="50"/>
  <path d="M12 -2Q23 77 35.5 157.0Q48 237 61.5 311.5Q75 386 87 446Q100 511 113.0 578.0Q126 645 140 713L315 736L263 510Q249 451 234.5 383.5Q220 316 208.0 253.0Q196 190 189 141Q214 143 242.5 143.5Q271 144 293 144Q294 121 297.0 95.5Q300 70 303.5 51.5Q307 33 307 31Q303 31 299.5 31.0Q296 31 292 32H276Q237 32 189.5 28.5Q142 25 95.5 17.5Q49 10 12 -2Z" transform="translate(166.61599999999999, 54) scale(0.052, -0.052)" fill="#000" stroke="#000" stroke-width="50"/>
  <path d="M12 -2Q23 77 35.5 157.0Q48 237 61.5 311.5Q75 386 87 446Q100 511 113.0 578.0Q126 645 140 713L315 736L263 510Q249 451 234.5 383.5Q220 316 208.0 253.0Q196 190 189 141Q214 143 242.5 143.5Q271 144 293 144Q294 121 297.0 95.5Q300 70 303.5 51.5Q307 33 307 31Q303 31 299.5 31.0Q296 31 292 32H276Q237 32 189.5 28.5Q142 25 95.5 17.5Q49 10 12 -2Z" transform="translate(166.61599999999999, 54) scale(0.052, -0.052)" fill="#fff"/>
  <path d="M8 -1 139 710 455 737Q448 715 443 692Q438 673 433.5 652.5Q429 632 426 616Q413 615 389.0 614.5Q365 614 340.0 613.5Q315 613 297.0 613.0Q279 613 278 613L243 434L301 437Q312 438 323.5 438.0Q335 438 346 438Q357 438 366.0 438.0Q375 438 380 439Q378 425 376.5 411.5Q375 398 373 384L364 329Q359 328 351.0 328.0Q343 328 332 328Q321 327 309.0 327.0Q297 327 286 326Q273 325 259.0 325.0Q245 325 229 324L195 140L341 163L331 49Z" transform="translate(189.32, 58) scale(0.052, -0.052)" fill="#000" stroke="#000" stroke-width="50"/>
  <path d="M8 -1 139 710 455 737Q448 715 443 692Q438 673 433.5 652.5Q429 632 426 616Q413 615 389.0 614.5Q365 614 340.0 613.5Q315 613 297.0 613.0Q279 613 278 613L243 434L301 437Q312 438 323.5 438.0Q335 438 346 438Q357 438 366.0 438.0Q375 438 380 439Q378 425 376.5 411.5Q375 398 373 384L364 329Q359 328 351.0 328.0Q343 328 332 328Q321 327 309.0 327.0Q297 327 286 326Q273 325 259.0 325.0Q245 325 229 324L195 140L341 163L331 49Z" transform="translate(185.32, 54) scale(0.052, -0.052)" fill="#000" stroke="#000" stroke-width="50"/>
  <path d="M8 -1 139 710 455 737Q448 715 443 692Q438 673 433.5 652.5Q429 632 426 616Q413 615 389.0 614.5Q365 614 340.0 613.5Q315 613 297.0 613.0Q279 613 278 613L243 434L301 437Q312 438 323.5 438.0Q335 438 346 438Q357 438 366.0 438.0Q375 438 380 439Q378 425 376.5 411.5Q375 398 373 384L364 329Q359 328 351.0 328.0Q343 328 332 328Q321 327 309.0 327.0Q297 327 286 326Q273 325 259.0 325.0Q245 325 229 324L195 140L341 163L331 49Z" transform="translate(185.32, 54) scale(0.052, -0.052)" fill="#fff"/>
  <path d="M223 -24Q186 -24 152.5 -8.0Q119 8 95 41Q70 73 56.0 122.0Q42 171 42 237Q42 366 79.0 462.0Q116 558 173 622Q229 686 293.5 717.0Q358 748 414 748Q468 748 502.0 724.5Q536 701 552.0 662.0Q568 623 568 575L431 549Q422 589 407.0 606.0Q392 623 373 623Q351 623 327.5 599.0Q304 575 281.5 534.5Q259 494 241.0 444.0Q223 394 211.5 341.0Q200 288 198 241Q198 179 216.5 152.5Q235 126 264 126Q292 126 319.5 144.0Q347 162 365.5 192.5Q384 223 385 261L278 245L297 344L389 356Q427 361 469.5 368.0Q512 375 544 381Q537 279 504.5 202.5Q472 126 424.0 76.0Q376 26 323.5 1.0Q271 -24 223 -24Z" transform="translate(225.652, 58) scale(0.052, -0.052)" fill="#000" stroke="#000" stroke-width="50"/>
  <path d="M223 -24Q186 -24 152.5 -8.0Q119 8 95 41Q70 73 56.0 122.0Q42 171 42 237Q42 366 79.0 462.0Q116 558 173 622Q229 686 293.5 717.0Q358 748 414 748Q468 748 502.0 724.5Q536 701 552.0 662.0Q568 623 568 575L431 549Q422 589 407.0 606.0Q392 623 373 623Q351 623 327.5 599.0Q304 575 281.5 534.5Q259 494 241.0 444.0Q223 394 211.5 341.0Q200 288 198 241Q198 179 216.5 152.5Q235 126 264 126Q292 126 319.5 144.0Q347 162 365.5 192.5Q384 223 385 261L278 245L297 344L389 356Q427 361 469.5 368.0Q512 375 544 381Q537 279 504.5 202.5Q472 126 424.0 76.0Q376 26 323.5 1.0Q271 -24 223 -24Z" transform="translate(221.652, 54) scale(0.052, -0.052)" fill="#000" stroke="#000" stroke-width="50"/>
  <path d="M223 -24Q186 -24 152.5 -8.0Q119 8 95 41Q70 73 56.0 122.0Q42 171 42 237Q42 366 79.0 462.0Q116 558 173 622Q229 686 293.5 717.0Q358 748 414 748Q468 748 502.0 724.5Q536 701 552.0 662.0Q568 623 568 575L431 549Q422 589 407.0 606.0Q392 623 373 623Q351 623 327.5 599.0Q304 575 281.5 534.5Q259 494 241.0 444.0Q223 394 211.5 341.0Q200 288 198 241Q198 179 216.5 152.5Q235 126 264 126Q292 126 319.5 144.0Q347 162 365.5 192.5Q384 223 385 261L278 245L297 344L389 356Q427 361 469.5 368.0Q512 375 544 381Q537 279 504.5 202.5Q472 126 424.0 76.0Q376 26 323.5 1.0Q271 -24 223 -24Z" transform="translate(221.652, 54) scale(0.052, -0.052)" fill="#fff"/>
  <path d="M165 -18Q135 -18 104.0 -5.0Q73 8 52.0 35.0Q31 62 31 104V112Q31 117 32 120Q35 146 40.5 188.0Q46 230 54.0 279.5Q62 329 70.5 378.0Q79 427 86 467Q101 547 110.0 596.0Q119 645 124.5 671.5Q130 698 133 711L298 727Q285 666 273.5 611.5Q262 557 252 508L206 287Q200 262 197 245Q193 229 188.5 204.5Q184 180 184 160Q184 144 192.0 133.5Q200 123 212 123Q229 123 240.0 136.0Q251 149 258.0 168.0Q265 187 269.0 206.5Q273 226 276 238Q286 284 294.5 327.5Q303 371 312.5 420.0Q322 469 334 533Q342 577 350.5 622.5Q359 668 367 715L519 725L484 532Q477 495 468.5 449.0Q460 403 450.0 356.0Q440 309 431.5 267.0Q423 225 416 195Q396 113 354.0 66.5Q312 20 261.5 1.0Q211 -18 165 -18Z" transform="translate(254.6, 58) scale(0.052, -0.052)" fill="#000" stroke="#000" stroke-width="50"/>
  <path d="M165 -18Q135 -18 104.0 -5.0Q73 8 52.0 35.0Q31 62 31 104V112Q31 117 32 120Q35 146 40.5 188.0Q46 230 54.0 279.5Q62 329 70.5 378.0Q79 427 86 467Q101 547 110.0 596.0Q119 645 124.5 671.5Q130 698 133 711L298 727Q285 666 273.5 611.5Q262 557 252 508L206 287Q200 262 197 245Q193 229 188.5 204.5Q184 180 184 160Q184 144 192.0 133.5Q200 123 212 123Q229 123 240.0 136.0Q251 149 258.0 168.0Q265 187 269.0 206.5Q273 226 276 238Q286 284 294.5 327.5Q303 371 312.5 420.0Q322 469 334 533Q342 577 350.5 622.5Q359 668 367 715L519 725L484 532Q477 495 468.5 449.0Q460 403 450.0 356.0Q440 309 431.5 267.0Q423 225 416 195Q396 113 354.0 66.5Q312 20 261.5 1.0Q211 -18 165 -18Z" transform="translate(250.6, 54) scale(0.052, -0.052)" fill="#000" stroke="#000" stroke-width="50"/>
  <path d="M165 -18Q135 -18 104.0 -5.0Q73 8 52.0 35.0Q31 62 31 104V112Q31 117 32 120Q35 146 40.5 188.0Q46 230 54.0 279.5Q62 329 70.5 378.0Q79 427 86 467Q101 547 110.0 596.0Q119 645 124.5 671.5Q130 698 133 711L298 727Q285 666 273.5 611.5Q262 557 252 508L206 287Q200 262 197 245Q193 229 188.5 204.5Q184 180 184 160Q184 144 192.0 133.5Q200 123 212 123Q229 123 240.0 136.0Q251 149 258.0 168.0Q265 187 269.0 206.5Q273 226 276 238Q286 284 294.5 327.5Q303 371 312.5 420.0Q322 469 334 533Q342 577 350.5 622.5Q359 668 367 715L519 725L484 532Q477 495 468.5 449.0Q460 403 450.0 356.0Q440 309 431.5 267.0Q423 225 416 195Q396 113 354.0 66.5Q312 20 261.5 1.0Q211 -18 165 -18Z" transform="translate(250.6, 54) scale(0.052, -0.052)" fill="#fff"/>
  <path d="M-6 1Q11 60 27.5 135.0Q44 210 59.5 288.5Q75 367 89 437Q102 501 114.0 567.0Q126 633 138 700L294 725Q281 658 268.0 592.5Q255 527 242 462Q228 392 213.0 314.0Q198 236 184.0 160.5Q170 85 158 20Q140 20 113.0 17.5Q86 15 59.0 11.5Q32 8 13.5 5.0Q-5 2 -6 1Z" transform="translate(279.388, 58) scale(0.052, -0.052)" fill="#000" stroke="#000" stroke-width="50"/>
  <path d="M-6 1Q11 60 27.5 135.0Q44 210 59.5 288.5Q75 367 89 437Q102 501 114.0 567.0Q126 633 138 700L294 725Q281 658 268.0 592.5Q255 527 242 462Q228 392 213.0 314.0Q198 236 184.0 160.5Q170 85 158 20Q140 20 113.0 17.5Q86 15 59.0 11.5Q32 8 13.5 5.0Q-5 2 -6 1Z" transform="translate(275.388, 54) scale(0.052, -0.052)" fill="#000" stroke="#000" stroke-width="50"/>
  <path d="M-6 1Q11 60 27.5 135.0Q44 210 59.5 288.5Q75 367 89 437Q102 501 114.0 567.0Q126 633 138 700L294 725Q281 658 268.0 592.5Q255 527 242 462Q228 392 213.0 314.0Q198 236 184.0 160.5Q170 85 158 20Q140 20 113.0 17.5Q86 15 59.0 11.5Q32 8 13.5 5.0Q-5 2 -6 1Z" transform="translate(275.388, 54) scale(0.052, -0.052)" fill="#fff"/>
  <path d="M60 -5Q46 -5 32.0 -3.5Q18 -2 4 0L57 269Q67 324 78.5 385.5Q90 447 101.0 507.5Q112 568 120.5 620.0Q129 672 134 708Q177 716 221.0 723.0Q265 730 311 730Q385 730 428.0 699.5Q471 669 490.0 619.5Q509 570 509 511Q509 458 494.0 399.5Q479 341 451.5 283.5Q424 226 386 175Q327 96 242.5 45.5Q158 -5 60 -5ZM179 121Q214 144 245.5 191.0Q277 238 305 304Q330 365 344.0 419.5Q358 474 358 510Q358 547 337.5 568.0Q317 589 273 589Q257 503 240.5 430.0Q224 357 208.5 283.0Q193 209 179 121Z" transform="translate(292.78799999999995, 58) scale(0.052, -0.052)" fill="#000" stroke="#000" stroke-width="50"/>
  <path d="M60 -5Q46 -5 32.0 -3.5Q18 -2 4 0L57 269Q67 324 78.5 385.5Q90 447 101.0 507.5Q112 568 120.5 620.0Q129 672 134 708Q177 716 221.0 723.0Q265 730 311 730Q385 730 428.0 699.5Q471 669 490.0 619.5Q509 570 509 511Q509 458 494.0 399.5Q479 341 451.5 283.5Q424 226 386 175Q327 96 242.5 45.5Q158 -5 60 -5ZM179 121Q214 144 245.5 191.0Q277 238 305 304Q330 365 344.0 419.5Q358 474 358 510Q358 547 337.5 568.0Q317 589 273 589Q257 503 240.5 430.0Q224 357 208.5 283.0Q193 209 179 121Z" transform="translate(288.78799999999995, 54) scale(0.052, -0.052)" fill="#000" stroke="#000" stroke-width="50"/>
  <path d="M60 -5Q46 -5 32.0 -3.5Q18 -2 4 0L57 269Q67 324 78.5 385.5Q90 447 101.0 507.5Q112 568 120.5 620.0Q129 672 134 708Q177 716 221.0 723.0Q265 730 311 730Q385 730 428.0 699.5Q471 669 490.0 619.5Q509 570 509 511Q509 458 494.0 399.5Q479 341 451.5 283.5Q424 226 386 175Q327 96 242.5 45.5Q158 -5 60 -5ZM179 121Q214 144 245.5 191.0Q277 238 305 304Q330 365 344.0 419.5Q358 474 358 510Q358 547 337.5 568.0Q317 589 273 589Q257 503 240.5 430.0Q224 357 208.5 283.0Q193 209 179 121Z" transform="translate(288.78799999999995, 54) scale(0.052, -0.052)" fill="#fff"/>
  <path d="M8 -1 139 710 455 737Q448 715 443 692Q438 673 433.5 652.5Q429 632 426 616Q413 615 389.0 614.5Q365 614 340.0 613.5Q315 613 297.0 613.0Q279 613 278 613L243 434L301 437Q312 438 323.5 438.0Q335 438 346 438Q357 438 366.0 438.0Q375 438 380 439Q378 425 376.5 411.5Q375 398 373 384L364 329Q359 328 351.0 328.0Q343 328 332 328Q321 327 309.0 327.0Q297 327 286 326Q273 325 259.0 325.0Q245 325 229 324L195 140L341 163L331 49Z" transform="translate(318.71999999999997, 58) scale(0.052, -0.052)" fill="#000" stroke="#000" stroke-width="50"/>
  <path d="M8 -1 139 710 455 737Q448 715 443 692Q438 673 433.5 652.5Q429 632 426 616Q413 615 389.0 614.5Q365 614 340.0 613.5Q315 613 297.0 613.0Q279 613 278 613L243 434L301 437Q312 438 323.5 438.0Q335 438 346 438Q357 438 366.0 438.0Q375 438 380 439Q378 425 376.5 411.5Q375 398 373 384L364 329Q359 328 351.0 328.0Q343 328 332 328Q321 327 309.0 327.0Q297 327 286 326Q273 325 259.0 325.0Q245 325 229 324L195 140L341 163L331 49Z" transform="translate(314.71999999999997, 54) scale(0.052, -0.052)" fill="#000" stroke="#000" stroke-width="50"/>
  <path d="M8 -1 139 710 455 737Q448 715 443 692Q438 673 433.5 652.5Q429 632 426 616Q413 615 389.0 614.5Q365 614 340.0 613.5Q315 613 297.0 613.0Q279 613 278 613L243 434L301 437Q312 438 323.5 438.0Q335 438 346 438Q357 438 366.0 438.0Q375 438 380 439Q378 425 376.5 411.5Q375 398 373 384L364 329Q359 328 351.0 328.0Q343 328 332 328Q321 327 309.0 327.0Q297 327 286 326Q273 325 259.0 325.0Q245 325 229 324L195 140L341 163L331 49Z" transform="translate(314.71999999999997, 54) scale(0.052, -0.052)" fill="#fff"/>
  <path d="M171 -2Q131 -2 91.0 19.5Q51 41 14 88L88 233Q99 214 120.5 197.0Q142 180 166.0 170.0Q190 160 207 160Q233 160 256.5 176.0Q280 192 280 219Q280 254 248.0 283.0Q216 312 176 340Q137 368 104.5 403.5Q72 439 72 485Q72 537 102.0 581.5Q132 626 180.0 659.5Q228 693 282.5 711.5Q337 730 386 730Q421 730 451.0 718.5Q481 707 499.0 681.0Q517 655 517 611Q517 604 516.5 597.0Q516 590 515 583Q514 576 512.5 568.5Q511 561 510 553L365 511Q367 519 368.5 527.0Q370 535 370 543Q370 573 359.5 586.5Q349 600 332 600Q323 600 306.0 590.5Q289 581 275.5 564.5Q262 548 262 528Q262 495 289.5 473.5Q317 452 353 430Q370 420 391.0 398.5Q412 377 427.5 340.5Q443 304 443 247Q443 173 406.5 117.0Q370 61 308.0 29.5Q246 -2 171 -2Z" transform="translate(339.452, 58) scale(0.052, -0.052)" fill="#000" stroke="#000" stroke-width="50"/>
  <path d="M171 -2Q131 -2 91.0 19.5Q51 41 14 88L88 233Q99 214 120.5 197.0Q142 180 166.0 170.0Q190 160 207 160Q233 160 256.5 176.0Q280 192 280 219Q280 254 248.0 283.0Q216 312 176 340Q137 368 104.5 403.5Q72 439 72 485Q72 537 102.0 581.5Q132 626 180.0 659.5Q228 693 282.5 711.5Q337 730 386 730Q421 730 451.0 718.5Q481 707 499.0 681.0Q517 655 517 611Q517 604 516.5 597.0Q516 590 515 583Q514 576 512.5 568.5Q511 561 510 553L365 511Q367 519 368.5 527.0Q370 535 370 543Q370 573 359.5 586.5Q349 600 332 600Q323 600 306.0 590.5Q289 581 275.5 564.5Q262 548 262 528Q262 495 289.5 473.5Q317 452 353 430Q370 420 391.0 398.5Q412 377 427.5 340.5Q443 304 443 247Q443 173 406.5 117.0Q370 61 308.0 29.5Q246 -2 171 -2Z" transform="translate(335.452, 54) scale(0.052, -0.052)" fill="#000" stroke="#000" stroke-width="50"/>
  <path d="M171 -2Q131 -2 91.0 19.5Q51 41 14 88L88 233Q99 214 120.5 197.0Q142 180 166.0 170.0Q190 160 207 160Q233 160 256.5 176.0Q280 192 280 219Q280 254 248.0 283.0Q216 312 176 340Q137 368 104.5 403.5Q72 439 72 485Q72 537 102.0 581.5Q132 626 180.0 659.5Q228 693 282.5 711.5Q337 730 386 730Q421 730 451.0 718.5Q481 707 499.0 681.0Q517 655 517 611Q517 604 516.5 597.0Q516 590 515 583Q514 576 512.5 568.5Q511 561 510 553L365 511Q367 519 368.5 527.0Q370 535 370 543Q370 573 359.5 586.5Q349 600 332 600Q323 600 306.0 590.5Q289 581 275.5 564.5Q262 548 262 528Q262 495 289.5 473.5Q317 452 353 430Q370 420 391.0 398.5Q412 377 427.5 340.5Q443 304 443 247Q443 173 406.5 117.0Q370 61 308.0 29.5Q246 -2 171 -2Z" transform="translate(335.452, 54) scale(0.052, -0.052)" fill="#fff"/>
</svg>