<svg xmlns="http://www.w3.org/2000/svg" viewBox="0 0 368.51599999999996 76" width="368.51599999999996" height="76">
  <path d="M41 -4 117 706Q140 707 162.5 709.5Q185 712 206 716Q226 720 247.0 722.5Q268 725 288 726L285 706Q284 696 281.5 683.5Q279 671 277 655Q272 620 265.0 575.0Q258 530 249 475Q243 441 235.5 393.0Q228 345 218 284H233Q246 330 257.0 368.0Q268 406 276 435Q284 464 291.5 487.5Q299 511 304 530Q325 604 338.0 651.0Q351 698 355 712H364Q390 712 418.5 716.0Q447 720 470 725Q469 721 466.0 692.0Q463 663 459.0 621.0Q455 579 451 534Q444 449 438.5 386.0Q433 323 429 284H447L542 714L609 723Q623 725 638.0 727.0Q653 729 669 731Q698 735 724 740Q694 656 664.0 542.0Q634 428 604 311Q588 247 572.5 181.5Q557 116 542 48L316 10L360 396H348L249 33Z" transform="translate(14, 58) scale(0.052, -0.052)" fill="#000" stroke="#000" stroke-width="50"/>
  <path d="M41 -4 117 706Q140 707 162.5 709.5Q185 712 206 716Q226 720 247.0 722.5Q268 725 288 726L285 706Q284 696 281.5 683.5Q279 671 277 655Q272 620 265.0 575.0Q258 530 249 475Q243 441 235.5 393.0Q228 345 218 284H233Q246 330 257.0 368.0Q268 406 276 435Q284 464 291.5 487.5Q299 511 304 530Q325 604 338.0 651.0Q351 698 355 712H364Q390 712 418.5 716.0Q447 720 470 725Q469 721 466.0 692.0Q463 663 459.0 621.0Q455 579 451 534Q444 449 438.5 386.0Q433 323 429 284H447L542 714L609 723Q623 725 638.0 727.0Q653 729 669 731Q698 735 724 740Q694 656 664.0 542.0Q634 428 604 311Q588 247 572.5 181.5Q557 116 542 48L316 10L360 396H348L249 33Z" transform="translate(10, 54) scale(0.052, -0.052)" fill="#000" stroke="#000" stroke-width="50"/>
  <path d="M41 -4 117 706Q140 707 162.5 709.5Q185 712 206 716Q226 720 247.0 722.5Q268 725 288 726L285 706Q284 696 281.5 683.5Q279 671 277 655Q272 620 265.0 575.0Q258 530 249 475Q243 441 235.5 393.0Q228 345 218 284H233Q246 330 257.0 368.0Q268 406 276 435Q284 464 291.5 487.5Q299 511 304 530Q325 604 338.0 651.0Q351 698 355 712H364Q390 712 418.5 716.0Q447 720 470 725Q469 721 466.0 692.0Q463 663 459.0 621.0Q455 579 451 534Q444 449 438.5 386.0Q433 323 429 284H447L542 714L609 723Q623 725 638.0 727.0Q653 729 669 731Q698 735 724 740Q694 656 664.0 542.0Q634 428 604 311Q588 247 572.5 181.5Q557 116 542 48L316 10L360 396H348L249 33Z" transform="translate(10, 54) scale(0.052, -0.052)" fill="#fff"/>
  <path d="M9 -2Q22 67 34.5 134.5Q47 202 60 269Q74 352 86.5 425.0Q99 498 111.5 570.0Q124 642 136 721L298 732Q281 662 264.5 586.0Q248 510 234 438L333 449Q340 484 346.5 518.5Q353 553 358 587Q363 620 370.5 654.5Q378 689 387 724Q423 730 460.0 733.5Q497 737 522.0 738.5Q547 740 547 740Q534 700 521.0 646.0Q508 592 496.0 532.0Q484 472 473.0 412.5Q462 353 453 302Q442 238 432.0 173.5Q422 109 412 42L256 24Q263 54 268.5 83.5Q274 113 279 141Q289 189 299.5 241.0Q310 293 316 330L219 321Q215 302 211.5 280.0Q208 258 203 233Q198 208 193.5 184.5Q189 161 185 138Q180 111 174.0 84.0Q168 57 163 30Z" transform="translate(48.251999999999995, 58) scale(0.052, -0.052)" fill="#000" stroke="#000" stroke-width="50"/>
  <path d="M9 -2Q22 67 34.5 134.5Q47 202 60 269Q74 352 86.5 425.0Q99 498 111.5 570.0Q124 642 136 721L298 732Q281 662 264.5 586.0Q248 510 234 438L333 449Q340 484 346.5 518.5Q353 553 358 587Q363 620 370.5 654.5Q378 689 387 724Q423 730 460.0 733.5Q497 737 522.0 738.5Q547 740 547 740Q534 700 521.0 646.0Q508 592 496.0 532.0Q484 472 473.0 412.5Q462 353 453 302Q442 238 432.0 173.5Q422 109 412 42L256 24Q263 54 268.5 83.5Q274 113 279 141Q289 189 299.5 241.0Q310 293 316 330L219 321Q215 302 211.5 280.0Q208 258 203 233Q198 208 193.5 184.5Q189 161 185 138Q180 111 174.0 84.0Q168 57 163 30Z" transform="translate(44.251999999999995, 54) scale(0.052, -0.052)" fill="#000" stroke="#000" stroke-width="50"/>
  <path d="M9 -2Q22 67 34.5 134.5Q47 202 60 269Q74 352 86.5 425.0Q99 498 111.5 570.0Q124 642 136 721L298 732Q281 662 264.5 586.0Q248 510 234 438L333 449Q340 484 346.5 518.5Q353 553 358 587Q363 620 370.5 654.5Q378 689 387 724Q423 730 460.0 733.5Q497 737 522.0 738.5Q547 740 547 740Q534 700 521.0 646.0Q508 592 496.0 532.0Q484 472 473.0 412.5Q462 353 453 302Q442 238 432.0 173.5Q422 109 412 42L256 24Q263 54 268.5 83.5Q274 113 279 141Q289 189 299.5 241.0Q310 293 316 330L219 321Q215 302 211.5 280.0Q208 258 203 233Q198 208 193.5 184.5Q189 161 185 138Q180 111 174.0 84.0Q168 57 163 30Z" transform="translate(44.251999999999995, 54) scale(0.052, -0.052)" fill="#fff"/>
  <path d="M8 -1 139 710 455 737Q448 715 443 692Q438 673 433.5 652.5Q429 632 426 616Q413 615 389.0 614.5Q365 614 340.0 613.5Q315 613 297.0 613.0Q279 613 278 613L243 434L301 437Q312 438 323.5 438.0Q335 438 346 438Q357 438 366.0 438.0Q375 438 380 439Q378 425 376.5 411.5Q375 398 373 384L364 329Q359 328 351.0 328.0Q343 328 332 328Q321 327 309.0 327.0Q297 327 286 326Q273 325 259.0 325.0Q245 325 229 324L195 140L341 163L331 49Z" transform="translate(74.23599999999999, 58) scale(0.052, -0.052)" fill="#000" stroke="#000" stroke-width="50"/>
  <path d="M8 -1 139 710 455 737Q448 715 443 692Q438 673 433.5 652.5Q429 632 426 616Q413 615 389.0 614.5Q365 614 340.0 613.5Q315 613 297.0 613.0Q279 613 278 613L243 434L301 437Q312 438 323.5 438.0Q335 438 346 438Q357 438 366.0 438.0Q375 438 380 439Q378 425 376.5 411.5Q375 398 373 384L364 329Q359 328 351.0 328.0Q343 328 332 328Q321 327 309.0 327.0Q297 327 286 326Q273 325 259.0 325.0Q245 325 229 324L195 140L341 163L331 49Z" transform="translate(70.23599999999999, 54) scale(0.052, -0.052)" fill="#000" stroke="#000" stroke-width="50"/>
  <path d="M8 -1 139 710 455 737Q448 715 443 692Q438 673 433.5 652.5Q429 632 426 616Q413 615 389.0 614.5Q365 614 340.0 613.5Q315 613 297.0 613.0Q279 613 278 613L243 434L301 437Q312 438 323.5 438.0Q335 438 346 438Q357 438 366.0 438.0Q375 438 380 439Q378 425 376.5 411.5Q375 398 373 384L364 329Q359 328 351.0 328.0Q343 328 332 328Q321 327 309.0 327.0Q297 327 286 326Q273 325 259.0 325.0Q245 325 229 324L195 140L341 163L331 49Z" transform="translate(70.23599999999999, 54) scale(0.052, -0.052)" fill="#fff"/>
  <path d="M6 -5Q20 66 33.5 134.5Q47 203 60 270Q74 348 88.5 428.0Q103 508 115.5 584.0Q128 660 135 725Q151 726 166.0 727.0Q181 728 195 729Q208 730 221.5 731.0Q235 732 248 733L296 736Q303 698 308.5 661.0Q314 624 319 589Q323 565 328.5 533.0Q334 501 339.5 467.5Q345 434 350.5 405.0Q356 376 360 358Q370 411 376.5 445.5Q383 480 389.5 512.5Q396 545 405 589L436 735L558 750Q541 675 526.0 604.0Q511 533 498 466Q473 345 454.0 239.5Q435 134 425 55L262 17L247 171Q245 194 241.0 226.5Q237 259 233.0 293.5Q229 328 225.0 356.5Q221 385 219 399Q209 340 200.0 284.5Q191 229 180 177Q173 142 166.5 104.5Q160 67 152 29Z" transform="translate(94.96799999999999, 58) scale(0.052, -0.052)" fill="#000" stroke="#000" stroke-width="50"/>
  <path d="M6 -5Q20 66 33.5 134.5Q47 203 60 270Q74 348 88.5 428.0Q103 508 115.5 584.0Q128 660 135 725Q151 726 166.0 727.0Q181 728 195 729Q208 730 221.5 731.0Q235 732 248 733L296 736Q303 698 308.5 661.0Q314 624 319 589Q323 565 328.5 533.0Q334 501 339.5 467.5Q345 434 350.5 405.0Q356 376 360 358Q370 411 376.5 445.5Q383 480 389.5 512.5Q396 545 405 589L436 735L558 750Q541 675 526.0 604.0Q511 533 498 466Q473 345 454.0 239.5Q435 134 425 55L262 17L247 171Q245 194 241.0 226.5Q237 259 233.0 293.5Q229 328 225.0 356.5Q221 385 219 399Q209 340 200.0 284.5Q191 229 180 177Q173 142 166.5 104.5Q160 67 152 29Z" transform="translate(90.96799999999999, 54) scale(0.052, -0.052)" fill="#000" stroke="#000" stroke-width="50"/>
  <path d="M6 -5Q20 66 33.5 134.5Q47 203 60 270Q74 348 88.5 428.0Q103 508 115.5 584.0Q128 660 135 725Q151 726 166.0 727.0Q181 728 195 729Q208 730 221.5 731.0Q235 732 248 733L296 736Q303 698 308.5 661.0Q314 624 319 589Q323 565 328.5 533.0Q334 501 339.5 467.5Q345 434 350.5 405.0Q356 376 360 358Q370 411 376.5 445.5Q383 480 389.5 512.5Q396 545 405 589L436 735L558 750Q541 675 526.0 604.0Q511 533 498 466Q473 345 454.0 239.5Q435 134 425 55L262 17L247 171Q245 194 241.0 226.5Q237 259 233.0 293.5Q229 328 225.0 356.5Q221 385 219 399Q209 340 200.0 284.5Q191 229 180 177Q173 142 166.5 104.5Q160 67 152 29Z" transform="translate(90.96799999999999, 54) scale(0.052, -0.052)" fill="#fff"/>
  <path d="M259 2Q261 19 263.0 35.0Q265 51 267 67L273 123Q274 137 275.0 149.0Q276 161 277 171H190L150 27Q128 24 98.0 20.5Q68 17 42 14Q26 12 10.5 10.0Q-5 8 -21 6L58 268Q72 315 90.0 375.0Q108 435 126.5 498.0Q145 561 161.5 616.5Q178 672 188 710Q256 715 326.5 722.0Q397 729 464 741Q459 685 454.5 614.5Q450 544 446.5 469.0Q443 394 439 321Q437 252 434.0 178.5Q431 105 428 28Q413 26 398.0 24.0Q383 22 368 20Q343 16 313.0 11.0Q283 6 259 2ZM214 271Q220 271 236.5 272.0Q253 273 268.0 274.0Q283 275 286 275Q286 288 290.0 328.0Q294 368 298 412Q300 438 302.5 465.5Q305 493 308 522L314 609L299 608L276 522Z" transform="translate(137.124, 58) scale(0.052, -0.052)" fill="#000" stroke="#000" stroke-width="50"/>
  <path d="M259 2Q261 19 263.0 35.0Q265 51 267 67L273 123Q274 137 275.0 149.0Q276 161 277 171H190L150 27Q128 24 98.0 20.5Q68 17 42 14Q26 12 10.5 10.0Q-5 8 -21 6L58 268Q72 315 90.0 375.0Q108 435 126.5 498.0Q145 561 161.5 616.5Q178 672 188 710Q256 715 326.5 722.0Q397 729 464 741Q459 685 454.5 614.5Q450 544 446.5 469.0Q443 394 439 321Q437 252 434.0 178.5Q431 105 428 28Q413 26 398.0 24.0Q383 22 368 20Q343 16 313.0 11.0Q283 6 259 2ZM214 271Q220 271 236.5 272.0Q253 273 268.0 274.0Q283 275 286 275Q286 288 290.0 328.0Q294 368 298 412Q300 438 302.5 465.5Q305 493 308 522L314 609L299 608L276 522Z" transform="translate(133.124, 54) scale(0.052, -0.052)" fill="#000" stroke="#000" stroke-width="50"/>
  <path d="M259 2Q261 19 263.0 35.0Q265 51 267 67L273 123Q274 137 275.0 149.0Q276 161 277 171H190L150 27Q128 24 98.0 20.5Q68 17 42 14Q26 12 10.5 10.0Q-5 8 -21 6L58 268Q72 315 90.0 375.0Q108 435 126.5 498.0Q145 561 161.5 616.5Q178 672 188 710Q256 715 326.5 722.0Q397 729 464 741Q459 685 454.5 614.5Q450 544 446.5 469.0Q443 394 439 321Q437 252 434.0 178.5Q431 105 428 28Q413 26 398.0 24.0Q383 22 368 20Q343 16 313.0 11.0Q283 6 259 2ZM214 271Q220 271 236.5 272.0Q253 273 268.0 274.0Q283 275 286 275Q286 288 290.0 328.0Q294 368 298 412Q300 438 302.5 465.5Q305 493 308 522L314 609L299 608L276 522Z" transform="translate(133.124, 54) scale(0.052, -0.052)" fill="#fff"/>
  <path d="M6 -5Q20 66 33.5 134.5Q47 203 60 270Q74 348 88.5 428.0Q103 508 115.5 584.0Q128 660 135 725Q151 726 166.0 727.0Q181 728 195 729Q208 730 221.5 731.0Q235 732 248 733L296 736Q303 698 308.5 661.0Q314 624 319 589Q323 565 328.5 533.0Q334 501 339.5 467.5Q345 434 350.5 405.0Q356 376 360 358Q370 411 376.5 445.5Q383 480 389.5 512.5Q396 545 405 589L436 735L558 750Q541 675 526.0 604.0Q511 533 498 466Q473 345 454.0 239.5Q435 134 425 55L262 17L247 171Q245 194 241.0 226.5Q237 259 233.0 293.5Q229 328 225.0 356.5Q221 385 219 399Q209 340 200.0 284.5Q191 229 180 177Q173 142 166.5 104.5Q160 67 152 29Z" transform="translate(162.64, 58) scale(0.052, -0.052)" fill="#000" stroke="#000" stroke-width="50"/>
  <path d="M6 -5Q20 66 33.5 134.5Q47 203 60 270Q74 348 88.5 428.0Q103 508 115.5 584.0Q128 660 135 725Q151 726 166.0 727.0Q181 728 195 729Q208 730 221.5 731.0Q235 732 248 733L296 736Q303 698 308.5 661.0Q314 624 319 589Q323 565 328.5 533.0Q334 501 339.5 467.5Q345 434 350.5 405.0Q356 376 360 358Q370 411 376.5 445.5Q383 480 389.5 512.5Q396 545 405 589L436 735L558 750Q541 675 526.0 604.0Q511 533 498 466Q473 345 454.0 239.5Q435 134 425 55L262 17L247 171Q245 194 241.0 226.5Q237 259 233.0 293.5Q229 328 225.0 356.5Q221 385 219 399Q209 340 200.0 284.5Q191 229 180 177Q173 142 166.5 104.5Q160 67 152 29Z" transform="translate(158.64, 54) scale(0.052, -0.052)" fill="#000" stroke="#000" stroke-width="50"/>
  <path d="M6 -5Q20 66 33.5 134.5Q47 203 60 270Q74 348 88.5 428.0Q103 508 115.5 584.0Q128 660 135 725Q151 726 166.0 727.0Q181 728 195 729Q208 730 221.5 731.0Q235 732 248 733L296 736Q303 698 308.5 661.0Q314 624 319 589Q323 565 328.5 533.0Q334 501 339.5 467.5Q345 434 350.5 405.0Q356 376 360 358Q370 411 376.5 445.5Q383 480 389.5 512.5Q396 545 405 589L436 735L558 750Q541 675 526.0 604.0Q511 533 498 466Q473 345 454.0 239.5Q435 134 425 55L262 17L247 171Q245 194 241.0 226.5Q237 259 233.0 293.5Q229 328 225.0 356.5Q221 385 219 399Q209 340 200.0 284.5Q191 229 180 177Q173 142 166.5 104.5Q160 67 152 29Z" transform="translate(158.64, 54) scale(0.052, -0.052)" fill="#fff"/>
  <path d="M60 -5Q46 -5 32.0 -3.5Q18 -2 4 0L57 269Q67 324 78.5 385.5Q90 447 101.0 507.5Q112 568 120.5 620.0Q129 672 134 708Q177 716 221.0 723.0Q265 730 311 730Q385 730 428.0 699.5Q471 669 490.0 619.5Q509 570 509 511Q509 458 494.0 399.5Q479 341 451.5 283.5Q424 226 386 175Q327 96 242.5 45.5Q158 -5 60 -5ZM179 121Q214 144 245.5 191.0Q277 238 305 304Q330 365 344.0 419.5Q358 474 358 510Q358 547 337.5 568.0Q317 589 273 589Q257 503 240.5 430.0Q224 357 208.5 283.0Q193 209 179 121Z" transform="translate(189.19599999999997, 58) scale(0.052, -0.052)" fill="#000" stroke="#000" stroke-width="50"/>
  <path d="M60 -5Q46 -5 32.0 -3.5Q18 -2 4 0L57 269Q67 324 78.5 385.5Q90 447 101.0 507.5Q112 568 120.5 620.0Q129 672 134 708Q177 716 221.0 723.0Q265 730 311 730Q385 730 428.0 699.5Q471 669 490.0 619.5Q509 570 509 511Q509 458 494.0 399.5Q479 341 451.5 283.5Q424 226 386 175Q327 96 242.5 45.5Q158 -5 60 -5ZM179 121Q214 144 245.5 191.0Q277 238 305 304Q330 365 344.0 419.5Q358 474 358 510Q358 547 337.5 568.0Q317 589 273 589Q257 503 240.5 430.0Q224 357 208.5 283.0Q193 209 179 121Z" transform="translate(185.19599999999997, 54) scale(0.052, -0.052)" fill="#000" stroke="#000" stroke-width="50"/>
  <path d="M60 -5Q46 -5 32.0 -3.5Q18 -2 4 0L57 269Q67 324 78.5 385.5Q90 447 101.0 507.5Q112 568 120.5 620.0Q129 672 134 708Q177 716 221.0 723.0Q265 730 311 730Q385 730 428.0 699.5Q471 669 490.0 619.5Q509 570 509 511Q509 458 494.0 399.5Q479 341 451.5 283.5Q424 226 386 175Q327 96 242.5 45.5Q158 -5 60 -5ZM179 121Q214 144 245.5 191.0Q277 238 305 304Q330 365 344.0 419.5Q358 474 358 510Q358 547 337.5 568.0Q317 589 273 589Q257 503 240.5 430.0Q224 357 208.5 283.0Q193 209 179 121Z" transform="translate(185.19599999999997, 54) scale(0.052, -0.052)" fill="#fff"/>
  <path d="M41 -4 117 706Q140 707 162.5 709.5Q185 712 206 716Q226 720 247.0 722.5Q268 725 288 726L285 706Q284 696 281.5 683.5Q279 671 277 655Q272 620 265.0 575.0Q258 530 249 475Q243 441 235.5 393.0Q228 345 218 284H233Q246 330 257.0 368.0Q268 406 276 435Q284 464 291.5 487.5Q299 511 304 530Q325 604 338.0 651.0Q351 698 355 712H364Q390 712 418.5 716.0Q447 720 470 725Q469 721 466.0 692.0Q463 663 459.0 621.0Q455 579 451 534Q444 449 438.5 386.0Q433 323 429 284H447L542 714L609 723Q623 725 638.0 727.0Q653 729 669 731Q698 735 724 740Q694 656 664.0 542.0Q634 428 604 311Q588 247 572.5 181.5Q557 116 542 48L316 10L360 396H348L249 33Z" transform="translate(230.72799999999995, 58) scale(0.052, -0.052)" fill="#000" stroke="#000" stroke-width="50"/>
  <path d="M41 -4 117 706Q140 707 162.5 709.5Q185 712 206 716Q226 720 247.0 722.5Q268 725 288 726L285 706Q284 696 281.5 683.5Q279 671 277 655Q272 620 265.0 575.0Q258 530 249 475Q243 441 235.5 393.0Q228 345 218 284H233Q246 330 257.0 368.0Q268 406 276 435Q284 464 291.5 487.5Q299 511 304 530Q325 604 338.0 651.0Q351 698 355 712H364Q390 712 418.5 716.0Q447 720 470 725Q469 721 466.0 692.0Q463 663 459.0 621.0Q455 579 451 534Q444 449 438.5 386.0Q433 323 429 284H447L542 714L609 723Q623 725 638.0 727.0Q653 729 669 731Q698 735 724 740Q694 656 664.0 542.0Q634 428 604 311Q588 247 572.5 181.5Q557 116 542 48L316 10L360 396H348L249 33Z" transform="translate(226.72799999999995, 54) scale(0.052, -0.052)" fill="#000" stroke="#000" stroke-width="50"/>
  <path d="M41 -4 117 706Q140 707 162.5 709.5Q185 712 206 716Q226 720 247.0 722.5Q268 725 288 726L285 706Q284 696 281.5 683.5Q279 671 277 655Q272 620 265.0 575.0Q258 530 249 475Q243 441 235.5 393.0Q228 345 218 284H233Q246 330 257.0 368.0Q268 406 276 435Q284 464 291.5 487.5Q299 511 304 530Q325 604 338.0 651.0Q351 698 355 712H364Q390 712 418.5 716.0Q447 720 470 725Q469 721 466.0 692.0Q463 663 459.0 621.0Q455 579 451 534Q444 449 438.5 386.0Q433 323 429 284H447L542 714L609 723Q623 725 638.0 727.0Q653 729 669 731Q698 735 724 740Q694 656 664.0 542.0Q634 428 604 311Q588 247 572.5 181.5Q557 116 542 48L316 10L360 396H348L249 33Z" transform="translate(226.72799999999995, 54) scale(0.052, -0.052)" fill="#fff"/>
  <path d="M9 -2Q22 67 34.5 134.5Q47 202 60 269Q74 352 86.5 425.0Q99 498 111.5 570.0Q124 642 136 721L298 732Q281 662 264.5 586.0Q248 510 234 438L333 449Q340 484 346.5 518.5Q353 553 358 587Q363 620 370.5 654.5Q378 689 387 724Q423 730 460.0 733.5Q497 737 522.0 738.5Q547 740 547 740Q534 700 521.0 646.0Q508 592 496.0 532.0Q484 472 473.0 412.5Q462 353 453 302Q442 238 432.0 173.5Q422 109 412 42L256 24Q263 54 268.5 83.5Q274 113 279 141Q289 189 299.5 241.0Q310 293 316 330L219 321Q215 302 211.5 280.0Q208 258 203 233Q198 208 193.5 184.5Q189 161 185 138Q180 111 174.0 84.0Q168 57 163 30Z" transform="translate(264.97999999999996, 58) scale(0.052, -0.052)" fill="#000" stroke="#000" stroke-width="50"/>
  <path d="M9 -2Q22 67 34.5 134.5Q47 202 60 269Q74 352 86.5 425.0Q99 498 111.5 570.0Q124 642 136 721L298 732Q281 662 264.5 586.0Q248 510 234 438L333 449Q340 484 346.5 518.5Q353 553 358 587Q363 620 370.5 654.5Q378 689 387 724Q423 730 460.0 733.5Q497 737 522.0 738.5Q547 740 547 740Q534 700 521.0 646.0Q508 592 496.0 532.0Q484 472 473.0 412.5Q462 353 453 302Q442 238 432.0 173.5Q422 109 412 42L256 24Q263 54 268.5 83.5Q274 113 279 141Q289 189 299.5 241.0Q310 293 316 330L219 321Q215 302 211.5 280.0Q208 258 203 233Q198 208 193.5 184.5Q189 161 185 138Q180 111 174.0 84.0Q168 57 163 30Z" transform="translate(260.97999999999996, 54) scale(0.052, -0.052)" fill="#000" stroke="#000" stroke-width="50"/>
  <path d="M9 -2Q22 67 34.5 134.5Q47 202 60 269Q74 352 86.5 425.0Q99 498 111.5 570.0Q124 642 136 721L298 732Q281 662 264.5 586.0Q248 510 234 438L333 449Q340 484 346.5 518.5Q353 553 358 587Q363 620 370.5 654.5Q378 689 387 724Q423 730 460.0 733.5Q497 737 522.0 738.5Q547 740 547 740Q534 700 521.0 646.0Q508 592 496.0 532.0Q484 472 473.0 412.5Q462 353 453 302Q442 238 432.0 173.5Q422 109 412 42L256 24Q263 54 268.5 83.5Q274 113 279 141Q289 189 299.5 241.0Q310 293 316 330L219 321Q215 302 211.5 280.0Q208 258 203 233Q198 208 193.5 184.5Q189 161 185 138Q180 111 174.0 84.0Q168 57 163 30Z" transform="translate(260.97999999999996, 54) scale(0.052, -0.052)" fill="#fff"/>
  <path d="M8 -1 139 710 455 737Q448 715 443 692Q438 673 433.5 652.5Q429 632 426 616Q413 615 389.0 614.5Q365 614 340.0 613.5Q315 613 297.0 613.0Q279 613 278 613L243 434L301 437Q312 438 323.5 438.0Q335 438 346 438Q357 438 366.0 438.0Q375 438 380 439Q378 425 376.5 411.5Q375 398 373 384L364 329Q359 328 351.0 328.0Q343 328 332 328Q321 327 309.0 327.0Q297 327 286 326Q273 325 259.0 325.0Q245 325 229 324L195 140L341 163L331 49Z" transform="translate(290.96399999999994, 58) scale(0.052, -0.052)" fill="#000" stroke="#000" stroke-width="50"/>
  <path d="M8 -1 139 710 455 737Q448 715 443 692Q438 673 433.5 652.5Q429 632 426 616Q413 615 389.0 614.5Q365 614 340.0 613.5Q315 613 297.0 613.0Q279 613 278 613L243 434L301 437Q312 438 323.5 438.0Q335 438 346 438Q357 438 366.0 438.0Q375 438 380 439Q378 425 376.5 411.5Q375 398 373 384L364 329Q359 328 351.0 328.0Q343 328 332 328Q321 327 309.0 327.0Q297 327 286 326Q273 325 259.0 325.0Q245 325 229 324L195 140L341 163L331 49Z" transform="translate(286.96399999999994, 54) scale(0.052, -0.052)" fill="#000" stroke="#000" stroke-width="50"/>
  <path d="M8 -1 139 710 455 737Q448 715 443 692Q438 673 433.5 652.5Q429 632 426 616Q413 615 389.0 614.5Q365 614 340.0 613.5Q315 613 297.0 613.0Q279 613 278 613L243 434L301 437Q312 438 323.5 438.0Q335 438 346 438Q357 438 366.0 438.0Q375 438 380 439Q378 425 376.5 411.5Q375 398 373 384L364 329Q359 328 351.0 328.0Q343 328 332 328Q321 327 309.0 327.0Q297 327 286 326Q273 325 259.0 325.0Q245 325 229 324L195 140L341 163L331 49Z" transform="translate(286.96399999999994, 54) scale(0.052, -0.052)" fill="#fff"/>
  <path d="M4 -1 56 259Q68 331 82.0 407.0Q96 483 108.5 557.0Q121 631 128 696Q185 714 251.0 722.5Q317 731 382 731Q458 731 485.5 698.0Q513 665 513 609Q513 558 489.0 506.5Q465 455 426.5 413.5Q388 372 342 348Q360 308 380.5 260.5Q401 213 419 170Q429 145 439.5 120.0Q450 95 460 70L305 16Q295 51 286.0 83.0Q277 115 269 146Q259 183 250.0 217.5Q241 252 234.5 279.0Q228 306 227 317L214 313Q208 281 199.5 235.0Q191 189 184 146L166 41ZM239 433Q257 435 283.5 448.5Q310 462 336.5 482.0Q363 502 381.0 523.0Q399 544 399 560Q399 580 375.5 586.5Q352 593 314 593H292Q286 592 281.0 592.0Q276 592 271 592Z" transform="translate(311.6959999999999, 58) scale(0.052, -0.052)" fill="#000" stroke="#000" stroke-width="50"/>
  <path d="M4 -1 56 259Q68 331 82.0 407.0Q96 483 108.5 557.0Q121 631 128 696Q185 714 251.0 722.5Q317 731 382 731Q458 731 485.5 698.0Q513 665 513 609Q513 558 489.0 506.5Q465 455 426.5 413.5Q388 372 342 348Q360 308 380.5 260.5Q401 213 419 170Q429 145 439.5 120.0Q450 95 460 70L305 16Q295 51 286.0 83.0Q277 115 269 146Q259 183 250.0 217.5Q241 252 234.5 279.0Q228 306 227 317L214 313Q208 281 199.5 235.0Q191 189 184 146L166 41ZM239 433Q257 435 283.5 448.5Q310 462 336.5 482.0Q363 502 381.0 523.0Q399 544 399 560Q399 580 375.5 586.5Q352 593 314 593H292Q286 592 281.0 592.0Q276 592 271 592Z" transform="translate(307.6959999999999, 54) scale(0.052, -0.052)" fill="#000" stroke="#000" stroke-width="50"/>
  <path d="M4 -1 56 259Q68 331 82.0 407.0Q96 483 108.5 557.0Q121 631 128 696Q185 714 251.0 722.5Q317 731 382 731Q458 731 485.5 698.0Q513 665 513 609Q513 558 489.0 506.5Q465 455 426.5 413.5Q388 372 342 348Q360 308 380.5 260.5Q401 213 419 170Q429 145 439.5 120.0Q450 95 460 70L305 16Q295 51 286.0 83.0Q277 115 269 146Q259 183 250.0 217.5Q241 252 234.5 279.0Q228 306 227 317L214 313Q208 281 199.5 235.0Q191 189 184 146L166 41ZM239 433Q257 435 283.5 448.5Q310 462 336.5 482.0Q363 502 381.0 523.0Q399 544 399 560Q399 580 375.5 586.5Q352 593 314 593H292Q286 592 281.0 592.0Q276 592 271 592Z" transform="translate(307.6959999999999, 54) scale(0.052, -0.052)" fill="#fff"/>
  <path d="M8 -1 139 710 455 737Q448 715 443 692Q438 673 433.5 652.5Q429 632 426 616Q413 615 389.0 614.5Q365 614 340.0 613.5Q315 613 297.0 613.0Q279 613 278 613L243 434L301 437Q312 438 323.5 438.0Q335 438 346 438Q357 438 366.0 438.0Q375 438 380 439Q378 425 376.5 411.5Q375 398 373 384L364 329Q359 328 351.0 328.0Q343 328 332 328Q321 327 309.0 327.0Q297 327 286 326Q273 325 259.0 325.0Q245 325 229 324L195 140L341 163L331 49Z" transform="translate(337.78399999999993, 58) scale(0.052, -0.052)" fill="#000" stroke="#000" stroke-width="50"/>
  <path d="M8 -1 139 710 455 737Q448 715 443 692Q438 673 433.5 652.5Q429 632 426 616Q413 615 389.0 614.5Q365 614 340.0 613.5Q315 613 297.0 613.0Q279 613 278 613L243 434L301 437Q312 438 323.5 438.0Q335 438 346 438Q357 438 366.0 438.0Q375 438 380 439Q378 425 376.5 411.5Q375 398 373 384L364 329Q359 328 351.0 328.0Q343 328 332 328Q321 327 309.0 327.0Q297 327 286 326Q273 325 259.0 325.0Q245 325 229 324L195 140L341 163L331 49Z" transform="translate(333.78399999999993, 54) scale(0.052, -0.052)" fill="#000" stroke="#000" stroke-width="50"/>
  <path d="M8 -1 139 710 455 737Q448 715 443 692Q438 673 433.5 652.5Q429 632 426 616Q413 615 389.0 614.5Q365 614 340.0 613.5Q315 613 297.0 613.0Q279 613 278 613L243 434L301 437Q312 438 323.5 438.0Q335 438 346 438Q357 438 366.0 438.0Q375 438 380 439Q378 425 376.5 411.5Q375 398 373 384L364 329Q359 328 351.0 328.0Q343 328 332 328Q321 327 309.0 327.0Q297 327 286 326Q273 325 259.0 325.0Q245 325 229 324L195 140L341 163L331 49Z" transform="translate(333.78399999999993, 54) scale(0.052, -0.052)" fill="#fff"/>
</svg>