<svg xmlns="http://www.w3.org/2000/svg" viewBox="0 0 250.42 76" width="250.42" height="76">
  <path d="M68 -4Q31 -4 -1 2Q47 177 75.5 354.5Q104 532 130 712Q182 723 238.0 731.5Q294 740 354 740Q387 740 424.0 728.5Q461 717 486.5 687.5Q512 658 512 604Q512 554 491.0 512.0Q470 470 438.0 440.0Q406 410 372 397Q386 390 405.0 372.0Q424 354 438.0 324.0Q452 294 452 251Q452 191 416.5 142.5Q381 94 322 62Q265 30 199.0 13.0Q133 -4 68 -4ZM246 479Q277 485 305.0 495.0Q333 505 350.5 518.0Q368 531 368 546Q368 565 353.0 576.0Q338 587 317.0 592.0Q296 597 278 597H268Q261 557 255.0 527.5Q249 498 246 479ZM195 198Q215 200 239.0 205.0Q263 210 285.0 220.5Q307 231 321.5 248.5Q336 266 336 291Q336 315 320.0 329.0Q304 343 281.5 349.5Q259 356 239 356H231Q226 356 223 355Q217 318 209.0 277.0Q201 236 195 198Z" transform="translate(14, 58) scale(0.052, -0.052)" fill="#000" stroke="#000" stroke-width="50"/>
  <path d="M68 -4Q31 -4 -1 2Q47 177 75.5 354.5Q104 532 130 712Q182 723 238.0 731.5Q294 740 354 740Q387 740 424.0 728.5Q461 717 486.5 687.5Q512 658 512 604Q512 554 491.0 512.0Q470 470 438.0 440.0Q406 410 372 397Q386 390 405.0 372.0Q424 354 438.0 324.0Q452 294 452 251Q452 191 416.5 142.5Q381 94 322 62Q265 30 199.0 13.0Q133 -4 68 -4ZM246 479Q277 485 305.0 495.0Q333 505 350.5 518.0Q368 531 368 546Q368 565 353.0 576.0Q338 587 317.0 592.0Q296 597 278 597H268Q261 557 255.0 527.5Q249 498 246 479ZM195 198Q215 200 239.0 205.0Q263 210 285.0 220.5Q307 231 321.5 248.5Q336 266 336 291Q336 315 320.0 329.0Q304 343 281.5 349.5Q259 356 239 356H231Q226 356 223 355Q217 318 209.0 277.0Q201 236 195 198Z" transform="translate(10, 54) scale(0.052, -0.052)" fill="#000" stroke="#000" stroke-width="50"/>
  <path d="M68 -4Q31 -4 -1 2Q47 177 75.5 354.5Q104 532 130 712Q182 723 238.0 731.5Q294 740 354 740Q387 740 424.0 728.5Q461 717 486.5 687.5Q512 658 512 604Q512 554 491.0 512.0Q470 470 438.0 440.0Q406 410 372 397Q386 390 405.0 372.0Q424 354 438.0 324.0Q452 294 452 251Q452 191 416.5 142.5Q381 94 322 62Q265 30 199.0 13.0Q133 -4 68 -4ZM246 479Q277 485 305.0 495.0Q333 505 350.5 518.0Q368 531 368 546Q368 565 353.0 576.0Q338 587 317.0 592.0Q296 597 278 597H268Q261 557 255.0 527.5Q249 498 246 479ZM195 198Q215 200 239.0 205.0Q263 210 285.0 220.5Q307 231 321.5 248.5Q336 266 336 291Q336 315 320.0 329.0Q304 343 281.5 349.5Q259 356 239 356H231Q226 356 223 355Q217 318 209.0 277.0Q201 236 195 198Z" transform="translate(10, 54) scale(0.052, -0.052)" fill="#fff"/>
  <path d="M165 -18Q135 -18 104.0 -5.0Q73 8 52.0 35.0Q31 62 31 104V112Q31 117 32 120Q35 146 40.5 188.0Q46 230 54.0 279.5Q62 329 70.5 378.0Q79 427 86 467Q101 547 110.0 596.0Q119 645 124.5 671.5Q130 698 133 711L298 727Q285 666 273.5 611.5Q262 557 252 508L206 287Q200 262 197 245Q193 229 188.5 204.5Q184 180 184 160Q184 144 192.0 133.5Q200 123 212 123Q229 123 240.0 136.0Q251 149 258.0 168.0Q265 187 269.0 206.5Q273 226 276 238Q286 284 294.5 327.5Q303 371 312.5 420.0Q322 469 334 533Q342 577 350.5 622.5Q359 668 367 715L519 725L484 532Q477 495 468.5 449.0Q460 403 450.0 356.0Q440 309 431.5 267.0Q423 225 416 195Q396 113 354.0 66.5Q312 20 261.5 1.0Q211 -18 165 -18Z" transform="translate(39.256, 58) scale(0.052, -0.052)" fill="#000" stroke="#000" stroke-width="50"/>
  <path d="M165 -18Q135 -18 104.0 -5.0Q73 8 52.0 35.0Q31 62 31 104V112Q31 117 32 120Q35 146 40.5 188.0Q46 230 54.0 279.5Q62 329 70.5 378.0Q79 427 86 467Q101 547 110.0 596.0Q119 645 124.5 671.5Q130 698 133 711L298 727Q285 666 273.5 611.5Q262 557 252 508L206 287Q200 262 197 245Q193 229 188.5 204.5Q184 180 184 160Q184 144 192.0 133.5Q200 123 212 123Q229 123 240.0 136.0Q251 149 258.0 168.0Q265 187 269.0 206.5Q273 226 276 238Q286 284 294.5 327.5Q303 371 312.5 420.0Q322 469 334 533Q342 577 350.5 622.5Q359 668 367 715L519 725L484 532Q477 495 468.5 449.0Q460 403 450.0 356.0Q440 309 431.5 267.0Q423 225 416 195Q396 113 354.0 66.5Q312 20 261.5 1.0Q211 -18 165 -18Z" transform="translate(35.256, 54) scale(0.052, -0.052)" fill="#000" stroke="#000" stroke-width="50"/>
  <path d="M165 -18Q135 -18 104.0 -5.0Q73 8 52.0 35.0Q31 62 31 104V112Q31 117 32 120Q35 146 40.5 188.0Q46 230 54.0 279.5Q62 329 70.5 378.0Q79 427 86 467Q101 547 110.0 596.0Q119 645 124.5 671.5Q130 698 133 711L298 727Q285 666 273.5 611.5Q262 557 252 508L206 287Q200 262 197 245Q193 229 188.5 204.5Q184 180 184 160Q184 144 192.0 133.5Q200 123 212 123Q229 123 240.0 136.0Q251 149 258.0 168.0Q265 187 269.0 206.5Q273 226 276 238Q286 284 294.5 327.5Q303 371 312.5 420.0Q322 469 334 533Q342 577 350.5 622.5Q359 668 367 715L519 725L484 532Q477 495 468.5 449.0Q460 403 450.0 356.0Q440 309 431.5 267.0Q423 225 416 195Q396 113 354.0 66.5Q312 20 261.5 1.0Q211 -18 165 -18Z" transform="translate(35.256, 54) scale(0.052, -0.052)" fill="#fff"/>
  <path d="M-6 1Q11 60 27.5 135.0Q44 210 59.5 288.5Q75 367 89 437Q102 501 114.0 567.0Q126 633 138 700L294 725Q281 658 268.0 592.5Q255 527 242 462Q228 392 213.0 314.0Q198 236 184.0 160.5Q170 85 158 20Q140 20 113.0 17.5Q86 15 59.0 11.5Q32 8 13.5 5.0Q-5 2 -6 1Z" transform="translate(64.044, 58) scale(0.052, -0.052)" fill="#000" stroke="#000" stroke-width="50"/>
  <path d="M-6 1Q11 60 27.5 135.0Q44 210 59.5 288.5Q75 367 89 437Q102 501 114.0 567.0Q126 633 138 700L294 725Q281 658 268.0 592.5Q255 527 242 462Q228 392 213.0 314.0Q198 236 184.0 160.5Q170 85 158 20Q140 20 113.0 17.5Q86 15 59.0 11.5Q32 8 13.5 5.0Q-5 2 -6 1Z" transform="translate(60.044, 54) scale(0.052, -0.052)" fill="#000" stroke="#000" stroke-width="50"/>
  <path d="M-6 1Q11 60 27.5 135.0Q44 210 59.5 288.5Q75 367 89 437Q102 501 114.0 567.0Q126 633 138 700L294 725Q281 658 268.0 592.5Q255 527 242 462Q228 392 213.0 314.0Q198 236 184.0 160.5Q170 85 158 20Q140 20 113.0 17.5Q86 15 59.0 11.5Q32 8 13.5 5.0Q-5 2 -6 1Z" transform="translate(60.044, 54) scale(0.052, -0.052)" fill="#fff"/>
  <path d="M12 -2Q23 77 35.5 157.0Q48 237 61.5 311.5Q75 386 87 446Q100 511 113.0 578.0Q126 645 140 713L315 736L263 510Q249 451 234.5 383.5Q220 316 208.0 253.0Q196 190 189 141Q214 143 242.5 143.5Q271 144 293 144Q294 121 297.0 95.5Q300 70 303.5 51.5Q307 33 307 31Q303 31 299.5 31.0Q296 31 292 32H276Q237 32 189.5 28.5Q142 25 95.5 17.5Q49 10 12 -2Z" transform="translate(77.444, 58) scale(0.052, -0.052)" fill="#000" stroke="#000" stroke-width="50"/>
  <path d="M12 -2Q23 77 35.5 157.0Q48 237 61.5 311.5Q75 386 87 446Q100 511 113.0 578.0Q126 645 140 713L315 736L263 510Q249 451 234.5 383.5Q220 316 208.0 253.0Q196 190 189 141Q214 143 242.5 143.5Q271 144 293 144Q294 121 297.0 95.5Q300 70 303.5 51.5Q307 33 307 31Q303 31 299.5 31.0Q296 31 292 32H276Q237 32 189.5 28.5Q142 25 95.5 17.5Q49 10 12 -2Z" transform="translate(73.444, 54) scale(0.052, -0.052)" fill="#000" stroke="#000" stroke-width="50"/>
  <path d="M12 -2Q23 77 35.5 157.0Q48 237 61.5 311.5Q75 386 87 446Q100 511 113.0 578.0Q126 645 140 713L315 736L263 510Q249 451 234.5 383.5Q220 316 208.0 253.0Q196 190 189 141Q214 143 242.5 143.5Q271 144 293 144Q294 121 297.0 95.5Q300 70 303.5 51.5Q307 33 307 31Q303 31 299.5 31.0Q296 31 292 32H276Q237 32 189.5 28.5Q142 25 95.5 17.5Q49 10 12 -2Z" transform="translate(73.444, 54) scale(0.052, -0.052)" fill="#fff"/>
  <path d="M60 -5Q46 -5 32.0 -3.5Q18 -2 4 0L57 269Q67 324 78.5 385.5Q90 447 101.0 507.5Q112 568 120.5 620.0Q129 672 134 708Q177 716 221.0 723.0Q265 730 311 730Q385 730 428.0 699.5Q471 669 490.0 619.5Q509 570 509 511Q509 458 494.0 399.5Q479 341 451.5 283.5Q424 226 386 175Q327 96 242.5 45.5Q158 -5 60 -5ZM179 121Q214 144 245.5 191.0Q277 238 305 304Q330 365 344.0 419.5Q358 474 358 510Q358 547 337.5 568.0Q317 589 273 589Q257 503 240.5 430.0Q224 357 208.5 283.0Q193 209 179 121Z" transform="translate(96.148, 58) scale(0.052, -0.052)" fill="#000" stroke="#000" stroke-width="50"/>
  <path d="M60 -5Q46 -5 32.0 -3.5Q18 -2 4 0L57 269Q67 324 78.5 385.5Q90 447 101.0 507.5Q112 568 120.5 620.0Q129 672 134 708Q177 716 221.0 723.0Q265 730 311 730Q385 730 428.0 699.5Q471 669 490.0 619.5Q509 570 509 511Q509 458 494.0 399.5Q479 341 451.5 283.5Q424 226 386 175Q327 96 242.5 45.5Q158 -5 60 -5ZM179 121Q214 144 245.5 191.0Q277 238 305 304Q330 365 344.0 419.5Q358 474 358 510Q358 547 337.5 568.0Q317 589 273 589Q257 503 240.5 430.0Q224 357 208.5 283.0Q193 209 179 121Z" transform="translate(92.148, 54) scale(0.052, -0.052)" fill="#000" stroke="#000" stroke-width="50"/>
  <path d="M60 -5Q46 -5 32.0 -3.5Q18 -2 4 0L57 269Q67 324 78.5 385.5Q90 447 101.0 507.5Q112 568 120.5 620.0Q129 672 134 708Q177 716 221.0 723.0Q265 730 311 730Q385 730 428.0 699.5Q471 669 490.0 619.5Q509 570 509 511Q509 458 494.0 399.5Q479 341 451.5 283.5Q424 226 386 175Q327 96 242.5 45.5Q158 -5 60 -5ZM179 121Q214 144 245.5 191.0Q277 238 305 304Q330 365 344.0 419.5Q358 474 358 510Q358 547 337.5 568.0Q317 589 273 589Q257 503 240.5 430.0Q224 357 208.5 283.0Q193 209 179 121Z" transform="translate(92.148, 54) scale(0.052, -0.052)" fill="#fff"/>
  <path d="M41 -4 117 706Q140 707 162.5 709.5Q185 712 206 716Q226 720 247.0 722.5Q268 725 288 726L285 706Q284 696 281.5 683.5Q279 671 277 655Q272 620 265.0 575.0Q258 530 249 475Q243 441 235.5 393.0Q228 345 218 284H233Q246 330 257.0 368.0Q268 406 276 435Q284 464 291.5 487.5Q299 511 304 530Q325 604 338.0 651.0Q351 698 355 712H364Q390 712 418.5 716.0Q447 720 470 725Q469 721 466.0 692.0Q463 663 459.0 621.0Q455 579 451 534Q444 449 438.5 386.0Q433 323 429 284H447L542 714L609 723Q623 725 638.0 727.0Q653 729 669 731Q698 735 724 740Q694 656 664.0 542.0Q634 428 604 311Q588 247 572.5 181.5Q557 116 542 48L316 10L360 396H348L249 33Z" transform="translate(137.68, 58) scale(0.052, -0.052)" fill="#000" stroke="#000" stroke-width="50"/>
  <path d="M41 -4 117 706Q140 707 162.5 709.5Q185 712 206 716Q226 720 247.0 722.5Q268 725 288 726L285 706Q284 696 281.5 683.5Q279 671 277 655Q272 620 265.0 575.0Q258 530 249 475Q243 441 235.5 393.0Q228 345 218 284H233Q246 330 257.0 368.0Q268 406 276 435Q284 464 291.5 487.5Q299 511 304 530Q325 604 338.0 651.0Q351 698 355 712H364Q390 712 418.5 716.0Q447 720 470 725Q469 721 466.0 692.0Q463 663 459.0 621.0Q455 579 451 534Q444 449 438.5 386.0Q433 323 429 284H447L542 714L609 723Q623 725 638.0 727.0Q653 729 669 731Q698 735 724 740Q694 656 664.0 542.0Q634 428 604 311Q588 247 572.5 181.5Q557 116 542 48L316 10L360 396H348L249 33Z" transform="translate(133.68, 54) scale(0.052, -0.052)" fill="#000" stroke="#000" stroke-width="50"/>
  <path d="M41 -4 117 706Q140 707 162.5 709.5Q185 712 206 716Q226 720 247.0 722.5Q268 725 288 726L285 706Q284 696 281.5 683.5Q279 671 277 655Q272 620 265.0 575.0Q258 530 249 475Q243 441 235.5 393.0Q228 345 218 284H233Q246 330 257.0 368.0Q268 406 276 435Q284 464 291.5 487.5Q299 511 304 530Q325 604 338.0 651.0Q351 698 355 712H364Q390 712 418.5 716.0Q447 720 470 725Q469 721 466.0 692.0Q463 663 459.0 621.0Q455 579 451 534Q444 449 438.5 386.0Q433 323 429 284H447L542 714L609 723Q623 725 638.0 727.0Q653 729 669 731Q698 735 724 740Q694 656 664.0 542.0Q634 428 604 311Q588 247 572.5 181.5Q557 116 542 48L316 10L360 396H348L249 33Z" transform="translate(133.68, 54) scale(0.052, -0.052)" fill="#fff"/>
  <path d="M8 -1 139 710 455 737Q448 715 443 692Q438 673 433.5 652.5Q429 632 426 616Q413 615 389.0 614.5Q365 614 340.0 613.5Q315 613 297.0 613.0Q279 613 278 613L243 434L301 437Q312 438 323.5 438.0Q335 438 346 438Q357 438 366.0 438.0Q375 438 380 439Q378 425 376.5 411.5Q375 398 373 384L364 329Q359 328 351.0 328.0Q343 328 332 328Q321 327 309.0 327.0Q297 327 286 326Q273 325 259.0 325.0Q245 325 229 324L195 140L341 163L331 49Z" transform="translate(171.93200000000002, 58) scale(0.052, -0.052)" fill="#000" stroke="#000" stroke-width="50"/>
  <path d="M8 -1 139 710 455 737Q448 715 443 692Q438 673 433.5 652.5Q429 632 426 616Q413 615 389.0 614.5Q365 614 340.0 613.5Q315 613 297.0 613.0Q279 613 278 613L243 434L301 437Q312 438 323.5 438.0Q335 438 346 438Q357 438 366.0 438.0Q375 438 380 439Q378 425 376.5 411.5Q375 398 373 384L364 329Q359 328 351.0 328.0Q343 328 332 328Q321 327 309.0 327.0Q297 327 286 326Q273 325 259.0 325.0Q245 325 229 324L195 140L341 163L331 49Z" transform="translate(167.93200000000002, 54) scale(0.052, -0.052)" fill="#000" stroke="#000" stroke-width="50"/>
  <path d="M8 -1 139 710 455 737Q448 715 443 692Q438 673 433.5 652.5Q429 632 426 616Q413 615 389.0 614.5Q365 614 340.0 613.5Q315 613 297.0 613.0Q279 613 278 613L243 434L301 437Q312 438 323.5 438.0Q335 438 346 438Q357 438 366.0 438.0Q375 438 380 439Q378 425 376.5 411.5Q375 398 373 384L364 329Q359 328 351.0 328.0Q343 328 332 328Q321 327 309.0 327.0Q297 327 286 326Q273 325 259.0 325.0Q245 325 229 324L195 140L341 163L331 49Z" transform="translate(167.93200000000002, 54) scale(0.052, -0.052)" fill="#fff"/>
  <path d="M8 -1 139 710 455 737Q448 715 443 692Q438 673 433.5 652.5Q429 632 426 616Q413 615 389.0 614.5Q365 614 340.0 613.5Q315 613 297.0 613.0Q279 613 278 613L243 434L301 437Q312 438 323.5 438.0Q335 438 346 438Q357 438 366.0 438.0Q375 438 380 439Q378 425 376.5 411.5Q375 398 373 384L364 329Q359 328 351.0 328.0Q343 328 332 328Q321 327 309.0 327.0Q297 327 286 326Q273 325 259.0 325.0Q245 325 229 324L195 140L341 163L331 49Z" transform="translate(192.66400000000002, 58) scale(0.052, -0.052)" fill="#000" stroke="#000" stroke-width="50"/>
  <path d="M8 -1 139 710 455 737Q448 715 443 692Q438 673 433.5 652.5Q429 632 426 616Q413 615 389.0 614.5Q365 614 340.0 613.5Q315 613 297.0 613.0Q279 613 278 613L243 434L301 437Q312 438 323.5 438.0Q335 438 346 438Q357 438 366.0 438.0Q375 438 380 439Q378 425 376.5 411.5Q375 398 373 384L364 329Q359 328 351.0 328.0Q343 328 332 328Q321 327 309.0 327.0Q297 327 286 326Q273 325 259.0 325.0Q245 325 229 324L195 140L341 163L331 49Z" transform="translate(188.66400000000002, 54) scale(0.052, -0.052)" fill="#000" stroke="#000" stroke-width="50"/>
  <path d="M8 -1 139 710 455 737Q448 715 443 692Q438 673 433.5 652.5Q429 632 426 616Q413 615 389.0 614.5Q365 614 340.0 613.5Q315 613 297.0 613.0Q279 613 278 613L243 434L301 437Q312 438 323.5 438.0Q335 438 346 438Q357 438 366.0 438.0Q375 438 380 439Q378 425 376.5 411.5Q375 398 373 384L364 329Q359 328 351.0 328.0Q343 328 332 328Q321 327 309.0 327.0Q297 327 286 326Q273 325 259.0 325.0Q245 325 229 324L195 140L341 163L331 49Z" transform="translate(188.66400000000002, 54) scale(0.052, -0.052)" fill="#fff"/>
  <path d="M7 -1Q22 69 36.0 137.0Q50 205 63 271Q84 390 104.0 506.5Q124 623 133 729L185 726Q199 725 212.5 724.0Q226 723 239 722Q254 721 269.0 720.5Q284 720 299 720Q297 712 292.5 688.0Q288 664 283.5 639.5Q279 615 277 606L259 507L265 508Q294 553 332.0 612.0Q370 671 403 725Q453 729 503.0 734.0Q553 739 603 747Q580 716 557.0 685.0Q534 654 512 623Q489 591 462.0 553.0Q435 515 410.5 478.5Q386 442 370 416Q381 366 394.0 317.0Q407 268 422 221Q437 174 452.0 126.0Q467 78 483 29Q460 30 436.0 30.5Q412 31 389 31Q360 31 333.0 30.5Q306 30 277 29Q273 61 268.0 95.5Q263 130 258 166Q253 201 248.0 235.5Q243 270 238 302L220 281Q213 252 205 207Q201 185 196.5 163.5Q192 142 188 122Q184 98 179.0 73.5Q174 49 169 23Z" transform="translate(213.39600000000002, 58) scale(0.052, -0.052)" fill="#000" stroke="#000" stroke-width="50"/>
  <path d="M7 -1Q22 69 36.0 137.0Q50 205 63 271Q84 390 104.0 506.5Q124 623 133 729L185 726Q199 725 212.5 724.0Q226 723 239 722Q254 721 269.0 720.5Q284 720 299 720Q297 712 292.5 688.0Q288 664 283.5 639.5Q279 615 277 606L259 507L265 508Q294 553 332.0 612.0Q370 671 403 725Q453 729 503.0 734.0Q553 739 603 747Q580 716 557.0 685.0Q534 654 512 623Q489 591 462.0 553.0Q435 515 410.5 478.5Q386 442 370 416Q381 366 394.0 317.0Q407 268 422 221Q437 174 452.0 126.0Q467 78 483 29Q460 30 436.0 30.5Q412 31 389 31Q360 31 333.0 30.5Q306 30 277 29Q273 61 268.0 95.5Q263 130 258 166Q253 201 248.0 235.5Q243 270 238 302L220 281Q213 252 205 207Q201 185 196.5 163.5Q192 142 188 122Q184 98 179.0 73.5Q174 49 169 23Z" transform="translate(209.39600000000002, 54) scale(0.052, -0.052)" fill="#000" stroke="#000" stroke-width="50"/>
  <path d="M7 -1Q22 69 36.0 137.0Q50 205 63 271Q84 390 104.0 506.5Q124 623 133 729L185 726Q199 725 212.5 724.0Q226 723 239 722Q254 721 269.0 720.5Q284 720 299 720Q297 712 292.5 688.0Q288 664 283.5 639.5Q279 615 277 606L259 507L265 508Q294 553 332.0 612.0Q370 671 403 725Q453 729 503.0 734.0Q553 739 603 747Q580 716 557.0 685.0Q534 654 512 623Q489 591 462.0 553.0Q435 515 410.5 478.5Q386 442 370 416Q381 366 394.0 317.0Q407 268 422 221Q437 174 452.0 126.0Q467 78 483 29Q460 30 436.0 30.5Q412 31 389 31Q360 31 333.0 30.5Q306 30 277 29Q273 61 268.0 95.5Q263 130 258 166Q253 201 248.0 235.5Q243 270 238 302L220 281Q213 252 205 207Q201 185 196.5 163.5Q192 142 188 122Q184 98 179.0 73.5Q174 49 169 23Z" transform="translate(209.39600000000002, 54) scale(0.052, -0.052)" fill="#fff"/>
</svg>