<?xml version="1.0" encoding="UTF-8"?>
<svg xmlns="http://www.w3.org/2000/svg" viewBox="0 0 252.7 68.0" width="252.7" height="68.0">
  <!-- Shadow layer (solid black, offset) -->
  <g transform="translate(13.0, 48.7) scale(0.042000, -0.042000)" 
     fill="#000" stroke="#000" stroke-width="47.6" stroke-linejoin="round">
    <g transform="translate(0, 0)"><path d="M-30 6Q14 140 54 267Q71 319 89.0 378.0Q107 437 125.0 496.5Q143 556 159.0 611.0Q175 666 186 709Q241 709 290 715Q315 718 341.5 721.0Q368 724 396 726L390 677Q388 663 386.0 648.5Q384 634 382 619Q380 604 377.0 588.5Q374 573 372 557Q368 526 360.0 470.5Q352 415 341 350H354Q383 426 402.0 476.5Q421 527 433 559Q450 606 470.0 654.0Q490 702 503 728Q527 730 560.5 734.5Q594 739 628.5 745.0Q663 751 688 755Q674 671 662.5 585.5Q651 500 642.5 422.5Q634 345 628 283Q622 221 617.0 160.5Q612 100 607 41L433 10Q433 12 436.0 55.0Q439 98 446 162Q453 226 460.0 283.5Q467 341 474 378H465Q440 302 404.5 212.0Q369 122 335 13Q300 12 275.0 10.5Q250 9 217 7L249 378H234Q233 367 225.0 335.5Q217 304 206.0 263.5Q195 223 183 183Q138 26 135 17Z"/></g>
    <g transform="translate(619, 0)"><path d="M181 -4Q115 -4 73.0 47.0Q31 98 31 201Q31 258 45.0 321.0Q59 384 84.0 445.0Q109 506 142 558Q195 642 264.0 695.0Q333 748 409 748Q469 748 501.5 717.5Q534 687 547.0 639.5Q560 592 560 541Q560 422 523.5 319.5Q487 217 429 146Q371 73 305.5 34.5Q240 -4 181 -4ZM235 161Q280 161 314.5 191.0Q349 221 373.0 267.5Q397 314 409.0 365.0Q421 416 421 457Q421 473 418.0 491.5Q415 510 405.0 524.0Q395 538 374 538Q328 538 291.0 504.5Q254 471 229 420Q204 368 192.0 318.0Q180 268 180 227Q180 206 195.0 183.5Q210 161 235 161Z"/></g>
    <g transform="translate(1112, 0)"><path d="M60 -5Q46 -5 32.0 -3.5Q18 -2 4 0L57 269Q67 324 78.5 385.5Q90 447 101.0 507.5Q112 568 120.5 620.0Q129 672 134 708Q177 716 221.0 723.0Q265 730 311 730Q385 730 428.0 699.5Q471 669 490.0 619.5Q509 570 509 511Q509 458 494.0 399.5Q479 341 451.5 283.5Q424 226 386 175Q327 96 242.5 45.5Q158 -5 60 -5ZM179 121Q214 144 245.5 191.0Q277 238 305 304Q330 365 344.0 419.5Q358 474 358 510Q358 547 337.5 568.0Q317 589 273 589Q257 503 240.5 430.0Q224 357 208.5 283.0Q193 209 179 121Z"/></g>
    <g transform="translate(1553, 0)"><path d="M165 -18Q135 -18 104.0 -5.0Q73 8 52.0 35.0Q31 62 31 104V112Q31 117 32 120Q35 146 40.5 188.0Q46 230 54.0 279.5Q62 329 70.5 378.0Q79 427 86 467Q101 547 110.0 596.0Q119 645 124.5 671.5Q130 698 133 711L298 727Q285 666 273.5 611.5Q262 557 252 508L206 287Q200 262 197 245Q193 229 188.5 204.5Q184 180 184 160Q184 144 192.0 133.5Q200 123 212 123Q229 123 240.0 136.0Q251 149 258.0 168.0Q265 187 269.0 206.5Q273 226 276 238Q286 284 294.5 327.5Q303 371 312.5 420.0Q322 469 334 533Q342 577 350.5 622.5Q359 668 367 715L519 725L484 532Q477 495 468.5 449.0Q460 403 450.0 356.0Q440 309 431.5 267.0Q423 225 416 195Q396 113 354.0 66.5Q312 20 261.5 1.0Q211 -18 165 -18Z"/></g>
    <g transform="translate(1972, 0)"><path d="M12 -2Q23 77 35.5 157.0Q48 237 61.5 311.5Q75 386 87 446Q100 511 113.0 578.0Q126 645 140 713L315 736L263 510Q249 451 234.5 383.5Q220 316 208.0 253.0Q196 190 189 141Q214 143 242.5 143.5Q271 144 293 144Q294 121 297.0 95.5Q300 70 303.5 51.5Q307 33 307 31Q303 31 299.5 31.0Q296 31 292 32H276Q237 32 189.5 28.5Q142 25 95.5 17.5Q49 10 12 -2Z"/></g>
    <g transform="translate(2274, 0)"><path d="M8 -1 139 710 455 737Q448 715 443 692Q438 673 433.5 652.5Q429 632 426 616Q413 615 389.0 614.5Q365 614 340.0 613.5Q315 613 297.0 613.0Q279 613 278 613L243 434L301 437Q312 438 323.5 438.0Q335 438 346 438Q357 438 366.0 438.0Q375 438 380 439Q378 425 376.5 411.5Q375 398 373 384L364 329Q359 328 351.0 328.0Q343 328 332 328Q321 327 309.0 327.0Q297 327 286 326Q273 325 259.0 325.0Q245 325 229 324L195 140L341 163L331 49Z"/></g>
    <g transform="translate(2915, 0)"><path d="M206 -5Q130 -5 87.0 44.0Q44 93 44 173Q44 192 45.5 213.0Q47 234 49 257L203 245Q198 228 198 221Q198 201 210.0 192.0Q222 183 238 183Q266 183 290.5 207.0Q315 231 315 278Q315 304 294.5 322.0Q274 340 209 340Q198 340 184.5 339.0Q171 338 145.0 334.5Q119 331 69 322Q80 397 96.0 494.5Q112 592 135 715L516 729L496 566Q468 565 440.0 564.0Q412 563 383 562Q354 561 324.5 560.0Q295 559 265 557L255 473Q319 473 364.0 461.0Q409 449 437 428Q465 407 477.5 378.5Q490 350 490 315Q490 266 465.5 209.5Q441 153 397 103Q352 52 302.0 23.5Q252 -5 206 -5Z"/></g>
    <g transform="translate(3665, 0)"><path d="M8 -1 139 710 455 737Q448 715 443 692Q438 673 433.5 652.5Q429 632 426 616Q413 615 389.0 614.5Q365 614 340.0 613.5Q315 613 297.0 613.0Q279 613 278 613L243 434L301 437Q312 438 323.5 438.0Q335 438 346 438Q357 438 366.0 438.0Q375 438 380 439Q378 425 376.5 411.5Q375 398 373 384L364 329Q359 328 351.0 328.0Q343 328 332 328Q321 327 309.0 327.0Q297 327 286 326Q273 325 259.0 325.0Q245 325 229 324L195 140L341 163L331 49Z"/></g>
    <g transform="translate(4006, 0)"><path d="M234 -10Q233 10 231.5 29.5Q230 49 229 68Q228 85 227.0 101.5Q226 118 225 134Q224 151 223.0 164.5Q222 178 221 189L198 134Q191 118 183.5 101.5Q176 85 169 69Q161 50 152.0 31.5Q143 13 134 -6L-36 9Q-11 53 14.0 97.5Q39 142 64 185Q89 229 112.0 274.5Q135 320 156 367Q150 412 144.5 447.0Q139 482 132 516Q125 548 117.0 585.5Q109 623 101 663L261 729Q266 681 273 625Q276 597 279.0 570.5Q282 544 284 520L330 620Q341 645 352.5 669.5Q364 694 376 719L521 680Q486 621 459.5 573.0Q433 525 409.0 476.0Q385 427 355 364Q366 288 387.0 203.0Q408 118 426 46Q424 45 402.0 39.5Q380 34 343 23Q307 13 277.5 4.5Q248 -4 234 -10Z"/></g>
    <g transform="translate(4417, 0)"><path d="M259 2Q261 19 263.0 35.0Q265 51 267 67L273 123Q274 137 275.0 149.0Q276 161 277 171H190L150 27Q128 24 98.0 20.5Q68 17 42 14Q26 12 10.5 10.0Q-5 8 -21 6L58 268Q72 315 90.0 375.0Q108 435 126.5 498.0Q145 561 161.5 616.5Q178 672 188 710Q256 715 326.5 722.0Q397 729 464 741Q459 685 454.5 614.5Q450 544 446.5 469.0Q443 394 439 321Q437 252 434.0 178.5Q431 105 428 28Q413 26 398.0 24.0Q383 22 368 20Q343 16 313.0 11.0Q283 6 259 2ZM214 271Q220 271 236.5 272.0Q253 273 268.0 274.0Q283 275 286 275Q286 288 290.0 328.0Q294 368 298 412Q300 438 302.5 465.5Q305 493 308 522L314 609L299 608L276 522Z"/></g>
    <g transform="translate(4850, 0)"><path d="M-30 6Q14 140 54 267Q71 319 89.0 378.0Q107 437 125.0 496.5Q143 556 159.0 611.0Q175 666 186 709Q241 709 290 715Q315 718 341.5 721.0Q368 724 396 726L390 677Q388 663 386.0 648.5Q384 634 382 619Q380 604 377.0 588.5Q374 573 372 557Q368 526 360.0 470.5Q352 415 341 350H354Q383 426 402.0 476.5Q421 527 433 559Q450 606 470.0 654.0Q490 702 503 728Q527 730 560.5 734.5Q594 739 628.5 745.0Q663 751 688 755Q674 671 662.5 585.5Q651 500 642.5 422.5Q634 345 628 283Q622 221 617.0 160.5Q612 100 607 41L433 10Q433 12 436.0 55.0Q439 98 446 162Q453 226 460.0 283.5Q467 341 474 378H465Q440 302 404.5 212.0Q369 122 335 13Q300 12 275.0 10.5Q250 9 217 7L249 378H234Q233 367 225.0 335.5Q217 304 206.0 263.5Q195 223 183 183Q138 26 135 17Z"/></g>
  </g>
  
  <!-- Stroke layer (black fill + stroke for outline) -->
  <g transform="translate(10.0, 45.7) scale(0.042000, -0.042000)" 
     fill="#000" stroke="#000" stroke-width="47.6" stroke-linejoin="round">
    <g transform="translate(0, 0)"><path d="M-30 6Q14 140 54 267Q71 319 89.0 378.0Q107 437 125.0 496.5Q143 556 159.0 611.0Q175 666 186 709Q241 709 290 715Q315 718 341.5 721.0Q368 724 396 726L390 677Q388 663 386.0 648.5Q384 634 382 619Q380 604 377.0 588.5Q374 573 372 557Q368 526 360.0 470.5Q352 415 341 350H354Q383 426 402.0 476.5Q421 527 433 559Q450 606 470.0 654.0Q490 702 503 728Q527 730 560.5 734.5Q594 739 628.5 745.0Q663 751 688 755Q674 671 662.5 585.5Q651 500 642.5 422.5Q634 345 628 283Q622 221 617.0 160.5Q612 100 607 41L433 10Q433 12 436.0 55.0Q439 98 446 162Q453 226 460.0 283.5Q467 341 474 378H465Q440 302 404.5 212.0Q369 122 335 13Q300 12 275.0 10.5Q250 9 217 7L249 378H234Q233 367 225.0 335.5Q217 304 206.0 263.5Q195 223 183 183Q138 26 135 17Z"/></g>
    <g transform="translate(619, 0)"><path d="M181 -4Q115 -4 73.0 47.0Q31 98 31 201Q31 258 45.0 321.0Q59 384 84.0 445.0Q109 506 142 558Q195 642 264.0 695.0Q333 748 409 748Q469 748 501.5 717.5Q534 687 547.0 639.5Q560 592 560 541Q560 422 523.5 319.5Q487 217 429 146Q371 73 305.5 34.5Q240 -4 181 -4ZM235 161Q280 161 314.5 191.0Q349 221 373.0 267.5Q397 314 409.0 365.0Q421 416 421 457Q421 473 418.0 491.5Q415 510 405.0 524.0Q395 538 374 538Q328 538 291.0 504.5Q254 471 229 420Q204 368 192.0 318.0Q180 268 180 227Q180 206 195.0 183.5Q210 161 235 161Z"/></g>
    <g transform="translate(1112, 0)"><path d="M60 -5Q46 -5 32.0 -3.5Q18 -2 4 0L57 269Q67 324 78.5 385.5Q90 447 101.0 507.5Q112 568 120.5 620.0Q129 672 134 708Q177 716 221.0 723.0Q265 730 311 730Q385 730 428.0 699.5Q471 669 490.0 619.5Q509 570 509 511Q509 458 494.0 399.5Q479 341 451.5 283.5Q424 226 386 175Q327 96 242.5 45.5Q158 -5 60 -5ZM179 121Q214 144 245.5 191.0Q277 238 305 304Q330 365 344.0 419.5Q358 474 358 510Q358 547 337.5 568.0Q317 589 273 589Q257 503 240.5 430.0Q224 357 208.5 283.0Q193 209 179 121Z"/></g>
    <g transform="translate(1553, 0)"><path d="M165 -18Q135 -18 104.0 -5.0Q73 8 52.0 35.0Q31 62 31 104V112Q31 117 32 120Q35 146 40.5 188.0Q46 230 54.0 279.5Q62 329 70.5 378.0Q79 427 86 467Q101 547 110.0 596.0Q119 645 124.5 671.5Q130 698 133 711L298 727Q285 666 273.5 611.5Q262 557 252 508L206 287Q200 262 197 245Q193 229 188.5 204.5Q184 180 184 160Q184 144 192.0 133.5Q200 123 212 123Q229 123 240.0 136.0Q251 149 258.0 168.0Q265 187 269.0 206.5Q273 226 276 238Q286 284 294.5 327.5Q303 371 312.5 420.0Q322 469 334 533Q342 577 350.5 622.5Q359 668 367 715L519 725L484 532Q477 495 468.5 449.0Q460 403 450.0 356.0Q440 309 431.5 267.0Q423 225 416 195Q396 113 354.0 66.5Q312 20 261.5 1.0Q211 -18 165 -18Z"/></g>
    <g transform="translate(1972, 0)"><path d="M12 -2Q23 77 35.5 157.0Q48 237 61.5 311.5Q75 386 87 446Q100 511 113.0 578.0Q126 645 140 713L315 736L263 510Q249 451 234.5 383.5Q220 316 208.0 253.0Q196 190 189 141Q214 143 242.5 143.5Q271 144 293 144Q294 121 297.0 95.5Q300 70 303.5 51.5Q307 33 307 31Q303 31 299.5 31.0Q296 31 292 32H276Q237 32 189.5 28.5Q142 25 95.5 17.5Q49 10 12 -2Z"/></g>
    <g transform="translate(2274, 0)"><path d="M8 -1 139 710 455 737Q448 715 443 692Q438 673 433.5 652.5Q429 632 426 616Q413 615 389.0 614.5Q365 614 340.0 613.5Q315 613 297.0 613.0Q279 613 278 613L243 434L301 437Q312 438 323.5 438.0Q335 438 346 438Q357 438 366.0 438.0Q375 438 380 439Q378 425 376.5 411.5Q375 398 373 384L364 329Q359 328 351.0 328.0Q343 328 332 328Q321 327 309.0 327.0Q297 327 286 326Q273 325 259.0 325.0Q245 325 229 324L195 140L341 163L331 49Z"/></g>
    <g transform="translate(2915, 0)"><path d="M206 -5Q130 -5 87.0 44.0Q44 93 44 173Q44 192 45.5 213.0Q47 234 49 257L203 245Q198 228 198 221Q198 201 210.0 192.0Q222 183 238 183Q266 183 290.5 207.0Q315 231 315 278Q315 304 294.5 322.0Q274 340 209 340Q198 340 184.5 339.0Q171 338 145.0 334.5Q119 331 69 322Q80 397 96.0 494.5Q112 592 135 715L516 729L496 566Q468 565 440.0 564.0Q412 563 383 562Q354 561 324.5 560.0Q295 559 265 557L255 473Q319 473 364.0 461.0Q409 449 437 428Q465 407 477.5 378.5Q490 350 490 315Q490 266 465.5 209.5Q441 153 397 103Q352 52 302.0 23.5Q252 -5 206 -5Z"/></g>
    <g transform="translate(3665, 0)"><path d="M8 -1 139 710 455 737Q448 715 443 692Q438 673 433.5 652.5Q429 632 426 616Q413 615 389.0 614.5Q365 614 340.0 613.5Q315 613 297.0 613.0Q279 613 278 613L243 434L301 437Q312 438 323.5 438.0Q335 438 346 438Q357 438 366.0 438.0Q375 438 380 439Q378 425 376.5 411.5Q375 398 373 384L364 329Q359 328 351.0 328.0Q343 328 332 328Q321 327 309.0 327.0Q297 327 286 326Q273 325 259.0 325.0Q245 325 229 324L195 140L341 163L331 49Z"/></g>
    <g transform="translate(4006, 0)"><path d="M234 -10Q233 10 231.5 29.5Q230 49 229 68Q228 85 227.0 101.5Q226 118 225 134Q224 151 223.0 164.5Q222 178 221 189L198 134Q191 118 183.5 101.5Q176 85 169 69Q161 50 152.0 31.5Q143 13 134 -6L-36 9Q-11 53 14.0 97.5Q39 142 64 185Q89 229 112.0 274.5Q135 320 156 367Q150 412 144.5 447.0Q139 482 132 516Q125 548 117.0 585.5Q109 623 101 663L261 729Q266 681 273 625Q276 597 279.0 570.5Q282 544 284 520L330 620Q341 645 352.5 669.5Q364 694 376 719L521 680Q486 621 459.5 573.0Q433 525 409.0 476.0Q385 427 355 364Q366 288 387.0 203.0Q408 118 426 46Q424 45 402.0 39.5Q380 34 343 23Q307 13 277.5 4.5Q248 -4 234 -10Z"/></g>
    <g transform="translate(4417, 0)"><path d="M259 2Q261 19 263.0 35.0Q265 51 267 67L273 123Q274 137 275.0 149.0Q276 161 277 171H190L150 27Q128 24 98.0 20.5Q68 17 42 14Q26 12 10.5 10.0Q-5 8 -21 6L58 268Q72 315 90.0 375.0Q108 435 126.5 498.0Q145 561 161.5 616.5Q178 672 188 710Q256 715 326.5 722.0Q397 729 464 741Q459 685 454.5 614.5Q450 544 446.5 469.0Q443 394 439 321Q437 252 434.0 178.5Q431 105 428 28Q413 26 398.0 24.0Q383 22 368 20Q343 16 313.0 11.0Q283 6 259 2ZM214 271Q220 271 236.5 272.0Q253 273 268.0 274.0Q283 275 286 275Q286 288 290.0 328.0Q294 368 298 412Q300 438 302.5 465.5Q305 493 308 522L314 609L299 608L276 522Z"/></g>
    <g transform="translate(4850, 0)"><path d="M-30 6Q14 140 54 267Q71 319 89.0 378.0Q107 437 125.0 496.5Q143 556 159.0 611.0Q175 666 186 709Q241 709 290 715Q315 718 341.5 721.0Q368 724 396 726L390 677Q388 663 386.0 648.5Q384 634 382 619Q380 604 377.0 588.5Q374 573 372 557Q368 526 360.0 470.5Q352 415 341 350H354Q383 426 402.0 476.5Q421 527 433 559Q450 606 470.0 654.0Q490 702 503 728Q527 730 560.5 734.5Q594 739 628.5 745.0Q663 751 688 755Q674 671 662.5 585.5Q651 500 642.5 422.5Q634 345 628 283Q622 221 617.0 160.5Q612 100 607 41L433 10Q433 12 436.0 55.0Q439 98 446 162Q453 226 460.0 283.5Q467 341 474 378H465Q440 302 404.5 212.0Q369 122 335 13Q300 12 275.0 10.5Q250 9 217 7L249 378H234Q233 367 225.0 335.5Q217 304 206.0 263.5Q195 223 183 183Q138 26 135 17Z"/></g>
  </g>
  
  <!-- Fill layer (white, no stroke) -->
  <g transform="translate(10.0, 45.7) scale(0.042000, -0.042000)" 
     fill="#FFFFFF" stroke="none">
    <g transform="translate(0, 0)"><path d="M-30 6Q14 140 54 267Q71 319 89.0 378.0Q107 437 125.0 496.5Q143 556 159.0 611.0Q175 666 186 709Q241 709 290 715Q315 718 341.5 721.0Q368 724 396 726L390 677Q388 663 386.0 648.5Q384 634 382 619Q380 604 377.0 588.5Q374 573 372 557Q368 526 360.0 470.5Q352 415 341 350H354Q383 426 402.0 476.5Q421 527 433 559Q450 606 470.0 654.0Q490 702 503 728Q527 730 560.5 734.5Q594 739 628.5 745.0Q663 751 688 755Q674 671 662.5 585.5Q651 500 642.5 422.5Q634 345 628 283Q622 221 617.0 160.5Q612 100 607 41L433 10Q433 12 436.0 55.0Q439 98 446 162Q453 226 460.0 283.5Q467 341 474 378H465Q440 302 404.5 212.0Q369 122 335 13Q300 12 275.0 10.5Q250 9 217 7L249 378H234Q233 367 225.0 335.5Q217 304 206.0 263.5Q195 223 183 183Q138 26 135 17Z"/></g>
    <g transform="translate(619, 0)"><path d="M181 -4Q115 -4 73.0 47.0Q31 98 31 201Q31 258 45.0 321.0Q59 384 84.0 445.0Q109 506 142 558Q195 642 264.0 695.0Q333 748 409 748Q469 748 501.5 717.5Q534 687 547.0 639.5Q560 592 560 541Q560 422 523.5 319.5Q487 217 429 146Q371 73 305.5 34.5Q240 -4 181 -4ZM235 161Q280 161 314.5 191.0Q349 221 373.0 267.5Q397 314 409.0 365.0Q421 416 421 457Q421 473 418.0 491.5Q415 510 405.0 524.0Q395 538 374 538Q328 538 291.0 504.5Q254 471 229 420Q204 368 192.0 318.0Q180 268 180 227Q180 206 195.0 183.5Q210 161 235 161Z"/></g>
    <g transform="translate(1112, 0)"><path d="M60 -5Q46 -5 32.0 -3.5Q18 -2 4 0L57 269Q67 324 78.5 385.5Q90 447 101.0 507.5Q112 568 120.5 620.0Q129 672 134 708Q177 716 221.0 723.0Q265 730 311 730Q385 730 428.0 699.5Q471 669 490.0 619.5Q509 570 509 511Q509 458 494.0 399.5Q479 341 451.5 283.5Q424 226 386 175Q327 96 242.5 45.5Q158 -5 60 -5ZM179 121Q214 144 245.5 191.0Q277 238 305 304Q330 365 344.0 419.5Q358 474 358 510Q358 547 337.5 568.0Q317 589 273 589Q257 503 240.5 430.0Q224 357 208.5 283.0Q193 209 179 121Z"/></g>
    <g transform="translate(1553, 0)"><path d="M165 -18Q135 -18 104.0 -5.0Q73 8 52.0 35.0Q31 62 31 104V112Q31 117 32 120Q35 146 40.5 188.0Q46 230 54.0 279.5Q62 329 70.5 378.0Q79 427 86 467Q101 547 110.0 596.0Q119 645 124.5 671.5Q130 698 133 711L298 727Q285 666 273.5 611.5Q262 557 252 508L206 287Q200 262 197 245Q193 229 188.5 204.5Q184 180 184 160Q184 144 192.0 133.5Q200 123 212 123Q229 123 240.0 136.0Q251 149 258.0 168.0Q265 187 269.0 206.5Q273 226 276 238Q286 284 294.5 327.5Q303 371 312.5 420.0Q322 469 334 533Q342 577 350.5 622.5Q359 668 367 715L519 725L484 532Q477 495 468.5 449.0Q460 403 450.0 356.0Q440 309 431.5 267.0Q423 225 416 195Q396 113 354.0 66.5Q312 20 261.5 1.0Q211 -18 165 -18Z"/></g>
    <g transform="translate(1972, 0)"><path d="M12 -2Q23 77 35.5 157.0Q48 237 61.5 311.5Q75 386 87 446Q100 511 113.0 578.0Q126 645 140 713L315 736L263 510Q249 451 234.5 383.5Q220 316 208.0 253.0Q196 190 189 141Q214 143 242.5 143.5Q271 144 293 144Q294 121 297.0 95.5Q300 70 303.5 51.5Q307 33 307 31Q303 31 299.5 31.0Q296 31 292 32H276Q237 32 189.5 28.5Q142 25 95.5 17.5Q49 10 12 -2Z"/></g>
    <g transform="translate(2274, 0)"><path d="M8 -1 139 710 455 737Q448 715 443 692Q438 673 433.5 652.5Q429 632 426 616Q413 615 389.0 614.5Q365 614 340.0 613.5Q315 613 297.0 613.0Q279 613 278 613L243 434L301 437Q312 438 323.5 438.0Q335 438 346 438Q357 438 366.0 438.0Q375 438 380 439Q378 425 376.5 411.5Q375 398 373 384L364 329Q359 328 351.0 328.0Q343 328 332 328Q321 327 309.0 327.0Q297 327 286 326Q273 325 259.0 325.0Q245 325 229 324L195 140L341 163L331 49Z"/></g>
    <g transform="translate(2915, 0)"><path d="M206 -5Q130 -5 87.0 44.0Q44 93 44 173Q44 192 45.5 213.0Q47 234 49 257L203 245Q198 228 198 221Q198 201 210.0 192.0Q222 183 238 183Q266 183 290.5 207.0Q315 231 315 278Q315 304 294.5 322.0Q274 340 209 340Q198 340 184.5 339.0Q171 338 145.0 334.5Q119 331 69 322Q80 397 96.0 494.5Q112 592 135 715L516 729L496 566Q468 565 440.0 564.0Q412 563 383 562Q354 561 324.5 560.0Q295 559 265 557L255 473Q319 473 364.0 461.0Q409 449 437 428Q465 407 477.5 378.5Q490 350 490 315Q490 266 465.5 209.5Q441 153 397 103Q352 52 302.0 23.5Q252 -5 206 -5Z"/></g>
    <g transform="translate(3665, 0)"><path d="M8 -1 139 710 455 737Q448 715 443 692Q438 673 433.5 652.5Q429 632 426 616Q413 615 389.0 614.5Q365 614 340.0 613.5Q315 613 297.0 613.0Q279 613 278 613L243 434L301 437Q312 438 323.5 438.0Q335 438 346 438Q357 438 366.0 438.0Q375 438 380 439Q378 425 376.5 411.5Q375 398 373 384L364 329Q359 328 351.0 328.0Q343 328 332 328Q321 327 309.0 327.0Q297 327 286 326Q273 325 259.0 325.0Q245 325 229 324L195 140L341 163L331 49Z"/></g>
    <g transform="translate(4006, 0)"><path d="M234 -10Q233 10 231.5 29.5Q230 49 229 68Q228 85 227.0 101.5Q226 118 225 134Q224 151 223.0 164.5Q222 178 221 189L198 134Q191 118 183.5 101.5Q176 85 169 69Q161 50 152.0 31.5Q143 13 134 -6L-36 9Q-11 53 14.0 97.5Q39 142 64 185Q89 229 112.0 274.5Q135 320 156 367Q150 412 144.5 447.0Q139 482 132 516Q125 548 117.0 585.5Q109 623 101 663L261 729Q266 681 273 625Q276 597 279.0 570.5Q282 544 284 520L330 620Q341 645 352.5 669.5Q364 694 376 719L521 680Q486 621 459.5 573.0Q433 525 409.0 476.0Q385 427 355 364Q366 288 387.0 203.0Q408 118 426 46Q424 45 402.0 39.5Q380 34 343 23Q307 13 277.5 4.5Q248 -4 234 -10Z"/></g>
    <g transform="translate(4417, 0)"><path d="M259 2Q261 19 263.0 35.0Q265 51 267 67L273 123Q274 137 275.0 149.0Q276 161 277 171H190L150 27Q128 24 98.0 20.5Q68 17 42 14Q26 12 10.5 10.0Q-5 8 -21 6L58 268Q72 315 90.0 375.0Q108 435 126.5 498.0Q145 561 161.5 616.5Q178 672 188 710Q256 715 326.5 722.0Q397 729 464 741Q459 685 454.5 614.5Q450 544 446.5 469.0Q443 394 439 321Q437 252 434.0 178.5Q431 105 428 28Q413 26 398.0 24.0Q383 22 368 20Q343 16 313.0 11.0Q283 6 259 2ZM214 271Q220 271 236.5 272.0Q253 273 268.0 274.0Q283 275 286 275Q286 288 290.0 328.0Q294 368 298 412Q300 438 302.5 465.5Q305 493 308 522L314 609L299 608L276 522Z"/></g>
    <g transform="translate(4850, 0)"><path d="M-30 6Q14 140 54 267Q71 319 89.0 378.0Q107 437 125.0 496.5Q143 556 159.0 611.0Q175 666 186 709Q241 709 290 715Q315 718 341.5 721.0Q368 724 396 726L390 677Q388 663 386.0 648.5Q384 634 382 619Q380 604 377.0 588.5Q374 573 372 557Q368 526 360.0 470.5Q352 415 341 350H354Q383 426 402.0 476.5Q421 527 433 559Q450 606 470.0 654.0Q490 702 503 728Q527 730 560.5 734.5Q594 739 628.5 745.0Q663 751 688 755Q674 671 662.5 585.5Q651 500 642.5 422.5Q634 345 628 283Q622 221 617.0 160.5Q612 100 607 41L433 10Q433 12 436.0 55.0Q439 98 446 162Q453 226 460.0 283.5Q467 341 474 378H465Q440 302 404.5 212.0Q369 122 335 13Q300 12 275.0 10.5Q250 9 217 7L249 378H234Q233 367 225.0 335.5Q217 304 206.0 263.5Q195 223 183 183Q138 26 135 17Z"/></g>
  </g>
</svg>