<?xml version="1.0" encoding="UTF-8"?>
<svg xmlns="http://www.w3.org/2000/svg" viewBox="0 0 240.4 68.0" width="240.4" height="68.0">
  <!-- Shadow layer (solid black, offset) -->
  <g transform="translate(13.0, 48.7) scale(0.042000, -0.042000)" 
     fill="#000" stroke="#000" stroke-width="47.6" stroke-linejoin="round">
    <g transform="translate(0, 0)"><path d="M182 -2Q119 -2 79.0 57.0Q39 116 39 219Q39 313 65.0 404.5Q91 496 138 569Q185 642 249.5 686.5Q314 731 392 731Q441 731 476.0 693.0Q511 655 511 591V579Q511 575 511.0 572.0Q511 569 510 565L379 530Q367 555 351 555Q327 555 300.5 516.0Q274 477 250 423Q234 387 221.5 349.0Q209 311 202.0 278.0Q195 245 195 224Q195 193 204 179Q211 166 226 166Q241 166 259.0 180.5Q277 195 292.5 217.0Q308 239 313 261L427 215Q378 103 310.5 50.5Q243 -2 182 -2Z"/></g>
        <g transform="translate(485.42857142857144, 0)"><path d="M9 -2Q22 67 34.5 134.5Q47 202 60 269Q74 352 86.5 425.0Q99 498 111.5 570.0Q124 642 136 721L298 732Q281 662 264.5 586.0Q248 510 234 438L333 449Q340 484 346.5 518.5Q353 553 358 587Q363 620 370.5 654.5Q378 689 387 724Q423 730 460.0 733.5Q497 737 522.0 738.5Q547 740 547 740Q534 700 521.0 646.0Q508 592 496.0 532.0Q484 472 473.0 412.5Q462 353 453 302Q442 238 432.0 173.5Q422 109 412 42L256 24Q263 54 268.5 83.5Q274 113 279 141Q289 189 299.5 241.0Q310 293 316 330L219 321Q215 302 211.5 280.0Q208 258 203 233Q198 208 193.5 184.5Q189 161 185 138Q180 111 174.0 84.0Q168 57 163 30Z"/></g>
        <g transform="translate(998.8571428571429, 0)"><path d="M8 -1 139 710 455 737Q448 715 443 692Q438 673 433.5 652.5Q429 632 426 616Q413 615 389.0 614.5Q365 614 340.0 613.5Q315 613 297.0 613.0Q279 613 278 613L243 434L301 437Q312 438 323.5 438.0Q335 438 346 438Q357 438 366.0 438.0Q375 438 380 439Q378 425 376.5 411.5Q375 398 373 384L364 329Q359 328 351.0 328.0Q343 328 332 328Q321 327 309.0 327.0Q297 327 286 326Q273 325 259.0 325.0Q245 325 229 324L195 140L341 163L331 49Z"/></g>
        <g transform="translate(1411.2857142857142, 0)"><path d="M182 -2Q119 -2 79.0 57.0Q39 116 39 219Q39 313 65.0 404.5Q91 496 138 569Q185 642 249.5 686.5Q314 731 392 731Q441 731 476.0 693.0Q511 655 511 591V579Q511 575 511.0 572.0Q511 569 510 565L379 530Q367 555 351 555Q327 555 300.5 516.0Q274 477 250 423Q234 387 221.5 349.0Q209 311 202.0 278.0Q195 245 195 224Q195 193 204 179Q211 166 226 166Q241 166 259.0 180.5Q277 195 292.5 217.0Q308 239 313 261L427 215Q378 103 310.5 50.5Q243 -2 182 -2Z"/></g>
        <g transform="translate(1896.7142857142856, 0)"><path d="M7 -1Q22 69 36.0 137.0Q50 205 63 271Q84 390 104.0 506.5Q124 623 133 729L185 726Q199 725 212.5 724.0Q226 723 239 722Q254 721 269.0 720.5Q284 720 299 720Q297 712 292.5 688.0Q288 664 283.5 639.5Q279 615 277 606L259 507L265 508Q294 553 332.0 612.0Q370 671 403 725Q453 729 503.0 734.0Q553 739 603 747Q580 716 557.0 685.0Q534 654 512 623Q489 591 462.0 553.0Q435 515 410.5 478.5Q386 442 370 416Q381 366 394.0 317.0Q407 268 422 221Q437 174 452.0 126.0Q467 78 483 29Q460 30 436.0 30.5Q412 31 389 31Q360 31 333.0 30.5Q306 30 277 29Q273 61 268.0 95.5Q263 130 258 166Q253 201 248.0 235.5Q243 270 238 302L220 281Q213 252 205 207Q201 185 196.5 163.5Q192 142 188 122Q184 98 179.0 73.5Q174 49 169 23Z"/></g>
        <g transform="translate(2430.142857142857, 0)"><path d="M-3 -1Q27 134 54 263Q65 315 76.5 374.5Q88 434 100.0 495.0Q112 556 122.0 610.5Q132 665 138 706Q178 718 224.5 728.0Q271 738 308 738Q368 738 403.0 712.5Q438 687 453.0 644.0Q468 601 468 550Q468 494 447.5 442.5Q427 391 392.5 350.0Q358 309 313.5 285.0Q269 261 221 261H210Q202 227 195.0 187.0Q188 147 183 113Q179 93 176.0 73.0Q173 53 170 33ZM230 366Q253 372 276.0 396.5Q299 421 314.0 459.0Q329 497 329 542Q329 579 312.5 598.0Q296 617 276 617Q265 551 254.0 492.0Q243 433 230 366Z"/></g>
        <g transform="translate(2880.5714285714284, 0)"><path d="M181 -4Q115 -4 73.0 47.0Q31 98 31 201Q31 258 45.0 321.0Q59 384 84.0 445.0Q109 506 142 558Q195 642 264.0 695.0Q333 748 409 748Q469 748 501.5 717.5Q534 687 547.0 639.5Q560 592 560 541Q560 422 523.5 319.5Q487 217 429 146Q371 73 305.5 34.5Q240 -4 181 -4ZM235 161Q280 161 314.5 191.0Q349 221 373.0 267.5Q397 314 409.0 365.0Q421 416 421 457Q421 473 418.0 491.5Q415 510 405.0 524.0Q395 538 374 538Q328 538 291.0 504.5Q254 471 229 420Q204 368 192.0 318.0Q180 268 180 227Q180 206 195.0 183.5Q210 161 235 161Z"/></g>
        <g transform="translate(3445.0, 0)"><path d="M-6 1Q11 60 27.5 135.0Q44 210 59.5 288.5Q75 367 89 437Q102 501 114.0 567.0Q126 633 138 700L294 725Q281 658 268.0 592.5Q255 527 242 462Q228 392 213.0 314.0Q198 236 184.0 160.5Q170 85 158 20Q140 20 113.0 17.5Q86 15 59.0 11.5Q32 8 13.5 5.0Q-5 2 -6 1Z"/></g>
        <g transform="translate(3716.4285714285716, 0)"><path d="M6 -5Q20 66 33.5 134.5Q47 203 60 270Q74 348 88.5 428.0Q103 508 115.5 584.0Q128 660 135 725Q151 726 166.0 727.0Q181 728 195 729Q208 730 221.5 731.0Q235 732 248 733L296 736Q303 698 308.5 661.0Q314 624 319 589Q323 565 328.5 533.0Q334 501 339.5 467.5Q345 434 350.5 405.0Q356 376 360 358Q370 411 376.5 445.5Q383 480 389.5 512.5Q396 545 405 589L436 735L558 750Q541 675 526.0 604.0Q511 533 498 466Q473 345 454.0 239.5Q435 134 425 55L262 17L247 171Q245 194 241.0 226.5Q237 259 233.0 293.5Q229 328 225.0 356.5Q221 385 219 399Q209 340 200.0 284.5Q191 229 180 177Q173 142 166.5 104.5Q160 67 152 29Z"/></g>
        <g transform="translate(4240.857142857143, 0)"><path d="M90 -1Q101 54 112.5 108.5Q124 163 134 216Q172 406 196 580Q185 582 173.0 582.5Q161 583 150 582Q126 580 103 588Q104 596 104.0 605.5Q104 615 104 625Q104 636 104.0 646.5Q104 657 105 667Q106 678 106.0 690.5Q106 703 107 716Q133 714 159.0 713.0Q185 712 211 712Q285 712 352.5 717.0Q420 722 477 729L466 675L457 628Q452 602 448 587Q437 584 426.0 582.0Q415 580 404 579Q393 578 381.5 576.0Q370 574 359 572Q344 498 334.5 444.0Q325 390 317.5 340.5Q310 291 300 232Q283 131 270 27Z"/></g>
        <g transform="translate(4674.285714285715, 0)"><path d="M171 -2Q131 -2 91.0 19.5Q51 41 14 88L88 233Q99 214 120.5 197.0Q142 180 166.0 170.0Q190 160 207 160Q233 160 256.5 176.0Q280 192 280 219Q280 254 248.0 283.0Q216 312 176 340Q137 368 104.5 403.5Q72 439 72 485Q72 537 102.0 581.5Q132 626 180.0 659.5Q228 693 282.5 711.5Q337 730 386 730Q421 730 451.0 718.5Q481 707 499.0 681.0Q517 655 517 611Q517 604 516.5 597.0Q516 590 515 583Q514 576 512.5 568.5Q511 561 510 553L365 511Q367 519 368.5 527.0Q370 535 370 543Q370 573 359.5 586.5Q349 600 332 600Q323 600 306.0 590.5Q289 581 275.5 564.5Q262 548 262 528Q262 495 289.5 473.5Q317 452 353 430Q370 420 391.0 398.5Q412 377 427.5 340.5Q443 304 443 247Q443 173 406.5 117.0Q370 61 308.0 29.5Q246 -2 171 -2Z"/></g>
  </g>
  
  <!-- Stroke layer (black fill + stroke for outline) -->
  <g transform="translate(10.0, 45.7) scale(0.042000, -0.042000)" 
     fill="#000" stroke="#000" stroke-width="47.6" stroke-linejoin="round">
    <g transform="translate(0, 0)"><path d="M182 -2Q119 -2 79.0 57.0Q39 116 39 219Q39 313 65.0 404.5Q91 496 138 569Q185 642 249.5 686.5Q314 731 392 731Q441 731 476.0 693.0Q511 655 511 591V579Q511 575 511.0 572.0Q511 569 510 565L379 530Q367 555 351 555Q327 555 300.5 516.0Q274 477 250 423Q234 387 221.5 349.0Q209 311 202.0 278.0Q195 245 195 224Q195 193 204 179Q211 166 226 166Q241 166 259.0 180.5Q277 195 292.5 217.0Q308 239 313 261L427 215Q378 103 310.5 50.5Q243 -2 182 -2Z"/></g>
        <g transform="translate(485.42857142857144, 0)"><path d="M9 -2Q22 67 34.5 134.5Q47 202 60 269Q74 352 86.5 425.0Q99 498 111.5 570.0Q124 642 136 721L298 732Q281 662 264.5 586.0Q248 510 234 438L333 449Q340 484 346.5 518.5Q353 553 358 587Q363 620 370.5 654.5Q378 689 387 724Q423 730 460.0 733.5Q497 737 522.0 738.5Q547 740 547 740Q534 700 521.0 646.0Q508 592 496.0 532.0Q484 472 473.0 412.5Q462 353 453 302Q442 238 432.0 173.5Q422 109 412 42L256 24Q263 54 268.5 83.5Q274 113 279 141Q289 189 299.5 241.0Q310 293 316 330L219 321Q215 302 211.5 280.0Q208 258 203 233Q198 208 193.5 184.5Q189 161 185 138Q180 111 174.0 84.0Q168 57 163 30Z"/></g>
        <g transform="translate(998.8571428571429, 0)"><path d="M8 -1 139 710 455 737Q448 715 443 692Q438 673 433.5 652.5Q429 632 426 616Q413 615 389.0 614.5Q365 614 340.0 613.5Q315 613 297.0 613.0Q279 613 278 613L243 434L301 437Q312 438 323.5 438.0Q335 438 346 438Q357 438 366.0 438.0Q375 438 380 439Q378 425 376.5 411.5Q375 398 373 384L364 329Q359 328 351.0 328.0Q343 328 332 328Q321 327 309.0 327.0Q297 327 286 326Q273 325 259.0 325.0Q245 325 229 324L195 140L341 163L331 49Z"/></g>
        <g transform="translate(1411.2857142857142, 0)"><path d="M182 -2Q119 -2 79.0 57.0Q39 116 39 219Q39 313 65.0 404.5Q91 496 138 569Q185 642 249.5 686.5Q314 731 392 731Q441 731 476.0 693.0Q511 655 511 591V579Q511 575 511.0 572.0Q511 569 510 565L379 530Q367 555 351 555Q327 555 300.5 516.0Q274 477 250 423Q234 387 221.5 349.0Q209 311 202.0 278.0Q195 245 195 224Q195 193 204 179Q211 166 226 166Q241 166 259.0 180.5Q277 195 292.5 217.0Q308 239 313 261L427 215Q378 103 310.5 50.5Q243 -2 182 -2Z"/></g>
        <g transform="translate(1896.7142857142856, 0)"><path d="M7 -1Q22 69 36.0 137.0Q50 205 63 271Q84 390 104.0 506.5Q124 623 133 729L185 726Q199 725 212.5 724.0Q226 723 239 722Q254 721 269.0 720.5Q284 720 299 720Q297 712 292.5 688.0Q288 664 283.5 639.5Q279 615 277 606L259 507L265 508Q294 553 332.0 612.0Q370 671 403 725Q453 729 503.0 734.0Q553 739 603 747Q580 716 557.0 685.0Q534 654 512 623Q489 591 462.0 553.0Q435 515 410.5 478.5Q386 442 370 416Q381 366 394.0 317.0Q407 268 422 221Q437 174 452.0 126.0Q467 78 483 29Q460 30 436.0 30.5Q412 31 389 31Q360 31 333.0 30.5Q306 30 277 29Q273 61 268.0 95.5Q263 130 258 166Q253 201 248.0 235.5Q243 270 238 302L220 281Q213 252 205 207Q201 185 196.5 163.5Q192 142 188 122Q184 98 179.0 73.5Q174 49 169 23Z"/></g>
        <g transform="translate(2430.142857142857, 0)"><path d="M-3 -1Q27 134 54 263Q65 315 76.5 374.5Q88 434 100.0 495.0Q112 556 122.0 610.5Q132 665 138 706Q178 718 224.5 728.0Q271 738 308 738Q368 738 403.0 712.5Q438 687 453.0 644.0Q468 601 468 550Q468 494 447.5 442.5Q427 391 392.5 350.0Q358 309 313.5 285.0Q269 261 221 261H210Q202 227 195.0 187.0Q188 147 183 113Q179 93 176.0 73.0Q173 53 170 33ZM230 366Q253 372 276.0 396.5Q299 421 314.0 459.0Q329 497 329 542Q329 579 312.5 598.0Q296 617 276 617Q265 551 254.0 492.0Q243 433 230 366Z"/></g>
        <g transform="translate(2880.5714285714284, 0)"><path d="M181 -4Q115 -4 73.0 47.0Q31 98 31 201Q31 258 45.0 321.0Q59 384 84.0 445.0Q109 506 142 558Q195 642 264.0 695.0Q333 748 409 748Q469 748 501.5 717.5Q534 687 547.0 639.5Q560 592 560 541Q560 422 523.5 319.5Q487 217 429 146Q371 73 305.5 34.5Q240 -4 181 -4ZM235 161Q280 161 314.5 191.0Q349 221 373.0 267.5Q397 314 409.0 365.0Q421 416 421 457Q421 473 418.0 491.5Q415 510 405.0 524.0Q395 538 374 538Q328 538 291.0 504.5Q254 471 229 420Q204 368 192.0 318.0Q180 268 180 227Q180 206 195.0 183.5Q210 161 235 161Z"/></g>
        <g transform="translate(3445.0, 0)"><path d="M-6 1Q11 60 27.5 135.0Q44 210 59.5 288.5Q75 367 89 437Q102 501 114.0 567.0Q126 633 138 700L294 725Q281 658 268.0 592.5Q255 527 242 462Q228 392 213.0 314.0Q198 236 184.0 160.5Q170 85 158 20Q140 20 113.0 17.5Q86 15 59.0 11.5Q32 8 13.5 5.0Q-5 2 -6 1Z"/></g>
        <g transform="translate(3716.4285714285716, 0)"><path d="M6 -5Q20 66 33.5 134.5Q47 203 60 270Q74 348 88.5 428.0Q103 508 115.5 584.0Q128 660 135 725Q151 726 166.0 727.0Q181 728 195 729Q208 730 221.5 731.0Q235 732 248 733L296 736Q303 698 308.5 661.0Q314 624 319 589Q323 565 328.5 533.0Q334 501 339.5 467.5Q345 434 350.5 405.0Q356 376 360 358Q370 411 376.5 445.5Q383 480 389.5 512.5Q396 545 405 589L436 735L558 750Q541 675 526.0 604.0Q511 533 498 466Q473 345 454.0 239.5Q435 134 425 55L262 17L247 171Q245 194 241.0 226.5Q237 259 233.0 293.5Q229 328 225.0 356.5Q221 385 219 399Q209 340 200.0 284.5Q191 229 180 177Q173 142 166.5 104.5Q160 67 152 29Z"/></g>
        <g transform="translate(4240.857142857143, 0)"><path d="M90 -1Q101 54 112.5 108.5Q124 163 134 216Q172 406 196 580Q185 582 173.0 582.5Q161 583 150 582Q126 580 103 588Q104 596 104.0 605.5Q104 615 104 625Q104 636 104.0 646.5Q104 657 105 667Q106 678 106.0 690.5Q106 703 107 716Q133 714 159.0 713.0Q185 712 211 712Q285 712 352.5 717.0Q420 722 477 729L466 675L457 628Q452 602 448 587Q437 584 426.0 582.0Q415 580 404 579Q393 578 381.5 576.0Q370 574 359 572Q344 498 334.5 444.0Q325 390 317.5 340.5Q310 291 300 232Q283 131 270 27Z"/></g>
        <g transform="translate(4674.285714285715, 0)"><path d="M171 -2Q131 -2 91.0 19.5Q51 41 14 88L88 233Q99 214 120.5 197.0Q142 180 166.0 170.0Q190 160 207 160Q233 160 256.5 176.0Q280 192 280 219Q280 254 248.0 283.0Q216 312 176 340Q137 368 104.5 403.5Q72 439 72 485Q72 537 102.0 581.5Q132 626 180.0 659.5Q228 693 282.5 711.5Q337 730 386 730Q421 730 451.0 718.5Q481 707 499.0 681.0Q517 655 517 611Q517 604 516.5 597.0Q516 590 515 583Q514 576 512.5 568.5Q511 561 510 553L365 511Q367 519 368.5 527.0Q370 535 370 543Q370 573 359.5 586.5Q349 600 332 600Q323 600 306.0 590.5Q289 581 275.5 564.5Q262 548 262 528Q262 495 289.5 473.5Q317 452 353 430Q370 420 391.0 398.5Q412 377 427.5 340.5Q443 304 443 247Q443 173 406.5 117.0Q370 61 308.0 29.5Q246 -2 171 -2Z"/></g>
  </g>
  
  <!-- Fill layer (white, no stroke) -->
  <g transform="translate(10.0, 45.7) scale(0.042000, -0.042000)" 
     fill="#FFFFFF" stroke="none">
    <g transform="translate(0, 0)"><path d="M182 -2Q119 -2 79.0 57.0Q39 116 39 219Q39 313 65.0 404.5Q91 496 138 569Q185 642 249.5 686.5Q314 731 392 731Q441 731 476.0 693.0Q511 655 511 591V579Q511 575 511.0 572.0Q511 569 510 565L379 530Q367 555 351 555Q327 555 300.5 516.0Q274 477 250 423Q234 387 221.5 349.0Q209 311 202.0 278.0Q195 245 195 224Q195 193 204 179Q211 166 226 166Q241 166 259.0 180.5Q277 195 292.5 217.0Q308 239 313 261L427 215Q378 103 310.5 50.5Q243 -2 182 -2Z"/></g>
        <g transform="translate(485.42857142857144, 0)"><path d="M9 -2Q22 67 34.5 134.5Q47 202 60 269Q74 352 86.5 425.0Q99 498 111.5 570.0Q124 642 136 721L298 732Q281 662 264.5 586.0Q248 510 234 438L333 449Q340 484 346.5 518.5Q353 553 358 587Q363 620 370.5 654.5Q378 689 387 724Q423 730 460.0 733.5Q497 737 522.0 738.5Q547 740 547 740Q534 700 521.0 646.0Q508 592 496.0 532.0Q484 472 473.0 412.5Q462 353 453 302Q442 238 432.0 173.5Q422 109 412 42L256 24Q263 54 268.5 83.5Q274 113 279 141Q289 189 299.5 241.0Q310 293 316 330L219 321Q215 302 211.5 280.0Q208 258 203 233Q198 208 193.5 184.5Q189 161 185 138Q180 111 174.0 84.0Q168 57 163 30Z"/></g>
        <g transform="translate(998.8571428571429, 0)"><path d="M8 -1 139 710 455 737Q448 715 443 692Q438 673 433.5 652.5Q429 632 426 616Q413 615 389.0 614.5Q365 614 340.0 613.5Q315 613 297.0 613.0Q279 613 278 613L243 434L301 437Q312 438 323.5 438.0Q335 438 346 438Q357 438 366.0 438.0Q375 438 380 439Q378 425 376.5 411.5Q375 398 373 384L364 329Q359 328 351.0 328.0Q343 328 332 328Q321 327 309.0 327.0Q297 327 286 326Q273 325 259.0 325.0Q245 325 229 324L195 140L341 163L331 49Z"/></g>
        <g transform="translate(1411.2857142857142, 0)"><path d="M182 -2Q119 -2 79.0 57.0Q39 116 39 219Q39 313 65.0 404.5Q91 496 138 569Q185 642 249.5 686.5Q314 731 392 731Q441 731 476.0 693.0Q511 655 511 591V579Q511 575 511.0 572.0Q511 569 510 565L379 530Q367 555 351 555Q327 555 300.5 516.0Q274 477 250 423Q234 387 221.5 349.0Q209 311 202.0 278.0Q195 245 195 224Q195 193 204 179Q211 166 226 166Q241 166 259.0 180.5Q277 195 292.5 217.0Q308 239 313 261L427 215Q378 103 310.5 50.5Q243 -2 182 -2Z"/></g>
        <g transform="translate(1896.7142857142856, 0)"><path d="M7 -1Q22 69 36.0 137.0Q50 205 63 271Q84 390 104.0 506.5Q124 623 133 729L185 726Q199 725 212.5 724.0Q226 723 239 722Q254 721 269.0 720.5Q284 720 299 720Q297 712 292.5 688.0Q288 664 283.5 639.5Q279 615 277 606L259 507L265 508Q294 553 332.0 612.0Q370 671 403 725Q453 729 503.0 734.0Q553 739 603 747Q580 716 557.0 685.0Q534 654 512 623Q489 591 462.0 553.0Q435 515 410.5 478.5Q386 442 370 416Q381 366 394.0 317.0Q407 268 422 221Q437 174 452.0 126.0Q467 78 483 29Q460 30 436.0 30.5Q412 31 389 31Q360 31 333.0 30.5Q306 30 277 29Q273 61 268.0 95.5Q263 130 258 166Q253 201 248.0 235.5Q243 270 238 302L220 281Q213 252 205 207Q201 185 196.5 163.5Q192 142 188 122Q184 98 179.0 73.5Q174 49 169 23Z"/></g>
        <g transform="translate(2430.142857142857, 0)"><path d="M-3 -1Q27 134 54 263Q65 315 76.5 374.5Q88 434 100.0 495.0Q112 556 122.0 610.5Q132 665 138 706Q178 718 224.5 728.0Q271 738 308 738Q368 738 403.0 712.5Q438 687 453.0 644.0Q468 601 468 550Q468 494 447.5 442.5Q427 391 392.5 350.0Q358 309 313.5 285.0Q269 261 221 261H210Q202 227 195.0 187.0Q188 147 183 113Q179 93 176.0 73.0Q173 53 170 33ZM230 366Q253 372 276.0 396.5Q299 421 314.0 459.0Q329 497 329 542Q329 579 312.5 598.0Q296 617 276 617Q265 551 254.0 492.0Q243 433 230 366Z"/></g>
        <g transform="translate(2880.5714285714284, 0)"><path d="M181 -4Q115 -4 73.0 47.0Q31 98 31 201Q31 258 45.0 321.0Q59 384 84.0 445.0Q109 506 142 558Q195 642 264.0 695.0Q333 748 409 748Q469 748 501.5 717.5Q534 687 547.0 639.5Q560 592 560 541Q560 422 523.5 319.5Q487 217 429 146Q371 73 305.5 34.5Q240 -4 181 -4ZM235 161Q280 161 314.5 191.0Q349 221 373.0 267.5Q397 314 409.0 365.0Q421 416 421 457Q421 473 418.0 491.5Q415 510 405.0 524.0Q395 538 374 538Q328 538 291.0 504.5Q254 471 229 420Q204 368 192.0 318.0Q180 268 180 227Q180 206 195.0 183.5Q210 161 235 161Z"/></g>
        <g transform="translate(3445.0, 0)"><path d="M-6 1Q11 60 27.5 135.0Q44 210 59.5 288.5Q75 367 89 437Q102 501 114.0 567.0Q126 633 138 700L294 725Q281 658 268.0 592.5Q255 527 242 462Q228 392 213.0 314.0Q198 236 184.0 160.5Q170 85 158 20Q140 20 113.0 17.5Q86 15 59.0 11.5Q32 8 13.5 5.0Q-5 2 -6 1Z"/></g>
        <g transform="translate(3716.4285714285716, 0)"><path d="M6 -5Q20 66 33.5 134.5Q47 203 60 270Q74 348 88.5 428.0Q103 508 115.5 584.0Q128 660 135 725Q151 726 166.0 727.0Q181 728 195 729Q208 730 221.5 731.0Q235 732 248 733L296 736Q303 698 308.5 661.0Q314 624 319 589Q323 565 328.5 533.0Q334 501 339.5 467.5Q345 434 350.5 405.0Q356 376 360 358Q370 411 376.5 445.5Q383 480 389.5 512.5Q396 545 405 589L436 735L558 750Q541 675 526.0 604.0Q511 533 498 466Q473 345 454.0 239.5Q435 134 425 55L262 17L247 171Q245 194 241.0 226.5Q237 259 233.0 293.5Q229 328 225.0 356.5Q221 385 219 399Q209 340 200.0 284.5Q191 229 180 177Q173 142 166.5 104.5Q160 67 152 29Z"/></g>
        <g transform="translate(4240.857142857143, 0)"><path d="M90 -1Q101 54 112.5 108.5Q124 163 134 216Q172 406 196 580Q185 582 173.0 582.5Q161 583 150 582Q126 580 103 588Q104 596 104.0 605.5Q104 615 104 625Q104 636 104.0 646.5Q104 657 105 667Q106 678 106.0 690.5Q106 703 107 716Q133 714 159.0 713.0Q185 712 211 712Q285 712 352.5 717.0Q420 722 477 729L466 675L457 628Q452 602 448 587Q437 584 426.0 582.0Q415 580 404 579Q393 578 381.5 576.0Q370 574 359 572Q344 498 334.5 444.0Q325 390 317.5 340.5Q310 291 300 232Q283 131 270 27Z"/></g>
        <g transform="translate(4674.285714285715, 0)"><path d="M171 -2Q131 -2 91.0 19.5Q51 41 14 88L88 233Q99 214 120.5 197.0Q142 180 166.0 170.0Q190 160 207 160Q233 160 256.5 176.0Q280 192 280 219Q280 254 248.0 283.0Q216 312 176 340Q137 368 104.5 403.5Q72 439 72 485Q72 537 102.0 581.5Q132 626 180.0 659.5Q228 693 282.5 711.5Q337 730 386 730Q421 730 451.0 718.5Q481 707 499.0 681.0Q517 655 517 611Q517 604 516.5 597.0Q516 590 515 583Q514 576 512.5 568.5Q511 561 510 553L365 511Q367 519 368.5 527.0Q370 535 370 543Q370 573 359.5 586.5Q349 600 332 600Q323 600 306.0 590.5Q289 581 275.5 564.5Q262 548 262 528Q262 495 289.5 473.5Q317 452 353 430Q370 420 391.0 398.5Q412 377 427.5 340.5Q443 304 443 247Q443 173 406.5 117.0Q370 61 308.0 29.5Q246 -2 171 -2Z"/></g>
  </g>
</svg>