<?xml version="1.0" encoding="UTF-8"?>
<svg xmlns="http://www.w3.org/2000/svg" viewBox="0 0 207.2 68.0" width="207.2" height="68.0">
  <!-- Shadow layer (solid black, offset) -->
  <g transform="translate(13.0, 48.7) scale(0.042000, -0.042000)" 
     fill="#000" stroke="#000" stroke-width="47.6" stroke-linejoin="round">
    <g transform="translate(0, 0)"><path d="M90 -1Q101 54 112.5 108.5Q124 163 134 216Q172 406 196 580Q185 582 173.0 582.5Q161 583 150 582Q126 580 103 588Q104 596 104.0 605.5Q104 615 104 625Q104 636 104.0 646.5Q104 657 105 667Q106 678 106.0 690.5Q106 703 107 716Q133 714 159.0 713.0Q185 712 211 712Q285 712 352.5 717.0Q420 722 477 729L466 675L457 628Q452 602 448 587Q437 584 426.0 582.0Q415 580 404 579Q393 578 381.5 576.0Q370 574 359 572Q344 498 334.5 444.0Q325 390 317.5 340.5Q310 291 300 232Q283 131 270 27Z"/></g>
        <g transform="translate(433.42857142857144, 0)"><path d="M-6 1Q11 60 27.5 135.0Q44 210 59.5 288.5Q75 367 89 437Q102 501 114.0 567.0Q126 633 138 700L294 725Q281 658 268.0 592.5Q255 527 242 462Q228 392 213.0 314.0Q198 236 184.0 160.5Q170 85 158 20Q140 20 113.0 17.5Q86 15 59.0 11.5Q32 8 13.5 5.0Q-5 2 -6 1Z"/></g>
        <g transform="translate(704.8571428571429, 0)"><path d="M-30 6Q14 140 54 267Q71 319 89.0 378.0Q107 437 125.0 496.5Q143 556 159.0 611.0Q175 666 186 709Q241 709 290 715Q315 718 341.5 721.0Q368 724 396 726L390 677Q388 663 386.0 648.5Q384 634 382 619Q380 604 377.0 588.5Q374 573 372 557Q368 526 360.0 470.5Q352 415 341 350H354Q383 426 402.0 476.5Q421 527 433 559Q450 606 470.0 654.0Q490 702 503 728Q527 730 560.5 734.5Q594 739 628.5 745.0Q663 751 688 755Q674 671 662.5 585.5Q651 500 642.5 422.5Q634 345 628 283Q622 221 617.0 160.5Q612 100 607 41L433 10Q433 12 436.0 55.0Q439 98 446 162Q453 226 460.0 283.5Q467 341 474 378H465Q440 302 404.5 212.0Q369 122 335 13Q300 12 275.0 10.5Q250 9 217 7L249 378H234Q233 367 225.0 335.5Q217 304 206.0 263.5Q195 223 183 183Q138 26 135 17Z"/></g>
        <g transform="translate(1395.2857142857142, 0)"><path d="M8 -1 139 710 455 737Q448 715 443 692Q438 673 433.5 652.5Q429 632 426 616Q413 615 389.0 614.5Q365 614 340.0 613.5Q315 613 297.0 613.0Q279 613 278 613L243 434L301 437Q312 438 323.5 438.0Q335 438 346 438Q357 438 366.0 438.0Q375 438 380 439Q378 425 376.5 411.5Q375 398 373 384L364 329Q359 328 351.0 328.0Q343 328 332 328Q321 327 309.0 327.0Q297 327 286 326Q273 325 259.0 325.0Q245 325 229 324L195 140L341 163L331 49Z"/></g>
        <g transform="translate(2129.142857142857, 0)"><path d="M223 -24Q186 -24 152.5 -8.0Q119 8 95 41Q70 73 56.0 122.0Q42 171 42 237Q42 366 79.0 462.0Q116 558 173 622Q229 686 293.5 717.0Q358 748 414 748Q468 748 502.0 724.5Q536 701 552.0 662.0Q568 623 568 575L431 549Q422 589 407.0 606.0Q392 623 373 623Q351 623 327.5 599.0Q304 575 281.5 534.5Q259 494 241.0 444.0Q223 394 211.5 341.0Q200 288 198 241Q198 179 216.5 152.5Q235 126 264 126Q292 126 319.5 144.0Q347 162 365.5 192.5Q384 223 385 261L278 245L297 344L389 356Q427 361 469.5 368.0Q512 375 544 381Q537 279 504.5 202.5Q472 126 424.0 76.0Q376 26 323.5 1.0Q271 -24 223 -24Z"/></g>
        <g transform="translate(2699.5714285714284, 0)"><path d="M165 -18Q135 -18 104.0 -5.0Q73 8 52.0 35.0Q31 62 31 104V112Q31 117 32 120Q35 146 40.5 188.0Q46 230 54.0 279.5Q62 329 70.5 378.0Q79 427 86 467Q101 547 110.0 596.0Q119 645 124.5 671.5Q130 698 133 711L298 727Q285 666 273.5 611.5Q262 557 252 508L206 287Q200 262 197 245Q193 229 188.5 204.5Q184 180 184 160Q184 144 192.0 133.5Q200 123 212 123Q229 123 240.0 136.0Q251 149 258.0 168.0Q265 187 269.0 206.5Q273 226 276 238Q286 284 294.5 327.5Q303 371 312.5 420.0Q322 469 334 533Q342 577 350.5 622.5Q359 668 367 715L519 725L484 532Q477 495 468.5 449.0Q460 403 450.0 356.0Q440 309 431.5 267.0Q423 225 416 195Q396 113 354.0 66.5Q312 20 261.5 1.0Q211 -18 165 -18Z"/></g>
        <g transform="translate(3190.0, 0)"><path d="M-6 1Q11 60 27.5 135.0Q44 210 59.5 288.5Q75 367 89 437Q102 501 114.0 567.0Q126 633 138 700L294 725Q281 658 268.0 592.5Q255 527 242 462Q228 392 213.0 314.0Q198 236 184.0 160.5Q170 85 158 20Q140 20 113.0 17.5Q86 15 59.0 11.5Q32 8 13.5 5.0Q-5 2 -6 1Z"/></g>
        <g transform="translate(3461.4285714285716, 0)"><path d="M60 -5Q46 -5 32.0 -3.5Q18 -2 4 0L57 269Q67 324 78.5 385.5Q90 447 101.0 507.5Q112 568 120.5 620.0Q129 672 134 708Q177 716 221.0 723.0Q265 730 311 730Q385 730 428.0 699.5Q471 669 490.0 619.5Q509 570 509 511Q509 458 494.0 399.5Q479 341 451.5 283.5Q424 226 386 175Q327 96 242.5 45.5Q158 -5 60 -5ZM179 121Q214 144 245.5 191.0Q277 238 305 304Q330 365 344.0 419.5Q358 474 358 510Q358 547 337.5 568.0Q317 589 273 589Q257 503 240.5 430.0Q224 357 208.5 283.0Q193 209 179 121Z"/></g>
        <g transform="translate(3973.857142857143, 0)"><path d="M8 -1 139 710 455 737Q448 715 443 692Q438 673 433.5 652.5Q429 632 426 616Q413 615 389.0 614.5Q365 614 340.0 613.5Q315 613 297.0 613.0Q279 613 278 613L243 434L301 437Q312 438 323.5 438.0Q335 438 346 438Q357 438 366.0 438.0Q375 438 380 439Q378 425 376.5 411.5Q375 398 373 384L364 329Q359 328 351.0 328.0Q343 328 332 328Q321 327 309.0 327.0Q297 327 286 326Q273 325 259.0 325.0Q245 325 229 324L195 140L341 163L331 49Z"/></g>
  </g>
  
  <!-- Stroke layer (black fill + stroke for outline) -->
  <g transform="translate(10.0, 45.7) scale(0.042000, -0.042000)" 
     fill="#000" stroke="#000" stroke-width="47.6" stroke-linejoin="round">
    <g transform="translate(0, 0)"><path d="M90 -1Q101 54 112.5 108.5Q124 163 134 216Q172 406 196 580Q185 582 173.0 582.5Q161 583 150 582Q126 580 103 588Q104 596 104.0 605.5Q104 615 104 625Q104 636 104.0 646.5Q104 657 105 667Q106 678 106.0 690.5Q106 703 107 716Q133 714 159.0 713.0Q185 712 211 712Q285 712 352.5 717.0Q420 722 477 729L466 675L457 628Q452 602 448 587Q437 584 426.0 582.0Q415 580 404 579Q393 578 381.5 576.0Q370 574 359 572Q344 498 334.5 444.0Q325 390 317.5 340.5Q310 291 300 232Q283 131 270 27Z"/></g>
        <g transform="translate(433.42857142857144, 0)"><path d="M-6 1Q11 60 27.5 135.0Q44 210 59.5 288.5Q75 367 89 437Q102 501 114.0 567.0Q126 633 138 700L294 725Q281 658 268.0 592.5Q255 527 242 462Q228 392 213.0 314.0Q198 236 184.0 160.5Q170 85 158 20Q140 20 113.0 17.5Q86 15 59.0 11.5Q32 8 13.5 5.0Q-5 2 -6 1Z"/></g>
        <g transform="translate(704.8571428571429, 0)"><path d="M-30 6Q14 140 54 267Q71 319 89.0 378.0Q107 437 125.0 496.5Q143 556 159.0 611.0Q175 666 186 709Q241 709 290 715Q315 718 341.5 721.0Q368 724 396 726L390 677Q388 663 386.0 648.5Q384 634 382 619Q380 604 377.0 588.5Q374 573 372 557Q368 526 360.0 470.5Q352 415 341 350H354Q383 426 402.0 476.5Q421 527 433 559Q450 606 470.0 654.0Q490 702 503 728Q527 730 560.5 734.5Q594 739 628.5 745.0Q663 751 688 755Q674 671 662.5 585.5Q651 500 642.5 422.5Q634 345 628 283Q622 221 617.0 160.5Q612 100 607 41L433 10Q433 12 436.0 55.0Q439 98 446 162Q453 226 460.0 283.5Q467 341 474 378H465Q440 302 404.5 212.0Q369 122 335 13Q300 12 275.0 10.5Q250 9 217 7L249 378H234Q233 367 225.0 335.5Q217 304 206.0 263.5Q195 223 183 183Q138 26 135 17Z"/></g>
        <g transform="translate(1395.2857142857142, 0)"><path d="M8 -1 139 710 455 737Q448 715 443 692Q438 673 433.5 652.5Q429 632 426 616Q413 615 389.0 614.5Q365 614 340.0 613.5Q315 613 297.0 613.0Q279 613 278 613L243 434L301 437Q312 438 323.5 438.0Q335 438 346 438Q357 438 366.0 438.0Q375 438 380 439Q378 425 376.5 411.5Q375 398 373 384L364 329Q359 328 351.0 328.0Q343 328 332 328Q321 327 309.0 327.0Q297 327 286 326Q273 325 259.0 325.0Q245 325 229 324L195 140L341 163L331 49Z"/></g>
        <g transform="translate(2129.142857142857, 0)"><path d="M223 -24Q186 -24 152.5 -8.0Q119 8 95 41Q70 73 56.0 122.0Q42 171 42 237Q42 366 79.0 462.0Q116 558 173 622Q229 686 293.5 717.0Q358 748 414 748Q468 748 502.0 724.5Q536 701 552.0 662.0Q568 623 568 575L431 549Q422 589 407.0 606.0Q392 623 373 623Q351 623 327.5 599.0Q304 575 281.5 534.5Q259 494 241.0 444.0Q223 394 211.5 341.0Q200 288 198 241Q198 179 216.5 152.5Q235 126 264 126Q292 126 319.5 144.0Q347 162 365.5 192.5Q384 223 385 261L278 245L297 344L389 356Q427 361 469.5 368.0Q512 375 544 381Q537 279 504.5 202.5Q472 126 424.0 76.0Q376 26 323.5 1.0Q271 -24 223 -24Z"/></g>
        <g transform="translate(2699.5714285714284, 0)"><path d="M165 -18Q135 -18 104.0 -5.0Q73 8 52.0 35.0Q31 62 31 104V112Q31 117 32 120Q35 146 40.5 188.0Q46 230 54.0 279.5Q62 329 70.5 378.0Q79 427 86 467Q101 547 110.0 596.0Q119 645 124.5 671.5Q130 698 133 711L298 727Q285 666 273.5 611.5Q262 557 252 508L206 287Q200 262 197 245Q193 229 188.5 204.5Q184 180 184 160Q184 144 192.0 133.5Q200 123 212 123Q229 123 240.0 136.0Q251 149 258.0 168.0Q265 187 269.0 206.5Q273 226 276 238Q286 284 294.5 327.5Q303 371 312.5 420.0Q322 469 334 533Q342 577 350.5 622.5Q359 668 367 715L519 725L484 532Q477 495 468.5 449.0Q460 403 450.0 356.0Q440 309 431.5 267.0Q423 225 416 195Q396 113 354.0 66.5Q312 20 261.5 1.0Q211 -18 165 -18Z"/></g>
        <g transform="translate(3190.0, 0)"><path d="M-6 1Q11 60 27.5 135.0Q44 210 59.5 288.5Q75 367 89 437Q102 501 114.0 567.0Q126 633 138 700L294 725Q281 658 268.0 592.5Q255 527 242 462Q228 392 213.0 314.0Q198 236 184.0 160.5Q170 85 158 20Q140 20 113.0 17.5Q86 15 59.0 11.5Q32 8 13.5 5.0Q-5 2 -6 1Z"/></g>
        <g transform="translate(3461.4285714285716, 0)"><path d="M60 -5Q46 -5 32.0 -3.5Q18 -2 4 0L57 269Q67 324 78.5 385.5Q90 447 101.0 507.5Q112 568 120.5 620.0Q129 672 134 708Q177 716 221.0 723.0Q265 730 311 730Q385 730 428.0 699.5Q471 669 490.0 619.5Q509 570 509 511Q509 458 494.0 399.5Q479 341 451.5 283.5Q424 226 386 175Q327 96 242.5 45.5Q158 -5 60 -5ZM179 121Q214 144 245.5 191.0Q277 238 305 304Q330 365 344.0 419.5Q358 474 358 510Q358 547 337.5 568.0Q317 589 273 589Q257 503 240.5 430.0Q224 357 208.5 283.0Q193 209 179 121Z"/></g>
        <g transform="translate(3973.857142857143, 0)"><path d="M8 -1 139 710 455 737Q448 715 443 692Q438 673 433.5 652.5Q429 632 426 616Q413 615 389.0 614.5Q365 614 340.0 613.5Q315 613 297.0 613.0Q279 613 278 613L243 434L301 437Q312 438 323.5 438.0Q335 438 346 438Q357 438 366.0 438.0Q375 438 380 439Q378 425 376.5 411.5Q375 398 373 384L364 329Q359 328 351.0 328.0Q343 328 332 328Q321 327 309.0 327.0Q297 327 286 326Q273 325 259.0 325.0Q245 325 229 324L195 140L341 163L331 49Z"/></g>
  </g>
  
  <!-- Fill layer (white, no stroke) -->
  <g transform="translate(10.0, 45.7) scale(0.042000, -0.042000)" 
     fill="#FFFFFF" stroke="none">
    <g transform="translate(0, 0)"><path d="M90 -1Q101 54 112.5 108.5Q124 163 134 216Q172 406 196 580Q185 582 173.0 582.5Q161 583 150 582Q126 580 103 588Q104 596 104.0 605.5Q104 615 104 625Q104 636 104.0 646.5Q104 657 105 667Q106 678 106.0 690.5Q106 703 107 716Q133 714 159.0 713.0Q185 712 211 712Q285 712 352.5 717.0Q420 722 477 729L466 675L457 628Q452 602 448 587Q437 584 426.0 582.0Q415 580 404 579Q393 578 381.5 576.0Q370 574 359 572Q344 498 334.5 444.0Q325 390 317.5 340.5Q310 291 300 232Q283 131 270 27Z"/></g>
        <g transform="translate(433.42857142857144, 0)"><path d="M-6 1Q11 60 27.5 135.0Q44 210 59.5 288.5Q75 367 89 437Q102 501 114.0 567.0Q126 633 138 700L294 725Q281 658 268.0 592.5Q255 527 242 462Q228 392 213.0 314.0Q198 236 184.0 160.5Q170 85 158 20Q140 20 113.0 17.5Q86 15 59.0 11.5Q32 8 13.5 5.0Q-5 2 -6 1Z"/></g>
        <g transform="translate(704.8571428571429, 0)"><path d="M-30 6Q14 140 54 267Q71 319 89.0 378.0Q107 437 125.0 496.5Q143 556 159.0 611.0Q175 666 186 709Q241 709 290 715Q315 718 341.5 721.0Q368 724 396 726L390 677Q388 663 386.0 648.5Q384 634 382 619Q380 604 377.0 588.5Q374 573 372 557Q368 526 360.0 470.5Q352 415 341 350H354Q383 426 402.0 476.5Q421 527 433 559Q450 606 470.0 654.0Q490 702 503 728Q527 730 560.5 734.5Q594 739 628.5 745.0Q663 751 688 755Q674 671 662.5 585.5Q651 500 642.5 422.5Q634 345 628 283Q622 221 617.0 160.5Q612 100 607 41L433 10Q433 12 436.0 55.0Q439 98 446 162Q453 226 460.0 283.5Q467 341 474 378H465Q440 302 404.5 212.0Q369 122 335 13Q300 12 275.0 10.5Q250 9 217 7L249 378H234Q233 367 225.0 335.5Q217 304 206.0 263.5Q195 223 183 183Q138 26 135 17Z"/></g>
        <g transform="translate(1395.2857142857142, 0)"><path d="M8 -1 139 710 455 737Q448 715 443 692Q438 673 433.5 652.5Q429 632 426 616Q413 615 389.0 614.5Q365 614 340.0 613.5Q315 613 297.0 613.0Q279 613 278 613L243 434L301 437Q312 438 323.5 438.0Q335 438 346 438Q357 438 366.0 438.0Q375 438 380 439Q378 425 376.5 411.5Q375 398 373 384L364 329Q359 328 351.0 328.0Q343 328 332 328Q321 327 309.0 327.0Q297 327 286 326Q273 325 259.0 325.0Q245 325 229 324L195 140L341 163L331 49Z"/></g>
        <g transform="translate(2129.142857142857, 0)"><path d="M223 -24Q186 -24 152.5 -8.0Q119 8 95 41Q70 73 56.0 122.0Q42 171 42 237Q42 366 79.0 462.0Q116 558 173 622Q229 686 293.5 717.0Q358 748 414 748Q468 748 502.0 724.5Q536 701 552.0 662.0Q568 623 568 575L431 549Q422 589 407.0 606.0Q392 623 373 623Q351 623 327.5 599.0Q304 575 281.5 534.5Q259 494 241.0 444.0Q223 394 211.5 341.0Q200 288 198 241Q198 179 216.5 152.5Q235 126 264 126Q292 126 319.5 144.0Q347 162 365.5 192.5Q384 223 385 261L278 245L297 344L389 356Q427 361 469.5 368.0Q512 375 544 381Q537 279 504.5 202.5Q472 126 424.0 76.0Q376 26 323.5 1.0Q271 -24 223 -24Z"/></g>
        <g transform="translate(2699.5714285714284, 0)"><path d="M165 -18Q135 -18 104.0 -5.0Q73 8 52.0 35.0Q31 62 31 104V112Q31 117 32 120Q35 146 40.5 188.0Q46 230 54.0 279.5Q62 329 70.5 378.0Q79 427 86 467Q101 547 110.0 596.0Q119 645 124.5 671.5Q130 698 133 711L298 727Q285 666 273.5 611.5Q262 557 252 508L206 287Q200 262 197 245Q193 229 188.5 204.5Q184 180 184 160Q184 144 192.0 133.5Q200 123 212 123Q229 123 240.0 136.0Q251 149 258.0 168.0Q265 187 269.0 206.5Q273 226 276 238Q286 284 294.5 327.5Q303 371 312.5 420.0Q322 469 334 533Q342 577 350.5 622.5Q359 668 367 715L519 725L484 532Q477 495 468.5 449.0Q460 403 450.0 356.0Q440 309 431.5 267.0Q423 225 416 195Q396 113 354.0 66.5Q312 20 261.5 1.0Q211 -18 165 -18Z"/></g>
        <g transform="translate(3190.0, 0)"><path d="M-6 1Q11 60 27.5 135.0Q44 210 59.5 288.5Q75 367 89 437Q102 501 114.0 567.0Q126 633 138 700L294 725Q281 658 268.0 592.5Q255 527 242 462Q228 392 213.0 314.0Q198 236 184.0 160.5Q170 85 158 20Q140 20 113.0 17.5Q86 15 59.0 11.5Q32 8 13.5 5.0Q-5 2 -6 1Z"/></g>
        <g transform="translate(3461.4285714285716, 0)"><path d="M60 -5Q46 -5 32.0 -3.5Q18 -2 4 0L57 269Q67 324 78.5 385.5Q90 447 101.0 507.5Q112 568 120.5 620.0Q129 672 134 708Q177 716 221.0 723.0Q265 730 311 730Q385 730 428.0 699.5Q471 669 490.0 619.5Q509 570 509 511Q509 458 494.0 399.5Q479 341 451.5 283.5Q424 226 386 175Q327 96 242.5 45.5Q158 -5 60 -5ZM179 121Q214 144 245.5 191.0Q277 238 305 304Q330 365 344.0 419.5Q358 474 358 510Q358 547 337.5 568.0Q317 589 273 589Q257 503 240.5 430.0Q224 357 208.5 283.0Q193 209 179 121Z"/></g>
        <g transform="translate(3973.857142857143, 0)"><path d="M8 -1 139 710 455 737Q448 715 443 692Q438 673 433.5 652.5Q429 632 426 616Q413 615 389.0 614.5Q365 614 340.0 613.5Q315 613 297.0 613.0Q279 613 278 613L243 434L301 437Q312 438 323.5 438.0Q335 438 346 438Q357 438 366.0 438.0Q375 438 380 439Q378 425 376.5 411.5Q375 398 373 384L364 329Q359 328 351.0 328.0Q343 328 332 328Q321 327 309.0 327.0Q297 327 286 326Q273 325 259.0 325.0Q245 325 229 324L195 140L341 163L331 49Z"/></g>
  </g>
</svg>