<?xml version="1.0" encoding="UTF-8"?>
<svg xmlns="http://www.w3.org/2000/svg" viewBox="0 0 170.7 68.0" width="170.7" height="68.0">
  <!-- Shadow layer (solid black, offset) -->
  <g transform="translate(13.0, 48.7) scale(0.042000, -0.042000)" 
     fill="#000" stroke="#000" stroke-width="47.6" stroke-linejoin="round">
    <g transform="translate(0, 0)"><path d="M90 -1Q101 54 112.5 108.5Q124 163 134 216Q172 406 196 580Q185 582 173.0 582.5Q161 583 150 582Q126 580 103 588Q104 596 104.0 605.5Q104 615 104 625Q104 636 104.0 646.5Q104 657 105 667Q106 678 106.0 690.5Q106 703 107 716Q133 714 159.0 713.0Q185 712 211 712Q285 712 352.5 717.0Q420 722 477 729L466 675L457 628Q452 602 448 587Q437 584 426.0 582.0Q415 580 404 579Q393 578 381.5 576.0Q370 574 359 572Q344 498 334.5 444.0Q325 390 317.5 340.5Q310 291 300 232Q283 131 270 27Z"/></g>
    <g transform="translate(362, 0)"><path d="M9 -2Q22 67 34.5 134.5Q47 202 60 269Q74 352 86.5 425.0Q99 498 111.5 570.0Q124 642 136 721L298 732Q281 662 264.5 586.0Q248 510 234 438L333 449Q340 484 346.5 518.5Q353 553 358 587Q363 620 370.5 654.5Q378 689 387 724Q423 730 460.0 733.5Q497 737 522.0 738.5Q547 740 547 740Q534 700 521.0 646.0Q508 592 496.0 532.0Q484 472 473.0 412.5Q462 353 453 302Q442 238 432.0 173.5Q422 109 412 42L256 24Q263 54 268.5 83.5Q274 113 279 141Q289 189 299.5 241.0Q310 293 316 330L219 321Q215 302 211.5 280.0Q208 258 203 233Q198 208 193.5 184.5Q189 161 185 138Q180 111 174.0 84.0Q168 57 163 30Z"/></g>
    <g transform="translate(804, 0)"><path d="M8 -1 139 710 455 737Q448 715 443 692Q438 673 433.5 652.5Q429 632 426 616Q413 615 389.0 614.5Q365 614 340.0 613.5Q315 613 297.0 613.0Q279 613 278 613L243 434L301 437Q312 438 323.5 438.0Q335 438 346 438Q357 438 366.0 438.0Q375 438 380 439Q378 425 376.5 411.5Q375 398 373 384L364 329Q359 328 351.0 328.0Q343 328 332 328Q321 327 309.0 327.0Q297 327 286 326Q273 325 259.0 325.0Q245 325 229 324L195 140L341 163L331 49Z"/></g>
    <g transform="translate(1445, 0)"><path d="M182 -2Q119 -2 79.0 57.0Q39 116 39 219Q39 313 65.0 404.5Q91 496 138 569Q185 642 249.5 686.5Q314 731 392 731Q441 731 476.0 693.0Q511 655 511 591V579Q511 575 511.0 572.0Q511 569 510 565L379 530Q367 555 351 555Q327 555 300.5 516.0Q274 477 250 423Q234 387 221.5 349.0Q209 311 202.0 278.0Q195 245 195 224Q195 193 204 179Q211 166 226 166Q241 166 259.0 180.5Q277 195 292.5 217.0Q308 239 313 261L427 215Q378 103 310.5 50.5Q243 -2 182 -2Z"/></g>
    <g transform="translate(1859, 0)"><path d="M12 -2Q23 77 35.5 157.0Q48 237 61.5 311.5Q75 386 87 446Q100 511 113.0 578.0Q126 645 140 713L315 736L263 510Q249 451 234.5 383.5Q220 316 208.0 253.0Q196 190 189 141Q214 143 242.5 143.5Q271 144 293 144Q294 121 297.0 95.5Q300 70 303.5 51.5Q307 33 307 31Q303 31 299.5 31.0Q296 31 292 32H276Q237 32 189.5 28.5Q142 25 95.5 17.5Q49 10 12 -2Z"/></g>
    <g transform="translate(2161, 0)"><path d="M-6 1Q11 60 27.5 135.0Q44 210 59.5 288.5Q75 367 89 437Q102 501 114.0 567.0Q126 633 138 700L294 725Q281 658 268.0 592.5Q255 527 242 462Q228 392 213.0 314.0Q198 236 184.0 160.5Q170 85 158 20Q140 20 113.0 17.5Q86 15 59.0 11.5Q32 8 13.5 5.0Q-5 2 -6 1Z"/></g>
    <g transform="translate(2361, 0)"><path d="M8 -1 139 710 455 737Q448 715 443 692Q438 673 433.5 652.5Q429 632 426 616Q413 615 389.0 614.5Q365 614 340.0 613.5Q315 613 297.0 613.0Q279 613 278 613L243 434L301 437Q312 438 323.5 438.0Q335 438 346 438Q357 438 366.0 438.0Q375 438 380 439Q378 425 376.5 411.5Q375 398 373 384L364 329Q359 328 351.0 328.0Q343 328 332 328Q321 327 309.0 327.0Q297 327 286 326Q273 325 259.0 325.0Q245 325 229 324L195 140L341 163L331 49Z"/></g>
    <g transform="translate(2702, 0)"><path d="M6 -5Q20 66 33.5 134.5Q47 203 60 270Q74 348 88.5 428.0Q103 508 115.5 584.0Q128 660 135 725Q151 726 166.0 727.0Q181 728 195 729Q208 730 221.5 731.0Q235 732 248 733L296 736Q303 698 308.5 661.0Q314 624 319 589Q323 565 328.5 533.0Q334 501 339.5 467.5Q345 434 350.5 405.0Q356 376 360 358Q370 411 376.5 445.5Q383 480 389.5 512.5Q396 545 405 589L436 735L558 750Q541 675 526.0 604.0Q511 533 498 466Q473 345 454.0 239.5Q435 134 425 55L262 17L247 171Q245 194 241.0 226.5Q237 259 233.0 293.5Q229 328 225.0 356.5Q221 385 219 399Q209 340 200.0 284.5Q191 229 180 177Q173 142 166.5 104.5Q160 67 152 29Z"/></g>
    <g transform="translate(3155, 0)"><path d="M90 -1Q101 54 112.5 108.5Q124 163 134 216Q172 406 196 580Q185 582 173.0 582.5Q161 583 150 582Q126 580 103 588Q104 596 104.0 605.5Q104 615 104 625Q104 636 104.0 646.5Q104 657 105 667Q106 678 106.0 690.5Q106 703 107 716Q133 714 159.0 713.0Q185 712 211 712Q285 712 352.5 717.0Q420 722 477 729L466 675L457 628Q452 602 448 587Q437 584 426.0 582.0Q415 580 404 579Q393 578 381.5 576.0Q370 574 359 572Q344 498 334.5 444.0Q325 390 317.5 340.5Q310 291 300 232Q283 131 270 27Z"/></g>
  </g>
  
  <!-- Stroke layer (black fill + stroke for outline) -->
  <g transform="translate(10.0, 45.7) scale(0.042000, -0.042000)" 
     fill="#000" stroke="#000" stroke-width="47.6" stroke-linejoin="round">
    <g transform="translate(0, 0)"><path d="M90 -1Q101 54 112.5 108.5Q124 163 134 216Q172 406 196 580Q185 582 173.0 582.5Q161 583 150 582Q126 580 103 588Q104 596 104.0 605.5Q104 615 104 625Q104 636 104.0 646.5Q104 657 105 667Q106 678 106.0 690.5Q106 703 107 716Q133 714 159.0 713.0Q185 712 211 712Q285 712 352.5 717.0Q420 722 477 729L466 675L457 628Q452 602 448 587Q437 584 426.0 582.0Q415 580 404 579Q393 578 381.5 576.0Q370 574 359 572Q344 498 334.5 444.0Q325 390 317.5 340.5Q310 291 300 232Q283 131 270 27Z"/></g>
    <g transform="translate(362, 0)"><path d="M9 -2Q22 67 34.5 134.5Q47 202 60 269Q74 352 86.5 425.0Q99 498 111.5 570.0Q124 642 136 721L298 732Q281 662 264.5 586.0Q248 510 234 438L333 449Q340 484 346.5 518.5Q353 553 358 587Q363 620 370.5 654.5Q378 689 387 724Q423 730 460.0 733.5Q497 737 522.0 738.5Q547 740 547 740Q534 700 521.0 646.0Q508 592 496.0 532.0Q484 472 473.0 412.5Q462 353 453 302Q442 238 432.0 173.5Q422 109 412 42L256 24Q263 54 268.5 83.5Q274 113 279 141Q289 189 299.5 241.0Q310 293 316 330L219 321Q215 302 211.5 280.0Q208 258 203 233Q198 208 193.5 184.5Q189 161 185 138Q180 111 174.0 84.0Q168 57 163 30Z"/></g>
    <g transform="translate(804, 0)"><path d="M8 -1 139 710 455 737Q448 715 443 692Q438 673 433.5 652.5Q429 632 426 616Q413 615 389.0 614.5Q365 614 340.0 613.5Q315 613 297.0 613.0Q279 613 278 613L243 434L301 437Q312 438 323.5 438.0Q335 438 346 438Q357 438 366.0 438.0Q375 438 380 439Q378 425 376.5 411.5Q375 398 373 384L364 329Q359 328 351.0 328.0Q343 328 332 328Q321 327 309.0 327.0Q297 327 286 326Q273 325 259.0 325.0Q245 325 229 324L195 140L341 163L331 49Z"/></g>
    <g transform="translate(1445, 0)"><path d="M182 -2Q119 -2 79.0 57.0Q39 116 39 219Q39 313 65.0 404.5Q91 496 138 569Q185 642 249.5 686.5Q314 731 392 731Q441 731 476.0 693.0Q511 655 511 591V579Q511 575 511.0 572.0Q511 569 510 565L379 530Q367 555 351 555Q327 555 300.5 516.0Q274 477 250 423Q234 387 221.5 349.0Q209 311 202.0 278.0Q195 245 195 224Q195 193 204 179Q211 166 226 166Q241 166 259.0 180.5Q277 195 292.5 217.0Q308 239 313 261L427 215Q378 103 310.5 50.5Q243 -2 182 -2Z"/></g>
    <g transform="translate(1859, 0)"><path d="M12 -2Q23 77 35.5 157.0Q48 237 61.5 311.5Q75 386 87 446Q100 511 113.0 578.0Q126 645 140 713L315 736L263 510Q249 451 234.5 383.5Q220 316 208.0 253.0Q196 190 189 141Q214 143 242.5 143.5Q271 144 293 144Q294 121 297.0 95.5Q300 70 303.5 51.5Q307 33 307 31Q303 31 299.5 31.0Q296 31 292 32H276Q237 32 189.5 28.5Q142 25 95.5 17.5Q49 10 12 -2Z"/></g>
    <g transform="translate(2161, 0)"><path d="M-6 1Q11 60 27.5 135.0Q44 210 59.5 288.5Q75 367 89 437Q102 501 114.0 567.0Q126 633 138 700L294 725Q281 658 268.0 592.5Q255 527 242 462Q228 392 213.0 314.0Q198 236 184.0 160.5Q170 85 158 20Q140 20 113.0 17.5Q86 15 59.0 11.5Q32 8 13.5 5.0Q-5 2 -6 1Z"/></g>
    <g transform="translate(2361, 0)"><path d="M8 -1 139 710 455 737Q448 715 443 692Q438 673 433.5 652.5Q429 632 426 616Q413 615 389.0 614.5Q365 614 340.0 613.5Q315 613 297.0 613.0Q279 613 278 613L243 434L301 437Q312 438 323.5 438.0Q335 438 346 438Q357 438 366.0 438.0Q375 438 380 439Q378 425 376.5 411.5Q375 398 373 384L364 329Q359 328 351.0 328.0Q343 328 332 328Q321 327 309.0 327.0Q297 327 286 326Q273 325 259.0 325.0Q245 325 229 324L195 140L341 163L331 49Z"/></g>
    <g transform="translate(2702, 0)"><path d="M6 -5Q20 66 33.5 134.5Q47 203 60 270Q74 348 88.5 428.0Q103 508 115.5 584.0Q128 660 135 725Q151 726 166.0 727.0Q181 728 195 729Q208 730 221.5 731.0Q235 732 248 733L296 736Q303 698 308.5 661.0Q314 624 319 589Q323 565 328.5 533.0Q334 501 339.5 467.5Q345 434 350.5 405.0Q356 376 360 358Q370 411 376.5 445.5Q383 480 389.5 512.5Q396 545 405 589L436 735L558 750Q541 675 526.0 604.0Q511 533 498 466Q473 345 454.0 239.5Q435 134 425 55L262 17L247 171Q245 194 241.0 226.5Q237 259 233.0 293.5Q229 328 225.0 356.5Q221 385 219 399Q209 340 200.0 284.5Q191 229 180 177Q173 142 166.5 104.5Q160 67 152 29Z"/></g>
    <g transform="translate(3155, 0)"><path d="M90 -1Q101 54 112.5 108.5Q124 163 134 216Q172 406 196 580Q185 582 173.0 582.5Q161 583 150 582Q126 580 103 588Q104 596 104.0 605.5Q104 615 104 625Q104 636 104.0 646.5Q104 657 105 667Q106 678 106.0 690.5Q106 703 107 716Q133 714 159.0 713.0Q185 712 211 712Q285 712 352.5 717.0Q420 722 477 729L466 675L457 628Q452 602 448 587Q437 584 426.0 582.0Q415 580 404 579Q393 578 381.5 576.0Q370 574 359 572Q344 498 334.5 444.0Q325 390 317.5 340.5Q310 291 300 232Q283 131 270 27Z"/></g>
  </g>
  
  <!-- Fill layer (white, no stroke) -->
  <g transform="translate(10.0, 45.7) scale(0.042000, -0.042000)" 
     fill="#FFFFFF" stroke="none">
    <g transform="translate(0, 0)"><path d="M90 -1Q101 54 112.5 108.5Q124 163 134 216Q172 406 196 580Q185 582 173.0 582.5Q161 583 150 582Q126 580 103 588Q104 596 104.0 605.5Q104 615 104 625Q104 636 104.0 646.5Q104 657 105 667Q106 678 106.0 690.5Q106 703 107 716Q133 714 159.0 713.0Q185 712 211 712Q285 712 352.5 717.0Q420 722 477 729L466 675L457 628Q452 602 448 587Q437 584 426.0 582.0Q415 580 404 579Q393 578 381.5 576.0Q370 574 359 572Q344 498 334.5 444.0Q325 390 317.5 340.5Q310 291 300 232Q283 131 270 27Z"/></g>
    <g transform="translate(362, 0)"><path d="M9 -2Q22 67 34.5 134.5Q47 202 60 269Q74 352 86.5 425.0Q99 498 111.5 570.0Q124 642 136 721L298 732Q281 662 264.5 586.0Q248 510 234 438L333 449Q340 484 346.5 518.5Q353 553 358 587Q363 620 370.5 654.5Q378 689 387 724Q423 730 460.0 733.5Q497 737 522.0 738.5Q547 740 547 740Q534 700 521.0 646.0Q508 592 496.0 532.0Q484 472 473.0 412.5Q462 353 453 302Q442 238 432.0 173.5Q422 109 412 42L256 24Q263 54 268.5 83.5Q274 113 279 141Q289 189 299.5 241.0Q310 293 316 330L219 321Q215 302 211.5 280.0Q208 258 203 233Q198 208 193.5 184.5Q189 161 185 138Q180 111 174.0 84.0Q168 57 163 30Z"/></g>
    <g transform="translate(804, 0)"><path d="M8 -1 139 710 455 737Q448 715 443 692Q438 673 433.5 652.5Q429 632 426 616Q413 615 389.0 614.5Q365 614 340.0 613.5Q315 613 297.0 613.0Q279 613 278 613L243 434L301 437Q312 438 323.5 438.0Q335 438 346 438Q357 438 366.0 438.0Q375 438 380 439Q378 425 376.5 411.5Q375 398 373 384L364 329Q359 328 351.0 328.0Q343 328 332 328Q321 327 309.0 327.0Q297 327 286 326Q273 325 259.0 325.0Q245 325 229 324L195 140L341 163L331 49Z"/></g>
    <g transform="translate(1445, 0)"><path d="M182 -2Q119 -2 79.0 57.0Q39 116 39 219Q39 313 65.0 404.5Q91 496 138 569Q185 642 249.5 686.5Q314 731 392 731Q441 731 476.0 693.0Q511 655 511 591V579Q511 575 511.0 572.0Q511 569 510 565L379 530Q367 555 351 555Q327 555 300.5 516.0Q274 477 250 423Q234 387 221.5 349.0Q209 311 202.0 278.0Q195 245 195 224Q195 193 204 179Q211 166 226 166Q241 166 259.0 180.5Q277 195 292.5 217.0Q308 239 313 261L427 215Q378 103 310.5 50.5Q243 -2 182 -2Z"/></g>
    <g transform="translate(1859, 0)"><path d="M12 -2Q23 77 35.5 157.0Q48 237 61.5 311.5Q75 386 87 446Q100 511 113.0 578.0Q126 645 140 713L315 736L263 510Q249 451 234.5 383.5Q220 316 208.0 253.0Q196 190 189 141Q214 143 242.5 143.5Q271 144 293 144Q294 121 297.0 95.5Q300 70 303.5 51.5Q307 33 307 31Q303 31 299.5 31.0Q296 31 292 32H276Q237 32 189.5 28.5Q142 25 95.5 17.5Q49 10 12 -2Z"/></g>
    <g transform="translate(2161, 0)"><path d="M-6 1Q11 60 27.5 135.0Q44 210 59.5 288.5Q75 367 89 437Q102 501 114.0 567.0Q126 633 138 700L294 725Q281 658 268.0 592.5Q255 527 242 462Q228 392 213.0 314.0Q198 236 184.0 160.5Q170 85 158 20Q140 20 113.0 17.5Q86 15 59.0 11.5Q32 8 13.5 5.0Q-5 2 -6 1Z"/></g>
    <g transform="translate(2361, 0)"><path d="M8 -1 139 710 455 737Q448 715 443 692Q438 673 433.5 652.5Q429 632 426 616Q413 615 389.0 614.5Q365 614 340.0 613.5Q315 613 297.0 613.0Q279 613 278 613L243 434L301 437Q312 438 323.5 438.0Q335 438 346 438Q357 438 366.0 438.0Q375 438 380 439Q378 425 376.5 411.5Q375 398 373 384L364 329Q359 328 351.0 328.0Q343 328 332 328Q321 327 309.0 327.0Q297 327 286 326Q273 325 259.0 325.0Q245 325 229 324L195 140L341 163L331 49Z"/></g>
    <g transform="translate(2702, 0)"><path d="M6 -5Q20 66 33.5 134.5Q47 203 60 270Q74 348 88.5 428.0Q103 508 115.5 584.0Q128 660 135 725Q151 726 166.0 727.0Q181 728 195 729Q208 730 221.5 731.0Q235 732 248 733L296 736Q303 698 308.5 661.0Q314 624 319 589Q323 565 328.5 533.0Q334 501 339.5 467.5Q345 434 350.5 405.0Q356 376 360 358Q370 411 376.5 445.5Q383 480 389.5 512.5Q396 545 405 589L436 735L558 750Q541 675 526.0 604.0Q511 533 498 466Q473 345 454.0 239.5Q435 134 425 55L262 17L247 171Q245 194 241.0 226.5Q237 259 233.0 293.5Q229 328 225.0 356.5Q221 385 219 399Q209 340 200.0 284.5Q191 229 180 177Q173 142 166.5 104.5Q160 67 152 29Z"/></g>
    <g transform="translate(3155, 0)"><path d="M90 -1Q101 54 112.5 108.5Q124 163 134 216Q172 406 196 580Q185 582 173.0 582.5Q161 583 150 582Q126 580 103 588Q104 596 104.0 605.5Q104 615 104 625Q104 636 104.0 646.5Q104 657 105 667Q106 678 106.0 690.5Q106 703 107 716Q133 714 159.0 713.0Q185 712 211 712Q285 712 352.5 717.0Q420 722 477 729L466 675L457 628Q452 602 448 587Q437 584 426.0 582.0Q415 580 404 579Q393 578 381.5 576.0Q370 574 359 572Q344 498 334.5 444.0Q325 390 317.5 340.5Q310 291 300 232Q283 131 270 27Z"/></g>
  </g>
</svg>