<svg xmlns="http://www.w3.org/2000/svg" fill="none" viewBox="0 0 100 100" height="100" width="100">
  <g id="alert-priority-low--alert-priority-low-exclamation-mark-important-emergent">
    <path id="Union" fill="#000000" fill-rule="evenodd" d="M50.00020833333333 6.9783541666666675c-1.8991666666666667 0 -3.5658333333333334 0.19189583333333335 -4.9975000000000005 0.48106250000000006 -5.085833333333333 1.0271875000000001 -7.114791666666667 5.9651250000000005 -6.915625 10.241687500000001 0.44895833333333335 9.640979166666668 1.4216666666666669 28.6774375 2.4875000000000003 37.61952083333333 0.37583333333333335 3.1533333333333338 2.3977083333333336 6.353125 6.1816666666666675 6.841041666666667 0.9218750000000001 0.11875000000000001 1.997291666666667 0.19312500000000002 3.2452083333333337 0.19312500000000002 1.2479166666666668 0 2.3233333333333333 -0.07437500000000001 3.245416666666667 -0.19312500000000002 3.7837500000000004 -0.48791666666666667 5.805625000000001 -3.6877083333333336 6.1814583333333335 -6.8412500000000005 1.0654166666666667 -8.942083333333334 2.0370833333333334 -27.978958333333335 2.485416666666667 -37.61989583333333 0.19895833333333335 -4.276291666666667 -1.83 -9.213770833333333 -6.915416666666667 -10.241000000000001 -1.4320833333333334 -0.2892291666666667 -3.0987500000000003 -0.4811666666666667 -4.998125 -0.4811666666666667Zm0.0008333333333333334 63.20997916666667c-6.304583333333333 0 -11.415625 5.111041666666667 -11.415625 11.415833333333333 0 6.304583333333333 5.111041666666667 11.415625 11.415625 11.415625 6.3047916666666675 0 11.415833333333333 -5.111041666666667 11.415833333333333 -11.415625 0 -6.3047916666666675 -5.111041666666667 -11.415833333333333 -11.415833333333333 -11.415833333333333Z" clip-rule="evenodd" stroke-width="2.0833"></path>
  </g>
</svg>