<svg xmlns="http://www.w3.org/2000/svg" fill="none" viewBox="0 0 100 100" height="100" width="100">
  <g id="arrow-chevron-last-page--arrow-chevron-last-page-skip-to-back">
    <path id="Union" fill="#000000" fill-rule="evenodd" d="M95.83333333333334 50c0 -22.113958333333333 -0.26833333333333337 -33.552625000000006 -0.5020833333333333 -39.32641666666667 -0.16958333333333334 -4.192479166666667 -2.7368750000000004 -8.245979166666668 -7.607708333333334 -8.527145833333334C87.02750000000002 2.1062499999999997 86.260625 2.0833333333333335 85.41666666666667 2.0833333333333335c-0.8439583333333335 0 -1.6108333333333333 0.02291666666666667 -2.3068750000000002 0.06310416666666667 -4.870833333333334 0.2811666666666667 -7.438125 4.334645833333334 -7.607708333333334 8.527145833333334C75.26833333333333 16.447375 75 27.88604166666667 75 50c0 22.113958333333333 0.26833333333333337 33.552708333333335 0.5020833333333333 39.326458333333335 0.16958333333333334 4.1925 2.7368750000000004 8.245833333333334 7.607708333333334 8.527083333333334 0.6960416666666668 0.04020833333333334 1.4629166666666669 0.063125 2.3068750000000002 0.063125 0.8439583333333335 0 1.6108333333333333 -0.02291666666666667 2.3068750000000002 -0.063125 4.870833333333334 -0.28125000000000006 7.438125 -4.334583333333334 7.607708333333334 -8.527083333333334C95.56500000000001 83.55270833333334 95.83333333333334 72.11395833333334 95.83333333333334 50ZM22.632291666666667 95.31625000000001c-2.305229166666667 1.7043750000000002 -5.6025625 2.906041666666667 -8.840166666666669 1.5295833333333333 -1.5090625000000002 -0.6414583333333334 -3.243020833333334 -1.6633333333333336 -4.958833333333334 -3.2833333333333337 -1.2466875000000002 -1.176875 -2.1663125 -2.3702083333333333 -2.8421250000000002 -3.4937500000000004 -2.323916666666667 -3.8639583333333336 -0.3407916666666667 -8.036875 1.9529583333333336 -10.568541666666667L34.68812500000001 49.982083333333335 7.950479166666668 20.5075625c-2.2983750000000005 -2.5336666666666665 -4.284750000000001 -6.712270833333334 -1.955125 -10.579416666666669 0.6755833333333334 -1.1214583333333334 1.5940416666666668 -2.3119583333333336 2.8381041666666667 -3.4864583333333337 1.7212916666666667 -1.625041666666667 3.460916666666667 -2.648270833333333 4.9734375 -3.2894375 3.2289375000000002 -1.368766666666667 6.516229166666667 -0.17472916666666669 8.817687500000002 1.5213125000000003C35.931666666666665 14.479708333333335 49.022083333333335 29.517500000000002 56.813125 39.18770833333333c5.107916666666667 6.340000000000001 5.106666666666667 15.246875000000001 -0.00125 21.586458333333333 -7.790208333333334 9.668541666666668 -20.876875 24.706666666666667 -34.17958333333333 34.54208333333334Z" clip-rule="evenodd" stroke-width="2.0833"></path>
  </g>
</svg>