<svg xmlns="http://www.w3.org/2000/svg" fill="none" viewBox="0 0 100 100" id="Bell-Set-Timer--Streamline-Plump" height="100" width="100">
  <desc>
    Bell Set Timer Streamline Icon: https://streamlinehq.com
  </desc>
  <g id="Solid/Interface Essential/Alerts/bell-set-timer--notification-alarm-alert-bell-set-time">
    <path id="Union" fill="#000000" fill-rule="evenodd" d="M43.24583333333334 24.91625c0 -9.446875000000002 4.344166666666667 -17.87916666666667 11.143333333333334 -23.408125000000002C52.45541666666667 1.1739583333333334 50.46916666666667 1 48.44479166666667 1 30.36916666666667 1 15.31625 14.866458333333336 13.835625 32.881458333333335l-1.1204166666666666 13.631666666666668c-0.38958333333333334 4.739583333333334 -1.8945833333333335 9.319791666666667 -4.392083333333334 13.366875000000002l-3.903541666666667 6.325c-1.6425 2.6614583333333335 -2.265416666666667 5.789791666666668 -1.2316666666666667 8.610416666666667 1.0783333333333334 2.9425000000000003 3.699166666666667 4.84 7.036875 5.347708333333333 6.605416666666667 1.0052083333333335 18.127291666666668 1.9439583333333335 38.220000000000006 1.9439583333333335 20.092916666666667 0 31.615000000000002 -0.9387500000000001 38.22020833333334 -1.9439583333333335 3.337916666666667 -0.5077083333333333 5.958541666666667 -2.405208333333334 7.036875 -5.347708333333333 1.0339583333333335 -2.8206250000000006 0.4110416666666667 -5.9489583333333345 -1.2314583333333333 -8.610416666666667l-3.903541666666667 -6.325208333333333c-1.4025 -2.2725 -2.491875 -4.712916666666667 -3.246875 -7.255625 -3.6558333333333333 1.5747916666666668 -7.685416666666668 2.447291666666667 -11.918958333333334 2.447291666666667 -16.65416666666667 0 -30.155208333333338 -13.501041666666667 -30.155208333333338 -30.155208333333338Zm5.199791666666666 63.42937500000001c-6.793958333333333 0 -12.645208333333334 -0.10625 -17.68729166666667 -0.288125 3.2391666666666667 6.487291666666668 9.9425 10.9425 17.68625 10.9425 7.7439583333333335 0 14.447083333333333 -4.455208333333334 17.686458333333334 -10.942291666666668 -5.041666666666667 0.18166666666666667 -10.892083333333334 0.28791666666666665 -17.68541666666667 0.28791666666666665ZM73.40104166666667 1c-13.208333333333334 0 -23.91625 10.707708333333334 -23.91625 23.91625 0 13.208541666666667 10.707916666666668 23.91604166666667 23.91625 23.91604166666667 13.208541666666667 0 23.91625 -10.7075 23.91625 -23.91604166666667S86.60958333333335 1 73.40104166666667 1Zm0 6.238958333333334c2.2972916666666667 0 4.159375 1.862291666666667 4.159375 4.159375v11.795l7.100416666666667 7.100416666666667c1.624375 1.6241666666666668 1.624375 4.2579166666666675 0 5.882083333333334 -1.6241666666666668 1.6245833333333335 -4.257708333333333 1.6245833333333335 -5.882083333333334 0l-8.31875 -8.318541666666668c-0.78 -0.7802083333333334 -1.2183333333333335 -1.838125 -1.2183333333333335 -2.941041666666667V11.398333333333333c0 -2.2970833333333336 1.8625000000000003 -4.159375 4.159375 -4.159375Z" clip-rule="evenodd" stroke-width="2.0833"></path>
  </g>
</svg>