<svg xmlns="http://www.w3.org/2000/svg" fill="none" viewBox="0 0 100 100" id="Blank-Calendar--Streamline-Plump" height="100" width="100">
  <desc>
    Blank Calendar Streamline Icon: https://streamlinehq.com
  </desc>
  <g id="Solid/Interface Essential/Calendar/blank-calendar--blank-calendar-date-day-month-empty">
    <path id="Union" fill="#000000" fill-rule="evenodd" d="M78.75979166666667 12.374791666666667c-0.0041666666666666675 -1.9129166666666668 -0.04416666666666667 -3.599375 -0.09604166666666668 -5.0024999999999995 -0.11979166666666669 -3.2458333333333336 -2.2077083333333336 -6.0929166666666665 -5.702916666666667 -6.298333333333334C72.17604166666668 1.0279166666666668 71.27395833333334 1 70.23854166666668 1c-1.0352083333333335 0 -1.9377083333333336 0.02791666666666667 -2.722291666666667 0.07395833333333333 -3.4952083333333337 0.20541666666666666 -5.583333333333334 3.0525 -5.702916666666667 6.298333333333334 -0.046250000000000006 1.2502083333333334 -0.08291666666666668 2.7256250000000004 -0.09354166666666668 4.385416666666667 -3.5733333333333337 -0.06666666666666668 -7.47625 -0.10562500000000001 -11.720416666666667 -0.10562500000000001s-8.147083333333335 0.03895833333333334 -11.720416666666667 0.10562500000000001c-0.010416666666666668 -1.6597916666666668 -0.047291666666666676 -3.1352083333333334 -0.09354166666666668 -4.385416666666667 -0.11958333333333335 -3.2458333333333336 -2.2077083333333336 -6.0929166666666665 -5.702916666666667 -6.298333333333334C31.697916666666668 1.0279166666666668 30.795625 1 29.760208333333335 1c-1.0352083333333335 0 -1.9375000000000002 0.02791666666666667 -2.722291666666667 0.07395833333333333 -3.4952083333333337 0.20541666666666666 -5.583125 3.0525 -5.702916666666667 6.298333333333334 -0.051666666666666666 1.4031250000000002 -0.09187500000000001 3.0895833333333336 -0.09604166666666668 5.0024999999999995 -1.8627083333333334 0.10583333333333333 -3.5333333333333337 0.2160416666666667 -5.017708333333334 0.3252083333333333 -6.980416666666668 0.5133333333333334 -12.469791666666667 5.827500000000001 -13.070625000000001 12.851458333333335 -0.17916666666666667 2.09375 -0.358125 4.55625 -0.5175000000000001 7.405h94.73250000000002c-0.15937500000000002 -2.84875 -0.3383333333333333 -5.31125 -0.5172916666666667 -7.405 -0.6010416666666667 -7.023958333333334 -6.090625000000001 -12.338125 -13.070625000000001 -12.851458333333335 -1.4845833333333334 -0.10916666666666668 -3.1552083333333334 -0.21937500000000001 -5.017916666666666 -0.3252083333333333ZM2.0652083333333335 55.32604166666667c0 -6.0843750000000005 0.10770833333333335 -11.396250000000002 0.27520833333333333 -15.978125000000002h95.31937500000001c0.1675 4.581875 0.275 9.893541666666668 0.275 15.978125000000002 0 13.654375000000002 -0.541875 23.416041666666665 -1.0858333333333334 29.774583333333336 -0.6010416666666667 7.023958333333334 -6.090416666666667 12.338125 -13.070625000000001 12.851666666666668 -6.9610416666666675 0.5116666666666667 -18.01395833333333 1.0477083333333335 -33.778333333333336 1.0477083333333335s-26.817291666666666 -0.5360416666666666 -33.778125 -1.0477083333333335c-6.980416666666668 -0.5135416666666667 -12.469791666666667 -5.827708333333334 -13.070625000000001 -12.851666666666668 -0.5439583333333333 -6.3585416666666665 -1.0860416666666668 -16.120416666666667 -1.0860416666666668 -29.774583333333336Z" clip-rule="evenodd" stroke-width="2.0833"></path>
  </g>
</svg>