<svg xmlns="http://www.w3.org/2000/svg" fill="none" viewBox="0 0 100 100" id="Book-1--Streamline-Plump" height="100" width="100">
  <desc>
    Book 1 Streamline Icon: https://streamlinehq.com
  </desc>
  <g id="Solid/Interface Essential/Content/book-1--content-books-book-close">
    <path id="Subtract" fill="#000000" fill-rule="evenodd" d="M49.95 1c-13.602500000000001 0 -23.339583333333334 0.45 -29.695000000000004 0.9029166666666667 -7.007708333333334 0.499375 -12.441041666666669 5.9158333333333335 -12.985625000000002 12.911666666666669 -0.49875 6.408333333333334 -1.0052083333333335 16.077916666666667 -1.0052083333333335 28.930000000000003v43.78729166666667c0 0.0275 0.0004166666666666667 0.05479166666666667 0.00125 0.08208333333333333 0.002916666666666667 0.9991666666666668 0.060000000000000005 1.9185416666666668 0.15625 2.7616666666666667 0.6752083333333334 5.910000000000001 6.1775 8.282291666666667 10.575416666666667 8.368541666666667 5.8379166666666675 0.114375 16.242291666666667 0.25583333333333336 32.01291666666667 0.25583333333333336 13.22125 0 23.140833333333333 -0.099375 29.75916666666667 -0.19895833333333335 3.3168750000000005 -0.04979166666666667 6.634166666666667 -0.10395833333333335 9.949791666666668 -0.19958333333333333 1.7266666666666668 -0.051875 3.0852083333333336 -1.4937500000000001 3.033125 -3.220416666666667 -0.051875 -1.7264583333333334 -1.4937500000000001 -3.0839583333333334 -3.220208333333334 -3.0320833333333335l-0.9485416666666667 0.025625000000000002v-11.206041666666668c3.682291666666667 -1.9741666666666668 6.190416666666668 -5.873125000000001 6.152083333333334 -10.348749999999999 -0.05041666666666667 -5.827916666666668 -0.1 -14.717083333333333 -0.1 -27.075000000000003 0 -12.852291666666668 -0.50625 -22.521875 -1.0050000000000001 -28.930208333333336 -0.5445833333333334 -6.995625 -5.977916666666667 -12.412291666666668 -12.985625000000002 -12.911666666666669C73.289375 1.45 63.552083333333336 1 49.95 1ZM17.077083333333334 82.57812500000001c5.8875 -0.11416666666666668 16.56125 -0.25895833333333335 32.87291666666667 -0.25895833333333335 14.11625 0 24.595000000000002 0.10833333333333334 31.378125000000004 0.211875v9.972708333333335c-0.8150000000000001 0.014166666666666668 -1.699375 0.02854166666666667 -2.652916666666667 0.04270833333333334 -6.587083333333334 0.09895833333333334 -16.475208333333335 0.19833333333333336 -29.665208333333336 0.19833333333333336 -15.73354166666667 0 -26.096875000000004 -0.14125000000000001 -31.890208333333334 -0.2547916666666667 -1.7825000000000002 -0.035 -4.2439583333333335 -0.7306250000000001 -4.483333333333334 -2.8245833333333334 -0.07145833333333333 -0.62625 -0.11604166666666667 -1.3358333333333334 -0.11604166666666667 -2.133541666666667 0 -0.8283333333333334 0.04854166666666667 -1.5620833333333335 0.12687500000000002 -2.204791666666667 0.24791666666666667 -2.0300000000000002 2.7083333333333335 -2.7154166666666666 4.4297916666666675 -2.7489583333333334Zm8.995625 -59.684583333333336c0 -2.303125 1.8670833333333334 -4.170208333333334 4.170208333333334 -4.170208333333334h37.531875c2.3033333333333332 0 4.170208333333334 1.8670833333333334 4.170208333333334 4.170208333333334 0 2.3033333333333332 -1.866875 4.170208333333334 -4.170208333333334 4.170208333333334H30.24291666666667c-2.303125 0 -4.170208333333334 -1.866875 -4.170208333333334 -4.170208333333334Zm4.170208333333334 16.680833333333336c-2.303125 0 -4.170208333333334 1.8670833333333334 -4.170208333333334 4.170208333333334s1.8670833333333334 4.170208333333334 4.170208333333334 4.170208333333334h18.766041666666666c2.303125 0 4.170208333333334 -1.866875 4.170208333333334 -4.170208333333334s-1.8670833333333334 -4.170208333333334 -4.170208333333334 -4.170208333333334h-18.766041666666666Z" clip-rule="evenodd" stroke-width="2.0833"></path>
  </g>
</svg>