<svg xmlns="http://www.w3.org/2000/svg" fill="none" viewBox="0 0 100 100" id="Bookmark-2--Streamline-Plump" height="100" width="100">
  <desc>
    Bookmark 2 Streamline Icon: https://streamlinehq.com
  </desc>
  <g id="Solid/Interface Essential/Bookmark Favorite/bookmark-2">
    <path id="Union" fill="#000000" fill-rule="evenodd" d="M50 1.0416666666666667c-11.328750000000001 0 -20.816458333333333 0.6418166666666667 -27.134583333333335 1.2302083333333336 -5.5564375 0.5174583333333334 -9.875854166666667 4.657604166666667 -10.3339375 10.269395833333334C11.998562500000002 19.0699375 11.458333333333334 30.065625 11.458333333333334 47.821875000000006v16.9675c2.9588125000000005 -2.7733333333333334 7.0220625000000005 -6.360625000000001 12.596666666666668 -10.951458333333335 7.826250000000001 -6.445 13.927916666666667 -10.204375 18.184375000000003 -12.376458333333334 4.925625 -2.51375 10.595625 -2.51375 15.52125 0 4.256458333333334 2.1720833333333336 10.358125 5.931458333333334 18.184375000000003 12.376458333333334 5.470000000000001 4.504791666666668 9.568541666666668 8.1775 12.596666666666668 11.064375000000002v-17.080416666666668c0 -17.75625 -0.5402083333333333 -28.7519375 -1.073125 -35.28060416666667 -0.45812500000000006 -5.611791666666667 -4.777500000000001 -9.7519375 -10.333958333333335 -10.269395833333334C70.81645833333334 1.6834833333333334 61.32875 1.0416666666666667 50 1.0416666666666667ZM11.458333333333334 90.29229166666667V73.57500000000002c0.09875 -0.10500000000000001 0.20118750000000002 -0.213125 0.307375 -0.324375 2.6195000000000004 -2.7443750000000002 7.466083333333334 -7.345208333333334 16.262625000000003 -14.589166666666667 7.516875000000001 -6.190416666666668 13.242708333333333 -9.690000000000001 17.051875000000003 -11.633958333333334 3.1412500000000003 -1.6031250000000001 6.698333333333333 -1.6031250000000001 9.839583333333334 0 3.809166666666667 1.9439583333333335 9.535000000000002 5.4435416666666665 17.051875000000003 11.633958333333334 7.7389583333333345 6.373125 12.599791666666668 10.983125 15.501666666666669 13.966875000000002 0.39104166666666673 0.40208333333333335 0.7464583333333334 0.774375 1.0683333333333336 1.1175000000000002v16.546458333333334c0 4.7908333333333335 -3.8839583333333336 8.665000000000001 -8.672291666666668 8.665000000000001 -2.0450000000000004 0 -4.023958333333334 -0.7225 -5.587708333333334 -2.04l-19.58354166666667 -16.498958333333334c-2.7145833333333336 -2.2868749999999998 -6.681666666666667 -2.2868749999999998 -9.396250000000002 0l-19.58354166666667 16.498958333333334c-1.5637500000000002 1.3175000000000001 -3.5427083333333336 2.04 -5.587604166666667 2.04 -4.788333333333334 0 -8.672395833333335 -3.874166666666667 -8.672395833333335 -8.665000000000001Z" clip-rule="evenodd" stroke-width="2.0833"></path>
  </g>
</svg>