<svg xmlns="http://www.w3.org/2000/svg" fill="none" viewBox="0 0 100 100" id="Book-Flip-Next-Page--Streamline-Plump" height="100" width="100">
  <desc>
    Book Flip Next Page Streamline Icon: https://streamlinehq.com
  </desc>
  <g id="book-flip-next-page--book-flip-next-page-e-book-electronic-pdf-turn-left">
    <path id="Subtract" fill="#000000" fill-rule="evenodd" d="m74.35541666666668 8.020625 0 0.00014583333333333332c0.013958333333333335 0.25012500000000004 0.02791666666666667 0.5074583333333333 0.041875 0.7720833333333333 0.29520833333333335 5.573791666666667 0.6029166666666667 14.374020833333335 0.6029166666666667 26.841104166666668 0 13.059166666666668 -0.3375 24.178125 -0.6447916666666667 29.69666666666667 -0.22 3.9518750000000002 -1.6275000000000002 6.0131250000000005 -4.2175 6.9210416666666665 -3.88625 1.3625 -7.618125 3.7904166666666668 -10.8575 6.546041666666667 -2.355416666666667 2.003541666666667 -4.450625 4.180416666666667 -6.155416666666667 6.246875L53.12500000000001 14.583333333333334c0 -0.11789583333333334 -0.006458333333333333 -0.23427083333333334 -0.01916666666666667 -0.34877083333333336 4.048958333333333 -4.91425 10.309583333333334 -10.4594375 17.032083333333333 -12.816175000000001 1.5308333333333335 -0.5365145833333334 2.7095833333333337 0.6329125000000001 3.432291666666667 2.550216666666667 0.4335416666666667 1.1504166666666669 0.7027083333333334 2.5700833333333337 0.7852083333333334 4.052020833333334Zm-27.575000000000003 7.706333333333334c-10.018541666666668 -4.7687083333333335 -19.640208333333337 -7.589375 -33.54633333333333 -8.2715625 -5.601083333333333 -0.27475 -10.419458333333333 3.7750000000000004 -10.994145833333334 9.406375C1.66529375 22.492916666666666 1.0416666666666667 31.63479166666667 1.0416666666666667 44.79229166666667c0 13.157708333333334 0.6236270833333334 22.299583333333334 1.1982708333333334 27.930625000000003 0.5823333333333334 5.70625 5.406645833333334 9.466041666666667 10.687895833333334 9.725000000000001 14.164250000000001 0.6950000000000001 23.376958333333338 3.7025 33.723416666666665 8.927708333333335 0.07416666666666667 0.0375 0.14875000000000002 0.07354166666666667 0.22375 0.10833333333333334v-5.239166666666668c-0.06229166666666667 -0.35416666666666674 -0.09458333333333335 -0.716875 -0.09458333333333335 -1.0852083333333336V15.726958333333334ZM53.12500000000001 91.48395833333335c0.05562500000000001 -0.025833333333333333 0.11125000000000002 -0.052291666666666674 0.16645833333333335 -0.07958333333333334 -0.05541666666666667 0.002291666666666667 -0.11083333333333334 0.003958333333333334 -0.16645833333333335 0.004791666666666667v0.07479166666666667Zm4.615 -2.2154166666666666c0.041875 -0.04833333333333333 0.08333333333333334 -0.09729166666666667 0.12416666666666668 -0.14708333333333334 3.673125 -4.48125 9.086458333333335 -9.129375000000001 14.341458333333334 -10.971666666666668 2.4562500000000003 -0.8610416666666667 4.677291666666667 -2.4258333333333337 6.226875000000001 -4.9 1.4587500000000002 -2.329166666666667 2.0191666666666666 -4.983958333333334 2.1633333333333336 -7.571875 0.3152083333333333 -5.663125000000001 0.654375 -16.902291666666667 0.654375 -30.043958333333332 0 -12.973125000000001 -0.3304166666666667 -22.048687500000003 -0.640625 -27.709895833333338 1.9614583333333335 -0.20679166666666668 4.007708333333333 -0.36325 6.156250000000001 -0.4686666666666667 5.60125 -0.27475 10.419583333333335 3.7750000000000004 10.994166666666667 9.406375 0.5747916666666667 5.631145833333334 1.1983333333333335 14.773020833333334 1.1983333333333335 27.930520833333336 0 13.157708333333334 -0.6235416666666668 22.299583333333334 -1.1983333333333335 27.930625000000003 -0.5822916666666668 5.70625 -5.406666666666667 9.466041666666667 -10.687916666666668 9.725000000000001 -12.136666666666667 0.5954166666666667 -20.63791666666667 2.8887500000000004 -29.332083333333333 6.820625Z" clip-rule="evenodd" stroke-width="2.0833"></path>
  </g>
</svg>