<svg xmlns="http://www.w3.org/2000/svg" fill="none" viewBox="0 0 100 100" id="Brain--Streamline-Plump" height="100" width="100">
  <desc>
    Brain Streamline Icon: https://streamlinehq.com
  </desc>
  <g id="Solid/Health/Medical/brain--medical-health-brain">
    <path id="Union" fill="#000000" fill-rule="evenodd" d="M35.912708333333335 7.291666666666667c-8.4375 0 -16.650854166666665 6.011333333333334 -22.694125 15.145 -1.2564375 1.8987500000000002 -2.4252708333333337 3.9408333333333334 -3.488916666666667 6.105 4.939 0.4608333333333334 9.780125000000002 2.2931250000000003 13.477833333333335 5.19125 1.3583333333333334 1.0647916666666668 1.5962500000000002 3.0289583333333336 0.5316666666666666 4.3875 -1.0647916666666668 1.3583333333333334 -3.0290000000000004 1.5962500000000002 -4.387354166666666 0.5316666666666666 -3.0835416666666666 -2.416875 -7.481958333333334 -3.9343750000000006 -11.8928125 -3.9745833333333334 -0.112625 -0.0010416666666666669 -0.2250416666666667 -0.0010416666666666669 -0.33725 -0.00020833333333333335C4.6044375 41.60729166666667 3.125 49.41791666666667 3.125 57.575833333333335c0 7.631041666666667 0.9927916666666667 16.372083333333336 4.845583333333334 23.237083333333334 1.9359583333333334 3.4493750000000003 4.600770833333334 6.437083333333334 8.226062500000001 8.556875000000002 0.9724583333333333 0.5687500000000001 2.009875 1.0725000000000002 3.1157291666666667 1.5054166666666668 -2.041229166666667 -6.130208333333334 -1.7314583333333333 -12.740416666666668 1.6036666666666668 -18.22625 0.8966666666666667 -1.4747916666666667 2.8189583333333337 -1.9433333333333334 4.293541666666667 -1.046875 1.4747916666666667 0.8966666666666667 1.9435416666666667 2.8189583333333337 1.046875 4.29375 -2.81 4.622083333333333 -2.5722916666666666 11.048541666666667 0.6020833333333333 16.68104166666667 0.9952083333333335 0.08687500000000001 2.02875 0.13145833333333334 3.101875 0.13145833333333334 10.449583333333333 0 16.914583333333333 -7.997083333333334 16.914583333333333 -14.299166666666668v-3.686666666666667c-2.4520833333333334 -3.024375 -5.8672916666666675 -4.929375 -9.376041666666667 -4.929375 -1.7258333333333336 0 -3.125 -1.3989583333333333 -3.125 -3.125 0 -1.7258333333333336 1.3991666666666667 -3.125 3.125 -3.125 3.4525 0 6.643541666666667 1.0935416666666669 9.376041666666667 2.861666666666667V28.509375000000002c-3.1508333333333334 -0.145 -6.375416666666667 0.5414583333333334 -9.22 2.2052083333333337 -1.4897916666666666 0.8712500000000001 -3.403958333333333 0.37000000000000005 -4.2752083333333335 -1.1197916666666667 -0.8714583333333334 -1.4897916666666666 -0.37000000000000005 -3.403958333333333 1.1197916666666667 -4.2752083333333335 3.8833333333333337 -2.271458333333334 8.196666666666667 -3.207916666666667 12.375416666666668 -3.064166666666667V19.696979166666665c0 -2.0345833333333334 -0.5254166666666666 -5.081708333333334 -2.1439583333333334 -7.656625000000001C43.0775 9.409479166666667 40.283750000000005 7.291666666666667 35.912708333333335 7.291666666666667Zm-3.8208333333333337 42.09875c1.7256250000000002 -0.027708333333333335 3.1020833333333337 -1.4491666666666667 3.0741666666666667 -3.174791666666667 -0.027708333333333335 -1.7256250000000002 -1.4491666666666667 -3.1020833333333337 -3.174791666666667 -3.0743750000000003 -6.061250000000001 0.0975 -10.56375 2.240625 -13.465854166666668 5.642916666666667 -2.8428125 3.332708333333333 -3.870416666666667 7.545416666666667 -3.6867083333333337 11.343958333333335 0.083375 1.7237500000000001 1.5484583333333335 3.0537500000000004 3.2723333333333335 2.970416666666667 1.723875 -0.08354166666666667 3.0537708333333335 -1.5485416666666667 2.9704375 -3.2725 -0.12250000000000001 -2.5304166666666665 0.5797916666666667 -5.0877083333333335 2.1989583333333336 -6.985833333333334 1.559791666666667 -1.8283333333333336 4.2510416666666675 -3.376458333333334 8.811458333333334 -3.4497916666666666ZM64.08729166666667 7.291666666666667c8.4375 0 16.650833333333335 6.011333333333334 22.694166666666668 15.145 1.2564583333333335 1.8987500000000002 2.4252083333333334 3.9408333333333334 3.4889583333333336 6.105 -4.939166666666667 0.4608333333333334 -9.780208333333333 2.2931250000000003 -13.477916666666669 5.19125 -1.3583333333333334 1.0647916666666668 -1.5962500000000002 3.0289583333333336 -0.5316666666666666 4.3875 1.0647916666666668 1.3583333333333334 3.0289583333333336 1.5962500000000002 4.387291666666667 0.5316666666666666 3.0835416666666666 -2.416875 7.4820833333333345 -3.9343750000000006 11.892916666666666 -3.9745833333333334 0.1125 -0.0010416666666666669 0.225 -0.0010416666666666669 0.33729166666666666 -0.00020833333333333335C95.39562500000001 41.60729166666667 96.875 49.41791666666667 96.875 57.575833333333335c0 7.631041666666667 -0.9927083333333334 16.372083333333336 -4.845625 23.237083333333334 -1.9358333333333335 3.4493750000000003 -4.600625 6.437083333333334 -8.226041666666667 8.556875000000002 -0.9725 0.5687500000000001 -2.0097916666666666 1.0725000000000002 -3.1156250000000005 1.5054166666666668 2.0412500000000002 -6.130208333333334 1.7314583333333333 -12.740416666666668 -1.6037500000000002 -18.22625 -0.8966666666666667 -1.4747916666666667 -2.8189583333333337 -1.9433333333333334 -4.293541666666667 -1.046875 -1.4747916666666667 0.8966666666666667 -1.9435416666666667 2.8189583333333337 -1.046875 4.29375 2.81 4.622083333333333 2.5722916666666666 11.048541666666667 -0.6020833333333333 16.68104166666667 -0.9952083333333335 0.08687500000000001 -2.02875 0.13145833333333334 -3.101875 0.13145833333333334 -10.449583333333333 0 -16.914583333333333 -7.997083333333334 -16.914583333333333 -14.299166666666668v-3.686666666666667c2.4520833333333334 -3.024375 5.8672916666666675 -4.929375 9.376041666666667 -4.929375 1.7258333333333336 0 3.125 -1.3989583333333333 3.125 -3.125 0 -1.7258333333333336 -1.3991666666666667 -3.125 -3.125 -3.125 -3.4525 0 -6.643541666666667 1.0935416666666669 -9.376041666666667 2.861666666666667V28.509375000000002c3.1508333333333334 -0.145 6.375416666666667 0.5414583333333334 9.22 2.2052083333333337 1.4897916666666666 0.8712500000000001 3.403958333333333 0.37000000000000005 4.2752083333333335 -1.1197916666666667 0.8714583333333334 -1.4897916666666666 0.37000000000000005 -3.403958333333333 -1.1197916666666667 -4.2752083333333335 -3.8833333333333337 -2.271458333333334 -8.196666666666667 -3.207916666666667 -12.375416666666668 -3.064166666666667V19.696979166666665c0 -2.0345833333333334 0.5254166666666666 -5.081708333333334 2.1439583333333334 -7.656625000000001C56.92250000000001 9.409479166666667 59.71625 7.291666666666667 64.08729166666667 7.291666666666667Zm3.8208333333333337 42.09875c-1.7256250000000002 -0.027708333333333335 -3.1020833333333337 -1.4491666666666667 -3.0741666666666667 -3.174791666666667 0.027708333333333335 -1.7256250000000002 1.4491666666666667 -3.1020833333333337 3.174791666666667 -3.0743750000000003 6.061250000000001 0.0975 10.56375 2.240625 13.465833333333334 5.642916666666667 2.842916666666667 3.332708333333333 3.870416666666667 7.545416666666667 3.686666666666667 11.343958333333335 -0.08333333333333334 1.7237500000000001 -1.5483333333333333 3.0537500000000004 -3.272291666666667 2.970416666666667 -1.7237500000000001 -0.08354166666666667 -3.0537500000000004 -1.5485416666666667 -2.970416666666667 -3.2725 0.12250000000000001 -2.5304166666666665 -0.5797916666666667 -5.0877083333333335 -2.1989583333333336 -6.985833333333334 -1.5595833333333335 -1.8283333333333336 -4.2510416666666675 -3.376458333333334 -8.811458333333334 -3.4497916666666666Z" clip-rule="evenodd" stroke-width="2.0833"></path>
  </g>
</svg>