<svg xmlns="http://www.w3.org/2000/svg" fill="none" viewBox="0 0 100 100" id="Brain-Cognitive--Streamline-Plump" height="100" width="100">
  <desc>
    Brain Cognitive Streamline Icon: https://streamlinehq.com
  </desc>
  <g id="Solid/Health/Medical/brain-cognitive--health-medical-brain-cognitive-specialities">
    <path id="Subtract" fill="#000000" fill-rule="evenodd" d="M5.208333333333334 42.28229166666667C5.208333333333334 20.652020833333335 22.818125000000002 3.125 44.53125 3.125c20.83104166666667 0 39.049375000000005 16.53825 39.26583333333333 36.73125l9.429791666666667 11.963750000000001c1.0135416666666668 1.2860416666666667 1.5647916666666668 2.876041666666667 1.5647916666666668 4.513541666666667 0 2.8885416666666672 -1.7083333333333333 5.537083333333333 -4.436458333333334 6.605625000000001 -2.075625 0.813125 -4.725208333333334 1.7854166666666667 -7.133958333333334 2.4689583333333336l-2.2572916666666667 15.048333333333336c-0.509375 3.396666666666667 -3.664375 5.745625 -7.064583333333334 5.260000000000001L65.625 84.53437500000001v6.212500000000001c0 2.23375 -1.4506250000000003 4.275416666666667 -3.750416666666667 4.733541666666667 -3.0995833333333334 0.6172916666666667 -8.595 1.3945833333333335 -16.61416666666667 1.3945833333333335 -8.019166666666667 0 -13.514583333333334 -0.7772916666666667 -16.61416666666667 -1.3945833333333335 -2.299791666666667 -0.45812500000000006 -3.750416666666667 -2.499791666666667 -3.750416666666667 -4.733541666666667v-13.442916666666669C13.104104166666668 70.4925 5.208333333333334 56.757916666666674 5.208333333333334 42.28229166666667Zm15.668958333333334 7.728125c-3.335083333333334 -10.885833333333334 1.1302083333333335 -23.019375000000004 11.413541666666669 -28.956458333333337 10.385 -5.9958125 23.27625 -3.6934375000000004 31.01291666666667 4.842916666666667 3.231875 3.5658333333333334 2.2545833333333336 8.660833333333333 -0.984375 11.41 -3.1325000000000003 2.6587500000000004 -8.217291666666668 6.531666666666667 -14.989375 10.225416666666668 -6.437708333333334 3.5114583333333336 -11.976666666666668 5.899791666666667 -15.675 7.343958333333334 -4.053958333333333 1.5827083333333336 -9.289166666666668 -0.006458333333333333 -10.777708333333335 -4.865833333333334Z" clip-rule="evenodd" stroke-width="2.0833"></path>
  </g>
</svg>