<svg xmlns="http://www.w3.org/2000/svg" fill="none" viewBox="0 0 100 100" id="Browser-Code-1--Streamline-Plump" height="100" width="100">
  <desc>
    Browser Code 1 Streamline Icon: https://streamlinehq.com
  </desc>
  <g id="browser-code-1--code-browser-line-shell-command-terminal">
    <path id="Union" fill="#000000" fill-rule="evenodd" d="M49.999791666666674 3.125H50c15.419583333333334 0 26.23479166666667 0.5793333333333334 33.050625000000004 1.1331041666666668 6.849583333333333 0.5565208333333334 12.134791666666667 5.841583333333333 12.691250000000002 12.691270833333334 0.55375 6.815833333333334 1.1331250000000002 17.63104166666667 1.1331250000000002 33.050625000000004 0 15.419583333333334 -0.5793750000000001 26.23479166666667 -1.1331250000000002 33.050625000000004 -0.5564583333333334 6.849791666666667 -5.841666666666667 12.134791666666667 -12.691250000000002 12.691250000000002 -6.815833333333334 0.55375 -17.63104166666667 1.1331250000000002 -33.050625000000004 1.1331250000000002 -15.419583333333334 0 -26.23479166666667 -0.5793750000000001 -33.050625000000004 -1.1331250000000002 -6.849687500000001 -0.5564583333333334 -12.13475 -5.841458333333334 -12.691270833333334 -12.691250000000002C3.704333333333334 76.23479166666668 3.125 65.41958333333334 3.125 50c0 -9.309375 0.2111666666666667 -16.940625000000004 0.5003958333333334 -23.026458333333334l0.0016041666666666667 -0.03895833333333334c0.18941666666666668 -3.9770833333333337 0.412125 -7.293041666666667 0.630875 -9.985208333333334 0.5565208333333334 -6.849687500000001 5.841583333333333 -12.13475 12.691270833333334 -12.691270833333334 1.704041666666667 -0.1384375 3.658041666666667 -0.2784791666666667 5.871479166666667 -0.4106666666666667 2.9320833333333334 -0.175125 6.319375000000001 -0.3364375 10.183750000000002 -0.4620208333333334 4.887083333333334 -0.15879166666666666 10.5375 -0.2604166666666667 16.995416666666667 -0.2604166666666667Zm38.155208333333334 27.083333333333336H11.845041666666667C11.617645833333333 35.58291666666667 11.458333333333334 42.149791666666665 11.458333333333334 50c0 16.636666666666667 0.7155625 27.509583333333335 1.2780625 33.48625 0.1929791666666667 2.050625 1.7266666666666668 3.584375 3.7772500000000004 3.7772916666666667C22.49041666666667 87.82604166666667 33.36333333333333 88.54166666666667 50 88.54166666666667c16.636666666666667 0 27.509583333333335 -0.7156250000000001 33.48625 -1.2781250000000002 2.050625 -0.19291666666666668 3.584375 -1.7266666666666668 3.7772916666666667 -3.7770833333333336 0.5625000000000001 -5.976875000000001 1.2781250000000002 -16.84979166666667 1.2781250000000002 -33.48645833333333 0 -7.850208333333334 -0.15937500000000002 -14.417083333333336 -0.38666666666666666 -19.791666666666668ZM17.1875 17.708333333333336c0 -2.013541666666667 1.6322916666666667 -3.6458333333333335 3.6458333333333335 -3.6458333333333335h4.166666666666667c2.013541666666667 0 3.6458333333333335 1.6322916666666667 3.6458333333333335 3.6458333333333335s-1.6322916666666667 3.6458333333333335 -3.6458333333333335 3.6458333333333335h-4.166666666666667c-2.013541666666667 0 -3.6458333333333335 -1.6322916666666667 -3.6458333333333335 -3.6458333333333335Zm16.666666666666668 0c0 -2.013541666666667 1.6322916666666667 -3.6458333333333335 3.6458333333333335 -3.6458333333333335h4.166666666666667c2.013541666666667 0 3.6458333333333335 1.6322916666666667 3.6458333333333335 3.6458333333333335s-1.6322916666666667 3.6458333333333335 -3.6458333333333335 3.6458333333333335h-4.166666666666667c-2.013541666666667 0 -3.6458333333333335 -1.6322916666666667 -3.6458333333333335 -3.6458333333333335Zm-10.587083333333334 27.497708333333335c-0.9222916666666667 2.107916666666667 0.03875 4.564375 2.14625 5.486875l0.00020833333333333335 0.00020833333333333335 0.0008333333333333334 0.00020833333333333335 0.0041666666666666675 0.0018750000000000001 0.0275 0.012083333333333333 0.12229166666666667 0.05458333333333334c0.11041666666666668 0.049375 0.276875 0.12458333333333334 0.4914583333333334 0.22333333333333336 0.4295833333333334 0.1975 1.0497916666666667 0.48812500000000003 1.7966666666666669 0.85375 1.5012500000000002 0.7350000000000001 3.4783333333333335 1.7554166666666668 5.433958333333333 2.9166666666666665 1.9889583333333334 1.1810416666666668 3.7983333333333333 2.4154166666666668 5.058541666666668 3.5575 0.47395833333333337 0.4295833333333334 0.8035416666666667 0.786875 1.0197916666666667 1.0629166666666667 -0.21625000000000003 0.27625 -0.5458333333333334 0.6333333333333334 -1.0197916666666667 1.0629166666666667 -1.2602083333333334 1.1420833333333336 -3.0695833333333336 2.376458333333334 -5.058541666666668 3.5575 -1.9556250000000002 1.1612500000000001 -3.9327083333333337 2.1816666666666666 -5.433958333333333 2.9166666666666665 -0.7468750000000001 0.365625 -1.3670833333333334 0.65625 -1.7966666666666669 0.85375 -0.21458333333333335 0.09875 -0.3810416666666667 0.17395833333333335 -0.4914583333333334 0.22333333333333336l-0.12229166666666667 0.05458333333333334 -0.0275 0.012083333333333333 -0.0041666666666666675 0.0018750000000000001 -0.0008333333333333334 0.0004166666666666667c-2.1077083333333335 0.9225000000000001 -3.0687500000000005 3.3789583333333333 -2.1464583333333334 5.486875 0.9222916666666667 2.1083333333333334 3.3791666666666673 3.069791666666667 5.487291666666668 2.147291666666667l-1.6700000000000002 -3.817291666666667c1.6700000000000002 3.817291666666667 1.670625 3.8170833333333336 1.6712500000000001 3.8168750000000005l0.0016666666666666668 -0.0008333333333333334 0.0041666666666666675 -0.0016666666666666668 0.013125000000000001 -0.005833333333333334 0.043750000000000004 -0.019375 0.15645833333333334 -0.06958333333333333c0.13375 -0.060000000000000005 0.3254166666666667 -0.14645833333333336 0.5664583333333333 -0.2575 0.48187500000000005 -0.22145833333333337 1.16375 -0.54125 1.979375 -0.940625 1.62375 -0.7947916666666668 3.8133333333333335 -1.9229166666666668 6.024375000000001 -3.235625 2.1777083333333334 -1.292916666666667 4.535208333333333 -2.858125 6.399791666666667 -4.547916666666667 0.9327083333333334 -0.8452083333333335 1.859791666666667 -1.8264583333333335 2.5787500000000003 -2.9270833333333335 0.7043750000000001 -1.07875 1.3941666666666668 -2.557291666666667 1.3941666666666668 -4.310833333333333 0 -1.7535416666666668 -0.6897916666666667 -3.232083333333333 -1.3941666666666668 -4.310833333333333 -0.7189583333333335 -1.100625 -1.6460416666666668 -2.081875 -2.5787500000000003 -2.9270833333333335 -1.8645833333333335 -1.6897916666666668 -4.222083333333334 -3.2550000000000003 -6.399791666666667 -4.547916666666667 -2.2110416666666666 -1.3127083333333334 -4.400625 -2.4408333333333334 -6.024375000000001 -3.235625 -0.815625 -0.39937500000000004 -1.4975 -0.7191666666666667 -1.979375 -0.940625 -0.24104166666666668 -0.11083333333333334 -0.43270833333333336 -0.1975 -0.5664583333333333 -0.2572916666666667l-0.15645833333333334 -0.06979166666666668 -0.043750000000000004 -0.019375 -0.013125000000000001 -0.005625000000000001 -0.0041666666666666675 -0.0018750000000000001 -0.0016666666666666668 -0.0008333333333333334c-0.000625 -0.00020833333333333335 -0.00125 -0.0004166666666666667 -1.6712500000000001 3.8168750000000005l1.6700000000000002 -3.817291666666667c-2.1081250000000002 -0.9222916666666667 -4.5649999999999995 0.03895833333333334 -5.487291666666668 2.147291666666667Zm16.382291666666667 13.743541666666667c-0.00020833333333333335 0 -0.002291666666666667 0.0041666666666666675 -0.005416666666666667 0.0125 0.003958333333333334 -0.008333333333333335 0.005625000000000001 -0.0125 0.005416666666666667 -0.0125Zm-0.00125 0.8506250000000001c-0.0010416666666666669 -0.0020833333333333337 -0.002291666666666667 -0.005625000000000001 -0.0041666666666666675 -0.010208333333333333 0.003958333333333334 0.008333333333333335 0.005625000000000001 0.0125 0.005416666666666667 0.0125 -0.00020833333333333335 0 -0.000625 -0.0008333333333333334 -0.00125 -0.002291666666666667Zm8.269583333333333 12.075833333333335c0 -2.30125 1.8654166666666667 -4.166666666666667 4.166666666666667 -4.166666666666667h20.833333333333336c2.30125 0 4.166666666666667 1.8654166666666667 4.166666666666667 4.166666666666667s-1.8654166666666667 4.166666666666667 -4.166666666666667 4.166666666666667l-20.833333333333336 0c-2.30125 0 -4.166666666666667 -1.8654166666666667 -4.166666666666667 -4.166666666666667Z" clip-rule="evenodd" stroke-width="2.0833"></path>
  </g>
</svg>