<svg xmlns="http://www.w3.org/2000/svg" fill="none" viewBox="0 0 100 100" id="Bug--Streamline-Plump" height="100" width="100">
  <desc>
    Bug Streamline Icon: https://streamlinehq.com
  </desc>
  <g id="bug--code-bug-security-programming-secure-computer">
    <path id="Union" fill="#000000" fill-rule="evenodd" d="M37.06104166666667 3.345854166666667C36.03187500000001 1.2876125 33.52916666666667 0.45334375 31.470833333333335 1.4824666666666668c-2.058125 1.029116666666667 -2.8925000000000005 3.531929166666667 -1.8633333333333335 5.590179166666667l3.0589583333333334 6.118020833333334c-3.111041666666667 1.5184791666666668 -5.9325 3.4693125000000005 -8.398125000000002 5.814708333333334 -3.8133125000000003 3.627541666666667 -6.709520833333333 8.136916666666668 -8.507104166666666 13.315875C25.035208333333333 36.28354166666667 36.71270833333333 38.54166666666667 50 38.54166666666667c13.287291666666668 0 24.96479166666667 -2.258125 34.23875 -6.220416666666667 -1.7975 -5.178958333333334 -4.6937500000000005 -9.688333333333334 -8.507083333333334 -13.315875 -2.4652083333333334 -2.3450208333333333 -5.28625 -4.295625 -8.396666666666668 -5.814l3.059375 -6.118729166666667c1.0291666666666668 -2.05825 0.19479166666666667 -4.5610625 -1.8633333333333335 -5.590179166666667 -2.0583333333333336 -1.0291229166666667 -4.561041666666666 -0.1948541666666667 -5.590208333333334 1.8633875000000002L59.40854166666667 10.410208333333335C56.42791666666667 9.727666666666666 53.278333333333336 9.375 50 9.375c-3.2777083333333334 0 -6.426875000000001 0.3525416666666667 -9.407083333333333 1.0348333333333335l-3.5318750000000003 -7.063979166666667ZM4.9103125 43.49645833333334C2.7497708333333337 42.70416666666667 1.6405166666666668 40.310625 2.4327083333333333 38.150000000000006c0.7922083333333334 -2.160416666666667 3.1858541666666667 -3.269791666666667 5.346375000000001 -2.4775l11.363645833333335 4.166666666666667c0.5429583333333334 0.1991666666666667 1.0195 0.499375 1.4161875000000002 0.8714583333333334C28.40854166666667 43.11875 37.29208333333334 44.504583333333336 46.875 44.751666666666665l0 54.09770833333334c-8.941875 -0.6295833333333334 -16.771250000000002 -3.970416666666667 -22.60666666666667 -9.521458333333333 -4.270104166666667 -4.061875000000001 -7.390250000000001 -9.23 -9.105479166666667 -15.205416666666668l-7.383770833333334 2.707291666666667c-2.1605208333333334 0.7920833333333334 -4.554166666666667 -0.3170833333333334 -5.346375000000001 -2.4775 -0.7921916666666666 -2.160625 0.3170625 -4.554375 2.4776041666666666 -5.3464583333333335l8.824770833333334 -3.2358333333333333c-0.035937500000000004 -0.5587500000000001 -0.06108333333333334 -1.1222916666666667 -0.0753125 -1.690416666666667 -0.029500000000000002 -1.1779166666666667 -0.05395833333333334 -2.3981250000000003 -0.0728125 -3.661875H5.208333333333334c-2.3011875 0 -4.166666666666667 -1.8654166666666667 -4.166666666666667 -4.166666666666667 0 -2.301041666666667 1.8654791666666668 -4.166666666666667 4.166666666666667 -4.166666666666667h8.338166666666668c0.008833333333333334 -1.8852083333333336 0.02960416666666667 -3.6837500000000003 0.060812500000000005 -5.398958333333334l-8.697 -3.1889583333333333Zm90.18052083333335 0c2.160625 -0.7922916666666667 3.269791666666667 -3.1858333333333335 2.4775 -5.3464583333333335 -0.7920833333333334 -2.160416666666667 -3.1858333333333335 -3.269791666666667 -5.34625 -2.4775l-11.363750000000001 4.166666666666667c-0.5427083333333333 0.19895833333333335 -1.0189583333333334 0.49895833333333334 -1.4156250000000001 0.8710416666666668 -7.8500000000000005 2.408333333333333 -16.73416666666667 3.794375 -26.317708333333336 4.041458333333334l0 54.09770833333334c8.941875 -0.6295833333333334 16.771250000000002 -3.970416666666667 22.60666666666667 -9.521458333333333 4.270208333333334 -4.062083333333334 7.390416666666668 -9.230208333333335 9.105625000000002 -15.205833333333334l7.3847916666666675 2.7077083333333336c2.160416666666667 0.7920833333333334 4.554166666666667 -0.3170833333333334 5.34625 -2.4775 0.7922916666666667 -2.160625 -0.3168750000000001 -4.554375 -2.4775 -5.3464583333333335l-8.825833333333334 -3.23625c0.035833333333333335 -0.5585416666666667 0.06104166666666667 -1.121875 0.07520833333333334 -1.6900000000000002 0.029583333333333336 -1.1779166666666667 0.05395833333333334 -2.3981250000000003 0.07291666666666669 -3.661875h8.379583333333333c2.30125 0 4.166666666666667 -1.8654166666666667 4.166666666666667 -4.166666666666667 0 -2.301041666666667 -1.8654166666666667 -4.166666666666667 -4.166666666666667 -4.166666666666667h-8.339166666666667c-0.008958333333333334 -1.8850000000000002 -0.029583333333333336 -3.6833333333333336 -0.060833333333333336 -5.398541666666667l8.698125 -3.189375Z" clip-rule="evenodd" stroke-width="2.0833"></path>
  </g>
</svg>