<svg xmlns="http://www.w3.org/2000/svg" fill="none" viewBox="0 0 100 100" id="Button-Play--Streamline-Plump" height="100" width="100">
  <desc>
    Button Play Streamline Icon: https://streamlinehq.com
  </desc>
  <g id="Solid/Entertainment/Control Buttons/button-play--button-television-buttons-movies-play-tv-video-controls">
    <path id="Union" fill="#000000" fill-rule="evenodd" d="M25.66479166666667 4.0264375C16.301770833333332 0.8148604166666668 7.528562500000001 6.514666666666667 5.902375000000001 15.888020833333334 4.500000000000001 23.97125 3.125 35.575625 3.125 50.004583333333336c0 14.429166666666667 1.3750000000000002 26.033333333333335 2.777375 34.116666666666674 1.6261875000000001 9.373333333333335 10.399416666666667 15.073125000000001 19.76241666666667 11.861666666666668 7.207916666666667 -2.4725 17.65625 -6.79 32.24270833333333 -14.335625 14.319583333333334 -7.407708333333334 24.62291666666667 -13.785833333333334 31.760625000000005 -18.69541666666667C94.34708333333334 59.73333333333334 96.875 54.960416666666674 96.875 50.004583333333336c0 -4.955625 -2.527916666666667 -9.728750000000002 -7.206875 -12.947083333333333 -7.137708333333333 -4.909583333333333 -17.44104166666667 -11.287916666666666 -31.760625000000005 -18.6954375 -14.586458333333335 -7.545791666666668 -25.03479166666667 -11.86325 -32.24270833333333 -14.335625Z" clip-rule="evenodd" stroke-width="2.0833"></path>
  </g>
</svg>