<svg xmlns="http://www.w3.org/2000/svg" fill="none" viewBox="0 0 100 100" id="Campfire--Streamline-Plump" height="100" width="100">
  <desc>
    Campfire Streamline Icon: https://streamlinehq.com
  </desc>
  <g id="campfire--campfire-burn-leisure-outdoor-activity">
    <path id="Union" fill="#000000" fill-rule="evenodd" d="M49.66020833333334 1.75603125c0.64875 0.5812395833333334 1.0435416666666668 1.4406562500000002 1.0752083333333333 2.35515625 0.13333333333333336 3.863270833333334 0.790625 8.077833333333334 2.6333333333333337 10.619645833333335 0.5183333333333333 0.7151041666666668 1.361875 0.7355833333333334 1.7989583333333337 0.29900000000000004 1.1520833333333336 -1.1506875 2.093125 -3.186604166666667 2.8202083333333334 -5.520229166666667 0.6718750000000001 -2.1568333333333336 3.380833333333334 -3.3236250000000003 5.300625 -1.6965208333333335C70.45916666666668 13.8905625 78.125 23.422708333333336 78.125 36.413125c0 8.565625 -3.1487500000000006 14.879375000000001 -8.322708333333333 19.02729166666667 -5.140208333333334 4.121041666666667 -12.167083333333334 6.01625 -19.80229166666667 6.01625 -7.635208333333334 0 -14.662083333333333 -1.8952083333333334 -19.80229166666667 -6.01625 -5.173958333333333 -4.147916666666667 -8.322708333333333 -10.461666666666668 -8.322708333333333 -19.02729166666667 0 -17.81310416666667 14.397708333333334 -29.126875000000002 22.315416666666668 -34.016562500000006 0.9087500000000001 -0.5613145833333333 1.8743750000000003 -0.9811562500000001 2.8685416666666668 -1.2583520833333335 0.9981250000000002 -0.27831875 1.9366666666666668 0.022358333333333334 2.60125 0.6178208333333334ZM57.28187500000001 48.8025C59.25104166666667 47.219166666666666 60.41666666666667 44.82291666666667 60.41666666666667 41.666875000000005c0 -3.711666666666667 -1.6945833333333336 -6.640625000000001 -3.6347916666666666 -8.771458333333335 -1.9352083333333334 -2.1252083333333336 -4.165 -3.5156250000000004 -5.388333333333334 -4.1875 -0.8720833333333334 -0.47875000000000006 -1.9150000000000003 -0.47875000000000006 -2.787083333333334 0 -1.2233333333333336 0.6718750000000001 -3.453125 2.0620833333333337 -5.388333333333334 4.1875C41.27791666666667 35.026250000000005 39.583333333333336 37.95520833333333 39.583333333333336 41.666875000000005c0 3.156041666666667 1.1656250000000001 5.552291666666667 3.1347916666666666 7.135625000000001 1.9358333333333335 1.5566666666666666 4.536041666666667 2.239375 7.281875 2.239375s5.346041666666667 -0.6827083333333334 7.281875 -2.239375ZM20.186729166666666 97.89458333333334c-2.1016458333333334 0.7252083333333335 -4.887895833333333 0.7016666666666667 -6.431916666666667 -1.5485416666666667 -0.5384166666666668 -0.7847916666666667 -1.0719166666666666 -1.7862500000000003 -1.520375 -3.0543750000000003 -0.4707291666666667 -1.331041666666667 -0.6857083333333334 -2.4977083333333336 -0.7527916666666667 -3.482291666666667 -0.1797291666666667 -2.6389583333333335 1.85125 -4.406250000000001 3.8651458333333335 -5.221875000000001 2.493291666666667 -1.0097916666666669 6.834458333333333 -2.7354166666666666 13.823208333333334 -5.421666666666667 -6.9887500000000005 -2.6862500000000002 -11.329916666666668 -4.412083333333333 -13.823208333333334 -5.421666666666667 -2.0138958333333337 -0.815625 -4.044875 -2.5829166666666667 -3.8651458333333335 -5.221875000000001 0.06708333333333334 -0.9847916666666667 0.28206250000000005 -2.15125 0.7527916666666667 -3.482291666666667 0.4484583333333334 -1.2681250000000002 0.9819583333333334 -2.2695833333333333 1.520375 -3.0543750000000003 1.5440416666666668 -2.2504166666666667 4.330270833333334 -2.27375 6.431916666666667 -1.5485416666666667 4.1228541666666665 1.4225 13.020354166666667 4.574583333333334 29.8124375 10.848333333333334 16.791875 -6.273750000000001 25.689375000000002 -9.425833333333333 29.81229166666667 -10.848333333333334 2.1016666666666666 -0.7252083333333335 4.887916666666667 -0.701875 6.431875000000001 1.5485416666666667 0.5383333333333334 0.7847916666666667 1.071875 1.7862500000000003 1.5204166666666667 3.0543750000000003 0.470625 1.331041666666667 0.685625 2.4975000000000005 0.7527083333333334 3.482291666666667 0.17979166666666668 2.6389583333333335 -1.85125 4.406250000000001 -3.8652083333333334 5.221875000000001 -2.4931250000000005 1.0095833333333333 -6.8343750000000005 2.7354166666666666 -13.823125000000003 5.421666666666667 6.9887500000000005 2.6862500000000002 11.33 4.411875 13.823333333333334 5.421666666666667 2.0137500000000004 0.815625 4.044791666666667 2.5829166666666667 3.865 5.221875000000001 -0.06708333333333334 0.9845833333333335 -0.28208333333333335 2.15125 -0.7527083333333334 3.482291666666667 -0.44854166666666667 1.2681250000000002 -0.9820833333333334 2.2695833333333333 -1.5204166666666667 3.0543750000000003 -1.5439583333333333 2.2502083333333336 -4.330208333333334 2.27375 -6.431875000000001 1.5485416666666667 -4.122916666666667 -1.4225 -13.020416666666666 -4.574791666666667 -29.81229166666667 -10.848541666666668 -16.792083333333334 6.273750000000001 -25.689583333333335 9.426041666666666 -29.8124375 10.848541666666668Z" clip-rule="evenodd" stroke-width="2.0833"></path>
  </g>
</svg>