<svg xmlns="http://www.w3.org/2000/svg" fill="none" viewBox="0 0 100 100" id="Car-1--Streamline-Plump" height="100" width="100">
  <desc>
    Car 1 Streamline Icon: https://streamlinehq.com
  </desc>
  <g id="car-1--transportation-travel-transport-car">
    <path id="Union" fill="#000000" fill-rule="evenodd" d="M77.75395833333334 21.458750000000002c-2.1708333333333334 -6.314583333333334 -8.111458333333333 -10.554583333333335 -14.788958333333335 -10.554583333333335H31.328541666666666c-7.0062500000000005 0 -13.1575 4.659791666666667 -15.054375 11.404375l-4.939166666666667 17.562083333333334c-0.7885416666666667 0.19020833333333337 -1.5010416666666668 0.37312500000000004 -2.1375 0.5443749999999999 -3.2735416666666666 0.8804166666666666 -6.340833333333334 3.2539583333333337 -7.195833333333335 7.126875000000001C1.4577083333333334 50.00666666666667 1 53.60458333333334 1 58.74583333333334c0 4.228958333333334 0.3095833333333334 7.412291666666667 0.721875 9.779375 0.7529166666666667 4.324375 4.013541666666667 6.915416666666667 7.670625000000001 7.7754166666666675 0.6760416666666668 -8.592083333333335 7.862708333333334 -15.35375 16.62875 -15.35375 9.204583333333334 0 16.667708333333337 7.455 16.680833333333336 16.656666666666666 2.296666666666667 0.015625 4.727083333333334 0.024166666666666666 7.2979166666666675 0.024166666666666666s5.00125 -0.008541666666666668 7.2979166666666675 -0.024166666666666666c0.013125000000000001 -9.201666666666668 7.47625 -16.656666666666666 16.680833333333336 -16.656666666666666 8.766041666666668 0 15.952708333333335 6.761666666666668 16.628958333333337 15.35375 3.657083333333334 -0.8600000000000001 6.9175 -3.4510416666666672 7.670625000000001 -7.7754166666666675 0.41208333333333336 -2.367083333333334 0.7216666666666667 -5.550416666666667 0.7216666666666667 -9.779375 0 -5.14125 -0.4577083333333334 -8.739166666666668 -1.0016666666666667 -11.203958333333334 -0.855 -3.872916666666667 -3.922291666666667 -6.246250000000001 -7.195833333333335 -7.126875000000001 -1.7727083333333333 -0.4766666666666667 -4.134166666666667 -1.0439583333333333 -7.086666666666668 -1.6125000000000003l-5.961875 -17.343541666666667Zm-11.293958333333334 5.736875c-0.639375 -2.237916666666667 -2.684791666666667 -3.7808333333333337 -5.012083333333334 -3.7808333333333337h-6.245625c-2.303125 0 -4.170208333333334 1.8670833333333334 -4.170208333333334 4.170208333333334v8.340416666666668c0 2.3033333333333332 1.8670833333333334 4.170208333333334 4.170208333333334 4.170208333333334h9.415c2.770416666666667 0 4.770833333333334 -2.651666666666667 4.0095833333333335 -5.315625l-2.166875 -7.5843750000000005Zm-23.768333333333334 0.389375c0 -2.303125 -1.866875 -4.170208333333334 -4.170208333333334 -4.170208333333334h-6.230833333333334c-2.3266666666666667 0 -4.37125 1.5416666666666667 -5.011666666666668 3.7783333333333338l-2.17125 7.584791666666667c-0.7629166666666668 2.664375 1.2375 5.317916666666667 4.009166666666667 5.317916666666667h9.404583333333333c2.3033333333333332 0 4.170208333333334 -1.8670833333333334 4.170208333333334 -4.170208333333334v-8.340416666666668ZM14.553125000000001 77.62770833333333c0 6.33375 5.1345833333333335 11.468125 11.468125 11.468125 6.33375 0 11.468125 -5.134375 11.468125 -11.468125s-5.134375 -11.468125 -11.468125 -11.468125c-6.333541666666667 0 -11.468125 5.134375 -11.468125 11.468125Zm47.9575 0c0 6.33375 5.134375 11.468125 11.468125 11.468125s11.468125 -5.134375 11.468125 -11.468125 -5.134375 -11.468125 -11.468125 -11.468125 -11.468125 5.134375 -11.468125 11.468125Z" clip-rule="evenodd" stroke-width="2.0833"></path>
  </g>
</svg>