<svg xmlns="http://www.w3.org/2000/svg" fill="none" viewBox="0 0 100 100" id="Chat-Bubble-Text-Oval--Streamline-Plump" height="100" width="100">
  <desc>
    Chat Bubble Text Oval Streamline Icon: https://streamlinehq.com
  </desc>
  <g id="chat-bubble-text-oval--messages-message-bubble-text-chat">
    <path id="Subtract" fill="#000000" fill-rule="evenodd" d="M1.0416666666666667 50C1.0416666666666667 22.96104166666667 22.96104166666667 1.0416666666666667 50 1.0416666666666667S98.95833333333334 22.96104166666667 98.95833333333334 50 77.03895833333334 98.95833333333334 50 98.95833333333334c-8.907083333333334 0 -17.261458333333337 -2.3795833333333336 -24.458750000000002 -6.538125000000001 -5.449270833333334 2.0125 -11.633833333333335 3.990208333333334 -17.713270833333336 5.398750000000001 -3.45475 0.8004166666666667 -6.547677083333334 -2.157708333333334 -5.854891666666667 -5.651041666666667 1.2611833333333335 -6.359375000000001 3.2149958333333335 -12.7375 5.298266666666668 -18.25104166666667C3.3036875 66.84333333333335 1.0416666666666667 58.68437500000001 1.0416666666666667 50Zm72.91666666666667 -9.375c0 -0.8837500000000001 -0.025833333333333333 -1.6345833333333333 -0.06541666666666666 -2.2660416666666667 -0.13645833333333335 -2.1835416666666667 -1.8725000000000003 -3.6275000000000004 -3.92875 -3.716041666666667C67.10854166666667 34.51958333333334 61.34375000000001 34.375 50 34.375c-11.343541666666667 0 -17.108541666666667 0.14458333333333334 -19.96416666666667 0.2679166666666667 -2.05625 0.08854166666666669 -3.792291666666667 1.5325000000000002 -3.92875 3.716041666666667 -0.03958333333333334 0.6314583333333333 -0.06541666666666666 1.3822916666666667 -0.06541666666666666 2.2660416666666667 0 0.8837500000000001 0.025833333333333333 1.6345833333333333 0.06541666666666666 2.2660416666666667 0.13645833333333335 2.1835416666666667 1.8725000000000003 3.6275000000000004 3.92875 3.716041666666667 2.8556250000000003 0.12333333333333335 8.620416666666667 0.2679166666666667 19.96416666666667 0.2679166666666667 11.382291666666667 0 17.148541666666667 -0.15145833333333333 19.994791666666668 -0.2797916666666667 2.0410416666666666 -0.09229166666666667 3.760416666666667 -1.5254166666666666 3.897291666666667 -3.6925000000000003 0.04 -0.6329166666666668 0.06625 -1.3872916666666668 0.06625 -2.2777083333333334Zm-16.666666666666668 22.916666666666668c0 -0.8364583333333334 -0.014791666666666668 -1.5512500000000002 -0.03770833333333334 -2.156458333333333 -0.08250000000000002 -2.18 -1.7164583333333334 -3.7741666666666673 -3.865 -3.8845833333333335C51.31583333333334 57.39416666666667 47.74458333333334 57.29166666666667 41.66666666666667 57.29166666666667c-6.077916666666668 0 -9.649166666666666 0.10250000000000001 -11.722291666666667 0.20895833333333336 -2.148541666666667 0.11041666666666668 -3.7825000000000006 1.7045833333333336 -3.865 3.8845833333333335 -0.02291666666666667 0.6052083333333333 -0.03770833333333334 1.3200000000000003 -0.03770833333333334 2.156458333333333 0 0.8364583333333334 0.014791666666666668 1.5512500000000002 0.03770833333333334 2.156458333333333 0.08250000000000002 2.18 1.7164583333333334 3.7741666666666673 3.865 3.8845833333333335 2.073125 0.10645833333333334 5.644375 0.20895833333333336 11.722291666666667 0.20895833333333336 6.112500000000001 0 9.690625 -0.10770833333333335 11.759375 -0.21916666666666668 2.1310416666666665 -0.11479166666666668 3.7441666666666666 -1.6975 3.8270833333333334 -3.857291666666667 0.023333333333333334 -0.6077083333333334 0.03854166666666667 -1.328125 0.03854166666666667 -2.1735416666666665Z" clip-rule="evenodd" stroke-width="2.0833"></path>
  </g>
</svg>