<svg xmlns="http://www.w3.org/2000/svg" fill="none" viewBox="0 0 100 100" id="Chat-Bubble-Square-Quotation--Streamline-Plump" height="100" width="100">
  <desc>
    Chat Bubble Square Quotation Streamline Icon: https://streamlinehq.com
  </desc>
  <g id="chat-bubble-square-quotation--messages-message-bubble-square-quote-quotation-text">
    <path id="Subtract" fill="#000000" fill-rule="evenodd" d="M14.970770833333335 2.06968125C22.061875000000004 1.5738395833333334 33.51270833333333 1.0416666666666667 50 1.0416666666666667c16.487291666666668 0 27.938125 0.5321770833333334 35.02916666666667 1.0280208333333334 6.793333333333334 0.47502083333333334 12.208958333333333 5.593083333333334 12.833541666666667 12.460479166666667C98.41458333333334 20.59775 98.95833333333334 29.840208333333337 98.95833333333334 42.708333333333336s-0.5437500000000001 22.110625 -1.095625 28.178125c-0.6245833333333334 6.867500000000001 -6.040208333333334 11.985416666666667 -12.833541666666667 12.460625 -6.8222916666666675 0.476875 -17.680208333333333 0.9877083333333334 -33.17604166666667 1.025625l-15.130208333333334 12.96875c-3.3785416666666666 2.8958333333333335 -8.597916666666666 0.4954166666666667 -8.597916666666666 -3.954375v-9.368958333333333c-5.42 -0.1910416666666667 -9.780520833333334 -0.43520833333333336 -13.154229166666667 -0.6710416666666668 -6.7932500000000005 -0.47520833333333334 -12.208833333333335 -5.593125 -12.833520833333335 -12.460625C1.5853312500000003 64.81895833333334 1.0416666666666667 55.576458333333335 1.0416666666666667 42.708333333333336c0.00000416666666666667 -12.868125000000001 0.54366875 -22.110583333333334 1.0955833333333334 -28.17816666666667 0.6246875000000001 -6.867395833333334 6.0402708333333335 -11.985458333333336 12.833520833333335 -12.460485416666668ZM26.837500000000002 54.066250000000004c4.620833333333334 -2.577916666666667 7 -5.390416666666668 7.370416666666667 -10.165625 -1.6933333333333334 -0.007083333333333334 -3.08625 -0.02875 -4.225416666666667 -0.057708333333333334 -2.77125 -0.07041666666666667 -4.845208333333334 -2.1495833333333336 -4.918750000000001 -4.920833333333334 -0.0375 -1.4112500000000001 -0.06375 -3.1993750000000003 -0.06375 -5.437708333333334 0 -2.416875 0.030625000000000003 -4.308750000000001 0.07291666666666669 -5.768125 0.075625 -2.61 1.95625 -4.59 4.5652083333333335 -4.6972916666666675C31.086250000000003 22.959375 32.975625 22.916666666666668 35.41666666666667 22.916666666666668c2.4410416666666666 0 4.330416666666666 0.04270833333333334 5.778333333333334 0.10229166666666667 2.609166666666667 0.10708333333333335 4.49 2.0875000000000004 4.565416666666667 4.697708333333334 0.041875 1.4475 0.0725 3.3206250000000006 0.07291666666666669 5.7093750000000005v10.477083333333335h-0.04770833333333334c-0.6170833333333334 8.824166666666667 -7.1347916666666675 14.081666666666667 -14.520625 16.353958333333335 -1.0395833333333333 0.3197916666666667 -2.186875 0.16625 -2.9731250000000005 -0.5852083333333333 -0.9122916666666667 -0.8718750000000001 -1.6941666666666668 -1.950416666666667 -2.266666666666667 -2.8491666666666666 -0.615625 -0.96625 -0.18833333333333332 -2.1983333333333333 0.8122916666666667 -2.7564583333333332Zm29.166666666666668 0c4.620833333333334 -2.577916666666667 7 -5.390416666666668 7.370416666666667 -10.165625 -1.6933333333333334 -0.007083333333333334 -3.08625 -0.02875 -4.225416666666667 -0.057708333333333334 -2.77125 -0.07041666666666667 -4.845208333333334 -2.1495833333333336 -4.918750000000001 -4.920833333333334 -0.0375 -1.4112500000000001 -0.06375 -3.1993750000000003 -0.06375 -5.437708333333334 0 -2.416875 0.030625000000000003 -4.308750000000001 0.07291666666666669 -5.768125 0.075625 -2.61 1.95625 -4.59 4.5652083333333335 -4.6972916666666675C60.25291666666667 22.959375 62.142291666666665 22.916666666666668 64.58333333333334 22.916666666666668c2.4410416666666666 0 4.330416666666666 0.04270833333333334 5.778333333333334 0.10229166666666667 2.609166666666667 0.10708333333333335 4.49 2.0875000000000004 4.565416666666667 4.697708333333334 0.041875 1.4475 0.0725 3.3206250000000006 0.07291666666666669 5.7093750000000005v10.477083333333335h-0.04770833333333334c-0.6170833333333334 8.824166666666667 -7.1347916666666675 14.081666666666667 -14.520625 16.353958333333335 -1.0395833333333333 0.3197916666666667 -2.186875 0.16625 -2.9731250000000005 -0.5852083333333333 -0.9122916666666667 -0.8718750000000001 -1.6941666666666668 -1.950416666666667 -2.266666666666667 -2.8491666666666666 -0.615625 -0.96625 -0.18833333333333332 -2.1983333333333333 0.8122916666666667 -2.7564583333333332Z" clip-rule="evenodd" stroke-width="2.0833"></path>
  </g>
</svg>