<svg xmlns="http://www.w3.org/2000/svg" fill="none" viewBox="0 0 100 100" id="Chat-Bubble-Square--Streamline-Plump" height="100" width="100">
  <desc>
    Chat Bubble Square Streamline Icon: https://streamlinehq.com
  </desc>
  <g id="chat-bubble-square--messages-message-bubble-chat-square">
    <path id="Union" fill="#000000" fill-rule="evenodd" d="M50 1.0416666666666667C33.51270833333333 1.0416666666666667 22.061875000000004 1.5738395833333334 14.970770833333335 2.06968125 8.177520833333334 2.5447083333333333 2.7619375 7.662770833333334 2.13725 14.530166666666668 1.5853354166666669 20.59775 1.0416708333333333 29.840208333333337 1.0416666666666667 42.708333333333336c0 12.868125000000001 0.5436645833333333 22.110625 1.0955833333333334 28.178125 0.6246875000000001 6.867500000000001 6.0402708333333335 11.985416666666667 12.833520833333335 12.460625 3.3737083333333335 0.23583333333333334 7.734229166666667 0.48000000000000004 13.154229166666667 0.6710416666666668v9.368958333333333c0 4.449791666666667 5.219375 6.850208333333334 8.597916666666666 3.954375l15.130208333333334 -12.96875c15.495833333333334 -0.03791666666666667 26.353750000000005 -0.5487500000000001 33.17604166666667 -1.025625 6.793333333333334 -0.47520833333333334 12.208958333333333 -5.593125 12.833541666666667 -12.460625 0.5518750000000001 -6.0675 1.095625 -15.31 1.095625 -28.178125 0 -12.868125000000001 -0.5437500000000001 -22.110583333333334 -1.095625 -28.17816666666667 -0.6245833333333334 -6.867395833333334 -6.040208333333334 -11.985458333333336 -12.833541666666667 -12.460479166666667C77.938125 1.5738437500000002 66.48729166666668 1.0416666666666667 50 1.0416666666666667Z" clip-rule="evenodd" stroke-width="2.0833"></path>
  </g>
</svg>