<svg xmlns="http://www.w3.org/2000/svg" fill="none" viewBox="0 0 100 100" height="100" width="100">
  <g id="chat-bubble-user-contact--chat-bubble-user-contact-follower-support-customer-service-subscriber">
    <path id="Subtract" fill="#000000" fill-rule="evenodd" d="M14.970770833333335 2.069670833333334C22.061875000000004 1.5738333333333334 33.51270833333333 1.0416604166666668 50 1.0416666666666667c16.487291666666668 0 27.938125 0.5321729166666667 35.02916666666667 1.0280104166666668 6.793333333333334 0.47503125 12.208958333333333 5.593072916666667 12.833541666666667 12.460489583333334C98.41458333333334 20.597729166666667 98.95833333333334 29.840208333333337 98.95833333333334 42.708333333333336s-0.5437500000000001 22.110625 -1.095625 28.178125c-0.6245833333333334 6.867500000000001 -6.040208333333334 11.985416666666667 -12.833541666666667 12.460625 -6.458125 0.45145833333333335 -16.53229166666667 0.9331250000000001 -30.733750000000004 1.015625l-14.133333333333335 12.114375c-4.73 4.054166666666667 -12.037083333333335 0.6933333333333334 -12.037083333333335 -5.536250000000001v-6.922708333333334c-5.42 -0.1910416666666667 -9.780520833333334 -0.43520833333333336 -13.154229166666667 -0.67125 -6.7932500000000005 -0.47500000000000003 -12.208833333333335 -5.592916666666667 -12.833520833333335 -12.460416666666667C1.5853312500000003 64.81895833333334 1.0416666666666667 55.576458333333335 1.0416666666666667 42.708333333333336c0.00000416666666666667 -12.868125000000001 0.54366875 -22.110583333333334 1.0955833333333334 -28.17816666666667 0.6246875000000001 -6.867416666666667 6.0402708333333335 -11.985479166666668 12.833520833333335 -12.460495833333335L15.188750000000002 5.187062500000001 14.970770833333335 2.069670833333334ZM65.62458333333333 32.29166666666667c0 5.583333333333334 -2.9283333333333337 10.482708333333333 -7.333125 13.245833333333334 5.827083333333334 2.637291666666667 10.271041666666669 7.969375 11.883333333333333 14.487083333333334 0.7541666666666667 3.047708333333334 -1.6714583333333335 5.727083333333334 -4.800208333333334 5.988541666666666C61.57625 66.33041666666666 56.11083333333334 66.66666666666667 50 66.66666666666667c-6.110833333333334 0 -11.576458333333335 -0.33625 -15.374583333333335 -0.6535416666666667 -3.12875 -0.26145833333333335 -5.554375 -2.9408333333333334 -4.800416666666667 -5.988541666666666 1.6125000000000003 -6.517500000000001 6.05625 -11.849583333333335 11.883125000000001 -14.486875000000001 -4.405 -2.763125 -7.333541666666667 -7.6625000000000005 -7.333541666666667 -13.246041666666668 0 -8.629375000000001 6.995625 -15.625000000000002 15.625000000000002 -15.625000000000002 8.629583333333334 0 15.625000000000002 6.995625 15.625000000000002 15.625000000000002Z" clip-rule="evenodd" stroke-width="2.0833"></path>
  </g>
</svg>