<svg xmlns="http://www.w3.org/2000/svg" fill="none" viewBox="0 0 100 100" id="Check-Square-2--Streamline-Plump" height="100" width="100">
  <desc>
    Check Square 2 Streamline Icon: https://streamlinehq.com
  </desc>
  <g id="Solid/Interface Essential/Validation/check-square-2--check-form-validation-checkmark-success-add-addition-box-square-tick-checkbox">
    <path id="Union" fill="#000000" fill-rule="evenodd" d="m21.146250000000002 52.12979166666668 0.020833333333333336 0.025 0.8472916666666668 -0.7225c-0.8472916666666668 0.7225 -0.8472916666666668 0.7225 -0.8472916666666668 0.7227083333333334l0.0004166666666666667 0.0004166666666666667 0.0014583333333333334 0.0018750000000000001 0.00625 0.007083333333333334 0.023750000000000004 0.027708333333333335 0.09250000000000001 0.10833333333333334c0.08166666666666667 0.09500000000000001 0.2016666666666667 0.23520833333333335 0.35708333333333336 0.4158333333333334 0.31125 0.3614583333333333 0.76375 0.8858333333333335 1.3308333333333335 1.5372916666666667 1.13375 1.303125 2.725416666666667 3.1164583333333336 4.557708333333333 5.158958333333334 3.6591666666666667 4.078333333333334 8.298333333333334 9.092500000000001 12.168958333333334 12.773750000000001 4.855625000000001 4.618125 12.394375 4.083541666666667 16.558333333333334 -1.16375 7.300000000000001 -9.199166666666668 20.646875 -26.76125 41.36104166666667 -56.63937500000001 1.5147916666666668 -2.184791666666667 2.0014583333333333 -5.273541666666667 0.3037500000000001 -7.668958333333333 -2.8072916666666665 -3.960416666666667 -6.211458333333334 -5.276041666666668 -8.629583333333334 -5.65625 -2.2789583333333336 -0.358125 -4.180000000000001 0.9983333333333334 -5.318333333333333 2.5870833333333336 -9.622708333333334 13.4275 -19.07854166666667 26.68729166666667 -26.12854166666667 36.589999999999996 -3.5250000000000004 4.951458333333334 -6.44875 9.06375 -8.49125 11.938125 -1.0212500000000002 1.4370833333333333 -1.8222916666666669 2.5650000000000004 -2.3677083333333337 3.333333333333334l-0.05729166666666667 0.08041666666666668 -13.600416666666668 -14.153333333333334 -0.002916666666666667 -0.002916666666666667c-1.95625 -2.0210416666666666 -5.065833333333334 -2.9589583333333334 -7.731041666666667 -1.3900000000000001 -1.4227083333333332 0.8372916666666667 -3.0679166666666666 2.0295833333333335 -4.59 3.6770833333333335 -2.2800000000000002 2.467916666666667 -1.760625 6.054583333333334 0.13416666666666668 8.412083333333333ZM46.65854166666667 7.682708333333334c-14.197291666666668 0 -24.18104166666667 0.5333333333333334 -30.505000000000003 1.0472916666666667 -7.5975 0.6172916666666667 -13.488958333333334 6.508750000000001 -14.106250000000001 14.106250000000001C1.5333333333333334 29.160208333333337 1 39.143750000000004 1 53.34125c0 14.197291666666668 0.5333333333333334 24.18125 1.0472916666666667 30.505000000000003 0.6172916666666667 7.5975 6.508750000000001 13.489166666666668 14.106250000000001 14.106458333333334 6.323958333333334 0.5139583333333334 16.307708333333334 1.0470833333333336 30.505000000000003 1.0472916666666667 14.197291666666668 0 24.18125 -0.5333333333333334 30.505000000000003 -1.0472916666666667 7.597708333333334 -0.6172916666666667 13.489166666666668 -6.508958333333333 14.106250000000001 -14.106250000000001 0.5139583333333334 -6.323958333333334 1.0472916666666667 -16.307708333333334 1.0472916666666667 -30.505000000000003 0 -0.7591666666666668 -0.0014583333333333334 -1.5058333333333334 -0.004375 -2.240625 -0.0125 -3.0752083333333333 -2.515416666666667 -5.557916666666667 -5.590625 -5.545625000000001 -3.0752083333333333 0.0125 -5.557916666666667 2.515416666666667 -5.545625000000001 5.590625 0.002916666666666667 0.7197916666666667 0.004375 1.4516666666666667 0.004375 2.195625 0 13.919166666666667 -0.5229166666666667 23.60125 -1.0104166666666667 29.603125000000002 -0.17541666666666667 2.1589583333333335 -1.7497916666666669 3.732916666666667 -3.9085416666666672 3.9085416666666672 -6.002083333333333 0.48750000000000004 -15.683958333333335 1.010625 -29.603333333333335 1.010625 -13.919375000000002 -0.00020833333333333335 -23.60125 -0.5231250000000001 -29.603125000000002 -1.010625 -2.1589583333333335 -0.175625 -3.7331250000000002 -1.7495833333333335 -3.9085416666666672 -3.9087500000000004 -0.48770833333333335 -6.001666666666667 -1.010625 -15.683750000000002 -1.010625 -29.603125000000002 0 -13.919166666666667 0.5229166666666667 -23.60125 1.010625 -29.603333333333335 0.17541666666666667 -2.1587500000000004 1.7495833333333335 -3.732708333333334 3.9085416666666672 -3.908333333333333 6.001875 -0.48750000000000004 15.683750000000002 -1.010625 29.603125000000002 -1.0104166666666667 4.92625 0 9.321875 0.06541666666666666 13.211458333333335 0.1716666666666667 3.0739583333333336 0.08395833333333334 5.634166666666667 -2.3400000000000003 5.718125000000001 -5.413958333333333 0.08395833333333334 -3.0741666666666667 -2.3400000000000003 -5.634166666666667 -5.413958333333333 -5.718125000000001 -3.9937500000000004 -0.10916666666666668 -8.490625 -0.17604166666666668 -13.515625 -0.17604166666666668Z" clip-rule="evenodd" stroke-width="2.0833"></path>
  </g>
</svg>