<svg xmlns="http://www.w3.org/2000/svg" fill="none" viewBox="0 0 100 100" id="Check-Circle--Streamline-Plump" height="100" width="100">
  <desc>
    Check Circle Streamline Icon: https://streamlinehq.com
  </desc>
  <g id="Solid/Interface Essential/Validation/check-circle--checkmark-addition-circle-success-check-validation-add-form-tick">
    <path id="Subtract" fill="#000000" fill-rule="evenodd" d="M1.0416666666666667 50C1.0416666666666667 22.96104166666667 22.96104166666667 1.0416666666666667 50 1.0416666666666667S98.95833333333334 22.96104166666667 98.95833333333334 50 77.03895833333334 98.95833333333334 50 98.95833333333334 1.0416666666666667 77.03895833333334 1.0416666666666667 50Zm45.993541666666665 2.3404166666666666c-0.39375000000000004 -0.4722916666666667 -0.9131250000000001 -1.0891666666666668 -1.5485416666666667 -1.8306250000000002 -1.5729166666666667 -1.8358333333333334 -3.8579166666666667 -4.437291666666667 -6.710625 -7.505 -2.289791666666667 -2.4620833333333336 -6.1275 -3.050625 -8.804375 -0.7212500000000001 -1.2175000000000002 1.0591666666666666 -2.550625 2.376041666666667 -3.74 3.905208333333334 -1.8166666666666669 2.3358333333333334 -1.3639583333333334 5.462916666666667 0.35229166666666667 7.589791666666668 5.651250000000001 7.003958333333333 11.10875 12.723333333333334 15.013958333333333 16.572708333333335 3.584166666666667 3.533125 9.236666666666668 3.2456250000000004 12.398958333333335 -0.6887500000000001 4.25375 -5.2925 11.052291666666669 -14.333750000000002 20.096041666666668 -28.21041666666667 1.271875 -1.9514583333333335 1.6920833333333336 -4.665625 0.14520833333333333 -6.7752083333333335 -1.5991666666666666 -2.180625 -3.6070833333333336 -3.689791666666667 -5.347708333333333 -4.696666666666667 -2.8418750000000004 -1.6439583333333334 -6.096666666666668 -0.3170833333333334 -7.810208333333334 2.1158333333333337 -4.567916666666667 6.486041666666668 -8.274375000000001 11.834375000000001 -10.838958333333334 15.561666666666667 -1.2822916666666668 1.86375 -2.279166666666667 3.3220833333333335 -2.9556250000000004 4.315l-0.2504166666666667 0.36770833333333336Z" clip-rule="evenodd" stroke-width="2.0833"></path>
  </g>
</svg>