<svg xmlns="http://www.w3.org/2000/svg" fill="none" viewBox="0 0 100 100" id="Circle-Clock--Streamline-Plump" height="100" width="100">
  <desc>
    Circle Clock Streamline Icon: https://streamlinehq.com
  </desc>
  <g id="Solid/Interface Essential/Time/circle-clock--clock-loading-measure-time-circle">
    <path id="Subtract" fill="#000000" fill-rule="evenodd" d="M1.0416666666666667 50C1.0416666666666667 77.03895833333334 22.96104166666667 98.95833333333334 50 98.95833333333334S98.95833333333334 77.03895833333334 98.95833333333334 50 77.03895833333334 1.0416666666666667 50 1.0416666666666667 1.0416666666666667 22.96104166666667 1.0416666666666667 50ZM50 8.333333333333334c2.30125 0 4.166666666666667 1.8654791666666668 4.166666666666667 4.166666666666667v2.0833333333333335c0 2.3011875 -1.8654166666666667 4.166666666666667 -4.166666666666667 4.166666666666667s-4.166666666666667 -1.8654791666666668 -4.166666666666667 -4.166666666666667V12.5c0 -2.3011875 1.8654166666666667 -4.166666666666667 4.166666666666667 -4.166666666666667Zm0 15.625000000000002c2.30125 0 4.166666666666667 1.8654166666666667 4.166666666666667 4.166666666666667v20.149166666666666l13.362916666666667 13.362916666666667c1.6272916666666668 1.6270833333333334 1.6272916666666668 4.265416666666667 0 5.8925 -1.6270833333333334 1.6272916666666668 -4.265416666666667 1.6272916666666668 -5.8925 0l-14.583333333333334 -14.583333333333334C46.27229166666667 52.16479166666667 45.833333333333336 51.105000000000004 45.833333333333336 50V28.125000000000004c0 -2.30125 1.8654166666666667 -4.166666666666667 4.166666666666667 -4.166666666666667Zm29.463958333333334 -3.421729166666667c1.6272916666666668 1.6271458333333335 1.6272916666666668 4.265479166666666 0 5.8925625l-1.473125 1.473125c-1.6270833333333334 1.6272916666666668 -4.265416666666667 1.6272916666666668 -5.8925 0 -1.6272916666666668 -1.6270833333333334 -1.6272916666666668 -4.265416666666667 0 -5.8925l1.473125 -1.4731875c1.6272916666666668 -1.6271875000000002 4.265416666666667 -1.6271875000000002 5.8925 0ZM91.66666666666667 50c0 2.30125 -1.8654166666666667 4.166666666666667 -4.166666666666667 4.166666666666667h-2.0833333333333335c-2.30125 0 -4.166666666666667 -1.8654166666666667 -4.166666666666667 -4.166666666666667s1.8654166666666667 -4.166666666666667 4.166666666666667 -4.166666666666667h2.0833333333333335c2.30125 0 4.166666666666667 1.8654166666666667 4.166666666666667 4.166666666666667Zm-12.202708333333335 29.463958333333334c-1.6272916666666668 1.6272916666666668 -4.265416666666667 1.6272916666666668 -5.892708333333334 0l-1.473125 -1.473125c-1.6270833333333334 -1.6270833333333334 -1.6270833333333334 -4.265416666666667 0 -5.8925 1.6272916666666668 -1.6272916666666668 4.265416666666667 -1.6272916666666668 5.892708333333334 0l1.473125 1.473125c1.6270833333333334 1.6272916666666668 1.6270833333333334 4.265416666666667 0 5.8925ZM50 91.66666666666667c2.30125 0 4.166666666666667 -1.8654166666666667 4.166666666666667 -4.166666666666667v-2.0833333333333335c0 -2.30125 -1.8654166666666667 -4.166666666666667 -4.166666666666667 -4.166666666666667s-4.166666666666667 1.8654166666666667 -4.166666666666667 4.166666666666667v2.0833333333333335c0 2.30125 1.8654166666666667 4.166666666666667 4.166666666666667 4.166666666666667ZM20.536104166666668 79.46395833333334c1.627229166666667 1.6272916666666668 4.265354166666667 1.6272916666666668 5.892645833333334 0l1.473125 -1.473125c1.6270833333333334 -1.6270833333333334 1.6270833333333334 -4.265416666666667 0 -5.8925 -1.6272916666666668 -1.6272916666666668 -4.265416666666667 -1.6272916666666668 -5.892708333333334 0l-1.4730625000000002 1.473125c-1.6271875000000002 1.6272916666666668 -1.6271875000000002 4.265416666666667 0 5.8925ZM8.333333333333334 50c0 2.30125 1.8654791666666668 4.166666666666667 4.166666666666667 4.166666666666667h2.0833333333333335c2.3011875 0 4.166666666666667 -1.8654166666666667 4.166666666666667 -4.166666666666667s-1.8654791666666668 -4.166666666666667 -4.166666666666667 -4.166666666666667H12.5c-2.3011875 0 -4.166666666666667 1.8654166666666667 -4.166666666666667 4.166666666666667ZM20.535979166666667 20.53660416666667c-1.6271875000000002 1.6271458333333335 -1.6271875000000002 4.265479166666666 0 5.8925625l1.4731875 1.473125c1.6270833333333334 1.6272916666666668 4.265416666666667 1.6272916666666668 5.8925 0 1.6272916666666668 -1.6270833333333334 1.6272916666666668 -4.265416666666667 0 -5.8925l-1.473125 -1.4731875c-1.6272916666666668 -1.6271875000000002 -4.265416666666667 -1.6271875000000002 -5.8925625 0Z" clip-rule="evenodd" stroke-width="2.0833"></path>
  </g>
</svg>