<svg xmlns="http://www.w3.org/2000/svg" fill="none" viewBox="0 0 100 100" id="Clipboard-Delete--Streamline-Plump" height="100" width="100">
  <desc>
    Clipboard Delete Streamline Icon: https://streamlinehq.com
  </desc>
  <g id="clipboard-delete--edit-task-edition-delete-clipboard-form-cross">
    <path id="Union" fill="#000000" fill-rule="evenodd" d="M36.63395833333333 1.4115875C39.76083333333334 1.2193875 44.215833333333336 1.0416666666666667 49.99937500000001 1.0416666666666667c5.78375 0 10.239375 0.17774375000000003 13.366666666666669 0.36995833333333333 3.696041666666667 0.22717083333333335 6.469375000000001 3.3298958333333335 6.261666666666667 7.032333333333334 -0.10333333333333333 1.8385000000000002 -0.24250000000000002 3.5390208333333337 -0.38000000000000006 4.973395833333334 -0.2985416666666667 3.1162500000000004 -2.6702083333333335 5.589291666666667 -5.830625 5.868812500000001 -2.9022916666666667 0.2567083333333333 -7.2943750000000005 0.5055000000000001 -13.417708333333335 0.5055000000000001 -6.122916666666667 0 -10.514791666666667 -0.24875000000000003 -13.416666666666668 -0.5054583333333333 -3.160416666666667 -0.2795416666666667 -5.531666666666666 -2.7525 -5.830416666666667 -5.8686041666666675 -0.1375 -1.4344791666666667 -0.27666666666666667 -3.1351250000000004 -0.38000000000000006 -4.973812500000001C30.164583333333333 4.7414375 32.937916666666666 1.6387645833333333 36.63395833333333 1.4115875ZM25.173750000000002 8.736145833333333c-0.014166666666666668 -0.25320833333333337 -0.020625000000000004 -0.5048750000000001 -0.01916666666666667 -0.7547916666666667 -2.1933333333333334 0.1323541666666667 -4.142916666666666 0.27308333333333334 -5.848291666666666 0.4119166666666667 -5.820645833333334 0.47385416666666674 -10.333479166666667 4.912895833333334 -10.8265625 10.744625000000001C7.901083333333334 25.981250000000003 7.291666666666667 37.013125 7.291666666666667 53.125416666666666c0 16.1125 0.6094166666666667 27.144375 1.1880625000000002 33.98770833333334 0.4930833333333334 5.831666666666667 5.005916666666667 10.270833333333334 10.8265625 10.744583333333335 6.588916666666667 0.5364583333333334 16.820375 1.1010416666666667 30.693708333333333 1.1010416666666667s24.104791666666667 -0.5645833333333334 30.693750000000005 -1.1010416666666667c5.820625 -0.47375 10.333333333333334 -4.912916666666667 10.826458333333333 -10.744583333333335 0.57875 -6.843333333333335 1.188125 -17.875208333333333 1.188125 -33.98770833333334 0 -16.112291666666668 -0.609375 -27.144166666666667 -1.188125 -33.987520833333335 -0.49312500000000004 -5.831729166666667 -5.005833333333333 -10.270770833333334 -10.826458333333333 -10.744625000000001 -1.704791666666667 -0.13877083333333334 -3.653125 -0.2794375 -5.845416666666667 -0.4117291666666667 0.0014583333333333334 0.24991666666666668 -0.004791666666666667 0.5015833333333334 -0.018958333333333334 0.7547708333333334 -0.10770833333333335 1.9190208333333334 -0.25270833333333337 3.6890000000000005 -0.39562500000000006 5.178416666666667 -0.5275 5.504666666666667 -4.788125 10.049854166666668 -10.55625 10.5600625 -3.066875 0.27125000000000005 -7.612916666666667 0.5256250000000001 -13.876666666666667 0.5256250000000001 -6.263541666666667 0 -10.808958333333335 -0.254375 -13.875625000000001 -0.5256250000000001 -5.768125 -0.5102083333333334 -10.028541666666667 -5.055375000000001 -10.556041666666669 -10.559812500000001 -0.14270833333333335 -1.4895000000000003 -0.28770833333333334 -3.2596458333333334 -0.3954166666666667 -5.178833333333333Zm9.138125 63.534062500000005c-1.5343750000000003 -1.8420833333333335 -1.1745833333333333 -4.327291666666667 0.4539583333333334 -6.086875 1.2425000000000002 -1.3422916666666667 3.0206250000000003 -3.220208333333334 5.508333333333334 -5.766666666666667 -2.4877083333333334 -2.5464583333333333 -4.265833333333334 -4.424375 -5.508333333333334 -5.766666666666667 -1.6285416666666668 -1.7595833333333335 -1.9883333333333335 -4.244791666666667 -0.4539583333333334 -6.086875 0.4954166666666667 -0.5947916666666666 1.1002083333333335 -1.2635416666666668 1.835625 -1.9989583333333336s1.4041666666666668 -1.3402083333333334 1.9989583333333336 -1.835625c1.8420833333333335 -1.5343750000000003 4.327291666666667 -1.1745833333333333 6.086875 0.4539583333333334 1.3422916666666667 1.2425000000000002 3.220208333333334 3.0206250000000003 5.766666666666667 5.508333333333334 2.5464583333333333 -2.4877083333333334 4.424375 -4.265833333333334 5.766666666666667 -5.508333333333334 1.7595833333333335 -1.6285416666666668 4.244791666666667 -1.9883333333333335 6.086875 -0.4539583333333334 0.5947916666666666 0.4954166666666667 1.2635416666666668 1.1002083333333335 1.9989583333333336 1.835625s1.3402083333333334 1.4041666666666668 1.835625 1.9989583333333336c1.5343750000000003 1.8420833333333335 1.1745833333333333 4.327291666666667 -0.4539583333333334 6.086875 -1.2425000000000002 1.3422916666666667 -3.0206250000000003 3.220208333333334 -5.508333333333334 5.766666666666667 2.4877083333333334 2.5464583333333333 4.265833333333334 4.424375 5.508333333333334 5.766666666666667 1.6285416666666668 1.7595833333333335 1.9883333333333335 4.244791666666667 0.4539583333333334 6.086875 -0.4954166666666667 0.5947916666666666 -1.1002083333333335 1.2635416666666668 -1.835625 1.9989583333333336s-1.4041666666666668 1.3402083333333334 -1.9989583333333336 1.835625c-1.8420833333333335 1.5343750000000003 -4.327291666666667 1.1745833333333333 -6.086875 -0.4539583333333334 -1.3422916666666667 -1.2425000000000002 -3.220208333333334 -3.0206250000000003 -5.766666666666667 -5.508333333333334 -2.5464583333333333 2.4877083333333334 -4.424375 4.265833333333334 -5.766666666666667 5.508333333333334 -1.7595833333333335 1.6285416666666668 -4.244791666666667 1.9883333333333335 -6.086875 0.4539583333333334 -0.5947916666666666 -0.4954166666666667 -1.2635416666666668 -1.1002083333333335 -1.9989583333333336 -1.835625s-1.3402083333333334 -1.4041666666666668 -1.835625 -1.9989583333333336Z" clip-rule="evenodd" stroke-width="2.0833"></path>
  </g>
</svg>