<svg xmlns="http://www.w3.org/2000/svg" fill="none" viewBox="0 0 100 100" id="Code-Monitor-1--Streamline-Plump" height="100" width="100">
  <desc>
    Code Monitor 1 Streamline Icon: https://streamlinehq.com
  </desc>
  <g id="code-monitor-1--code-tags-angle-bracket-monitor">
    <path id="Union" fill="#000000" fill-rule="evenodd" d="M50 4.649375c-16.566875 0 -28.046458333333337 0.46458333333333335 -35.125625 0.8947916666666668l0.13562500000000002 2.233333333333334 -0.13562500000000002 -2.233333333333334c-6.714583333333334 0.408125 -12.214375 5.354166666666667 -12.884375 12.215625000000001C1.475 23.032083333333336 1 30.719583333333336 1 41.13875c0 10.419375 0.47500000000000003 18.10666666666667 0.9900000000000001 23.379166666666666 0.67 6.861458333333333 6.169791666666667 11.807500000000001 12.884375 12.215625000000001 5.332291666666666 0.32395833333333335 13.161041666666668 0.6672916666666666 23.780416666666667 0.8172916666666666l-0.6935416666666666 5.5477083333333335c-0.13062500000000002 1.0435416666666668 -1.0175 1.8264583333333335 -2.0689583333333332 1.8264583333333335h-5.941666666666666c-2.621875 0 -4.949791666666667 1.6779166666666667 -5.778958333333334 4.165416666666667 -1.0266666666666668 3.079791666666667 1.2658333333333336 6.260208333333334 4.512083333333334 6.260208333333334H71.31458333333335c3.2462500000000003 0 5.53875 -3.180416666666667 4.511875000000001 -6.260208333333334 -0.8289583333333334 -2.4875000000000003 -3.1568750000000003 -4.165416666666667 -5.778958333333334 -4.165416666666667H64.10625c-1.0518750000000001 0 -1.9387500000000002 -0.7829166666666668 -2.069166666666667 -1.8264583333333335l-0.6935416666666666 -5.5477083333333335c10.620208333333334 -0.14979166666666668 18.449583333333337 -0.4933333333333334 23.782083333333336 -0.8172916666666666 6.714583333333334 -0.408125 12.214375 -5.354166666666667 12.884375 -12.215625000000001 0.515 -5.272500000000001 0.9900000000000001 -12.959791666666668 0.9900000000000001 -23.379166666666666 0 -10.419166666666667 -0.47500000000000003 -18.10666666666667 -0.9900000000000001 -23.378958333333333 -0.67 -6.861458333333333 -6.169791666666667 -11.807500000000001 -12.884375 -12.215625000000001 -7.0791666666666675 -0.43020833333333336 -18.558750000000003 -0.8947916666666668 -35.125625 -0.8947916666666668Zm0 64.63833333333334c15.400625 0 26.119583333333335 -0.4158333333333334 32.77645833333334 -0.805 3.8116666666666665 -0.22291666666666668 6.671875000000001 -2.919375 7.0175 -6.532916666666668 0.45166666666666666 -4.720833333333334 0.865625 -11.568541666666668 0.865625 -20.811041666666668 0 -9.242291666666668 -0.4139583333333333 -16.090000000000003 -0.865625 -20.811041666666668 -0.345625 -3.6133333333333333 -3.2058333333333335 -6.309791666666667 -7.0175 -6.532708333333334 -6.656875 -0.38916666666666666 -17.375833333333336 -0.8052083333333334 -32.77645833333334 -0.8052083333333334 -15.400625 0 -26.119583333333335 0.41625000000000006 -32.77645833333334 0.8052083333333334 -3.8118750000000006 0.22291666666666668 -6.671875000000001 2.919166666666667 -7.017708333333334 6.532708333333334 -0.45166666666666666 4.721041666666666 -0.8654166666666667 11.568750000000001 -0.8654166666666667 20.811041666666668 0 9.2425 0.41375 16.090208333333333 0.8654166666666667 20.811041666666668 0.3458333333333334 3.613541666666667 3.2058333333333335 6.3100000000000005 7.017708333333334 6.532916666666668 6.656875 0.38916666666666666 17.375833333333336 0.805 32.77645833333334 0.805Zm-16.452083333333334 -37.19020833333333 0.00020833333333333335 -0.00020833333333333335c1.9156250000000001 -1.2777083333333332 2.433125 -3.86625 1.1558333333333333 -5.7822916666666675 -1.2777083333333332 -1.9164583333333336 -3.866666666666667 -2.434166666666667 -5.783125 -1.1566666666666667l2.3131250000000003 3.469791666666667c-2.3131250000000003 -3.469791666666667 -2.313541666666667 -3.4695833333333335 -2.3139583333333333 -3.4691666666666667l-0.00125 0.0008333333333333334 -0.0033333333333333335 0.0020833333333333337 -0.01 0.006666666666666667 -0.03333333333333334 0.022500000000000003 -0.11833333333333335 0.07958333333333334c-0.10083333333333334 0.06875 -0.24520833333333336 0.16708333333333333 -0.4266666666666667 0.29250000000000004 -0.36291666666666667 0.2504166666666667 -0.8758333333333334 0.6095833333333335 -1.4893750000000001 1.0527083333333334 -1.2212500000000002 0.8820833333333334 -2.867291666666667 2.1158333333333337 -4.5287500000000005 3.5002083333333336 -1.638125 1.3652083333333334 -3.404166666666667 2.969791666666667 -4.797083333333334 4.594791666666667 -0.6960416666666668 0.811875 -1.3818750000000002 1.7243750000000002 -1.911875 2.69625 -0.5047916666666666 0.9254166666666667 -1.046875 2.2258333333333336 -1.046875 3.731666666666667 0 1.5058333333333334 0.5420833333333334 2.8064583333333335 1.046875 3.731875 0.53 0.9718750000000002 1.2158333333333335 1.8841666666666668 1.911875 2.69625 1.3929166666666668 1.6247916666666669 3.1589583333333335 3.2295833333333337 4.797083333333334 4.5945833333333335 1.6614583333333335 1.3845833333333333 3.3075 2.618333333333333 4.5287500000000005 3.5004166666666667 0.6135416666666667 0.44291666666666674 1.1264583333333333 0.8022916666666667 1.4893750000000001 1.0527083333333334 0.18145833333333333 0.12520833333333334 0.32583333333333336 0.22375 0.4266666666666667 0.2922916666666667l0.11833333333333335 0.07958333333333334 0.03333333333333334 0.022708333333333334 0.01 0.006666666666666667 0.0033333333333333335 0.0020833333333333337 0.00125 0.0008333333333333334c0.0004166666666666667 0.0004166666666666667 0.0008333333333333334 0.000625 2.3139583333333333 -3.4693750000000003l-2.3131250000000003 3.47c1.9164583333333336 1.2775 4.505416666666667 0.7597916666666668 5.783125 -1.1566666666666667 1.2772916666666667 -1.91625 0.7597916666666668 -4.505 -1.1560416666666666 -5.782708333333334l-0.000625 -0.0004166666666666667 -0.0027083333333333334 -0.0018750000000000001 -0.020208333333333335 -0.013541666666666667 -0.09125 -0.06145833333333334c-0.08229166666666668 -0.05562500000000001 -0.20645833333333333 -0.14062500000000003 -0.3670833333333334 -0.25145833333333334 -0.32125000000000004 -0.22187500000000002 -0.7858333333333334 -0.5468750000000001 -1.3452083333333336 -0.9508333333333333 -1.124375 -0.8120833333333334 -2.6060416666666666 -1.9241666666666668 -4.0722916666666675 -3.146041666666667 -1.4895833333333335 -1.2412500000000002 -2.8512500000000003 -2.503541666666667 -3.804166666666667 -3.615416666666667 -0.34687500000000004 -0.4047916666666667 -0.5956250000000001 -0.7391666666666667 -0.7650000000000001 -1.0002083333333334 0.169375 -0.26104166666666667 0.418125 -0.5952083333333335 0.7650000000000001 -1.0002083333333334 0.9529166666666666 -1.1116666666666666 2.3145833333333337 -2.3741666666666665 3.804166666666667 -3.615416666666667 1.46625 -1.221875 2.947916666666667 -2.33375 4.0722916666666675 -3.1458333333333335 0.5593750000000001 -0.40395833333333336 1.0239583333333333 -0.7289583333333334 1.3452083333333336 -0.9508333333333333 0.16062500000000002 -0.11104166666666668 0.28479166666666667 -0.19583333333333336 0.3670833333333334 -0.25145833333333334l0.09125 -0.061666666666666675 0.020208333333333335 -0.013541666666666667 0.0027083333333333334 -0.0018750000000000001 0.000625 -0.0004166666666666667Zm-10.712916666666667 8.597500000000002 -0.0008333333333333334 -0.0018750000000000001c-0.00020833333333333335 0 0.0014583333333333334 0.005416666666666667 0.0060416666666666665 0.01666666666666667l-0.005208333333333334 -0.014791666666666668Zm0.005208333333333334 0.8729166666666667c-0.003541666666666667 0.011041666666666667 -0.005833333333333334 0.01666666666666667 -0.0060416666666666665 0.01666666666666667 -0.00020833333333333335 0 0.0014583333333333334 -0.005416666666666667 0.0060416666666666665 -0.01666666666666667Zm43.611666666666665 -9.470625 0.00020833333333333335 0.00020833333333333335 0.000625 0.0004166666666666667 0.0027083333333333334 0.0018750000000000001 0.020208333333333335 0.01375 0.09125 0.06145833333333334c0.08229166666666668 0.05562500000000001 0.20645833333333333 0.1404166666666667 0.3670833333333334 0.25145833333333334 0.32125000000000004 0.22187500000000002 0.7858333333333334 0.5468750000000001 1.3452083333333336 0.9508333333333333 1.124375 0.8120833333333334 2.6060416666666666 1.9241666666666668 4.0722916666666675 3.146041666666667 1.4895833333333335 1.2412500000000002 2.8512500000000003 2.503541666666667 3.804166666666667 3.615208333333334 0.34687500000000004 0.405 0.5956250000000001 0.7391666666666667 0.7650000000000001 1.0002083333333334 -0.169375 0.26125000000000004 -0.418125 0.5954166666666667 -0.7650000000000001 1.0004166666666667 -0.9529166666666666 1.1116666666666666 -2.3145833333333337 2.3739583333333334 -3.804166666666667 3.615208333333334 -1.46625 1.221875 -2.947916666666667 2.333958333333334 -4.0722916666666675 3.146041666666667 -0.5593750000000001 0.40395833333333336 -1.0239583333333333 0.7289583333333334 -1.3452083333333336 0.9508333333333333 -0.16062500000000002 0.11104166666666668 -0.28479166666666667 0.19583333333333336 -0.3670833333333334 0.25145833333333334l-0.09125 0.06145833333333334 -0.020208333333333335 0.013541666666666667 -0.0027083333333333334 0.0018750000000000001 -0.000625 0.0004166666666666667c-1.9158333333333335 1.2779166666666666 -2.4333333333333336 3.866458333333334 -1.1560416666666666 5.782708333333334 1.2777083333333332 1.9164583333333336 3.866666666666667 2.434166666666667 5.783125 1.1566666666666667l-2.3131250000000003 -3.47c2.3131250000000003 3.47 2.313541666666667 3.469791666666667 2.3139583333333333 3.4693750000000003l0.00125 -0.0008333333333333334 0.0033333333333333335 -0.0020833333333333337 0.01 -0.006666666666666667 0.03333333333333334 -0.022500000000000003 0.11833333333333335 -0.07979166666666668c0.10083333333333334 -0.06854166666666667 0.24520833333333336 -0.16687500000000002 0.4266666666666667 -0.2922916666666667 0.36291666666666667 -0.2504166666666667 0.8758333333333334 -0.6095833333333335 1.4893750000000001 -1.0527083333333334 1.2212500000000002 -0.8820833333333334 2.867291666666667 -2.1158333333333337 4.5287500000000005 -3.5004166666666667 1.638125 -1.3650000000000002 3.404166666666667 -2.969791666666667 4.797083333333334 -4.5945833333333335 0.6958333333333334 -0.8120833333333334 1.3818750000000002 -1.7243750000000002 1.911875 -2.69625 0.5047916666666666 -0.9254166666666667 1.046875 -2.2258333333333336 1.046875 -3.731875 0 -1.5058333333333334 -0.5420833333333334 -2.8062500000000004 -1.046875 -3.731666666666667 -0.53 -0.9718750000000002 -1.2160416666666667 -1.8841666666666668 -1.911875 -2.69625 -1.3929166666666668 -1.6247916666666669 -3.1589583333333335 -3.2295833333333337 -4.797083333333334 -4.594791666666667 -1.6614583333333335 -1.3843750000000001 -3.3075 -2.618125 -4.5287500000000005 -3.5002083333333336 -0.6135416666666667 -0.44312500000000005 -1.1264583333333333 -0.8022916666666667 -1.4893750000000001 -1.0527083333333334 -0.18145833333333333 -0.12541666666666668 -0.32583333333333336 -0.22375 -0.4266666666666667 -0.2922916666666667l-0.11833333333333335 -0.07979166666666668 -0.03333333333333334 -0.022500000000000003 -0.01 -0.006666666666666667 -0.0033333333333333335 -0.0020833333333333337 -0.00125 -0.0008333333333333334c-0.0004166666666666667 -0.0004166666666666667 -0.0008333333333333334 -0.000625 -2.3139583333333333 3.4691666666666667l2.3131250000000003 -3.469791666666667c-1.9164583333333336 -1.2775 -4.505416666666667 -0.7597916666666668 -5.783125 1.1566666666666667 -1.2772916666666667 1.9160416666666666 -0.7597916666666668 4.504583333333334 1.1558333333333333 5.7822916666666675Zm10.713958333333334 8.595833333333335c-0.00020833333333333335 0 -0.0025 0.005625000000000001 -0.0060416666666666665 0.01666666666666667 0.004583333333333334 -0.011250000000000001 0.00625 -0.01666666666666667 0.0060416666666666665 -0.01666666666666667Zm-0.0060416666666666665 0.8747916666666667 0.0041666666666666675 0.012291666666666668 0.0018750000000000001 0.004375c0.00020833333333333335 0 -0.0014583333333333334 -0.005416666666666667 -0.0060416666666666665 -0.01666666666666667Zm-18.98 -13.879375c0.6329166666666668 -2.214375 -0.649375 -4.5225 -2.8639583333333336 -5.155208333333333 -2.214375 -0.6327083333333334 -4.522708333333334 0.6495833333333334 -5.155208333333333 2.8641666666666667l-8.340416666666668 29.191458333333337c-0.6329166666666668 2.214375 0.649375 4.522708333333334 2.8639583333333336 5.155208333333333 2.214375 0.6329166666666668 4.522708333333334 -0.649375 5.155208333333333 -2.8639583333333336l8.340416666666668 -29.19166666666667Z" clip-rule="evenodd" stroke-width="2.0833"></path>
  </g>
</svg>