<svg xmlns="http://www.w3.org/2000/svg" fill="none" viewBox="0 0 100 100" id="Code-Bracket--Streamline-Plump" height="100" width="100">
  <desc>
    Code Bracket Streamline Icon: https://streamlinehq.com
  </desc>
  <g id="code-bracket">
    <path id="Union" fill="#000000" fill-rule="evenodd" d="M50.418125 13.614020833333333c0.45875000000000005 -2.425229166666667 2.6260416666666666 -4.343208333333334 5.238125 -4.020354166666667 1.6300000000000001 0.20147916666666668 3.038125 0.5161250000000001 4.169791666666667 0.8348958333333334 2.403541666666667 0.6768958333333334 3.5404166666666668 3.094291666666667 3.1122916666666667 5.357333333333334L49.581875000000004 86.38375c-0.45875000000000005 2.4252083333333334 -2.62625 4.343125000000001 -5.238125 4.020416666666667 -1.6302083333333335 -0.20145833333333332 -3.038125 -0.51625 -4.17 -0.8350000000000001 -2.403541666666667 -0.6768750000000001 -3.5402083333333336 -3.094166666666667 -3.1120833333333335 -5.357291666666667l13.356458333333334 -70.59785416666666ZM28.306458333333335 22.748541666666668c-1.4641666666666668 -0.785625 -3.157083333333334 -0.37375 -4.255000000000001 0.6614583333333334 -7.398895833333334 6.976458333333333 -14.215250000000001 16.319583333333334 -17.890458333333335 21.693958333333335 -2.0347291666666667 2.975416666666667 -2.035416666666667 6.8516666666666675 -0.0007708333333333333 9.827291666666667 3.675020833333334 5.375000000000001 10.492166666666668 14.716666666666669 17.892479166666668 21.67104166666667 1.0979166666666669 1.0316666666666667 2.7875000000000005 1.440625 4.249166666666667 0.6572916666666667 2.1814583333333335 -1.169375 3.738541666666667 -2.776041666666667 4.702500000000001 -3.9885416666666673 1.125625 -1.4160416666666666 0.89375 -3.291666666666667 -0.109375 -4.567291666666667l-14.696166666666668 -18.686875 14.698250000000002 -18.71604166666667c1.0014583333333333 -1.2752083333333333 1.2327083333333335 -3.149166666666667 0.10833333333333334 -4.564375 -0.9629166666666668 -1.211875 -2.518541666666667 -2.8183333333333334 -4.698958333333334 -3.9879166666666666Zm47.643125000000005 0.6614583333333334c-1.0979166666666669 -1.0352083333333335 -2.7908333333333335 -1.4470833333333335 -4.255000000000001 -0.6614583333333334 -2.180416666666667 1.1695833333333334 -3.736041666666667 2.776041666666667 -4.698958333333334 3.9879166666666666 -1.124375 1.4152083333333334 -0.8931250000000002 3.289166666666667 0.10833333333333334 4.564375l14.698333333333334 18.71604166666667 -14.696250000000001 18.686875c-1.003125 1.275625 -1.235 3.15125 -0.109375 4.567291666666667 0.9639583333333334 1.2125 2.5210416666666666 2.819166666666667 4.702500000000001 3.9885416666666673 1.4616666666666667 0.7833333333333334 3.15125 0.374375 4.249166666666667 -0.6572916666666667 7.4004166666666675 -6.954375 14.217500000000001 -16.296041666666667 17.892500000000002 -21.67104166666667 2.0345833333333334 -2.975625 2.0339583333333335 -6.851875000000001 -0.0008333333333333334 -9.827291666666667 -3.6752083333333334 -5.374375000000001 -10.491458333333334 -14.717500000000001 -17.89041666666667 -21.693958333333335Z" clip-rule="evenodd" stroke-width="2.0833"></path>
  </g>
</svg>