<svg xmlns="http://www.w3.org/2000/svg" fill="none" viewBox="0 0 100 100" id="Coffee-Mug--Streamline-Plump" height="100" width="100">
  <desc>
    Coffee Mug Streamline Icon: https://streamlinehq.com
  </desc>
  <g id="coffee-mug--coffee-cook-cup-drink-mug-cooking-nutrition-cafe-caffeine-food">
    <path id="Union" fill="#000000" fill-rule="evenodd" d="M31.4675 1.8535416666666669c-1.856875 -1.4043750000000002 -4.500208333333333 -1.0377083333333335 -5.904583333333334 0.8189583333333335 -1.7893750000000002 2.365416666666667 -2.8970833333333337 5.155416666666667 -2.9585416666666666 8.268125000000001 -0.060625000000000005 3.086041666666667 0.9131250000000001 6.1570833333333335 2.724375 9.11875 1.1629166666666668 1.9018750000000002 1.51 3.4075 1.4875 4.555208333333334 -0.022291666666666668 1.1210416666666667 -0.40145833333333336 2.2218750000000003 -1.2533333333333334 3.3483333333333336 -1.4043750000000002 1.8564583333333335 -1.0377083333333335 4.500000000000001 0.8189583333333335 5.904375 1.8564583333333335 1.4041666666666668 4.500208333333333 1.0377083333333335 5.904375 -0.8189583333333335 1.7891666666666668 -2.365416666666667 2.8970833333333337 -5.155416666666667 2.9583333333333335 -8.268125000000001 0.060625000000000005 -3.086041666666667 -0.9127083333333333 -6.156875 -2.723958333333334 -9.11875 -1.1629166666666668 -1.9016666666666666 -1.51 -3.4075 -1.4875 -4.555208333333334 0.021875000000000002 -1.1210416666666667 0.40125 -2.2218750000000003 1.2531250000000003 -3.348125 1.4043750000000002 -1.8566666666666667 1.0377083333333335 -4.500208333333333 -0.8187500000000001 -5.904583333333334Zm21.075208333333332 0c-1.8566666666666667 -1.4043750000000002 -4.500208333333333 -1.0377083333333335 -5.904375 0.8189583333333335 -1.7895833333333335 2.365416666666667 -2.897291666666667 5.155416666666667 -2.9585416666666666 8.268125000000001 -0.060833333333333336 3.086041666666667 0.9129166666666667 6.1570833333333335 2.724166666666667 9.11875 1.1629166666666668 1.9018750000000002 1.51 3.4075 1.4875 4.555208333333334 -0.022083333333333333 1.1210416666666667 -0.40125 2.2218750000000003 -1.2531250000000003 3.3483333333333336 -1.4045833333333335 1.8564583333333335 -1.0377083333333335 4.500000000000001 0.8187500000000001 5.904375 1.8564583333333335 1.4041666666666668 4.500208333333333 1.0377083333333335 5.904375 -0.8189583333333335 1.7893750000000002 -2.365416666666667 2.897291666666667 -5.155416666666667 2.9583333333333335 -8.268125000000001 0.060625000000000005 -3.086041666666667 -0.9127083333333333 -6.156875 -2.723958333333334 -9.11875 -1.1629166666666668 -1.9016666666666666 -1.51 -3.4075 -1.4875 -4.555208333333334 0.021875000000000002 -1.1210416666666667 0.40125 -2.2218750000000003 1.2531250000000003 -3.348125 1.4045833333333335 -1.8566666666666667 1.0377083333333335 -4.500208333333333 -0.8187500000000001 -5.904583333333334ZM39.46229166666667 99.00000000000001c-6.050208333333334 0 -10.984583333333333 -0.19145833333333334 -14.982083333333334 -0.4779166666666667 -10.370208333333332 -0.743125 -17.186041666666668 -8.561458333333333 -17.519583333333333 -18.855208333333334 -0.10125 -3.127916666666667 -0.16500000000000004 -6.83875 -0.16500000000000004 -11.226041666666667 0 -10.521041666666667 0.3662500000000001 -17.863750000000003 0.7391666666666667 -22.615000000000002 0.365 -4.6468750000000005 4.267083333333334 -7.944166666666668 8.841666666666667 -7.944166666666668h46.17187500000001l0.05520833333333334 0.00020833333333333335 0.04166666666666667 -0.00020833333333333335h13.977291666666668c8.018541666666668 0 15.798541666666669 5.589583333333334 16.401041666666668 14.588541666666668 0.11104166666666668 1.6595833333333334 0.18083333333333335 3.4795833333333333 0.18083333333333335 5.433125 0 1.9533333333333334 -0.06979166666666668 3.7733333333333334 -0.18083333333333335 5.432916666666667 -0.6025 8.998958333333333 -8.3825 14.588541666666668 -16.401041666666668 14.588541666666668h-4.607708333333334c-0.015625 0.5997916666666667 -0.03270833333333333 1.1804166666666667 -0.05083333333333334 1.7422916666666668 -0.33333333333333337 10.293541666666668 -7.149375000000001 18.111875 -17.519375 18.855 -3.9975000000000005 0.2866666666666667 -8.931875000000002 0.4779166666666667 -14.982291666666667 0.4779166666666667Zm32.665416666666665 -31.61291666666667c-0.019375 -8.242291666666668 -0.265 -14.464791666666668 -0.5535416666666667 -18.967708333333334h5.048333333333334c3.5002083333333336 0 5.719791666666667 2.2602083333333334 5.886666666666668 4.754583333333334 0.09666666666666666 1.4414583333333333 0.1575 3.0264583333333337 0.1575 4.729166666666667 0 1.7029166666666669 -0.060833333333333336 3.287916666666667 -0.1575 4.729375 -0.16687500000000002 2.494166666666667 -2.3864583333333336 4.754583333333334 -5.886666666666668 4.754583333333334h-4.494791666666667Z" clip-rule="evenodd" stroke-width="2.0833"></path>
  </g>
</svg>