<svg xmlns="http://www.w3.org/2000/svg" fill="none" viewBox="0 0 100 100" id="Coffee-Takeaway-Cup--Streamline-Plump" height="100" width="100">
  <desc>
    Coffee Takeaway Cup Streamline Icon: https://streamlinehq.com
  </desc>
  <g id="coffee-takeaway-cup--cup-coffee-hot-takeaway-drink-caffeine">
    <path id="Union" fill="#000000" fill-rule="evenodd" d="M21.48041666666667 6.614166666666667C22.675416666666667 3.058125 26.080208333333335 1 29.695833333333333 1h40.611250000000005c3.6156250000000005 0 7.020416666666668 2.058125 8.215416666666668 5.614166666666667 0.4841666666666667 1.4400000000000002 0.9889583333333334 3.141666666666667 1.4302083333333335 5.037916666666668h0.7137500000000001c3.788541666666667 0 7.2908333333333335 2.265625 8.341041666666667 6.04375 0.5991666666666667 2.157083333333334 1.2491666666666668 4.921458333333334 1.7843750000000003 8.222916666666668 0.6145833333333334 3.791458333333334 -2.408125 7.037708333333334 -6.152916666666667 7.037708333333334H15.361041666666669c-3.744791666666667 0 -6.767500000000001 -3.2462500000000003 -6.152916666666667 -7.037708333333334 0.5352083333333334 -3.3014583333333336 1.1852083333333334 -6.066041666666668 1.7845833333333334 -8.222916666666668 1.05 -3.778125 4.5525 -6.04375 8.341041666666667 -6.04375h0.7164583333333333c0.44125000000000003 -1.8962500000000002 0.94625 -3.5979166666666673 1.4302083333333335 -5.037916666666668Zm-6.197916666666667 31.668333333333333 0.07854166666666666 0.00020833333333333335h69.27812500000002l0.08125 -0.00020833333333333335c-1.807291666666667 24.088125 -4.989791666666666 44.08083333333334 -6.491250000000001 52.691250000000004 -0.7175 4.1156250000000005 -4.0808333333333335 7.260000000000001 -8.341041666666667 7.5254166666666675 -3.865416666666667 0.24062500000000003 -10.267083333333336 0.5008333333333334 -19.88666666666667 0.5008333333333334s-16.021250000000002 -0.2602083333333333 -19.886458333333337 -0.5008333333333334c-4.260625000000001 -0.2654166666666667 -7.623750000000001 -3.409791666666667 -8.341458333333334 -7.5254166666666675 -1.5014583333333336 -8.610416666666667 -4.683958333333334 -28.603125000000002 -6.491041666666667 -52.691250000000004Zm59.19375 18.29666666666667c-5.854791666666666 -0.10437500000000001 -13.850208333333335 -0.18770833333333334 -24.471458333333334 -0.18770833333333334 -10.624166666666667 0 -18.62104166666667 0.08333333333333334 -24.47625 0.18791666666666668 0.7722916666666667 7.024791666666667 1.6027083333333334 13.372916666666667 2.3779166666666667 18.7725 5.2666666666666675 0.11625000000000002 12.530416666666667 0.21333333333333335 22.098333333333336 0.21333333333333335 9.565 0 16.827291666666667 -0.09708333333333334 22.09354166666667 -0.21333333333333335 0.7752083333333334 -5.399583333333334 1.6056250000000003 -11.747708333333334 2.3779166666666667 -18.772708333333334Z" clip-rule="evenodd" stroke-width="2.0833"></path>
  </g>
</svg>