<svg xmlns="http://www.w3.org/2000/svg" fill="none" viewBox="0 0 100 100" id="Coffee-Bean--Streamline-Plump" height="100" width="100">
  <desc>
    Coffee Bean Streamline Icon: https://streamlinehq.com
  </desc>
  <g id="coffee-bean--cook-cooking-nutrition-coffee-bean">
    <path id="Subtract" fill="#000000" fill-rule="evenodd" d="M52.94250000000001 1.9447479166666668C63.95416666666667 -0.3797770833333334 75.29520833333333 1.5864020833333334 84.66666666666667 10.147083333333333c0.19979166666666667 0.18266666666666667 0.4 0.3674583333333334 0.6006250000000001 0.5543958333333334 -8.272708333333334 1.7005000000000001 -15.698958333333334 5.099875 -21.907291666666666 10.434354166666667 -7.646458333333334 6.570208333333334 -13.240833333333335 15.899791666666667 -16.385 28.085416666666667 -2.8829166666666666 11.173541666666667 -7.891041666666667 19.308125 -14.406250000000002 24.906250000000004 -6.239583333333334 5.36125 -14.048791666666668 8.557083333333335 -23.14372916666667 9.726041666666667C1.4768916666666667 74.64333333333335 -0.31294791666666666 63.6375 1.9447479166666668 52.94250000000001 4.247937500000001 42.03208333333333 10.745083333333334 31.41166666666667 19.181458333333335 22.907083333333336c0.6053958333333334 -0.6104166666666667 1.2249791666666667 -1.2325000000000002 1.8589583333333335 -1.866666666666667 0.6341666666666668 -0.6339791666666668 1.25625 -1.2535833333333335 1.866666666666667 -1.8590000000000002 8.504791666666668 -8.436354166666668 19.125 -14.933479166666668 30.03541666666667 -17.23666875ZM14.736583333333334 89.30187500000001c0.19860416666666666 0.18520833333333336 0.39695833333333336 0.3683333333333334 0.5950833333333334 0.5493750000000001 9.371458333333335 8.560625 20.712500000000002 10.526875 31.72416666666667 8.202291666666667 10.910416666666668 -2.303125 21.530833333333334 -8.800208333333334 30.035625 -17.236666666666668 0.6102083333333334 -0.6054166666666667 1.2322916666666668 -1.225 1.8662500000000002 -1.8589583333333335 0.6341666666666668 -0.6341666666666668 1.2537500000000001 -1.25625 1.8591666666666666 -1.866666666666667 8.436458333333334 -8.504791666666668 14.933541666666667 -19.125 17.236666666666668 -30.03541666666667 2.2572916666666667 -10.692916666666667 0.4685416666666667 -21.696458333333336 -7.475625 -30.90560416666667 -9.095416666666667 1.1688333333333334 -16.905 4.364708333333334 -23.14479166666667 9.726020833333335 -6.515208333333334 5.5981250000000005 -11.523333333333335 13.732916666666668 -14.406250000000002 24.906458333333333 -3.144166666666667 12.185625 -8.738541666666666 21.515208333333334 -16.385 28.085208333333334 -6.207916666666667 5.334166666666667 -13.633333333333333 8.733541666666667 -21.90529166666667 10.433958333333335Z" clip-rule="evenodd" stroke-width="2.0833"></path>
  </g>
</svg>