<svg xmlns="http://www.w3.org/2000/svg" fill="none" viewBox="0 0 100 100" id="Cog-1--Streamline-Plump" height="100" width="100">
  <desc>
    Cog 1 Streamline Icon: https://streamlinehq.com
  </desc>
  <g id="cog-1--work-loading-cog-gear-settings-machine">
    <path id="Subtract" fill="#000000" fill-rule="evenodd" d="M39.56604166666667 2.9976875C40.97833333333333 2.239708333333333 44.141041666666666 1.0416666666666667 49.998125 1.0416666666666667c5.857083333333334 0 9.019583333333333 1.198041666666667 10.431875 1.9560208333333335 0.743125 0.3987916666666667 1.2212500000000002 1.0424791666666668 1.5233333333333334 1.6717291666666667 0.420625 0.8764791666666667 1.1497916666666665 2.4328958333333337 1.940416666666667 4.288583333333334 1.1733333333333336 2.7540416666666667 3.371666666666667 5.007250000000001 6.0322916666666675 6.547770833333334 2.660833333333333 1.5406041666666668 5.685625 2.3016666666666667 8.664791666666666 1.9397291666666667 2.0045833333333336 -0.24352083333333333 3.7191666666666667 -0.3904166666666667 4.689375000000001 -0.464375 0.6958333333333334 -0.05304166666666667 1.4925000000000002 0.03916666666666667 2.209166666666667 0.48327083333333337 1.3627083333333334 0.8440833333333334 3.9814583333333338 2.9838958333333334 6.910000000000001 8.056229166666666 2.928541666666667 5.072500000000001 3.472291666666667 8.410416666666666 3.5220833333333337 10.012500000000001 0.02604166666666667 0.8429166666666668 -0.2922916666666667 1.57875 -0.6862500000000001 2.1550000000000002 -0.5497916666666668 0.8043750000000001 -1.5364583333333335 2.21875 -2.752083333333333 3.8358333333333334 -1.7995833333333335 2.394166666666667 -2.6558333333333333 5.405625000000001 -2.6558333333333333 8.476041666666667 0 3.0702083333333334 0.8562500000000001 6.081250000000001 2.6558333333333333 8.475416666666668 1.2160416666666667 1.6177083333333333 2.2029166666666664 3.0325 2.7529166666666667 3.8370833333333336 0.39395833333333335 0.57625 0.7125000000000001 1.3120833333333335 0.6862500000000001 2.1550000000000002 -0.04979166666666667 1.6020833333333335 -0.5935416666666666 4.94 -3.5220833333333337 10.012291666666668 -2.928541666666667 5.072500000000001 -5.547291666666667 7.212291666666667 -6.909791666666667 8.056458333333333 -0.716875 0.4439583333333334 -1.5135416666666668 0.5362500000000001 -2.209375 0.483125 -0.9706250000000001 -0.07395833333333333 -2.6860416666666667 -0.22083333333333335 -4.691458333333333 -0.46458333333333335 -2.9787500000000002 -0.361875 -6.003333333333334 0.39895833333333336 -8.663958333333333 1.939375 -2.660416666666667 1.5404166666666668 -4.858333333333333 3.7933333333333334 -6.031666666666667 6.547083333333333 -0.790625 1.8560416666666668 -1.5200000000000002 3.4127083333333332 -1.940625 4.289375000000001 -0.3020833333333333 0.6291666666666667 -0.7802083333333334 1.2729166666666667 -1.5233333333333334 1.6716666666666669 -1.4122916666666667 0.7579166666666668 -4.574791666666667 1.9560416666666667 -10.431875 1.9560416666666667s-9.019791666666668 -1.1981249999999999 -10.432083333333333 -1.9560416666666667c-0.7429166666666667 -0.39875 -1.2210416666666666 -1.0425 -1.523125 -1.6716666666666669 -0.4204166666666667 -0.8758333333333334 -1.1487500000000002 -2.4306250000000005 -1.9387500000000002 -4.284375000000001 -1.1739583333333334 -2.755625 -3.3737500000000002 -5.0097916666666675 -6.036041666666667 -6.550833333333334 -2.6614583333333335 -1.5408333333333335 -5.686875 -2.3022916666666666 -8.666666666666668 -1.940416666666667 -2.001104166666667 0.24291666666666667 -3.712520833333334 0.38958333333333334 -4.6815 0.4633333333333333 -0.6959583333333335 0.053125 -1.4924791666666668 -0.03916666666666667 -2.209333333333334 -0.483125 -1.3626041666666668 -0.8441666666666667 -3.981395833333334 -2.9839583333333333 -6.909958333333334 -8.056458333333333 -2.9285625000000004 -5.072291666666667 -3.472291666666667 -8.410208333333335 -3.5220208333333334 -10.012291666666668 -0.026145833333333337 -0.8429166666666668 0.2922291666666667 -1.57875 0.6861666666666667 -2.1550000000000002 0.54825 -0.8018750000000001 1.5303541666666667 -2.21 2.7407500000000002 -3.8208333333333337 1.8022708333333335 -2.398541666666667 2.6591250000000004 -5.415208333333333 2.6591250000000004 -8.490625 0 -3.075833333333333 -0.8568333333333333 -6.092291666666667 -2.6591250000000004 -8.491041666666668 -1.2101458333333335 -1.6104166666666668 -2.1920625 -3.0183333333333335 -2.740229166666667 -3.82 -0.3939166666666667 -0.57625 -0.7123125 -1.3120833333333335 -0.6861458333333333 -2.1550000000000002 0.049708333333333334 -1.6020833333333335 0.5934375000000001 -4.94 3.5220000000000002 -10.012500000000001 2.9285833333333335 -5.072354166666667 5.547354166666667 -7.2121458333333335 6.909958333333334 -8.05625 0.716875 -0.44408333333333333 1.513375 -0.5363125 2.209333333333334 -0.48325 0.9687708333333334 0.07383333333333333 2.679625 0.22039583333333335 4.6801458333333334 0.4632708333333334 2.98 0.36175 6.005625 -0.39968750000000003 8.667291666666667 -1.940604166666667 2.6625 -1.5413125 4.862291666666667 -3.7956875000000005 6.036458333333334 -6.551354166666667 0.7897916666666667 -1.853604166666667 1.5181250000000002 -3.408104166666667 1.9385416666666668 -4.283854166666667 0.3020833333333333 -0.62925 0.7802083333333334 -1.2729375000000003 1.523125 -1.6717291666666667ZM31.250000000000004 50c0 -10.355416666666668 8.394583333333333 -18.75 18.75 -18.75s18.75 8.394583333333333 18.75 18.75 -8.394583333333333 18.75 -18.75 18.75 -18.75 -8.394583333333333 -18.75 -18.75Z" clip-rule="evenodd" stroke-width="2.0833"></path>
  </g>
</svg>