<svg xmlns="http://www.w3.org/2000/svg" fill="none" viewBox="0 0 100 100" id="Command-Square--Streamline-Plump" height="100" width="100">
  <desc>
    Command Square Streamline Icon: https://streamlinehq.com
  </desc>
  <g id="command-square--mac-command-apple-keyboard">
    <path id="Subtract" fill="#000000" fill-rule="evenodd" d="M16.957520833333334 4.2581041666666675C23.773333333333333 3.704333333333334 34.588541666666664 3.125 50.00812500000001 3.125c15.419583333333334 0 26.23479166666667 0.5793333333333334 33.050625000000004 1.1331041666666668 6.849791666666667 0.5565416666666667 12.134791666666667 5.841583333333333 12.691250000000002 12.691270833333334 0.55375 6.815833333333334 1.1331250000000002 17.63104166666667 1.1331250000000002 33.050625000000004 0 15.419583333333334 -0.5793750000000001 26.23479166666667 -1.1331250000000002 33.050625000000004 -0.5564583333333334 6.849791666666667 -5.841458333333334 12.134791666666667 -12.691250000000002 12.691250000000002 -6.815833333333334 0.55375 -17.63104166666667 1.1331250000000002 -33.050625000000004 1.1331250000000002 -15.419583333333334 0 -26.23479166666667 -0.5793750000000001 -33.05060416666667 -1.1331250000000002 -6.849708333333333 -0.5564583333333334 -12.13475 -5.841458333333334 -12.691270833333334 -12.691250000000002 -0.5537916666666667 -6.815833333333334 -1.1331041666666668 -17.63104166666667 -1.1331041666666668 -33.050625000000004 0 -15.419583333333334 0.5793125 -26.23479166666667 1.1331041666666668 -33.050625000000004 0.5565208333333334 -6.849687500000001 5.841583333333333 -12.13475 12.691270833333334 -12.691270833333334l0.25243750000000004 3.1068750000000005 -0.25243750000000004 -3.1068750000000005ZM29.832083333333337 16.666666666666668c-7.2666666666666675 0 -13.157270833333333 5.890625000000001 -13.157270833333333 13.157291666666667 0 6.456250000000001 4.766020833333334 12.108958333333334 11.511020833333335 12.577500000000002 1.8258333333333334 0.12687500000000002 3.981041666666667 0.25083333333333335 6.4818750000000005 0.35625000000000007 0.03979166666666667 2.224166666666667 0.06270833333333334 4.636041666666666 0.06270833333333334 7.2422916666666675 0 2.60625 -0.02291666666666667 5.018125 -0.06270833333333334 7.2422916666666675 -2.5008333333333335 0.10541666666666667 -4.656041666666667 0.22937500000000002 -6.4818750000000005 0.35625000000000007 -6.745 0.4685416666666667 -11.511020833333335 6.121250000000001 -11.511020833333335 12.577500000000002 0 7.2666666666666675 5.890604166666667 13.157291666666667 13.157270833333333 13.157291666666667 6.456250000000001 0 12.108958333333334 -4.766041666666667 12.577500000000002 -11.511041666666667 0.12687500000000002 -1.8258333333333334 0.25083333333333335 -3.981041666666667 0.35625000000000007 -6.4818750000000005 2.224166666666667 -0.03979166666666667 4.636041666666666 -0.06270833333333334 7.2422916666666675 -0.06270833333333334 2.60625 0 5.018125 0.02291666666666667 7.2422916666666675 0.06270833333333334 0.10541666666666667 2.5008333333333335 0.22937500000000002 4.656041666666667 0.35625000000000007 6.4818750000000005C58.075208333333336 78.56729166666668 63.72791666666667 83.33333333333334 70.18416666666667 83.33333333333334c7.2666666666666675 0 13.157291666666667 -5.890625000000001 13.157291666666667 -13.157291666666667 0 -6.456250000000001 -4.765833333333333 -12.108958333333334 -11.511041666666667 -12.577500000000002 -1.8258333333333334 -0.12687500000000002 -3.980833333333334 -0.25083333333333335 -6.4818750000000005 -0.35625000000000007 -0.03979166666666667 -2.224166666666667 -0.06270833333333334 -4.636041666666666 -0.06270833333333334 -7.2422916666666675 0 -2.60625 0.02291666666666667 -5.018125 0.06270833333333334 -7.2422916666666675 2.5010416666666666 -0.10541666666666667 4.656041666666667 -0.22937500000000002 6.4818750000000005 -0.35625000000000007 6.745208333333333 -0.4685416666666667 11.511041666666667 -6.121250000000001 11.511041666666667 -12.577500000000002 0 -7.2666666666666675 -5.890625000000001 -13.157291666666667 -13.157291666666667 -13.157291666666667 -6.456250000000001 0 -12.108958333333334 4.765833333333333 -12.577500000000002 11.511041666666667 -0.12687500000000002 1.8258333333333334 -0.25083333333333335 3.981041666666667 -0.35625000000000007 6.4818750000000005 -2.224166666666667 0.03979166666666667 -4.636041666666666 0.06270833333333334 -7.2422916666666675 0.06270833333333334 -2.60625 0 -5.018125 -0.02291666666666667 -7.2422916666666675 -0.06270833333333334 -0.10541666666666667 -2.5008333333333335 -0.22937500000000002 -4.656041666666667 -0.35625000000000007 -6.4818750000000005C41.94104166666666 21.4325 36.288333333333334 16.666666666666668 29.832083333333337 16.666666666666668Zm4.264166666666667 12.088333333333333c0.11125000000000002 1.6016666666666668 0.22125000000000003 3.480833333333334 0.31750000000000006 5.650625000000001 -2.1695833333333336 -0.09625 -4.048958333333333 -0.20625000000000002 -5.650625000000001 -0.31750000000000006 -2.0762500000000004 -0.14416666666666667 -3.7550000000000003 -1.8779166666666667 -3.7550000000000003 -4.264166666666667 0 -2.6641666666666666 2.1597916666666666 -4.823958333333334 4.823958333333334 -4.823958333333334 2.38625 0 4.12 1.67875 4.264166666666667 3.7550000000000003ZM43.063750000000006 50c0 -2.5039583333333333 -0.020833333333333336 -4.836041666666667 -0.05729166666666667 -7.001666666666667 2.1656250000000004 0.03645833333333334 4.497708333333334 0.05729166666666667 7.001666666666667 0.05729166666666667 2.5039583333333333 0 4.836041666666667 -0.020833333333333336 7.001666666666667 -0.05729166666666667 -0.03645833333333334 2.1656250000000004 -0.05729166666666667 4.497708333333334 -0.05729166666666667 7.001666666666667 0 2.5039583333333333 0.020833333333333336 4.836041666666667 0.05729166666666667 7.001666666666667 -2.1656250000000004 -0.03645833333333334 -4.497708333333334 -0.05729166666666667 -7.001666666666667 -0.05729166666666667 -2.5039583333333333 0 -4.836041666666667 0.020833333333333336 -7.001666666666667 0.05729166666666667 0.03645833333333334 -2.1656250000000004 0.05729166666666667 -4.497708333333334 0.05729166666666667 -7.001666666666667Zm-14.300625000000002 15.911875c1.6016666666666668 -0.11125000000000002 3.481041666666667 -0.22125000000000003 5.650625000000001 -0.31750000000000006 -0.09625 2.1697916666666672 -0.20625000000000002 4.048958333333333 -0.31750000000000006 5.650625000000001C33.952083333333334 73.32125 32.218333333333334 75 29.832083333333337 75c-2.6641666666666666 0 -4.823958333333334 -2.1597916666666666 -4.823958333333334 -4.823958333333334 0 -2.38625 1.67875 -4.12 3.7550000000000003 -4.264166666666667Zm37.156875 5.333125c-0.11125000000000002 -1.6016666666666668 -0.22125000000000003 -3.480833333333334 -0.31750000000000006 -5.650625000000001 2.1697916666666672 0.09625 4.048958333333333 0.20625000000000002 5.650625000000001 0.31750000000000006 2.0762500000000004 0.14416666666666667 3.7550000000000003 1.8779166666666667 3.7550000000000003 4.264166666666667 0 2.6641666666666666 -2.1597916666666666 4.823958333333334 -4.823958333333334 4.823958333333334 -2.38625 0 -4.12 -1.67875 -4.264166666666667 -3.7550000000000003Zm5.333125 -37.156875c-1.6016666666666668 0.11125000000000002 -3.480833333333334 0.22125000000000003 -5.650625000000001 0.31750000000000006 0.09625 -2.1697916666666672 0.20625000000000002 -4.048958333333333 0.31750000000000006 -5.650625000000001 0.14416666666666667 -2.0762500000000004 1.8779166666666667 -3.7550000000000003 4.264166666666667 -3.7550000000000003 2.6641666666666666 0 4.823958333333334 2.1597916666666666 4.823958333333334 4.823958333333334 0 2.38625 -1.67875 4.12 -3.7550000000000003 4.264166666666667Z" clip-rule="evenodd" stroke-width="2.0833"></path>
  </g>
</svg>