<svg xmlns="http://www.w3.org/2000/svg" fill="none" viewBox="0 0 100 100" id="Contact-Book--Streamline-Plump" height="100" width="100">
  <desc>
    Contact Book Streamline Icon: https://streamlinehq.com
  </desc>
  <g id="contact-book--contact-notebook-note">
    <path id="Union" fill="#000000" fill-rule="evenodd" d="M48.958333333333336 1.0416666666666667c-11.875625000000001 -0.00000416666666666667 -20.492708333333333 0.51705 -26.246250000000003 1.0553541666666666 -6.868187500000001 0.6425833333333334 -11.9150625 6.093083333333333 -12.363083333333334 12.856375 -0.05660416666666667 0.8544166666666667 -0.11370833333333333 1.7724166666666668 -0.17039583333333336 2.7551875 -1.5749375 0.003375 -2.955229166666667 0.03979166666666667 -4.089708333333333 0.08622916666666668 -2.5416250000000002 0.10406250000000002 -4.780572916666666 1.7755 -4.965633333333334 4.531229166666668C1.0732104166666667 23.071458333333332 1.0416666666666667 23.955416666666668 1.0416666666666667 25c0 1.0445833333333334 0.03154375 1.9285416666666668 0.08159583333333334 2.6739583333333337 0.1850604166666667 2.7558333333333334 2.4240083333333335 4.427083333333334 4.9656125 4.53125 0.9908750000000001 0.040625 2.16925 0.07354166666666667 3.5010625 0.08333333333333334 -0.08143750000000001 3.1652083333333336 -0.144625 6.63625 -0.18083333333333335 10.424375000000001 -1.2578125 0.011458333333333334 -2.3744375 0.043125000000000004 -3.3202083333333334 0.081875 -2.5416250000000002 0.10416666666666669 -4.780572916666666 1.7754166666666666 -4.965633333333334 4.53125C1.0732104166666667 48.07145833333334 1.0416666666666667 48.95541666666667 1.0416666666666667 50c0 1.0445833333333334 0.03154375 1.9285416666666668 0.08159583333333334 2.6739583333333337 0.1850604166666667 2.7558333333333334 2.4240083333333335 4.427083333333334 4.9656125 4.53125 0.9457916666666667 0.03875 2.0624166666666666 0.07041666666666667 3.320229166666667 0.081875 0.036187500000000004 3.7881250000000004 0.09939583333333335 7.259166666666667 0.18083333333333335 10.424375000000001 -1.3318125 0.009791666666666667 -2.5101875000000002 0.04270833333333334 -3.501041666666667 0.08333333333333334 -2.5416250000000002 0.10416666666666669 -4.780572916666666 1.7754166666666666 -4.965633333333334 4.53125C1.0732104166666667 73.07145833333334 1.0416666666666667 73.95541666666668 1.0416666666666667 75c0 1.0445833333333334 0.03154375 1.9285416666666668 0.08159583333333334 2.6739583333333337 0.1850604166666667 2.7558333333333334 2.4240083333333335 4.427083333333334 4.9656125 4.53125 1.1345 0.04645833333333334 2.5147708333333334 0.08291666666666668 4.089708333333333 0.08625000000000001 0.05668750000000001 0.9827083333333334 0.11379166666666668 1.9006250000000002 0.17039583333333336 2.7550000000000003 0.44802083333333337 6.763333333333334 5.4948958333333335 12.213958333333334 12.363104166666668 12.856458333333334 5.753541666666667 0.5383333333333334 14.370625 1.055416666666667 26.246250000000003 1.055416666666667s20.492708333333333 -0.5170833333333333 26.246250000000003 -1.055416666666667c6.868125 -0.6425000000000001 11.915000000000001 -6.093125000000001 12.363125000000002 -12.856250000000001C88.03708333333334 77.961875 88.54166666666667 66.50625 88.54166666666667 50c0 -16.50625 -0.5045833333333334 -27.961875000000003 -0.9739583333333335 -35.0465625 -0.4479166666666667 -6.7633125000000005 -5.494791666666668 -12.213812500000001 -12.362916666666667 -12.856395833333336C69.45125 1.5587333333333333 60.833958333333335 1.0416708333333333 48.958333333333336 1.0416666666666667ZM35.41666666666667 16.666666666666668c-2.30125 0 -4.166666666666667 1.8654791666666668 -4.166666666666667 4.166666666666667 0 2.30125 1.8654166666666667 4.166666666666667 4.166666666666667 4.166666666666667h29.166666666666668c2.30125 0 4.166666666666667 -1.8654166666666667 4.166666666666667 -4.166666666666667 0 -2.3011875 -1.8654166666666667 -4.166666666666667 -4.166666666666667 -4.166666666666667H35.41666666666667Zm2.0833333333333335 20.833333333333336c0 -2.30125 1.8654166666666667 -4.166666666666667 4.166666666666667 -4.166666666666667h16.666666666666668c2.30125 0 4.166666666666667 1.8654166666666667 4.166666666666667 4.166666666666667s-1.8654166666666667 4.166666666666667 -4.166666666666667 4.166666666666667h-16.666666666666668c-2.30125 0 -4.166666666666667 -1.8654166666666667 -4.166666666666667 -4.166666666666667Zm55.044375 -3.1327083333333334c-0.175625 -7.9629166666666675 -0.46812500000000007 -14.159833333333333 -0.7577083333333334 -18.74204166666667 0.9927083333333334 0.0023125000000000003 1.8375000000000001 0.03333333333333334 2.5541666666666667 0.08145833333333334 2.755625 0.18506250000000002 4.427083333333334 2.4240208333333335 4.53125 4.965625000000001 0.04875 1.1912083333333334 0.08645833333333335 2.6537083333333333 0.08645833333333335 4.327875 0 1.6739583333333334 -0.03770833333333334 3.1364583333333336 -0.08645833333333335 4.327708333333334 -0.10416666666666669 2.541666666666667 -1.775625 4.780625000000001 -4.53125 4.965625000000001 -0.5270833333333333 0.03541666666666667 -1.1231250000000002 0.06145833333333334 -1.7964583333333333 0.07375000000000001Zm0.13 22.914166666666667c0.021875000000000002 -2.3102083333333336 0.03375 -4.736458333333333 0.03375 -7.281250000000001 0 -4.124583333333334 -0.03125 -7.937500000000001 -0.08583333333333334 -11.449166666666667 0.6412500000000001 0.012916666666666667 1.2116666666666667 0.03833333333333334 1.7181250000000001 0.07229166666666667 2.755625 0.18500000000000003 4.427083333333334 2.4239583333333337 4.53125 4.965625000000001 0.04875 1.1912500000000001 0.08645833333333335 2.6537500000000005 0.08645833333333335 4.327916666666667 0 1.6739583333333334 -0.03770833333333334 3.1364583333333336 -0.08645833333333335 4.327708333333334 -0.10416666666666669 2.541666666666667 -1.775625 4.780625000000001 -4.53125 4.965625000000001 -0.49270833333333336 0.033125 -1.0460416666666668 0.05812500000000001 -1.6660416666666666 0.07125000000000001Z" clip-rule="evenodd" stroke-width="2.0833"></path>
  </g>
</svg>