<svg xmlns="http://www.w3.org/2000/svg" fill="none" viewBox="0 0 100 100" id="Copy-2--Streamline-Plump" height="100" width="100">
  <desc>
    Copy 2 Streamline Icon: https://streamlinehq.com
  </desc>
  <g id="copy-2">
    <path id="Union" fill="#000000" fill-rule="evenodd" d="M1.0416666666666667 39.583333333333336c0.00000625 -11.272291666666668 0.38199375 -19.512958333333334 0.7868604166666667 -25.081708333333335C2.3283125000000005 7.627395833333334 7.6274375 2.3282708333333333 14.501666666666667 1.8285020833333336 20.07041666666667 1.4236416666666667 28.311041666666668 1.0416604166666668 39.583333333333336 1.0416666666666667c11.272291666666668 0.00000625 19.512916666666666 0.38199375 25.081666666666667 0.7868604166666667 6.874375000000001 0.4997854166666667 12.173333333333336 5.798889583333334 12.673125 12.673139583333334 0.03375 0.4646041666666667 0.0675 0.9478333333333333 0.100625 1.4498541666666669C72.75375 15.757770833333334 67.10375 15.625000000000002 60.41666666666667 15.625000000000002c-11.412916666666668 0 -19.805208333333336 0.3867291666666667 -25.53479166666667 0.8032916666666666 -9.968750000000002 0.7247500000000001 -17.7288125 8.484833333333334 -18.453562500000004 18.453375C16.011750000000003 40.611250000000005 15.625000000000002 49.00354166666667 15.625000000000002 60.41666666666667c0 6.687083333333334 0.13275 12.337083333333334 0.3265 17.022083333333335 -0.5020416666666667 -0.033125 -0.9852500000000001 -0.066875 -1.449875 -0.100625 -6.874229166666668 -0.4997916666666667 -12.173354166666668 -5.798958333333334 -12.673120833333334 -12.673125C1.4236416666666667 59.096250000000005 1.0416604166666668 50.855625 1.0416666666666667 39.583333333333336Zm20.833333333333336 20.833333333333336c0 -11.272291666666668 0.3820833333333334 -19.512916666666666 0.786875 -25.081666666666667 0.4997916666666667 -6.874375000000001 5.798958333333334 -12.173333333333336 12.673125 -12.673125C40.90375 22.256875 49.144375000000004 21.875 60.41666666666667 21.875c11.272291666666668 0 19.512916666666666 0.3820833333333334 25.081666666666667 0.786875 6.874375000000001 0.4997916666666667 12.173333333333336 5.798958333333334 12.673125 12.673125 0.405 5.5687500000000005 0.786875 13.809375000000001 0.786875 25.081666666666667 0 11.272291666666668 -0.3820833333333334 19.512916666666666 -0.786875 25.081666666666667 -0.4997916666666667 6.8741666666666665 -5.798958333333334 12.173333333333336 -12.673125 12.673125 -5.5687500000000005 0.4047916666666667 -13.809375000000001 0.786875 -25.081666666666667 0.786875 -11.272291666666668 0 -19.512916666666666 -0.3820833333333334 -25.081666666666667 -0.786875 -6.874375000000001 -0.4997916666666667 -12.173333333333336 -5.798958333333334 -12.673125 -12.673125C22.256875 79.92958333333334 21.875 71.68895833333333 21.875 60.41666666666667Zm35.22541666666667 18.597916666666666c-2.213541666666667 -0.2204166666666667 -3.642916666666667 -2.059375 -3.7391666666666667 -4.281458333333333 -0.07104166666666667 -1.6414583333333335 -0.14270833333333335 -3.938958333333334 -0.18812500000000001 -7.072916666666667 -3.1339583333333336 -0.04541666666666667 -5.4314583333333335 -0.11708333333333334 -7.072916666666667 -0.18812500000000001 -2.2220833333333334 -0.09625 -4.061041666666667 -1.525625 -4.281458333333333 -3.7391666666666667C41.728541666666665 62.82541666666667 41.66666666666667 61.72604166666667 41.66666666666667 60.41666666666667c0 -1.309375 0.061875000000000006 -2.40875 0.15208333333333335 -3.3162500000000006 0.2204166666666667 -2.213541666666667 2.059375 -3.642916666666667 4.281458333333333 -3.7391666666666667 1.6414583333333335 -0.07104166666666667 3.938958333333334 -0.14270833333333335 7.072916666666667 -0.18812500000000001 0.04541666666666667 -3.1339583333333336 0.11708333333333334 -5.4314583333333335 0.18812500000000001 -7.072916666666667 0.09625 -2.2220833333333334 1.525625 -4.061041666666667 3.7391666666666667 -4.281458333333333 0.9075000000000001 -0.09020833333333333 2.0068750000000004 -0.15208333333333335 3.3162500000000006 -0.15208333333333335 1.309375 0 2.40875 0.061875000000000006 3.3162500000000006 0.15208333333333335 2.213541666666667 0.2204166666666667 3.642916666666667 2.059375 3.7391666666666667 4.281458333333333 0.07104166666666667 1.6414583333333335 0.14270833333333335 3.938958333333334 0.18812500000000001 7.072916666666667 3.1339583333333336 0.04541666666666667 5.4314583333333335 0.11708333333333334 7.072916666666667 0.18812500000000001 2.2220833333333334 0.09625 4.061041666666667 1.525625 4.281458333333333 3.7391666666666667 0.09020833333333333 0.9075000000000001 0.15208333333333335 2.0068750000000004 0.15208333333333335 3.3162500000000006 0 1.309375 -0.061875000000000006 2.40875 -0.15208333333333335 3.3162500000000006 -0.2204166666666667 2.213541666666667 -2.059375 3.642916666666667 -4.281458333333333 3.7391666666666667 -1.6414583333333335 0.07104166666666667 -3.938958333333334 0.14270833333333335 -7.072916666666667 0.18812500000000001 -0.04541666666666667 3.1339583333333336 -0.11708333333333334 5.4314583333333335 -0.18812500000000001 7.072916666666667 -0.09625 2.2220833333333334 -1.525625 4.061041666666667 -3.7391666666666667 4.281458333333333 -0.9075000000000001 0.09020833333333333 -2.0068750000000004 0.15208333333333335 -3.3162500000000006 0.15208333333333335 -1.309375 0 -2.40875 -0.061875000000000006 -3.3162500000000006 -0.15208333333333335Z" clip-rule="evenodd" stroke-width="2.0833"></path>
  </g>
</svg>