<svg xmlns="http://www.w3.org/2000/svg" fill="none" viewBox="0 0 100 100" id="Copy-Document--Streamline-Plump" height="100" width="100">
  <desc>
    Copy Document Streamline Icon: https://streamlinehq.com
  </desc>
  <g id="copy-document">
    <path id="Union" fill="#000000" fill-rule="evenodd" d="M1.0416666666666667 41.66666666666667c0 -12.4375 0.374325 -21.288645833333337 0.76375625 -27.13191666666667C2.2621041666666666 7.682416666666667 7.4811250000000005 2.306125 14.368645833333336 1.7601729166666669 19.159645833333336 1.3804020833333335 25.82854166666667 1.0416666666666667 34.375 1.0416666666666667s15.215416666666668 0.3387354166666667 20.00625 0.71850625c5.823958333333334 0.4616395833333334 10.454791666666667 4.376785416666667 12.022291666666668 9.717639583333334C65.143125 11.465104166666668 63.84208333333334 11.458333333333334 62.50000000000001 11.458333333333334c-10.129166666666668 0 -17.934166666666666 0.38533333333333336 -23.414166666666667 0.80225 -9.923541666666667 0.755 -17.699583333333333 8.478291666666667 -18.43354166666667 18.457958333333334C20.209604166666665 36.736875000000005 19.791666666666668 45.749791666666674 19.791666666666668 58.333333333333336c0 10.058958333333333 0.26706250000000004 17.836250000000003 0.6003333333333334 23.62604166666667 -2.2599375000000004 -0.11333333333333334 -4.267729166666666 -0.24708333333333335 -6.0233541666666675 -0.38625000000000004 -6.887520833333334 -0.5458333333333334 -12.106541666666667 -5.922291666666666 -12.563220833333334 -12.774583333333334C1.4159916666666668 62.95541666666667 1.0416666666666667 54.10416666666667 1.0416666666666667 41.66666666666667ZM67.75729166666667 17.756708333333336c-0.21145833333333336 -0.011229166666666667 -0.42125 -0.017895833333333337 -0.629375 -0.0204375C65.64520833333333 17.718125 64.10270833333334 17.708333333333336 62.50000000000001 17.708333333333336c-9.970625 0 -17.61729166666667 0.3792916666666667 -22.94 0.78425 -6.858125 0.5217708333333334 -12.168750000000001 5.807416666666668 -12.674583333333334 12.684291666666669C26.455000000000002 37.02791666666667 26.041666666666668 45.88708333333334 26.041666666666668 58.333333333333336s0.41333333333333333 21.305416666666666 0.8437500000000001 27.156458333333337c0.5058333333333334 6.876875 5.816458333333334 12.162500000000001 12.674583333333334 12.684375000000001 5.322708333333334 0.4047916666666667 12.969375000000001 0.7841666666666668 22.94 0.7841666666666668 9.970625 0 17.61729166666667 -0.3793750000000001 22.94 -0.7841666666666668 6.858125 -0.5218750000000001 12.168750000000001 -5.8075 12.674583333333334 -12.684375000000001 0.4304166666666667 -5.851041666666667 0.8437500000000001 -14.710208333333334 0.8437500000000001 -27.156458333333337 0 -3.217291666666667 -0.027708333333333335 -6.194791666666667 -0.07604166666666667 -8.9425 -0.0027083333333333334 -0.1597916666666667 -0.007916666666666667 -0.32062500000000005 -0.015833333333333335 -0.48229166666666673 -5.26125 -0.08958333333333333 -11.032083333333334 -0.28750000000000003 -15.881666666666668 -0.48250000000000004 -8.017708333333333 -0.3225 -14.421666666666667 -6.726458333333333 -14.744166666666668 -14.744166666666668 -0.19562500000000002 -4.862916666666667 -0.39395833333333335 -10.652291666666668 -0.4833333333333334 -15.925166666666668ZM97.08770833333334 42.62354166666667c-1.6439583333333334 -3.534791666666667 -4.607708333333334 -8.729375000000001 -9.461250000000001 -13.583125 -4.852916666666667 -4.852708333333333 -10.046875 -7.817291666666667 -13.583125 -9.462375000000002 0.09895833333333334 4.653625000000001 0.27083333333333337 9.591333333333333 0.4422916666666667 13.852791666666667 0.19145833333333334 4.7631250000000005 3.9872916666666667 8.558958333333333 8.750416666666666 8.750416666666666 4.26125 0.17145833333333335 9.198333333333332 0.3433333333333334 13.851666666666667 0.4422916666666667Z" clip-rule="evenodd" stroke-width="2.0833"></path>
  </g>
</svg>