<svg xmlns="http://www.w3.org/2000/svg" fill="none" viewBox="0 0 100 100" id="Cross-Reference--Streamline-Plump" height="100" width="100">
  <desc>
    Cross Reference Streamline Icon: https://streamlinehq.com
  </desc>
  <path fill="#000000" fill-rule="evenodd" d="M49.40958333333334 7.052625000000001c-1.0310416666666669 -1.2589583333333334 -2.558125 -1.6380000000000001 -3.8131250000000003 -1.5532291666666669 -8.348958333333334 0.5639375 -15.813333333333334 6.4881875 -15.889583333333334 16.17247916666667l-0.000625 8.98375c0.0004166666666666667 1.90125 0.02291666666666667 3.429375 0.055 4.644791666666666 0.09125 3.4608333333333334 2.728958333333334 6.182291666666667 6.212291666666667 6.327500000000001 1.4433333333333334 0.060208333333333336 3.29625 0.10479166666666667 5.617708333333334 0.10479166666666667 2.1120833333333335 0 3.757291666666667 -0.036875000000000005 5.028958333333334 -0.08916666666666667 3.3685416666666668 -0.13854166666666667 5.806875000000001 -2.757708333333334 5.901875 -6.039583333333334 0.036666666666666674 -1.271875 0.06333333333333334 -2.911875 0.06333333333333334 -4.99875 0 -1.9329166666666666 -0.022708333333333334 -3.4825000000000004 -0.05541666666666667 -4.711041666666667 -0.09229166666666667 -3.4745833333333334 -2.754166666666667 -6.14825 -6.2370833333333335 -6.236854166666667 -0.38875 -0.009895833333333335 -0.8108333333333334 -0.01879166666666667 -1.2681250000000002 -0.026333333333333337 0.80375 -1.7429791666666667 2.514166666666667 -2.7081458333333335 3.9114583333333335 -3.23025 1.40375 -0.5245833333333334 2.927291666666667 -2.0291458333333336 2.601875 -4.148979166666667 -0.20395833333333335 -1.329416666666667 -0.7193750000000001 -3.4785416666666666 -2.128541666666667 -5.199125Zm-27.62291666666667 0c-1.0310833333333334 -1.2589583333333334 -2.5582083333333334 -1.6380000000000001 -3.8132708333333336 -1.5532291666666669 -8.348875000000001 0.5639375 -15.813354166666668 6.4881875 -15.889541666666666 16.17247916666667L2.0833333333333335 30.655625000000004c0.0003958333333333334 1.90125 0.02279166666666667 3.429375 0.054875 4.644791666666666 0.09133333333333334 3.4608333333333334 2.729 6.182291666666667 6.212458333333334 6.327500000000001 1.4431875 0.060208333333333336 3.296166666666667 0.10479166666666667 5.617625 0.10479166666666667 2.1120833333333335 0 3.757354166666667 -0.036875000000000005 5.028895833333334 -0.08916666666666667 3.368645833333334 -0.13854166666666667 5.806770833333333 -2.757708333333334 5.901770833333334 -6.039583333333334 0.036875000000000005 -1.271875 0.06333333333333334 -2.911875 0.06333333333333334 -4.99875 0 -1.9329166666666666 -0.022708333333333334 -3.4825000000000004 -0.05520833333333334 -4.711041666666667 -0.09229166666666667 -3.4745833333333334 -2.754166666666667 -6.14825 -6.237208333333334 -6.236854166666667 -0.38877083333333334 -0.009895833333333335 -0.8106875 -0.01879166666666667 -1.2681666666666669 -0.026333333333333337 0.8038958333333334 -1.7429791666666667 2.51425 -2.7081458333333335 3.911416666666667 -3.23025 1.4039583333333336 -0.5245833333333334 2.9275 -2.0291458333333336 2.6020833333333337 -4.148979166666667 -0.20395833333333335 -1.329416666666667 -0.7195833333333334 -3.4785416666666666 -2.128541666666667 -5.199125ZM58.408750000000005 58.26625000000001c-2.1120833333333335 0 -3.757291666666667 0.036875000000000005 -5.028958333333334 0.08916666666666667 -3.3685416666666668 0.13854166666666667 -5.806875000000001 2.757708333333334 -5.901875 6.039583333333334 -0.036875000000000005 1.271875 -0.06333333333333334 2.911875 -0.06333333333333334 4.99875 0 1.9329166666666666 0.022708333333333334 3.4825000000000004 0.05541666666666667 4.711041666666667 0.09229166666666667 3.4745833333333334 2.754166666666667 6.148333333333333 6.2370833333333335 6.236875 0.38875 0.01 0.8108333333333334 0.01875 1.2681250000000002 0.026250000000000002 -0.80375 1.743125 -2.514166666666667 2.7081250000000003 -3.9114583333333335 3.2304166666666667 -1.40375 0.5245833333333334 -2.927291666666667 2.029166666666667 -2.601875 4.148958333333334 0.20395833333333335 1.3293750000000002 0.7193750000000001 3.4785416666666666 2.128541666666667 5.199166666666667 1.0310416666666669 1.2589583333333334 2.558125 1.637916666666667 3.8131250000000003 1.5531250000000003 8.348958333333334 -0.5639583333333333 15.813333333333334 -6.488125000000001 15.889583333333334 -16.172500000000003l0.000625 -8.98375c-0.0004166666666666667 -1.90125 -0.02291666666666667 -3.429375 -0.055 -4.644583333333334 -0.09125 -3.461041666666667 -2.728958333333334 -6.1825 -6.212291666666667 -6.327708333333334 -1.4433333333333334 -0.060208333333333336 -3.29625 -0.10479166666666667 -5.617708333333334 -0.10479166666666667Zm27.62291666666667 0c-2.1120833333333335 0 -3.757291666666667 0.036875000000000005 -5.0287500000000005 0.08916666666666667 -3.3687500000000004 0.13854166666666667 -5.806875000000001 2.757708333333334 -5.901875 6.039583333333334 -0.036875000000000005 1.271875 -0.06333333333333334 2.911875 -0.06333333333333334 4.99875 0 1.9329166666666666 0.022708333333333334 3.4825000000000004 0.05520833333333334 4.711041666666667 0.09229166666666667 3.4745833333333334 2.754166666666667 6.148333333333333 6.237291666666667 6.236875 0.38875 0.01 0.810625 0.01875 1.2681250000000002 0.026250000000000002 -0.8039583333333334 1.743125 -2.5143750000000002 2.7081250000000003 -3.9114583333333335 3.2304166666666667 -1.4039583333333336 0.5245833333333334 -2.9275 2.029166666666667 -2.6020833333333337 4.148958333333334 0.20395833333333335 1.3293750000000002 0.7195833333333334 3.4785416666666666 2.128541666666667 5.199166666666667 1.0310416666666669 1.2589583333333334 2.558125 1.637916666666667 3.8133333333333335 1.5531250000000003 8.348749999999999 -0.5639583333333333 15.813333333333334 -6.488125000000001 15.889375000000001 -16.172500000000003L97.91666666666667 69.34333333333333c-0.0004166666666666667 -1.90125 -0.022708333333333334 -3.429375 -0.05479166666666667 -4.644583333333334 -0.09145833333333335 -3.461041666666667 -2.729166666666667 -6.1825 -6.212500000000001 -6.327708333333334 -1.443125 -0.060208333333333336 -3.29625 -0.10479166666666667 -5.617708333333334 -0.10479166666666667ZM9.7106875 48.87083333333333c2.8764375 0 5.2082500000000005 2.3316666666666666 5.208333333333334 5.208125l0 0.005208333333333334 0.00002083333333333334 0.019583333333333335 0.000125 0.081875 0.0009791666666666668 0.3289583333333334 0.008 1.2654166666666669 0.06427083333333333 4.5475c0.07362500000000001 3.77625 0.22058333333333335 8.797291666666666 0.5127916666666666 13.822708333333335 0.14454166666666668 2.485416666666667 1.7392291666666666 3.5635416666666666 2.7513958333333335 3.6383333333333336 4.422770833333334 0.32625 8.8488125 0.4908333333333334 12.1838125 0.5733333333333334 1.6635416666666667 0.04125000000000001 3.046666666666667 0.061875000000000006 4.01125 0.07208333333333333 0.48208333333333336 0.005 0.8589583333333334 0.007708333333333334 1.1135416666666667 0.008958333333333334l0.28770833333333334 0.0010416666666666669 0.09104166666666667 0.00020833333333333335c2.87625 0.00020833333333333335 5.207916666666667 2.331875 5.207916666666667 5.208333333333334s-2.332291666666667 5.208333333333334 -5.20875 5.208333333333334l-0.11541666666666667 -0.00020833333333333335 -0.31416666666666665 -0.00125c-0.2729166666666667 -0.00125 -0.6695833333333334 -0.003958333333333334 -1.1727083333333332 -0.009375 -1.0056250000000002 -0.010625 -2.438541666666667 -0.03208333333333334 -4.158125 -0.07458333333333333 -3.431666666666667 -0.085 -8.040625 -0.25520833333333337 -12.6926875 -0.5985416666666667 -7.1496875 -0.5275 -11.993395833333334 -6.706458333333334 -12.383916666666668 -13.422083333333333 -0.30275 -5.206458333333334 -0.4532708333333334 -10.371875000000001 -0.528375 -14.224375000000002 -0.037625 -1.929166666666667 -0.05645833333333333 -3.5362500000000003 -0.06589583333333333 -4.663125000000001 -0.0047083333333333335 -0.5635416666666667 -0.007083333333333334 -1.0075 -0.008270833333333333 -1.3120833333333335l-0.0010416666666666669 -0.34979166666666667 -0.0001666666666666667 -0.12625c0 -2.876458333333334 2.3318541666666666 -5.208333333333334 5.208333333333334 -5.208333333333334Zm75.37035416666667 -1.428125c0 2.876458333333334 2.331875 5.208333333333334 5.208333333333334 5.208333333333334s5.208333333333334 -2.331875 5.208333333333334 -5.208333333333334l-0.00020833333333333335 -0.12625 -0.0010416666666666669 -0.35000000000000003c-0.00125 -0.30437500000000006 -0.003541666666666667 -0.7483333333333334 -0.008333333333333335 -1.3118750000000001 -0.009375 -1.126875 -0.028125 -2.7339583333333337 -0.06583333333333334 -4.663333333333333 -0.07520833333333334 -3.852291666666667 -0.225625 -9.017916666666666 -0.5283333333333333 -14.224166666666669 -0.390625 -6.715604166666667 -5.234375000000001 -12.894604166666667 -12.383958333333334 -13.422187500000001 -4.652083333333334 -0.34327083333333336 -9.261041666666667 -0.5135833333333334 -12.692708333333334 -0.5985208333333334 -1.7195833333333335 -0.0425625 -3.1525000000000003 -0.06389583333333333 -4.158125 -0.07458333333333333 -0.503125 -0.005354166666666667 -0.8997916666666668 -0.008041666666666667 -1.1727083333333332 -0.009395833333333334l-0.31416666666666665 -0.0012083333333333334 -0.11541666666666667 -0.0001666666666666667c-2.876458333333334 -0.00004166666666666667 -5.20875 2.3317708333333336 -5.20875 5.208270833333334 0 2.8763750000000003 2.3316666666666666 5.208208333333334 5.207916666666667 5.2084166666666665l0.09104166666666667 0.00020833333333333335 0.28770833333333334 0.0010416666666666669c0.2545833333333334 0.00125 0.6314583333333333 0.0037500000000000003 1.1135416666666667 0.008958333333333334 0.9645833333333335 0.010208333333333333 2.3477083333333337 0.030833333333333338 4.01125 0.07187500000000001 3.3350000000000004 0.08250000000000002 7.761041666666667 0.24708333333333335 12.183750000000002 0.5735416666666667 1.0122916666666668 0.07458333333333333 2.6068750000000005 1.1527083333333334 2.7514583333333333 3.6383333333333336 0.2922916666666667 5.025208333333334 0.43916666666666665 10.046458333333334 0.5127083333333334 13.822708333333335l0.064375 4.547291666666667 0.007916666666666667 1.2656250000000002 0.0010416666666666669 0.32875000000000004 0.00020833333333333335 0.08208333333333333 0 0.019583333333333335v0.005Z" clip-rule="evenodd" stroke-width="2.0833"></path>
</svg>