<svg xmlns="http://www.w3.org/2000/svg" fill="none" viewBox="0 0 100 100" id="Customer-Support-1--Streamline-Plump" height="100" width="100">
  <desc>
    Customer Support 1 Streamline Icon: https://streamlinehq.com
  </desc>
  <g id="Solid/Interface Essential/Help/customer-support-1--customer-headset-help-microphone-phone-support">
    <path id="Union" fill="#000000" fill-rule="evenodd" d="M32.597500000000004 44.194583333333334c-0.6110416666666667 -4.11125 -4.12875 -6.619791666666668 -8.032916666666667 -6.382083333333334C27.129375000000003 26.322916666666668 37.53208333333333 17.708333333333336 50 17.708333333333336c12.467916666666667 0 22.870625 8.614583333333334 25.43541666666667 20.104166666666668 -3.9041666666666672 -0.23770833333333333 -7.421875000000001 2.2708333333333335 -8.032916666666667 6.382083333333334C67.00020833333333 46.90104166666667 66.66666666666667 50.78937500000001 66.66666666666667 56.24895833333334s0.3335416666666667 9.347708333333335 0.7358333333333335 12.054375000000002c0.6395833333333334 4.3029166666666665 4.463333333333333 6.850208333333334 8.581666666666667 6.330625 2.2983333333333333 -0.29 4.592916666666667 -0.7254166666666667 6.703125 -1.2008333333333334 -0.9850000000000001 5.092708333333334 -3.0733333333333337 8.196458333333334 -6.103333333333334 10.280416666666667 -2.941041666666667 2.0229166666666667 -7.135208333333334 3.3752083333333336 -13.04625 4.121666666666667 -0.0041666666666666675 -0.3622916666666667 -0.011458333333333334 -0.705 -0.021458333333333336 -1.0289583333333334 -0.057708333333333334 -1.8768750000000003 -0.7760416666666667 -3.4737500000000003 -1.9960416666666667 -4.617291666666667 -1.2122916666666668 -1.1366666666666667 -2.8575 -1.76875 -4.685625 -1.8506250000000002C55.13083333333334 80.26208333333334 52.90083333333333 80.20833333333334 50 80.20833333333334c-2.6333333333333337 0 -4.720833333333334 0.044375000000000005 -6.367083333333333 0.10958333333333334 -2.002083333333333 0.07916666666666668 -3.7833333333333337 0.7831250000000001 -5.080208333333333 2.0352083333333333 -1.3025 1.2577083333333334 -2.0516666666666667 3.0077083333333334 -2.085208333333333 5.046458333333334 -0.0060416666666666665 0.3591666666666667 -0.009166666666666668 0.7395833333333334 -0.009166666666666668 1.1420833333333336 0 0.63125 0.009166666666666668 1.2081250000000001 0.02541666666666667 1.7354166666666666 0.057708333333333334 1.8768750000000003 0.7760416666666667 3.4737500000000003 1.9960416666666667 4.617291666666667 1.2122916666666668 1.1366666666666667 2.8575 1.76875 4.685625 1.8506250000000002 1.70375 0.07625000000000001 3.9337500000000003 0.13 6.834583333333335 0.13s5.130833333333334 -0.053750000000000006 6.834583333333335 -0.13c0.12583333333333335 -0.005625000000000001 0.25083333333333335 -0.013958333333333335 0.3747916666666667 -0.02479166666666667 10.172916666666667 -0.47625 18.277291666666667 -2.1375 24.09729166666667 -6.140625 6.465208333333334 -4.4470833333333335 9.421666666666669 -11.222083333333334 10.165625 -20.059166666666666 1.5987500000000001 -1.1485416666666668 2.809791666666667 -2.8212500000000005 3.2904166666666668 -4.879166666666667 0.5410416666666666 -2.3158333333333334 1.0706250000000002 -5.5600000000000005 1.0706250000000002 -9.392291666666667 0 -3.832291666666667 -0.5295833333333333 -7.076458333333334 -1.0706250000000002 -9.3925 -0.583125 -2.4966666666666666 -2.2412500000000004 -4.426458333333334 -4.3625 -5.540625C88.25541666666668 19.892354166666667 71.02875 3.125 50 3.125S11.744666666666667 19.892354166666667 9.599854166666667 41.31583333333334c-2.1212291666666667 1.1141666666666667 -3.7795 3.0439583333333338 -4.362604166666667 5.540625C4.6963333333333335 49.1725 4.166666666666667 52.41666666666667 4.166666666666667 56.24895833333334c0 3.832291666666667 0.5296666666666667 7.076458333333334 1.0705833333333334 9.392291666666667 0.73275 3.1375 3.1633125 5.379583333333334 6.076854166666667 6.233333333333333 3.1210000000000004 0.9147916666666667 7.903291666666667 2.1539583333333336 12.701729166666667 2.7593750000000004 4.118333333333333 0.5195833333333334 7.942083333333334 -2.0277083333333334 8.581666666666667 -6.330625 0.40229166666666666 -2.7066666666666666 0.7358333333333335 -6.5947916666666675 0.7358333333333335 -12.054375000000002s-0.3335416666666667 -9.347916666666668 -0.7358333333333335 -12.054375000000002Z" clip-rule="evenodd" stroke-width="2.0833"></path>
  </g>
</svg>