<svg xmlns="http://www.w3.org/2000/svg" fill="none" viewBox="0 0 100 100" id="Customer-Support-2--Streamline-Plump" height="100" width="100">
  <desc>
    Customer Support 2 Streamline Icon: https://streamlinehq.com
  </desc>
  <g id="Solid/Interface Essential/Help/customer-support-2--customer-headphones-headset-help-microphone-phone-person-support">
    <path id="Subtract" fill="#000000" fill-rule="evenodd" d="M2.166291666666667 43.81645833333334c0.08954166666666667 -3.077916666666667 1.666666666666667 -5.814791666666667 4.172729166666667 -7.268541666666668 0.6680833333333335 -7.597916666666666 5.058333333333334 -16.0294375 11.896895833333335 -22.6635625C25.792708333333334 6.553375000000001 36.699375 1.0416666666666667 50 1.0416666666666667s24.20729166666667 5.511708333333334 31.764166666666668 12.8426875c6.838541666666668 6.634125 11.228750000000002 15.065645833333335 11.896875 22.6635625 2.506041666666667 1.45375 4.083125 4.190625 4.1727083333333335 7.268541666666668C97.88250000000001 45.49041666666667 97.91666666666667 47.54166666666667 97.91666666666667 50c0 2.4583333333333335 -0.03416666666666667 4.5095833333333335 -0.08291666666666668 6.183541666666668 -0.11291666666666667 3.8775000000000004 -2.586666666666667 7.213958333333333 -6.304375 8.125208333333335C89.78041666666667 82.49916666666668 71.56083333333335 98.95833333333334 50 98.95833333333334c-2.30125 0 -4.166666666666667 -1.8654166666666667 -4.166666666666667 -4.166666666666667s1.8654166666666667 -4.166666666666667 4.166666666666667 -4.166666666666667c17.354583333333334 0 31.15416666666667 -12.966041666666667 33.09854166666667 -26.041666666666668h-0.8141666666666667C76.72604166666667 76.86875 64.36125 85.41666666666667 50 85.41666666666667S23.273958333333336 76.86875 17.715583333333335 64.58333333333334H12.5c-0.8107708333333334 0 -1.5578333333333334 -0.012291666666666668 -2.243479166666667 -0.03375 -4.693229166666667 -0.14583333333333337 -7.960208333333334 -3.896458333333334 -8.090229166666667 -8.366041666666668C2.1175833333333336 54.50958333333334 2.0833333333333335 52.458333333333336 2.0833333333333335 50c0 -2.4583333333333335 0.03425 -4.5095833333333335 0.08295833333333334 -6.183541666666668ZM85.08854166666667 35.41666666666667h-2.804166666666667C76.72604166666667 23.13104166666667 64.36125 14.583333333333334 50 14.583333333333334S23.273958333333336 23.13104166666667 17.715583333333335 35.41666666666667H14.911354166666667c0.9556666666666668 -4.804583333333333 3.999229166666667 -10.576458333333333 9.126979166666668 -15.551020833333334C30.225625 13.863291666666667 39.11083333333333 9.375 50 9.375c10.889166666666668 0 19.774375000000003 4.488291666666667 25.96166666666667 10.490645833333335C81.089375 24.840208333333333 84.13291666666667 30.612083333333334 85.08854166666667 35.41666666666667ZM41.145833333333336 41.66666666666667c0 -2.013541666666667 -1.6322916666666667 -3.6458333333333335 -3.6458333333333335 -3.6458333333333335s-3.6458333333333335 1.6322916666666667 -3.6458333333333335 3.6458333333333335v4.166666666666667c0 2.013541666666667 1.6322916666666667 3.6458333333333335 3.6458333333333335 3.6458333333333335s3.6458333333333335 -1.6322916666666667 3.6458333333333335 -3.6458333333333335v-4.166666666666667ZM62.50000000000001 38.020833333333336c-2.013541666666667 0 -3.6458333333333335 1.6322916666666667 -3.6458333333333335 3.6458333333333335v4.166666666666667c0 2.013541666666667 1.6322916666666667 3.6458333333333335 3.6458333333333335 3.6458333333333335s3.6458333333333335 -1.6322916666666667 3.6458333333333335 -3.6458333333333335v-4.166666666666667c0 -2.013541666666667 -1.6322916666666667 -3.6458333333333335 -3.6458333333333335 -3.6458333333333335ZM40.54791666666667 60.5c-1.1045833333333335 -1.6833333333333336 -3.365 -2.1525 -5.048333333333334 -1.0477083333333335 -1.6833333333333336 1.1047916666666668 -2.1525 3.365 -1.0477083333333335 5.048333333333334 3.547083333333333 5.4054166666666665 9.713541666666666 7.895625 15.548125 7.895625 5.8343750000000005 0 12.000833333333334 -2.4902083333333334 15.547916666666667 -7.895625 1.1047916666666668 -1.6833333333333336 0.635625 -3.943541666666667 -1.0477083333333335 -5.048333333333334s-3.9437500000000005 -0.635625 -5.048333333333334 1.0477083333333335c-1.9216666666666669 2.928125 -5.520833333333334 4.604583333333333 -9.451875000000001 4.604583333333333 -3.9312500000000004 0 -7.5304166666666665 -1.6764583333333334 -9.452083333333334 -4.604583333333333Z" clip-rule="evenodd" stroke-width="2.0833"></path>
  </g>
</svg>