<svg xmlns="http://www.w3.org/2000/svg" fill="none" viewBox="0 0 100 100" id="Delete-Circle--Streamline-Plump" height="100" width="100">
  <desc>
    Delete Circle Streamline Icon: https://streamlinehq.com
  </desc>
  <g id="Solid/Interface Essential/Add Remove Delete/delete-circle--button-delete-remove-add-circle-buttons-cross-x-mathematics-multiply-math">
    <path id="Subtract" fill="#000000" fill-rule="evenodd" d="M1.0416666666666667 50C1.0416666666666667 22.96104166666667 22.96104166666667 1.0416666666666667 50 1.0416666666666667S98.95833333333334 22.96104166666667 98.95833333333334 50 77.03895833333334 98.95833333333334 50 98.95833333333334 1.0416666666666667 77.03895833333334 1.0416666666666667 50Zm26.78416666666667 15.643750000000002c-1.21 -1.685 -0.8172916666666666 -3.8258333333333336 0.5856250000000001 -5.35375 1.7977083333333335 -1.9577083333333334 4.873125000000001 -5.222291666666667 9.853750000000002 -10.288958333333333 -4.98125 -5.0675 -8.057083333333333 -8.332291666666666 -9.855000000000002 -10.290208333333334 -1.4029166666666668 -1.5279166666666668 -1.795625 -3.6689583333333338 -0.5856250000000001 -5.35375 0.6939583333333333 -0.96625 1.6687500000000002 -2.149166666666667 3.0270833333333336 -3.5075000000000003 1.3583333333333334 -1.3583333333333334 2.5410416666666666 -2.333125 3.5075000000000003 -3.0270833333333336 1.6847916666666667 -1.2097916666666668 3.8258333333333336 -0.8172916666666666 5.3535416666666675 0.5856250000000001 1.9579166666666667 1.7979166666666668 5.222708333333333 4.87375 10.290208333333334 9.855000000000002 5.067708333333334 -4.98125 8.332500000000001 -8.057083333333333 10.290416666666667 -9.855000000000002 1.5279166666666668 -1.4029166666666668 3.66875 -1.795625 5.3535416666666675 -0.5856250000000001 0.9664583333333333 0.6939583333333333 2.149166666666667 1.6687500000000002 3.5075000000000003 3.0270833333333336 1.3585416666666668 1.3583333333333334 2.333125 2.5412500000000002 3.0270833333333336 3.5075000000000003 1.21 1.6847916666666667 0.8175000000000001 3.8258333333333336 -0.5856250000000001 5.35375 -1.7979166666666668 1.9579166666666667 -4.87375 5.222708333333333 -9.855000000000002 10.290208333333334 4.980625 5.0668750000000005 8.056041666666667 8.33125 9.853750000000002 10.288958333333333 1.4029166666666668 1.5279166666666668 1.795625 3.66875 0.5856250000000001 5.35375 -0.6939583333333333 0.96625 -1.6685416666666666 2.149166666666667 -3.0270833333333336 3.5075000000000003 -1.3583333333333334 1.3583333333333334 -2.5410416666666666 2.3329166666666667 -3.5075000000000003 3.0268750000000004 -1.6847916666666667 1.21 -3.8256250000000005 0.8175000000000001 -5.3535416666666675 -0.5856250000000001 -1.9579166666666667 -1.7977083333333335 -5.222291666666667 -4.873125000000001 -10.288958333333333 -9.853541666666668 -5.0668750000000005 4.980416666666667 -8.33125 8.055833333333334 -10.289166666666667 9.853541666666668 -1.5277083333333334 1.4031250000000002 -3.66875 1.795625 -5.3535416666666675 0.5856250000000001 -0.9664583333333333 -0.6939583333333333 -2.149166666666667 -1.6685416666666666 -3.5075000000000003 -3.0268750000000004 -1.3583333333333334 -1.3583333333333334 -2.333125 -2.5412500000000002 -3.0270833333333336 -3.5075000000000003Z" clip-rule="evenodd" stroke-width="2.0833"></path>
  </g>
</svg>