<svg xmlns="http://www.w3.org/2000/svg" fill="none" viewBox="0 0 100 100" id="Desktop-Help--Streamline-Plump" height="100" width="100">
  <desc>
    Desktop Help Streamline Icon: https://streamlinehq.com
  </desc>
  <g id="desktop-help--device-help-information-display-desktop-question-info">
    <path id="Union" fill="#000000" fill-rule="evenodd" d="M68.98604166666668 11.620041666666667c0.5497916666666668 -2.2297083333333334 2.3177083333333335 -4.613729166666666 5.155833333333334 -6.480812500000001C76.94833333333334 3.2931666666666666 80.62020833333334 2.0833333333333335 84.62083333333334 2.0833333333333335c4.869375 0 8.1 1.7422291666666667 10.146458333333335 4.137666666666667C96.86479166666668 8.676208333333333 97.91666666666667 12.055875 97.91666666666667 15.589416666666668c0 3.6320833333333336 -1.292916666666667 6.160166666666667 -3.5377083333333337 8.374125000000001 -2.376666666666667 2.3439583333333336 -5.765208333333334 4.286875 -9.987291666666668 6.588958333333334 -0.82625 0.4504166666666667 -1.3418750000000002 1.3260416666666666 -1.3418750000000002 2.2787500000000005v1.4356250000000002c0 0.9522916666666668 -0.7597916666666668 1.7241666666666668 -1.6972916666666666 1.7241666666666668h-5.327083333333333c-0.9383333333333335 0 -1.6987500000000002 -0.7733333333333333 -1.6972916666666666 -1.7264583333333334l0.008958333333333334 -6.567500000000001c0 -1.51875 1.133541666666667 -3.2225 3.6645833333333333 -5.140000000000001 1.9254166666666668 -1.4583333333333333 4.158541666666667 -2.6785208333333337 6.21875 -3.8042708333333337 0.5602083333333333 -0.30606250000000007 1.1079166666666669 -0.6054375 1.6329166666666668 -0.9004166666666666 1.2145833333333333 -0.6825416666666667 1.6670833333333335 -2.227479166666667 1.0172916666666667 -3.4734583333333333 -0.6495833333333334 -1.2459791666666666 -2.161875 -1.7337708333333335 -3.400208333333334 -1.0967083333333334 -2.6304166666666666 1.3534166666666667 -5.965833333333333 3.3355208333333337 -7.78 4.433166666666667 -0.7879166666666667 0.47670833333333335 -1.3631250000000001 0.697875 -1.8347916666666668 0.7359166666666667 -1.940625 0.15650000000000003 -3.308541666666667 -0.5930833333333334 -4.12625 -1.7057291666666667 -0.8479166666666667 -1.1541041666666667 -1.2791666666666668 -2.9526250000000003 -0.7433333333333334 -5.125541666666667Zm10.282083333333333 29.54204166666667c-2.968541666666667 0 -5.374791666666667 2.4445833333333336 -5.374791666666667 5.460000000000001s2.4062500000000004 5.459791666666667 5.374791666666667 5.459791666666667c2.968541666666667 0 5.375000000000001 -2.4443750000000004 5.375000000000001 -5.459791666666667 0 -3.015416666666667 -2.4064583333333336 -5.460000000000001 -5.375000000000001 -5.460000000000001Zm-3.047083333333333 25.443333333333335c0.2341666666666667 -2.1514583333333333 0.47187500000000004 -4.974583333333333 0.6383333333333334 -8.523125 0.7747916666666668 0.16354166666666667 1.5795833333333333 0.24958333333333335 2.4072916666666666 0.24958333333333335 2.6839583333333334 0 5.130208333333334 -0.9062500000000001 7.0789583333333335 -2.4181250000000003 -0.13479166666666667 4.597916666666666 -0.375 8.360208333333334 -0.6389583333333333 11.347291666666667 -0.608125 6.886041666666667 -6.113333333333334 11.85125 -12.840208333333333 12.236666666666666 -4.660208333333333 0.2672916666666667 -11.227708333333336 0.5352083333333334 -19.910625000000003 0.6510416666666667l0.6164583333333333 3.6983333333333333c0.25104166666666666 1.5068750000000002 1.5547916666666668 2.6112500000000005 3.0825000000000005 2.6112500000000005h4.888125c3.475833333333334 0 6.468333333333334 2.4533333333333336 7.15 5.861666666666667l0.08166666666666667 0.4085416666666667c0.6445833333333334 3.222916666666667 -1.8204166666666668 6.229791666666667 -5.107083333333334 6.229791666666667H23.832500000000003c-3.2866875 0 -5.75175 -3.0068750000000004 -5.107166666666667 -6.229791666666667l0.08170833333333334 -0.4085416666666667C19.488708333333335 88.91166666666668 22.481250000000003 86.45833333333334 25.957083333333337 86.45833333333334h4.888125c1.5277083333333334 0 2.8314583333333334 -1.104375 3.0825000000000005 -2.6112500000000005l0.6164583333333333 -3.6983333333333333c-8.682916666666667 -0.11583333333333333 -15.250520833333335 -0.38375000000000004 -19.9105625 -0.6510416666666667 -6.7270416666666675 -0.385625 -12.232125 -5.350625 -12.840316666666666 -12.236666666666666C1.3900645833333334 62.695416666666674 1.0416666666666667 56.31958333333334 1.0416666666666667 47.91666666666667c0 -8.402916666666668 0.3484 -14.77875 0.751625 -19.344375 0.6081875000000001 -6.886041666666667 6.113291666666667 -11.851145833333335 12.840312500000001 -12.23675C20.81779166666667 15.981041666666666 30.361458333333335 15.625000000000002 43.75 15.625000000000002c7.505625 0 13.802916666666668 0.11189583333333335 18.977291666666666 0.2726875 0.319375 1.6524583333333334 0.9747916666666667 3.2021875000000004 1.9641666666666668 4.548625 1.09 1.4836875 2.528541666666667 2.636604166666667 4.207916666666667 3.3693125000000004l-0.36083333333333334 1.7204166666666667C62.95645833333334 25.257708333333333 54.804166666666674 25 43.75 25c-13.997083333333334 0 -23.341750000000005 0.413125 -28.706708333333335 0.758125 -2.0655625 0.13291666666666666 -3.557916666666667 1.5720833333333335 -3.764395833333334 3.469791666666667C10.853791666666666 33.135000000000005 10.416666666666668 39.25770833333333 10.416666666666668 47.91666666666667c0 8.658958333333334 0.4371041666666667 14.781666666666668 0.8622291666666667 18.68875 0.20647916666666669 1.8977083333333336 1.6988333333333336 3.336875 3.7643750000000002 3.469791666666667C20.40825 70.42020833333333 29.752916666666668 70.83333333333334 43.75 70.83333333333334s23.34166666666667 -0.413125 28.706666666666667 -0.758125c2.0656250000000003 -0.13291666666666666 3.557916666666667 -1.5720833333333335 3.7643750000000002 -3.469791666666667Z" clip-rule="evenodd" stroke-width="2.0833"></path>
  </g>
</svg>