<svg xmlns="http://www.w3.org/2000/svg" fill="none" viewBox="0 0 100 100" id="Eye-Optic--Streamline-Plump" height="100" width="100">
  <desc>
    Eye Optic Streamline Icon: https://streamlinehq.com
  </desc>
  <g id="Solid/Health/Medical/eye-optic--health-medical-eye-optic">
    <path id="Subtract" fill="#000000" fill-rule="evenodd" d="M50 3.6458333333333335c2.30125 0 4.166666666666667 1.8654791666666668 4.166666666666667 4.166666666666667v11.623187500000002c4.661250000000001 0.3704583333333334 9.145833333333334 1.3570833333333334 13.365833333333335 2.8768125l5.942291666666668 -10.292645833333335c1.150625 -1.9928750000000002 3.6989583333333336 -2.6756875 5.6918750000000005 -1.5251041666666667 1.992916666666667 1.1506041666666667 2.675625 3.6988958333333337 1.5252083333333333 5.691770833333334l-5.542708333333334 9.600145833333332c3.7095833333333337 2.0766666666666667 7.122916666666668 4.599166666666666 10.16125 7.493541666666667l7.515625 -7.515625c1.6270833333333334 -1.6270833333333334 4.265416666666667 -1.6270833333333334 5.8925 0 1.6272916666666668 1.6272916666666668 1.6272916666666668 4.265416666666667 0 5.892708333333334l-7.867708333333334 7.867708333333334c3.442708333333334 4.612291666666668 6.0791666666666675 9.83375 7.705416666666667 15.472291666666669 0.5270833333333333 1.8272916666666668 0.5279166666666667 3.766875 0.002291666666666667 5.5945833333333335C92.61041666666668 81.27416666666667 73.07604166666668 96.35416666666667 49.99291666666667 96.35416666666667 26.92291666666667 96.35416666666667 7.397770833333334 81.29166666666669 1.4375125000000002 60.62770833333333c-0.5270458333333333 -1.8272916666666668 -0.5278083333333334 -3.766875 -0.0022 -5.5945833333333335 1.6253958333333336 -5.651875 4.265354166666667 -10.885208333333335 7.7150625 -15.506875L1.2814229166666669 31.657291666666666c-1.6271833333333334 -1.6272916666666668 -1.6271833333333334 -4.265416666666667 0 -5.892708333333334 1.6271812500000002 -1.6270833333333334 4.26536875 -1.6270833333333334 5.89255625 0l7.516583333333333 7.5166666666666675c3.038229166666667 -2.894375 6.451312500000001 -5.417083333333334 10.160895833333335 -7.49375L19.30822916666667 16.186520833333333C18.157625 14.193645833333335 18.840458333333334 11.645354166666667 20.833333333333336 10.494750000000002c1.992916666666667 -1.1505833333333333 4.541250000000001 -0.46777083333333336 5.6918750000000005 1.5251041666666667l5.942708333333334 10.293270833333333C36.68770833333333 20.79322916666667 41.172291666666666 19.80647916666667 45.833333333333336 19.43585416666667V7.812500000000001c0 -2.3011875 1.8654166666666667 -4.166666666666667 4.166666666666667 -4.166666666666667Zm0 77.08333333333334c12.656458333333335 0 22.916666666666668 -10.260208333333335 22.916666666666668 -22.916666666666668s-10.260208333333335 -22.916666666666668 -22.916666666666668 -22.916666666666668 -22.916666666666668 10.260208333333335 -22.916666666666668 22.916666666666668 10.260208333333335 22.916666666666668 22.916666666666668 22.916666666666668Z" clip-rule="evenodd" stroke-width="2.0833"></path>
  </g>
</svg>