<svg xmlns="http://www.w3.org/2000/svg" fill="none" viewBox="0 0 100 100" id="File-Code-1--Streamline-Plump" height="100" width="100">
  <desc>
    File Code 1 Streamline Icon: https://streamlinehq.com
  </desc>
  <g id="file-code-1--code-files-angle-programming-file-bracket">
    <path id="Union" fill="#000000" fill-rule="evenodd" d="M63.545625 1.1203750000000001c-0.2554166666666667 -0.01649166666666667 -0.509375 -0.026343750000000003 -0.7610416666666667 -0.030145833333333337C60.708958333333335 1.0588875 58.530833333333334 1.0416666666666667 56.25000000000001 1.0416666666666667c-12.93625 0 -22.57125 0.55396875 -28.904791666666668 1.0964166666666666 -6.847104166666667 0.5864166666666667 -12.111312500000002 5.896416666666667 -12.654020833333334 12.741520833333334C14.132604166666667 21.925 13.541666666666668 33.31979166666667 13.541666666666668 50l0.00002083333333333334 0.17041666666666666c2.7148541666666666 -2.180416666666667 7.358104166666668 -4.139166666666667 12.193312500000001 -1.7514583333333336 1.7977083333333335 0.8877083333333333 3.4514583333333335 2.044375 4.746666666666667 3.0508333333333333 1.2710416666666666 0.9877083333333334 2.20875 2.1402083333333337 2.851666666666667 3.3785416666666666 0.6427083333333333 -1.2383333333333335 1.5804166666666668 -2.3908333333333336 2.8514583333333334 -3.3785416666666666 1.2952083333333335 -1.0064583333333335 2.9489583333333336 -2.163125 4.746666666666667 -3.0508333333333333 5.11875 -2.5275000000000003 10.022083333333335 -0.18458333333333335 12.650416666666667 2.1362500000000004 5.280416666666667 4.662708333333334 10.716458333333335 11.045 14.354166666666668 15.569166666666668 4.675625 5.815208333333334 4.677291666666667 14.034583333333334 0.0004166666666666667 19.850833333333334 -3.0025000000000004 3.73375 -7.231458333333333 8.73375 -11.588125 12.983125000000001 12.886666666666667 -0.0027083333333333334 22.488958333333336 -0.5554166666666667 28.806458333333335 -1.0964583333333333 6.847083333333334 -0.5864583333333333 12.11125 -5.896458333333333 12.653958333333334 -12.741458333333334C98.3675 78.075 98.95833333333334 66.68020833333334 98.95833333333334 50c0 -4.753125 -0.04791666666666667 -9.077083333333334 -0.12958333333333333 -12.993333333333334 -0.0037500000000000003 -0.18333333333333335 -0.010833333333333334 -0.36770833333333336 -0.021041666666666667 -0.5527083333333334 -7.273333333333334 -0.053541666666666675 -14.894583333333335 -0.581875 -20.667708333333337 -1.0920833333333335 -7.204791666666667 -0.6368750000000001 -12.864583333333334 -6.296458333333334 -13.501458333333334 -13.50125 -0.5120833333333333 -5.7924375 -1.0422916666666666 -13.445125 -1.0929166666666668 -20.740250000000003ZM96.95854166666668 30.179583333333337c-1.9075 -3.8277083333333333 -5.471666666666667 -9.778729166666666 -11.415416666666667 -15.722625 -5.943125 -5.943125 -11.89375 -9.507229166666667 -15.722500000000002 -11.415333333333333 0.11875000000000001 6.451583333333335 0.5850000000000001 13.079458333333333 1.0437500000000002 18.268583333333332 0.37000000000000005 4.187708333333334 3.638125 7.455833333333334 7.826041666666667 7.8258333333333345 5.188958333333334 0.45875000000000005 11.816666666666666 0.9247916666666668 18.268125 1.0435416666666668ZM15.45860416666667 76.69395833333334c-0.3085 -0.375625 -0.3087916666666667 -0.9060416666666667 -0.0007083333333333334 -1.281875 1.4461041666666667 -1.7647916666666668 5.775854166666667 -6.935208333333334 11.341687499999999 -12.532083333333334 1.8445833333333335 -1.8547916666666668 1.9127083333333335 -4.866041666666667 -0.15270833333333336 -6.47125 -1.1241666666666668 -0.8733333333333334 -2.4062500000000004 -1.7533333333333334 -3.679166666666667 -2.381875 -1.9377083333333336 -0.956875 -4.1263958333333335 -0.213125 -5.746270833333334 1.2170833333333335 -4.8645625 4.295416666666667 -10.028979166666668 10.334166666666667 -13.620270833333334 14.800625000000002C0.7639520833333334 73.573125 0.7633708333333334 78.53395833333335 3.6007083333333334 82.0625c3.592479166666667 4.4675 8.759270833333334 10.506250000000001 13.625416666666666 14.791250000000002 1.6170416666666667 1.42375 3.7995000000000005 2.1635416666666667 5.732208333333333 1.2112500000000002 1.27625 -0.6289583333333334 2.5620833333333337 -1.5112500000000002 3.6889583333333333 -2.386875 2.0656250000000003 -1.605 1.9975 -4.616250000000001 0.15250000000000002 -6.470625000000001 -5.564791666666667 -5.5925 -9.894375 -10.751666666666667 -11.3411875 -12.513541666666667Zm35.749729166666675 0c0.30833333333333335 -0.375625 0.30875 -0.9060416666666667 0.000625 -1.281875 -1.446041666666667 -1.7647916666666668 -5.776041666666667 -6.935208333333334 -11.341875 -12.532083333333334 -1.844375 -1.8547916666666668 -1.9127083333333335 -4.866041666666667 0.1529166666666667 -6.47125 1.1241666666666668 -0.8733333333333334 2.4062500000000004 -1.7533333333333334 3.679166666666667 -2.381875 1.9377083333333336 -0.956875 4.12625 -0.213125 5.746250000000001 1.2170833333333335 4.864583333333334 4.295416666666667 10.028958333333335 10.334166666666667 13.620208333333334 14.800625000000002 2.837291666666667 3.528541666666667 2.837916666666667 8.489375 0.0004166666666666667 12.017916666666668 -3.5922916666666667 4.4675 -8.759166666666667 10.506250000000001 -13.625416666666666 14.791250000000002 -1.616875 1.42375 -3.799583333333334 2.1635416666666667 -5.732291666666667 1.2112500000000002 -1.27625 -0.6289583333333334 -2.561875 -1.5112500000000002 -3.6889583333333333 -2.386875 -2.0656250000000003 -1.605 -1.9975 -4.616250000000001 -0.1522916666666667 -6.470625000000001 5.564791666666667 -5.5925 9.894375 -10.751666666666667 11.341250000000002 -12.513541666666667Z" clip-rule="evenodd" stroke-width="2.0833"></path>
  </g>
</svg>