<svg xmlns="http://www.w3.org/2000/svg" fill="none" viewBox="0 0 100 100" id="Flag--Streamline-Plump" height="100" width="100">
  <desc>
    Flag Streamline Icon: https://streamlinehq.com
  </desc>
  <g id="flag--navigation-map-maps-flag-gps-location-destination-goal">
    <path id="Union" fill="#000000" fill-rule="evenodd" d="M7.790520833333334 6.685250000000001C7.607500000000001 12.622145833333335 7.291666666666667 26.300208333333337 7.291666666666667 50c0 23.699791666666666 0.31581250000000005 37.37791666666667 0.4988541666666667 43.31479166666667 0.07833333333333334 2.5408333333333335 1.4476041666666668 5.202083333333333 4.4316875 5.5254166666666675 0.6767708333333334 0.07333333333333335 1.4591458333333334 0.11812500000000001 2.3611250000000004 0.11812500000000001 0.9019791666666668 0 1.6843541666666668 -0.04479166666666667 2.3611250000000004 -0.11812500000000001 2.984083333333334 -0.32333333333333336 4.353458333333333 -2.9845833333333336 4.431791666666667 -5.5254166666666675 0.1829166666666667 -5.936875000000001 0.49875 -19.615000000000002 0.49875 -43.31479166666667s-0.31583333333333335 -37.377854166666665 -0.49875 -43.314750000000004C21.29791666666667 4.144395833333333 19.928520833333334 1.48311875 16.944437500000003 1.1597250000000001 16.267666666666667 1.08638125 15.485312500000001 1.0416666666666667 14.583333333333334 1.0416666666666667c-0.9019791666666668 0 -1.6843333333333335 0.044714583333333335 -2.361104166666667 0.11805833333333335C9.238145833333334 1.48311875 7.868854166666667 4.144395833333333 7.790520833333334 6.685250000000001ZM27.084166666666672 49.999791666666674c0 5.286875 -0.015625 10.0775 -0.042083333333333334 14.396666666666668 4.103958333333334 0.5887500000000001 7.674166666666667 1.4112500000000001 11.266458333333334 2.2389583333333336l0.008541666666666668 0.0020833333333333337c6.784583333333334 1.5635416666666666 13.648541666666668 3.1452083333333336 24.183750000000003 3.1452083333333336 7.940416666666667 0 17.45416666666667 -2.4562500000000003 23.45291666666667 -4.285833333333334 3.837916666666667 -1.170625 5.321875 -5.591666666666668 3.4458333333333333 -8.986041666666667 -1.5335416666666668 -2.7745833333333336 -3.3668750000000003 -6.287083333333333 -4.902708333333334 -9.787500000000001 -1.4843750000000002 -3.383125 -2.6552083333333334 -6.676458333333334 -3.04375 -9.256458333333335 5.285208333333334 -10.373333333333333 8.239583333333334 -20.165916666666668 9.778125000000001 -26.475958333333335 0.981875 -4.027916666666667 -2.9785416666666666 -7.089583333333334 -6.69 -5.892416666666667 -5.983333333333333 1.9300833333333336 -14.771250000000002 4.276208333333333 -22.04041666666667 4.276208333333333 -7.5131250000000005 0 -13.281875000000001 -1.7236875000000003 -19.66916666666667 -3.63225l-0.00020833333333333335 -0.0000625c-0.5447916666666667 -0.16279166666666667 -1.0939583333333334 -0.3269166666666667 -1.649375 -0.4914166666666667 -4.623125000000001 -1.3698333333333335 -9.610416666666667 -2.7479375000000004 -15.752708333333334 -3.5379250000000004 0.7627083333333333 1.6435916666666668 1.1091666666666666 3.3747375 1.1535416666666667 4.811425 0.1847916666666667 5.997833333333334 0.5012500000000001 19.729895833333334 0.5012500000000001 43.4753125Z" clip-rule="evenodd" stroke-width="2.0833"></path>
  </g>
</svg>