<svg xmlns="http://www.w3.org/2000/svg" fill="none" viewBox="0 0 100 100" id="Floppy-Disk--Streamline-Plump" height="100" width="100">
  <desc>
    Floppy Disk Streamline Icon: https://streamlinehq.com
  </desc>
  <g id="floppy-disk--disk-floppy-electronics-device-disc-computer-storage">
    <path id="Subtract" fill="#000000" fill-rule="evenodd" d="M49.999166666666675 20.625812500000002c3.568541666666667 0 6.405416666666667 -0.0708125 8.575208333333334 -0.16152083333333334 2.005625 -0.08385416666666667 3.38625 -1.4759375000000001 3.481666666666667 -3.309104166666667 0.07687500000000001 -1.4795833333333335 0.13062500000000002 -3.283458333333334 0.13062500000000002 -5.435625000000001 0 -3.915916666666667 -0.1779166666666667 -6.678604166666667 -0.34979166666666667 -8.432500000000001l-0.003958333333333334 -0.04014583333333333C58.23770833333334 3.1700000000000004 54.29770833333333 3.125 50 3.125c-4.298333333333334 0 -8.238750000000001 0.045020833333333336 -11.834583333333335 0.1219375l-0.003958333333333334 0.04014583333333333c-0.1716666666666667 1.7538750000000003 -0.34979166666666667 4.5165625 -0.34979166666666667 8.432479166666667 0 2.1521666666666666 0.053750000000000006 3.9560625000000007 0.13083333333333333 5.435625000000001 0.09520833333333334 1.8331666666666668 1.4758333333333336 3.22525 3.4814583333333338 3.309104166666667 2.1697916666666672 0.09070833333333335 5.006666666666667 0.16152083333333334 8.575208333333334 0.16152083333333334Zm18.4375 -8.906250000000002c0 -3.6166458333333336 -0.14479166666666668 -6.349583333333334 -0.31125 -8.2959375 0.6247916666666667 0.0219375 1.2364583333333334 0.04479166666666667 1.8352083333333336 0.06847916666666667 3.0664583333333337 0.12129166666666667 6.078541666666667 1.1597083333333336 8.550833333333333 3.1124583333333335 2.3266666666666667 1.8379583333333336 5.213750000000001 4.2693125 7.912916666666668 6.968375 2.6993750000000003 2.6992083333333334 5.1312500000000005 5.586541666666667 6.970000000000001 7.913729166666667 1.9533333333333334 2.472291666666667 2.9920833333333334 5.485 3.113541666666667 8.552083333333336 0.21854166666666666 5.5254166666666675 0.3670833333333334 12.152916666666668 0.3670833333333334 19.961250000000003 0 15.419583333333334 -0.5793750000000001 26.23479166666667 -1.1331250000000002 33.050625000000004 -0.5564583333333334 6.849791666666667 -5.841666666666667 12.134791666666667 -12.691250000000002 12.691250000000002 -1.0206250000000001 0.08291666666666668 -2.1310416666666665 0.16645833333333335 -3.3331250000000003 0.2485416666666667 0.2652083333333333 -4.509791666666667 0.4908333333333334 -10.745416666666667 0.4908333333333334 -18.907083333333336 0 -10.300416666666669 -0.359375 -17.53291666666667 -0.7039583333333334 -22.100625 -0.3816666666666667 -5.058125 -4.255625 -9.036666666666667 -9.349583333333333 -9.466666666666667C65.876875 45.154583333333335 59.27166666666667 44.79166666666667 50 44.79166666666667s-15.876875 0.36291666666666667 -20.154791666666668 0.7243750000000001c-5.093958333333334 0.43000000000000005 -8.967916666666667 4.408333333333334 -9.349562500000001 9.466666666666667C20.151041666666668 59.55041666666667 19.791666666666668 66.78291666666667 19.791666666666668 77.08333333333334c0 8.161666666666667 0.225625 14.397291666666668 0.4907708333333334 18.907083333333336 -1.2020625 -0.08208333333333333 -2.3123958333333334 -0.16562500000000002 -3.3330625 -0.2485416666666667 -6.849687500000001 -0.5564583333333334 -12.13475 -5.841458333333334 -12.691270833333334 -12.691250000000002C3.704333333333334 76.23479166666668 3.125 65.41958333333334 3.125 50c0 -15.419583333333334 0.5793333333333334 -26.23479166666667 1.1331250000000002 -33.050645833333334 0.5565208333333334 -6.849687500000001 5.841583333333333 -12.134729166666668 12.691270833333334 -12.691250000000002 3.7382083333333336 -0.3037291666666667 8.679354166666666 -0.6151250000000001 14.923520833333335 -0.8344375 -0.16645833333333335 1.9463541666666668 -0.31125 4.679270833333334 -0.31125 8.295895833333335 0 2.2561875000000002 0.05645833333333333 4.168416666666667 0.13916666666666666 5.76025 0.27166666666666667 5.223937500000001 4.407083333333334 9.017687500000001 9.462083333333334 9.2289375 2.261041666666667 0.09458333333333335 5.185208333333334 0.16708333333333333 8.83625 0.16708333333333333 3.65125 0 6.575208333333333 -0.0725 8.83625 -0.16708333333333333 5.055000000000001 -0.21125000000000002 9.190416666666668 -4.005000000000001 9.462083333333334 -9.228958333333335 0.08291666666666668 -1.5918333333333334 0.13916666666666666 -3.5040416666666667 0.13916666666666666 -5.760229166666667Zm4.9972916666666665 84.63543750000001C67.28229166666667 96.65416666666667 59.51854166666667 96.875 50 96.875s-17.28229166666667 -0.22083333333333335 -23.433958333333337 -0.52C26.290208333333336 91.933125 26.041666666666668 85.58854166666669 26.041666666666668 77.08333333333334c0 -10.155625 0.35437500000000005 -17.230625 0.6862500000000001 -21.63041666666667 0.15375000000000003 -2.0377083333333332 1.6460416666666668 -3.5404166666666668 3.643125 -3.709166666666667 4.090625 -0.3454166666666667 10.520000000000001 -0.7020833333333334 19.628958333333337 -0.7020833333333334 9.108958333333334 0 15.538333333333334 0.3566666666666667 19.628958333333337 0.7020833333333334 1.9970833333333335 0.16875 3.4893750000000003 1.6714583333333335 3.643125 3.709166666666667 0.33187500000000003 4.399791666666666 0.6862500000000001 11.474791666666668 0.6862500000000001 21.63041666666667 0 8.505208333333334 -0.2485416666666667 14.849791666666668 -0.524375 19.27166666666667ZM36.458333333333336 64.58333333333334c0 -1.7258333333333336 1.3991666666666667 -3.125 3.125 -3.125h20.833333333333336c1.7258333333333336 0 3.125 1.3991666666666667 3.125 3.125s-1.3991666666666667 3.125 -3.125 3.125H39.583333333333336c-1.7258333333333336 0 -3.125 -1.3991666666666667 -3.125 -3.125Zm3.125 11.458333333333334c-1.7258333333333336 0 -3.125 1.3991666666666667 -3.125 3.125s1.3991666666666667 3.125 3.125 3.125h12.5c1.7258333333333336 0 3.125 -1.3991666666666667 3.125 -3.125s-1.3991666666666667 -3.125 -3.125 -3.125h-12.5Z" clip-rule="evenodd" stroke-width="2.0833"></path>
  </g>
</svg>