<svg xmlns="http://www.w3.org/2000/svg" fill="none" viewBox="0 0 100 100" height="100" width="100">
  <g id="folder-document-copy-duplicate--folder-document-copy-duplicate-stack-directory">
    <path id="Union" fill="#000000" fill-rule="evenodd" d="M55.138125 7.785416666666667c-2.0095833333333335 -3.014291666666667 -5.398541666666667 -4.841208333333334 -9.020208333333334 -4.761687500000001 -6.3500000000000005 0.13943750000000002 -11.555000000000001 0.4890625 -15.405000000000001 0.8388541666666668 -4.610833333333334 0.41889583333333336 -8.1425 3.9771458333333336 -8.5175 8.591604166666666 -0.2025 2.4936249999999998 -0.41000000000000003 5.622416666666667 -0.5808333333333333 9.427479166666668 -0.003958333333333334 0.08687500000000001 -0.007916666666666667 0.17395833333333335 -0.011666666666666667 0.26145833333333335 -0.22270833333333334 5.0443750000000005 -0.38083333333333336 11.259791666666668 -0.38083333333333336 18.740208333333335 0 0.8433333333333334 0.0020833333333333337 1.6708333333333336 0.0060416666666666665 2.482291666666667 0.05833333333333334 12.171666666666667 0.5385416666666667 20.75541666666667 0.9883333333333334 26.203958333333336 0.023125000000000003 0.2804166666666667 0.05812500000000001 0.556875 0.10416666666666669 0.8285416666666667 0.6920833333333334 4.0754166666666665 3.917916666666667 7.117083333333333 8.123958333333334 7.465416666666668 0.700625 0.057916666666666665 1.4568750000000001 0.11625000000000002 2.2708333333333335 0.17375000000000002 5.698541666666667 0.40229166666666666 14.233750000000002 0.7683333333333334 26.429375 0.7683333333333334 8.389791666666667 0 15.047083333333335 -0.173125 20.24041666666667 -0.41229166666666667 3.4343750000000006 -0.158125 6.2285416666666675 -0.34520833333333334 8.46 -0.5297916666666668 4.48625 -0.37145833333333333 7.8575 -3.8075 8.227916666666667 -8.293958333333334 0.4797916666666667 -5.811666666666667 0.9943750000000001 -15.190625 0.9943750000000001 -28.68625 0 -6.886458333333334 -0.41020833333333334 -12.952083333333334 -0.8397916666666667 -17.414791666666666 -0.45229166666666665 -4.7008125000000005 -4.142083333333334 -8.289875 -8.849583333333333 -8.664666666666667 -5.600833333333334 -0.44591666666666674 -14.116875 -0.9265833333333334 -25.326666666666668 -0.9989375000000001 -1.81125 -0.011687500000000002 -3.510208333333334 -0.9146041666666668 -4.514791666666667 -2.42175L55.138125 7.785416666666667ZM14.972187500000002 40.88333333333333c0 -7.360416666666667 0.15127083333333333 -13.528333333333334 0.36825 -18.59 -0.6736041666666668 0.05437500000000001 -1.3143333333333334 0.109375 -1.9213958333333336 0.16458333333333336 -4.6106875 0.4189583333333334 -8.142458333333334 3.977291666666667 -8.517375 8.591666666666667 -0.47366666666666674 5.829791666666667 -0.9732916666666667 15.130833333333335 -0.9732916666666667 28.428958333333334 0 13.495625 0.5145833333333334 22.87479166666667 0.9943541666666668 28.686458333333338 0.370375 4.486458333333334 3.741625 7.922291666666668 8.227958333333333 8.293750000000001 5.605666666666667 0.46416666666666667 14.7624375 0.9422916666666666 28.70035416666667 0.9422916666666666 13.937916666666668 0 23.09479166666667 -0.4781250000000001 28.700416666666666 -0.9422916666666666 4.48625 -0.37145833333333333 7.8575 -3.8072916666666665 8.227916666666667 -8.293750000000001 0.08666666666666667 -1.0491666666666668 0.174375 -2.2147916666666667 0.26 -3.499791666666667 -5.2025 0.22916666666666669 -11.755416666666667 0.3904166666666667 -19.894583333333337 0.3904166666666667 -14.076875000000001 0 -23.408541666666668 -0.48270833333333335 -29.21604166666667 -0.9635416666666667 -7.591041666666667 -0.6283333333333333 -13.3241875 -6.536250000000001 -13.941020833333335 -14.008125000000001 -0.4949583333333334 -5.995625 -1.0155416666666668 -15.546666666666667 -1.0155416666666668 -29.200625000000002Z" clip-rule="evenodd" stroke-width="2.0833"></path>
  </g>
</svg>