<svg xmlns="http://www.w3.org/2000/svg" fill="none" viewBox="0 0 100 100" id="Hamburger-Menu-1--Streamline-Plump" height="100" width="100">
  <desc>
    Hamburger Menu 1 Streamline Icon: https://streamlinehq.com
  </desc>
  <g id="hamburger-menu-1--button-parallel-horizontal-lines-menu-navigation-three-hamburger">
    <path id="Union" fill="#000000" fill-rule="evenodd" d="M50 5.208333333333334c21.22041666666667 0 35.30645833333333 0.55 41.461875000000006 0.8533333333333334 3.354166666666667 0.16531250000000003 6.61 2.4676458333333335 7.1725 6.266437500000001C98.81708333333334 13.561875 98.95833333333334 15.039604166666667 98.95833333333334 16.666666666666668c0 1.6270625 -0.14125000000000001 3.104791666666667 -0.32395833333333335 4.338541666666667 -0.5625000000000001 3.79875 -3.8183333333333334 6.10125 -7.1725 6.2664583333333335C85.30645833333334 27.575000000000003 71.22041666666668 28.125000000000004 50 28.125000000000004c-21.22041666666667 0 -35.306562500000005 -0.55 -41.46183333333333 -0.8533333333333334 -3.3542291666666673 -0.16520833333333335 -6.609987500000001 -2.467708333333334 -7.1725770833333335 -6.2664583333333335C1.182875 19.771458333333335 1.0416666666666667 18.293729166666665 1.0416666666666667 16.666666666666668c0 -1.6270625 0.14120833333333335 -3.104791666666667 0.3239229166666667 -4.3385625C1.9281791666666668 8.529312500000001 5.183937500000001 6.226979166666667 8.538166666666667 6.061666666666667 14.693437500000002 5.758333333333334 28.779583333333335 5.208333333333334 50 5.208333333333334Zm0 33.333333333333336c21.22041666666667 0 35.30645833333333 0.55 41.461875000000006 0.8533333333333334 3.354166666666667 0.16520833333333335 6.61 2.467708333333334 7.1725 6.2664583333333335 0.18270833333333333 1.23375 0.32395833333333335 2.7114583333333337 0.32395833333333335 4.338541666666667 0 1.6270833333333334 -0.14125000000000001 3.104791666666667 -0.32395833333333335 4.338541666666667 -0.5625000000000001 3.79875 -3.8183333333333334 6.10125 -7.1725 6.2664583333333335C85.30645833333334 60.90833333333334 71.22041666666668 61.458333333333336 50 61.458333333333336c-21.22041666666667 0 -35.306562500000005 -0.55 -41.46183333333333 -0.8533333333333334 -3.3542291666666673 -0.16520833333333335 -6.609987500000001 -2.467708333333334 -7.1725770833333335 -6.2664583333333335C1.182875 53.10479166666667 1.0416666666666667 51.62708333333333 1.0416666666666667 50c0 -1.6270833333333334 0.14120833333333335 -3.104791666666667 0.3239229166666667 -4.338541666666667 0.5625895833333333 -3.79875 3.818347916666667 -6.10125 7.1725770833333335 -6.2664583333333335C14.693437500000002 39.09166666666667 28.779583333333335 38.54166666666667 50 38.54166666666667Zm41.461875000000006 34.186666666666675C85.30645833333334 72.42500000000001 71.22041666666668 71.875 50 71.875c-21.22041666666667 0 -35.306562500000005 0.55 -41.46183333333333 0.8533333333333334 -3.3542291666666673 0.16520833333333335 -6.609987500000001 2.467708333333334 -7.1725770833333335 6.2664583333333335C1.182875 80.22854166666667 1.0416666666666667 81.70625000000001 1.0416666666666667 83.33333333333334c0 1.6270833333333334 0.14120833333333335 3.104791666666667 0.3239229166666667 4.338541666666667 0.5625895833333333 3.79875 3.818347916666667 6.10125 7.1725770833333335 6.2664583333333335C14.693437500000002 94.24166666666667 28.779583333333335 94.79166666666667 50 94.79166666666667c21.22041666666667 0 35.30645833333333 -0.55 41.461875000000006 -0.8533333333333334 3.354166666666667 -0.16520833333333335 6.61 -2.467708333333334 7.1725 -6.2664583333333335 0.18270833333333333 -1.23375 0.32395833333333335 -2.7114583333333337 0.32395833333333335 -4.338541666666667 0 -1.6270833333333334 -0.14125000000000001 -3.104791666666667 -0.32395833333333335 -4.338541666666667 -0.5625000000000001 -3.79875 -3.8183333333333334 -6.10125 -7.1725 -6.2664583333333335Z" clip-rule="evenodd" stroke-width="2.0833"></path>
  </g>
</svg>