<svg xmlns="http://www.w3.org/2000/svg" fill="none" viewBox="0 0 100 100" id="Heart-Circle--Streamline-Plump" height="100" width="100">
  <desc>
    Heart Circle Streamline Icon: https://streamlinehq.com
  </desc>
  <g id="Solid/Interface Essential/Bookmark Favorite/heart-circle--reward-social-rating-media-heart-it-like-favorite-love">
    <path id="Subtract" fill="#000000" fill-rule="evenodd" d="M50 98.95833333333334C22.96104166666667 98.95833333333334 1.0416666666666667 77.03895833333334 1.0416666666666667 50S22.96104166666667 1.0416666666666667 50 1.0416666666666667 98.95833333333334 22.96104166666667 98.95833333333334 50 77.03895833333334 98.95833333333334 50 98.95833333333334ZM23.03625 32.885625000000005C25.932291666666668 29.391041666666666 30.27291666666667 27.083333333333336 35.97645833333333 27.083333333333336c5.192916666666667 0 8.943125 2.329166666666667 11.369166666666668 4.625416666666667 1.1885416666666668 1.1250000000000002 2.0672916666666667 2.2485416666666667 2.6558333333333333 3.1031250000000004 0.588125 -0.8547916666666667 1.4666666666666668 -1.9781250000000001 2.6550000000000002 -3.1031250000000004C55.08229166666667 29.41229166666667 58.83229166666667 27.083333333333336 64.02708333333334 27.083333333333336c5.702708333333334 0 10.0425 2.3077083333333333 12.937916666666668 5.802500000000001C79.84020833333335 36.35625 81.25 40.942708333333336 81.25 45.48604166666667c0 6.8775 -3.1725 13.048333333333336 -7.8170833333333345 18.408125000000002 -4.643958333333333 5.358958333333334 -10.820625000000001 9.980625000000002 -16.993125000000003 13.789375000000001 -3.948125 2.4360416666666667 -8.927916666666668 2.4360416666666667 -12.87625 0 -6.1729166666666675 -3.808541666666667 -12.350416666666668 -8.430416666666666 -16.995 -13.789166666666668C21.923333333333332 58.53458333333334 18.75 52.36375 18.75 45.48604166666667c0 -4.543333333333334 1.41025 -9.129999999999999 4.28625 -12.600416666666666Z" clip-rule="evenodd" stroke-width="2.0833"></path>
  </g>
</svg>