<svg xmlns="http://www.w3.org/2000/svg" fill="none" viewBox="0 0 100 100" id="Heart--Streamline-Plump" height="100" width="100">
  <desc>
    Heart Streamline Icon: https://streamlinehq.com
  </desc>
  <g id="Solid/Interface Essential/Bookmark Favorite/heart--reward-social-rating-media-heart-it-like-favorite-love">
    <path id="Subtract" fill="#000000" fill-rule="evenodd" d="M1 37.72104166666667c0 -14.903125000000001 11.794583333333335 -29.606250000000003 29.5925 -29.606250000000003 6.890416666666667 0 12.306041666666667 2.2885416666666667 15.981041666666666 4.5633333333333335 1.385625 0.8575000000000002 2.5312500000000004 1.7175000000000002 3.4264583333333336 2.461666666666667 0.8952083333333335 -0.7441666666666668 2.0408333333333335 -1.6041666666666667 3.4264583333333336 -2.461666666666667 3.6750000000000003 -2.274791666666667 9.090625000000001 -4.5633333333333335 15.981041666666666 -4.5633333333333335l0.0375 0.00020833333333333335c17.32354166666667 0.20770833333333333 29.555000000000003 14.635833333333334 29.555000000000003 29.60604166666667 0 12.073958333333334 -5.587083333333334 22.320208333333333 -13.458333333333334 30.86416666666667 -7.852291666666667 8.523333333333333 -18.154375 15.553333333333335 -28.06083333333334 21.290000000000003 -4.627916666666667 2.68 -10.333750000000002 2.68 -14.961458333333335 0 -9.906666666666668 -5.736666666666667 -20.208750000000002 -12.766666666666667 -28.061041666666668 -21.290000000000003C6.587083333333334 60.041250000000005 1 49.795 1 37.72104166666667Zm70.67541666666666 -18.055833333333336c-2.257916666666667 -0.4552083333333334 -4.457083333333334 1.0058333333333334 -4.912083333333334 3.2637500000000004 -0.4554166666666667 2.257708333333334 1.0058333333333334 4.456875 3.263541666666667 4.912083333333334 4.31125 0.8691666666666668 8.16625 4.200833333333334 9.257083333333332 9.295625000000001 0.48229166666666673 2.252291666666667 2.6987500000000004 3.6868750000000006 4.950833333333334 3.205 2.252083333333333 -0.48229166666666673 3.6868750000000006 -2.6987500000000004 3.204791666666667 -4.951041666666667 -1.8233333333333335 -8.516666666666667 -8.375416666666668 -14.235833333333334 -15.764166666666668 -15.725416666666668Z" clip-rule="evenodd" stroke-width="2.0833"></path>
  </g>
</svg>