<svg xmlns="http://www.w3.org/2000/svg" fill="none" viewBox="0 0 100 100" id="Help-Question-1--Streamline-Plump" height="100" width="100">
  <desc>
    Help Question 1 Streamline Icon: https://streamlinehq.com
  </desc>
  <g id="Solid/Interface Essential/Help/help-question-1--circle-faq-frame-help-info-mark-more-query-question">
    <path id="Subtract" fill="#000000" fill-rule="evenodd" d="M50 98.95833333333334c27.038958333333333 0 48.958333333333336 -21.919375000000002 48.958333333333336 -48.958333333333336S77.03895833333334 1.0416666666666667 50 1.0416666666666667 1.0416666666666667 22.96104166666667 1.0416666666666667 50 22.96104166666667 98.95833333333334 50 98.95833333333334Zm-8.811250000000001 -25.347916666666666c0 -3.6437500000000003 2.9537500000000003 -6.597291666666667 6.5975 -6.597291666666667 3.6435416666666667 0 6.597291666666667 2.9535416666666667 6.597291666666667 6.597291666666667 0 3.6435416666666667 -2.9537500000000003 6.597291666666667 -6.597291666666667 6.597291666666667 -3.6437500000000003 0 -6.5975 -2.9537500000000003 -6.5975 -6.597291666666667Zm0.30291666666666667 -50.126250000000006c-3.48375 2.256041666666667 -5.6535416666666665 5.136666666666667 -6.328541666666667 7.8308333333333335 -0.6577083333333333 2.6256250000000003 -0.12833333333333335 4.798958333333334 0.9125000000000001 6.193333333333333 1.0035416666666668 1.344375 2.6825000000000006 2.2502083333333336 5.064583333333334 2.0610416666666667 0.5789583333333334 -0.04583333333333334 1.2850000000000001 -0.313125 2.252083333333333 -0.8891666666666668 2.226875 -1.3262500000000002 6.320625000000001 -3.7212500000000004 9.549375000000001 -5.356666666666667 1.5197916666666669 -0.7697916666666668 3.37625 -0.18041666666666667 4.173541666666667 1.3252083333333333 0.7975 1.5054166666666668 0.24208333333333334 3.372291666666667 -1.2487500000000002 4.197083333333334 -0.6441666666666667 0.3564583333333334 -1.3166666666666669 0.718125 -2.004166666666667 1.0879166666666666 -2.52875 1.3602083333333335 -5.269791666666667 2.834791666666667 -7.6329166666666675 4.596875000000001 -3.1068750000000005 2.3168750000000005 -4.498125 4.375625 -4.498125 6.210625l-0.011041666666666667 7.935625000000001c-0.0016666666666666668 1.1516666666666666 0.9314583333333334 2.08625 2.0831250000000003 2.08625h6.538958333333334c1.1504166666666669 0 2.0833333333333335 -0.9327083333333334 2.0833333333333335 -2.0833333333333335v-1.7347916666666667c0 -1.15125 0.6327083333333334 -2.209166666666667 1.646875 -2.753541666666667 5.182291666666667 -2.7816666666666667 9.341458333333334 -5.129166666666667 12.258541666666668 -7.961458333333334 2.755416666666667 -2.6752083333333334 4.342291666666666 -5.73 4.342291666666666 -10.11875 0 -4.269583333333333 -1.2910416666666669 -8.353333333333333 -3.865625 -11.320000000000002C64.29604166666668 21.896875 60.330625000000005 19.791666666666668 54.353750000000005 19.791666666666668c-4.910416666666667 0 -9.417500000000002 1.461875 -12.862083333333334 3.6925000000000003Z" clip-rule="evenodd" stroke-width="2.0833"></path>
  </g>
</svg>