<svg xmlns="http://www.w3.org/2000/svg" fill="none" viewBox="0 0 100 100" id="Home-Chimney-1--Streamline-Plump" height="100" width="100">
  <desc>
    Home Chimney 1 Streamline Icon: https://streamlinehq.com
  </desc>
  <g id="Solid/Interface Essential/Home/home-chimney-1--home-chimney-house-roof-shelter">
    <path id="Subtract" fill="#000000" fill-rule="evenodd" d="M71.69791666666667 3.6630000000000003c1.5014583333333336 -0.27916666666666673 3.4204166666666667 -0.5380000000000001 5.388958333333334 -0.5380000000000001 1.9685416666666666 0 3.8875000000000006 0.25883333333333336 5.388958333333334 0.5380000000000001 2.334375 0.4340833333333333 3.837291666666667 2.5005833333333336 3.856875 4.7635000000000005 0.04479166666666667 5.1930625 0.12916666666666668 15.762250000000002 0.12916666666666668 21.666l-0.0004166666666666667 1.1770833333333333c4.106666666666667 4.8914583333333335 7.801458333333334 9.811041666666666 10.827291666666667 14.211458333333335 2.9270833333333335 4.256666666666667 0.44 9.995625 -4.861250000000001 10.487083333333334 -1.1377083333333335 0.10562500000000001 -2.4643750000000004 0.2147916666666667 -4.004791666666667 0.323125 -0.16979166666666667 12.054791666666667 -0.4802083333333334 22.525 -0.69875 28.91104166666667 -0.181875 5.311458333333334 -4.0720833333333335 9.87125 -9.5625 10.439166666666667 -5.645833333333334 0.5841666666666667 -14.909375000000002 1.235 -28.157708333333336 1.235 -13.247916666666667 0 -22.506458333333335 -0.6508333333333334 -28.147708333333334 -1.235 -5.486583333333334 -0.5679166666666667 -9.37475 -5.122916666666667 -9.559270833333334 -10.430625000000001 -0.2219791666666667 -6.385625000000001 -0.5375000000000001 -16.85979166666667 -0.7100625 -28.919375000000002 -1.5420625000000001 -0.10854166666666668 -2.8701250000000003 -0.21791666666666668 -4.008708333333334 -0.32354166666666667 -5.299791666666667 -0.4914583333333334 -7.787975 -6.2285416666666675 -4.861812500000001 -10.485625 4.981895833333334 -7.2475000000000005 11.7806875 -15.902291666666667 19.2444375 -23.520833333333332 7.406250000000001 -7.559687500000001 15.717916666666667 -14.360916666666666 23.74479166666667 -17.56441666666667 2.760625 -1.1018333333333334 5.835625 -1.1020208333333334 8.596666666666668 -0.0003541666666666667 4.482083333333334 1.7884583333333335 9.0525 4.698625 13.504166666666668 8.236166666666668 0.012708333333333335 -1.5979583333333336 0.02479166666666667 -3.0381875 0.034791666666666665 -4.206354166666667 0.019583333333333335 -2.262916666666667 1.5225000000000002 -4.329416666666668 3.856875 -4.7635000000000005ZM60.813750000000006 87.33062500000001c2.111041666666667 -0.069375 3.7731250000000003 -1.8081250000000002 3.7731250000000003 -3.9202083333333335 0 -5.0027083333333335 -0.09666666666666666 -13.209583333333335 -0.17520833333333333 -19.04104166666667 -0.053541666666666675 -3.9789583333333334 -2.922916666666667 -7.36 -6.884375 -7.736666666666667C55.271875 56.41854166666667 52.655833333333334 56.25000000000001 50.00354166666667 56.25000000000001c-2.6522916666666667 0 -5.2683333333333335 0.16854166666666667 -7.5235416666666675 0.3827083333333334 -3.961666666666667 0.37666666666666665 -6.831041666666668 3.757708333333334 -6.884583333333334 7.736666666666667 -0.07833333333333334 5.831458333333334 -0.17520833333333333 14.038333333333336 -0.17520833333333333 19.04104166666667 0 2.1125000000000003 1.6625000000000003 3.8514583333333334 3.77375 3.9208333333333334 3.2012500000000004 0.10500000000000001 6.7943750000000005 0.16875 10.801666666666668 0.16875 4.013750000000001 0 7.612500000000001 -0.06395833333333334 10.818125000000002 -0.169375Z" clip-rule="evenodd" stroke-width="2.0833"></path>
  </g>
</svg>