<svg xmlns="http://www.w3.org/2000/svg" fill="none" viewBox="0 0 100 100" id="Hourglass--Streamline-Plump" height="100" width="100">
  <desc>
    Hourglass Streamline Icon: https://streamlinehq.com
  </desc>
  <g id="Solid/Interface Essential/Time/hourglass--hourglass-loading-measure-clock-time">
    <path id="Subtract" fill="#000000" fill-rule="evenodd" d="M8.333333333333334 1.0416666666666667c-2.3011875 0 -4.166666666666667 1.8654791666666668 -4.166666666666667 4.166666666666667s1.8654791666666668 4.166666666666667 4.166666666666667 4.166666666666667h4.731458333333334c-0.4345 12.483541666666667 4.052833333333334 21.075 8.938541666666667 27.426250000000003 1.8262500000000002 2.3739583333333334 3.816666666666667 4.555833333333333 5.4906250000000005 6.390833333333334 0.7625000000000001 0.8356250000000001 1.4591666666666667 1.5993750000000002 2.0450000000000004 2.276666666666667 1.0041666666666667 1.1610416666666667 1.7239583333333335 2.1014583333333334 2.189375 2.9160416666666666 0.45958333333333334 0.8041666666666667 0.5650000000000001 1.3041666666666667 0.5650000000000001 1.6152083333333334s-0.10541666666666667 0.8110416666666667 -0.5650000000000001 1.6152083333333334c-0.4654166666666667 0.8145833333333334 -1.1852083333333334 1.7550000000000001 -2.189375 2.9160416666666666 -0.5856250000000001 0.6770833333333334 -1.2829166666666667 1.4412500000000001 -2.044791666666667 2.276666666666667 -1.6739583333333334 1.8347916666666668 -3.6645833333333333 4.016875 -5.490833333333334 6.390833333333334C17.117625 69.55000000000001 12.630270833333334 78.14145833333333 13.064791666666666 90.625H8.333333333333334c-2.3011875 0 -4.166666666666667 1.8654166666666667 -4.166666666666667 4.166666666666667s1.8654791666666668 4.166666666666667 4.166666666666667 4.166666666666667h83.33333333333334c2.30125 0 4.166666666666667 -1.8654166666666667 4.166666666666667 -4.166666666666667s-1.8654166666666667 -4.166666666666667 -4.166666666666667 -4.166666666666667h-4.731041666666667c0.43520833333333336 -12.483333333333334 -4.051458333333334 -21.07479166666667 -8.936875 -27.42604166666667 -1.8260416666666668 -2.3741666666666665 -3.8162500000000006 -4.555833333333333 -5.490000000000001 -6.390833333333334 -0.7622916666666667 -0.8356250000000001 -1.4589583333333336 -1.5995833333333336 -2.044791666666667 -2.276875 -1.0041666666666667 -1.1610416666666667 -1.7237500000000001 -2.10125 -2.189375 -2.9160416666666666 -0.45958333333333334 -0.8041666666666667 -0.5647916666666667 -1.3041666666666667 -0.5647916666666667 -1.6152083333333334s0.10520833333333335 -0.8110416666666667 0.5647916666666667 -1.6152083333333334c0.46562500000000007 -0.8147916666666667 1.1852083333333334 -1.7550000000000001 2.189375 -2.9160416666666666 0.5854166666666668 -0.6768750000000001 1.2816666666666667 -1.4402083333333335 2.0433333333333334 -2.2752083333333335l0.0014583333333333334 -0.0016666666666666668c1.67375 -1.8350000000000002 3.6639583333333334 -4.016666666666667 5.490000000000001 -6.390833333333334 4.885416666666668 -6.35125 9.372083333333334 -14.942708333333336 8.936875 -27.42604166666667H91.66666666666667c2.30125 0 4.166666666666667 -1.8654791666666668 4.166666666666667 -4.166666666666667s-1.8654166666666667 -4.166666666666667 -4.166666666666667 -4.166666666666667H8.333333333333334Zm28.454375 19.846875c2.9335416666666667 -0.5586041666666667 7.296875 -1.096875 13.215000000000002 -1.096875 5.918125000000001 0 10.280000000000001 0.5382708333333334 13.212291666666667 1.096875 1.4658333333333335 0.27916666666666673 2.5725 0.563125 3.3364583333333333 0.786875 0.381875 0.11166666666666668 0.6777083333333334 0.20833333333333337 0.8897916666666666 0.28145833333333337 0.10583333333333333 0.036666666666666674 0.19083333333333335 0.0675 0.255 0.09145833333333335l0.08083333333333334 0.030625000000000003 0.02875 0.011250000000000001 0.011458333333333334 0.004583333333333334 0.007500000000000001 0.002916666666666667s0.0020833333333333337 0.0008333333333333334 -1.1583333333333334 2.9020833333333336l1.1604166666666669 -2.9012500000000006c1.5362500000000001 0.614375 2.327291666666667 2.32 1.8041666666666667 3.8895833333333334 -1.2889583333333334 3.866666666666667 -4.593125 7.952291666666667 -8.038541666666667 10.991041666666666 -1.764375 1.5562500000000001 -3.684791666666667 2.9447916666666667 -5.587708333333334 3.961041666666667 -1.8445833333333335 0.9852083333333334 -3.946041666666667 1.7683333333333335 -6.000416666666667 1.7683333333333335 -2.0539583333333336 0 -4.155833333333334 -0.7831250000000001 -6.00125 -1.7679166666666668 -1.9035416666666667 -1.01625 -3.8250000000000006 -2.404583333333333 -5.590625 -3.9606250000000003 -3.4475000000000002 -3.0385416666666667 -6.755000000000001 -7.124375000000001 -8.044166666666667 -10.991875 -0.5233333333333333 -1.5700000000000003 0.26833333333333337 -3.276041666666667 1.8052083333333335 -3.89L33.33291666666667 25c-1.159375 -2.9018750000000004 -1.1570833333333335 -2.902916666666667 -1.1570833333333335 -2.902916666666667l0.007291666666666668 -0.002916666666666667 0.011458333333333334 -0.004375 0.02875 -0.011250000000000001 0.08083333333333334 -0.030625000000000003c0.06416666666666668 -0.023958333333333335 0.14916666666666667 -0.05458333333333334 0.25520833333333337 -0.09125 0.21208333333333335 -0.07333333333333335 0.508125 -0.16979166666666667 0.8902083333333334 -0.28145833333333337 0.7641666666666668 -0.2235416666666667 1.8716666666666668 -0.5075000000000001 3.3381250000000002 -0.7866666666666667ZM73.95833333333334 84.375c0 1.7258333333333336 -1.3991666666666667 3.125 -3.125 3.125H29.166666666666668c-1.7258333333333336 0 -3.125 -1.3991666666666667 -3.125 -3.125 0 -2.6102083333333335 1.0777083333333333 -5.383750000000001 2.490416666666667 -7.873541666666667 1.4520833333333334 -2.559375 3.4445833333333336 -5.144791666666667 5.682708333333334 -7.452916666666667 2.237291666666667 -2.3072916666666665 4.796458333333333 -4.416041666666667 7.425833333333334 -5.968125000000001C44.223125 61.55604166666667 47.131041666666675 60.41666666666667 50 60.41666666666667s5.776875 1.1393750000000002 8.359375000000002 2.6637500000000003c2.629375 1.5520833333333335 5.188541666666667 3.6608333333333336 7.425833333333334 5.968125000000001 2.238125 2.3081250000000004 4.230625 4.893541666666667 5.682708333333334 7.452916666666667C72.88062500000001 78.99125 73.95833333333334 81.76479166666668 73.95833333333334 84.375Z" clip-rule="evenodd" stroke-width="2.0833"></path>
  </g>
</svg>