<svg xmlns="http://www.w3.org/2000/svg" fill="none" viewBox="0 0 100 100" id="Invisible-1--Streamline-Plump" height="100" width="100">
  <desc>
    Invisible 1 Streamline Icon: https://streamlinehq.com
  </desc>
  <g id="Solid/Interface Essential/View/invisible-1--disable-eye-eyeball-hide-off-view">
    <path id="Union" fill="#000000" fill-rule="evenodd" d="M12.231916666666667 3.3930833333333332c-2.4407708333333336 -2.4407770833333333 -6.398062500000001 -2.4407770833333333 -8.838833333333334 0 -2.4407770833333333 2.4407708333333336 -2.4407770833333333 6.398062500000001 0 8.838833333333334L87.76812500000001 96.606875c2.4408333333333334 2.4408333333333334 6.397916666666667 2.4408333333333334 8.838750000000001 0 2.4408333333333334 -2.4408333333333334 2.4408333333333334 -6.397916666666667 0 -8.838750000000001l-12.306875000000002 -12.306875000000002c6.707291666666667 -6.049166666666667 11.720000000000002 -13.855416666666667 14.258541666666668 -22.681875 0.5256250000000001 -1.8277083333333335 0.5247916666666668 -3.767291666666667 -0.002291666666666667 -5.5945833333333335C92.59604166666668 26.520833333333336 73.07104166666667 11.458333333333334 50.001041666666666 11.458333333333334c-8.629583333333334 0 -16.763125000000002 2.107583333333334 -23.87625 5.827541666666667L12.231916666666667 3.3930833333333332ZM66.92354166666668 58.08458333333334 41.91604166666667 33.07729166666667c6.969583333333334 -3.329166666666667 15.569583333333334 -2.107291666666667 21.34229166666667 3.6652083333333336 5.7725 5.772708333333334 6.9941666666666675 14.372708333333335 3.6652083333333336 21.342083333333335ZM1.4353125 47.220625000000005c1.9677708333333335 -6.842291666666667 5.4225208333333335 -13.071458333333334 10.000833333333334 -18.344166666666666L67.91666666666667 85.356875c-5.573125 2.05875 -11.616041666666668 3.184791666666667 -17.923750000000002 3.184791666666667C26.92291666666667 88.54166666666667 7.397770833333334 73.47916666666667 1.4375145833333336 52.81520833333333c-0.5270479166666667 -1.8272916666666668 -0.5278104166666667 -3.766875 -0.0022020833333333337 -5.5945833333333335Z" clip-rule="evenodd" stroke-width="2.0833"></path>
  </g>
</svg>