<svg xmlns="http://www.w3.org/2000/svg" fill="none" viewBox="0 0 100 100" id="Layers-2--Streamline-Plump" height="100" width="100">
  <desc>
    Layers 2 Streamline Icon: https://streamlinehq.com
  </desc>
  <g id="Solid/Interface Essential/Align/layers-2--design-layer-layers-pile-stack-align">
    <path id="Union" fill="#000000" fill-rule="evenodd" d="M36.416250000000005 66.94583333333334c5.125416666666667 0.36020833333333335 13.637500000000001 0.7625000000000001 26.083750000000002 0.7625000000000001 12.446250000000001 0 20.958333333333336 -0.40229166666666666 26.083750000000002 -0.7625000000000001 5.00125 -0.35125 9.046458333333334 -4.109375 9.540208333333334 -9.20375 0.4156250000000001 -4.289583333333334 0.8343750000000001 -10.922500000000001 0.8343750000000001 -20.242083333333337 0 -9.319583333333334 -0.41875000000000007 -15.9525 -0.8343750000000001 -20.242145833333332 -0.49375 -5.094270833333334 -4.538958333333333 -8.852395833333334 -9.540208333333334 -9.20375C83.45833333333334 7.694041666666667 74.94625 7.291666666666667 62.50000000000001 7.291666666666667c-12.446250000000001 0 -20.958333333333336 0.40237500000000004 -26.083750000000002 0.7624375000000001 -5.00125 0.3513333333333334 -9.046458333333334 4.109479166666667 -9.540208333333334 9.20375C26.460208333333338 21.547500000000003 26.041666666666668 28.18041666666667 26.041666666666668 37.5s0.4185416666666667 15.9525 0.8343750000000001 20.242083333333337c0.49375 5.094375 4.538958333333333 8.852500000000001 9.540208333333334 9.20375ZM62.50000000000001 72.91625c-12.558125 0 -21.19229166666667 -0.4060416666666667 -26.44875 -0.7754166666666666 -7.444375000000001 -0.5229166666666667 -13.611250000000002 -6.179375 -14.359166666666669 -13.896666666666668C21.258958333333336 53.77583333333334 20.833333333333336 46.974583333333335 20.833333333333336 37.499583333333334c0 -6.826041666666667 0.22083333333333335 -12.264375000000001 0.50625 -16.442500000000003 -3.757854166666667 1.2347916666666667 -6.558104166666666 4.517083333333334 -6.963541666666667 8.700208333333334 -0.4157291666666667 4.289583333333334 -0.8343750000000001 10.922708333333333 -0.8343750000000001 20.24229166666667 0 9.319375 0.41864583333333333 15.9525 0.8343750000000001 20.242083333333337 0.4937291666666667 5.094166666666666 4.538916666666667 8.852291666666668 9.540208333333334 9.20375 5.125416666666667 0.36000000000000004 13.637500000000001 0.7625000000000001 26.083750000000002 0.7625000000000001 12.446250000000001 0 20.958333333333336 -0.4025 26.083750000000002 -0.7625000000000001 4.273541666666667 -0.30020833333333335 7.849166666666667 -3.0879166666666666 9.107083333333335 -7.071458333333333 -5.2927083333333345 0.28875 -12.766458333333334 0.5422916666666666 -22.690833333333337 0.5422916666666666Zm-12.5 12.5c-12.558125 0 -21.19229166666667 -0.4060416666666667 -26.44875 -0.7754166666666666 -7.4444375 -0.5229166666666667 -13.611291666666666 -6.179375 -14.359250000000001 -13.896666666666668C8.758937500000002 66.27583333333334 8.333333333333334 59.474583333333335 8.333333333333334 49.99958333333334c0 -6.826250000000001 0.22089583333333335 -12.264375000000001 0.5063333333333334 -16.442500000000003 -3.7579375 1.2347916666666667 -6.558187500000001 4.517083333333334 -6.963618750000001 8.700208333333334C1.4603083333333335 46.54687500000001 1.0416666666666667 53.18 1.0416666666666667 62.49958333333334c0 9.319375 0.41863958333333334 15.9525 0.8343770833333334 20.242083333333337 0.49372708333333337 5.094166666666666 4.538914583333333 8.852291666666668 9.54020625 9.20375 5.1254583333333334 0.36000000000000004 13.637500000000001 0.7625000000000001 26.083750000000002 0.7625000000000001 12.446250000000001 0 20.958333333333336 -0.4025 26.083750000000002 -0.7625000000000001 4.273541666666667 -0.30020833333333335 7.849166666666667 -3.0879166666666666 9.107083333333335 -7.071458333333333 -5.2927083333333345 0.28875 -12.766458333333334 0.5422916666666666 -22.690833333333337 0.5422916666666666Z" clip-rule="evenodd" stroke-width="2.0833"></path>
  </g>
</svg>