<svg xmlns="http://www.w3.org/2000/svg" fill="none" viewBox="0 0 100 100" id="Layers-1--Streamline-Plump" height="100" width="100">
  <desc>
    Layers 1 Streamline Icon: https://streamlinehq.com
  </desc>
  <g id="Solid/Interface Essential/Align/layers-1--design-layer-layers-pile-stack-align">
    <path id="Union" fill="#000000" fill-rule="evenodd" d="M46.56166666666667 5.875229166666667c2.2664583333333335 -0.5419791666666667 4.609166666666667 -0.5419791666666667 6.875625 0 4.176458333333334 0.9986875000000001 12.521875000000001 3.3751875000000005 22.905833333333334 8.319854166666667 8.087083333333334 3.8510208333333336 13.688333333333334 7.193875 17.141666666666666 9.464083333333335 4.052291666666667 2.6637500000000003 4.052291666666667 8.356458333333334 0 11.020208333333334 -3.4533333333333336 2.270208333333333 -9.054583333333333 5.613125000000001 -17.141666666666666 9.464166666666667 -10.383958333333334 4.944583333333334 -18.729375 7.321250000000001 -22.905833333333334 8.319791666666667 -2.2664583333333335 0.5420833333333334 -4.609166666666667 0.5420833333333334 -6.875625 0 -4.176458333333334 -0.9985416666666668 -12.521875000000001 -3.3752083333333336 -22.905625 -8.319791666666667 -8.087208333333335 -3.851041666666667 -13.688625000000002 -7.193958333333334 -17.141958333333335 -9.464166666666667 -4.052208333333334 -2.6637500000000003 -4.0521875000000005 -8.356458333333334 0 -11.020208333333334 3.4533333333333336 -2.270208333333333 9.05475 -5.6130625 17.141958333333335 -9.464083333333335 10.383750000000001 -4.944666666666667 18.729166666666668 -7.3211666666666675 22.905625 -8.319854166666667ZM8.4803125 43.233333333333334c3.2984791666666666 1.9208333333333336 7.4365000000000006 4.1468750000000005 12.488645833333335 6.5525 10.849166666666667 5.166250000000001 19.620833333333334 7.675208333333334 24.139166666666668 8.755625 3.2220833333333334 0.7704166666666667 6.560625 0.7704166666666667 9.782708333333336 0 4.5183333333333335 -1.0804166666666666 13.290000000000001 -3.5891666666666673 24.139375 -8.755625 5.051875000000001 -2.405625 9.190000000000001 -4.631666666666667 12.488541666666668 -6.5525 0.7195833333333334 0.4491666666666667 1.374375 0.8695833333333334 1.9660416666666667 1.2585416666666667 4.052291666666667 2.6639583333333334 4.052291666666667 8.356666666666667 0 11.020416666666666 -3.4533333333333336 2.270208333333333 -9.054583333333333 5.613125000000001 -17.141666666666666 9.463958333333334 -10.383958333333334 4.944791666666667 -18.729375 7.321250000000001 -22.905833333333334 8.32 -2.2664583333333335 0.541875 -4.609166666666667 0.541875 -6.875625 0 -4.176458333333334 -0.99875 -12.521875000000001 -3.3752083333333336 -22.905625 -8.32 -8.087208333333335 -3.8508333333333336 -13.688625000000002 -7.1937500000000005 -17.141958333333335 -9.463958333333334 -4.052208333333334 -2.6637500000000003 -4.0521875000000005 -8.356458333333334 0 -11.020416666666666 0.5917708333333335 -0.38895833333333335 1.2466041666666667 -0.8093750000000001 1.966229166666667 -1.2585416666666667Zm0 20.833333333333336c3.2984791666666666 1.9208333333333336 7.4365000000000006 4.1468750000000005 12.488645833333335 6.5525 10.849166666666667 5.166250000000001 19.620833333333334 7.675208333333334 24.139166666666668 8.755625 3.2220833333333334 0.7704166666666667 6.560625 0.7704166666666667 9.782708333333336 0 4.5183333333333335 -1.0804166666666666 13.290000000000001 -3.5893750000000004 24.139375 -8.755625 5.051875000000001 -2.405625 9.190000000000001 -4.631666666666667 12.488541666666668 -6.5525 0.7195833333333334 0.4491666666666667 1.374375 0.8695833333333334 1.9660416666666667 1.2585416666666667 4.052291666666667 2.6639583333333334 4.052291666666667 8.356666666666667 0 11.020416666666666 -3.4533333333333336 2.270208333333333 -9.054583333333333 5.612916666666667 -17.141666666666666 9.463958333333334 -10.383958333333334 4.944791666666667 -18.729375 7.321250000000001 -22.905833333333334 8.32 -2.2664583333333335 0.541875 -4.609166666666667 0.541875 -6.875625 0 -4.176458333333334 -0.99875 -12.521875000000001 -3.3752083333333336 -22.905625 -8.32 -8.087208333333335 -3.851041666666667 -13.688625000000002 -7.1937500000000005 -17.141958333333335 -9.463958333333334 -4.052208333333334 -2.6637500000000003 -4.0521875000000005 -8.356458333333334 0 -11.020416666666666 0.5917708333333335 -0.38895833333333335 1.2466041666666667 -0.8093750000000001 1.966229166666667 -1.2585416666666667Z" clip-rule="evenodd" stroke-width="2.0833"></path>
  </g>
</svg>