<svg xmlns="http://www.w3.org/2000/svg" fill="none" viewBox="0 0 100 100" id="Lightbulb-On--Streamline-Plump" height="100" width="100">
  <desc>
    Lightbulb On Streamline Icon: https://streamlinehq.com
  </desc>
  <g id="lightbulb-on--lighting-light-shine-incandescent-bulb-lights">
    <path id="Union" fill="#000000" fill-rule="evenodd" d="M50 0.5208333333333334c2.58875 0 4.6875 2.098666666666667 4.6875 4.6875v4.166666666666667c0 2.5888333333333335 -2.0987500000000003 4.6875 -4.6875 4.6875s-4.6875 -2.098666666666667 -4.6875 -4.6875v-4.166666666666667c0 -2.5888333333333335 2.0987500000000003 -4.6875 4.6875 -4.6875ZM5.208333333333334 45.3125C2.6195000000000004 45.3125 0.5208333333333334 47.41125 0.5208333333333334 50s2.098666666666667 4.6875 4.6875 4.6875h4.166666666666667c2.5888333333333335 0 4.6875 -2.0987500000000003 4.6875 -4.6875s-2.098666666666667 -4.6875 -4.6875 -4.6875h-4.166666666666667Zm85.41666666666667 0c-2.58875 0 -4.6875 2.0987500000000003 -4.6875 4.6875s2.0987500000000003 4.6875 4.6875 4.6875h4.166666666666667c2.58875 0 4.6875 -2.0987500000000003 4.6875 -4.6875s-2.0987500000000003 -4.6875 -4.6875 -4.6875h-4.166666666666667ZM21.641458333333336 15.012958333333335c-1.8306458333333335 -1.8305625 -4.798625 -1.8305625 -6.629208333333334 0 -1.8305625 1.8305833333333335 -1.8305625 4.798562500000001 0 6.629125l2.9462916666666668 2.94625c1.8305833333333335 1.8306250000000002 4.798541666666667 1.8306250000000002 6.629166666666667 0 1.8306250000000002 -1.8306250000000002 1.8306250000000002 -4.798500000000001 0 -6.629083333333334l-2.94625 -2.9462916666666668Zm63.34625 0c-1.8306250000000002 -1.8305625 -4.798541666666667 -1.8305625 -6.629166666666667 0l-2.94625 2.9462916666666668c-1.8306250000000002 1.8305833333333335 -1.8306250000000002 4.7984583333333335 0 6.629083333333334 1.8306250000000002 1.8306250000000002 4.798541666666667 1.8306250000000002 6.629166666666667 0l2.94625 -2.94625c1.8306250000000002 -1.8305625 1.8306250000000002 -4.798541666666667 0 -6.629125ZM17.708333333333336 50c0 -17.83416666666667 14.457500000000001 -32.29166666666667 32.29166666666667 -32.29166666666667S82.29166666666667 32.16583333333334 82.29166666666667 50c0 10.182083333333335 -4.715625 19.263541666666665 -12.070208333333335 25.177500000000002 -0.22604166666666667 1.2645833333333334 -0.44500000000000006 2.4545833333333333 -0.6410416666666666 3.501458333333334 -0.701875 3.7514583333333333 -3.6914583333333337 6.789375000000001 -7.682500000000001 7.205416666666667 -2.778541666666667 0.28958333333333336 -6.803958333333333 0.5739583333333335 -11.897916666666669 0.5739583333333335 -5.093958333333334 0 -9.119375 -0.28437500000000004 -11.897916666666669 -0.5739583333333335 -3.991041666666667 -0.4160416666666667 -6.980625 -3.4539583333333335 -7.682500000000001 -7.205416666666667 -0.1960416666666667 -1.046875 -0.415 -2.2368750000000004 -0.6410416666666666 -3.501458333333334C22.423958333333335 69.26354166666667 17.708333333333336 60.18208333333334 17.708333333333336 50Zm50 0c0 -9.780000000000001 -7.928333333333334 -17.708333333333336 -17.708333333333336 -17.708333333333336 -1.7258333333333336 0 -3.125 -1.3991666666666667 -3.125 -3.125s1.3991666666666667 -3.125 3.125 -3.125c13.231875 0 23.958333333333336 10.726458333333333 23.958333333333336 23.958333333333336 0 1.7258333333333336 -1.3991666666666667 3.125 -3.125 3.125s-3.125 -1.3991666666666667 -3.125 -3.125ZM34.952708333333334 89.99416666666667c0.8472916666666668 0.26812500000000006 1.7372916666666667 0.45583333333333337 2.664375 0.5522916666666667 2.9277083333333334 0.30520833333333336 7.115833333333334 0.5993750000000001 12.383750000000001 0.5993750000000001 5.268125 0 9.45625 -0.2941666666666667 12.383750000000001 -0.5993750000000001 1.0958333333333334 -0.11416666666666668 2.1397916666666665 -0.3554166666666667 3.122291666666667 -0.7064583333333334l-0.046250000000000006 0.5433333333333333c-0.33333333333333337 3.9289583333333336 -3.1727083333333335 7.488125000000001 -7.448333333333334 8.051875 -2.1256250000000003 0.2804166666666667 -4.871250000000001 0.5231250000000001 -8.011875 0.5231250000000001 -3.1927083333333335 0 -5.841041666666667 -0.25083333333333335 -7.838333333333334 -0.5414583333333334 -3.9068750000000003 -0.5685416666666666 -6.515625 -3.7227083333333333 -7.0375000000000005 -7.251875000000001 -0.055 -0.37062500000000004 -0.11229166666666668 -0.7618750000000001 -0.17187500000000003 -1.1708333333333336Z" clip-rule="evenodd" stroke-width="2.0833"></path>
  </g>
</svg>