<svg xmlns="http://www.w3.org/2000/svg" fill="none" viewBox="0 0 100 100" id="Like-2--Streamline-Plump" height="100" width="100">
  <desc>
    Like 2 Streamline Icon: https://streamlinehq.com
  </desc>
  <g id="Solid/Interface Essential/Bookmark Favorite/like-2--reward-social-up-rating-media-like-thumb-hand">
    <path id="Union" fill="#000000" fill-rule="evenodd" d="M36.952916666666674 5.384375c-5.050208333333334 -0.6795833333333333 -9.493125000000001 2.695416666666667 -11.050208333333334 7.366250000000001L17.814791666666668 37.014583333333334c-0.035625000000000004 0.106875 -0.053750000000000006 0.21875 -0.053750000000000006 0.33125000000000004v48.187916666666666c0 0.480625 0.32875000000000004 0.9 0.7952083333333334 1.0166666666666666l0.003958333333333334 0.0010416666666666669 0.015416666666666669 0.003958333333333334 0.059791666666666674 0.014583333333333335 0.2329166666666667 0.05687500000000001c0.20500000000000002 0.04979166666666667 0.50875 0.12270833333333335 0.9058333333333335 0.215625 0.7937500000000001 0.1860416666666667 1.9604166666666667 0.45291666666666675 3.456875 0.7775 2.9920833333333334 0.649375 7.3031250000000005 1.5295833333333333 12.584583333333335 2.4547916666666665 10.560000000000002 1.85 25.013125000000002 3.8829166666666666 40.5725 4.609791666666667 7.385416666666667 0.34500000000000003 14.156666666666668 -4.245625 16.119791666666668 -11.439583333333333 4.074375 -14.931041666666667 5.762916666666667 -30.94979166666667 6.463958333333334 -41.66666666666667 0.49520833333333336 -7.5685416666666665 -5.611041666666667 -13.627083333333335 -13.145416666666668 -13.379791666666668 -10.919791666666669 0.3579166666666667 -25.230208333333334 1.014375 -33.505 1.7166666666666668 -0.008333333333333335 -0.73125 -0.024375 -1.784166666666667 -0.05562500000000001 -3.0743750000000003 -0.06229166666666667 -2.579791666666667 -0.18458333333333335 -6.110833333333334 -0.424375 -9.914166666666667 -0.2939583333333334 -4.665208333333334 -3.18 -8.875 -7.834791666666667 -10.129583333333333 -1.98125 -0.5339583333333333 -4.354583333333333 -1.0497916666666667 -7.053750000000001 -1.4129166666666668ZM18.80854166666667 85.53375c-0.25416666666666665 1.01625 -0.2522916666666667 1.0166666666666666 -0.2522916666666667 1.0166666666666666l0.2522916666666667 -1.0166666666666666Zm-12.570833333333335 3.142916666666667c2.892916666666667 0 5.237916666666668 -2.3452083333333333 5.237916666666668 -5.237916666666668V39.441250000000004c0 -2.892916666666667 -2.345 -5.237916666666668 -5.237916666666668 -5.237916666666668S1 36.548541666666665 1 39.441250000000004v43.9975c0 2.892916666666667 2.345 5.237916666666668 5.237708333333334 5.237916666666668Z" clip-rule="evenodd" stroke-width="2.0833"></path>
  </g>
</svg>