<svg xmlns="http://www.w3.org/2000/svg" fill="none" viewBox="0 0 100 100" id="Like-Square--Streamline-Plump" height="100" width="100">
  <desc>
    Like Square Streamline Icon: https://streamlinehq.com
  </desc>
  <g id="Solid/Interface Essential/Bookmark Favorite/like-square--reward-social-up-rating-media-like-thumb-hand">
    <path id="Subtract" fill="#000000" fill-rule="evenodd" d="M96.875 50c0 15.419583333333334 -0.5793750000000001 26.23479166666667 -1.1331250000000002 33.050625000000004 -0.5564583333333334 6.849583333333333 -5.841458333333334 12.134791666666667 -12.691250000000002 12.691250000000002 -6.815833333333334 0.55375 -17.63104166666667 1.1331250000000002 -33.050625000000004 1.1331250000000002 -15.419583333333334 0 -26.23479166666667 -0.5793750000000001 -33.050625000000004 -1.1331250000000002 -6.849708333333333 -0.5564583333333334 -12.134770833333334 -5.841666666666667 -12.691270833333334 -12.691250000000002C3.7043125000000003 76.23458333333333 3.125 65.41958333333334 3.125 50c0 -15.419791666666669 0.5793333333333334 -26.23479166666667 1.1331250000000002 -33.050645833333334 0.5565208333333334 -6.849687500000001 5.841583333333333 -12.13475 12.691270833333334 -12.691270833333334C23.765208333333334 3.7043125000000003 34.58041666666667 3.125 50 3.125c15.419791666666669 0 26.23479166666667 0.5793333333333334 33.050625000000004 1.1331250000000002 6.849791666666667 0.5565208333333334 12.134791666666667 5.841583333333333 12.691250000000002 12.691270833333334C96.295625 23.765208333333334 96.875 34.58041666666667 96.875 50ZM43.46020833333334 18.932083333333335c-2.557083333333334 -0.2204375 -4.8204166666666675 1.4665625 -5.557916666666667 3.9247916666666667l-4.405625000000001 14.685416666666669c-0.10833333333333334 0.36125 -0.16333333333333333 0.7362500000000001 -0.16333333333333333 1.1133333333333333v28.890833333333333c0 2.0160416666666667 1.5372916666666667 3.6920833333333336 3.547916666666667 3.8389583333333337 5.456458333333334 0.39875 16.454375000000002 1.1277083333333333 27.635625 1.4318750000000002 5.700000000000001 0.155 10.793750000000001 -3.4318750000000002 12.315208333333334 -8.927291666666667 1.5966666666666667 -5.766875000000001 3.452291666666667 -13.684375000000001 4.364791666666667 -21.948958333333337 0.5870833333333334 -5.317083333333334 -3.7706250000000003 -9.645000000000001 -9.117500000000001 -9.483125000000001 -9.264375000000001 0.280625 -19.374166666666667 0.7862500000000001 -19.374166666666667 0.7862500000000001v-7.006875000000001c0 -3.3352083333333336 -2.1395833333333334 -6.332 -5.434583333333334 -6.848645833333334 -1.3510416666666667 -0.21183333333333337 -2.656041666666667 -0.3570416666666667 -3.810416666666667 -0.45656250000000004ZM22.916666666666668 72.823125c2.30125 0 4.166666666666667 -1.865625 4.166666666666667 -4.166666666666667v-29.166666666666668c0 -2.30125 -1.8654166666666667 -4.166666666666667 -4.166666666666667 -4.166666666666667 -2.3011875 0 -4.166666666666667 1.8654166666666667 -4.166666666666667 4.166666666666667v29.166666666666668c0 2.301041666666667 1.8654791666666668 4.166666666666667 4.166666666666667 4.166666666666667Z" clip-rule="evenodd" stroke-width="2.0833"></path>
  </g>
</svg>