<svg xmlns="http://www.w3.org/2000/svg" fill="none" viewBox="0 0 100 100" id="Line-Arrow-Up-Circle-1--Streamline-Plump" height="100" width="100">
  <desc>
    Line Arrow Up Circle 1 Streamline Icon: https://streamlinehq.com
  </desc>
  <g id="Solid/Arrows/Container Line arrow/line-arrow-up-circle-1--arrow-up-keyboard-circle-button">
    <path id="Subtract" fill="#000000" fill-rule="evenodd" d="M50 1.0416666666666667C22.96104166666667 1.0416666666666667 1.0416666666666667 22.96104166666667 1.0416666666666667 50S22.96104166666667 98.95833333333334 50 98.95833333333334 98.95833333333334 77.03895833333334 98.95833333333334 50 77.03895833333334 1.0416666666666667 50 1.0416666666666667Zm-6.852083333333334 77.108125 -0.779375 -39.74520833333334 -5.820833333333334 5.456875c-1.9275000000000002 1.8070833333333334 -4.858541666666667 2.292291666666667 -6.90625 0.6225 -1.0610416666666667 -0.8652083333333334 -1.9960416666666667 -1.8264583333333335 -2.7616666666666667 -2.876458333333334 -1.6 -2.194583333333333 -0.8479166666666667 -5.11875 0.976875 -7.130208333333334 4.861041666666667 -5.357500000000001 11.618541666666667 -12.057083333333335 16.69979166666667 -16.212208333333333 3.2808333333333337 -2.6830208333333334 7.606458333333334 -2.6831458333333336 10.887500000000001 -0.00018750000000000003 5.081041666666667 4.154895833333334 11.838333333333335 10.854062500000001 16.699375000000003 16.211562500000003 1.8254166666666667 2.0118750000000003 2.577083333333334 4.937083333333334 0.9762500000000001 7.131875 -0.765625 1.0493750000000002 -1.700416666666667 2.0102083333333334 -2.761041666666667 2.875 -2.0477083333333335 1.6700000000000002 -4.978958333333334 1.185 -6.906666666666667 -0.6222916666666668l-5.820625 -5.456666666666668 -0.7735416666666668 39.45208333333334c-0.05208333333333334 2.65625 -1.7887500000000003 5.013541666666667 -4.4281250000000005 5.316666666666667 -0.8375000000000001 0.09625 -1.7556250000000002 0.16020833333333334 -2.716666666666667 0.16020833333333334 -0.8895833333333334 0 -1.711875 -0.05479166666666667 -2.4512500000000004 -0.13916666666666666 -2.494791666666667 -0.28479166666666667 -4.064583333333334 -2.53375 -4.1137500000000005 -5.0443750000000005Z" clip-rule="evenodd" stroke-width="2.0833"></path>
  </g>
</svg>