<svg xmlns="http://www.w3.org/2000/svg" fill="none" viewBox="0 0 100 100" id="Line-Arrow-Synchronize-2--Streamline-Plump" height="100" width="100">
  <desc>
    Line Arrow Synchronize 2 Streamline Icon: https://streamlinehq.com
  </desc>
  <g id="Solid/Arrows/Rotation Sync Line arrow/line-arrow-synchronize-2--arrows-loading-load-sync-synchronize-arrow-reload">
    <path id="Union" fill="#000000" fill-rule="evenodd" d="M6.574916666666667 49.998333333333335c-2.708770833333334 -0.034375 -4.5320875 -2.432916666666667 -4.264083333333334 -5.128750000000001 1.4605208333333333 -14.690000000000001 9.928437500000001 -28.49829166666667 24.034166666666668 -36.440625C45.58604166666667 -2.4046666666666665 69.27395833333334 1.0783145833333334 84.43833333333335 15.488895833333334l-0.024166666666666666 -2.2714166666666666c-0.034791666666666665 -3.2730625 2.495 -6.040750000000001 5.760833333333334 -5.823062500000001 0.44645833333333335 0.029750000000000002 0.888125 0.05445833333333334 1.3170833333333334 0.07495833333333334 2.59625 0.12412500000000001 4.836041666666667 2.009541666666667 5.062708333333333 4.598791666666667 0.6489583333333334 7.415708333333334 0.2366666666666667 14.7485 -0.5491666666666667 20.271 -0.5527083333333334 3.884791666666667 -3.3633333333333337 6.981458333333334 -7.245208333333334 7.555208333333334 -5.492708333333334 0.811875 -12.991666666666667 1.0210416666666666 -20.448125 0.31145833333333334 -2.5900000000000003 -0.24645833333333336 -4.4785416666666675 -2.485833333333334 -4.604791666666667 -5.084583333333334 -0.020416666666666666 -0.4191666666666667 -0.04479166666666667 -0.8508333333333333 -0.07416666666666667 -1.2866666666666668 -0.21854166666666666 -3.253333333333334 2.538125 -5.772916666666667 5.798541666666667 -5.740208333333334l6.207291666666666 0.06208333333333334 -1.841041666666667 -1.7579166666666668c-10.333750000000002 -9.927583333333335 -26.563750000000002 -12.352583333333333 -39.736666666666665 -4.935625 -8.817291666666668 4.964583333333334 -14.403708333333334 13.290833333333333 -16.039729166666667 22.36 -0.395125 2.1904166666666667 -1.6451666666666669 4.238333333333334 -3.755916666666667 4.944375 -2.9732708333333338 0.9945833333333334 -5.6260208333333335 1.2570833333333336 -7.690895833333334 1.2310416666666668Zm86.85154166666668 0.0033333333333333335c2.7089583333333334 0.034375 4.5320833333333335 2.432916666666667 4.264166666666667 5.128541666666667 -1.4604166666666667 14.690208333333334 -9.928333333333335 28.498541666666668 -24.034166666666668 36.44083333333333 -19.241041666666668 10.83375 -42.929166666666674 7.350625000000001 -58.093625 -7.060208333333334l0.024416666666666666 2.296041666666667c0.0348125 3.2731250000000003 -2.494854166666667 6.0408333333333335 -5.760854166666667 5.823125000000001 -0.44631250000000006 -0.029791666666666668 -0.8881041666666667 -0.05437500000000001 -1.3170208333333335 -0.075 -2.5961875 -0.12416666666666668 -4.836062500000001 -2.0095833333333335 -5.062666666666667 -4.59875 -0.6489791666666668 -7.415625 -0.23664583333333333 -14.748541666666668 0.5491458333333333 -20.27104166666667 0.5527500000000001 -3.884791666666667 3.363416666666667 -6.98125 7.245208333333334 -7.555208333333334 5.492583333333333 -0.811875 12.991645833333335 -1.0210416666666666 20.448104166666667 -0.31145833333333334 2.5900000000000003 0.24645833333333336 4.4785416666666675 2.485833333333334 4.604791666666667 5.084583333333334 0.020416666666666666 0.4191666666666667 0.04479166666666667 0.8508333333333333 0.07416666666666667 1.2866666666666668 0.21854166666666666 3.253333333333334 -2.538125 5.772916666666667 -5.798541666666667 5.740208333333334l-6.1814583333333335 -0.061875000000000006 1.8152083333333333 1.7333333333333334c10.333750000000002 9.9275 26.563750000000002 12.352500000000001 39.736666666666665 4.935625 8.817291666666668 -4.964583333333334 14.40375 -13.290833333333333 16.039791666666666 -22.36 0.395 -2.1904166666666667 1.6452083333333334 -4.238333333333334 3.7558333333333334 -4.944375 2.9733333333333336 -0.9945833333333334 5.626041666666667 -1.2570833333333336 7.690833333333335 -1.2310416666666668Z" clip-rule="evenodd" stroke-width="2.0833"></path>
  </g>
</svg>