<svg xmlns="http://www.w3.org/2000/svg" fill="none" viewBox="0 0 100 100" id="Line-Arrow-Left-Circle-1--Streamline-Plump" height="100" width="100">
  <desc>
    Line Arrow Left Circle 1 Streamline Icon: https://streamlinehq.com
  </desc>
  <g id="Solid/Arrows/Container Line arrow/line-arrow-left-circle-1--arrow-keyboard-circle-button-left">
    <path id="Subtract" fill="#000000" fill-rule="evenodd" d="M1.0416666666666667 50C1.0416666666666667 22.96104166666667 22.96104166666667 1.0416666666666667 50 1.0416666666666667S98.95833333333334 22.96104166666667 98.95833333333334 50 77.03895833333334 98.95833333333334 50 98.95833333333334 1.0416666666666667 77.03895833333334 1.0416666666666667 50Zm77.108125 -6.851875000000001 -39.74520833333334 -0.779375 5.456875 -5.820833333333334c1.8070833333333334 -1.9275000000000002 2.292291666666667 -4.858541666666667 0.6225 -6.90625 -0.8652083333333334 -1.0610416666666667 -1.8264583333333335 -1.9960416666666667 -2.876458333333334 -2.761458333333333 -2.194583333333333 -1.6002083333333335 -5.11875 -0.8481250000000001 -7.130208333333334 0.976875 -5.357500000000001 4.860833333333334 -12.057083333333335 11.618333333333336 -16.212208333333333 16.699583333333337 -2.6830208333333334 3.2808333333333337 -2.6831458333333336 7.606458333333334 -0.00018750000000000003 10.887500000000001 4.154895833333334 5.081041666666667 10.854062500000001 11.838333333333335 16.211562500000003 16.699375000000003 2.0118750000000003 1.8254166666666667 4.937083333333334 2.577083333333334 7.131875 0.9762500000000001 1.0493750000000002 -0.7654166666666667 2.0102083333333334 -1.7002083333333335 2.875 -2.7608333333333333 1.6700000000000002 -2.0479166666666666 1.185 -4.979166666666667 -0.6222916666666668 -6.906875000000001l-5.456666666666668 -5.820625 39.45208333333334 -0.7735416666666668c2.65625 -0.05208333333333334 5.013541666666667 -1.7887500000000003 5.316666666666667 -4.4281250000000005 0.09625 -0.8375000000000001 0.16020833333333334 -1.7556250000000002 0.16020833333333334 -2.716666666666667 0 -0.889375 -0.05479166666666667 -1.711875 -0.13916666666666666 -2.4512500000000004 -0.28479166666666667 -2.494791666666667 -2.53375 -4.064583333333334 -5.0443750000000005 -4.1137500000000005Z" clip-rule="evenodd" stroke-width="2.0833"></path>
  </g>
</svg>