<svg xmlns="http://www.w3.org/2000/svg" fill="none" viewBox="0 0 100 100" id="Line-Arrow-Turn-Backward-Large--Streamline-Plump" height="100" width="100">
  <desc>
    Line Arrow Turn Backward Large Streamline Icon: https://streamlinehq.com
  </desc>
  <g id="Solid/Arrows/Big Single Line arrow/line-arrow-turn-backward-large--arrow-bend-curve-change-direction-return-left-back-backward-large-head">
    <path id="Union" fill="#000000" fill-rule="evenodd" d="M37.585625 1.9798916666666668c-2.6920833333333336 -1.5941666666666667 -5.991458333333334 -1.05381875 -8.300625 0.8438166666666668C17.71691666666667 12.329958333333334 7.785208333333333 23.344375 2.5958333333333337 31.639375l0.8831041666666667 0.5525 -0.8831041666666667 -0.5525c-2.234379166666667 3.5714583333333336 -1.9569562500000002 8.007916666666667 0.332375 11.449375000000002 5.5008541666666675 8.269375 14.807562500000001 19.363958333333336 26.35825 28.954375000000002 2.3039583333333336 1.9131250000000002 5.608333333333334 2.45 8.3 0.8554166666666668 3.436875 -2.0358333333333336 6.491041666666667 -4.79125 8.397916666666667 -8.266041666666666 1.4883333333333335 -2.7125000000000004 0.46 -5.820833333333334 -1.4541666666666666 -7.835000000000001l-6.516041666666667 -6.8575h21.079375000000002c7.877916666666668 0 14.149583333333334 4.744791666666667 14.149583333333334 12.256666666666668 0 7.706458333333334 -6.505625 12.682708333333334 -14.564791666666668 12.682708333333334h-3.014166666666667c-3.5891666666666673 0 -7.4870833333333335 1.7512500000000002 -8.395416666666668 5.680000000000001 -0.9204166666666668 3.9800000000000004 -0.7960416666666668 8.74375 0.14354166666666668 12.738958333333334 0.9125000000000001 3.880625 4.671875000000001 5.817291666666667 8.315833333333334 5.817291666666667h3.800416666666667c21.107083333333332 0 39.08354166666667 -15.652291666666667 39.08354166666667 -36.918958333333336 0 -21.443125000000002 -18.135 -37.25666666666667 -39.42020833333334 -37.25666666666667H38.012916666666676l6.517916666666667 -6.859020833333334c1.91375 -2.013729166666667 2.9425000000000003 -5.121208333333334 1.4545833333333336 -7.833291666666668l-0.9133333333333334 0.5010208333333334 0.9133333333333334 -0.5010208333333334c-1.9066666666666667 -3.4755833333333337 -4.962083333333334 -6.232020833333333 -8.399791666666667 -8.267795833333334Z" clip-rule="evenodd" stroke-width="2.0833"></path>
  </g>
</svg>