<svg xmlns="http://www.w3.org/2000/svg" fill="none" viewBox="0 0 100 100" id="Link-Chain--Streamline-Plump" height="100" width="100">
  <desc>
    Link Chain Streamline Icon: https://streamlinehq.com
  </desc>
  <g id="Solid/Interface Essential/Link Unlink/link-chain--create-hyperlink-link-make-unlink-connection-chain">
    <path id="Union" fill="#000000" fill-rule="evenodd" d="M86.78083333333335 13.220895833333334C73.31979166666667 -0.24029375000000003 51.49479166666667 -0.2402979166666667 38.03354166666667 13.220875000000001L32.99375 18.26075c-2.8475 2.8475833333333336 -2.8475 7.464458333333334 0 10.311958333333335l2.9908333333333337 2.9908333333333337c2.805625 2.805625 7.328541666666667 2.8468750000000003 10.184791666666667 0.12416666666666668l5.186458333333333 -5.18625c3.105625 -3.1058333333333334 7.195 -4.623125000000001 11.266041666666668 -4.56375 3.937916666666667 0.05666666666666667 7.859166666666668 1.58875 10.856250000000001 4.586041666666667 6.0945833333333335 6.0945833333333335 6.131458333333334 16.010208333333335 0.022291666666666668 22.119375l-5.062083333333334 5.062083333333334c-2.8477083333333337 2.8475 -2.8477083333333337 7.464375 -0.00020833333333333335 10.311875l2.9908333333333337 2.9908333333333337c2.8477083333333337 2.8477083333333337 7.4645833333333345 2.8477083333333337 10.312083333333334 0l5.039791666666667 -5.039791666666667c13.461250000000001 -13.461250000000001 13.461250000000001 -35.28604166666667 0 -48.74722916666667ZM31.643125000000005 46.21395833333334c2.7677083333333337 -2.8535416666666666 2.7412500000000004 -7.410416666666667 -0.07958333333333334 -10.231041666666666l-2.9908333333333337 -2.9908333333333337c-2.8475 -2.8477083333333337 -7.464375 -2.8477083333333337 -10.311958333333335 0l-5.039875 5.039791666666667c-13.46117291666667 13.461250000000001 -13.46116875 35.28604166666667 0.00002083333333333334 48.747291666666676 13.4611875 13.461041666666667 35.28597916666667 13.461041666666667 48.74722916666667 0l5.039791666666667 -5.04c2.8477083333333337 -2.8475 2.8477083333333337 -7.464375 0 -10.311875l-2.9908333333333337 -2.9908333333333337c-2.8475 -2.8475 -7.464375 -2.8475 -10.311875 0l-5.062083333333334 5.062083333333334c-2.7952083333333335 2.7952083333333335 -6.387291666666667 4.303958333333334 -10.045833333333334 4.534166666666668 -4.3375 0.2735416666666667 -8.768541666666668 -1.2497916666666666 -12.075000000000001 -4.55625 -6.094604166666667 -6.0947916666666675 -6.131354166666667 -16.010208333333335 -0.022291666666666668 -22.119375l5.143125 -5.143125Zm4.339791666666667 4.500208333333333c0.03645833333333334 -0.03645833333333334 0.07270833333333333 -0.07312500000000001 0.10854166666666668 -0.10979166666666666 3.284166666666667 -3.284166666666667 6.5685416666666665 -6.567916666666667 9.853125 -9.851666666666667 3.2779166666666666 -3.2770833333333336 6.555833333333333 -6.554375 9.833541666666669 -9.831875 1.8587500000000001 -1.8587500000000001 4.313541666666667 -2.77 6.760208333333334 -2.73375 2.361875 0.035625000000000004 4.715833333333333 0.9543750000000001 6.517291666666667 2.7558333333333334 3.6685416666666666 3.6685416666666666 3.67625 9.626666666666667 0.022291666666666668 13.280625L44.22229166666667 69.07916666666668c-1.6518750000000002 1.6520833333333336 -3.774791666666667 2.5554166666666664 -5.944375 2.710625 -2.628541666666667 0.18770833333333334 -5.325208333333333 -0.7233333333333334 -7.334791666666668 -2.732916666666667 -3.6685416666666666 -3.6685416666666666 -3.67625 -9.626666666666667 -0.022291666666666668 -13.280625l5.062083333333334 -5.062083333333334Z" clip-rule="evenodd" stroke-width="2.0833"></path>
  </g>
</svg>