<svg xmlns="http://www.w3.org/2000/svg" fill="none" viewBox="0 0 100 100" id="Link-Share-2--Streamline-Plump" height="100" width="100">
  <desc>
    Link Share 2 Streamline Icon: https://streamlinehq.com
  </desc>
  <g id="link-share-2--create-hyperlink-link-make-unlink-square">
    <path id="Union" fill="#000000" fill-rule="evenodd" d="M87.89625 32.897708333333334c3.9583333333333335 3.618541666666667 9.073958333333334 1.6556250000000001 9.50375 -3.690208333333334 0.173125 -2.152916666666667 0.328125 -4.6918750000000005 0.4408333333333334 -7.6625000000000005 0.258125 -6.794020833333334 -0.185625 -11.233187500000001 -0.6875000000000001 -13.961770833333334 -0.4541666666666667 -2.4697708333333335 -2.2664583333333335 -4.282333333333334 -4.736250000000001 -4.736645833333334 -2.728541666666667 -0.5019583333333334 -7.167916666666667 -0.9458250000000001 -13.961875000000001 -0.6872083333333333 -2.9691666666666667 0.11302083333333333 -5.507083333333334 0.2681041666666667 -7.659166666666668 0.44114583333333335 -5.346875000000001 0.429875 -7.310833333333334 5.546770833333334 -3.6914583333333337 9.505958333333334 1.2672916666666667 1.3864375000000002 2.765 2.985833333333334 4.531875 4.823250000000001 -12.091875000000002 12.164229166666667 -22.851666666666667 23.308604166666665 -27.972916666666666 28.6419375 -1.9777083333333336 2.0595833333333338 -2.7970833333333336 5.067916666666667 -1.1252083333333334 7.3825 1.2077083333333334 1.6722916666666667 2.7929166666666667 3.261458333333333 4.463541666666667 4.476041666666666 2.33375 1.6964583333333334 5.375000000000001 0.85375 7.440833333333334 -1.1604166666666669 5.310833333333334 -5.177708333333334 16.368125000000003 -15.979583333333336 28.53666666666667 -27.993958333333335 1.876666666666667 1.8062500000000001 3.5068750000000004 3.3331250000000003 4.916875 4.621875ZM45.833333333333336 10.416666666666668c-11.604166666666668 0 -20.212083333333336 0.38020833333333337 -26.167604166666667 0.7978333333333334 -9.101125000000001 0.6382291666666667 -16.146333333333335 7.683416666666667 -16.7845625 16.784458333333333C2.463541666666667 33.95458333333334 2.0833333333333335 42.5625 2.0833333333333335 54.16666666666667c0 11.603958333333333 0.38020833333333337 20.212083333333336 0.7978333333333334 26.1675 0.6382291666666667 9.10125 7.683437500000001 16.146458333333335 16.7845625 16.784583333333334C25.62125 97.53645833333334 34.22916666666667 97.91666666666667 45.833333333333336 97.91666666666667c11.604166666666668 0 20.212083333333336 -0.38020833333333337 26.1675 -0.7979166666666667 9.10125 -0.638125 16.146458333333335 -7.6833333333333345 16.784583333333334 -16.784375C89.20312500000001 74.37875 89.58333333333334 65.77083333333334 89.58333333333334 54.16666666666667c0 -2.513125 -0.017916666666666668 -4.885625 -0.05 -7.121250000000001 -0.04979166666666667 -3.4514583333333335 -2.887916666666667 -6.208958333333334 -6.339375 -6.159375000000001 -3.4514583333333335 0.04979166666666667 -6.208958333333334 2.887916666666667 -6.159375000000001 6.339375C77.06583333333333 49.400000000000006 77.08333333333334 51.71270833333333 77.08333333333334 54.16666666666667c0 11.331666666666667 -0.37125 19.6475 -0.7672916666666667 25.293125000000003 -0.2022916666666667 2.886875 -2.3027083333333334 4.987291666666667 -5.189583333333334 5.189583333333334C65.48083333333334 85.04541666666668 57.165000000000006 85.41666666666667 45.833333333333336 85.41666666666667c-11.331666666666667 0 -19.6475 -0.37125 -25.293166666666668 -0.7672916666666667 -2.886875 -0.2022916666666667 -4.987166666666667 -2.3027083333333334 -5.1896249999999995 -5.189583333333334C14.954625 73.81416666666667 14.583333333333334 65.49833333333333 14.583333333333334 54.16666666666667c0 -11.331666666666667 0.3712916666666667 -19.6475 0.7672083333333334 -25.293125000000003 0.20245833333333335 -2.886875 2.3027500000000005 -4.987291666666667 5.1896249999999995 -5.189583333333334C26.185833333333335 23.287916666666668 34.50166666666667 22.916666666666668 45.833333333333336 22.916666666666668c2.4539583333333335 0 4.766666666666667 0.0175 6.94125 0.04875 3.4514583333333335 0.04958333333333334 6.289583333333334 -2.7080000000000006 6.339375 -6.159416666666667 0.04958333333333334 -3.451416666666667 -2.707916666666667 -6.289625 -6.159375000000001 -6.339312500000001C50.71895833333333 10.434500000000002 48.34645833333333 10.416666666666668 45.833333333333336 10.416666666666668Z" clip-rule="evenodd" stroke-width="2.0833"></path>
  </g>
</svg>