<svg xmlns="http://www.w3.org/2000/svg" fill="none" viewBox="0 0 100 100" id="List-To-Do-Tasks-Checklist--Streamline-Plump" height="100" width="100">
  <desc>
    List To Do Tasks Checklist Streamline Icon: https://streamlinehq.com
  </desc>
  <g id="list-to-do-tasks-checklist--list-to-do-tasks-checklist-mark">
    <path id="Union" fill="#000000" fill-rule="evenodd" d="M22.42541666666667 14.673208333333335c-0.390625 0.5993958333333335 -0.7004166666666667 1.0928541666666667 -0.9422916666666666 1.4895625000000001 -0.10645833333333334 -0.11702083333333334 -0.2222916666666667 -0.243375 -0.34770833333333334 -0.3791458333333334 -0.9175625000000001 -0.9928333333333333 -2.353020833333334 -2.489229166666667 -4.4388125 -4.520895833333334 -1.8321875 -1.7846666666666666 -4.732125 -2.2270625 -6.881208333333333 -0.5618958333333334 -0.9109166666666668 0.7057916666666668 -1.9197083333333333 1.5835625 -2.8486666666666665 2.6061458333333336 -1.8060833333333335 1.9880833333333334 -1.359625 4.834625 0.24625000000000002 6.633583333333334 4.104895833333334 4.598395833333334 7.757312500000001 8.073604166666668 10.380437500000001 10.397145833333335 2.7807708333333334 2.463125 6.824083333333334 2.16875 9.193041666666668 -0.706875 2.5341666666666667 -3.075833333333333 6.581875 -8.277291666666667 12.711666666666668 -16.8496875 1.1895833333333332 -1.6635833333333334 1.63375 -4.169291666666666 0.04416666666666667 -5.9807500000000005 -1.3035416666666668 -1.4854166666666666 -2.8727083333333336 -2.506958333333334 -4.205208333333333 -3.184479166666667 -2.2727083333333336 -1.1555000000000002 -4.781041666666668 -0.16025 -6.174166666666667 1.6660833333333334 -3.3825000000000003 4.4347916666666665 -5.480625000000001 7.463125000000001 -6.737500000000001 9.391208333333335Zm67.83625 -3.505041666666667c-9.378125 -0.611375 -26.491875000000004 -0.611375 -35.870000000000005 0 -2.3725 0.15466666666666667 -3.856041666666667 2.3665625 -3.925416666666667 5.162083333333333 -0.009375 0.3790833333333334 -0.014583333333333335 0.7898333333333334 -0.014583333333333335 1.2345 0 0.44466666666666665 0.005208333333333334 0.8554166666666668 0.014583333333333335 1.2344791666666668 0.069375 2.7955625 1.5529166666666667 5.007437500000001 3.925416666666667 5.162020833333334 9.378125 0.6114583333333333 26.491875000000004 0.6114583333333333 35.870000000000005 0 2.3725 -0.15458333333333335 3.856041666666667 -2.366458333333333 3.925416666666667 -5.162020833333334 0.009375 -0.3790625 0.014583333333333335 -0.7898125 0.014583333333333335 -1.2344791666666668 0 -0.44466666666666665 -0.005208333333333334 -0.8554166666666668 -0.014583333333333335 -1.2345 -0.069375 -2.7955208333333337 -1.5529166666666667 -5.007395833333334 -3.925416666666667 -5.162083333333333Zm0 32.41975c-9.378125 -0.6112500000000001 -26.491875000000004 -0.6112500000000001 -35.870000000000005 0 -2.3725 0.1547916666666667 -3.856041666666667 2.3666666666666667 -3.925416666666667 5.162083333333333 -0.009375 0.3791666666666667 -0.014583333333333335 0.79 -0.014583333333333335 1.2345833333333334 0 0.4445833333333334 0.005208333333333334 0.8554166666666668 0.014583333333333335 1.2345833333333334 0.069375 2.795416666666667 1.5529166666666667 5.007291666666667 3.925416666666667 5.162083333333333 9.378125 0.6112500000000001 26.491875000000004 0.6112500000000001 35.870000000000005 0 2.3725 -0.1547916666666667 3.856041666666667 -2.3666666666666667 3.925416666666667 -5.162083333333333 0.009375 -0.3791666666666667 0.014583333333333335 -0.79 0.014583333333333335 -1.2345833333333334 0 -0.4445833333333334 -0.005208333333333334 -0.8554166666666668 -0.014583333333333335 -1.2345833333333334 -0.069375 -2.795416666666667 -1.5529166666666667 -5.007291666666667 -3.925416666666667 -5.162083333333333Zm0 32.421875c-9.378125 -0.6112500000000001 -26.491875000000004 -0.6112500000000001 -35.870000000000005 0 -2.3725 0.1547916666666667 -3.856041666666667 2.3666666666666667 -3.925416666666667 5.162083333333333 -0.009375 0.3791666666666667 -0.014583333333333335 0.79 -0.014583333333333335 1.2345833333333334 0 0.4445833333333334 0.005208333333333334 0.8554166666666668 0.014583333333333335 1.2345833333333334 0.069375 2.795416666666667 1.5529166666666667 5.007291666666667 3.925416666666667 5.162083333333333 9.378125 0.6112500000000001 26.491875000000004 0.6112500000000001 35.870000000000005 0 2.3725 -0.1547916666666667 3.856041666666667 -2.3666666666666667 3.925416666666667 -5.162083333333333 0.009375 -0.3791666666666667 0.014583333333333335 -0.79 0.014583333333333335 -1.2345833333333334 0 -0.4445833333333334 -0.005208333333333334 -0.8554166666666668 -0.014583333333333335 -1.2345833333333334 -0.069375 -2.795416666666667 -1.5529166666666667 -5.007291666666667 -3.925416666666667 -5.162083333333333Zm-68.77854166666667 -27.427083333333332c0.241875 -0.39687500000000003 0.5516666666666666 -0.8902083333333334 0.9422916666666666 -1.4895833333333335 1.256875 -1.928125 3.3550000000000004 -4.956458333333334 6.737500000000001 -9.39125 1.393125 -1.8264583333333335 3.9014583333333337 -2.8216666666666668 6.174166666666667 -1.6660416666666666 1.3325 0.6775 2.901666666666667 1.6989583333333336 4.205208333333333 3.184375 1.5895833333333336 1.8114583333333336 1.1454166666666667 4.317291666666667 -0.04416666666666667 5.980833333333334 -6.129791666666667 8.572291666666667 -10.177500000000002 13.77375 -12.711666666666668 16.849583333333335 -2.3689583333333335 2.8756250000000003 -6.412270833333334 3.1700000000000004 -9.193041666666668 0.706875 -2.6231250000000004 -2.3233333333333333 -6.275541666666667 -5.79875 -10.380437500000001 -10.397083333333333 -1.605875 -1.7989583333333337 -2.0523333333333333 -4.645416666666667 -0.24625000000000002 -6.633541666666667 0.9289583333333334 -1.0227083333333333 1.93775 -1.9004166666666669 2.8486666666666665 -2.60625 2.1490833333333335 -1.6652083333333334 5.0490208333333335 -1.2227083333333333 6.881208333333333 0.561875 2.0857916666666667 2.0316666666666667 3.52125 3.528125 4.4388125 4.521041666666667 0.12541666666666668 0.13562500000000002 0.24125000000000002 0.26208333333333333 0.34770833333333334 0.3791666666666667Zm0.9422916666666666 30.932291666666668c-0.390625 0.5993750000000001 -0.7004166666666667 1.0927083333333334 -0.9422916666666666 1.4895833333333335 -0.10645833333333334 -0.11708333333333334 -0.2222916666666667 -0.24354166666666668 -0.34770833333333334 -0.3791666666666667 -0.9175625000000001 -0.9929166666666668 -2.353020833333334 -2.4893750000000003 -4.4388125 -4.521041666666667 -1.8321875 -1.7845833333333334 -4.732125 -2.2270833333333333 -6.881208333333333 -0.561875 -0.9109166666666668 0.7058333333333333 -1.9197083333333333 1.5835416666666668 -2.8486666666666665 2.60625 -1.8060833333333335 1.9881250000000001 -1.359625 4.834583333333335 0.24625000000000002 6.633541666666667 4.104895833333334 4.598333333333334 7.757312500000001 8.07375 10.380437500000001 10.397083333333333 2.7807708333333334 2.463125 6.824083333333334 2.16875 9.193041666666668 -0.706875 2.5341666666666667 -3.075833333333333 6.581875 -8.277291666666667 12.711666666666668 -16.849583333333335 1.1895833333333332 -1.6635416666666667 1.63375 -4.1693750000000005 0.04416666666666667 -5.980833333333334 -1.3035416666666668 -1.4854166666666666 -2.8727083333333336 -2.5068750000000004 -4.205208333333333 -3.184375 -2.2727083333333336 -1.1556250000000001 -4.781041666666668 -0.16041666666666668 -6.174166666666667 1.6660416666666666 -3.3825000000000003 4.4347916666666665 -5.480625000000001 7.463125000000001 -6.737500000000001 9.39125Z" clip-rule="evenodd" stroke-width="2.0833"></path>
  </g>
</svg>