<svg xmlns="http://www.w3.org/2000/svg" fill="none" viewBox="0 0 100 100" height="100" width="100">
  <g id="loader-progress-bar-countdown-63--loader-progress-bar-countdown-63-circle-loading-time-process">
    <path id="Subtract" fill="#000000" fill-rule="evenodd" d="M98.95833333333334 50c0 27.038958333333333 -21.919375000000002 48.958333333333336 -48.958333333333336 48.958333333333336S1.0416666666666667 77.03895833333334 1.0416666666666667 50 22.96104166666667 1.0416666666666667 50 1.0416666666666667 98.95833333333334 22.96104166666667 98.95833333333334 50ZM53.60125000000001 22.097708333333333c-0.34895833333333337 -4.731270833333333 -4.488958333333334 -8.938895833333335 -9.784375 -8.033687500000001C26.625833333333336 17.002645833333336 13.541666666666668 31.970000000000002 13.541666666666668 49.99958333333334c0 20.135416666666668 16.322916666666668 36.458333333333336 36.458333333333336 36.458333333333336 7.929583333333334 0 15.276250000000001 -2.5350000000000006 21.26166666666667 -6.838541666666668 4.202083333333333 -3.0210416666666666 4.3064583333333335 -8.686875 1.4339583333333334 -12.295625000000001 -6.115416666666667 -7.682291666666667 -11.150833333333335 -12.524375000000001 -19.42729166666667 -18.780208333333334 0.9014583333333334 -10.332708333333333 1.0116666666666667 -17.241875 0.3329166666666667 -26.445833333333336Z" clip-rule="evenodd" stroke-width="2.0833"></path>
  </g>
</svg>