<svg xmlns="http://www.w3.org/2000/svg" fill="none" viewBox="0 0 100 100" id="Location-Compass-2--Streamline-Plump" height="100" width="100">
  <desc>
    Location Compass 2 Streamline Icon: https://streamlinehq.com
  </desc>
  <g id="location-compass-2--arrow-compass-location-gps-map-maps-point">
    <path id="Union" fill="#000000" fill-rule="evenodd" d="M50 98.95833333333334C22.96104166666667 98.95833333333334 1.0416666666666667 77.03895833333334 1.0416666666666667 50S22.96104166666667 1.0416666666666667 50 1.0416666666666667 98.95833333333334 22.96104166666667 98.95833333333334 50 77.03895833333334 98.95833333333334 50 98.95833333333334Zm26.292083333333338 -69.29895833333335c0.6589583333333334 -3.5458333333333334 -2.4177083333333336 -6.604791666666667 -5.957291666666667 -5.933541666666668 -4.516041666666667 0.8564583333333334 -11.932500000000001 2.372291666666667 -18.83729166666667 4.280208333333333 -3.4497916666666666 0.9533333333333334 -6.813750000000001 2.0160416666666667 -9.641458333333334 3.158125 -2.751875 1.1114583333333334 -5.266875 2.4014583333333337 -6.777708333333334 3.9125 -1.5108333333333333 1.5108333333333333 -2.801041666666667 4.025625 -3.9125 6.777500000000001 -1.1422916666666667 2.8277083333333333 -2.205 6.191666666666667 -3.158541666666667 9.641458333333334 -1.9085416666666668 6.904583333333334 -3.4245833333333335 14.321250000000001 -4.281250000000001 18.83729166666667 -0.6714583333333334 3.539791666666667 2.3872916666666666 6.616666666666667 5.933333333333334 5.957708333333334 4.502291666666666 -0.836875 11.886041666666667 -2.322291666666667 18.779791666666668 -4.223333333333334 3.4443750000000004 -0.9497916666666668 6.808541666666668 -2.0145833333333334 9.647291666666668 -3.169166666666667 2.7683333333333335 -1.1260416666666666 5.294791666666668 -2.436666666666667 6.835833333333334 -3.9777083333333336 1.5408333333333335 -1.5408333333333335 2.851666666666667 -4.067291666666667 3.9775000000000005 -6.835416666666667 1.1545833333333335 -2.83875 2.2195833333333335 -6.202708333333334 3.169166666666667 -9.646875 1.9008333333333334 -6.893333333333334 3.3864583333333336 -14.276666666666667 4.2231250000000005 -18.778750000000002ZM50 58.333333333333336c4.602291666666667 0 8.333333333333334 -3.7310416666666666 8.333333333333334 -8.333333333333334 0 -4.602291666666667 -3.7310416666666666 -8.333333333333334 -8.333333333333334 -8.333333333333334 -4.602291666666667 0 -8.333333333333334 3.7310416666666666 -8.333333333333334 8.333333333333334 0 4.602291666666667 3.7310416666666666 8.333333333333334 8.333333333333334 8.333333333333334Z" clip-rule="evenodd" stroke-width="2.0833"></path>
  </g>
</svg>