<svg xmlns="http://www.w3.org/2000/svg" fill="none" viewBox="0 0 100 100" id="Magnifying-Glass-Circle--Streamline-Plump" height="100" width="100">
  <desc>
    Magnifying Glass Circle Streamline Icon: https://streamlinehq.com
  </desc>
  <g id="Solid/Interface Essential/Search/magnifying-glass-circle--circle-glass-search-magnifying">
    <path id="Subtract" fill="#000000" fill-rule="evenodd" d="M50 98.95833333333334C22.96104166666667 98.95833333333334 1.0416666666666667 77.03895833333334 1.0416666666666667 50S22.96104166666667 1.0416666666666667 50 1.0416666666666667 98.95833333333334 22.96104166666667 98.95833333333334 50 77.03895833333334 98.95833333333334 50 98.95833333333334Zm-5.208333333333334 -79.16666666666667c-13.807083333333333 0 -25 11.192916666666669 -25 25s11.192916666666669 25 25 25c4.364583333333334 0 8.467916666666667 -1.1183333333333336 12.038958333333333 -3.084375 0.52125 0.6241666666666666 1.0375 1.2468750000000002 1.5529166666666667 1.8689583333333335l0.040625 0.04895833333333334c2.06375 2.489791666666667 4.119583333333334 4.968125000000001 6.406250000000001 7.416250000000001 2.6002083333333337 2.7837500000000004 6.674583333333334 3.201041666666667 9.528541666666667 0.47145833333333337 0.6795833333333333 -0.6497916666666668 1.5027083333333335 -1.4729166666666667 2.1525 -2.1525 2.729375 -2.8539583333333334 2.312291666666667 -6.928333333333334 -0.4716666666666667 -9.528541666666667 -2.447916666666667 -2.2866666666666666 -4.92625 -4.3425 -7.416250000000001 -6.406250000000001l-0.04833333333333333 -0.04020833333333334c-0.6218750000000001 -0.5154166666666667 -1.2447916666666667 -1.0316666666666667 -1.8689583333333335 -1.5529166666666667 1.9666666666666668 -3.5714583333333336 3.085416666666667 -7.675416666666668 3.085416666666667 -12.040833333333335 0 -13.807083333333333 -11.192916666666669 -25 -25 -25Zm15.625000000000002 25c0 8.629375000000001 -6.995625 15.625000000000002 -15.625000000000002 15.625000000000002S29.166666666666668 53.42104166666667 29.166666666666668 44.79166666666667s6.995625 -15.625000000000002 15.625000000000002 -15.625000000000002 15.625000000000002 6.995625 15.625000000000002 15.625000000000002Z" clip-rule="evenodd" stroke-width="2.0833"></path>
  </g>
</svg>