<svg xmlns="http://www.w3.org/2000/svg" fill="none" viewBox="0 0 100 100" id="Mail-Send-Envelope--Streamline-Plump" height="100" width="100">
  <desc>
    Mail Send Envelope Streamline Icon: https://streamlinehq.com
  </desc>
  <g id="mail-send-envelope--envelope-email-message-unopened-sealed-close">
    <path id="Subtract" fill="#000000" fill-rule="evenodd" d="M14.975458333333336 91.653125C22.069375 92.16229166666668 33.51916666666667 92.70833333333334 50 92.70833333333334c16.480833333333333 0 27.930625000000003 -0.5460416666666668 35.02458333333334 -1.0552083333333333 6.804375 -0.48833333333333334 12.202291666666667 -5.633958333333333 12.818541666666667 -12.500833333333334 0.5583333333333335 -6.221666666666668 1.1152083333333334 -15.779166666666667 1.1152083333333334 -29.15229166666667 0 -1.1250000000000002 -0.003958333333333334 -2.223125 -0.011458333333333334 -3.294375 -0.8850000000000001 0.3916666666666667 -1.9568750000000001 0.8616666666666668 -3.1808333333333336 1.3902083333333335 -3.6508333333333334 1.5770833333333334 -8.669166666666667 3.6825000000000006 -14.128125000000002 5.7910416666666675 -5.449375 2.1045833333333333 -11.390208333333334 4.232916666666667 -16.874375 5.840625000000001C59.388958333333335 61.303125 54.0625 62.50000000000001 49.999791666666674 62.50000000000001s-9.389166666666668 -1.1968750000000001 -14.763541666666669 -2.7725c-5.484375 -1.6077083333333335 -11.425208333333334 -3.7358333333333333 -16.87441666666667 -5.840625000000001 -5.458958333333333 -2.108541666666667 -10.477187500000001 -4.213958333333333 -14.127895833333334 -5.7908333333333335 -1.2240416666666667 -0.52875 -2.2958687500000003 -0.99875 -3.180779166666667 -1.3902083333333335C1.0456083333333335 47.77708333333334 1.0416666666666667 48.87500000000001 1.0416666666666667 50c0 13.373125000000002 0.5568791666666667 22.930625000000003 1.1152083333333334 29.15229166666667 0.6162291666666667 6.866875 6.014208333333334 12.012291666666668 12.818583333333335 12.500833333333334ZM1.2124937500000001 37.68000000000001c0.2074666666666667 -7.158333333333334 0.5756145833333334 -12.722916666666668 0.9444020833333334 -16.832291666666666 0.6162083333333334 -6.866833333333334 6.0141875 -12.012395833333334 12.818562500000002 -12.500791666666668C22.069375 7.837750000000001 33.51916666666667 7.291666666666667 50 7.291666666666667c16.480833333333333 0 27.930625000000003 0.5460833333333334 35.02458333333334 1.05525 6.804375 0.48839583333333336 12.202291666666667 5.633979166666667 12.818541666666667 12.500791666666668 0.36875 4.109375 0.7368750000000001 9.673958333333335 0.9443750000000001 16.832083333333333 -0.17729166666666668 0.05416666666666667 -0.35291666666666666 0.12083333333333335 -0.5258333333333334 0.20020833333333335l-0.00020833333333333335 0 -0.000625 0.00020833333333333335 -0.0037500000000000003 0.0018750000000000001 -0.017708333333333336 0.008125 -0.07375000000000001 0.03354166666666667 -0.2972916666666667 0.13520833333333335c-0.2629166666666667 0.119375 -0.6529166666666667 0.29520833333333335 -1.1554166666666668 0.52 -1.0054166666666666 0.44958333333333333 -2.4608333333333334 1.0933333333333335 -4.251458333333334 1.866875 -3.5839583333333334 1.5479166666666668 -8.497291666666667 3.609166666666667 -13.826041666666667 5.667291666666667 -5.338333333333333 2.0620833333333337 -11.041458333333335 4.100416666666667 -16.216458333333335 5.617708333333334C57.134166666666665 53.28020833333334 52.78604166666667 54.16666666666667 49.999791666666674 54.16666666666667c-2.78625 0 -7.134375 -0.8864583333333333 -12.419166666666667 -2.4358333333333335 -5.175000000000001 -1.5170833333333333 -10.877916666666668 -3.5556250000000005 -16.216250000000002 -5.617500000000001 -5.3287708333333335 -2.0583333333333336 -10.242083333333333 -4.119375000000001 -13.825979166666668 -5.6675 -1.7905416666666667 -0.7733333333333333 -3.2458541666666667 -1.4172916666666668 -4.251250000000001 -1.866666666666667 -0.502625 -0.22479166666666667 -0.8925833333333334 -0.4008333333333333 -1.1555208333333333 -0.52l-0.2972729166666667 -0.13520833333333335 -0.07378125 -0.03375 -0.01758541666666667 -0.007916666666666667 -0.003891666666666667 -0.0018750000000000001 -0.0005958333333333334 -0.00020833333333333335 -0.00011458333333333334 0c-0.17303750000000004 -0.07958333333333334 -0.3486916666666667 -0.14604166666666668 -0.5258895833333334 -0.20020833333333335Z" clip-rule="evenodd" stroke-width="2.0833"></path>
  </g>
</svg>