<svg xmlns="http://www.w3.org/2000/svg" fill="none" viewBox="0 0 100 100" height="100" width="100">
  <g id="map-direction-enable--map-direction-enable-sign-diamond-road">
    <path id="Subtract" fill="#000000" fill-rule="evenodd" d="M58.961041666666674 5.647375c4.216458333333334 3.6454375000000003 10.299375 9.190104166666668 18.24916666666667 17.139708333333335 7.949791666666667 7.949791666666667 13.494375 14.032708333333334 17.139791666666667 18.24916666666667 4.5079166666666675 5.213958333333333 4.5079166666666675 12.70875 0 17.922708333333336 -3.6454166666666667 4.216458333333334 -9.190000000000001 10.299583333333334 -17.139791666666667 18.24916666666667 -7.949791666666667 7.949791666666667 -14.032708333333334 13.494375 -18.24916666666667 17.139791666666667 -5.213958333333333 4.5079166666666675 -12.70875 4.5079166666666675 -17.922708333333336 0 -4.216458333333334 -3.6454166666666667 -10.299375 -9.190000000000001 -18.24916666666667 -17.139791666666667 -7.949645833333334 -7.949583333333334 -13.494312500000001 -14.032708333333334 -17.139750000000003 -18.248958333333334 -4.507925 -5.214166666666667 -4.50791875 -12.708958333333333 0 -17.922916666666666 3.6454375000000003 -4.216458333333334 9.190104166666668 -10.299375 17.139750000000003 -18.24916666666667 7.949791666666667 -7.949604166666667 14.032708333333334 -13.494270833333333 18.24916666666667 -17.139708333333335 5.213958333333333 -4.507914583333334 12.70875 -4.5079166666666675 17.922708333333336 0Zm0.148125 22.805541666666667c1.2916666666666667 -0.59125 2.831875 -0.38000000000000006 4.132708333333333 0.609375 1.4241666666666668 1.0835416666666668 3.226875 2.5350000000000006 5.442083333333334 4.4575000000000005 3.2583333333333337 2.828125 5.197708333333334 4.998333333333334 6.341458333333334 6.512708333333334 1.3545833333333335 1.7933333333333334 1.354375 4.121458333333334 -0.00020833333333333335 5.914583333333334 -1.1437500000000003 1.5141666666666669 -3.0831250000000003 3.684375 -6.3412500000000005 6.512708333333334 -2.2156249999999997 1.9233333333333336 -4.018541666666667 3.3752083333333336 -5.443125 4.45875 -1.300625 0.989375 -2.840625 1.200416666666667 -4.131875000000001 0.6091666666666667 -1.2908333333333335 -0.5908333333333334 -2.138125 -1.8943750000000001 -2.2418750000000003 -3.524166666666667 -0.060000000000000005 -0.9422916666666666 -0.11541666666666667 -2.044166666666667 -0.16104166666666667 -3.329166666666667 -1.2733333333333334 -0.07854166666666666 -2.577916666666667 -0.1679166666666667 -3.933958333333334 -0.26104166666666667l-0.00020833333333333335 0 -0.0037500000000000003 -0.0004166666666666667c-1.5114583333333336 -0.10375 -3.0883333333333334 -0.211875 -4.766875000000001 -0.315 -0.50625 -0.013958333333333335 -0.925 0.3927083333333334 -0.925 0.9v13.432291666666668c0 4.026458333333334 -3.263541666666667 7.2908333333333335 -7.290000000000001 7.291666666666667l-0.4789583333333334 0.00020833333333333335c-4.027708333333334 0.0008333333333333334 -7.293333333333334 -3.2639583333333335 -7.293333333333334 -7.291666666666667V49.10625000000001c0 -7.005625 5.6675 -12.679375 12.642916666666668 -12.857916666666668 2.839375 -0.18458333333333335 7.796250000000001 -0.48875 12.042291666666669 -0.7466666666666667 0.046875 -1.3687500000000001 0.10479166666666667 -2.534375 0.1679166666666667 -3.5239583333333337 0.10375 -1.6302083333333335 0.9510416666666668 -2.93375 2.2420833333333334 -3.5247916666666668Z" clip-rule="evenodd" stroke-width="2.0833"></path>
  </g>
</svg>