<svg xmlns="http://www.w3.org/2000/svg" fill="none" viewBox="0 0 100 100" id="Map-Location--Streamline-Plump" height="100" width="100">
  <desc>
    Map Location Streamline Icon: https://streamlinehq.com
  </desc>
  <g id="map-location--map-location-pin-navigation-gps-travel">
    <path id="Union" fill="#000000" fill-rule="evenodd" d="M8.627416666666667 7.328541666666667C13.2029375 5.623333333333333 20.741770833333334 3.1306875 29.166666666666668 1.6491083333333336V79.3775c-0.5754166666666667 0.12125000000000001 -1.1970833333333335 0.25625000000000003 -1.8604166666666668 0.4058333333333334 -4.0600000000000005 0.9158333333333334 -9.666895833333333 2.3727083333333336 -15.845 4.532708333333334 -4.459625000000001 1.5591666666666666 -9.512145833333333 -1.3958333333333335 -9.766479166666667 -6.43C1.4049729166666667 72.14979166666667 1.0416666666666667 62.09041666666667 1.0416666666666667 47.70791666666667c0 -14.993541666666669 0.39483125 -25.288750000000004 0.6896083333333334 -30.88575C1.95356875 12.601416666666667 4.569770833333334 8.840770833333334 8.627416666666667 7.328541666666667ZM44.79166666666667 66.76312500000002c0 -13.037916666666668 8.222916666666668 -24.194583333333338 19.791666666666668 -28.45666666666667V7.9653333333333345c-6.805416666666667 -2.4035833333333336 -13.938125000000001 -4.056104166666667 -19.589375000000004 -5.136708333333334 -3.2920833333333337 -0.6295000000000001 -6.110625000000001 -1.0703375000000002 -8.110208333333334 -1.3543208333333334 -0.5539583333333334 -0.07865416666666668 -1.0454166666666669 -0.14533333333333334 -1.4670833333333335 -0.20070416666666666V78.87666666666667c4.269791666666667 0.67125 8.743958333333333 1.6197916666666667 12.914166666666668 2.619166666666667 -2.0935416666666664 -4.2700000000000005 -3.539166666666667 -9.212083333333334 -3.539166666666667 -14.732708333333335ZM75 36.45791666666667c-1.4141666666666666 0 -2.805 0.09729166666666667 -4.166666666666667 0.2854166666666667V8.121729166666666c0.5754166666666667 -0.12125000000000001 1.1970833333333335 -0.25633333333333336 1.8604166666666668 -0.40597916666666667 4.0600000000000005 -0.9157916666666668 9.666875000000001 -2.3725625000000004 15.845 -4.5325625 4.459583333333334 -1.5591875000000002 9.512083333333335 1.39575 9.766458333333334 6.43 0.28979166666666667 5.736208333333334 0.6531250000000001 15.795562500000003 0.6531250000000001 30.1780625 0 3.0075000000000003 -0.015833333333333335 5.826041666666667 -0.043750000000000004 8.455416666666668 -5.517500000000001 -7.164375000000001 -14.165208333333334 -11.78875 -23.914583333333333 -11.78875ZM75 42.708333333333336c-13.245416666666667 0 -23.958333333333336 10.783541666666668 -23.958333333333336 24.055208333333336 0 8.095208333333334 3.909583333333334 14.902083333333334 8.227500000000001 19.968541666666667 4.332708333333334 5.083958333333334 9.31625 8.702708333333334 12.041875000000001 10.491875000000002 2.2495833333333337 1.4766666666666668 5.128333333333333 1.4766666666666668 7.377916666666667 0 2.7256250000000004 -1.7891666666666668 7.709166666666667 -5.407916666666667 12.041875000000001 -10.491875000000002 4.317916666666667 -5.066458333333334 8.227500000000001 -11.873333333333335 8.227500000000001 -19.968541666666667C98.95833333333334 53.49187500000001 88.24541666666667 42.708333333333336 75 42.708333333333336ZM83.33333333333334 66.66666666666667c0 4.602291666666667 -3.7310416666666666 8.333333333333334 -8.333333333333334 8.333333333333334 -4.602291666666667 0 -8.333333333333334 -3.7310416666666666 -8.333333333333334 -8.333333333333334 0 -4.602291666666667 3.7310416666666666 -8.333333333333334 8.333333333333334 -8.333333333333334 4.602291666666667 0 8.333333333333334 3.7310416666666666 8.333333333333334 8.333333333333334Z" clip-rule="evenodd" stroke-width="2.0833"></path>
  </g>
</svg>