<svg xmlns="http://www.w3.org/2000/svg" fill="none" viewBox="0 0 100 100" id="Module-Puzzle-3--Streamline-Plump" height="100" width="100">
  <desc>
    Module Puzzle 3 Streamline Icon: https://streamlinehq.com
  </desc>
  <g id="module-puzzle-3--code-puzzle-module-programming-plugin-piece">
    <path id="Subtract" fill="#000000" fill-rule="evenodd" d="M46.875 3.1331458333333337c-13.7675 0.07170833333333333 -23.57979166666667 0.6094375000000001 -29.925541666666668 1.1250208333333334l0.2524166666666667 3.106895833333333 -0.2524166666666667 -3.106895833333333c-6.849687500000001 0.5565416666666667 -12.13475 5.841583333333333 -12.691291666666668 12.691270833333334C3.742604166666667 23.295208333333335 3.204854166666667 33.1075 3.1331458333333337 46.875h10.416354166666668c2.7468125000000003 0 4.4009583333333335 2.0570833333333334 5.119208333333334 3.5406250000000004 0.7504583333333333 1.5502083333333334 1.1177916666666667 3.656666666666667 0.46775000000000005 5.5668750000000005 -0.24964583333333337 0.7335416666666668 -0.3863958333333333 1.523125 -0.3863958333333333 2.3508333333333336 0 4.027083333333334 3.2645208333333335 7.291666666666667 7.291604166666667 7.291666666666667 4.027083333333334 0 7.291666666666667 -3.2645833333333334 7.291666666666667 -7.291666666666667 0 -0.8277083333333334 -0.1366666666666667 -1.6172916666666668 -0.38625000000000004 -2.3508333333333336 -0.6502083333333334 -1.9102083333333335 -0.28270833333333334 -4.016666666666667 0.4677083333333334 -5.5668750000000005 0.718125 -1.4835416666666668 2.372291666666667 -3.5406250000000004 5.119166666666667 -3.5406250000000004H46.875v-7.824375000000001l-0.014166666666666668 -0.006875c-0.18020833333333333 -0.08729166666666667 -0.39562500000000006 -0.14895833333333333 -0.5945833333333334 -0.17041666666666666 -0.14708333333333334 -0.015833333333333335 -0.22750000000000004 -0.0041666666666666675 -0.2454166666666667 -0.0016666666666666668 -0.002291666666666667 0.0004166666666666667 -0.003541666666666667 0.000625 -0.003958333333333334 0.000625 -1.3691666666666669 0.46416666666666667 -2.83375 0.7147916666666667 -4.350208333333334 0.7147916666666667 -7.478750000000001 0 -13.541666666666668 -6.062916666666667 -13.541666666666668 -13.541666666666668 0 -7.478958333333334 6.062916666666667 -13.541770833333334 13.541666666666668 -13.541770833333334 1.5164583333333335 0 2.980833333333334 0.2504791666666667 4.350208333333334 0.7147916666666667 0.0004166666666666667 0 0.0016666666666666668 0.0001666666666666667 0.0037500000000000003 0.0004791666666666667 0.018125 0.002604166666666667 0.09854166666666668 0.014291666666666668 0.24562500000000004 -0.0015625 0.19895833333333335 -0.021458333333333336 0.414375 -0.083125 0.5947916666666666 -0.17045833333333335l0.013958333333333335 -0.006916666666666667V3.1331458333333337ZM46.875 53.12500000000001h-7.827916666666668l-0.006875 0.014166666666666668c-0.08729166666666667 0.18041666666666667 -0.14916666666666667 0.39583333333333337 -0.17062500000000003 0.5947916666666666 -0.015833333333333335 0.14708333333333334 -0.0041666666666666675 0.22750000000000004 -0.0014583333333333334 0.2454166666666667l0.0004166666666666667 0.0037500000000000003C39.33291666666667 55.3525 39.583333333333336 56.816875 39.583333333333336 58.333333333333336c0 7.478958333333334 -6.062708333333333 13.541666666666668 -13.541666666666668 13.541666666666668 -7.478791666666667 0 -13.541604166666668 -6.062708333333333 -13.541604166666668 -13.541666666666668 0 -1.5164583333333335 0.2504791666666667 -2.980833333333334 0.7147916666666667 -4.350208333333334l0.0004791666666666667 -0.0037500000000000003c0.002604166666666667 -0.017916666666666668 0.014291666666666668 -0.09833333333333334 -0.0015625 -0.2454166666666667 -0.021458333333333336 -0.19895833333333335 -0.083125 -0.414375 -0.17045833333333335 -0.5947916666666666L13.036395833333334 53.12500000000001H3.1331458333333337c0.07170833333333333 13.7675 0.6094375000000001 23.580000000000002 1.1250208333333334 29.925625000000004 0.5565208333333334 6.849791666666667 5.841583333333333 12.134791666666667 12.691270833333334 12.691458333333333 6.345770833333334 0.5154166666666667 16.1580625 1.0531249999999999 29.9255625 1.1250000000000002v-10.42c0 -2.746875 2.0570833333333334 -4.401041666666667 3.5406250000000004 -5.119166666666667 1.5502083333333334 -0.7504166666666667 3.656666666666667 -1.1179166666666667 5.5668750000000005 -0.4677083333333334 0.7335416666666668 0.24958333333333335 1.5229166666666667 0.38625000000000004 2.3508333333333336 0.38625000000000004 4.027083333333334 0 7.291666666666667 -3.2645833333333334 7.291666666666667 -7.291666666666667s-3.2645833333333334 -7.291666666666667 -7.291666666666667 -7.291666666666667c-0.8279166666666666 0 -1.6172916666666668 0.136875 -2.3508333333333336 0.38645833333333335 -1.9102083333333335 0.65 -4.016666666666667 0.28270833333333334 -5.5668750000000005 -0.4677083333333334 -1.4835416666666668 -0.7183333333333334 -3.5406250000000004 -2.3725 -3.5406250000000004 -5.119375000000001V53.12500000000001Zm6.25 43.74208333333334v-9.906875000000001l0.014166666666666668 -0.006875c0.18041666666666667 -0.08750000000000001 0.39583333333333337 -0.14916666666666667 0.5947916666666666 -0.17062500000000003 0.14708333333333334 -0.015833333333333335 0.22750000000000004 -0.0041666666666666675 0.2454166666666667 -0.0014583333333333334 0.0020833333333333337 0.00020833333333333335 0.0033333333333333335 0.0004166666666666667 0.0037500000000000003 0.0004166666666666667 1.369375 0.464375 2.83375 0.7147916666666667 4.350208333333334 0.7147916666666667 7.478958333333334 0 13.541666666666668 -6.062708333333333 13.541666666666668 -13.541666666666668 0 -7.478750000000001 -6.062708333333333 -13.541666666666668 -13.541666666666668 -13.541666666666668 -1.5164583333333335 0 -2.980833333333334 0.2504166666666667 -4.350208333333334 0.7147916666666667 -0.0004166666666666667 0 -0.0016666666666666668 0.00020833333333333335 -0.0037500000000000003 0.0004166666666666667 -0.017916666666666668 0.0027083333333333334 -0.09833333333333334 0.014375 -0.2454166666666667 -0.0014583333333333334 -0.19895833333333335 -0.021458333333333336 -0.414375 -0.083125 -0.5947916666666666 -0.17041666666666666l-0.014166666666666668 -0.007083333333333334V53.12500000000001h8.34125c2.746666666666667 0 4.400833333333334 -2.0570833333333334 5.119166666666667 -3.5406250000000004 0.7504166666666667 -1.55 1.1177083333333333 -3.656666666666667 0.4677083333333334 -5.566666666666667C66.80354166666667 43.284166666666664 66.66666666666667 42.49458333333334 66.66666666666667 41.66666666666667c0 -4.027083333333334 3.2645833333333334 -7.291666666666667 7.291666666666667 -7.291666666666667S81.25 37.639583333333334 81.25 41.66666666666667c0 0.8279166666666666 -0.1366666666666667 1.6175000000000002 -0.38625000000000004 2.351041666666667 -0.6502083333333334 1.91 -0.28270833333333334 4.016666666666667 0.4677083333333334 5.566666666666667 0.718125 1.4835416666666668 2.372291666666667 3.5406250000000004 5.119166666666667 3.5406250000000004h10.416458333333335c-0.07187500000000001 13.7675 -0.6095833333333335 23.580000000000002 -1.1252083333333334 29.925625000000004 -0.5564583333333334 6.849791666666667 -5.841458333333334 12.134791666666667 -12.691250000000002 12.691458333333333 -6.345625000000001 0.5154166666666667 -16.158125000000002 1.0531249999999999 -29.925625000000004 1.1250000000000002Zm0 -49.99208333333334v-8.3375c0 -2.746666666666667 -2.0570833333333334 -4.400833333333334 -3.5406250000000004 -5.119166666666667 -1.55 -0.7504166666666667 -3.656666666666667 -1.1177083333333333 -5.566666666666667 -0.4677083333333334 -0.7335416666666668 0.24958333333333335 -1.523125 0.38645833333333335 -2.351041666666667 0.38645833333333335 -4.027083333333334 0 -7.291666666666667 -3.264791666666667 -7.291666666666667 -7.291666666666667 0 -4.027083333333334 3.2645833333333334 -7.2917708333333335 7.291666666666667 -7.2917708333333335 0.8279166666666666 0 1.6175000000000002 0.13675 2.351041666666667 0.3863958333333333 1.91 0.6500416666666667 4.016666666666667 0.28270833333333334 5.566666666666667 -0.46775000000000005 1.4835416666666668 -0.71825 3.5406250000000004 -2.3723958333333335 3.5406250000000004 -5.119208333333334V3.1331458333333337c13.7675 0.07170833333333333 23.580000000000002 0.6094583333333334 29.925625000000004 1.1250208333333334 6.849791666666667 0.5565416666666667 12.134791666666667 5.841583333333333 12.691250000000002 12.691270833333334 0.515625 6.345770833333334 1.0533333333333335 16.1580625 1.1252083333333334 29.9255625h-9.903333333333332l-0.006875 -0.013958333333333335c-0.08729166666666667 -0.18041666666666667 -0.14895833333333333 -0.39583333333333337 -0.17041666666666666 -0.5947916666666666 -0.01604166666666667 -0.14708333333333334 -0.0041666666666666675 -0.22770833333333335 -0.0016666666666666668 -0.24562500000000004l0.0004166666666666667 -0.0037500000000000003C87.24958333333335 44.64750000000001 87.5 43.183125000000004 87.5 41.66666666666667c0 -7.478750000000001 -6.062708333333333 -13.541666666666668 -13.541666666666668 -13.541666666666668 -7.478750000000001 0 -13.541666666666668 6.062916666666667 -13.541666666666668 13.541666666666668 0 1.5164583333333335 0.25062500000000004 2.981041666666667 0.7147916666666667 4.350208333333334 0 0.0004166666666666667 0.00020833333333333335 0.0016666666666666668 0.000625 0.0037500000000000003 0.0025 0.018125 0.014166666666666668 0.09854166666666668 -0.0016666666666666668 0.24562500000000004 -0.021458333333333336 0.19895833333333335 -0.083125 0.414375 -0.17041666666666666 0.5947916666666666l-0.006875 0.013958333333333335H53.12500000000001Z" clip-rule="evenodd" stroke-width="2.0833"></path>
  </g>
</svg>