<svg xmlns="http://www.w3.org/2000/svg" fill="none" viewBox="0 0 100 100" height="100" width="100">
  <g id="navigation-arrow-fork-right--navigation-arrow-fork-right-intersection-road-route-branch-two">
    <path id="Union" fill="#000000" fill-rule="evenodd" d="M37.68291666666667 4.0436250000000005C34.389791666666675 1.4296520833333335 29.98854166666667 1.430035416666667 26.695833333333336 4.0439791666666665c-2.118958333333333 1.6820625000000002 -4.9227083333333335 4.227 -8.35725 8.028979166666668 -2.5599375 2.8338750000000004 -4.479541666666667 5.111625000000001 -5.9100625 6.905833333333334 -1.4947083333333333 1.8747500000000001 -1.9546666666666668 4.186416666666667 -1.1835000000000002 6.23475 0.7771875 2.064166666666667 2.6646250000000005 3.485625 5.0731875 3.8320833333333333 1.4410208333333334 0.20729166666666668 3.144854166666667 0.4025 5.143458333333333 0.5608333333333334 0.3685416666666667 3.476875 0.6697916666666668 7.156458333333333 0.6697916666666668 11.780625 0 0.05479166666666667 0.002291666666666667 0.10916666666666668 0.006458333333333333 0.16291666666666668 -0.0325 9.012916666666667 -0.5204166666666666 18.030208333333334 -1.0041666666666667 26.966875l-0.00125 0.023541666666666666c-0.42483333333333334 7.844791666666667 -0.8464583333333334 15.631875000000003 -0.9427083333333335 23.223333333333336 -0.035145833333333334 2.7739583333333333 1.8360416666666668 5.370625 4.7908333333333335 5.8379166666666675 1.7908333333333335 0.2833333333333334 4.233750000000001 0.5472916666666667 7.123125 0.5472916666666667 2.8893750000000002 0 5.332291666666666 -0.26395833333333335 7.123125 -0.5472916666666667 2.9547916666666665 -0.4672916666666667 4.826041666666667 -3.0639583333333333 4.7908333333333335 -5.8379166666666675 -0.058750000000000004 -4.636458333333334 -0.23875 -9.34125 -0.46645833333333336 -14.085208333333336 2.858541666666667 -7.935208333333334 9.659583333333334 -13.646041666666667 18.16604166666667 -15.455208333333335 0.13291666666666666 1.4154166666666668 0.2835416666666667 2.6645833333333333 0.44125000000000003 3.761458333333334 0.3466666666666667 2.409166666666667 1.7685416666666667 4.296875 3.8331250000000003 5.074166666666667 2.048541666666667 0.7710416666666667 4.360833333333334 0.31104166666666666 6.235833333333334 -1.1839583333333334 1.7937500000000002 -1.4304166666666667 4.071041666666667 -3.349375 6.903958333333334 -5.908125000000001 3.8022916666666666 -3.434166666666667 6.347500000000001 -6.238125 8.029583333333335 -8.357083333333334 2.613958333333333 -3.2931250000000003 2.613541666666667 -7.694375 -0.0004166666666666667 -10.987083333333333 -1.6820833333333334 -2.11875 -4.226875000000001 -4.9227083333333335 -8.028958333333334 -8.357291666666667 -2.833958333333334 -2.5597916666666665 -5.111666666666666 -4.479375000000001 -6.905833333333334 -5.910000000000001 -1.8745833333333335 -1.4945833333333336 -4.186458333333333 -1.9545833333333336 -6.234791666666667 -1.183541666666667 -2.064166666666667 0.7772916666666667 -3.485625 2.6647916666666664 -3.8320833333333333 5.073333333333334 -0.22791666666666668 1.58375 -0.4408333333333334 3.485208333333334 -0.606875 5.746666666666667 -7.122083333333334 0.9722916666666668 -13.719791666666667 3.6425 -19.3975 7.595625000000001 -0.05520833333333334 -2.329166666666667 -0.08666666666666667 -4.658333333333334 -0.08666666666666667 -6.9854166666666675 0 -0.043750000000000004 -0.00125 -0.08708333333333333 -0.003958333333333334 -0.13020833333333334 0.036875000000000005 -4.1937500000000005 0.32375000000000004 -7.609791666666667 0.6697916666666668 -10.851041666666667 2.0768750000000002 -0.16083333333333336 3.8397916666666667 -0.36125 5.324166666666668 -0.5747916666666667 2.409166666666667 -0.34645833333333337 4.296875 -1.7683333333333335 5.0739583333333345 -3.832916666666667 0.77125 -2.04875 0.31125 -4.361041666666667 -1.18375 -6.235937500000001 -1.4304166666666667 -1.7938958333333335 -3.349375 -4.071083333333334 -5.908125000000001 -6.904083333333333 -3.434166666666667 -3.8023125 -6.238125 -6.347375 -8.357083333333334 -8.029479166666668l-1.2820833333333332 1.6148750000000003 1.2820833333333332 -1.6148750000000003Z" clip-rule="evenodd" stroke-width="2.0833"></path>
  </g>
</svg>