<svg xmlns="http://www.w3.org/2000/svg" fill="none" viewBox="0 0 100 100" id="Open-Folder--Streamline-Plump" height="100" width="100">
  <desc>
    Open Folder Streamline Icon: https://streamlinehq.com
  </desc>
  <path fill="#000000" fill-rule="evenodd" d="M30.475 6.1898125c4.17875 -0.09195833333333334 8.088541666666666 2.0204166666666667 10.406875000000001 5.505708333333334l2.767291666666667 4.159958333333334c1.1591666666666667 1.7426458333333334 3.119166666666667 2.7866458333333335 5.208958333333334 2.8001666666666667 12.933125000000002 0.08364583333333334 22.758125 0.6394166666666667 29.220000000000002 1.155 5.431250000000001 0.43337500000000007 9.688125 4.583312500000001 10.21 10.018520833333334 0.055 0.5720833333333334 0.111875 1.1314583333333335 0.16895833333333335 1.6935416666666667 0.07666666666666667 0.7558333333333334 0.15395833333333334 1.51625 0.22770833333333335 2.318541666666667 -7.049375 -0.8627083333333334 -18.457500000000003 -1.8891666666666669 -27.980625000000003 -1.8891666666666669 -0.564375 0 -1.2139583333333335 -0.002291666666666667 -1.9339583333333334 -0.004791666666666667 -3.238541666666667 -0.011250000000000001 -7.898750000000001 -0.027708333333333335 -12.61125 0.13604166666666667 -5.654166666666667 0.19645833333333335 -11.823125 0.6591666666666668 -15.786458333333334 1.8560416666666668 -4.449583333333334 1.3437500000000002 -8.83625 5.006875000000001 -9.927208333333335 10.533541666666666 -0.0061875 0.03145833333333334 -0.011895833333333333 0.06291666666666668 -0.017125 0.094375L17.270208333333333 63.628750000000004c-0.28208333333333335 1.7027083333333335 0.8695416666666667 3.3116666666666665 2.5722083333333337 3.5937500000000004 1.7027916666666667 0.28208333333333335 3.31175 -0.8695833333333334 3.5938333333333334 -2.5722916666666666l3.149166666666667 -19.009375c0.5645833333333334 -2.763541666666667 2.8675 -4.8950000000000005 5.593750000000001 -5.718333333333334 3.08 -0.9300000000000002 8.473541666666668 -1.3941666666666668 14.196875 -1.5929166666666668 4.578541666666667 -0.15916666666666668 9.08625 -0.14354166666666668 12.329583333333334 -0.13229166666666667 0.7358333333333335 0.0025 1.4066666666666667 0.004791666666666667 1.9985416666666669 0.004791666666666667 12.081666666666667 0 27.42666666666667 1.7237500000000001 32.025 2.5166666666666666 2.0943750000000003 0.3610416666666667 3.766875 1.6462500000000002 4.720416666666667 3.52 0.5225000000000001 1.3039583333333336 0.7983333333333333 2.746666666666667 0.7983333333333333 4.247916666666668 0 1.7775 -0.42541666666666667 5.481041666666667 -1.0777083333333333 9.787500000000001 -0.23750000000000002 1.5477083333333335 -0.5045833333333334 3.18 -0.794375 4.843541666666667 -1.1516666666666666 6.610833333333334 -2.5612500000000002 13.134375 -3.6558333333333333 16.16604166666667 -0.04541666666666667 0.12562500000000001 -0.08208333333333333 0.2520833333333333 -0.11062500000000001 0.3789583333333334 -2.304166666666667 6.327500000000001 -5.7525 13.275833333333335 -13.006666666666668 13.604791666666669 -3.664375 0.16604166666666667 -13.352083333333335 0.3610416666666667 -19.497500000000002 0.3747916666666667 -4.26125 0.10625 -9.109166666666667 0.17062500000000003 -14.600625 0.17062500000000003 -16.080416666666668 0 -26.644916666666667 -0.5527083333333334 -33.11233333333333 -1.0893750000000002 -5.176 -0.42937500000000006 -9.065500000000002 -4.402291666666668 -9.4928125 -9.589791666666668 -0.5535416666666667 -6.719791666666667 -1.1472208333333334 -17.564375 -1.1472208333333334 -33.16875 0 -15.376041666666667 0.5764291666666667 -26.130625000000002 1.1229083333333334 -32.87116666666667 0.4325416666666667 -5.335500000000001 4.507270833333333 -9.44975 9.826729166666667 -9.934104166666668 4.441937500000001 -0.4044375 10.447104166666668 -0.8086875000000001 17.773145833333334 -0.9699166666666666Z" clip-rule="evenodd" stroke-width="2.0833"></path>
</svg>