<svg xmlns="http://www.w3.org/2000/svg" fill="none" viewBox="0 0 100 100" id="Open-Hand--Streamline-Plump" height="100" width="100">
  <desc>
    Open Hand Streamline Icon: https://streamlinehq.com
  </desc>
  <g id="Solid/Interface Essential/Hand Gestures/open-hand">
    <path id="Subtract" fill="#000000" fill-rule="evenodd" d="M34.414375 3.297625C35.38 3.1915833333333334 36.41708333333334 3.125 37.5 3.125c0.8816666666666668 0 1.7068750000000001 0.044125000000000004 2.47125 0.11822916666666668 4.501875 0.43645833333333334 6.9425 4.550125 6.951666666666668 8.690750000000001 0.015416666666666669 6.9779583333333335 -0.017291666666666667 17.55872916666667 -0.036041666666666666 22.765812500000003 -0.003958333333333334 1.1458333333333335 0.9227083333333335 2.0745833333333334 2.0781250000000004 2.0745833333333334 1.1472916666666666 0 2.0766666666666667 -0.9291666666666667 2.0766666666666667 -2.075625V15.063812500000001c0 -3.493708333333333 1.8170833333333334 -7.199770833333334 5.789791666666668 -7.638354166666667C57.59020833333334 7.341687500000001 58.43625 7.291666666666667 59.37500000000001 7.291666666666667c0.5291666666666667 0 1.0416666666666667 0.0243125 1.53375 0.067 4.472916666666666 0.38789583333333333 6.882083333333334 4.560958333333334 7.020208333333334 8.6036875 0.2472916666666667 7.236604166666667 0.6306250000000001 20.011395833333335 0.76875 33.07847916666667 -5.296666666666668 -0.74875 -11.567083333333334 0.29104166666666664 -17.120625 2.9058333333333337 -6.185625000000001 2.9125 -11.933750000000002 8.000416666666666 -14.410833333333334 15.431041666666669 -0.6368750000000001 1.9102083333333335 0.3954166666666667 3.975 2.305625 4.6118749999999995 1.9102083333333335 0.6366666666666667 3.975 -0.39562500000000006 4.6118749999999995 -2.3058333333333336 1.6895833333333337 -5.068125 5.712291666666666 -8.838958333333334 10.599583333333333 -11.14 4.936250000000001 -2.324375 10.299166666666668 -2.9264583333333336 14.067916666666669 -2.089583333333333l0.003125 -0.013541666666666667c0.4995833333333334 -0.3125 1.1060416666666668 -0.6904166666666667 1.805416666666667 -1.1235416666666667 2.138541666666667 -1.3247916666666668 5.147083333333334 -3.167291666666667 8.628125 -5.239583333333334 4.196250000000001 -2.497916666666667 9.938125 -2.069375 12.559375000000001 2.488125 1.011875 1.7595833333333335 1.9483333333333335 3.8508333333333336 2.5062500000000005 6.192916666666667 0.7350000000000001 3.085416666666667 -0.4722916666666667 6.110833333333334 -2.365625 8.372291666666667 -4.447916666666667 5.312708333333334 -14.063541666666667 16.055208333333336 -25.642291666666665 24.510625 -3.0564583333333335 2.231875 -6.583750000000001 3.7656250000000004 -10.378541666666667 4.258541666666667 -3.7564583333333332 0.48791666666666667 -9.546875 0.9714583333333334 -17.74395833333333 0.9714583333333334 -3.3693750000000002 0 -6.367500000000001 -0.08166666666666667 -9.005416666666669 -0.21166666666666667 -9.948791666666668 -0.49062500000000003 -18.479541666666666 -6.871666666666667 -20.767166666666668 -16.668125 -2.2714166666666666 -9.726875 -3.1596458333333333 -20.573541666666667 -3.1419583333333336 -29.553958333333338 0.0012708333333333335 -11.788541666666667 0.47318750000000004 -23.03 0.7816875 -29.12229166666667 0.16272916666666667 -3.2137291666666665 1.695 -6.813250000000001 5.404645833333333 -7.497479166666667C12.314458333333334 13.648333333333333 13.373875 13.541666666666668 14.583333333333334 13.541666666666668c1.4007083333333334 0 2.5999791666666665 0.1430625 3.6136041666666667 0.3611458333333334C21.619375 14.639166666666668 22.916666666666668 18.027020833333335 22.916666666666668 20.981458333333332v16.080625c0 1.1412499999999999 0.925 2.06625 2.06625 2.06625 1.153125 0 2.079375 -0.9343750000000001 2.068541666666667 -2.082291666666667 -0.06291666666666668 -6.596875000000001 -0.14354166666666668 -17.544229166666668 -0.10333333333333333 -24.712541666666667 0.02479166666666667 -4.414770833333334 2.824375 -8.526041666666668 7.4662500000000005 -9.035875ZM68.74729166666667 56.444375l0 -0.00020833333333333335 -0.00020833333333333335 0.00020833333333333335 0.00020833333333333335 0Z" clip-rule="evenodd" stroke-width="2.0833"></path>
  </g>
</svg>