<svg xmlns="http://www.w3.org/2000/svg" fill="none" viewBox="0 0 100 100" id="Open-Book--Streamline-Plump" height="100" width="100">
  <desc>
    Open Book Streamline Icon: https://streamlinehq.com
  </desc>
  <g id="open-book--content-books-book-open">
    <path id="Union" fill="#000000" fill-rule="evenodd" d="M13.234083333333334 7.454645833333334c-5.601083333333333 -0.27477083333333335 -10.419458333333333 3.7749791666666668 -10.994145833333334 9.406354166666667C1.66529375 22.492083333333337 1.0416666666666667 31.633958333333336 1.0416666666666667 44.79166666666667c0 13.1575 0.6236270833333334 22.299583333333334 1.1982708333333334 27.930625000000003 0.5823333333333334 5.706041666666668 5.406645833333334 9.465833333333332 10.687895833333334 9.725000000000001 14.164250000000001 0.6947916666666668 23.376958333333338 3.7022916666666665 33.723416666666665 8.927708333333335 0.07416666666666667 0.03729166666666667 0.14875000000000002 0.07354166666666667 0.22375 0.10833333333333334l0 -75.71206250000002c-10.0525 -4.796 -19.690833333333334 -7.632291666666667 -33.64091666666667 -8.316625ZM33.692708333333336 33.87833333333334c1.5937500000000002 0.7791666666666667 3.52375 0.5839583333333334 4.462083333333333 -1.1222916666666667 0.8725 -1.5864583333333333 0.16333333333333333 -3.5208333333333335 -1.3854166666666667 -4.325833333333334 -0.5666666666666668 -0.29437500000000005 -2.590416666666667 -1.2860416666666667 -5.918125000000001 -2.262291666666667C27.047291666666666 25.052083333333336 21.542291666666667 23.958333333333336 14.583333333333334 23.958333333333336c-1.7258958333333334 0 -3.125 1.3991666666666667 -3.125 3.125s1.3991041666666668 3.125 3.125 3.125c6.298750000000001 0 11.210416666666667 0.9895833333333334 14.508750000000001 1.9570833333333335 2.474375 0.7258333333333333 4.042083333333333 1.4397916666666668 4.600625 1.7129166666666669Zm0 18.75c1.5937500000000002 0.7791666666666667 3.52375 0.5839583333333334 4.462083333333333 -1.1222916666666667 0.8729166666666667 -1.5872916666666668 0.16500000000000004 -3.52 -1.3854166666666667 -4.325833333333334 -1.872291666666667 -0.9729166666666668 -3.9000000000000004 -1.6702083333333333 -5.918125000000001 -2.262291666666667C27.047291666666666 43.802083333333336 21.542291666666667 42.708333333333336 14.583333333333334 42.708333333333336c-1.7258958333333334 0 -3.125 1.3991666666666667 -3.125 3.125s1.3991041666666668 3.125 3.125 3.125c6.298750000000001 0 11.210416666666667 0.9895833333333334 14.508750000000001 1.9570833333333335 2.474375 0.7258333333333333 4.042083333333333 1.4397916666666668 4.600625 1.7129166666666669Zm0 18.75c1.5937500000000002 0.7791666666666667 3.52375 0.5839583333333334 4.462083333333333 -1.1222916666666667 0.873125 -1.5872916666666668 0.16437500000000002 -3.5202083333333336 -1.3854166666666667 -4.325833333333334 -1.872291666666667 -0.9729166666666668 -3.9000000000000004 -1.6702083333333333 -5.918125000000001 -2.262291666666667C27.047291666666666 62.552083333333336 21.542291666666667 61.458333333333336 14.583333333333334 61.458333333333336c-1.7258958333333334 0 -3.125 1.3991666666666667 -3.125 3.125s1.3991041666666668 3.125 3.125 3.125c6.298750000000001 0 11.210416666666667 0.9895833333333334 14.508750000000001 1.9570833333333335 2.474375 0.7258333333333333 4.042083333333333 1.4397916666666668 4.600625 1.7129166666666669Zm19.65604166666667 19.996666666666666c-0.07416666666666667 0.03729166666666667 -0.14875000000000002 0.07354166666666667 -0.22375 0.10833333333333334l0 -75.71206250000002c10.0525 -4.796 19.690833333333334 -7.632291666666667 33.64083333333334 -8.316625 5.60125 -0.27477083333333335 10.419583333333335 3.7749791666666668 10.994166666666667 9.406354166666667C98.33479166666667 22.492083333333337 98.95833333333334 31.633958333333336 98.95833333333334 44.79166666666667c0 13.1575 -0.6235416666666668 22.299583333333334 -1.1983333333333335 27.930625000000003 -0.5822916666666668 5.706041666666668 -5.406666666666667 9.465833333333332 -10.687916666666668 9.725000000000001 -14.164166666666668 0.6947916666666668 -23.376875000000002 3.7022916666666665 -33.723333333333336 8.927708333333335Zm15.8 -65.20708333333333c-3.3277083333333333 0.9762500000000001 -5.351458333333334 1.9679166666666668 -5.918125000000001 2.262291666666667 -1.54875 0.805 -2.257916666666667 2.739375 -1.3854166666666667 4.325833333333334 0.8429166666666668 1.5327083333333336 2.7506250000000003 2.0145833333333334 4.2675 1.2200000000000002 0.2554166666666667 -0.13270833333333334 1.9085416666666668 -0.9639583333333334 4.795208333333333 -1.8106250000000002C74.20625000000001 31.197916666666668 79.11791666666667 30.208333333333336 85.41666666666667 30.208333333333336c1.7258333333333336 0 3.125 -1.3991666666666667 3.125 -3.125s-1.3991666666666667 -3.125 -3.125 -3.125c-6.958958333333334 0 -12.463958333333334 1.0937500000000002 -16.267916666666668 2.2095833333333337Zm0 18.75c-3.3277083333333333 0.9762500000000001 -5.351458333333334 1.9679166666666668 -5.918125000000001 2.262291666666667 -1.5475 0.8097916666666667 -2.2602083333333334 2.7352083333333335 -1.3854166666666667 4.325833333333334 0.9383333333333335 1.70625 2.8683333333333336 1.9014583333333335 4.462083333333333 1.1222916666666667 0.5585416666666667 -0.273125 2.12625 -0.9870833333333334 4.600625 -1.7129166666666669C74.20625000000001 49.94791666666667 79.11791666666667 48.958333333333336 85.41666666666667 48.958333333333336c1.7258333333333336 0 3.125 -1.3991666666666667 3.125 -3.125s-1.3991666666666667 -3.125 -3.125 -3.125c-6.958958333333334 0 -12.463958333333334 1.0937500000000002 -16.267916666666668 2.2095833333333337Zm12.077916666666667 19.721875c0.2104166666666667 1.7129166666666669 -1.0077083333333334 3.272291666666667 -2.7206250000000005 3.4827083333333335 -4.110833333333334 0.505 -7.280000000000001 1.3818750000000002 -9.390416666666667 2.115625 -1.5827083333333336 0.5502083333333334 -2.569166666666667 1.0195833333333335 -2.9070833333333335 1.1889583333333333 -1.5589583333333334 0.7816666666666667 -3.47 0.45291666666666675 -4.363333333333333 -1.1712500000000001 -0.8591666666666667 -1.5618750000000001 -0.19333333333333333 -3.4868750000000004 1.3402083333333334 -4.302083333333334 1.2391666666666667 -0.6514583333333334 2.558125 -1.1602083333333333 3.8779166666666667 -1.6191666666666669 2.4839583333333333 -0.8635416666666667 6.085625 -1.8510416666666667 10.680625 -2.4154166666666668 1.7131250000000002 -0.210625 3.272291666666667 1.0075 3.4827083333333335 2.7206250000000005Z" clip-rule="evenodd" stroke-width="2.0833"></path>
  </g>
</svg>