<svg xmlns="http://www.w3.org/2000/svg" fill="none" viewBox="0 0 100 100" id="Padlock-Circle-1--Streamline-Plump" height="100" width="100">
  <desc>
    Padlock Circle 1 Streamline Icon: https://streamlinehq.com
  </desc>
  <g id="Solid/Interface Essential/Lock Unlock/padlock-circle-1--combination-combo-lock-locked-padlock-secure-security-shield-keyhole">
    <path id="Subtract" fill="#000000" fill-rule="evenodd" d="M25.210625000000004 22.00604166666667C25.69875 10.289166666666667 35.33958333333334 1.0416666666666667 47.06666666666667 1.0416666666666667h5.866666666666667c11.727083333333333 0 21.36791666666667 9.2475 21.85604166666667 20.964375000000004l0.8289583333333334 19.897500000000004C82.28250000000001 47.90375 86.45833333333334 56.255416666666676 86.45833333333334 65.625c0 18.691875 -16.619583333333335 33.333333333333336 -36.458333333333336 33.333333333333336s-36.458333333333336 -14.641458333333334 -36.458333333333336 -33.333333333333336c0 -9.369583333333333 4.175895833333334 -17.72125 10.84 -23.721458333333334l0.8289583333333334 -19.897500000000004Zm34.60333333333334 0.50625 0.6206250000000001 11.171458333333335C57.11687500000001 32.776875000000004 53.611875000000005 32.29166666666667 50 32.29166666666667c-3.6118750000000004 0 -7.116875000000001 0.48520833333333335 -10.434583333333334 1.3920833333333336l0.6206250000000001 -11.171458333333335C40.40083333333333 18.648229166666667 43.59666666666667 15.625000000000002 47.466458333333335 15.625000000000002h5.067083333333334c3.869791666666667 0 7.065625000000001 3.023229166666667 7.280416666666667 6.887291666666667ZM59.37500000000001 60.41666666666667c0 3.175416666666667 -1.57875 5.982083333333334 -3.994166666666667 7.678125000000001l2.2227083333333333 8.335208333333334c0.4141666666666667 1.5529166666666667 -0.4375 3.1206250000000004 -2.0247916666666668 3.3737500000000002 -1.3577083333333333 0.21645833333333336 -3.217291666666667 0.4045833333333334 -5.57875 0.4045833333333334s-4.221041666666667 -0.18812500000000001 -5.57875 -0.4045833333333334c-1.5872916666666668 -0.253125 -2.438958333333334 -1.8208333333333335 -2.0247916666666668 -3.3737500000000002l2.2227083333333333 -8.335208333333334C42.20375 66.39875 40.625 63.59208333333334 40.625 60.41666666666667c0 -5.177708333333334 4.197291666666667 -9.375 9.375 -9.375s9.375 4.197291666666667 9.375 9.375Z" clip-rule="evenodd" stroke-width="2.0833"></path>
  </g>
</svg>