<svg xmlns="http://www.w3.org/2000/svg" fill="none" viewBox="0 0 100 100" id="Padlock-Circle-2--Streamline-Plump" height="100" width="100">
  <desc>
    Padlock Circle 2 Streamline Icon: https://streamlinehq.com
  </desc>
  <g id="Solid/Interface Essential/Lock Unlock/padlock-circle-2--combination-combo-lock-unlocked-padlock-secure-security-shield-keyhole">
    <path id="Subtract" fill="#000000" fill-rule="evenodd" d="M25.210625000000004 22.00604166666667C25.69875 10.289166666666667 35.33958333333334 1.0416666666666667 47.06666666666667 1.0416666666666667h5.866666666666667c11.727083333333333 0 21.36791666666667 9.2475 21.85604166666667 20.964375000000004l0.13416666666666668 3.2227083333333333c0.012083333333333333 0.28791666666666665 -0.09583333333333334 0.5679166666666667 -0.29791666666666666 0.7735416666666668 -0.20208333333333336 0.205625 -0.4802083333333334 0.31812500000000005 -0.7683333333333334 0.31104166666666666 -3.795416666666667 -0.09354166666666668 -8.077916666666667 -0.17062500000000003 -12.869375 -0.21833333333333335 -0.5487500000000001 -0.005625000000000001 -0.9991666666666668 -0.43583333333333335 -1.0295833333333333 -0.9839583333333334l-0.144375 -2.5987500000000003C59.599166666666676 18.648229166666667 56.403333333333336 15.625000000000002 52.53354166666667 15.625000000000002h-5.067083333333334c-3.869791666666667 0 -7.065625000000001 3.023229166666667 -7.280416666666667 6.887291666666667l-0.6206250000000001 11.171458333333335C42.883125 32.776875000000004 46.388125 32.29166666666667 50 32.29166666666667c19.83875 0 36.458333333333336 14.641458333333334 36.458333333333336 33.333333333333336 0 18.691875 -16.619583333333335 33.333333333333336 -36.458333333333336 33.333333333333336s-36.458333333333336 -14.641458333333334 -36.458333333333336 -33.333333333333336c0 -9.369583333333333 4.175895833333334 -17.72125 10.84 -23.721458333333334l0.8289583333333334 -19.897500000000004ZM59.37500000000001 60.41666666666667c0 3.175416666666667 -1.57875 5.982083333333334 -3.994166666666667 7.678125000000001l2.2227083333333333 8.335208333333334c0.4141666666666667 1.5529166666666667 -0.4375 3.1206250000000004 -2.0247916666666668 3.3737500000000002 -1.3577083333333333 0.21645833333333336 -3.217291666666667 0.4045833333333334 -5.57875 0.4045833333333334s-4.221041666666667 -0.18812500000000001 -5.57875 -0.4045833333333334c-1.5872916666666668 -0.253125 -2.438958333333334 -1.8208333333333335 -2.0247916666666668 -3.3737500000000002l2.2227083333333333 -8.335208333333334C42.20375 66.39875 40.625 63.59208333333334 40.625 60.41666666666667c0 -5.177708333333334 4.197291666666667 -9.375 9.375 -9.375s9.375 4.197291666666667 9.375 9.375Z" clip-rule="evenodd" stroke-width="2.0833"></path>
  </g>
</svg>