<svg xmlns="http://www.w3.org/2000/svg" fill="none" viewBox="0 0 100 100" id="Padlock-Square-1--Streamline-Plump" height="100" width="100">
  <desc>
    Padlock Square 1 Streamline Icon: https://streamlinehq.com
  </desc>
  <g id="Solid/Interface Essential/Lock Unlock/padlock-square-1--combination-combo-lock-locked-padlock-secure-security-shield-keyhole">
    <path id="Subtract" fill="#000000" fill-rule="evenodd" d="M22.051666666666666 24.920625C23.17625 11.4235 34.45937500000001 1.0416666666666667 48.00333333333334 1.0416666666666667h3.9933333333333336c13.543958333333334 0 24.826875 10.381833333333333 25.951666666666668 23.878958333333333l1.1902083333333335 14.282291666666667 0.03645833333333334 0.0020833333333333337c6.671875000000001 0.3564583333333334 12.207916666666668 5.227708333333334 12.831666666666669 12.099583333333335 0.3820833333333334 4.2093750000000005 0.7016666666666667 9.965833333333334 0.7016666666666667 17.445416666666667 0 7.479583333333333 -0.3195833333333334 13.236041666666667 -0.7016666666666667 17.445416666666667 -0.62375 6.871875000000001 -6.159791666666667 11.743125000000001 -12.831666666666669 12.099583333333335 -6.1775 0.3302083333333334 -15.738750000000001 0.6633333333333334 -29.175 0.6633333333333334s-22.997500000000002 -0.333125 -29.174916666666668 -0.6633333333333334c-6.671958333333333 -0.3564583333333334 -12.207937500000002 -5.227708333333334 -12.831708333333335 -12.099791666666668C7.611291666666667 81.98604166666667 7.291666666666667 76.22958333333335 7.291666666666667 68.75c0 -7.479583333333333 0.31962500000000005 -13.236041666666667 0.7017083333333334 -17.445208333333333 0.6237708333333334 -6.872083333333334 6.159770833333334 -11.743333333333334 12.831708333333335 -12.099791666666668l0.036375000000000005 -0.0020833333333333337 1.1902083333333335 -14.282291666666667Zm37.93666666666667 2.2058333333333335 0.6760416666666668 11.490208333333333c-3.2408333333333337 -0.047291666666666676 -6.791666666666667 -0.075 -10.664375000000001 -0.075 -3.872916666666667 0 -7.423750000000001 0.027708333333333335 -10.664375000000001 0.075l0.6758333333333334 -11.490208333333333C40.322500000000005 21.83791666666667 44.70208333333334 17.708333333333336 50 17.708333333333336c5.2977083333333335 0 9.677291666666667 4.129583333333334 9.988333333333335 9.418125ZM59.37500000000001 62.50000000000001c0 3.3781250000000003 -1.7866666666666668 6.338958333333334 -4.466875 7.9889583333333345l2.695416666666667 10.107708333333335c0.4141666666666667 1.5529166666666667 -0.4375 3.1206250000000004 -2.0247916666666668 3.3737500000000002 -1.3577083333333333 0.21645833333333336 -3.217291666666667 0.4045833333333334 -5.57875 0.4045833333333334s-4.221041666666667 -0.18812500000000001 -5.57875 -0.4045833333333334c-1.5872916666666668 -0.253125 -2.438958333333334 -1.8208333333333335 -2.0247916666666668 -3.3737500000000002l2.695416666666667 -10.107708333333335C42.411666666666676 68.83895833333335 40.625 65.87812500000001 40.625 62.50000000000001c0 -5.177708333333334 4.197291666666667 -9.375 9.375 -9.375s9.375 4.197291666666667 9.375 9.375Z" clip-rule="evenodd" stroke-width="2.0833"></path>
  </g>
</svg>