<svg xmlns="http://www.w3.org/2000/svg" fill="none" viewBox="0 0 100 100" id="Padlock-Square-2--Streamline-Plump" height="100" width="100">
  <desc>
    Padlock Square 2 Streamline Icon: https://streamlinehq.com
  </desc>
  <g id="Solid/Interface Essential/Lock Unlock/padlock-square-2--combination-combo-key-keyhole-lock-secure-security-square-unlock-unlocked">
    <path id="Subtract" fill="#000000" fill-rule="evenodd" d="M21.41979166666667 25.418750000000003C22.570000000000004 11.616458333333334 34.108333333333334 1 47.958333333333336 1h4.08375c13.850208333333335 0 25.388125 10.616458333333334 26.538333333333338 24.418750000000003l0.2075 2.4902083333333334c0.025208333333333336 0.3020833333333333 -0.07958333333333334 0.6006250000000001 -0.28833333333333333 0.8210416666666668 -0.20854166666666668 0.22 -0.5010416666666667 0.3408333333333333 -0.8041666666666667 0.33208333333333334 -4.6379166666666665 -0.135 -10.096458333333334 -0.248125 -16.423958333333335 -0.3116666666666667 -0.5597916666666667 -0.005625000000000001 -1.0197916666666667 -0.4435416666666667 -1.0525 -1.0027083333333333l-0.004583333333333334 -0.07312500000000001c-0.31812500000000005 -5.408125 -4.796666666666667 -9.631041666666667 -10.214166666666667 -9.631041666666667 -5.417708333333334 0 -9.896250000000002 4.222916666666667 -10.214375 9.631041666666667l-0.5658333333333334 9.6175c3.2802083333333334 -0.047291666666666676 6.869583333333334 -0.07479166666666667 10.780000000000001 -0.07479166666666667 13.740000000000002 0 23.517500000000002 0.3408333333333333 29.834583333333338 0.6783333333333333 6.822708333333334 0.3645833333333333 12.483958333333334 5.346041666666667 13.121875000000001 12.373333333333333 0.390625 4.304375 0.7175 10.191041666666667 0.7175 17.83979166666667 0 7.6485416666666675 -0.326875 13.535208333333335 -0.7175 17.83979166666667 -0.6379166666666668 7.027291666666667 -6.299166666666667 12.008541666666668 -13.121875000000001 12.373125 -6.317083333333334 0.33770833333333333 -16.094583333333333 0.6783333333333333 -29.834583333333338 0.6783333333333333s-23.517500000000002 -0.340625 -29.834583333333338 -0.6783333333333333c-6.822708333333334 -0.3645833333333333 -12.483958333333334 -5.345833333333333 -13.121666666666668 -12.373333333333333 -0.39083333333333337 -4.304375 -0.7177083333333333 -10.191041666666667 -0.7177083333333333 -17.839583333333337 0 -7.648750000000001 0.326875 -13.535416666666668 0.7177083333333333 -17.839583333333337 0.6377083333333333 -7.027500000000001 6.298958333333333 -12.008958333333336 13.121666666666668 -12.373541666666668l0.21583333333333335 -0.011458333333333334 1.0385416666666667 -12.465416666666666Zm38.16708333333334 36.29854166666667c0 3.4545833333333333 -1.8268750000000002 6.482291666666667 -4.567708333333333 8.169583333333334l2.75625 10.336250000000001c0.4235416666666667 1.588125 -0.4472916666666667 3.19125 -2.070625 3.45 -1.3883333333333334 0.22145833333333337 -3.29 0.41375 -5.704791666666668 0.41375s-4.316458333333333 -0.19229166666666667 -5.704791666666668 -0.41375c-1.6233333333333335 -0.25875000000000004 -2.494166666666667 -1.8618750000000002 -2.070625 -3.45l2.75625 -10.336250000000001c-2.740625 -1.6872916666666666 -4.567708333333333 -4.715 -4.567708333333333 -8.169583333333334 0 -5.294583333333334 4.292083333333334 -9.586875000000001 9.586875000000001 -9.586875000000001s9.586875000000001 4.292291666666666 9.586875000000001 9.586875000000001Z" clip-rule="evenodd" stroke-width="2.0833"></path>
  </g>
</svg>