<svg xmlns="http://www.w3.org/2000/svg" fill="none" viewBox="0 0 100 100" id="Pen-2--Streamline-Plump" height="100" width="100">
  <desc>
    Pen 2 Streamline Icon: https://streamlinehq.com
  </desc>
  <g id="Solid/Interface Essential/Edit/pen-2--content-creation-edit-fountain-pen-write">
    <path id="Union" fill="#000000" fill-rule="evenodd" d="M45.29770833333333 21.733541666666667c-1.2343750000000002 -0.4047916666666667 -2.3864583333333336 -0.7252083333333335 -3.4356250000000004 -0.9786458333333334l27.505208333333336 -16.808770833333337c2.934166666666667 -1.7930833333333334 6.936666666666667 -3.30320625 11.108125000000001 -2.1251208333333333C88.66666666666667 4.1343958333333335 95.864375 11.332229166666668 98.17791666666668 19.523500000000002c1.1779166666666667 4.171291666666667 -0.33208333333333334 8.174 -2.1252083333333336 11.108166666666667l-16.80875 27.505000000000003c-0.25333333333333335 -1.0491666666666668 -0.57375 -2.201041666666667 -0.9785416666666668 -3.435416666666667 -1.8652083333333334 -5.687708333333334 -5.525 -13.124375 -12.684375000000001 -20.28375 -7.159166666666667 -7.159166666666667 -14.595833333333335 -10.818958333333335 -20.283333333333335 -12.683958333333335Zm-11.785833333333333 5.768125c-1.5104166666666667 2.551666666666667 -3.8893750000000002 7.201041666666668 -5.686041666666667 13.661666666666667 1.2708333333333335 0.32645833333333335 2.985833333333334 0.8433333333333334 4.973541666666668 1.6383333333333334 4.197291666666667 1.6789583333333333 9.665416666666667 4.620625 14.721041666666666 9.67625 5.055625 5.055625 7.997083333333334 10.523541666666668 9.676041666666666 14.720833333333333 0.7956250000000001 1.9887500000000002 1.3125 3.704375 1.6389583333333333 4.975416666666667 6.4610416666666675 -1.7966666666666669 11.111041666666669 -4.175833333333333 13.662708333333333 -5.68625 0.5275 -0.3122916666666667 1.0170833333333336 -0.6610416666666667 1.470625 -1.0377083333333335l-0.010833333333333334 -0.811875 0 -0.003541666666666667 -0.00020833333333333335 -0.004791666666666667 -0.0008333333333333334 -0.02729166666666667 -0.0018750000000000001 -0.04895833333333334c-0.0033333333333333335 -0.07687500000000001 -0.010208333333333333 -0.20541666666666666 -0.023333333333333334 -0.381875 -0.02666666666666667 -0.35291666666666666 -0.07916666666666668 -0.8966666666666667 -0.1825 -1.6016666666666668 -0.20666666666666667 -1.4110416666666667 -0.615625 -3.461875 -1.4220833333333334 -5.9210416666666665 -1.6106250000000002 -4.911041666666667 -4.806041666666667 -11.452708333333334 -11.165000000000001 -17.811666666666667 -6.358958333333334 -6.358958333333334 -12.900416666666667 -9.554166666666667 -17.811458333333334 -11.164583333333335 -2.4589583333333334 -0.8064583333333334 -4.5095833333333335 -1.2152083333333334 -5.920625 -1.4220833333333334 -0.705 -0.10312500000000001 -1.2487500000000002 -0.155625 -1.6016666666666668 -0.18229166666666666 -0.17625 -0.013125000000000001 -0.30479166666666674 -0.02 -0.381875 -0.023333333333333334l-0.043125000000000004 -0.0016666666666666668 -0.033125 -0.0010416666666666669 -0.005208333333333334 -0.00020833333333333335 -0.8158333333333334 -0.010833333333333334c-0.37645833333333334 0.45354166666666673 -0.7252083333333335 0.9427083333333335 -1.0372916666666667 1.4702083333333333Zm19.410833333333333 46.802708333333335c-0.02916666666666667 -0.12520833333333334 -0.061666666666666675 -0.2597916666666667 -0.0975 -0.40312500000000007 -0.2635416666666667 -1.054375 -0.7104166666666668 -2.577916666666667 -1.4322916666666667 -4.3825 -1.446041666666667 -3.615208333333334 -3.9733333333333336 -8.303333333333333 -8.2925 -12.622708333333335 -4.319375000000001 -4.319375000000001 -9.007708333333333 -6.846458333333334 -12.622916666666669 -8.2925 -1.804375 -0.721875 -3.327916666666667 -1.1687500000000002 -4.3825 -1.4322916666666667 -0.14208333333333334 -0.035625000000000004 -0.2758333333333333 -0.06791666666666667 -0.40020833333333333 -0.096875 -3.5100000000000002 0.3916666666666667 -6.780604166666667 1.2958333333333334 -9.278770833333333 2.1454166666666667 -4.329104166666667 1.4720833333333334 -7.268729166666667 5.088958333333333 -8.456979166666668 9.168333333333335C2.5701875000000003 76.88916666666667 1.2043062500000001 88.90020833333334 1.0666583333333335 90.203125c-0.02061041666666667 0.19520833333333334 -0.03310416666666667 0.4229166666666667 -0.018939583333333336 0.6883333333333335 0.022383333333333335 0.41958333333333336 0.12409791666666668 1.5941666666666667 0.6957208333333335 2.942291666666667l18.764852083333338 -18.764791666666667c-0.13845833333333335 -0.02916666666666667 -0.2828541666666667 -0.05708333333333334 -0.4309791666666667 -0.085625 -1.4364166666666667 -0.2775 -3.2260416666666667 -0.6233333333333334 -3.4029375 -2.8587500000000006 -0.19004166666666666 -2.4014583333333337 1.865625 -3.4970833333333338 3.836666666666667 -3.3550000000000004 1.491875 0.10770833333333335 4.46 0.7410416666666667 7.2175 3.498541666666667 2.7575000000000003 2.7575000000000003 3.3908333333333336 5.725625 3.4983333333333335 7.2175 0.14250000000000002 1.9722916666666668 -0.9733333333333334 4.0252083333333335 -3.354791666666667 3.836666666666667 -2.1920833333333336 -0.17354166666666668 -2.532916666666667 -1.8335416666666668 -2.8777083333333335 -3.5120833333333334 -0.022083333333333333 -0.10729166666666667 -0.04416666666666667 -0.2147916666666667 -0.06666666666666668 -0.321875l-18.76560416666667 18.765625000000004c1.3500833333333333 0.5727083333333334 2.5266875 0.6737500000000001 2.9459375000000003 0.6960416666666668 0.26445833333333335 0.013958333333333335 0.4912291666666667 0.0014583333333333334 0.6857500000000001 -0.01916666666666667 1.3001875 -0.13729166666666667 13.311625 -1.502916666666667 31.815375000000003 -6.8925 4.079375 -1.1883333333333335 7.69625 -4.127916666666667 9.168333333333335 -8.457083333333335 0.8493750000000001 -2.4977083333333336 1.7533333333333334 -5.767500000000001 2.1452083333333336 -9.276875Z" clip-rule="evenodd" stroke-width="2.0833"></path>
  </g>
</svg>