<svg xmlns="http://www.w3.org/2000/svg" fill="none" viewBox="0 0 100 100" id="Pencil-Line--Streamline-Plump" height="100" width="100">
  <desc>
    Pencil Line Streamline Icon: https://streamlinehq.com
  </desc>
  <g id="pencil-line--edit-edition-form-pen-text-write">
    <path id="Union" fill="#000000" fill-rule="evenodd" d="M57.08458333333334 4.731625000000001c3.7814583333333336 -3.7813729166666668 9.852083333333335 -5.194858333333334 14.787500000000001 -1.8439791666666667 2.615 1.7752916666666667 5.814375000000001 4.276395833333334 9.222291666666669 7.684187500000001 3.4077083333333333 3.4077500000000005 5.90875 6.607291666666667 7.684166666666667 9.222083333333334 3.3508333333333336 4.935458333333333 1.9372916666666666 11.006083333333335 -1.8439583333333334 14.787541666666668l-4.875208333333334 4.875208333333334c-0.18333333333333335 -0.3658333333333334 -0.38041666666666674 -0.7466666666666667 -0.5925 -1.1420833333333336 -2.174166666666667 -4.051666666666667 -5.908333333333333 -9.601458333333333 -12.211041666666667 -15.904166666666669 -6.302708333333334 -6.302645833333334 -11.8525 -10.037 -15.904166666666669 -12.211041666666667 -0.3954166666666667 -0.21216666666666667 -0.7764583333333334 -0.40937500000000004 -1.1422916666666667 -0.5925416666666667l4.875208333333334 -4.875208333333334Zm-9.58 9.581125L12.626145833333334 49.191250000000004c0.3657291666666667 0.18312500000000004 0.7466458333333333 0.38020833333333337 1.1420208333333335 0.5925 4.051645833333334 2.1739583333333337 9.601416666666667 5.908333333333333 15.904125000000002 12.211041666666667 6.302708333333334 6.302708333333334 10.037083333333333 11.8525 12.211041666666667 15.904166666666669 0.21208333333333335 0.3954166666666667 0.40937500000000004 0.77625 0.5925 1.1418750000000002L77.354375 44.1625c-0.335 -0.7902083333333334 -0.7887500000000001 -1.7620833333333334 -1.395 -2.891875 -1.8839583333333334 -3.5112500000000004 -5.251458333333334 -8.567916666666667 -11.123125000000002 -14.439791666666668 -5.871666666666667 -5.871666666666667 -10.928541666666668 -9.239083333333333 -14.439791666666668 -11.1231875 -1.1297916666666667 -0.6061666666666667 -2.1016666666666666 -1.06 -2.891875 -1.3948958333333334ZM8.566833333333333 54.176875c-0.4817916666666667 1.0366666666666666 -0.799625 2.1662500000000002 -0.9062708333333334 3.361458333333333 -0.31633333333333336 3.5450000000000004 -0.6506875000000001 10.276458333333334 0.020854166666666667 19.80291666666667 0.250875 3.5589583333333334 3.084291666666667 6.3925 6.643375000000001 6.6433333333333335 9.526250000000001 0.6714583333333334 16.257708333333333 0.33708333333333335 19.80291666666667 0.020833333333333336 1.195 -0.10666666666666667 2.3245833333333334 -0.424375 3.361458333333333 -0.9062500000000001 -0.29583333333333334 -0.6554166666666666 -0.6620833333333335 -1.4075 -1.1125 -2.246875 -1.8841666666666668 -3.5112500000000004 -5.251458333333334 -8.567916666666667 -11.123125000000002 -14.439791666666668 -5.8717500000000005 -5.871666666666667 -10.928541666666668 -9.239166666666668 -14.439875 -11.123125000000002 -0.8392708333333334 -0.4504166666666667 -1.5915000000000001 -0.8166666666666668 -2.246833333333334 -1.1125ZM6.25 88.54166666666667C3.3735208333333335 88.54166666666667 1.0416666666666667 90.87354166666668 1.0416666666666667 93.75s2.3318541666666666 5.208333333333334 5.208333333333334 5.208333333333334h87.5c2.876458333333334 0 5.208333333333334 -2.331875 5.208333333333334 -5.208333333333334s-2.331875 -5.208333333333334 -5.208333333333334 -5.208333333333334H6.25Z" clip-rule="evenodd" stroke-width="2.0833"></path>
  </g>
</svg>