<svg xmlns="http://www.w3.org/2000/svg" fill="none" viewBox="0 0 100 100" id="Pencil--Streamline-Plump" height="100" width="100">
  <desc>
    Pencil Streamline Icon: https://streamlinehq.com
  </desc>
  <g id="Solid/Interface Essential/Edit/pencil--change-edit-modify-pencil-write-writing">
    <path id="Union" fill="#000000" fill-rule="evenodd" d="M76.29854166666668 3.3908958333333334c-6.427291666666667 -4.09924375 -13.897291666666668 -1.7533875 -18.619583333333335 2.968729166666667l-3.3637500000000005 3.3636875c1.0004166666666667 0.48833333333333334 2.2018750000000002 1.1248958333333334 3.581041666666667 1.9437083333333336 4.2093750000000005 2.4991041666666667 10.060625000000002 6.687708333333334 16.895000000000003 13.522145833333335 6.834166666666667 6.8343750000000005 11.027291666666667 12.689791666666668 13.530833333333334 16.903333333333336 0.8225 1.3843750000000001 1.461875 2.5900000000000003 1.9520833333333336 3.593125l3.365625 -3.365625c4.7225 -4.722291666666667 7.06875 -12.192916666666667 2.9687500000000004 -18.620416666666667 -2.0277083333333334 -3.178833333333334 -4.949791666666667 -6.994625 -9.131875 -11.176541666666669 -4.182708333333333 -4.182333333333333 -7.998958333333334 -7.104479166666667 -11.178125000000001 -9.132145833333333ZM6.937666666666668 57.098125 49.58625000000001 14.451083333333333c1.7985416666666667 0.6563541666666667 3.4775000000000005 1.6155416666666669 5.11875 2.589875 3.7545833333333336 2.2290625 9.194166666666668 6.095291666666666 15.666041666666668 12.567166666666667 6.472083333333333 6.472083333333333 10.343333333333335 11.916666666666668 12.577291666666667 15.676666666666668 0.9685416666666667 1.6302083333333335 1.9352083333333334 3.3354166666666667 2.5970833333333334 5.128333333333333L42.89833333333334 93.05812500000002c-0.54 -0.7702083333333334 -1.1391666666666667 -1.6079166666666669 -1.7950000000000002 -2.502291666666667 -3.4085416666666672 -4.648125 -8.372291666666667 -10.854166666666668 -14.589791666666667 -17.07166666666667 -6.2175625000000005 -6.2175 -12.423687500000002 -11.18125 -17.071770833333336 -14.589791666666667 -0.8950833333333335 -0.6564583333333334 -1.7334166666666668 -1.2558333333333334 -2.504104166666667 -1.7962500000000001ZM1.5961875 65.45895833333334c0.15369375000000002 -1.324375 0.5768958333333334 -2.547083333333333 1.1876875 -3.638541666666667 0.8844166666666667 0.6133333333333334 1.8792083333333336 1.319375 2.9627291666666666 2.113958333333333 4.466500000000001 3.275416666666667 10.413166666666667 8.033958333333334 16.348395833333335 13.969166666666666 5.935208333333334 5.935416666666668 10.693750000000001 11.881875 13.969166666666666 16.348541666666666 0.7939583333333334 1.0825 1.4995833333333335 2.0766666666666667 2.1125000000000003 2.9606250000000003 -1.0912500000000003 0.6106250000000001 -2.31375 1.0335416666666668 -3.637916666666667 1.1872916666666666 -3.961666666666667 0.4597916666666667 -12.383958333333334 1.0104166666666667 -26.251583333333333 -0.05583333333333334 -3.5423333333333336 -0.2725 -6.362702083333334 -3.0927083333333334 -6.635112500000001 -6.635000000000001C0.5856895833333334 77.84250000000002 1.1364687500000001 69.42041666666668 1.5961875 65.45895833333334Z" clip-rule="evenodd" stroke-width="2.0833"></path>
  </g>
</svg>