<svg xmlns="http://www.w3.org/2000/svg" fill="none" viewBox="0 0 100 100" id="Phone--Streamline-Plump" height="100" width="100">
  <desc>
    Phone Streamline Icon: https://streamlinehq.com
  </desc>
  <g id="Solid/Phone/Mobile Phone/phone--android-phone-mobile-device-smartphone-iphone">
    <path id="Union" fill="#000000" fill-rule="evenodd" d="M72.91666666666667 3.125c13.231875 0 23.958333333333336 10.726520833333334 23.958333333333336 23.958333333333336v2.7756250000000002c0 0.15708333333333332 -0.011666666666666667 0.3129166666666667 -0.034583333333333334 0.46625000000000005C95.67791666666668 67.2775 65.35833333333333 96.875 28.125000000000004 96.875H27.083333333333336C13.851520833333334 96.875 3.125 86.14854166666667 3.125 72.91666666666667v-1.1852083333333334c0 -3.833541666666667 2.3339166666666666 -7.280833333333334 5.893208333333333 -8.704375l12.844291666666667 -5.137708333333333c4.255833333333334 -1.7025000000000001 9.116666666666667 -0.7047916666666667 12.357708333333335 2.5364583333333335l6.409375 6.409375c0.2833333333333334 0.2833333333333334 0.6014583333333334 0.3168750000000001 0.7956250000000001 0.2579166666666667 12.263333333333334 -3.724166666666667 21.94375 -13.404583333333333 25.66791666666667 -25.66791666666667 0.058958333333333335 -0.19416666666666668 0.02541666666666667 -0.5122916666666667 -0.2579166666666667 -0.7956250000000001l-6.409375 -6.409375c-3.2410416666666673 -3.2410416666666673 -4.238958333333334 -8.101875000000001 -2.5364583333333335 -12.357708333333335l5.137708333333333 -12.844291666666667C64.450625 5.458916666666667 67.89791666666667 3.125 71.73145833333334 3.125H72.91666666666667Z" clip-rule="evenodd" stroke-width="2.0833"></path>
  </g>
</svg>