<svg xmlns="http://www.w3.org/2000/svg" fill="none" viewBox="0 0 100 100" id="Pin-2--Streamline-Plump" height="100" width="100">
  <desc>
    Pin 2 Streamline Icon: https://streamlinehq.com
  </desc>
  <g id="Solid/Interface Essential/Edit/pin-2--pin-push-thumbtack">
    <path id="Union" fill="#000000" fill-rule="evenodd" d="M60.41666666666667 1.0416666666666667C39.130625 1.0416666666666667 21.875 18.29735416666667 21.875 39.583333333333336c0 21.28604166666667 17.255625000000002 38.54166666666667 38.54166666666667 38.54166666666667S98.95833333333334 60.869375000000005 98.95833333333334 39.583333333333336C98.95833333333334 18.29735416666667 81.70270833333335 1.0416666666666667 60.41666666666667 1.0416666666666667Zm-13.258333333333335 25.283333333333335c-1.6270833333333334 1.6272916666666668 -4.265208333333334 1.6272916666666668 -5.8925 0 -1.6270833333333334 -1.6270833333333334 -1.6270833333333334 -4.265208333333334 0 -5.892458333333334 10.576666666666668 -10.5766875 27.725 -10.5766875 38.30166666666667 0 1.6270833333333334 1.62725 1.6270833333333334 4.265375000000001 0 5.892458333333334 -1.6272916666666668 1.6272916666666668 -4.265416666666667 1.6272916666666668 -5.8925 0 -7.322500000000001 -7.322229166666667 -19.194166666666668 -7.322229166666667 -26.51666666666667 0Zm-9.502916666666668 51.843333333333334c-6.515833333333334 -3.851875 -11.971458333333334 -9.307291666666668 -15.823541666666667 -15.822916666666668 -5.420625 7.630833333333333 -10.677375000000001 15.112291666666668 -14.5316875 21.191041666666667 -2.245 3.5408333333333335 -4.040479166666667 6.64625 -5.114708333333334 9.048333333333336 -0.5343062500000001 1.1947916666666667 -0.9167520833333335 2.2731250000000003 -1.0693583333333334 3.1745833333333335 -0.14146250000000002 0.8358333333333334 -0.143125 1.8635416666666667 0.5590291666666667 2.5658333333333334 0.7021625 0.7020833333333334 1.7300166666666668 0.7004166666666667 2.5657875000000003 0.5589583333333333 0.901625 -0.15250000000000002 1.9799583333333335 -0.535 3.1748125000000003 -1.069375 2.4022708333333336 -1.074375 5.507895833333334 -2.87 9.048833333333334 -5.115 6.0789583333333335 -3.8543750000000006 13.560208333333334 -9.111041666666669 21.190833333333334 -14.531458333333335Z" clip-rule="evenodd" stroke-width="2.0833"></path>
  </g>
</svg>