<svg xmlns="http://www.w3.org/2000/svg" fill="none" viewBox="0 0 100 100" id="Pin-1--Streamline-Plump" height="100" width="100">
  <desc>
    Pin 1 Streamline Icon: https://streamlinehq.com
  </desc>
  <g id="Solid/Interface Essential/Edit/pin-1--pin-push-thumbtack">
    <path id="Union" fill="#000000" fill-rule="evenodd" d="M57.37104166666667 1.0320104166666668c-2.892916666666667 -0.22308333333333333 -5.6025 0.85669375 -7.62 2.69478125 -9.237916666666667 8.416791666666668 -12.007708333333333 21.841124999999998 -12.8725 28.68029166666667 -0.11020833333333335 0.8725 -1.0237500000000002 1.7270833333333333 -2.0385416666666667 1.7400000000000002 -4.16 0.05291666666666667 -10.479166666666668 0.7022916666666668 -16.555875 3.6252083333333336 -5.036041666666667 2.422291666666667 -6.336229166666667 8.3675 -3.8498125 12.862916666666667 2.638229166666667 4.7700000000000005 7.3856875 11.993125000000001 15.206937500000002 19.815416666666668 7.8133333333333335 7.814375000000001 15.000625000000001 12.530833333333334 19.748958333333334 15.14625 4.49 2.472916666666667 10.406666666666666 1.1608333333333334 12.823541666666669 -3.8504166666666673 2.9352083333333336 -6.085833333333333 3.5868750000000005 -12.418750000000001 3.639791666666667 -16.585416666666667 0.012916666666666667 -1.0147916666666668 0.8675 -1.9283333333333335 1.7402083333333336 -2.0387500000000003 6.84875 -0.8654166666666667 20.30416666666667 -3.6412500000000003 28.718125000000004 -12.914166666666668 1.8035416666666668 -1.9875 2.8795833333333336 -4.652291666666667 2.6772916666666666 -7.509375 -0.3770833333333333 -5.327291666666667 -2.8447916666666666 -15.588750000000001 -14.428541666666668 -27.17385416666667C73.00416666666668 3.966916666666667 62.72458333333334 1.44484375 57.37104166666667 1.0320104166666668ZM84.41416666666667 42.775625000000005c-1.1229166666666668 2.008541666666667 -3.661666666666667 2.7264583333333334 -5.670208333333333 1.6035416666666669 -3.9806250000000003 -2.2256250000000004 -8.397916666666667 -5.4627083333333335 -13.072708333333333 -10.138125 -4.508958333333333 -4.5095833333333335 -7.674166666666667 -8.773750000000001 -9.881250000000001 -12.636458333333335 -1.1416666666666668 -1.9979791666666669 -0.4472916666666667 -4.5431875 1.550625 -5.6848125000000005 1.9981250000000002 -1.1416041666666668 4.543333333333334 -0.4473541666666667 5.6850000000000005 1.5506875000000002 1.81125 3.1700416666666666 4.5114583333333345 6.850791666666668 8.53875 10.8785 4.1745833333333335 4.175208333333334 7.9852083333333335 6.933333333333334 11.246250000000002 8.756458333333335 2.008541666666667 1.1229166666666668 2.7264583333333334 3.661458333333334 1.6035416666666669 5.670208333333333ZM25.22166666666667 74.87083333333334c-2.6025000000000005 -2.6029166666666668 -4.889270833333334 -5.148541666666667 -6.891187500000001 -7.577500000000001 -4.261958333333333 6.046875 -8.243354166666666 11.820833333333335 -11.2963125 16.66625 -2.1632708333333337 3.4335416666666667 -3.8867291666666666 6.441666666666667 -4.912333333333334 8.770833333333334 -0.5100791666666668 1.1585416666666668 -0.8738625000000001 2.2066666666666666 -1.0147541666666668 3.08625 -0.13115208333333334 0.8185416666666668 -0.12117916666666669 1.8214583333333334 0.5680708333333334 2.5108333333333337 0.6891 0.6889583333333333 1.6917041666666668 0.6991666666666667 2.5102458333333333 0.568125 0.8792500000000001 -0.14083333333333334 1.9271666666666667 -0.504375 3.0851875000000004 -1.0141666666666667 2.3283750000000003 -1.0250000000000001 5.335604166666667 -2.7477083333333336 8.7679375 -4.910208333333333 4.843770833333333 -3.051458333333333 10.615645833333334 -7.031250000000001 16.660645833333334 -11.291666666666668 -2.3968750000000005 -1.9797916666666668 -4.908125000000001 -4.238958333333334 -7.4775 -6.808750000000001Z" clip-rule="evenodd" stroke-width="2.0833"></path>
  </g>
</svg>