<svg xmlns="http://www.w3.org/2000/svg" fill="none" viewBox="0 0 100 100" id="Recycle-Bin-2--Streamline-Plump" height="100" width="100">
  <desc>
    Recycle Bin 2 Streamline Icon: https://streamlinehq.com
  </desc>
  <g id="recycle-bin-2--remove-delete-empty-bin-trash-garbage">
    <path id="Union" fill="#000000" fill-rule="evenodd" d="M33.04916666666667 12.698208333333334C36.158125 6.2858125000000005 42.698750000000004 2.0833333333333335 50.000625 2.0833333333333335c7.301666666666667 0 13.842500000000001 4.202458333333334 16.951458333333335 10.614895833333335 7.470000000000001 0.17639583333333334 13.246875000000001 0.434375 16.77479166666667 0.6194791666666667 2.9606250000000003 0.15533333333333335 6.173541666666667 1.4321875000000002 7.852708333333334 4.4608125 0.7529166666666667 1.3576875000000002 1.5083333333333333 3.083979166666667 1.9895833333333335 5.126479166666668 0.13416666666666668 0.5697916666666667 0.18083333333333335 1.1266666666666667 0.18083333333333335 1.6416666666666668 0 4.043958333333333 -3.03375 7.488958333333334 -7.158541666666667 7.781041666666668 -6.095625 0.4316666666666667 -17.744583333333335 1.0056250000000002 -36.58979166666666 1.0056250000000002 -18.84625 0 -30.496770833333336 -0.5741666666666667 -36.5930625 -1.0056250000000002C9.283687500000001 32.035625 6.25 28.590625000000003 6.25 24.54666666666667c0 -0.515 0.04658333333333334 -1.071875 0.180875 -1.6416666666666668 0.48129166666666673 -2.0425000000000004 1.2367083333333335 -3.7687708333333334 1.9894791666666667 -5.126479166666668 1.6792083333333334 -3.0286250000000003 4.892125 -4.305479166666667 7.85275 -4.4608125 3.5281458333333338 -0.185125 9.305437500000002 -0.44312500000000005 16.776062500000002 -0.6195ZM14.870645833333334 37.62604166666667c-0.5806458333333334 -0.038125000000000006 -1.1508333333333334 0.168125 -1.5725000000000002 0.5691666666666667 -0.4216666666666667 0.4010416666666667 -0.656375 0.9602083333333333 -0.6473333333333333 1.5420833333333335 0.2855208333333334 18.377083333333335 0.9193958333333334 34.09041666666667 1.3845000000000003 43.77979166666667 0.33689583333333334 7.018750000000001 5.707583333333334 12.751041666666667 12.763229166666669 13.341250000000002 6.295 0.5266666666666667 14.741875000000002 1.0583333333333333 23.203958333333336 1.0583333333333333 8.46125 0 16.906458333333333 -0.5314583333333334 23.20041666666667 -1.0581250000000002 7.055416666666667 -0.5904166666666667 12.425833333333335 -6.322500000000001 12.762708333333334 -13.341041666666667 0.4652083333333334 -9.689583333333333 1.0989583333333333 -25.402708333333337 1.3845833333333333 -43.78020833333334 0.008958333333333334 -0.581875 -0.225625 -1.1408333333333334 -0.6472916666666667 -1.541875 -0.4216666666666667 -0.4010416666666667 -0.9918750000000002 -0.6075000000000002 -1.5725000000000002 -0.569375 -6.264166666666667 0.41229166666666667 -17.52 0.915625 -35.128125000000004 0.915625 -17.609375000000004 0 -28.866666666666667 -0.5035416666666667 -35.13164583333334 -0.915625Zm22.525812500000004 11.333958333333333c1.7247916666666667 -0.0575 3.1697916666666672 1.294375 3.227291666666667 3.019166666666667l1.0416666666666667 31.250000000000004c0.0575 1.725 -1.2941666666666667 3.1700000000000004 -3.019166666666667 3.2275 -1.725 0.0575 -3.1697916666666672 -1.294375 -3.227291666666667 -3.019166666666667l-1.0416666666666667 -31.250000000000004c-0.0575 -1.725 1.2941666666666667 -3.1700000000000004 3.019166666666667 -3.2275Zm25.208125000000003 0c1.725 0.0575 3.0766666666666667 1.5025 3.019166666666667 3.2275l-1.0416666666666667 31.250000000000004c-0.0575 1.7247916666666667 -1.5025 3.0766666666666667 -3.227291666666667 3.019166666666667 -1.725 -0.0575 -3.0766666666666667 -1.5025 -3.019166666666667 -3.2275l1.0416666666666667 -31.250000000000004c0.0575 -1.7247916666666667 1.5022916666666668 -3.0766666666666667 3.227291666666667 -3.019166666666667Z" clip-rule="evenodd" stroke-width="2.0833"></path>
  </g>
</svg>