<svg xmlns="http://www.w3.org/2000/svg" fill="none" viewBox="0 0 100 100" id="Search-Visual--Streamline-Plump" height="100" width="100">
  <desc>
    Search Visual Streamline Icon: https://streamlinehq.com
  </desc>
  <g id="Solid/Interface Essential/Search/search-visual">
    <path id="Union" fill="#000000" fill-rule="evenodd" d="M34.372708333333335 8.175020833333335c0.08729166666666667 2.8751458333333333 -2.1725 5.276833333333334 -5.0477083333333335 5.364291666666667l-13.147354166666668 0.3999166666666667c-1.2116666666666667 0.09712500000000002 -2.140604166666667 1.0260833333333335 -2.2378333333333336 2.237375l-0.4005208333333334 13.148604166666667c-0.0875625 2.8752083333333336 -2.489333333333333 5.135 -5.3644791666666665 5.0475 -2.8751458333333333 -0.08770833333333333 -5.134916666666667 -2.4893750000000003 -5.0473541666666675 -5.364583333333334l0.40339583333333334 -13.243312500000002c0.0015208333333333335 -0.04977083333333334 0.0037500000000000003 -0.09952083333333334 0.006687500000000001 -0.14922916666666666 0.3862916666666667 -6.525166666666667 5.555125 -11.692958333333333 12.079937500000002 -12.078645833333333 0.049625 -0.0029375000000000004 0.09929166666666668 -0.005166666666666667 0.1489791666666667 -0.006666666666666667l13.241875 -0.4028125c2.8752083333333336 -0.08745833333333335 5.276875 2.1724166666666664 5.364375 5.0475625ZM70.675 13.539312500000001c-2.8752083333333336 -0.08745833333333335 -5.135 -2.4891458333333336 -5.0475 -5.364291666666667 0.08750000000000001 -2.8751458333333333 2.489166666666667 -5.135020833333334 5.364166666666668 -5.0475625l13.241875 0.4028125c0.04979166666666667 0.0015000000000000002 0.099375 0.0037291666666666667 0.14916666666666667 0.006666666666666667 6.524791666666667 0.3856875 11.693541666666667 5.553479166666667 12.079791666666669 12.078645833333333 0.002916666666666667 0.049708333333333334 0.005208333333333334 0.09945833333333333 0.006666666666666667 0.14922916666666666l0.40354166666666674 13.243312500000002c0.08750000000000001 2.8752083333333336 -2.1722916666666667 5.276875 -5.0475 5.364583333333334 -2.875 0.08750000000000001 -5.276875 -2.1722916666666667 -5.364375 -5.0475l-0.400625 -13.148604166666667c-0.09708333333333334 -1.2112916666666669 -1.0260416666666667 -2.14025 -2.2377083333333334 -2.237375l-13.147500000000003 -0.3999166666666667ZM96.87270833333334 70.991875c0.08750000000000001 -2.875 -2.1722916666666667 -5.276875 -5.0475 -5.364375 -2.875 -0.08770833333333333 -5.276875 2.1720833333333336 -5.364375 5.047291666666666l-0.400625 13.148750000000001c-0.09708333333333334 1.2112500000000002 -1.0260416666666667 2.1402083333333337 -2.2377083333333334 2.237291666666667l-13.147500000000003 0.4c-2.8752083333333336 0.08750000000000001 -5.135 2.489166666666667 -5.0475 5.364166666666668 0.08750000000000001 2.8752083333333336 2.489166666666667 5.135 5.364166666666668 5.0477083333333335l13.241875 -0.40291666666666665c0.04979166666666667 -0.0014583333333333334 0.099375 -0.0037500000000000003 0.14916666666666667 -0.006666666666666667 6.524791666666667 -0.385625 11.693541666666667 -5.553541666666668 12.079791666666669 -12.078541666666668l0.002916666666666667 -0.05083333333333334 0.0020833333333333337 -0.046250000000000006 0.0016666666666666668 -0.052291666666666674 0.40354166666666674 -13.243333333333334Zm-93.74525000000001 0c-0.0875625 -2.875 2.1722083333333333 -5.276875 5.0473541666666675 -5.364375 2.8751458333333333 -0.08770833333333333 5.276916666666667 2.1720833333333336 5.3644791666666665 5.047291666666666l0.4005208333333334 13.148750000000001c0.09722916666666669 1.2112500000000002 1.0261666666666667 2.1402083333333337 2.237854166666667 2.237291666666667l13.147333333333334 0.4c2.8752083333333336 0.08750000000000001 5.135 2.489166666666667 5.0477083333333335 5.364166666666668 -0.08750000000000001 2.8752083333333336 -2.489166666666667 5.135 -5.364375 5.0477083333333335l-13.241854166666668 -0.40291666666666665c-0.049708333333333334 -0.0014583333333333334 -0.099375 -0.0037500000000000003 -0.14900000000000002 -0.006666666666666667 -6.524791666666667 -0.385625 -11.693645833333333 -5.553541666666668 -12.079937500000002 -12.078541666666668 -0.0029375000000000004 -0.04979166666666667 -0.005166666666666667 -0.09958333333333334 -0.006687500000000001 -0.149375l-0.40339583333333334 -13.243333333333334ZM44.79166666666667 19.791666666666668c-13.807083333333333 0 -25 11.192916666666669 -25 25s11.192916666666669 25 25 25c4.364583333333334 0 8.467916666666667 -1.1185416666666668 12.038958333333333 -3.084375 0.52125 0.6241666666666666 1.0375 1.2468750000000002 1.5529166666666667 1.8689583333333335l0.040625 0.04895833333333334c2.06375 2.489791666666667 4.119583333333334 4.968125000000001 6.406250000000001 7.416250000000001 2.6002083333333337 2.7837500000000004 6.674583333333334 3.201041666666667 9.528541666666667 0.47145833333333337 0.6795833333333333 -0.6497916666666668 1.5027083333333335 -1.4729166666666667 2.1525 -2.1525 2.729375 -2.8539583333333334 2.312291666666667 -6.928333333333334 -0.4716666666666667 -9.528541666666667 -2.447916666666667 -2.2866666666666666 -4.92625 -4.3425 -7.416250000000001 -6.406250000000001l-0.04833333333333333 -0.04020833333333334c-0.6218750000000001 -0.5154166666666667 -1.2447916666666667 -1.0316666666666667 -1.8689583333333335 -1.5529166666666667 1.9666666666666668 -3.5714583333333336 3.085416666666667 -7.675416666666668 3.085416666666667 -12.040833333333335 0 -13.807083333333333 -11.192916666666669 -25 -25 -25Zm15.625000000000002 25c0 8.629375000000001 -6.995625 15.625000000000002 -15.625000000000002 15.625000000000002S29.166666666666668 53.42104166666667 29.166666666666668 44.79166666666667s6.995625 -15.625000000000002 15.625000000000002 -15.625000000000002 15.625000000000002 6.995625 15.625000000000002 15.625000000000002Z" clip-rule="evenodd" stroke-width="2.0833"></path>
  </g>
</svg>