<svg xmlns="http://www.w3.org/2000/svg" fill="none" viewBox="0 0 100 100" id="Send-Email--Streamline-Plump" height="100" width="100">
  <desc>
    Send Email Streamline Icon: https://streamlinehq.com
  </desc>
  <g id="send-email--mail-send-email-paper-airplane">
    <path id="Subtract" fill="#000000" fill-rule="evenodd" d="M24.34104166666667 64.14895833333334c-9.940958333333334 -7.067291666666668 -15.572437500000001 -11.742291666666668 -18.726937500000002 -14.655833333333334 -1.7286458333333334 -1.5966666666666667 -2.637541666666667 -3.7741666666666673 -2.4692708333333333 -6.017291666666667 0.16841666666666666 -2.245 1.3943750000000001 -4.264375 3.353166666666667 -5.580416666666666 7.500416666666667 -5.0391666666666675 22.06908333333333 -12.715208333333335 37.45095833333333 -19.585875 15.346041666666668 -6.854729166666667 31.906875000000003 -13.091875 43.353125000000006 -15.0611875 5.597916666666666 -0.9631041666666667 9.930000000000001 3.6813750000000005 9.549166666666666 8.9286875 -0.7985416666666667 11.003791666666666 -3.3270833333333334 26.94254166666667 -6.570208333333334 41.75879166666667 -3.214375 14.685625000000002 -7.239375 28.792708333333334 -11.180416666666668 35.83166666666667 -2.152916666666667 3.8454166666666674 -6.634375 4.423125000000001 -9.928958333333334 2.7397916666666666 -2.86125 -1.4616666666666667 -7.465833333333334 -4.002083333333334 -14.2475 -8.248750000000001 -5.790208333333334 6.136666666666668 -12.446875 10.65125 -19.133333333333333 12.246666666666668 3.332291666666667 -10.446041666666668 6.772083333333334 -24.430000000000003 7.631041666666667 -27.973958333333336 6.208333333333334 -7.819791666666667 16.387083333333333 -19.255000000000003 25.084583333333335 -28.80729166666667 4.33875 -4.765416666666667 8.285416666666666 -9.03625 11.147291666666668 -12.116041666666666 1.4308333333333334 -1.5395833333333335 2.5902083333333334 -2.781041666666667 3.3910416666666667 -3.6368750000000003 0.400625 -0.42812500000000003 0.7114583333333334 -0.7595833333333334 0.9218750000000001 -0.9837500000000001l0.31833333333333336 -0.33875c1.5770833333333334 -1.6758333333333335 1.4983333333333333 -4.313916666666667 -0.17750000000000002 -5.891041666666667 -1.6756250000000001 -1.5771458333333335 -4.312708333333334 -1.4972291666666668 -5.889791666666667 0.17852083333333335l-0.0016666666666666668 0.0016250000000000001 -0.3254166666666667 0.3464166666666667c-0.213125 0.22710416666666666 -0.5268750000000001 0.5616458333333334 -0.9302083333333334 0.9927708333333334 -0.806875 0.8621875000000001 -1.9729166666666667 2.110708333333333 -3.4110416666666667 3.658166666666667 -2.875833333333334 3.094791666666667 -6.842291666666667 7.387083333333334 -11.204791666666669 12.178541666666668 -8.697291666666667 9.552083333333334 -19.063333333333333 21.19 -25.466875 29.258333333333336 -0.7652083333333334 0.9641666666666667 -1.2760416666666667 2.0468750000000004 -1.5539583333333336 3.193541666666667 -0.839375 3.4631250000000007 -3.931041666666667 16.002916666666668 -6.980833333333334 25.847500000000004 0 0 -0.00020833333333333335 0.0010416666666666669 -0.000625 0.002916666666666667 -0.4322916666666667 -0.9522916666666668 -0.79 -1.9970833333333335 -1.0935416666666669 -3.055625 -0.92625 -3.23125 -1.5468750000000002 -7.321250000000001 -1.9712500000000002 -11.224166666666667 -0.4283333333333334 -3.936666666666667 -0.6718750000000001 -7.828541666666667 -0.8085416666666667 -10.726041666666669 -0.06208333333333334 -1.3160416666666668 -0.10250000000000001 -2.432291666666667 -0.12791666666666668 -3.261041666666667Z" clip-rule="evenodd" stroke-width="2.0833"></path>
  </g>
</svg>