<svg xmlns="http://www.w3.org/2000/svg" fill="none" viewBox="0 0 100 100" id="Square-Clock--Streamline-Plump" height="100" width="100">
  <desc>
    Square Clock Streamline Icon: https://streamlinehq.com
  </desc>
  <g id="square-clock--clock-loading-frame-measure-time-circle">
    <path id="Union" fill="#000000" fill-rule="evenodd" d="M4.258125 16.94935416666667C3.704333333333334 23.765208333333334 3.125 34.58041666666667 3.125 50c0 15.419583333333334 0.5793125 26.23479166666667 1.1331041666666668 33.050625000000004 0.5565208333333334 6.849583333333333 5.8415625 12.134791666666667 12.691250000000002 12.691250000000002C23.765208333333334 96.295625 34.58041666666667 96.875 50 96.875c15.419583333333334 0 26.23479166666667 -0.5793750000000001 33.050625000000004 -1.1331250000000002 6.849583333333333 -0.5564583333333334 12.134791666666667 -5.841666666666667 12.691250000000002 -12.691250000000002 0.55375 -6.815833333333334 1.1331250000000002 -17.63104166666667 1.1331250000000002 -33.050625000000004 0 -15.419583333333334 -0.5793750000000001 -26.23479166666667 -1.1331250000000002 -33.05060416666667 -0.5564583333333334 -6.849687500000001 -5.841458333333334 -12.13475 -12.691250000000002 -12.691270833333334C76.23479166666668 3.704333333333334 65.41979166666667 3.125 50 3.125c-15.419583333333334 0 -26.23479166666667 0.5793125 -33.05060416666667 1.1331041666666668 -6.849687500000001 0.5565208333333334 -12.13475 5.8415625 -12.691270833333334 12.691250000000002ZM86.45833333333334 50c0 20.135416666666668 -16.322916666666668 36.458333333333336 -36.458333333333336 36.458333333333336S13.541666666666668 70.13541666666667 13.541666666666668 50 29.864583333333336 13.541666666666668 50 13.541666666666668 86.45833333333334 29.864583333333336 86.45833333333334 50Zm-31.250000000000004 -22.916666666666668c0 -2.876458333333334 -2.331875 -5.208333333333334 -5.208333333333334 -5.208333333333334s-5.208333333333334 2.331875 -5.208333333333334 5.208333333333334v22.916666666666668c0 1.38125 0.5487500000000001 2.7060416666666667 1.5254166666666666 3.682916666666667l16.666666666666668 16.666666666666668c2.0339583333333335 2.0339583333333335 5.331875 2.0339583333333335 7.365833333333334 0 2.0339583333333335 -2.0339583333333335 2.0339583333333335 -5.331875 0 -7.365833333333334L55.208333333333336 47.84270833333334V27.083333333333336Z" clip-rule="evenodd" stroke-width="2.0833"></path>
  </g>
</svg>