<svg xmlns="http://www.w3.org/2000/svg" fill="none" viewBox="0 0 100 100" id="Star-1--Streamline-Plump" height="100" width="100">
  <desc>
    Star 1 Streamline Icon: https://streamlinehq.com
  </desc>
  <g id="Solid/Interface Essential/Bookmark Favorite/star-1--reward-rating-rate-social-star-media-favorite-like-stars">
    <path id="Union" fill="#000000" d="M58.03125000000001 8.329166666666667c-3.6435416666666667 -6.0545625 -12.421458333333334 -6.0545625 -16.065 0l-10.76625 17.889791666666667c-0.43645833333333334 0.725 -1.148125 1.2420833333333334 -1.9725000000000001 1.433125l-20.341166666666666 4.711041666666667c-6.884179166666668 1.594375 -9.596668750000001 9.9425 -4.964395833333334 15.27875l13.687270833333335 15.767708333333335c0.5547083333333334 0.6389583333333333 0.8265625000000001 1.4756250000000002 0.7533958333333334 2.31875l-1.8052916666666667 20.801250000000003c-0.6109791666666666 7.04 6.490395833333334 12.199375 12.997062500000002 9.442916666666669l19.225416666666668 -8.145000000000001c0.7791666666666667 -0.33000000000000007 1.6587500000000002 -0.33000000000000007 2.4379166666666667 0l19.225625000000004 8.145000000000001c6.506458333333334 2.7564583333333332 13.607916666666666 -2.4029166666666666 12.996875000000001 -9.442916666666669l-1.8052083333333335 -20.801250000000003c-0.07333333333333335 -0.843125 0.19854166666666667 -1.6797916666666668 0.7533333333333333 -2.31875l13.687291666666667 -15.767708333333335c4.632291666666667 -5.336250000000001 1.9197916666666668 -13.684375000000001 -4.9643749999999995 -15.27875l-20.341250000000002 -4.711041666666667c-0.8243750000000001 -0.1910416666666667 -1.5360416666666667 -0.708125 -1.9725000000000001 -1.433125L58.03125000000001 8.329166666666667Z" stroke-width="2.0833"></path>
  </g>
</svg>