<svg xmlns="http://www.w3.org/2000/svg" fill="none" viewBox="0 0 100 100" id="Startup--Streamline-Plump" height="100" width="100">
  <desc>
    Startup Streamline Icon: https://streamlinehq.com
  </desc>
  <g id="Solid/Business/Marketing strategy/startup--shop-rocket-launch-startup">
    <path id="Union" fill="#000000" fill-rule="evenodd" d="M62.510000000000005 82.30625c-2.184791666666667 1.7487500000000002 -4.953333333333334 2.0972916666666666 -7.33375 0.6258333333333334 -3.6097916666666667 -2.23125 -10.053958333333334 -7.079375000000001 -20.541458333333335 -17.566875000000003 -10.4875 -10.4875 -15.335458333333333 -16.93166666666667 -17.566791666666667 -20.541458333333335 -1.4714791666666667 -2.380416666666667 -1.123 -5.148958333333333 0.62575 -7.333958333333334 2.5213333333333336 -3.1502083333333335 7.457708333333334 -8.786875 16.941041666666667 -18.270083333333336C51.85062500000001 2.00389375 83.34083333333334 2.0037979166666666 90.66854166666667 9.331395833333334c7.327708333333334 7.327604166666668 7.327500000000001 38.817770833333334 -9.888333333333335 56.0338125 -9.483333333333333 9.483333333333333 -15.120000000000001 14.419791666666667 -18.270208333333336 16.941041666666667ZM57.81250000000001 29.687500000000004c-6.9035416666666665 0 -12.5 5.596458333333334 -12.5 12.5s5.596458333333334 12.5 12.5 12.5 12.5 -5.596458333333334 12.5 -12.5 -5.596458333333334 -12.5 -12.5 -12.5Zm10.492916666666668 62.34416666666667 -3.56625 -3.6962500000000005c0.5850000000000001 -0.34020833333333333 1.1458333333333335 -0.725 1.67625 -1.1495833333333334 3.394166666666667 -2.7164583333333336 9.208958333333333 -7.826041666666667 18.78416666666667 -17.40125 2.6552083333333334 -2.6552083333333334 4.935833333333334 -5.581041666666668 6.877916666666668 -8.670625000000001 -0.7522916666666667 14.63125 -5.226875000000001 24.383750000000003 -9.0425 30.128125 -1.7622916666666668 2.653541666666667 -4.449375 4.037916666666667 -7.294583333333334 4.069791666666667 -2.767916666666667 0.03125 -5.4375 -1.2097916666666668 -7.4350000000000005 -3.2802083333333334ZM12.185958333333334 34.43395833333334c0.19825 -0.29083333333333333 0.4078541666666667 -0.5741666666666667 0.6282500000000001 -0.8495833333333334 2.716479166666667 -3.394166666666667 7.826062500000001 -9.208958333333333 17.401208333333333 -18.784083333333335 2.704166666666667 -2.7042500000000005 5.689375000000001 -5.020083333333334 8.842083333333335 -6.9853125 -14.447916666666666 -0.116 -24.2244375 3.9689375 -30.12579166666667 7.747562500000001 -2.8469375 1.8229166666666667 -4.2675833333333335 4.6860625 -4.243916666666667 7.669958333333334 0.023 2.8989583333333333 1.393375 5.699791666666667 3.657708333333334 7.7404166666666665l3.8404583333333338 3.461041666666667ZM20.3125 64.0625c4.4314583333333335 0 8.379791666666668 1.5502083333333334 11.227291666666668 4.397708333333334 2.8475 2.8475 4.397708333333334 6.795833333333334 4.397708333333334 11.227291666666668s-1.5502083333333334 8.379791666666668 -4.397708333333334 11.227291666666668C28.69229166666667 93.76229166666667 24.743958333333335 95.3125 20.3125 95.3125c-5.519916666666667 0 -8.785791666666666 -0.4810416666666667 -10.616895833333334 -0.914375 -2.0482500000000003 -0.4847916666666667 -3.608916666666667 -2.0454166666666667 -4.093729166666667 -4.093750000000001 -0.43339583333333337 -1.831041666666667 -0.914375 -5.096875 -0.914375 -10.616875 0 -4.4314583333333335 1.5502500000000001 -8.379791666666668 4.39775 -11.227291666666668C11.932770833333334 65.61270833333333 15.880958333333336 64.0625 20.3125 64.0625Z" clip-rule="evenodd" stroke-width="2.0833"></path>
  </g>
</svg>