<svg xmlns="http://www.w3.org/2000/svg" fill="none" viewBox="0 0 100 100" id="Star-Square--Streamline-Plump" height="100" width="100">
  <desc>
    Star Square Streamline Icon: https://streamlinehq.com
  </desc>
  <g id="Solid/Interface Essential/Bookmark Favorite/star-square--reward-social-rating-media-rate-it-star">
    <path id="Subtract" fill="#000000" fill-rule="evenodd" d="M95.74187500000001 83.05062500000001C96.295625 76.23479166666668 96.875 65.41958333333334 96.875 50c0 -15.419583333333334 -0.5793750000000001 -26.23479166666667 -1.1331250000000002 -33.05060416666667 -0.5564583333333334 -6.849687500000001 -5.841458333333334 -12.13475 -12.691250000000002 -12.691270833333334C76.23479166666668 3.704333333333334 65.41979166666667 3.125 50 3.125c-15.419583333333334 0 -26.23479166666667 0.5793125 -33.05060416666667 1.1330833333333334 -6.849687500000001 0.5565208333333334 -12.13475 5.841583333333333 -12.691270833333334 12.691270833333334C3.704333333333334 23.765208333333334 3.125 34.58020833333334 3.125 50c0 15.419583333333334 0.5793125 26.234583333333333 1.1331041666666668 33.050625000000004 0.5565000000000001 6.849583333333333 5.8415625 12.134791666666667 12.691250000000002 12.691250000000002C23.765208333333334 96.295625 34.58041666666667 96.875 50 96.875c15.419583333333334 0 26.23479166666667 -0.5793750000000001 33.050625000000004 -1.1331250000000002 6.849791666666667 -0.5564583333333334 12.134791666666667 -5.841666666666667 12.691250000000002 -12.691250000000002ZM45.49979166666667 22.323750000000004c2.0091666666666668 -3.4493333333333336 6.992083333333333 -3.449354166666667 9.00125 0l6.251458333333334 10.733125000000001c0.4414583333333334 0.758125 1.1814583333333335 1.295625 2.0389583333333334 1.4814583333333333l12.139583333333334 2.62875c3.9012500000000006 0.8447916666666668 5.441250000000001 5.583958333333333 2.7814583333333336 8.560625l-8.275833333333333 9.262083333333335c-0.5845833333333335 0.654375 -0.8672916666666667 1.524166666666667 -0.7789583333333334 2.3970833333333337l1.2512500000000002 12.357708333333335c0.40208333333333335 3.971458333333334 -3.629166666666667 6.900416666666667 -7.282083333333334 5.2908333333333335l-11.36625 -5.00875c-0.8029166666666667 -0.35375000000000006 -1.7175000000000002 -0.35375000000000006 -2.5204166666666667 0l-11.36625 5.00875c-3.652916666666667 1.6095833333333334 -7.684166666666667 -1.319375 -7.282083333333334 -5.2908333333333335l1.2512500000000002 -12.357708333333335c0.08833333333333333 -0.8729166666666667 -0.194375 -1.7427083333333335 -0.7789583333333334 -2.3970833333333337l-8.275833333333333 -9.262083333333335c-2.6597500000000003 -2.976666666666667 -1.12 -7.715833333333333 2.7814583333333336 -8.560625l12.139583333333334 -2.62875c0.8575000000000002 -0.18583333333333335 1.5975000000000001 -0.7233333333333334 2.0389583333333334 -1.4814583333333333l6.251458333333334 -10.733125000000001Z" clip-rule="evenodd" stroke-width="2.0833"></path>
  </g>
</svg>