<svg xmlns="http://www.w3.org/2000/svg" fill="none" viewBox="0 0 100 100" id="Star-Medal-1--Streamline-Plump" height="100" width="100">
  <desc>
    Star Medal 1 Streamline Icon: https://streamlinehq.com
  </desc>
  <g id="Solid/Interface Essential/Trophy Award/star-medal-1--ribbon-reward-like-social-rating-media">
    <path id="Union" fill="#000000" fill-rule="evenodd" d="m72.89958333333334 2.3743125000000003 -0.11895833333333333 0.18625c-0.7195833333333334 1.1254791666666668 -1.7758333333333336 2.767895833333333 -3.1158333333333337 4.82475 -2.6810416666666668 4.11475 -6.495 9.882770833333334 -11.019583333333333 16.48572916666667l-0.276875 0.40375000000000005c-2.4943750000000002 -0.19000000000000003 -5.305208333333334 -0.3164583333333334 -8.369583333333335 -0.3164583333333334 -3.064166666666667 0 -5.875 0.12645833333333334 -8.369375 0.3164583333333334l-0.276875 -0.40375000000000005c-4.524583333333334 -6.602958333333334 -8.338333333333333 -12.370979166666666 -11.019375 -16.48572916666667 -1.3402083333333334 -2.0568541666666667 -2.396458333333334 -3.6992708333333333 -3.116041666666667 -4.82475l-0.11895833333333333 -0.1862916666666667C31.383958333333336 1.7720041666666668 38.87437500000001 1.0416666666666667 49.99875000000001 1.0416666666666667c11.124583333333335 0 18.615208333333335 0.7303666666666667 22.900833333333335 1.3326458333333333ZM10.288770833333334 34.5525c-1.2747083333333333 -2.084166666666667 -1.4740833333333334 -4.629583333333334 -0.5794375 -6.902916666666667C15.310125000000001 13.417604166666669 20.832520833333337 4.166666666666667 20.832520833333337 4.166666666666667s8.252062500000001 13.118645833333334 19.61997916666667 29.387500000000003c-8.601041666666667 2.3275 -15.940833333333336 7.723541666666668 -20.772166666666667 14.940833333333334 -4.2380625 -5.751666666666668 -7.4789166666666675 -10.815416666666668 -9.391562500000001 -13.9425Zm70.02914583333335 13.942708333333334c4.238125 -5.751666666666668 7.478958333333334 -10.815625 9.391666666666667 -13.942708333333334 1.2747916666666668 -2.084166666666667 1.4741666666666668 -4.629583333333334 0.5793750000000001 -6.902916666666667C84.68833333333333 13.417604166666669 79.16583333333334 4.166666666666667 79.16583333333334 4.166666666666667s-8.252083333333333 13.1186875 -19.62 29.387708333333336c8.601041666666667 2.327291666666667 15.940833333333336 7.723541666666668 20.772083333333335 14.940833333333334ZM49.99895833333334 38.54166666666667c-16.68354166666667 0 -30.2083125 13.524791666666667 -30.2083125 30.208333333333336 0 16.68354166666667 13.524770833333333 30.208333333333336 30.2083125 30.208333333333336s30.208333333333336 -13.524791666666667 30.208333333333336 -30.208333333333336c0 -16.68354166666667 -13.524791666666667 -30.208333333333336 -30.208333333333336 -30.208333333333336Zm2.3116666666666665 13.831875000000002 3.8300000000000005 7.384166666666667 8.108541666666667 1.5966666666666667c1.9833333333333334 0.3904166666666667 2.785 2.7933333333333334 1.4333333333333333 4.29625l-5.746041666666668 6.390625 1.0562500000000001 8.559375000000001c0.2545833333333334 2.0614583333333334 -1.8889583333333333 3.576666666666667 -3.7475 2.6489583333333337l-7.246250000000001 -3.6168750000000003 -7.246250000000001 3.6168750000000003c-1.8585416666666668 0.9277083333333334 -4.001875 -0.5875 -3.7475 -2.6489583333333337l1.0562500000000001 -8.559375000000001 -5.746041666666668 -6.390625c-1.3514583333333337 -1.502916666666667 -0.55 -3.9058333333333337 1.4333333333333333 -4.29625l8.108541666666667 -1.5966666666666667 3.8300000000000005 -7.384166666666667c0.9716666666666667 -1.8735416666666669 3.651666666666667 -1.8735416666666669 4.623333333333333 0Z" clip-rule="evenodd" stroke-width="2.0833"></path>
  </g>
</svg>