<svg xmlns="http://www.w3.org/2000/svg" fill="none" viewBox="0 0 100 100" id="Street-Sign--Streamline-Plump" height="100" width="100">
  <desc>
    Street Sign Streamline Icon: https://streamlinehq.com
  </desc>
  <g id="street-sign--crossroad-street-sign-metaphor-directions-travel-places">
    <path id="Union" fill="#000000" fill-rule="evenodd" d="M3.049458333333334 25.62125c-1.6353854166666668 -2.9833333333333334 -1.6353875 -6.592708333333333 0 -9.575979166666668 2.9391875 -5.3617083333333335 6.524875000000001 -9.449125000000002 8.766770833333334 -11.736666666666668 1.9161666666666668 -1.9552083333333334 4.464770833333334 -2.9079145833333335 6.9928333333333335 -3.003291666666667C21.770000000000003 1.1936020833333334 26.605000000000004 1.0416666666666667 31.02729166666667 1.0416666666666667H50c0.4277083333333334 0 0.8202083333333334 0.022583333333333337 1.1797916666666668 0.06287708333333333 1.3295833333333333 0.14894583333333336 2.2802083333333334 0.8960791666666668 2.8733333333333335 1.8698104166666667 0.5739583333333335 0.9423125 0.818125 2.092604166666667 0.8472916666666668 3.1800416666666673 0.07604166666666667 2.824104166666667 0.17458333333333334 8.132020833333334 0.23958333333333337 17.8039375h14.874791666666667c4.4225 0 9.2575 0.15187500000000004 12.218333333333334 0.2635416666666667 2.528125 0.09541666666666668 5.076666666666667 1.048125 6.992916666666667 3.0033333333333334 2.2418750000000003 2.2877083333333337 5.827500000000001 6.375000000000001 8.766666666666667 11.736666666666668 1.6354166666666667 2.9833333333333334 1.6354166666666667 6.592708333333333 0 9.576041666666667 -2.939166666666667 5.361875 -6.524791666666667 9.449166666666667 -8.766666666666667 11.736666666666668 -1.91625 1.9552083333333334 -4.464791666666667 2.907916666666667 -6.992708333333334 3.0033333333333334 -2.961041666666667 0.11166666666666668 -7.796041666666667 0.26375 -12.218541666666667 0.26375l-14.806458333333333 0v25H64.58333333333334c2.876458333333334 0 5.208333333333334 2.331875 5.208333333333334 5.208333333333334s-2.331875 5.208333333333334 -5.208333333333334 5.208333333333334H35.41666666666667c-2.876458333333334 0 -5.208333333333334 -2.331875 -5.208333333333334 -5.208333333333334s2.331875 -5.208333333333334 5.208333333333334 -5.208333333333334h9.375l0 -40.625c0 -2.572916666666667 0.0018750000000000001 -5.0008333333333335 0.005208333333333334 -7.291666666666667l-13.769583333333335 0c-4.422291666666667 0 -9.257291666666667 -0.15208333333333335 -12.218354166666668 -0.26375 -2.5280000000000005 -0.09541666666666668 -5.076520833333333 -1.048125 -6.9926458333333334 -3.0033333333333334 -2.2418958333333334 -2.2875000000000005 -5.827625 -6.374791666666667 -8.766833333333334 -11.736666666666668Z" clip-rule="evenodd" stroke-width="2.0833"></path>
  </g>
</svg>