<svg xmlns="http://www.w3.org/2000/svg" fill="none" viewBox="0 0 100 100" id="Street-Road--Streamline-Plump" height="100" width="100">
  <desc>
    Street Road Streamline Icon: https://streamlinehq.com
  </desc>
  <g id="street-road">
    <path id="Subtract" fill="#000000" fill-rule="evenodd" d="M48.84458333333333 24.975c-2.843541666666667 -0.11979166666666669 -4.900416666666667 -2.536666666666667 -4.984166666666667 -5.381645833333334C43.80083333333334 17.567458333333335 43.75 15.083145833333335 43.75 12.5c0 -3.486708333333334 0.09270833333333334 -6.9734375 0.17458333333333334 -9.375H19.11822916666667c-4.5849375 0 -8.5178125 3.3243333333333336 -9.234166666666669 7.878C4.682729166666667 44.06666666666667 2.3033333333333332 74.164375 1.44534375 87.00687500000001 1.0838333333333334 92.41791666666667 5.3954375 96.875 10.736520833333334 96.875H43.92458333333334C43.842708333333334 94.47333333333334 43.75 90.98666666666668 43.75 87.5c0 -2.5831250000000003 0.05083333333333334 -5.0675 0.11041666666666668 -7.093333333333334 0.08375 -2.845 2.1406250000000004 -5.261875000000001 4.984166666666667 -5.381666666666668 0.3772916666666667 -0.015833333333333335 0.7639583333333334 -0.025 1.1554166666666668 -0.025 0.3914583333333334 0 0.7781250000000001 0.009166666666666668 1.1554166666666668 0.025 2.843541666666667 0.11979166666666669 4.900416666666667 2.536666666666667 4.984166666666667 5.381666666666668 0.059583333333333335 2.0258333333333334 0.11041666666666668 4.510208333333333 0.11041666666666668 7.093333333333334 0 3.486666666666667 -0.09270833333333334 6.973333333333334 -0.17458333333333334 9.375H89.2625c5.3412500000000005 0 9.652708333333335 -4.457083333333334 9.291250000000002 -9.868125000000001 -0.8579166666666668 -12.8425 -3.237291666666667 -42.94020833333334 -8.43875 -76.003875C89.39875 6.4493333333333345 85.46583333333335 3.125 80.88083333333334 3.125H56.07541666666667C56.15729166666667 5.526562500000001 56.25000000000001 9.013291666666667 56.25000000000001 12.5c0 2.5831458333333335 -0.05083333333333334 5.0674583333333345 -0.11041666666666668 7.093354166666667 -0.08375 2.844979166666667 -2.1406250000000004 5.261854166666667 -4.984166666666667 5.381645833333334 -0.3772916666666667 0.015833333333333335 -0.7639583333333334 0.025 -1.1554166666666668 0.025 -0.3914583333333334 0 -0.7781250000000001 -0.009166666666666668 -1.1554166666666668 -0.025ZM43.86041666666667 57.09333333333334c0.08375 2.845 2.1406250000000004 5.261875000000001 4.984166666666667 5.381666666666668 0.3772916666666667 0.015833333333333335 0.7639583333333334 0.025 1.1554166666666668 0.025 0.3914583333333334 0 0.7781250000000001 -0.009166666666666668 1.1554166666666668 -0.025 2.843541666666667 -0.11979166666666669 4.900416666666667 -2.536666666666667 4.984166666666667 -5.381666666666668 0.059583333333333335 -2.0258333333333334 0.11041666666666668 -4.510208333333333 0.11041666666666668 -7.093333333333334s-0.05083333333333334 -5.0675 -0.11041666666666668 -7.093333333333334c-0.08375 -2.845 -2.1406250000000004 -5.261875000000001 -4.984166666666667 -5.381666666666668C50.778125 37.50916666666667 50.39145833333333 37.5 50 37.5c-0.3914583333333334 0 -0.7781250000000001 0.009166666666666668 -1.1554166666666668 0.025 -2.843541666666667 0.11979166666666669 -4.900416666666667 2.536666666666667 -4.984166666666667 5.381666666666668C43.80083333333334 44.9325 43.75 47.416875000000005 43.75 50s0.05083333333333334 5.0675 0.11041666666666668 7.093333333333334Z" clip-rule="evenodd" stroke-width="2.0833"></path>
  </g>
</svg>