<svg xmlns="http://www.w3.org/2000/svg" fill="none" viewBox="0 0 100 100" id="Target--Streamline-Plump" height="100" width="100">
  <desc>
    Target Streamline Icon: https://streamlinehq.com
  </desc>
  <g id="Solid/Business/Marketing strategy/target--shop-bullseye-arrow-target">
    <path id="Union" fill="#000000" fill-rule="evenodd" d="m60.86104166666667 19.435395833333335 0.4422916666666667 3.3004375 -12.992708333333335 14.548958333333335c-3.604166666666667 4.035833333333334 -3.4306250000000005 10.183541666666667 0.3954166666666667 14.009583333333333 3.826041666666667 3.8262500000000004 9.97375 3.999791666666667 14.009583333333333 0.3954166666666667l14.548958333333335 -12.992708333333335 3.300416666666667 0.4422916666666667c3.675416666666667 0.49250000000000005 7.379791666666668 -0.6722916666666667 10.111875000000001 -3.1793750000000003l3.0741666666666667 -2.821041666666667C95.76875000000001 38.37104166666667 96.875 44.05645833333333 96.875 50c0 25.888333333333332 -20.986666666666668 46.875 -46.875 46.875S3.125 75.88833333333334 3.125 50 24.11166666666667 3.125 50 3.125c5.9437500000000005 0 11.629166666666666 1.1062708333333333 16.861458333333335 3.124125l-2.8212500000000005 3.0745c-2.5070833333333336 2.7321875 -3.671666666666667 6.436479166666667 -3.179166666666667 10.111770833333335ZM50 19.791666666666668C33.31645833333334 19.791666666666668 19.791666666666668 33.31645833333334 19.791666666666668 50c0 16.68354166666667 13.524791666666667 30.208333333333336 30.208333333333336 30.208333333333336 16.68354166666667 0 30.208333333333336 -13.524791666666667 30.208333333333336 -30.208333333333336 0 -1.7258333333333336 1.3991666666666667 -3.125 3.125 -3.125s3.125 1.3991666666666667 3.125 3.125c0 20.135416666666668 -16.322916666666668 36.458333333333336 -36.458333333333336 36.458333333333336S13.541666666666668 70.13541666666667 13.541666666666668 50 29.864583333333336 13.541666666666668 50 13.541666666666668c1.7258333333333336 0 3.125 1.3991041666666668 3.125 3.125s-1.3991666666666667 3.125 -3.125 3.125Zm-6.768541666666667 18.476458333333337c1.4939583333333333 -0.864375 2.004375 -2.7758333333333334 1.1402083333333335 -4.269791666666667 -0.8641666666666667 -1.4939583333333333 -2.7758333333333334 -2.0045833333333336 -4.269791666666667 -1.1404166666666666C34.194375 36.275416666666665 30.208333333333336 42.67041666666667 30.208333333333336 50c0 10.930625000000001 8.861041666666669 19.791666666666668 19.791666666666668 19.791666666666668 7.329583333333335 0 13.724583333333333 -3.986041666666667 17.142083333333332 -9.893541666666668 0.8641666666666667 -1.4939583333333333 0.35354166666666664 -3.405625 -1.1404166666666666 -4.269791666666667 -1.4939583333333333 -0.8641666666666667 -3.405416666666667 -0.35375000000000006 -4.269791666666667 1.1402083333333335C59.38583333333334 60.824375 55.00833333333334 63.54166666666667 50 63.54166666666667c-7.478958333333334 0 -13.541666666666668 -6.062916666666667 -13.541666666666668 -13.541666666666668 0 -5.008333333333334 2.717291666666667 -9.385833333333334 6.773125 -11.731875000000002ZM80.18895833333333 5.6613125c-0.4472916666666667 -1.5656666666666668 -2.437291666666667 -2.035979166666667 -3.538125 -0.8362291666666668l-8.005625 8.724187500000001c-1.2535416666666668 1.366104166666667 -1.8358333333333334 3.218229166666667 -1.5895833333333336 5.055875l0.8241666666666667 6.149645833333334 -14.9075 16.693125000000002c-1.3962500000000002 1.5633333333333335 -1.3291666666666668 3.9450000000000003 0.153125 5.427083333333334 1.4820833333333334 1.4820833333333334 3.8637500000000005 1.5493750000000002 5.427083333333334 0.153125l16.693125000000002 -14.907708333333336 6.149375000000001 0.8241666666666667c1.8377083333333335 0.24645833333333336 3.6900000000000004 -0.3360416666666667 5.056041666666666 -1.5895833333333336l8.723958333333334 -8.005833333333333c1.1997916666666666 -1.1008333333333333 0.7293750000000001 -3.0907500000000003 -0.83625 -3.5380833333333337L83.33333333333334 16.666666666666668l-3.1443750000000006 -11.005354166666667Z" clip-rule="evenodd" stroke-width="2.0833"></path>
  </g>
</svg>