<svg xmlns="http://www.w3.org/2000/svg" fill="none" viewBox="0 0 100 100" id="Task-List--Streamline-Plump" height="100" width="100">
  <desc>
    Task List Streamline Icon: https://streamlinehq.com
  </desc>
  <g id="Solid/Business/Office/task-list--task-list-work">
    <path id="Subtract" fill="#000000" fill-rule="evenodd" d="M57.295625 1.1203750000000001c-0.2554166666666667 -0.01649166666666667 -0.5091666666666668 -0.026343750000000003 -0.7610416666666667 -0.030145833333333337C54.458958333333335 1.0588875 52.280833333333334 1.0416666666666667 50 1.0416666666666667c-12.93625 0 -22.57125 0.55396875 -28.904791666666668 1.0964166666666666 -6.847104166666667 0.5864166666666667 -12.111312500000002 5.896416666666667 -12.654020833333334 12.741520833333334C7.882604166666668 21.925 7.291666666666667 33.31979166666667 7.291666666666667 50s0.5909375000000001 28.075000000000003 1.1495208333333333 35.12041666666667c0.5427083333333333 6.845000000000001 5.806916666666667 12.155 12.654020833333334 12.741458333333334 6.333541666666667 0.5425000000000001 15.968541666666669 1.0964583333333333 28.904791666666668 1.0964583333333333s22.57125 -0.5539583333333334 28.904791666666668 -1.0964583333333333c6.847083333333334 -0.5864583333333333 12.11125 -5.896458333333333 12.653958333333334 -12.741458333333334C92.1175 78.075 92.70833333333334 66.68020833333334 92.70833333333334 50c0 -4.753125 -0.04791666666666667 -9.077083333333334 -0.12958333333333333 -12.993333333333334 -0.0037500000000000003 -0.18333333333333335 -0.010833333333333334 -0.36770833333333336 -0.021041666666666667 -0.5527083333333334 -7.273333333333334 -0.053541666666666675 -14.894583333333335 -0.581875 -20.667708333333337 -1.0920833333333335 -7.204791666666667 -0.6368750000000001 -12.864583333333334 -6.296458333333334 -13.501458333333334 -13.50125 -0.5120833333333333 -5.7924375 -1.0422916666666666 -13.445125 -1.0929166666666668 -20.740250000000003ZM90.70854166666668 30.179583333333337c-1.9075 -3.8277083333333333 -5.471666666666667 -9.778708333333334 -11.415416666666667 -15.722625 -5.943125 -5.943125 -11.89375 -9.507229166666667 -15.722500000000002 -11.415333333333333 0.11875000000000001 6.451583333333335 0.5850000000000001 13.079458333333333 1.0437500000000002 18.268583333333332 0.37000000000000005 4.187708333333334 3.638125 7.455833333333334 7.826041666666667 7.8258333333333345 5.188958333333334 0.45875000000000005 11.816666666666666 0.9247916666666668 18.268125 1.0435416666666668ZM45.869166666666665 42.866666666666674c1.6383333333333334 1.1702083333333333 2.017916666666667 3.447291666666667 0.8475 5.085833333333333l-10.416666666666668 14.583333333333334c-0.6229166666666667 0.8720833333333334 -1.5979166666666669 1.4258333333333335 -2.666041666666667 1.5141666666666669 -1.0679166666666666 0.08854166666666669 -2.1208333333333336 -0.29750000000000004 -2.8785416666666666 -1.055416666666667l-8.333333333333334 -8.333333333333334c-1.4239583333333334 -1.42375 -1.4239583333333334 -3.7320833333333336 0 -5.155833333333334 1.42375 -1.4239583333333334 3.7320833333333336 -1.4239583333333334 5.155833333333334 0l5.290208333333333 5.290000000000001 7.915208333333334 -11.08125c1.1702083333333333 -1.6383333333333334 3.447291666666667 -2.017916666666667 5.085833333333333 -0.8475ZM54.16666666666667 50.520833333333336c-2.013541666666667 0 -3.6458333333333335 1.6322916666666667 -3.6458333333333335 3.6458333333333335s1.6322916666666667 3.6458333333333335 3.6458333333333335 3.6458333333333335l20.833333333333336 0c2.013541666666667 0 3.6458333333333335 -1.6322916666666667 3.6458333333333335 -3.6458333333333335s-1.6322916666666667 -3.6458333333333335 -3.6458333333333335 -3.6458333333333335l-20.833333333333336 0Zm-8.297500000000001 15.262500000000001c1.6383333333333334 1.1702083333333333 2.017916666666667 3.447291666666667 0.8475 5.085833333333333l-10.416666666666668 14.583333333333334c-0.6229166666666667 0.8720833333333334 -1.5979166666666669 1.4258333333333335 -2.666041666666667 1.5141666666666669 -1.0679166666666666 0.08854166666666669 -2.1208333333333336 -0.29750000000000004 -2.8785416666666666 -1.055416666666667l-8.333333333333334 -8.333333333333334c-1.4239583333333334 -1.42375 -1.4239583333333334 -3.7320833333333336 0 -5.155833333333334 1.42375 -1.4239583333333334 3.7320833333333336 -1.4239583333333334 5.155833333333334 0l5.290208333333333 5.290000000000001 7.915208333333334 -11.08125c1.1702083333333333 -1.6383333333333334 3.447291666666667 -2.017916666666667 5.085833333333333 -0.8475ZM54.16666666666667 73.4375c-2.013541666666667 0 -3.6458333333333335 1.6322916666666667 -3.6458333333333335 3.6458333333333335s1.6322916666666667 3.6458333333333335 3.6458333333333335 3.6458333333333335h20.833333333333336c2.013541666666667 0 3.6458333333333335 -1.6322916666666667 3.6458333333333335 -3.6458333333333335s-1.6322916666666667 -3.6458333333333335 -3.6458333333333335 -3.6458333333333335H54.16666666666667Z" clip-rule="evenodd" stroke-width="2.0833"></path>
  </g>
</svg>