<svg xmlns="http://www.w3.org/2000/svg" fill="none" viewBox="0 0 100 100" id="Tea-Cup--Streamline-Plump" height="100" width="100">
  <desc>
    Tea Cup Streamline Icon: https://streamlinehq.com
  </desc>
  <g id="tea-cup--herbal-cook-tea-tisane-cup-drink-cooking-nutrition-mug-food">
    <path id="Union" fill="#000000" fill-rule="evenodd" d="M34.19562500000001 2.2339583333333337c-1.6216666666666668 -1.6354166666666667 -4.262083333333333 -1.6466666666666667 -5.897708333333334 -0.025 -1.8545833333333335 1.8389583333333335 -3.2395833333333335 4.248541666666667 -3.3158333333333334 7.161875 -0.07520833333333334 2.870833333333333 1.1404166666666666 5.512291666666667 3.02 7.817708333333334 1.0629166666666667 1.3033333333333335 1.1539583333333332 2.057916666666667 1.146875 2.3285416666666667 -0.0060416666666666665 0.22833333333333336 -0.09229166666666667 0.7056250000000001 -0.8510416666666667 1.4579166666666667 -1.6354166666666667 1.6214583333333334 -1.6466666666666667 4.261875000000001 -0.025 5.8975 1.6216666666666668 1.6352083333333336 4.262083333333333 1.6464583333333334 5.8975 0.025 1.8547916666666668 -1.8389583333333335 3.2397916666666666 -4.24875 3.3160416666666666 -7.161875 0.07520833333333334 -2.870833333333333 -1.1404166666666666 -5.512291666666667 -3.0202083333333336 -7.817708333333334 -1.0629166666666667 -1.3033333333333335 -1.15375 -2.057916666666667 -1.1466666666666667 -2.3285416666666667 0.0060416666666666665 -0.22833333333333336 0.09229166666666667 -0.7058333333333333 0.8508333333333333 -1.4579166666666667 1.6354166666666667 -1.6214583333333334 1.6466666666666667 -4.261875000000001 0.025208333333333336 -5.8975Zm20.851041666666667 0c-1.6216666666666668 -1.6354166666666667 -4.262083333333333 -1.6466666666666667 -5.8975 -0.025 -1.8547916666666668 1.8389583333333335 -3.2397916666666666 4.248541666666667 -3.3160416666666666 7.161875 -0.07520833333333334 2.870833333333333 1.1404166666666666 5.512291666666667 3.02 7.817708333333334 1.0629166666666667 1.3033333333333335 1.1539583333333332 2.057916666666667 1.146875 2.3285416666666667 -0.0060416666666666665 0.22833333333333336 -0.09229166666666667 0.7056250000000001 -0.8508333333333333 1.4579166666666667 -1.635625 1.6214583333333334 -1.646875 4.261875000000001 -0.025208333333333336 5.8975 1.6216666666666668 1.6352083333333336 4.262083333333333 1.6464583333333334 5.897708333333334 0.025 1.8545833333333335 -1.8389583333333335 3.2395833333333335 -4.24875 3.3158333333333334 -7.161875 0.07520833333333334 -2.870833333333333 -1.1404166666666666 -5.512291666666667 -3.0202083333333336 -7.817708333333334 -1.0629166666666667 -1.3033333333333335 -1.15375 -2.057916666666667 -1.1466666666666667 -2.3285416666666667 0.0060416666666666665 -0.22833333333333336 0.09229166666666667 -0.7058333333333333 0.8510416666666667 -1.4579166666666667 1.6352083333333336 -1.6214583333333334 1.6464583333333334 -4.261875000000001 0.025 -5.8975ZM27.200208333333336 81.95125c3.8870833333333334 0.22125000000000003 8.652916666666668 0.3679166666666667 14.459375000000001 0.3679166666666667 5.806666666666667 0 10.572291666666667 -0.1466666666666667 14.459375000000001 -0.3679166666666667 8.906666666666666 -0.506875 15.427291666666667 -6.100625000000001 17.269166666666667 -14.227916666666667h5.431250000000001c7.616875 0 15.363333333333333 -5.194166666666667 15.899791666666667 -14.053958333333334 0.069375 -1.1487500000000002 0.11062500000000001 -2.375208333333333 0.11062500000000001 -3.6693750000000005s-0.04125000000000001 -2.5206250000000003 -0.11062500000000001 -3.6693750000000005c-0.5364583333333334 -8.859791666666666 -8.282916666666667 -14.053958333333334 -15.899791666666667 -14.053958333333334H18.54604166666667c-4.391041666666667 0 -8.169791666666667 3.0879166666666666 -8.560416666666667 7.569791666666667 -0.33770833333333333 3.876041666666667 -0.6452083333333333 9.569166666666668 -0.6452083333333333 17.451458333333335 0 2.2641666666666667 0.02541666666666667 4.307291666666667 0.06958333333333333 6.148750000000001 0.249375 10.391041666666668 7.394375000000001 17.912916666666668 17.790208333333336 18.504583333333333ZM73.55104166666666 42.702083333333334c0.2416666666666667 3.657291666666667 0.4277083333333334 8.464166666666667 0.4277083333333334 14.595833333333335h4.840625c3.4068750000000003 0 5.363541666666667 -2.1145833333333335 5.493125 -4.258541666666667 0.0575 -0.9500000000000001 0.09166666666666667 -1.9664583333333334 0.09166666666666667 -3.0393750000000006s-0.03416666666666667 -2.089166666666667 -0.09166666666666667 -3.0393750000000006c-0.12958333333333333 -2.1439583333333334 -2.08625 -4.258541666666667 -5.493125 -4.258541666666667h-5.2683333333333335ZM41.65958333333334 99.00000000000001c-14.378333333333334 0 -24.002708333333334 -0.19687500000000002 -29.56166666666667 -0.3625 -3.900833333333334 -0.11666666666666668 -6.927708333333333 -3.31875 -6.927708333333333 -7.196041666666667 0 -2.4160416666666666 1.8731250000000002 -4.426041666666666 4.315833333333334 -4.518125 4.623958333333333 -0.174375 14.479375000000001 -0.4339583333333334 32.17354166666667 -0.4339583333333334 17.693958333333335 0 27.549583333333338 0.25958333333333333 32.17354166666667 0.4339583333333334 2.442708333333334 0.09208333333333335 4.315833333333334 2.1020833333333333 4.315833333333334 4.518125 0 3.877291666666667 -3.0268750000000004 7.079375000000001 -6.927708333333333 7.196041666666667 -5.558958333333334 0.16562500000000002 -15.183333333333335 0.3625 -29.56166666666667 0.3625Z" clip-rule="evenodd" stroke-width="2.0833"></path>
  </g>
</svg>