<svg xmlns="http://www.w3.org/2000/svg" fill="none" viewBox="0 0 100 100" id="Triangle-Flag--Streamline-Plump" height="100" width="100">
  <desc>
    Triangle Flag Streamline Icon: https://streamlinehq.com
  </desc>
  <g id="triangle-flag--navigation-map-maps-flag-gps-location-destination-goal">
    <path id="Union" fill="#000000" fill-rule="evenodd" d="M8.702083333333333 6.648333333333333C8.518958333333334 12.590416666666668 8.202916666666667 26.28 8.202916666666667 50c0 23.720000000000002 0.31604166666666667 37.40979166666667 0.4991666666666667 43.351666666666674 0.07833333333333334 2.5429166666666667 1.4489583333333333 5.206458333333334 4.435416666666667 5.530208333333334 0.6775 0.07333333333333335 1.4604166666666667 0.11812500000000001 2.363125 0.11812500000000001 0.9029166666666667 0 1.6858333333333335 -0.04479166666666667 2.363125 -0.11812500000000001 2.986666666666667 -0.32375000000000004 4.357291666666667 -2.9872916666666667 4.435625000000001 -5.530208333333334 0.18312500000000004 -5.9418750000000005 0.4991666666666667 -19.631666666666668 0.4991666666666667 -43.351666666666674s-0.31604166666666667 -37.40958333333334 -0.4991666666666667 -43.351666666666674C22.221041666666668 4.105416666666667 20.850416666666668 1.4418750000000002 17.863750000000003 1.118125 17.186458333333334 1.0447916666666666 16.40354166666667 1 15.500625000000001 1c-0.9027083333333334 0 -1.6856250000000002 0.04479166666666667 -2.362916666666667 0.11812500000000001C10.151041666666666 1.4418750000000002 8.780416666666667 4.105416666666667 8.702083333333333 6.648333333333333Zm19.308958333333333 43.35229166666667c0 5.357500000000001 -0.01604166666666667 10.205833333333333 -0.043125000000000004 14.570833333333335 1.479375 -0.4347916666666667 2.997916666666667 -0.7677083333333333 4.551666666666667 -1.0270833333333333 3.0270833333333336 -0.5054166666666667 6.177291666666667 -0.7316666666666668 9.43375 -0.8958333333333334 0.94625 -0.04791666666666667 1.90375 -0.09041666666666667 2.8693750000000002 -0.1335416666666667h0.0008333333333333334c2.3381250000000002 -0.10395833333333335 4.724166666666667 -0.21020833333333336 7.111458333333334 -0.39645833333333336 6.770833333333334 -0.5289583333333334 13.742500000000001 -1.7120833333333334 20.46979166666667 -5.417083333333334 6.7389583333333345 -3.7112500000000006 13.144791666666668 -9.903333333333332 18.883125000000003 -20.30541666666667 1.5333333333333334 -2.7802083333333334 -0.6106250000000001 -5.941458333333334 -3.5708333333333333 -6.102291666666667 -19.236458333333335 -1.0464583333333333 -28.552500000000002 -8.21 -37.38583333333334 -15.219375000000001l-0.47708333333333336 -0.37875000000000003c-4.267083333333334 -3.3883333333333336 -8.523958333333335 -6.768541666666667 -13.755416666666667 -9.312291666666667 -2.8500000000000005 -1.3860416666666668 -5.980833333333334 -2.5206250000000003 -9.557708333333334 -3.2877083333333337 0.6341666666666668 1.5156250000000002 0.9277083333333334 3.0775000000000006 0.9681250000000001 4.392708333333333 0.18520833333333336 6.002916666666668 0.5018750000000001 19.74666666666667 0.5018750000000001 43.51229166666667Z" clip-rule="evenodd" stroke-width="2.0833"></path>
  </g>
</svg>