<svg xmlns="http://www.w3.org/2000/svg" fill="none" viewBox="0 0 100 100" id="Triangle-Arrow-Turn-Forward-Large--Streamline-Plump" height="100" width="100">
  <desc>
    Triangle Arrow Turn Forward Large Streamline Icon: https://streamlinehq.com
  </desc>
  <g id="Solid/Arrows/Big Single Triangle arrow/triangle-arrow-turn-forward-large--arrow-bend-curve-change-direction-return-right-next-forward-large-head">
    <path id="Union" fill="#000000" fill-rule="evenodd" d="M58.39666666666667 63.63875000000001c0.3922916666666667 5.905 6.255000000000001 8.986666666666668 11.141041666666666 5.647708333333334 9.557500000000001 -6.531666666666667 19.647291666666668 -16.091875 26.09104166666667 -25.524375000000003 2.589375 -3.79 2.589375 -8.728333333333335 0 -12.518541666666668 -6.4437500000000005 -9.432291666666668 -16.533541666666668 -18.992583333333336 -26.09104166666667 -25.524125 -4.886041666666667 -3.3390833333333334 -10.748750000000001 -0.25733333333333336 -11.141041666666666 5.647625 -0.24750000000000003 3.7238750000000005 -0.4702083333333334 8.52175 -0.5983333333333334 14.616500000000002h-16.597291666666667c-20.790604166666668 0 -38.37872916666667 15.424583333333334 -38.37872916666667 36.214999999999996 0 20.613125 17.42891666666667 35.87729166666667 38.04206250000001 35.87729166666667h1.9656250000000002c3.1879166666666667 0 6.233541666666667 -1.6750000000000003 6.994583333333334 -4.770833333333334 0.9887500000000001 -4.0216666666666665 1.1072916666666668 -8.898541666666668 0.12000000000000001 -12.847291666666667 -0.7583333333333334 -3.032291666666667 -3.8270833333333334 -4.534791666666667 -6.952916666666668 -4.534791666666667h-1.2772916666666667c-8.450000000000001 0 -15.606458333333334 -5.274166666666667 -15.606458333333334 -13.724375 0 -8.261666666666667 6.929791666666667 -13.298333333333336 15.191458333333335 -13.298333333333336h16.496458333333337c0.12770833333333334 6.152708333333334 0.351875 10.989791666666667 0.6008333333333333 14.738541666666666Z" clip-rule="evenodd" stroke-width="2.0833"></path>
  </g>
</svg>