<svg xmlns="http://www.w3.org/2000/svg" fill="none" viewBox="0 0 100 100" id="Upload-Computer--Streamline-Plump" height="100" width="100">
  <desc>
    Upload Computer Streamline Icon: https://streamlinehq.com
  </desc>
  <g id="upload-computer--action-actions-computer-desktop-device-display-monitor-screen-upload">
    <path id="Union" fill="#000000" fill-rule="evenodd" d="m57.39979166666667 53.87083333333334 0.6595833333333334 -28.704583333333336c3.1922916666666667 -0.158125 5.969375 -0.39625000000000005 8.300416666666667 -0.65375 4.263958333333334 -0.4710416666666667 5.917708333333334 -4.892666666666667 2.9922916666666666 -8.03025 -1.5093750000000001 -1.6187291666666668 -3.3889583333333335 -3.5612291666666667 -5.715 -5.85875 -4.73125 -4.673416666666667 -8.231666666666667 -7.261895833333334 -10.500625000000001 -8.669745833333334 -1.9602083333333333 -1.2162395833333333 -4.31125 -1.2160854166666668 -6.271250000000001 0.0002791666666666667 -2.2689583333333334 1.407925 -5.768958333333334 3.9963625 -10.500833333333334 8.669466666666667 -2.3262500000000004 2.2972916666666667 -4.206041666666667 4.239625 -5.715625 5.858270833333334 -2.926041666666667 3.1375833333333336 -1.2722916666666668 7.559687500000001 2.9920833333333334 8.030729166666667 2.3316666666666666 0.2575 5.109791666666667 0.49583333333333335 8.302916666666667 0.6539583333333334l0.6591666666666668 28.70375c0.06354166666666666 2.7645833333333334 1.9483333333333335 5.163541666666667 4.70375 5.3968750000000005 0.8258333333333333 0.07 1.7329166666666667 0.11541666666666667 2.695416666666667 0.11541666666666667 0.9622916666666667 0 1.8691666666666669 -0.04541666666666667 2.6945833333333336 -0.11520833333333334 2.7552083333333335 -0.2335416666666667 4.639583333333333 -2.6320833333333336 4.703125 -5.396458333333334ZM20.26572916666667 78.39979166666667c4.6140625 0.2835416666666667 11.426562500000001 0.5843750000000001 20.7021875 0.708125l-0.7897916666666667 4.7387500000000005c-0.25104166666666666 1.5068750000000002 -1.5547916666666668 2.6112500000000005 -3.082291666666667 2.6112500000000005h-4.888333333333334c-3.475833333333334 0 -6.468333333333334 2.4533333333333336 -7.15 5.861666666666667l-0.08166666666666667 0.4085416666666667c-0.6445833333333334 3.222916666666667 1.8204166666666668 6.229791666666667 5.107083333333334 6.229791666666667h39.835c3.2866666666666666 0 5.751666666666668 -3.0068750000000004 5.107291666666667 -6.229791666666667l-0.081875 -0.4085416666666667c-0.6816666666666666 -3.408333333333333 -3.6741666666666672 -5.861666666666667 -7.15 -5.861666666666667h-4.888125c-1.5277083333333334 0 -2.8314583333333334 -1.104375 -3.0825000000000005 -2.6112500000000005l-0.7897916666666667 -4.7387500000000005c9.275208333333333 -0.12375000000000001 16.087500000000002 -0.42458333333333337 20.70125 -0.708125 6.806666666666667 -0.4185416666666667 12.471250000000001 -5.482291666666667 13.160625000000001 -12.532083333333334 0.44562500000000005 -4.555416666666667 0.8552083333333333 -11.185416666666667 0.8552083333333333 -20.16416666666667 0 -8.978958333333333 -0.40958333333333335 -15.608750000000002 -0.8552083333333333 -20.164375000000003 -0.6897916666666667 -7.054041666666667 -6.364791666666667 -12.114145833333335 -13.166875000000001 -12.532250000000001l-0.24645833333333336 -0.015041666666666667c-2.8712500000000003 -0.17389583333333336 -5.339791666666667 2.012729166666667 -5.513541666666667 4.8839375 -0.17395833333333335 2.8712291666666667 2.0127083333333333 5.339812500000001 4.883958333333334 5.513770833333334l0.236875 0.014375c1.9697916666666668 0.12104166666666667 3.2733333333333334 1.4566666666666668 3.43875 3.149166666666667 0.410625 4.197083333333334 0.8058333333333333 10.487916666666669 0.8058333333333333 19.15041666666667 0 8.662500000000001 -0.3952083333333334 14.953125000000002 -0.8058333333333333 19.15041666666667 -0.16583333333333336 1.6968750000000001 -1.4672916666666669 3.027916666666667 -3.4325 3.1487500000000006 -5.770625 0.3547916666666667 -15.274166666666668 0.7468750000000001 -29.095000000000002 0.7468750000000001s-23.324375000000003 -0.3920833333333334 -29.095000000000002 -0.7468750000000001c-1.9652083333333334 -0.12083333333333335 -3.266666666666667 -1.4520833333333334 -3.4326250000000003 -3.1487500000000006C17.061916666666665 60.65666666666667 16.666666666666668 54.366041666666675 16.666666666666668 45.703541666666666c0 -8.662500000000001 0.39525000000000005 -14.953333333333335 0.8057291666666667 -19.15041666666667 0.16552083333333337 -1.6925000000000001 1.4691458333333334 -3.028125 3.4388541666666668 -3.149166666666667l0.236875 -0.014375c2.8712500000000003 -0.17395833333333335 5.057916666666667 -2.6425416666666672 4.883958333333334 -5.513770833333334 -0.17375000000000002 -2.8712083333333336 -2.6425 -5.057833333333334 -5.513625 -4.8839375l-0.24637500000000004 0.015020833333333336C13.469895833333336 13.425 7.795041666666668 18.485145833333338 7.1051875 25.53916666666667 6.659666666666667 30.094791666666666 6.25 36.724583333333335 6.25 45.703541666666666c0 8.978750000000002 0.40966666666666673 15.608750000000002 0.8551666666666667 20.16416666666667 0.6894583333333334 7.049791666666668 6.354020833333333 12.113541666666666 13.160562500000001 12.532083333333334Z" clip-rule="evenodd" stroke-width="2.0833"></path>
  </g>
</svg>