<svg xmlns="http://www.w3.org/2000/svg" fill="none" viewBox="0 0 100 100" id="User-Square-Single--Streamline-Plump" height="100" width="100">
  <desc>
    User Square Single Streamline Icon: https://streamlinehq.com
  </desc>
  <g id="Solid/Interface Essential/User/user-square-single--square-geometric-human-person-single-user">
    <path id="Union" fill="#000000" fill-rule="evenodd" d="M4.258125 16.94935416666667C3.704333333333334 23.765208333333334 3.125 34.58041666666667 3.125 50c0 15.419583333333334 0.5793125 26.23479166666667 1.1331041666666668 33.050625000000004 0.5565208333333334 6.849583333333333 5.8415625 12.134791666666667 12.691250000000002 12.691250000000002C23.765208333333334 96.295625 34.58041666666667 96.875 50 96.875c15.419583333333334 0 26.23479166666667 -0.5793750000000001 33.050625000000004 -1.1331250000000002 6.849583333333333 -0.5564583333333334 12.134791666666667 -5.841666666666667 12.691250000000002 -12.691250000000002 0.55375 -6.815833333333334 1.1331250000000002 -17.63104166666667 1.1331250000000002 -33.050625000000004 0 -15.419583333333334 -0.5793750000000001 -26.23479166666667 -1.1331250000000002 -33.05060416666667 -0.5564583333333334 -6.849687500000001 -5.841458333333334 -12.13475 -12.691250000000002 -12.691270833333334C76.23479166666668 3.704333333333334 65.41979166666667 3.125 50 3.125c-15.419583333333334 0 -26.23479166666667 0.5793125 -33.05060416666667 1.1331041666666668 -6.849687500000001 0.5565208333333334 -12.13475 5.8415625 -12.691270833333334 12.691250000000002ZM82.14333333333335 87.23208333333334c-2.9975000000000005 -6.0183333333333335 -9.38 -15.319791666666669 -21.28541666666667 -18.994583333333335C68.63270833333334 64.27770833333334 73.95833333333334 56.19833333333334 73.95833333333334 46.875 73.95833333333334 33.643125000000005 63.23166666666667 22.916666666666668 50 22.916666666666668c-13.231875 0 -23.958333333333336 10.726458333333333 -23.958333333333336 23.958333333333336 0 9.323541666666667 5.325833333333334 17.403333333333336 13.101041666666667 21.362708333333334 -11.905000000000001 3.6752083333333334 -18.287916666666668 12.976458333333333 -21.285583333333335 18.994583333333335 0.5018958333333334 0.14395833333333333 1.0280625 0.24020833333333336 1.5737083333333335 0.2833333333333334 6.340208333333334 0.5033333333333334 16.34916666666667 1.0260416666666667 30.569166666666668 1.0260416666666667s24.228958333333335 -0.5227083333333334 30.569166666666668 -1.0258333333333334c0.5458333333333334 -0.043333333333333335 1.0720833333333333 -0.13958333333333336 1.574166666666667 -0.28375Z" clip-rule="evenodd" stroke-width="2.0833"></path>
  </g>
</svg>