<svg xmlns="http://www.w3.org/2000/svg" fill="none" viewBox="0 0 100 100" id="User-Single-Neutral--Streamline-Plump" height="100" width="100">
  <desc>
    User Single Neutral Streamline Icon: https://streamlinehq.com
  </desc>
  <g id="Solid/Interface Essential/User/user-single-neutral--close-geometric-human-person-single-user">
    <path id="Union" fill="#000000" d="M49.99666666666667 1.0416666666666667C32.1625 1.0416666666666667 17.7049375 15.499145833333333 17.7049375 33.333333333333336c0 10.748125 5.250895833333334 20.265416666666667 13.320479166666669 26.133333333333336 -10.3528125 4.970625 -18.14304166666667 13.920833333333334 -20.732166666666668 24.77 -1.4784583333333334 6.195208333333333 2.8574375 11.559583333333334 8.647083333333333 12.566666666666668C24.941666666666666 97.84708333333334 34.87854166666667 98.95833333333334 49.99666666666667 98.95833333333334c15.117916666666668 0 25.055000000000003 -1.11125 31.056250000000002 -2.1550000000000002 5.789583333333334 -1.0070833333333333 10.125416666666666 -6.371458333333334 8.647083333333333 -12.566666666666668 -2.589166666666667 -10.849166666666667 -10.379375000000001 -19.799375 -20.732083333333335 -24.77 8.069375 -5.867916666666668 13.320416666666667 -15.385208333333335 13.320416666666667 -26.133333333333336 0 -17.8341875 -14.457500000000001 -32.29166666666667 -32.29166666666667 -32.29166666666667Z" stroke-width="2.0833"></path>
  </g>
</svg>