<svg xmlns="http://www.w3.org/2000/svg" fill="none" viewBox="0 0 100 100" id="Visible--Streamline-Plump" height="100" width="100">
  <desc>
    Visible Streamline Icon: https://streamlinehq.com
  </desc>
  <g id="Solid/Interface Essential/View/visible--eye-eyeball-open-view">
    <path id="Subtract" fill="#000000" fill-rule="evenodd" d="M1.4353125 47.220625000000005C7.383291666666667 26.538333333333338 26.917708333333337 11.458333333333334 50.001041666666666 11.458333333333334c23.070000000000004 0 42.595 15.062500000000002 48.55520833333333 35.72645833333334 0.5270833333333333 1.8272916666666668 0.5279166666666667 3.766875 0.002291666666666667 5.5945833333333335C92.61041666666668 73.46166666666667 73.07604166666668 88.54166666666667 49.99291666666667 88.54166666666667 26.92291666666667 88.54166666666667 7.397770833333334 73.47916666666667 1.4375145833333336 52.81520833333333c-0.5270479166666667 -1.8272916666666668 -0.5278104166666667 -3.766875 -0.0022020833333333337 -5.5945833333333335ZM72.91666666666667 50c0 12.656458333333335 -10.260208333333335 22.916666666666668 -22.916666666666668 22.916666666666668s-22.916666666666668 -10.260208333333335 -22.916666666666668 -22.916666666666668 10.260208333333335 -22.916666666666668 22.916666666666668 -22.916666666666668 22.916666666666668 10.260208333333335 22.916666666666668 22.916666666666668Z" clip-rule="evenodd" stroke-width="2.0833"></path>
  </g>
</svg>