<svg xmlns="http://www.w3.org/2000/svg" fill="none" viewBox="0 0 100 100" id="Warning-Circle--Streamline-Plump" height="100" width="100">
  <desc>
    Warning Circle Streamline Icon: https://streamlinehq.com
  </desc>
  <g id="Solid/Interface Essential/Alerts/warning-circle--warning-alert-frame-exclamation-caution-circle">
    <path id="Subtract" fill="#000000" fill-rule="evenodd" d="M1.0416666666666667 50C1.0416666666666667 22.96104166666667 22.96104166666667 1.0416666666666667 50 1.0416666666666667S98.95833333333334 22.96104166666667 98.95833333333334 50 77.03895833333334 98.95833333333334 50 98.95833333333334 1.0416666666666667 77.03895833333334 1.0416666666666667 50Zm40.914791666666666 -18.464375c-0.1910416666666667 -2.700625 1.02 -5.357083333333334 3.6456250000000003 -6.017083333333334C46.796458333333334 25.218333333333334 48.26229166666667 25 50 25c1.7377083333333334 0 3.203541666666667 0.21833333333333335 4.397708333333334 0.5185416666666667 2.6258333333333335 0.6600000000000001 3.836875 3.3164583333333337 3.6458333333333335 6.017083333333334 -0.3975 5.616458333333334 -1.1560416666666666 15.372083333333334 -1.97625 20.840208333333333 -0.2702083333333334 1.8014583333333336 -1.3547916666666668 3.3512500000000003 -3.151041666666667 3.654166666666667C52.148125 56.159375 51.186666666666675 56.25000000000001 50 56.25000000000001c-1.1866666666666668 0 -2.148125 -0.090625 -2.9162500000000002 -0.22 -1.7962500000000001 -0.30291666666666667 -2.880833333333334 -1.8527083333333334 -3.151041666666667 -3.654166666666667 -0.8202083333333334 -5.468125 -1.57875 -15.223750000000003 -1.97625 -20.840208333333333ZM57.29166666666667 69.79166666666667c0 4.027083333333334 -3.2645833333333334 7.291666666666667 -7.291666666666667 7.291666666666667s-7.291666666666667 -3.2645833333333334 -7.291666666666667 -7.291666666666667S45.97291666666667 62.50000000000001 50 62.50000000000001s7.291666666666667 3.2645833333333334 7.291666666666667 7.291666666666667Z" clip-rule="evenodd" stroke-width="2.0833"></path>
  </g>
</svg>