<svg xmlns="http://www.w3.org/2000/svg" fill="none" viewBox="0 0 100 100" id="Warning-Square--Streamline-Plump" height="100" width="100">
  <desc>
    Warning Square Streamline Icon: https://streamlinehq.com
  </desc>
  <g id="Solid/Interface Essential/Alerts/warning-square--warning-alert-frame-exclamation-caution-square">
    <path id="Subtract" fill="#000000" fill-rule="evenodd" d="M16.949395833333334 4.2581041666666675C23.765208333333334 3.704333333333334 34.58041666666667 3.125 50 3.125c15.419583333333334 0 26.23479166666667 0.5793333333333334 33.050625000000004 1.1331041666666668 6.849583333333333 0.5565416666666667 12.134791666666667 5.841604166666667 12.691250000000002 12.691291666666668C96.295625 23.765208333333334 96.875 34.58041666666667 96.875 50c0 15.419583333333334 -0.5793750000000001 26.23479166666667 -1.1331250000000002 33.050625000000004 -0.5564583333333334 6.849791666666667 -5.841666666666667 12.134791666666667 -12.691250000000002 12.691250000000002 -6.815833333333334 0.55375 -17.63104166666667 1.1331250000000002 -33.050625000000004 1.1331250000000002 -15.419583333333334 0 -26.23479166666667 -0.5793750000000001 -33.050625000000004 -1.1331250000000002 -6.849687500000001 -0.5564583333333334 -12.13475 -5.841458333333334 -12.691270833333334 -12.691250000000002C3.704333333333334 76.23479166666668 3.125 65.41958333333334 3.125 50c0 -15.419583333333334 0.5793333333333334 -26.23479166666667 1.1331250000000002 -33.050645833333334 0.5565208333333334 -6.849687500000001 5.841583333333333 -12.134729166666668 12.691270833333334 -12.691250000000002ZM45.60208333333333 25.51854166666667c-2.6256250000000003 0.6600000000000001 -3.836666666666667 3.3164583333333337 -3.6456250000000003 6.017083333333334 0.3975 5.616458333333334 1.1560416666666666 15.372083333333334 1.97625 20.840208333333333 0.2702083333333334 1.8014583333333336 1.3547916666666668 3.3512500000000003 3.151041666666667 3.654166666666667 0.7681250000000001 0.12937500000000002 1.7295833333333335 0.22 2.9162500000000002 0.22 1.1866666666666668 0 2.148125 -0.090625 2.9162500000000002 -0.22 1.7962500000000001 -0.30291666666666667 2.880833333333334 -1.8527083333333334 3.151041666666667 -3.654166666666667 0.8202083333333334 -5.468125 1.57875 -15.223750000000003 1.97625 -20.840208333333333 0.1910416666666667 -2.700625 -1.02 -5.357083333333334 -3.6458333333333335 -6.017083333333334C53.20354166666667 25.218333333333334 51.73770833333334 25 50 25c-1.7377083333333334 0 -3.203541666666667 0.21833333333333335 -4.397916666666667 0.5185416666666667ZM57.29166666666667 69.79166666666667c0 4.027083333333334 -3.2645833333333334 7.291666666666667 -7.291666666666667 7.291666666666667s-7.291666666666667 -3.2645833333333334 -7.291666666666667 -7.291666666666667S45.97291666666667 62.50000000000001 50 62.50000000000001s7.291666666666667 3.2645833333333334 7.291666666666667 7.291666666666667Z" clip-rule="evenodd" stroke-width="2.0833"></path>
  </g>
</svg>