<svg xmlns="http://www.w3.org/2000/svg" fill="none" viewBox="0 0 100 100" id="Webcam-Video-Square--Streamline-Plump" height="100" width="100">
  <desc>
    Webcam Video Square Streamline Icon: https://streamlinehq.com
  </desc>
  <g id="webcam-video-square--work-video-meeting-camera-company-conference-office">
    <path id="Subtract" fill="#000000" fill-rule="evenodd" d="M16.949375 95.74187500000001c6.815833333333334 0.55375 17.63104166666667 1.1331250000000002 33.050625000000004 1.1331250000000002 15.419583333333334 0 26.23479166666667 -0.5793750000000001 33.050625000000004 -1.1331250000000002 6.849583333333333 -0.5564583333333334 12.134791666666667 -5.841458333333334 12.691250000000002 -12.691250000000002 0.55375 -6.815833333333334 1.1331250000000002 -17.63104166666667 1.1331250000000002 -33.050625000000004 0 -15.419583333333334 -0.5793750000000001 -26.23479166666667 -1.1331250000000002 -33.050625000000004 -0.5564583333333334 -6.849687500000001 -5.841666666666667 -12.13475 -12.691250000000002 -12.691250000000002C76.23479166666668 3.704333333333334 65.41958333333334 3.125 50 3.125c-15.419583333333334 0 -26.23479166666667 0.5793333333333334 -33.05060416666667 1.1331041666666668 -6.849708333333333 0.5565208333333334 -12.134770833333334 5.841583333333333 -12.691291666666668 12.691270833333334C3.704333333333334 23.765208333333334 3.125 34.58041666666667 3.125 50c0 15.419583333333334 0.5793333333333334 26.23479166666667 1.1331041666666668 33.050625000000004 0.5565208333333334 6.849791666666667 5.841583333333333 12.134791666666667 12.691270833333334 12.691250000000002Zm6.3187500000000005 -32.606458333333336c0.23895833333333336 3.58875 2.575625 6.3760416666666675 6.136458333333334 6.8812500000000005C32.47625 70.45270833333335 37.07083333333334 70.83333333333334 43.75 70.83333333333334c6.679166666666667 0 11.273750000000001 -0.38062500000000005 14.345416666666667 -0.8166666666666668 3.5608333333333335 -0.5052083333333334 5.8975 -3.2925000000000004 6.136458333333334 -6.8812500000000005 0.07541666666666667 -1.13375 0.14583333333333337 -2.474375 0.20375000000000001 -4.052291666666667 2.2208333333333337 1.2225000000000001 4.918541666666667 2.557291666666667 7.871250000000001 3.7031250000000004 3.06625 1.1897916666666668 6.182916666666667 -0.686875 6.491875 -3.9614583333333337C79.00666666666667 56.621875 79.16666666666667 53.71833333333334 79.16666666666667 50c0 -3.7183333333333333 -0.16 -6.621875000000001 -0.3679166666666667 -8.824791666666668 -0.30895833333333333 -3.2745833333333336 -3.4256250000000006 -5.15125 -6.491875 -3.9614583333333337 -2.9527083333333337 1.1458333333333335 -5.6504166666666675 2.4806250000000003 -7.871250000000001 3.7031250000000004 -0.057916666666666665 -1.5779166666666666 -0.12833333333333335 -2.918541666666667 -0.20375000000000001 -4.052291666666667 -0.23895833333333336 -3.58875 -2.575625 -6.3760416666666675 -6.136458333333334 -6.8812500000000005C55.02375000000001 29.54729166666667 50.42916666666667 29.166666666666668 43.75 29.166666666666668c-6.679166666666667 0 -11.273750000000001 0.38062500000000005 -14.345416666666667 0.8166666666666668 -3.5608333333333335 0.5052083333333334 -5.8975 3.2925000000000004 -6.136458333333334 6.8812500000000005C23.076666666666668 39.743125 22.916666666666668 43.95666666666667 22.916666666666668 50s0.16 10.256875 0.3514583333333333 13.135416666666668Z" clip-rule="evenodd" stroke-width="2.0833"></path>
  </g>
</svg>