<svg xmlns="http://www.w3.org/2000/svg" fill="none" viewBox="0 0 100 100" height="100" width="100">
  <g id="workflow-project-arrow--workflow-project-arrow-instruction-planning">
    <path id="Union" fill="#000000" fill-rule="evenodd" d="M73.91333333333334 9.139625c0.11479166666666668 -3.1012083333333336 1.638125 -5.8068541666666675 4.276458333333334 -7.094839583333334 2.6354166666666665 -1.28665625 5.704791666666668 -0.8272458333333333 8.222708333333333 0.9774437500000001 0.9677083333333335 0.6934375 2.039166666666667 1.4843958333333334 3.2191666666666667 2.384916666666667 2.3375000000000004 1.7838333333333334 4.066458333333333 3.3091458333333335 5.345416666666667 4.578333333333334 1.6129166666666668 1.6006666666666667 2.5302083333333334 3.670833333333334 2.5302083333333334 5.860541666666667 -0.00020833333333333335 2.1896666666666667 -0.9177083333333335 4.259708333333333 -2.530625 5.8602291666666675 -1.27875 1.2691666666666668 -3.0075000000000003 2.794375 -5.3447916666666675 4.578333333333334 -1.180625 0.90125 -2.2529166666666667 1.6927083333333335 -3.2208333333333337 2.3866666666666667 -2.517708333333333 1.804375 -5.586666666666667 2.2639583333333335 -8.221875 0.9772916666666668 -2.637916666666667 -1.2879166666666666 -4.161041666666667 -3.9933333333333336 -4.275833333333334 -7.093958333333334 -0.018333333333333337 -0.4935416666666667 -0.034791666666666665 -1.0139583333333335 -0.04916666666666667 -1.5625l-8.117916666666668 0c-4.027291666666667 0 -7.291666666666667 3.2643750000000002 -7.291666666666667 7.291458333333334v42.550000000000004c0 9.780208333333333 -7.928333333333334 17.708125000000003 -17.708333333333336 17.708125000000003h-7.517708333333333c-2.1435416666666667 6.0754166666666665 -7.935625000000001 10.428958333333334 -14.744562500000002 10.428958333333334 -8.6328125 0 -15.631104166666669 -6.998333333333334 -15.631104166666669 -15.631250000000001 0 -8.632708333333333 6.998291666666667 -15.631041666666668 15.631104166666669 -15.631041666666668 6.804354166666667 0 12.593312500000001 4.347708333333333 14.740187500000001 10.416666666666668h7.522083333333334c4.027083333333334 0 7.291666666666667 -3.2645833333333334 7.291666666666667 -7.291458333333334v-42.550000000000004c0 -9.780229166666668 7.928333333333334 -17.708187500000005 17.708333333333336 -17.708187500000005l8.121250000000002 0c0.013541666666666667 -0.5021458333333334 0.028958333333333332 -0.9803750000000001 0.04583333333333334 -1.435729166666667Z" clip-rule="evenodd" stroke-width="2.0833"></path>
  </g>
</svg>