<?xml version="1.0" encoding="UTF-8"?>
<svg xmlns="http://www.w3.org/2000/svg" viewBox="0 0 112.8 19" 
     width="112.8" height="19">
  <!-- Shadow layer (offset down-right) -->
  <g transform="translate(1.5, 17.65) scale(0.0078125, -0.0078125)" 
     fill="#000" stroke="#000" stroke-width="40" stroke-linejoin="round">
    <g transform="translate(0, 0)"><path d="M503 -21Q382 -21 283.5 27.0Q185 75 125.5 172.0Q66 269 60 415L62 421H251Q255 274 318.5 205.0Q382 136 500 136Q583 136 636.0 171.5Q689 207 714.5 269.5Q740 332 740 413V1301L546 1327V1456H1100V1329L937 1301V413Q937 283 887.5 185.0Q838 87 741.5 33.0Q645 -21 503 -21Z"/></g>
    <g transform="translate(1169, 0)"><path d="M563 -21Q413 -21 304.5 49.5Q196 120 137.0 244.5Q78 369 78 529V551Q78 711 137.0 835.5Q196 960 304.5 1031.0Q413 1102 561 1102Q711 1102 819.5 1031.0Q928 960 987.0 836.0Q1046 712 1046 551V529Q1046 368 987.0 243.5Q928 119 820.0 49.0Q712 -21 563 -21ZM563 133Q657 133 720.5 184.5Q784 236 816.5 325.5Q849 415 849 529V551Q849 665 816.5 754.5Q784 844 720.0 895.5Q656 947 561 947Q467 947 403.0 895.5Q339 844 307.0 754.5Q275 665 275 551V529Q275 415 307.0 325.5Q339 236 403.5 184.5Q468 133 563 133Z"/></g>
    <g transform="translate(2293, 0)"><path d="M49 0V126L212 154V1405L49 1433V1560H409V938Q465 1016 546.0 1059.0Q627 1102 726 1102Q900 1102 996.0 998.0Q1092 894 1092 678V154L1255 126V0H732V126L895 154V680Q895 814 837.5 878.0Q780 942 666 942Q585 942 518.5 903.5Q452 865 409 799V154L572 126V0Z"/></g>
    <g transform="translate(3608, 0)"><path d="M74 0V126L237 154V927L74 955V1082H413L427 921Q481 1007 562.5 1054.5Q644 1102 748 1102Q923 1102 1019.0 999.5Q1115 897 1115 683V154L1278 126V0H755V126L918 154V679Q918 822 861.5 882.0Q805 942 689 942Q604 942 538.5 901.0Q473 860 434 789V154L597 126V0Z"/></g>
    <g transform="translate(5463.0, 0)"><path d="M83 0V126L246 154V1301L83 1329V1456H246H445L1159 321L1165 323V1301L986 1329V1456H1346H1509V1329L1346 1301V0H1166L433 1141L427 1139V154L606 126V0Z"/></g>
    <g transform="translate(7055.0, 0)"><path d="M567 -21Q417 -21 306.0 47.5Q195 116 134.5 238.0Q74 360 74 520V564Q74 718 137.5 839.5Q201 961 306.5 1031.5Q412 1102 537 1102Q683 1102 781.5 1042.0Q880 982 930.0 873.5Q980 765 980 618V495H278L275 490Q277 386 311.5 305.5Q346 225 411.0 179.0Q476 133 567 133Q667 133 742.5 161.5Q818 190 873 240L950 112Q892 56 796.5 17.5Q701 -21 567 -21ZM284 649H783V675Q783 753 755.5 814.5Q728 876 673.5 911.5Q619 947 537 947Q471 947 417.0 908.5Q363 870 328.0 804.0Q293 738 282 654Z"/></g>
    <g transform="translate(8114.0, 0)"><path d="M458 0 173 941 52 955V1082H499V955L366 933L515 394L549 266H555L599 394L834 1082H1000L1224 396L1272 244H1278L1325 396L1476 934L1340 955V1082H1777V955L1657 938L1377 0H1190L971 650L919 824L913 823L862 650L627 0Z"/></g>
    <g transform="translate(9937.0, 0)"><path d="M512 -21Q403 -21 308.0 1.0Q213 23 106 69L104 326H253L290 171Q346 148 398.5 137.5Q451 127 512 127Q632 127 684.0 173.0Q736 219 736 287Q736 351 683.5 395.5Q631 440 493 471Q297 516 204.5 591.5Q112 667 112 793Q112 881 163.0 950.5Q214 1020 305.0 1061.0Q396 1102 517 1102Q640 1102 727.5 1074.0Q815 1046 880 999L890 752H742L710 896Q675 922 627.0 936.0Q579 950 517 950Q425 950 367.5 907.0Q310 864 310 799Q310 761 326.5 733.0Q343 705 390.0 682.5Q437 660 528 638Q754 585 843.5 503.0Q933 421 933 301Q933 164 831.5 71.5Q730 -21 512 -21Z"/></g>
    <g transform="translate(10959.0, 0)"><path d="M563 -21Q413 -21 304.5 49.5Q196 120 137.0 244.5Q78 369 78 529V551Q78 711 137.0 835.5Q196 960 304.5 1031.0Q413 1102 561 1102Q711 1102 819.5 1031.0Q928 960 987.0 836.0Q1046 712 1046 551V529Q1046 368 987.0 243.5Q928 119 820.0 49.0Q712 -21 563 -21ZM563 133Q657 133 720.5 184.5Q784 236 816.5 325.5Q849 415 849 529V551Q849 665 816.5 754.5Q784 844 720.0 895.5Q656 947 561 947Q467 947 403.0 895.5Q339 844 307.0 754.5Q275 665 275 551V529Q275 415 307.0 325.5Q339 236 403.5 184.5Q468 133 563 133Z"/></g>
    <g transform="translate(12083.0, 0)"><path d="M74 0V126L237 154V927L74 955V1082H414L427 941Q479 1018 561.0 1060.0Q643 1102 751 1102Q859 1102 936.5 1052.0Q1014 1002 1053 902Q1104 994 1188.0 1048.0Q1272 1102 1384 1102Q1550 1102 1646.0 988.5Q1742 875 1742 647V154L1905 126V0H1381V126L1544 154V649Q1544 809 1489.0 875.5Q1434 942 1326 942Q1223 942 1160.5 869.5Q1098 797 1088 687V154L1251 126V0H728V126L891 154V649Q891 801 834.5 871.5Q778 942 671 942Q581 942 523.0 905.0Q465 868 434 801V154L597 126V0Z"/></g>
  </g>
  <!-- Main fill layer -->
  <g transform="translate(0, 16.15) scale(0.0078125, -0.0078125)" fill="#BF40FF">
    <g transform="translate(0, 0)"><path d="M503 -21Q382 -21 283.5 27.0Q185 75 125.5 172.0Q66 269 60 415L62 421H251Q255 274 318.5 205.0Q382 136 500 136Q583 136 636.0 171.5Q689 207 714.5 269.5Q740 332 740 413V1301L546 1327V1456H1100V1329L937 1301V413Q937 283 887.5 185.0Q838 87 741.5 33.0Q645 -21 503 -21Z"/></g>
    <g transform="translate(1169, 0)"><path d="M563 -21Q413 -21 304.5 49.5Q196 120 137.0 244.5Q78 369 78 529V551Q78 711 137.0 835.5Q196 960 304.5 1031.0Q413 1102 561 1102Q711 1102 819.5 1031.0Q928 960 987.0 836.0Q1046 712 1046 551V529Q1046 368 987.0 243.5Q928 119 820.0 49.0Q712 -21 563 -21ZM563 133Q657 133 720.5 184.5Q784 236 816.5 325.5Q849 415 849 529V551Q849 665 816.5 754.5Q784 844 720.0 895.5Q656 947 561 947Q467 947 403.0 895.5Q339 844 307.0 754.5Q275 665 275 551V529Q275 415 307.0 325.5Q339 236 403.5 184.5Q468 133 563 133Z"/></g>
    <g transform="translate(2293, 0)"><path d="M49 0V126L212 154V1405L49 1433V1560H409V938Q465 1016 546.0 1059.0Q627 1102 726 1102Q900 1102 996.0 998.0Q1092 894 1092 678V154L1255 126V0H732V126L895 154V680Q895 814 837.5 878.0Q780 942 666 942Q585 942 518.5 903.5Q452 865 409 799V154L572 126V0Z"/></g>
    <g transform="translate(3608, 0)"><path d="M74 0V126L237 154V927L74 955V1082H413L427 921Q481 1007 562.5 1054.5Q644 1102 748 1102Q923 1102 1019.0 999.5Q1115 897 1115 683V154L1278 126V0H755V126L918 154V679Q918 822 861.5 882.0Q805 942 689 942Q604 942 538.5 901.0Q473 860 434 789V154L597 126V0Z"/></g>
    <g transform="translate(5463.0, 0)"><path d="M83 0V126L246 154V1301L83 1329V1456H246H445L1159 321L1165 323V1301L986 1329V1456H1346H1509V1329L1346 1301V0H1166L433 1141L427 1139V154L606 126V0Z"/></g>
    <g transform="translate(7055.0, 0)"><path d="M567 -21Q417 -21 306.0 47.5Q195 116 134.5 238.0Q74 360 74 520V564Q74 718 137.5 839.5Q201 961 306.5 1031.5Q412 1102 537 1102Q683 1102 781.5 1042.0Q880 982 930.0 873.5Q980 765 980 618V495H278L275 490Q277 386 311.5 305.5Q346 225 411.0 179.0Q476 133 567 133Q667 133 742.5 161.5Q818 190 873 240L950 112Q892 56 796.5 17.5Q701 -21 567 -21ZM284 649H783V675Q783 753 755.5 814.5Q728 876 673.5 911.5Q619 947 537 947Q471 947 417.0 908.5Q363 870 328.0 804.0Q293 738 282 654Z"/></g>
    <g transform="translate(8114.0, 0)"><path d="M458 0 173 941 52 955V1082H499V955L366 933L515 394L549 266H555L599 394L834 1082H1000L1224 396L1272 244H1278L1325 396L1476 934L1340 955V1082H1777V955L1657 938L1377 0H1190L971 650L919 824L913 823L862 650L627 0Z"/></g>
    <g transform="translate(9937.0, 0)"><path d="M512 -21Q403 -21 308.0 1.0Q213 23 106 69L104 326H253L290 171Q346 148 398.5 137.5Q451 127 512 127Q632 127 684.0 173.0Q736 219 736 287Q736 351 683.5 395.5Q631 440 493 471Q297 516 204.5 591.5Q112 667 112 793Q112 881 163.0 950.5Q214 1020 305.0 1061.0Q396 1102 517 1102Q640 1102 727.5 1074.0Q815 1046 880 999L890 752H742L710 896Q675 922 627.0 936.0Q579 950 517 950Q425 950 367.5 907.0Q310 864 310 799Q310 761 326.5 733.0Q343 705 390.0 682.5Q437 660 528 638Q754 585 843.5 503.0Q933 421 933 301Q933 164 831.5 71.5Q730 -21 512 -21Z"/></g>
    <g transform="translate(10959.0, 0)"><path d="M563 -21Q413 -21 304.5 49.5Q196 120 137.0 244.5Q78 369 78 529V551Q78 711 137.0 835.5Q196 960 304.5 1031.0Q413 1102 561 1102Q711 1102 819.5 1031.0Q928 960 987.0 836.0Q1046 712 1046 551V529Q1046 368 987.0 243.5Q928 119 820.0 49.0Q712 -21 563 -21ZM563 133Q657 133 720.5 184.5Q784 236 816.5 325.5Q849 415 849 529V551Q849 665 816.5 754.5Q784 844 720.0 895.5Q656 947 561 947Q467 947 403.0 895.5Q339 844 307.0 754.5Q275 665 275 551V529Q275 415 307.0 325.5Q339 236 403.5 184.5Q468 133 563 133Z"/></g>
    <g transform="translate(12083.0, 0)"><path d="M74 0V126L237 154V927L74 955V1082H414L427 941Q479 1018 561.0 1060.0Q643 1102 751 1102Q859 1102 936.5 1052.0Q1014 1002 1053 902Q1104 994 1188.0 1048.0Q1272 1102 1384 1102Q1550 1102 1646.0 988.5Q1742 875 1742 647V154L1905 126V0H1381V126L1544 154V649Q1544 809 1489.0 875.5Q1434 942 1326 942Q1223 942 1160.5 869.5Q1098 797 1088 687V154L1251 126V0H728V126L891 154V649Q891 801 834.5 871.5Q778 942 671 942Q581 942 523.0 905.0Q465 868 434 801V154L597 126V0Z"/></g>
  </g>
</svg>