<?xml version="1.0" encoding="UTF-8"?>
<svg xmlns="http://www.w3.org/2000/svg" viewBox="0 0 151.9 18" 
     width="151.9" height="18">
  <g transform="translate(0, 15.299999999999999) scale(0.017578, -0.017578)" fill="#000000">
    <g transform="translate(0, 0)"><path d="M93 87Q64 109 45.5 142.0Q27 175 16.5 212.0Q6 249 2.5 288.5Q-1 328 0 364Q9 391 22.0 413.5Q35 436 51.0 456.5Q67 477 84.5 495.5Q102 514 119 533Q125 533 130 530Q134 541 142.0 549.0Q150 557 159.0 563.5Q168 570 177.0 576.5Q186 583 192 592Q217 598 236.5 609.0Q256 620 274.0 633.0Q292 646 311.0 657.0Q330 668 355 674Q364 684 377.5 691.0Q391 698 404.5 704.0Q418 710 430.5 717.0Q443 724 451 736Q457 728 468.0 730.5Q479 733 488 736Q494 737 498.0 734.0Q502 731 505.5 727.5Q509 724 511.5 723.0Q514 722 517 729Q525 728 521.5 722.0Q518 716 517 714Q527 716 533.5 710.5Q540 705 554 703Q559 698 557.0 695.0Q555 692 554 685Q590 674 600.0 650.5Q610 627 602.0 601.5Q594 576 572.5 554.5Q551 533 525 526Q494 518 467.5 510.0Q441 502 416.5 492.0Q392 482 370.5 468.5Q349 455 333 437Q305 429 282.5 415.0Q260 401 240.5 384.0Q221 367 203.0 348.5Q185 330 167 312Q167 295 161.0 286.0Q155 277 148 268Q150 249 156.5 235.5Q163 222 170 208Q250 184 339.5 178.5Q429 173 517 172Q526 160 537.5 149.5Q549 139 558.5 128.0Q568 117 573.5 102.5Q579 88 576 68Q559 51 539.0 35.5Q519 20 499 5Q490 4 477.5 5.0Q465 6 451.5 6.0Q438 6 424.5 4.5Q411 3 399 -2Q336 0 270.0 13.5Q204 27 148 46Q137 59 125.0 70.5Q113 82 93 87Z"/></g>
    <g transform="translate(626, 0)"><path d="M583 300Q582 288 585.0 277.0Q588 266 592.5 255.5Q597 245 601.0 234.0Q605 223 607 212Q609 198 607.0 181.5Q605 165 600.0 149.5Q595 134 587.0 121.5Q579 109 568 103Q554 85 534.0 75.0Q514 65 497 51Q486 44 472.5 41.0Q459 38 445 35Q434 29 419.0 22.5Q404 16 388.0 10.5Q372 5 356.0 2.5Q340 0 328 1Q298 -10 269.5 -13.5Q241 -17 203 -9Q167 -14 136.5 -6.0Q106 2 82.5 19.5Q59 37 41.5 61.5Q24 86 13 113Q5 170 17.0 216.5Q29 263 51.5 302.5Q74 342 103.0 375.5Q132 409 159 441Q165 439 168.5 441.5Q172 444 175.0 448.5Q178 453 181.5 457.0Q185 461 190 462Q197 477 210.5 484.5Q224 492 232 506Q241 508 247.0 512.0Q253 516 258.5 521.0Q264 526 270.0 530.5Q276 535 284 537V548Q302 556 310.5 566.5Q319 577 331 592Q340 593 345.5 593.0Q351 593 362 595Q370 609 376.5 616.0Q383 623 396 631Q408 625 422.5 623.0Q437 621 448 610Q449 600 454.0 594.5Q459 589 465.0 584.5Q471 580 476.5 575.0Q482 570 484 561Q488 560 489.5 562.0Q491 564 495 563Q498 549 502.0 544.5Q506 540 510 527Q505 517 502.5 506.5Q500 496 490 491Q489 484 494.0 483.5Q499 483 500 478Q501 469 497 465Q521 426 540.0 382.5Q559 339 583 300ZM458 205Q462 216 468.5 223.0Q475 230 476 244Q471 252 470.0 256.5Q469 261 469 271Q447 302 431.0 337.5Q415 373 395 404Q393 400 388.0 396.0Q383 392 377 398Q375 390 370.0 386.5Q365 383 359.0 383.5Q353 384 346.5 386.5Q340 389 335 393Q306 370 277.0 348.0Q248 326 225 297Q221 295 220.0 295.5Q219 296 214 294Q206 275 194.5 259.5Q183 244 172.0 228.0Q161 212 153.0 194.0Q145 176 144 152Q161 138 184.0 135.0Q207 132 231.5 134.0Q256 136 279.5 140.5Q303 145 323 145Q365 155 395.0 171.5Q425 188 458 205Z"/></g>
    <g transform="translate(1270, 0)"><path d="M692 18Q682 13 673.5 9.0Q665 5 654 5Q615 34 613.5 106.0Q612 178 644 289Q649 292 649 301L640 311Q636 311 632.5 310.0Q629 309 627 303Q601 284 570.0 263.5Q539 243 505.5 225.5Q472 208 437.5 197.0Q403 186 370 186Q286 186 244 271L236 286L228 273Q225 269 219.0 256.5Q213 244 207.0 228.0Q201 212 196.5 195.5Q192 179 193 167Q184 158 174.0 146.0Q164 134 159 119Q157 111 161 104Q159 95 152 90Q148 85 143.5 80.5Q139 76 136 71Q134 66 133.5 61.0Q133 56 132 51Q132 44 130 38Q113 3 103.0 -7.5Q93 -18 76 -18Q68 -18 50 -15Q37 -1 26.5 23.5Q16 48 10.5 76.0Q5 104 5.5 132.5Q6 161 15 182Q15 183 23.0 202.0Q31 221 43.5 251.0Q56 281 72.0 317.5Q88 354 104.0 388.5Q120 423 134.5 452.0Q149 481 159 496Q167 508 173.5 518.5Q180 529 186 539Q204 570 220.5 590.5Q237 611 269 623Q291 614 301 602L303 591Q307 581 315 581Q326 578 333.5 575.5Q341 573 350 571Q357 563 363 552Q371 540 378.5 528.5Q386 517 390.5 505.5Q395 494 395.5 482.0Q396 470 391 457L392 447Q397 438 394 422Q393 415 393.0 407.5Q393 400 395 391Q413 377 427 377Q443 377 456.5 384.5Q470 392 482 400Q490 406 498.0 410.5Q506 415 514 416Q532 433 546.5 446.0Q561 459 577 472Q607 496 635.0 524.0Q663 552 680 594Q690 600 701 600Q712 600 724.0 595.0Q736 590 747 585Q750 583 752.5 582.0Q755 581 757 580Q757 570 765 563Q769 560 770.0 559.0Q771 558 773 557Q788 549 792 541Q799 518 817 506Q815 496 817.5 487.5Q820 479 824 470Q825 467 826.0 464.0Q827 461 829 457L810 459L813 440Q815 426 810.5 409.0Q806 392 800 382Q801 356 801.5 341.5Q802 327 800.0 314.5Q798 302 794.5 291.0Q791 280 785 267Q789 203 770.5 150.5Q752 98 732 52Q730 47 727.5 42.0Q725 37 723 32Q714 29 707.0 25.5Q700 22 692 18Z"/></g>
    <g transform="translate(2104, 0)"><path d="M692 18Q682 13 673.5 9.0Q665 5 654 5Q615 34 613.5 106.0Q612 178 644 289Q649 292 649 301L640 311Q636 311 632.5 310.0Q629 309 627 303Q601 284 570.0 263.5Q539 243 505.5 225.5Q472 208 437.5 197.0Q403 186 370 186Q286 186 244 271L236 286L228 273Q225 269 219.0 256.5Q213 244 207.0 228.0Q201 212 196.5 195.5Q192 179 193 167Q184 158 174.0 146.0Q164 134 159 119Q157 111 161 104Q159 95 152 90Q148 85 143.5 80.5Q139 76 136 71Q134 66 133.5 61.0Q133 56 132 51Q132 44 130 38Q113 3 103.0 -7.5Q93 -18 76 -18Q68 -18 50 -15Q37 -1 26.5 23.5Q16 48 10.5 76.0Q5 104 5.5 132.5Q6 161 15 182Q15 183 23.0 202.0Q31 221 43.5 251.0Q56 281 72.0 317.5Q88 354 104.0 388.5Q120 423 134.5 452.0Q149 481 159 496Q167 508 173.5 518.5Q180 529 186 539Q204 570 220.5 590.5Q237 611 269 623Q291 614 301 602L303 591Q307 581 315 581Q326 578 333.5 575.5Q341 573 350 571Q357 563 363 552Q371 540 378.5 528.5Q386 517 390.5 505.5Q395 494 395.5 482.0Q396 470 391 457L392 447Q397 438 394 422Q393 415 393.0 407.5Q393 400 395 391Q413 377 427 377Q443 377 456.5 384.5Q470 392 482 400Q490 406 498.0 410.5Q506 415 514 416Q532 433 546.5 446.0Q561 459 577 472Q607 496 635.0 524.0Q663 552 680 594Q690 600 701 600Q712 600 724.0 595.0Q736 590 747 585Q750 583 752.5 582.0Q755 581 757 580Q757 570 765 563Q769 560 770.0 559.0Q771 558 773 557Q788 549 792 541Q799 518 817 506Q815 496 817.5 487.5Q820 479 824 470Q825 467 826.0 464.0Q827 461 829 457L810 459L813 440Q815 426 810.5 409.0Q806 392 800 382Q801 356 801.5 341.5Q802 327 800.0 314.5Q798 302 794.5 291.0Q791 280 785 267Q789 203 770.5 150.5Q752 98 732 52Q730 47 727.5 42.0Q725 37 723 32Q714 29 707.0 25.5Q700 22 692 18Z"/></g>
    <g transform="translate(2938, 0)"><path d="M583 300Q582 288 585.0 277.0Q588 266 592.5 255.5Q597 245 601.0 234.0Q605 223 607 212Q609 198 607.0 181.5Q605 165 600.0 149.5Q595 134 587.0 121.5Q579 109 568 103Q554 85 534.0 75.0Q514 65 497 51Q486 44 472.5 41.0Q459 38 445 35Q434 29 419.0 22.5Q404 16 388.0 10.5Q372 5 356.0 2.5Q340 0 328 1Q298 -10 269.5 -13.5Q241 -17 203 -9Q167 -14 136.5 -6.0Q106 2 82.5 19.5Q59 37 41.5 61.5Q24 86 13 113Q5 170 17.0 216.5Q29 263 51.5 302.5Q74 342 103.0 375.5Q132 409 159 441Q165 439 168.5 441.5Q172 444 175.0 448.5Q178 453 181.5 457.0Q185 461 190 462Q197 477 210.5 484.5Q224 492 232 506Q241 508 247.0 512.0Q253 516 258.5 521.0Q264 526 270.0 530.5Q276 535 284 537V548Q302 556 310.5 566.5Q319 577 331 592Q340 593 345.5 593.0Q351 593 362 595Q370 609 376.5 616.0Q383 623 396 631Q408 625 422.5 623.0Q437 621 448 610Q449 600 454.0 594.5Q459 589 465.0 584.5Q471 580 476.5 575.0Q482 570 484 561Q488 560 489.5 562.0Q491 564 495 563Q498 549 502.0 544.5Q506 540 510 527Q505 517 502.5 506.5Q500 496 490 491Q489 484 494.0 483.5Q499 483 500 478Q501 469 497 465Q521 426 540.0 382.5Q559 339 583 300ZM458 205Q462 216 468.5 223.0Q475 230 476 244Q471 252 470.0 256.5Q469 261 469 271Q447 302 431.0 337.5Q415 373 395 404Q393 400 388.0 396.0Q383 392 377 398Q375 390 370.0 386.5Q365 383 359.0 383.5Q353 384 346.5 386.5Q340 389 335 393Q306 370 277.0 348.0Q248 326 225 297Q221 295 220.0 295.5Q219 296 214 294Q206 275 194.5 259.5Q183 244 172.0 228.0Q161 212 153.0 194.0Q145 176 144 152Q161 138 184.0 135.0Q207 132 231.5 134.0Q256 136 279.5 140.5Q303 145 323 145Q365 155 395.0 171.5Q425 188 458 205Z"/></g>
    <g transform="translate(3582, 0)"><path d="M205 182Q196 180 192.0 171.5Q188 163 184.5 154.0Q181 145 177.5 137.5Q174 130 167 130Q166 122 161.5 116.0Q157 110 153.0 103.5Q149 97 147.0 89.5Q145 82 149 72Q141 66 139.0 55.0Q137 44 134.5 34.0Q132 24 126.0 17.0Q120 10 104 11Q101 7 103.0 6.0Q105 5 106 -1Q95 1 89.5 -2.5Q84 -6 76 -7Q57 -1 44.5 14.0Q32 29 22.5 47.5Q13 66 5.5 85.0Q-2 104 -9 118Q-6 129 -8.0 139.5Q-10 150 -15 157Q34 261 92.0 379.0Q150 497 202 612Q225 603 247.5 591.5Q270 580 288.5 565.0Q307 550 320.0 530.5Q333 511 337 487Q335 481 332.5 482.5Q330 484 328 481Q332 476 332.5 474.0Q333 472 332.5 470.0Q332 468 332.0 464.5Q332 461 335 455Q331 456 329.5 454.0Q328 452 323 454Q327 443 325.5 436.0Q324 429 321.0 423.5Q318 418 316.0 411.5Q314 405 317 395Q314 395 312.5 393.5Q311 392 310.0 390.5Q309 389 307.5 387.5Q306 386 303 387Q306 365 305.0 343.0Q304 321 303.5 298.5Q303 276 304.0 251.5Q305 227 311 201Q347 222 368.5 255.0Q390 288 403.5 329.0Q417 370 424.0 417.0Q431 464 439 513Q448 522 453.0 535.0Q458 548 462.0 562.5Q466 577 470.0 591.5Q474 606 480 618Q495 616 505.5 608.5Q516 601 525.0 592.5Q534 584 544.0 576.5Q554 569 569 567Q581 550 591.0 534.0Q601 518 604 500Q599 492 596.5 482.0Q594 472 591.0 462.0Q588 452 583.0 443.5Q578 435 569 429Q566 403 561.5 381.5Q557 360 552.5 339.0Q548 318 545.0 295.5Q542 273 543 246Q535 223 526.0 197.0Q517 171 512 150Q496 137 487.0 119.0Q478 101 468 83Q464 79 463.0 81.0Q462 83 456 84Q457 80 456.0 78.0Q455 76 453.5 74.5Q452 73 451.5 70.0Q451 67 453 62Q439 56 428.0 45.0Q417 34 404.5 25.0Q392 16 374.5 13.0Q357 10 329 20Q288 50 256.5 89.0Q225 128 205 182Z"/></g>
    <g transform="translate(4539, 0)"><path d="M45 282Q46 286 49.5 285.5Q53 285 56 286Q48 294 46.0 307.5Q44 321 36 330Q38 335 39.5 340.0Q41 345 48 344Q45 366 49.0 385.0Q53 404 61.5 421.0Q70 438 81.5 454.5Q93 471 104 488Q113 490 115.0 486.5Q117 483 122 488Q138 499 144.0 512.5Q150 526 150 542Q159 568 170.5 593.5Q182 619 197.0 641.0Q212 663 229.0 679.5Q246 696 266 705Q280 717 301.5 727.0Q323 737 347.5 742.5Q372 748 398.0 748.5Q424 749 446 743Q451 741 452.0 745.5Q453 750 457 750Q507 744 546.5 730.0Q586 716 614 691Q633 661 650.0 626.5Q667 592 676.5 554.5Q686 517 685.0 477.0Q684 437 668 397Q633 353 583.0 326.5Q533 300 475.5 282.5Q418 265 356.5 254.0Q295 243 237 230Q238 203 237.0 172.5Q236 142 230.5 111.5Q225 81 214.5 52.0Q204 23 186 -2Q166 -1 144.5 -6.0Q123 -11 106 -16Q98 -11 90.5 -6.5Q83 -2 72 -1Q75 11 66.5 24.0Q58 37 49.5 49.5Q41 62 38.5 74.5Q36 87 50 97Q42 104 42 119Q46 115 52 115Q50 133 56.5 158.0Q63 183 67.5 207.5Q72 232 69.0 252.5Q66 273 45 282ZM305 516Q301 505 298.5 496.5Q296 488 293.0 481.0Q290 474 286.5 467.0Q283 460 279 451Q281 445 287.0 442.0Q293 439 295 433Q309 440 323.0 443.5Q337 447 351.0 449.0Q365 451 379.0 454.0Q393 457 408 464Q423 471 439.5 475.5Q456 480 472.0 485.0Q488 490 503.0 496.5Q518 503 529 514Q515 527 487.0 537.0Q459 547 426.5 549.5Q394 552 361.5 545.0Q329 538 305 516Z"/></g>
    <g transform="translate(5194, 0)"><path d="M212 70Q217 40 208.5 23.0Q200 6 184.5 -2.5Q169 -11 149.0 -12.0Q129 -13 111 -10Q101 4 93.0 25.0Q85 46 78.0 68.5Q71 91 65.5 113.0Q60 135 56 152Q61 164 62.5 179.5Q64 195 64.5 211.0Q65 227 65.5 243.5Q66 260 68 275Q75 317 88.5 355.0Q102 393 110 434Q112 443 108.5 451.0Q105 459 107 466Q108 470 113.0 471.5Q118 473 119 478Q122 489 120.5 496.0Q119 503 124 513Q129 521 136.5 536.5Q144 552 142 569Q151 575 159.0 583.0Q167 591 175.5 597.5Q184 604 194.5 609.0Q205 614 220 614Q228 604 230.5 592.0Q233 580 235.5 568.0Q238 556 243.0 545.5Q248 535 260 529Q260 521 260.0 509.0Q260 497 261.0 485.5Q262 474 265.5 464.5Q269 455 277 452Q259 404 243.5 357.0Q228 310 218.0 262.5Q208 215 205.5 167.0Q203 119 212 70Z"/></g>
    <g transform="translate(5522, 0)"><path d="M569 481Q544 481 515.0 477.5Q486 474 458 470Q438 467 419.5 465.0Q401 463 386 462Q379 440 372.0 423.0Q365 406 357 390Q349 373 342.5 355.5Q336 338 330 318Q320 302 313.5 288.5Q307 275 303 258Q291 243 285.0 226.5Q279 210 276 198L272 186Q266 180 265.0 176.5Q264 173 260 170Q259 159 253 148Q251 143 250.0 138.5Q249 134 249 132Q249 122 244 119Q245 114 244.0 108.5Q243 103 242 98Q239 86 240 79Q243 75 245.5 72.0Q248 69 249 64Q255 60 258 59Q262 56 270 52L279 42Q284 13 270 -4Q255 -23 219 -23H207Q202 -18 201 -15Q193 -12 188.0 -10.0Q183 -8 179 -2Q166 4 158 8L149 13Q149 24 149 25Q142 34 138.5 45.0Q135 56 133 67Q131 76 128.5 84.0Q126 92 122 98Q120 156 133.0 196.0Q146 236 160 273Q168 293 176.0 313.5Q184 334 190 356L199 366Q206 382 210.5 392.5Q215 403 220 414Q223 421 225.5 427.5Q228 434 230 439Q224 439 219.0 438.5Q214 438 209 437Q203 436 198.0 435.5Q193 435 188 435Q181 435 178 436Q167 431 154 431H144Q141 431 138.5 431.5Q136 432 134 432Q124 432 118 429Q106 429 95 429H85Q83 429 80.0 428.5Q77 428 75 428Q68 428 60.0 429.5Q52 431 43 436Q31 452 27 453L18 465Q17 471 15.0 476.5Q13 482 11 489Q7 499 3.5 510.5Q0 522 0 538Q1 546 4.0 550.0Q7 554 9 557L12 572L25 571H53Q85 571 118.0 573.5Q151 576 186 579Q206 581 226.5 583.0Q247 585 269 587Q273 596 277 604L287 609Q305 610 312.5 604.5Q320 599 325 594Q347 596 369.5 598.5Q392 601 415 605Q449 610 483.5 614.0Q518 618 550 618Q564 618 577.0 617.0Q590 616 601 614L611 607Q614 601 619.5 596.0Q625 591 631 586Q643 575 655.0 560.0Q667 545 664 516Q656 504 652 502L643 490L633 491Q627 491 622.0 489.5Q617 488 612 486Q608 484 604.0 482.5Q600 481 595 480Q586 480 580.5 480.5Q575 481 569 481Z"/></g>
    <g transform="translate(6013, 0)"><path d="M140 34Q134 0 106 -13Q93 -14 86.5 -12.0Q80 -10 73 -7Q64 -3 57 -2L46 6Q44 11 41.0 16.0Q38 21 34 26Q26 36 18 51Q12 80 16.0 99.5Q20 119 26 138Q28 144 30.0 150.5Q32 157 34 163Q8 177 -5.0 203.0Q-18 229 -20 253Q-17 272 -9.0 283.5Q-1 295 9.5 302.0Q20 309 31.5 313.0Q43 317 54 320L67 315Q76 306 85 301Q92 304 94.5 310.5Q97 317 99 325Q102 334 105.5 343.0Q109 352 114 361Q113 374 118 385Q111 390 103 391Q101 391 93 393Q81 402 76.5 408.5Q72 415 68 421Q62 434 53 442L43 449L48 459Q50 461 50.0 464.0Q50 467 46 473Q44 484 46 488L48 498Q56 509 56 510L65 519Q85 524 104.5 530.5Q124 537 144 544Q163 550 182.5 556.5Q202 563 222 568Q229 573 237.0 574.5Q245 576 252 577Q258 578 263.0 578.5Q268 579 270 582Q282 586 298 591Q323 598 364.0 606.5Q405 615 456 620L473 621Q478 620 483.0 620.5Q488 621 493 621Q538 621 550 594Q559 589 566.0 583.0Q573 577 579 571Q582 567 585.5 564.0Q589 561 591 560Q608 534 602 514Q593 501 579 499L568 493Q557 494 551.5 494.0Q546 494 540 494Q515 494 482.0 491.0Q449 488 414.5 482.5Q380 477 348.0 469.0Q316 461 292 452L274 443Q267 432 266.0 425.5Q265 419 264 413Q263 409 262.5 405.0Q262 401 261 396Q244 375 244 346Q237 334 235.0 328.5Q233 323 235 315Q254 307 271.0 309.0Q288 311 305 314Q328 318 352.5 321.0Q377 324 403 324H435L427 316L432 302Q438 299 440.5 298.0Q443 297 446 295L451 286Q455 284 458.5 279.0Q462 274 463 264L422 206L408 202Q391 203 378 198Q371 196 364.0 194.5Q357 193 349 193Q329 189 315.5 187.0Q302 185 288 183Q270 181 253.0 177.5Q236 174 221 168Q211 168 207 168Q199 168 190.5 165.5Q182 163 175 161Q170 157 168.0 152.5Q166 148 164 143Q160 129 153 120V105Q145 95 143.5 89.5Q142 84 140 79Q138 76 137.0 73.5Q136 71 136 68Q144 53 140 34Z"/></g>
    <g transform="translate(6479, 0)"><path d="M529 84Q523 67 511.5 49.5Q500 32 484.5 18.5Q469 5 450.0 -4.0Q431 -13 410 -14Q397 -11 392.5 -7.5Q388 -4 383 -1Q380 1 377.5 2.5Q375 4 373 5L361 10L365 23Q367 31 364.0 35.5Q361 40 352 48Q349 51 346.0 54.0Q343 57 341 60L324 79L351 86Q376 93 384.5 104.0Q393 115 391 141Q371 145 357.5 142.0Q344 139 330 135Q312 130 293.5 126.5Q275 123 253 123Q245 123 238.0 123.5Q231 124 223 125L213 127Q211 138 209.0 139.5Q207 141 205 143Q200 148 194.5 156.5Q189 165 192 178Q187 187 186 196Q180 184 177 171L173 161L163 159Q161 158 160.0 154.5Q159 151 159 149L154 132Q152 130 150.0 128.5Q148 127 146 125Q144 116 141.0 107.0Q138 98 135 90Q130 77 126.5 64.5Q123 52 124 40L120 29Q115 23 109.0 19.5Q103 16 97 13Q95 11 91.5 9.5Q88 8 86 7L83 -4L71 -6Q60 -8 55.5 -9.0Q51 -10 45 -10L35 -9Q24 0 18.0 5.5Q12 11 4 16Q-5 28 -6.0 34.0Q-7 40 -8 45Q-10 51 -10.5 55.0Q-11 59 -13 61L-26 73L-15 82L-14 99Q6 150 28.5 197.0Q51 244 75 293Q83 309 90.5 325.0Q98 341 106 357Q105 360 105.0 364.0Q105 368 107 373Q118 390 125.0 403.5Q132 417 139 431Q147 448 155.5 464.0Q164 480 177 497L193 504Q196 505 200.0 506.5Q204 508 209 508L224 506Q252 519 273.0 542.5Q294 566 316 599L326 613L339 605Q344 602 353.0 599.5Q362 597 372 594Q390 590 406.0 585.0Q422 580 432 570Q438 554 439.0 546.0Q440 538 442 530Q445 513 447.5 496.0Q450 479 451 458Q456 441 459.5 424.5Q463 408 466 391Q471 367 476.0 344.5Q481 322 489 302Q497 302 499 301Q504 303 509.5 304.0Q515 305 522 306L533 307L537 297Q538 292 547 287Q560 286 566.0 281.5Q572 277 577 272Q581 268 585 266L600 260L592 245Q582 227 563.5 210.5Q545 194 522 183Q523 177 523.5 171.5Q524 166 526 160Q529 143 531.0 125.0Q533 107 531 88ZM240 257Q270 259 294.5 261.5Q319 264 349 270Q342 300 334.0 332.5Q326 365 317 397L311 387Q291 366 272.5 340.0Q254 314 241 291Q235 282 229.0 273.0Q223 264 218 255Q224 256 229.5 256.0Q235 256 240 257Z"/></g>
    <g transform="translate(7074, 0)"><path d="M264 11Q236 2 203.0 -7.0Q170 -16 137 -16Q87 -16 58 9Q53 20 49 24Q46 28 43.5 32.5Q41 37 40 45Q28 59 21.0 77.5Q14 96 11.5 115.5Q9 135 10.5 155.0Q12 175 17 193Q19 197 19.5 201.0Q20 205 21 210Q25 226 29.5 241.0Q34 256 42 267Q38 276 42.0 287.0Q46 298 51 307Q65 345 74.5 371.5Q84 398 94 424Q111 469 126.0 513.0Q141 557 153 608Q161 613 165 615Q171 617 175 618Q193 609 217.0 600.5Q241 592 257 592Q265 587 267.0 584.5Q269 582 271 580Q282 567 290.0 553.5Q298 540 295 518Q289 509 286 509Q281 489 275.5 475.0Q270 461 264 447Q257 432 251.0 417.0Q245 402 241 380Q237 375 235.5 371.0Q234 367 232 362Q230 357 227.5 351.5Q225 346 220 342Q217 316 210.5 300.0Q204 284 197 268Q185 239 175.5 210.0Q166 181 164 144Q169 146 173.5 146.0Q178 146 182 146Q191 146 203 143Q233 159 268.5 162.0Q304 165 339 166Q353 166 367.0 166.0Q381 166 393 168Q402 163 404.5 162.5Q407 162 412 162Q419 162 424 161Q436 150 447.0 145.0Q458 140 470 136Q481 132 491.5 127.5Q502 123 512 115L519 72Q526 63 525 60Q525 52 521 48L523 37Q508 34 502.5 30.0Q497 26 492 21Q484 20 480.5 20.0Q477 20 474 20Q460 20 440 15Q413 24 384 24Q373 24 361.0 23.0Q349 22 337 21Q325 19 312.5 18.0Q300 17 287 17Z"/></g>
    <g transform="translate(7620, 0)"><path d="M264 11Q236 2 203.0 -7.0Q170 -16 137 -16Q87 -16 58 9Q53 20 49 24Q46 28 43.5 32.5Q41 37 40 45Q28 59 21.0 77.5Q14 96 11.5 115.5Q9 135 10.5 155.0Q12 175 17 193Q19 197 19.5 201.0Q20 205 21 210Q25 226 29.5 241.0Q34 256 42 267Q38 276 42.0 287.0Q46 298 51 307Q65 345 74.5 371.5Q84 398 94 424Q111 469 126.0 513.0Q141 557 153 608Q161 613 165 615Q171 617 175 618Q193 609 217.0 600.5Q241 592 257 592Q265 587 267.0 584.5Q269 582 271 580Q282 567 290.0 553.5Q298 540 295 518Q289 509 286 509Q281 489 275.5 475.0Q270 461 264 447Q257 432 251.0 417.0Q245 402 241 380Q237 375 235.5 371.0Q234 367 232 362Q230 357 227.5 351.5Q225 346 220 342Q217 316 210.5 300.0Q204 284 197 268Q185 239 175.5 210.0Q166 181 164 144Q169 146 173.5 146.0Q178 146 182 146Q191 146 203 143Q233 159 268.5 162.0Q304 165 339 166Q353 166 367.0 166.0Q381 166 393 168Q402 163 404.5 162.5Q407 162 412 162Q419 162 424 161Q436 150 447.0 145.0Q458 140 470 136Q481 132 491.5 127.5Q502 123 512 115L519 72Q526 63 525 60Q525 52 521 48L523 37Q508 34 502.5 30.0Q497 26 492 21Q484 20 480.5 20.0Q477 20 474 20Q460 20 440 15Q413 24 384 24Q373 24 361.0 23.0Q349 22 337 21Q325 19 312.5 18.0Q300 17 287 17Z"/></g>
    <g transform="translate(8166, 0)"><path d="M16 450Q23 471 38.5 486.0Q54 501 72.5 511.5Q91 522 111.0 529.0Q131 536 149 541Q189 558 234.5 573.5Q280 589 327.5 601.0Q375 613 425.0 616.5Q475 620 530 604Q533 594 539.0 585.0Q545 576 551.5 567.0Q558 558 563.0 549.5Q568 541 569 532Q579 523 585.0 512.5Q591 502 587 485Q577 477 567.5 470.5Q558 464 547 459Q510 468 472.0 465.0Q434 462 404 460Q395 469 382.5 469.0Q370 469 356.5 465.0Q343 461 329.5 457.0Q316 453 304 455Q294 447 279.5 444.5Q265 442 248 440Q247 435 250.0 433.5Q253 432 251 427Q257 420 266.5 417.0Q276 414 286.5 411.0Q297 408 305.0 403.5Q313 399 316 389Q331 389 342.0 382.0Q353 375 360.0 365.0Q367 355 370.5 343.5Q374 332 374 323Q377 315 381.0 316.0Q385 317 390 312Q393 299 405.0 285.5Q417 272 424 256Q426 231 427.0 211.5Q428 192 420 172Q405 135 378.5 106.0Q352 77 318.5 54.5Q285 32 247.0 16.0Q209 0 173 -11Q169 -10 165.0 -11.0Q161 -12 163 -6Q155 -13 145.5 -15.0Q136 -17 125.0 -16.5Q114 -16 102.5 -15.0Q91 -14 81 -16Q74 -9 68.5 -2.5Q63 4 60 14Q55 14 55.5 19.0Q56 24 52 24Q58 34 57.5 35.5Q57 37 54.5 38.0Q52 39 50.0 40.5Q48 42 49 45Q53 53 52.0 63.5Q51 74 50.0 85.0Q49 96 51.5 106.0Q54 116 66 122Q100 118 130.5 124.5Q161 131 188.0 143.0Q215 155 239.5 169.0Q264 183 288 194Q291 203 296.5 209.0Q302 215 308.0 220.0Q314 225 319.0 231.0Q324 237 326 246Q327 253 322.5 254.5Q318 256 318 262L307 265Q288 276 264.0 283.5Q240 291 223 300Q212 294 202.5 297.0Q193 300 178 303Q144 305 112.5 310.0Q81 315 52 328Q50 333 47.0 337.0Q44 341 36 339Q30 347 24.0 354.5Q18 362 13 371Q15 383 16.0 391.5Q17 400 10 408Q14 421 16.0 429.0Q18 437 16 450Z"/></g>
  </g>
</svg>