<?xml version="1.0" encoding="UTF-8"?>
<svg xmlns="http://www.w3.org/2000/svg" viewBox="0 0 143.3 18" 
     width="143.3" height="18">
  <g transform="translate(0, 15.299999999999999) scale(0.017578, -0.017578)" fill="#000000">
    <g transform="translate(0, 0)"><path d="M56 34Q48 42 44.5 53.0Q41 64 28 71Q26 86 22.5 105.5Q19 125 15.5 145.5Q12 166 10.5 186.5Q9 207 12 224Q14 233 18.5 241.0Q23 249 27.5 256.5Q32 264 34.5 272.0Q37 280 35 288Q41 289 42.5 294.5Q44 300 52 298Q59 320 67.0 339.0Q75 358 84.0 376.0Q93 394 102.5 412.5Q112 431 120 454Q103 470 95.5 488.5Q88 507 84.0 526.0Q80 545 78.0 564.5Q76 584 70 604Q82 622 99.0 633.5Q116 645 136.5 652.5Q157 660 181.0 664.5Q205 669 232 675Q280 690 318.0 698.5Q356 707 392.0 712.5Q428 718 467.0 722.5Q506 727 557 736Q558 733 560.5 733.0Q563 733 567 733Q570 726 578 726Q578 729 577.5 731.5Q577 734 577 736Q579 736 582.5 735.0Q586 734 588.5 733.0Q591 732 593.0 733.5Q595 735 594 740Q606 719 625.0 705.5Q644 692 667 682Q668 673 667.5 669.0Q667 665 666.0 661.5Q665 658 665.0 653.5Q665 649 667 641Q651 614 630.5 599.0Q610 584 587.0 576.0Q564 568 538.5 564.0Q513 560 486.5 555.5Q460 551 433.0 543.0Q406 535 380 519Q372 522 365.5 521.5Q359 521 352.0 519.0Q345 517 336.5 515.0Q328 513 316 515Q308 508 297.5 505.0Q287 502 276 499Q281 488 280.5 477.0Q280 466 283 458Q325 454 376.0 458.5Q427 463 476 465Q477 460 475.0 458.0Q473 456 473 451Q482 445 490.0 436.0Q498 427 506.5 418.5Q515 410 524.0 404.5Q533 399 545 400Q550 390 552.0 379.0Q554 368 549 356Q529 343 510.0 329.5Q491 316 470.5 305.0Q450 294 426.0 287.0Q402 280 374 281Q369 281 365.5 281.0Q362 281 357 285Q347 280 330.5 281.5Q314 283 303 278Q289 283 270.5 283.0Q252 283 238 288Q220 262 204.0 233.5Q188 205 176 173Q217 167 244.0 168.0Q271 169 295.0 172.0Q319 175 344.5 178.0Q370 181 407 180Q432 192 464.5 196.5Q497 201 525 210Q535 207 542.0 198.5Q549 190 555.5 181.5Q562 173 569.0 167.0Q576 161 587 163Q592 158 593.5 151.0Q595 144 596.5 138.0Q598 132 601.0 128.5Q604 125 612 126Q593 87 569.5 66.0Q546 45 516.5 33.5Q487 22 450.5 16.5Q414 11 369 3Q358 1 350.5 3.5Q343 6 335 6Q307 1 268.5 -4.0Q230 -9 191.0 -8.0Q152 -7 116.0 2.0Q80 11 56 34Z"/></g>
    <g transform="translate(642, 0)"><path d="M347 26Q332 76 303.5 122.0Q275 168 249 201Q208 170 171.5 132.5Q135 95 105 52Q103 31 100.0 17.5Q97 4 89.5 -5.0Q82 -14 70.5 -20.5Q59 -27 41 -34Q8 -10 -7.0 25.5Q-22 61 -11 96Q-10 121 1.5 145.0Q13 169 29.5 190.5Q46 212 65.0 231.5Q84 251 101 268Q104 278 112.5 285.5Q121 293 130.5 300.0Q140 307 149.5 315.0Q159 323 165 334Q158 357 138.0 380.5Q118 404 101 429Q99 434 93.5 432.0Q88 430 86 433Q88 446 80.5 461.0Q73 476 62 487Q65 498 69.0 513.5Q73 529 67 548Q67 556 70.0 563.5Q73 571 76.0 577.5Q79 584 81.0 590.5Q83 597 80 603Q93 605 103.0 602.0Q113 599 122.0 595.0Q131 591 138.5 589.0Q146 587 154 590Q153 585 154.0 583.0Q155 581 157.0 580.0Q159 579 161.0 577.5Q163 576 163 573Q179 568 198.0 551.5Q217 535 234.5 515.0Q252 495 266.0 475.0Q280 455 287 445Q311 460 339.0 480.5Q367 501 397.0 523.0Q427 545 457.5 564.5Q488 584 517 596Q534 588 543.5 576.5Q553 565 559.5 552.5Q566 540 571.0 526.5Q576 513 585 503Q577 486 567.5 474.5Q558 463 554 448Q533 439 504 421Q478 405 440.5 378.0Q403 351 350 306Q362 292 370.0 279.0Q378 266 383 257Q388 246 392 237Q401 230 407.0 221.0Q413 212 418.5 202.5Q424 193 431.0 184.5Q438 176 449 171Q455 141 466.0 117.5Q477 94 476 69Q469 46 455.5 31.0Q442 16 436 0Q427 -3 418.0 -6.0Q409 -9 404 -15Z"/></g>
    <g transform="translate(1161, 0)"><path d="M377 620Q419 615 452.0 603.0Q485 591 508 571Q524 546 538.5 517.0Q553 488 560.5 456.5Q568 425 567.5 392.0Q567 359 553 325Q524 289 482.5 266.5Q441 244 393.0 230.0Q345 216 293.5 206.0Q242 196 193 186Q194 163 193.5 137.5Q193 112 188.5 86.5Q184 61 175.0 37.0Q166 13 151 -7Q134 -7 116.0 -11.5Q98 -16 84 -19Q77 -15 71.5 -11.5Q66 -8 56 -7Q58 3 51.0 13.5Q44 24 37.0 35.0Q30 46 27.5 56.0Q25 66 37 75Q30 82 30 93Q37 105 42.5 126.0Q48 147 51.5 167.5Q55 188 53.0 205.0Q51 222 33 230Q34 232 37.0 232.0Q40 232 43 233Q35 239 33.5 250.0Q32 261 26 269Q28 274 29.0 278.0Q30 282 36 281Q33 299 36.5 315.0Q40 331 47.0 345.5Q54 360 64.0 374.0Q74 388 83 402Q90 403 91.5 400.0Q93 397 98 401Q111 411 116.0 422.0Q121 433 121 447Q128 468 138.0 489.5Q148 511 160.0 529.0Q172 547 186.5 561.0Q201 575 217 582Q229 592 247.0 600.5Q265 609 286.0 613.5Q307 618 328.5 618.5Q350 619 368 614Q373 612 373.5 616.0Q374 620 377 620ZM336 381Q361 392 389.5 398.5Q418 405 437 423Q425 434 402.0 442.5Q379 451 352.0 453.0Q325 455 297.5 448.5Q270 442 250 424Q244 406 240.0 395.5Q236 385 229 370Q231 365 235.5 362.5Q240 360 242 355Q265 367 288.5 368.5Q312 370 336 381Z"/></g>
    <g transform="translate(1698, 0)"><path d="M558 563Q559 556 558.5 552.5Q558 549 557.5 546.0Q557 543 557.0 539.5Q557 536 559 529Q538 495 510.5 482.5Q483 470 451.0 464.5Q419 459 385.5 453.0Q352 447 319 427Q306 432 295.5 427.0Q285 422 265 424Q259 418 250.0 415.5Q241 413 232 410Q236 401 235.5 391.5Q235 382 238 376Q273 373 315.5 377.0Q358 381 399 382Q400 377 398.0 375.5Q396 374 397 370Q404 365 411.0 357.5Q418 350 425.0 343.0Q432 336 439.5 331.5Q447 327 457 328Q461 320 462.5 310.5Q464 301 460 291Q444 280 428.0 268.5Q412 257 394.5 248.0Q377 239 357.5 233.5Q338 228 314 229Q309 229 306.5 229.0Q304 229 300 232Q292 227 277.5 229.0Q263 231 255 226Q244 231 228.5 230.5Q213 230 201 234Q185 213 172.0 189.0Q159 165 149 138Q183 133 205.5 134.0Q228 135 248.0 137.5Q268 140 289.0 142.5Q310 145 342 144Q362 155 389.5 158.5Q417 162 440 170Q448 167 454.0 159.5Q460 152 465.5 145.5Q471 139 477.0 134.0Q483 129 492 130Q496 126 497.5 120.5Q499 115 500.0 110.0Q501 105 503.5 101.5Q506 98 512 99Q497 66 477.5 48.5Q458 31 433.0 22.0Q408 13 377.5 8.0Q347 3 310 -4Q301 -6 295.0 -3.5Q289 -1 281 -1Q258 -6 226.0 -10.0Q194 -14 161.0 -13.0Q128 -12 98.0 -4.5Q68 3 49 22Q41 29 38.5 38.5Q36 48 25 53Q24 66 21.0 82.0Q18 98 15.0 115.5Q12 133 10.5 150.0Q9 167 12 181Q15 196 24.5 208.0Q34 220 31 234Q36 235 37.0 239.5Q38 244 45 243Q51 261 58.0 277.0Q65 293 72.5 308.0Q80 323 87.5 338.5Q95 354 102 373Q88 386 81.5 401.5Q75 417 72.0 432.5Q69 448 67.0 464.5Q65 481 60 498Q70 513 84.5 522.5Q99 532 116.0 538.0Q133 544 153.0 548.0Q173 552 195 557Q235 570 266.5 577.0Q298 584 328.5 588.5Q359 593 392.0 597.0Q425 601 467 609Q476 600 484 600Q488 609 493.5 605.5Q499 602 498 611Q508 594 523.5 582.5Q539 571 558 563Z"/></g>
    <g transform="translate(2232, 0)"><path d="M416 -2Q400 -3 376.5 -1.0Q353 1 333 -8Q280 -6 225.0 5.0Q170 16 124 32Q114 43 104.0 52.5Q94 62 77 66Q53 85 38.0 112.5Q23 140 14.0 171.0Q5 202 2.0 234.5Q-1 267 0 297Q15 342 42.5 374.5Q70 407 99 439Q112 445 118.5 451.5Q125 458 132.5 463.5Q140 469 147.5 474.5Q155 480 161 488Q182 493 197.5 502.5Q213 512 228.0 522.5Q243 533 259.0 542.0Q275 551 296 556Q304 565 315.0 570.5Q326 576 337.5 581.5Q349 587 359.5 593.0Q370 599 376 609Q381 601 390.0 603.5Q399 606 407 609Q412 610 415.5 607.0Q419 604 422.0 601.0Q425 598 427.5 597.5Q430 597 432 602Q437 602 435.0 597.0Q433 592 432 590Q440 591 445.5 586.5Q451 582 463 581Q467 576 465.0 573.5Q463 571 463 565Q493 556 501.0 536.5Q509 517 502.0 496.0Q495 475 477.0 457.0Q459 439 438 433Q390 420 347.5 404.5Q305 389 278 359Q254 352 235.5 340.5Q217 329 200.5 314.5Q184 300 169.5 284.5Q155 269 139 254Q140 240 134.5 232.5Q129 225 124 217Q126 202 131.0 190.5Q136 179 142 168Q208 148 282.5 143.0Q357 138 432 137Q439 127 448.5 118.5Q458 110 466.0 100.5Q474 91 479.0 79.5Q484 68 481 51Q467 36 450.0 23.5Q433 11 416 -2Z"/></g>
    <g transform="translate(2758, 0)"><path d="M569 481Q544 481 515.0 477.5Q486 474 458 470Q438 467 419.5 465.0Q401 463 386 462Q379 440 372.0 423.0Q365 406 357 390Q349 373 342.5 355.5Q336 338 330 318Q320 302 313.5 288.5Q307 275 303 258Q291 243 285.0 226.5Q279 210 276 198L272 186Q266 180 265.0 176.5Q264 173 260 170Q259 159 253 148Q251 143 250.0 138.5Q249 134 249 132Q249 122 244 119Q245 114 244.0 108.5Q243 103 242 98Q239 86 240 79Q243 75 245.5 72.0Q248 69 249 64Q255 60 258 59Q262 56 270 52L279 42Q284 13 270 -4Q255 -23 219 -23H207Q202 -18 201 -15Q193 -12 188.0 -10.0Q183 -8 179 -2Q166 4 158 8L149 13Q149 24 149 25Q142 34 138.5 45.0Q135 56 133 67Q131 76 128.5 84.0Q126 92 122 98Q120 156 133.0 196.0Q146 236 160 273Q168 293 176.0 313.5Q184 334 190 356L199 366Q206 382 210.5 392.5Q215 403 220 414Q223 421 225.5 427.5Q228 434 230 439Q224 439 219.0 438.5Q214 438 209 437Q203 436 198.0 435.5Q193 435 188 435Q181 435 178 436Q167 431 154 431H144Q141 431 138.5 431.5Q136 432 134 432Q124 432 118 429Q106 429 95 429H85Q83 429 80.0 428.5Q77 428 75 428Q68 428 60.0 429.5Q52 431 43 436Q31 452 27 453L18 465Q17 471 15.0 476.5Q13 482 11 489Q7 499 3.5 510.5Q0 522 0 538Q1 546 4.0 550.0Q7 554 9 557L12 572L25 571H53Q85 571 118.0 573.5Q151 576 186 579Q206 581 226.5 583.0Q247 585 269 587Q273 596 277 604L287 609Q305 610 312.5 604.5Q320 599 325 594Q347 596 369.5 598.5Q392 601 415 605Q449 610 483.5 614.0Q518 618 550 618Q564 618 577.0 617.0Q590 616 601 614L611 607Q614 601 619.5 596.0Q625 591 631 586Q643 575 655.0 560.0Q667 545 664 516Q656 504 652 502L643 490L633 491Q627 491 622.0 489.5Q617 488 612 486Q608 484 604.0 482.5Q600 481 595 480Q586 480 580.5 480.5Q575 481 569 481Z"/></g>
    <g transform="translate(3249, 0)"><path d="M558 563Q559 556 558.5 552.5Q558 549 557.5 546.0Q557 543 557.0 539.5Q557 536 559 529Q538 495 510.5 482.5Q483 470 451.0 464.5Q419 459 385.5 453.0Q352 447 319 427Q306 432 295.5 427.0Q285 422 265 424Q259 418 250.0 415.5Q241 413 232 410Q236 401 235.5 391.5Q235 382 238 376Q273 373 315.5 377.0Q358 381 399 382Q400 377 398.0 375.5Q396 374 397 370Q404 365 411.0 357.5Q418 350 425.0 343.0Q432 336 439.5 331.5Q447 327 457 328Q461 320 462.5 310.5Q464 301 460 291Q444 280 428.0 268.5Q412 257 394.5 248.0Q377 239 357.5 233.5Q338 228 314 229Q309 229 306.5 229.0Q304 229 300 232Q292 227 277.5 229.0Q263 231 255 226Q244 231 228.5 230.5Q213 230 201 234Q185 213 172.0 189.0Q159 165 149 138Q183 133 205.5 134.0Q228 135 248.0 137.5Q268 140 289.0 142.5Q310 145 342 144Q362 155 389.5 158.5Q417 162 440 170Q448 167 454.0 159.5Q460 152 465.5 145.5Q471 139 477.0 134.0Q483 129 492 130Q496 126 497.5 120.5Q499 115 500.0 110.0Q501 105 503.5 101.5Q506 98 512 99Q497 66 477.5 48.5Q458 31 433.0 22.0Q408 13 377.5 8.0Q347 3 310 -4Q301 -6 295.0 -3.5Q289 -1 281 -1Q258 -6 226.0 -10.0Q194 -14 161.0 -13.0Q128 -12 98.0 -4.5Q68 3 49 22Q41 29 38.5 38.5Q36 48 25 53Q24 66 21.0 82.0Q18 98 15.0 115.5Q12 133 10.5 150.0Q9 167 12 181Q15 196 24.5 208.0Q34 220 31 234Q36 235 37.0 239.5Q38 244 45 243Q51 261 58.0 277.0Q65 293 72.5 308.0Q80 323 87.5 338.5Q95 354 102 373Q88 386 81.5 401.5Q75 417 72.0 432.5Q69 448 67.0 464.5Q65 481 60 498Q70 513 84.5 522.5Q99 532 116.0 538.0Q133 544 153.0 548.0Q173 552 195 557Q235 570 266.5 577.0Q298 584 328.5 588.5Q359 593 392.0 597.0Q425 601 467 609Q476 600 484 600Q488 609 493.5 605.5Q499 602 498 611Q508 594 523.5 582.5Q539 571 558 563Z"/></g>
    <g transform="translate(3783, 0)"><path d="M493 270Q492 265 491.0 261.5Q490 258 489.0 255.0Q488 252 488.0 247.5Q488 243 488 236Q458 183 412.5 147.0Q367 111 312.5 83.5Q258 56 199.0 33.5Q140 11 84 -15Q60 -9 47.5 5.0Q35 19 28.5 37.5Q22 56 19.5 78.5Q17 101 15 125Q18 136 23.5 143.5Q29 151 29 165Q37 191 45.0 216.0Q53 241 55 267Q58 275 66 278Q71 326 66.5 375.5Q62 425 50 468Q51 478 52.5 482.5Q54 487 52 489Q51 497 57.5 497.0Q64 497 71 497Q71 512 65.5 527.0Q60 542 55 561Q62 576 64.0 590.5Q66 605 73 616Q127 599 176.5 575.0Q226 551 274 540Q310 514 348.0 488.5Q386 463 417.0 432.5Q448 402 469.0 363.0Q490 324 493 270ZM256 215Q277 223 297.5 232.0Q318 241 335.5 252.5Q353 264 367.0 279.0Q381 294 390 315Q384 327 374.0 336.5Q364 346 354.0 354.5Q344 363 334.5 372.0Q325 381 319 394Q306 396 296.0 401.5Q286 407 276.5 412.5Q267 418 256.5 423.0Q246 428 232 429Q210 440 192.5 445.0Q175 450 166 458Q159 458 155 455Q165 417 170.0 383.5Q175 350 175.5 316.5Q176 283 172.0 248.0Q168 213 161 172Q171 173 179.5 176.5Q188 180 196.5 184.0Q205 188 214.5 191.5Q224 195 237 196Q240 202 245.5 206.0Q251 210 256 215Z"/></g>
    <g transform="translate(4671, 0)"><path d="M241 -4Q197 -10 161.0 0.0Q125 10 96.5 31.0Q68 52 47.5 81.0Q27 110 14 143Q5 211 19.0 266.5Q33 322 60.0 369.0Q87 416 121.5 457.0Q156 498 188 536Q195 533 199.5 536.0Q204 539 207.5 544.0Q211 549 215.5 554.0Q220 559 226 561Q230 570 236.5 576.0Q243 582 250.5 587.5Q258 593 264.5 599.0Q271 605 276 614Q286 616 293.5 621.0Q301 626 307.5 632.0Q314 638 321.0 643.0Q328 648 338 651V664Q360 674 370.0 686.0Q380 698 394 717Q405 718 411.5 718.0Q418 718 432 720Q441 737 449.0 745.0Q457 753 472 763Q487 755 504.0 753.5Q521 752 535 738Q536 726 542.0 719.5Q548 713 555.0 707.5Q562 702 569.0 696.0Q576 690 578 679Q583 679 584.5 681.0Q586 683 591 682Q593 674 595.0 669.0Q597 664 599.5 660.0Q602 656 604.5 651.0Q607 646 609 639Q604 627 600.0 613.5Q596 600 584 595Q584 587 590.0 586.5Q596 586 597 579Q598 570 594 564Q622 517 645.0 465.5Q668 414 697 367Q695 353 698.5 339.5Q702 326 707.5 313.0Q713 300 718.0 287.0Q723 274 725 261Q727 244 725.0 224.5Q723 205 717.0 187.0Q711 169 701.0 153.5Q691 138 678 130Q662 110 638.0 97.5Q614 85 594 68Q580 60 564.0 56.5Q548 53 531 49Q518 41 500.0 33.5Q482 26 463.0 20.0Q444 14 425.0 10.5Q406 7 391 9Q355 -4 321.0 -9.0Q287 -14 241 -4ZM254 360Q244 337 230.5 318.5Q217 300 204.0 281.0Q191 262 181.5 240.5Q172 219 171 190Q191 173 218.5 169.5Q246 166 275.0 168.5Q304 171 333.0 176.0Q362 181 385 181Q385 190 393 190Q435 194 471.0 213.5Q507 233 546 253Q551 265 559.0 274.0Q567 283 568 300Q563 309 561.5 315.0Q560 321 560 333Q534 369 515.0 411.5Q496 454 471 492Q469 487 463.0 482.0Q457 477 450 484Q447 474 441.0 470.5Q435 467 427.5 467.0Q420 467 412.5 470.0Q405 473 399 478Q364 450 329.5 424.0Q295 398 267 363Q262 360 261.0 361.0Q260 362 254 360Z"/></g>
    <g transform="translate(5433, 0)"><path d="M590 569Q592 547 597.0 531.0Q602 515 608 500Q613 486 617.5 472.5Q622 459 624 440Q616 414 612.5 392.0Q609 370 605 346Q589 311 574.0 284.0Q559 257 550 237Q545 232 541.5 225.5Q538 219 534 212Q532 209 529.0 203.0Q526 197 524 195L504 202L500 177L486 173L476 161Q457 128 436.0 105.5Q415 83 388.5 65.5Q362 48 328.5 33.0Q295 18 253 0Q236 2 223.5 2.5Q211 3 200 4Q181 4 153 7Q150 15 144.0 18.0Q138 21 133 21Q116 29 107.5 44.5Q99 60 91 78Q86 89 81.0 98.5Q76 108 70 118L87 123L65 147Q63 150 60.0 152.5Q57 155 55 158L54 174Q51 243 51.5 300.5Q52 358 67 403V414Q70 436 73.0 450.5Q76 465 78 478Q81 500 87 519Q101 522 108.0 530.5Q115 539 120 546Q134 547 139.0 542.0Q144 537 149 526Q154 517 161.5 506.0Q169 495 184 489Q186 481 189.5 472.5Q193 464 197 454Q205 437 211.5 418.5Q218 400 219 383Q209 364 203.5 339.0Q198 314 196.5 288.5Q195 263 197.5 239.5Q200 216 206 200L212 187L229 189Q259 197 283.5 206.5Q308 216 329.0 229.0Q350 242 369.0 259.5Q388 277 409 300Q430 323 445.5 352.5Q461 382 471.5 414.0Q482 446 487.5 477.5Q493 509 495 537Q512 543 512 561L510 572Q506 578 510 586Q516 605 538 615Q554 605 566.5 593.0Q579 581 590 569Z"/></g>
    <g transform="translate(6032, 0)"><path d="M569 481Q544 481 515.0 477.5Q486 474 458 470Q438 467 419.5 465.0Q401 463 386 462Q379 440 372.0 423.0Q365 406 357 390Q349 373 342.5 355.5Q336 338 330 318Q320 302 313.5 288.5Q307 275 303 258Q291 243 285.0 226.5Q279 210 276 198L272 186Q266 180 265.0 176.5Q264 173 260 170Q259 159 253 148Q251 143 250.0 138.5Q249 134 249 132Q249 122 244 119Q245 114 244.0 108.5Q243 103 242 98Q239 86 240 79Q243 75 245.5 72.0Q248 69 249 64Q255 60 258 59Q262 56 270 52L279 42Q284 13 270 -4Q255 -23 219 -23H207Q202 -18 201 -15Q193 -12 188.0 -10.0Q183 -8 179 -2Q166 4 158 8L149 13Q149 24 149 25Q142 34 138.5 45.0Q135 56 133 67Q131 76 128.5 84.0Q126 92 122 98Q120 156 133.0 196.0Q146 236 160 273Q168 293 176.0 313.5Q184 334 190 356L199 366Q206 382 210.5 392.5Q215 403 220 414Q223 421 225.5 427.5Q228 434 230 439Q224 439 219.0 438.5Q214 438 209 437Q203 436 198.0 435.5Q193 435 188 435Q181 435 178 436Q167 431 154 431H144Q141 431 138.5 431.5Q136 432 134 432Q124 432 118 429Q106 429 95 429H85Q83 429 80.0 428.5Q77 428 75 428Q68 428 60.0 429.5Q52 431 43 436Q31 452 27 453L18 465Q17 471 15.0 476.5Q13 482 11 489Q7 499 3.5 510.5Q0 522 0 538Q1 546 4.0 550.0Q7 554 9 557L12 572L25 571H53Q85 571 118.0 573.5Q151 576 186 579Q206 581 226.5 583.0Q247 585 269 587Q273 596 277 604L287 609Q305 610 312.5 604.5Q320 599 325 594Q347 596 369.5 598.5Q392 601 415 605Q449 610 483.5 614.0Q518 618 550 618Q564 618 577.0 617.0Q590 616 601 614L611 607Q614 601 619.5 596.0Q625 591 631 586Q643 575 655.0 560.0Q667 545 664 516Q656 504 652 502L643 490L633 491Q627 491 622.0 489.5Q617 488 612 486Q608 484 604.0 482.5Q600 481 595 480Q586 480 580.5 480.5Q575 481 569 481Z"/></g>
    <g transform="translate(6523, 0)"><path d="M377 620Q419 615 452.0 603.0Q485 591 508 571Q524 546 538.5 517.0Q553 488 560.5 456.5Q568 425 567.5 392.0Q567 359 553 325Q524 289 482.5 266.5Q441 244 393.0 230.0Q345 216 293.5 206.0Q242 196 193 186Q194 163 193.5 137.5Q193 112 188.5 86.5Q184 61 175.0 37.0Q166 13 151 -7Q134 -7 116.0 -11.5Q98 -16 84 -19Q77 -15 71.5 -11.5Q66 -8 56 -7Q58 3 51.0 13.5Q44 24 37.0 35.0Q30 46 27.5 56.0Q25 66 37 75Q30 82 30 93Q37 105 42.5 126.0Q48 147 51.5 167.5Q55 188 53.0 205.0Q51 222 33 230Q34 232 37.0 232.0Q40 232 43 233Q35 239 33.5 250.0Q32 261 26 269Q28 274 29.0 278.0Q30 282 36 281Q33 299 36.5 315.0Q40 331 47.0 345.5Q54 360 64.0 374.0Q74 388 83 402Q90 403 91.5 400.0Q93 397 98 401Q111 411 116.0 422.0Q121 433 121 447Q128 468 138.0 489.5Q148 511 160.0 529.0Q172 547 186.5 561.0Q201 575 217 582Q229 592 247.0 600.5Q265 609 286.0 613.5Q307 618 328.5 618.5Q350 619 368 614Q373 612 373.5 616.0Q374 620 377 620ZM336 381Q361 392 389.5 398.5Q418 405 437 423Q425 434 402.0 442.5Q379 451 352.0 453.0Q325 455 297.5 448.5Q270 442 250 424Q244 406 240.0 395.5Q236 385 229 370Q231 365 235.5 362.5Q240 360 242 355Q265 367 288.5 368.5Q312 370 336 381Z"/></g>
    <g transform="translate(7060, 0)"><path d="M590 569Q592 547 597.0 531.0Q602 515 608 500Q613 486 617.5 472.5Q622 459 624 440Q616 414 612.5 392.0Q609 370 605 346Q589 311 574.0 284.0Q559 257 550 237Q545 232 541.5 225.5Q538 219 534 212Q532 209 529.0 203.0Q526 197 524 195L504 202L500 177L486 173L476 161Q457 128 436.0 105.5Q415 83 388.5 65.5Q362 48 328.5 33.0Q295 18 253 0Q236 2 223.5 2.5Q211 3 200 4Q181 4 153 7Q150 15 144.0 18.0Q138 21 133 21Q116 29 107.5 44.5Q99 60 91 78Q86 89 81.0 98.5Q76 108 70 118L87 123L65 147Q63 150 60.0 152.5Q57 155 55 158L54 174Q51 243 51.5 300.5Q52 358 67 403V414Q70 436 73.0 450.5Q76 465 78 478Q81 500 87 519Q101 522 108.0 530.5Q115 539 120 546Q134 547 139.0 542.0Q144 537 149 526Q154 517 161.5 506.0Q169 495 184 489Q186 481 189.5 472.5Q193 464 197 454Q205 437 211.5 418.5Q218 400 219 383Q209 364 203.5 339.0Q198 314 196.5 288.5Q195 263 197.5 239.5Q200 216 206 200L212 187L229 189Q259 197 283.5 206.5Q308 216 329.0 229.0Q350 242 369.0 259.5Q388 277 409 300Q430 323 445.5 352.5Q461 382 471.5 414.0Q482 446 487.5 477.5Q493 509 495 537Q512 543 512 561L510 572Q506 578 510 586Q516 605 538 615Q554 605 566.5 593.0Q579 581 590 569Z"/></g>
    <g transform="translate(7659, 0)"><path d="M569 481Q544 481 515.0 477.5Q486 474 458 470Q438 467 419.5 465.0Q401 463 386 462Q379 440 372.0 423.0Q365 406 357 390Q349 373 342.5 355.5Q336 338 330 318Q320 302 313.5 288.5Q307 275 303 258Q291 243 285.0 226.5Q279 210 276 198L272 186Q266 180 265.0 176.5Q264 173 260 170Q259 159 253 148Q251 143 250.0 138.5Q249 134 249 132Q249 122 244 119Q245 114 244.0 108.5Q243 103 242 98Q239 86 240 79Q243 75 245.5 72.0Q248 69 249 64Q255 60 258 59Q262 56 270 52L279 42Q284 13 270 -4Q255 -23 219 -23H207Q202 -18 201 -15Q193 -12 188.0 -10.0Q183 -8 179 -2Q166 4 158 8L149 13Q149 24 149 25Q142 34 138.5 45.0Q135 56 133 67Q131 76 128.5 84.0Q126 92 122 98Q120 156 133.0 196.0Q146 236 160 273Q168 293 176.0 313.5Q184 334 190 356L199 366Q206 382 210.5 392.5Q215 403 220 414Q223 421 225.5 427.5Q228 434 230 439Q224 439 219.0 438.5Q214 438 209 437Q203 436 198.0 435.5Q193 435 188 435Q181 435 178 436Q167 431 154 431H144Q141 431 138.5 431.5Q136 432 134 432Q124 432 118 429Q106 429 95 429H85Q83 429 80.0 428.5Q77 428 75 428Q68 428 60.0 429.5Q52 431 43 436Q31 452 27 453L18 465Q17 471 15.0 476.5Q13 482 11 489Q7 499 3.5 510.5Q0 522 0 538Q1 546 4.0 550.0Q7 554 9 557L12 572L25 571H53Q85 571 118.0 573.5Q151 576 186 579Q206 581 226.5 583.0Q247 585 269 587Q273 596 277 604L287 609Q305 610 312.5 604.5Q320 599 325 594Q347 596 369.5 598.5Q392 601 415 605Q449 610 483.5 614.0Q518 618 550 618Q564 618 577.0 617.0Q590 616 601 614L611 607Q614 601 619.5 596.0Q625 591 631 586Q643 575 655.0 560.0Q667 545 664 516Q656 504 652 502L643 490L633 491Q627 491 622.0 489.5Q617 488 612 486Q608 484 604.0 482.5Q600 481 595 480Q586 480 580.5 480.5Q575 481 569 481Z"/></g>
  </g>
</svg>