<?xml version="1.0" encoding="UTF-8"?>
<svg xmlns="http://www.w3.org/2000/svg" viewBox="0 0 107.0 18" 
     width="107.0" height="18">
  <g transform="translate(0, 15.299999999999999) scale(0.017578, -0.017578)" fill="#000000">
    <g transform="translate(0, 0)"><path d="M44 203Q14 220 -2.0 251.0Q-18 282 -20 310Q-17 334 -7.5 347.5Q2 361 15.0 369.5Q28 378 42.0 382.5Q56 387 69 390L84 385Q89 380 94.5 376.0Q100 372 105 368Q115 372 117.5 380.0Q120 388 123 396Q126 407 130.0 418.0Q134 429 140 440Q139 449 141.0 456.0Q143 463 145 468Q139 473 136.5 473.5Q134 474 128 476Q125 476 122.0 476.5Q119 477 115 478Q100 489 95.5 496.5Q91 504 86 512Q81 520 77.0 526.0Q73 532 68 537L56 545L62 557Q64 559 64.0 562.5Q64 566 60 573Q57 586 59 592L61 604Q71 617 72 619L82 629Q105 635 129.0 642.5Q153 650 176 658Q199 666 223.0 674.0Q247 682 271 688Q279 695 288.5 696.5Q298 698 306 699Q313 699 319.0 700.0Q325 701 328 705Q345 711 361 715Q391 723 440.0 734.0Q489 745 550 750L571 751Q577 750 583.0 750.5Q589 751 595 751Q647 751 664 719Q674 714 682.0 706.5Q690 699 697 692Q702 687 706.0 683.5Q710 680 713 678L721 670Q732 646 725 623Q719 611 712.0 609.0Q705 607 698 605L685 598Q672 599 665.5 599.0Q659 599 651 599Q621 599 581.5 595.5Q542 592 501.0 585.5Q460 579 421.0 569.5Q382 560 353 549Q345 543 332 538Q329 537 323 533Q324 525 323.0 517.5Q322 510 320 503Q319 498 318.5 492.5Q318 487 317 481Q296 456 297 422L292 412Q288 408 285.5 400.5Q283 393 285 385L289 373Q309 375 328.5 377.5Q348 380 370 383Q398 388 426.5 391.5Q455 395 486 395H525L516 386L527 385L521 369Q528 366 531.5 364.5Q535 363 538 361L545 351Q550 348 554.0 341.5Q558 335 559 324L556 314L509 254L503 246L493 249Q474 250 457 245Q449 243 440.0 240.5Q431 238 422 238Q398 234 382.0 231.5Q366 229 350 227Q328 223 307.5 219.5Q287 216 269 209Q258 208 256.0 208.5Q254 209 252 209Q242 209 232.0 206.0Q222 203 213 200Q207 195 205.0 189.5Q203 184 201 178Q199 171 195.5 164.5Q192 158 187 151L188 133Q179 131 179.0 130.5Q179 130 178 130Q178 122 175.5 115.0Q173 108 171 102Q169 98 168.0 95.0Q167 92 167 89Q177 71 172 48Q168 29 157.0 14.5Q146 0 131 -8Q115 -10 107.5 -7.0Q100 -4 92 -1Q87 1 82.0 2.5Q77 4 72 5L60 15Q57 21 53.0 26.5Q49 32 45 38Q40 45 35.0 52.0Q30 59 26 68Q19 103 23.5 126.5Q28 150 36 173Q38 181 40.0 188.0Q42 195 44 203Z"/></g>
    <g transform="translate(589, 0)"><path d="M583 300Q582 288 585.0 277.0Q588 266 592.5 255.5Q597 245 601.0 234.0Q605 223 607 212Q609 198 607.0 181.5Q605 165 600.0 149.5Q595 134 587.0 121.5Q579 109 568 103Q554 85 534.0 75.0Q514 65 497 51Q486 44 472.5 41.0Q459 38 445 35Q434 29 419.0 22.5Q404 16 388.0 10.5Q372 5 356.0 2.5Q340 0 328 1Q298 -10 269.5 -13.5Q241 -17 203 -9Q167 -14 136.5 -6.0Q106 2 82.5 19.5Q59 37 41.5 61.5Q24 86 13 113Q5 170 17.0 216.5Q29 263 51.5 302.5Q74 342 103.0 375.5Q132 409 159 441Q165 439 168.5 441.5Q172 444 175.0 448.5Q178 453 181.5 457.0Q185 461 190 462Q197 477 210.5 484.5Q224 492 232 506Q241 508 247.0 512.0Q253 516 258.5 521.0Q264 526 270.0 530.5Q276 535 284 537V548Q302 556 310.5 566.5Q319 577 331 592Q340 593 345.5 593.0Q351 593 362 595Q370 609 376.5 616.0Q383 623 396 631Q408 625 422.5 623.0Q437 621 448 610Q449 600 454.0 594.5Q459 589 465.0 584.5Q471 580 476.5 575.0Q482 570 484 561Q488 560 489.5 562.0Q491 564 495 563Q498 549 502.0 544.5Q506 540 510 527Q505 517 502.5 506.5Q500 496 490 491Q489 484 494.0 483.5Q499 483 500 478Q501 469 497 465Q521 426 540.0 382.5Q559 339 583 300ZM458 205Q462 216 468.5 223.0Q475 230 476 244Q471 252 470.0 256.5Q469 261 469 271Q447 302 431.0 337.5Q415 373 395 404Q393 400 388.0 396.0Q383 392 377 398Q375 390 370.0 386.5Q365 383 359.0 383.5Q353 384 346.5 386.5Q340 389 335 393Q306 370 277.0 348.0Q248 326 225 297Q221 295 220.0 295.5Q219 296 214 294Q206 275 194.5 259.5Q183 244 172.0 228.0Q161 212 153.0 194.0Q145 176 144 152Q161 138 184.0 135.0Q207 132 231.5 134.0Q256 136 279.5 140.5Q303 145 323 145Q365 155 395.0 171.5Q425 188 458 205Z"/></g>
    <g transform="translate(1233, 0)"><path d="M416 -2Q400 -3 376.5 -1.0Q353 1 333 -8Q280 -6 225.0 5.0Q170 16 124 32Q114 43 104.0 52.5Q94 62 77 66Q53 85 38.0 112.5Q23 140 14.0 171.0Q5 202 2.0 234.5Q-1 267 0 297Q15 342 42.5 374.5Q70 407 99 439Q112 445 118.5 451.5Q125 458 132.5 463.5Q140 469 147.5 474.5Q155 480 161 488Q182 493 197.5 502.5Q213 512 228.0 522.5Q243 533 259.0 542.0Q275 551 296 556Q304 565 315.0 570.5Q326 576 337.5 581.5Q349 587 359.5 593.0Q370 599 376 609Q381 601 390.0 603.5Q399 606 407 609Q412 610 415.5 607.0Q419 604 422.0 601.0Q425 598 427.5 597.5Q430 597 432 602Q437 602 435.0 597.0Q433 592 432 590Q440 591 445.5 586.5Q451 582 463 581Q467 576 465.0 573.5Q463 571 463 565Q493 556 501.0 536.5Q509 517 502.0 496.0Q495 475 477.0 457.0Q459 439 438 433Q390 420 347.5 404.5Q305 389 278 359Q254 352 235.5 340.5Q217 329 200.5 314.5Q184 300 169.5 284.5Q155 269 139 254Q140 240 134.5 232.5Q129 225 124 217Q126 202 131.0 190.5Q136 179 142 168Q208 148 282.5 143.0Q357 138 432 137Q439 127 448.5 118.5Q458 110 466.0 100.5Q474 91 479.0 79.5Q484 68 481 51Q467 36 450.0 23.5Q433 11 416 -2Z"/></g>
    <g transform="translate(1759, 0)"><path d="M590 569Q592 547 597.0 531.0Q602 515 608 500Q613 486 617.5 472.5Q622 459 624 440Q616 414 612.5 392.0Q609 370 605 346Q589 311 574.0 284.0Q559 257 550 237Q545 232 541.5 225.5Q538 219 534 212Q532 209 529.0 203.0Q526 197 524 195L504 202L500 177L486 173L476 161Q457 128 436.0 105.5Q415 83 388.5 65.5Q362 48 328.5 33.0Q295 18 253 0Q236 2 223.5 2.5Q211 3 200 4Q181 4 153 7Q150 15 144.0 18.0Q138 21 133 21Q116 29 107.5 44.5Q99 60 91 78Q86 89 81.0 98.5Q76 108 70 118L87 123L65 147Q63 150 60.0 152.5Q57 155 55 158L54 174Q51 243 51.5 300.5Q52 358 67 403V414Q70 436 73.0 450.5Q76 465 78 478Q81 500 87 519Q101 522 108.0 530.5Q115 539 120 546Q134 547 139.0 542.0Q144 537 149 526Q154 517 161.5 506.0Q169 495 184 489Q186 481 189.5 472.5Q193 464 197 454Q205 437 211.5 418.5Q218 400 219 383Q209 364 203.5 339.0Q198 314 196.5 288.5Q195 263 197.5 239.5Q200 216 206 200L212 187L229 189Q259 197 283.5 206.5Q308 216 329.0 229.0Q350 242 369.0 259.5Q388 277 409 300Q430 323 445.5 352.5Q461 382 471.5 414.0Q482 446 487.5 477.5Q493 509 495 537Q512 543 512 561L510 572Q506 578 510 586Q516 605 538 615Q554 605 566.5 593.0Q579 581 590 569Z"/></g>
    <g transform="translate(2358, 0)"><path d="M16 450Q23 471 38.5 486.0Q54 501 72.5 511.5Q91 522 111.0 529.0Q131 536 149 541Q189 558 234.5 573.5Q280 589 327.5 601.0Q375 613 425.0 616.5Q475 620 530 604Q533 594 539.0 585.0Q545 576 551.5 567.0Q558 558 563.0 549.5Q568 541 569 532Q579 523 585.0 512.5Q591 502 587 485Q577 477 567.5 470.5Q558 464 547 459Q510 468 472.0 465.0Q434 462 404 460Q395 469 382.5 469.0Q370 469 356.5 465.0Q343 461 329.5 457.0Q316 453 304 455Q294 447 279.5 444.5Q265 442 248 440Q247 435 250.0 433.5Q253 432 251 427Q257 420 266.5 417.0Q276 414 286.5 411.0Q297 408 305.0 403.5Q313 399 316 389Q331 389 342.0 382.0Q353 375 360.0 365.0Q367 355 370.5 343.5Q374 332 374 323Q377 315 381.0 316.0Q385 317 390 312Q393 299 405.0 285.5Q417 272 424 256Q426 231 427.0 211.5Q428 192 420 172Q405 135 378.5 106.0Q352 77 318.5 54.5Q285 32 247.0 16.0Q209 0 173 -11Q169 -10 165.0 -11.0Q161 -12 163 -6Q155 -13 145.5 -15.0Q136 -17 125.0 -16.5Q114 -16 102.5 -15.0Q91 -14 81 -16Q74 -9 68.5 -2.5Q63 4 60 14Q55 14 55.5 19.0Q56 24 52 24Q58 34 57.5 35.5Q57 37 54.5 38.0Q52 39 50.0 40.5Q48 42 49 45Q53 53 52.0 63.5Q51 74 50.0 85.0Q49 96 51.5 106.0Q54 116 66 122Q100 118 130.5 124.5Q161 131 188.0 143.0Q215 155 239.5 169.0Q264 183 288 194Q291 203 296.5 209.0Q302 215 308.0 220.0Q314 225 319.0 231.0Q324 237 326 246Q327 253 322.5 254.5Q318 256 318 262L307 265Q288 276 264.0 283.5Q240 291 223 300Q212 294 202.5 297.0Q193 300 178 303Q144 305 112.5 310.0Q81 315 52 328Q50 333 47.0 337.0Q44 341 36 339Q30 347 24.0 354.5Q18 362 13 371Q15 383 16.0 391.5Q17 400 10 408Q14 421 16.0 429.0Q18 437 16 450Z"/></g>
    <g transform="translate(3212, 0)"><path d="M-26 95 -13 105 -12 126Q13 187 39.5 243.0Q66 299 95 358Q104 377 113.5 396.0Q123 415 132 435Q131 439 131.0 443.5Q131 448 133 454Q147 474 155.5 490.0Q164 506 172 523Q181 543 191.5 563.0Q202 583 218 602L225 612L236 611Q240 613 244.5 614.5Q249 616 256 616L274 613Q307 628 332.5 656.5Q358 685 384 725L396 742L412 732Q417 729 428.0 726.0Q439 723 451 719Q472 714 492.0 707.5Q512 701 523 690L528 681Q530 670 531.5 661.0Q533 652 535 643Q539 622 542.0 601.5Q545 581 546 556Q551 536 555.5 515.5Q560 495 564 475Q569 446 575.0 419.5Q581 393 591 369Q601 369 603 368Q615 373 631 374L644 375L648 363Q650 360 653.0 357.0Q656 354 660 351Q676 350 683.5 344.5Q691 339 696 334Q698 332 701.0 329.5Q704 327 706 326L724 319L714 300Q703 279 680.5 259.0Q658 239 630 226Q632 219 632.5 213.0Q633 207 635 199Q639 179 641.5 157.5Q644 136 641 113Q631 87 617.5 66.5Q604 46 585.5 29.5Q567 13 544.0 2.5Q521 -8 496 -9Q482 -6 475.5 -2.0Q469 2 464 6Q456 12 451 14L438 20L442 35Q445 43 441.5 49.0Q438 55 427 65Q423 68 420.0 71.5Q417 75 413 79L393 102L426 111Q456 119 466.0 131.5Q476 144 474 176Q449 181 433.0 177.5Q417 174 401 170Q378 164 356.0 159.5Q334 155 308 155Q291 155 272 158L261 159L258 170Q258 172 255.5 174.5Q253 177 251 179Q246 185 239.0 195.0Q232 205 236 220Q229 231 228 243Q224 235 221.5 227.5Q219 220 217 213L213 200L200 198Q198 196 196.5 192.0Q195 188 196 186L200 175L190 166Q188 163 185.0 161.0Q182 159 180 157Q178 146 174.5 136.0Q171 126 167 116Q162 100 157.5 85.0Q153 70 153 55L149 42Q144 34 136.5 30.0Q129 26 122 23Q112 19 108 15L105 2L90 0Q77 -3 71.5 -4.0Q66 -5 59 -5L46 -4Q34 8 26.5 14.5Q19 21 9 26L3 34Q-1 42 -2.0 48.5Q-3 55 -5 62Q-7 75 -11 80ZM293 355Q279 335 266 313Q273 314 279.5 314.0Q286 314 293 315Q328 317 358.0 320.0Q388 323 423 330Q415 367 405.5 405.5Q396 444 385 483L380 473Q355 446 332.0 415.0Q309 384 294 356Z"/></g>
    <g transform="translate(3931, 0)"><path d="M161 104Q150 64 141.5 43.5Q133 23 116 1Q103 3 98.0 -2.0Q93 -7 87 -11Q78 -13 74.0 -11.0Q70 -9 67.0 -6.5Q64 -4 59.5 -1.5Q55 1 46 1Q44 9 41.5 16.0Q39 23 28 21Q30 29 29.0 34.5Q28 40 26.5 44.5Q25 49 24.0 53.5Q23 58 25 65Q20 65 17.0 72.0Q14 79 10 86Q13 104 16.0 120.0Q19 136 23.5 150.0Q28 164 31.0 178.0Q34 192 28 207Q32 204 34.0 208.5Q36 213 37.0 220.5Q38 228 38.0 235.5Q38 243 37 248Q47 274 53.5 301.5Q60 329 65.5 356.0Q71 383 77.0 409.0Q83 435 93 457Q104 459 117.5 454.5Q131 450 134 443Q160 463 180.0 491.5Q200 520 221.0 547.0Q242 574 267.5 595.0Q293 616 332 620Q352 605 376.5 589.5Q401 574 417 549Q425 545 430.5 540.5Q436 536 444 531V519Q456 508 463.5 493.5Q471 479 477.0 462.5Q483 446 489.0 429.5Q495 413 503 398Q501 393 501.0 389.5Q501 386 502.5 382.0Q504 378 505.0 374.0Q506 370 505 363Q502 319 476.5 292.0Q451 265 415.0 247.5Q379 230 338.0 218.0Q297 206 264 192Q264 188 267.5 188.0Q271 188 270 183Q294 168 308.0 159.0Q322 150 334.5 144.0Q347 138 361.5 133.5Q376 129 402 123Q428 117 442.5 113.5Q457 110 469.0 107.5Q481 105 493.5 103.5Q506 102 529 100Q538 91 544.5 78.5Q551 66 553.0 53.5Q555 41 554.0 29.5Q553 18 547 11Q548 8 551.5 8.5Q555 9 559 8Q553 4 549.0 -2.0Q545 -8 541.0 -14.0Q537 -20 532.0 -24.5Q527 -29 518 -30Q487 -42 440.0 -31.5Q393 -21 321 7Q285 21 262.5 31.5Q240 42 223.5 52.5Q207 63 193.5 75.0Q180 87 161 104ZM304 447Q293 431 279.5 418.0Q266 405 253.5 391.5Q241 378 231.0 361.5Q221 345 217 323Q252 327 290.0 342.5Q328 358 362 372Q358 403 340.5 422.0Q323 441 304 447Z"/></g>
    <g transform="translate(4485, 0)"><path d="M558 563Q559 556 558.5 552.5Q558 549 557.5 546.0Q557 543 557.0 539.5Q557 536 559 529Q538 495 510.5 482.5Q483 470 451.0 464.5Q419 459 385.5 453.0Q352 447 319 427Q306 432 295.5 427.0Q285 422 265 424Q259 418 250.0 415.5Q241 413 232 410Q236 401 235.5 391.5Q235 382 238 376Q273 373 315.5 377.0Q358 381 399 382Q400 377 398.0 375.5Q396 374 397 370Q404 365 411.0 357.5Q418 350 425.0 343.0Q432 336 439.5 331.5Q447 327 457 328Q461 320 462.5 310.5Q464 301 460 291Q444 280 428.0 268.5Q412 257 394.5 248.0Q377 239 357.5 233.5Q338 228 314 229Q309 229 306.5 229.0Q304 229 300 232Q292 227 277.5 229.0Q263 231 255 226Q244 231 228.5 230.5Q213 230 201 234Q185 213 172.0 189.0Q159 165 149 138Q183 133 205.5 134.0Q228 135 248.0 137.5Q268 140 289.0 142.5Q310 145 342 144Q362 155 389.5 158.5Q417 162 440 170Q448 167 454.0 159.5Q460 152 465.5 145.5Q471 139 477.0 134.0Q483 129 492 130Q496 126 497.5 120.5Q499 115 500.0 110.0Q501 105 503.5 101.5Q506 98 512 99Q497 66 477.5 48.5Q458 31 433.0 22.0Q408 13 377.5 8.0Q347 3 310 -4Q301 -6 295.0 -3.5Q289 -1 281 -1Q258 -6 226.0 -10.0Q194 -14 161.0 -13.0Q128 -12 98.0 -4.5Q68 3 49 22Q41 29 38.5 38.5Q36 48 25 53Q24 66 21.0 82.0Q18 98 15.0 115.5Q12 133 10.5 150.0Q9 167 12 181Q15 196 24.5 208.0Q34 220 31 234Q36 235 37.0 239.5Q38 244 45 243Q51 261 58.0 277.0Q65 293 72.5 308.0Q80 323 87.5 338.5Q95 354 102 373Q88 386 81.5 401.5Q75 417 72.0 432.5Q69 448 67.0 464.5Q65 481 60 498Q70 513 84.5 522.5Q99 532 116.0 538.0Q133 544 153.0 548.0Q173 552 195 557Q235 570 266.5 577.0Q298 584 328.5 588.5Q359 593 392.0 597.0Q425 601 467 609Q476 600 484 600Q488 609 493.5 605.5Q499 602 498 611Q508 594 523.5 582.5Q539 571 558 563Z"/></g>
    <g transform="translate(5019, 0)"><path d="M529 84Q523 67 511.5 49.5Q500 32 484.5 18.5Q469 5 450.0 -4.0Q431 -13 410 -14Q397 -11 392.5 -7.5Q388 -4 383 -1Q380 1 377.5 2.5Q375 4 373 5L361 10L365 23Q367 31 364.0 35.5Q361 40 352 48Q349 51 346.0 54.0Q343 57 341 60L324 79L351 86Q376 93 384.5 104.0Q393 115 391 141Q371 145 357.5 142.0Q344 139 330 135Q312 130 293.5 126.5Q275 123 253 123Q245 123 238.0 123.5Q231 124 223 125L213 127Q211 138 209.0 139.5Q207 141 205 143Q200 148 194.5 156.5Q189 165 192 178Q187 187 186 196Q180 184 177 171L173 161L163 159Q161 158 160.0 154.5Q159 151 159 149L154 132Q152 130 150.0 128.5Q148 127 146 125Q144 116 141.0 107.0Q138 98 135 90Q130 77 126.5 64.5Q123 52 124 40L120 29Q115 23 109.0 19.5Q103 16 97 13Q95 11 91.5 9.5Q88 8 86 7L83 -4L71 -6Q60 -8 55.5 -9.0Q51 -10 45 -10L35 -9Q24 0 18.0 5.5Q12 11 4 16Q-5 28 -6.0 34.0Q-7 40 -8 45Q-10 51 -10.5 55.0Q-11 59 -13 61L-26 73L-15 82L-14 99Q6 150 28.5 197.0Q51 244 75 293Q83 309 90.5 325.0Q98 341 106 357Q105 360 105.0 364.0Q105 368 107 373Q118 390 125.0 403.5Q132 417 139 431Q147 448 155.5 464.0Q164 480 177 497L193 504Q196 505 200.0 506.5Q204 508 209 508L224 506Q252 519 273.0 542.5Q294 566 316 599L326 613L339 605Q344 602 353.0 599.5Q362 597 372 594Q390 590 406.0 585.0Q422 580 432 570Q438 554 439.0 546.0Q440 538 442 530Q445 513 447.5 496.0Q450 479 451 458Q456 441 459.5 424.5Q463 408 466 391Q471 367 476.0 344.5Q481 322 489 302Q497 302 499 301Q504 303 509.5 304.0Q515 305 522 306L533 307L537 297Q538 292 547 287Q560 286 566.0 281.5Q572 277 577 272Q581 268 585 266L600 260L592 245Q582 227 563.5 210.5Q545 194 522 183Q523 177 523.5 171.5Q524 166 526 160Q529 143 531.0 125.0Q533 107 531 88ZM240 257Q270 259 294.5 261.5Q319 264 349 270Q342 300 334.0 332.5Q326 365 317 397L311 387Q291 366 272.5 340.0Q254 314 241 291Q235 282 229.0 273.0Q223 264 218 255Q224 256 229.5 256.0Q235 256 240 257Z"/></g>
    <g transform="translate(5614, 0)"><path d="M16 450Q23 471 38.5 486.0Q54 501 72.5 511.5Q91 522 111.0 529.0Q131 536 149 541Q189 558 234.5 573.5Q280 589 327.5 601.0Q375 613 425.0 616.5Q475 620 530 604Q533 594 539.0 585.0Q545 576 551.5 567.0Q558 558 563.0 549.5Q568 541 569 532Q579 523 585.0 512.5Q591 502 587 485Q577 477 567.5 470.5Q558 464 547 459Q510 468 472.0 465.0Q434 462 404 460Q395 469 382.5 469.0Q370 469 356.5 465.0Q343 461 329.5 457.0Q316 453 304 455Q294 447 279.5 444.5Q265 442 248 440Q247 435 250.0 433.5Q253 432 251 427Q257 420 266.5 417.0Q276 414 286.5 411.0Q297 408 305.0 403.5Q313 399 316 389Q331 389 342.0 382.0Q353 375 360.0 365.0Q367 355 370.5 343.5Q374 332 374 323Q377 315 381.0 316.0Q385 317 390 312Q393 299 405.0 285.5Q417 272 424 256Q426 231 427.0 211.5Q428 192 420 172Q405 135 378.5 106.0Q352 77 318.5 54.5Q285 32 247.0 16.0Q209 0 173 -11Q169 -10 165.0 -11.0Q161 -12 163 -6Q155 -13 145.5 -15.0Q136 -17 125.0 -16.5Q114 -16 102.5 -15.0Q91 -14 81 -16Q74 -9 68.5 -2.5Q63 4 60 14Q55 14 55.5 19.0Q56 24 52 24Q58 34 57.5 35.5Q57 37 54.5 38.0Q52 39 50.0 40.5Q48 42 49 45Q53 53 52.0 63.5Q51 74 50.0 85.0Q49 96 51.5 106.0Q54 116 66 122Q100 118 130.5 124.5Q161 131 188.0 143.0Q215 155 239.5 169.0Q264 183 288 194Q291 203 296.5 209.0Q302 215 308.0 220.0Q314 225 319.0 231.0Q324 237 326 246Q327 253 322.5 254.5Q318 256 318 262L307 265Q288 276 264.0 283.5Q240 291 223 300Q212 294 202.5 297.0Q193 300 178 303Q144 305 112.5 310.0Q81 315 52 328Q50 333 47.0 337.0Q44 341 36 339Q30 347 24.0 354.5Q18 362 13 371Q15 383 16.0 391.5Q17 400 10 408Q14 421 16.0 429.0Q18 437 16 450Z"/></g>
  </g>
</svg>