<svg xmlns="http://www.w3.org/2000/svg" width="97.8" height="24">
  <path d="M15 34Q12 33 11.0 36.0Q10 39 10.5 42.0Q11 45 13.5 47.0Q16 49 20 47Q7 63 3.5 76.0Q0 89 -10 108Q-7 111 -6.0 116.5Q-5 122 -3.5 127.0Q-2 132 0.5 134.5Q3 137 7 133Q5 144 7.0 151.0Q9 158 11.5 164.0Q14 170 15.0 176.0Q16 182 12 190Q31 216 37.0 246.5Q43 277 44 302Q53 311 59.5 326.0Q66 341 69.0 357.0Q72 373 72.0 388.5Q72 404 68 413Q69 417 72.5 417.5Q76 418 81 417Q88 457 90.5 506.0Q93 555 100.5 600.5Q108 646 125.0 680.5Q142 715 179 725Q186 700 197.5 681.0Q209 662 222.5 644.0Q236 626 250.0 608.0Q264 590 276 568Q275 545 271.5 515.0Q268 485 262.5 454.0Q257 423 251.5 394.0Q246 365 241 345Q242 340 248.0 338.5Q254 337 250 327Q279 334 310.5 340.5Q342 347 372.5 353.5Q403 360 432.5 369.0Q462 378 488 391Q494 439 503.0 486.0Q512 533 505 581Q511 586 515.0 593.0Q519 600 527 602Q521 625 522.0 650.5Q523 676 530.5 698.0Q538 720 553.0 736.5Q568 753 590 758Q603 739 613.0 717.0Q623 695 633.0 672.5Q643 650 654.5 630.0Q666 610 684 596Q687 561 689.0 524.5Q691 488 692 449Q683 404 671.5 361.5Q660 319 655 271Q647 262 642.0 249.5Q637 237 632.5 224.5Q628 212 622.0 200.0Q616 188 607 180Q611 166 608.5 153.5Q606 141 615 124Q617 93 607.5 72.5Q598 52 581.5 37.5Q565 23 543.5 14.5Q522 6 501 -1Q491 5 482.5 11.5Q474 18 462 21L467 30Q447 50 432.5 72.5Q418 95 419 124Q419 125 421.0 137.5Q423 150 425.5 164.0Q428 178 430.5 190.5Q433 203 433 204Q405 201 375.0 191.0Q345 181 316.5 168.5Q288 156 263.5 142.5Q239 129 224 120Q224 117 219.0 103.0Q214 89 207.0 73.5Q200 58 191.5 46.0Q183 34 174 35Q176 30 178.0 27.5Q180 25 178 18Q161 13 147.5 5.0Q134 -3 120.0 -8.5Q106 -14 89.5 -13.5Q73 -13 50 -1Q50 6 44.0 11.5Q38 17 31.5 21.0Q25 25 20.0 28.0Q15 31 15 34Z" transform="translate(2.0, 24.625) scale(0.0234375, -0.0234375)" fill="#000000"/>
<path d="M529 84Q523 67 511.5 49.5Q500 32 484.5 18.5Q469 5 450.0 -4.0Q431 -13 410 -14Q397 -11 392.5 -7.5Q388 -4 383 -1Q380 1 377.5 2.5Q375 4 373 5L361 10L365 23Q367 31 364.0 35.5Q361 40 352 48Q349 51 346.0 54.0Q343 57 341 60L324 79L351 86Q376 93 384.5 104.0Q393 115 391 141Q371 145 357.5 142.0Q344 139 330 135Q312 130 293.5 126.5Q275 123 253 123Q245 123 238.0 123.5Q231 124 223 125L213 127Q211 138 209.0 139.5Q207 141 205 143Q200 148 194.5 156.5Q189 165 192 178Q187 187 186 196Q180 184 177 171L173 161L163 159Q161 158 160.0 154.5Q159 151 159 149L154 132Q152 130 150.0 128.5Q148 127 146 125Q144 116 141.0 107.0Q138 98 135 90Q130 77 126.5 64.5Q123 52 124 40L120 29Q115 23 109.0 19.5Q103 16 97 13Q95 11 91.5 9.5Q88 8 86 7L83 -4L71 -6Q60 -8 55.5 -9.0Q51 -10 45 -10L35 -9Q24 0 18.0 5.5Q12 11 4 16Q-5 28 -6.0 34.0Q-7 40 -8 45Q-10 51 -10.5 55.0Q-11 59 -13 61L-26 73L-15 82L-14 99Q6 150 28.5 197.0Q51 244 75 293Q83 309 90.5 325.0Q98 341 106 357Q105 360 105.0 364.0Q105 368 107 373Q118 390 125.0 403.5Q132 417 139 431Q147 448 155.5 464.0Q164 480 177 497L193 504Q196 505 200.0 506.5Q204 508 209 508L224 506Q252 519 273.0 542.5Q294 566 316 599L326 613L339 605Q344 602 353.0 599.5Q362 597 372 594Q390 590 406.0 585.0Q422 580 432 570Q438 554 439.0 546.0Q440 538 442 530Q445 513 447.5 496.0Q450 479 451 458Q456 441 459.5 424.5Q463 408 466 391Q471 367 476.0 344.5Q481 322 489 302Q497 302 499 301Q504 303 509.5 304.0Q515 305 522 306L533 307L537 297Q538 292 547 287Q560 286 566.0 281.5Q572 277 577 272Q581 268 585 266L600 260L592 245Q582 227 563.5 210.5Q545 194 522 183Q523 177 523.5 171.5Q524 166 526 160Q529 143 531.0 125.0Q533 107 531 88ZM240 257Q270 259 294.5 261.5Q319 264 349 270Q342 300 334.0 332.5Q326 365 317 397L311 387Q291 366 272.5 340.0Q254 314 241 291Q235 282 229.0 273.0Q223 264 218 255Q224 256 229.5 256.0Q235 256 240 257Z" transform="translate(18.6875, 24.625) scale(0.0234375, -0.0234375)" fill="#000000"/>
<path d="M108 -39Q103 -37 97 -35L85 -13L69 -25Q62 -21 58.0 -17.5Q54 -14 49 -9Q38 -1 30.0 7.5Q22 16 21 24L20 34L10 36Q5 50 2.0 56.5Q-1 63 -8 67Q-14 117 -4.0 150.5Q6 184 26 222Q38 226 47.5 233.0Q57 240 65 247Q73 254 81.0 259.5Q89 265 96 266L105 271Q122 291 146.0 306.5Q170 322 196 338Q217 350 238.5 363.5Q260 377 277 393Q285 392 291 396Q295 401 295 409Q297 411 299.5 412.5Q302 414 304 416Q311 421 323.0 428.0Q335 435 339 446L361 467L331 466Q308 465 282.5 463.0Q257 461 239 459Q224 457 208.0 456.5Q192 456 173 455Q142 475 128.5 514.5Q115 554 127 592Q134 593 139.0 595.5Q144 598 149 600Q158 601 161.0 600.0Q164 599 169 599Q197 604 215.5 605.5Q234 607 250 607Q267 607 283.0 605.5Q299 604 314 599Q349 599 385.0 602.0Q421 605 459 597Q486 606 512.5 602.0Q539 598 559 578Q560 561 567.5 552.5Q575 544 587 540Q595 511 588.5 489.0Q582 467 567.0 450.0Q552 433 531.5 419.5Q511 406 491 394Q485 385 476.5 379.5Q468 374 461 366Q428 324 385.5 292.5Q343 261 298 232Q266 211 234.5 189.5Q203 168 174 143L164 134L173 124Q185 112 201 112Q210 112 218.5 114.5Q227 117 235 120Q243 122 249.0 124.5Q255 127 260 127H273Q281 132 289.0 135.0Q297 138 305 140Q313 142 320.0 144.0Q327 146 335 151Q357 151 376.5 157.0Q396 163 416 171Q428 176 439.5 180.0Q451 184 463 186Q467 181 472.5 177.5Q478 174 483 171Q496 163 497 156L500 128L519 147Q531 137 532.0 124.5Q533 112 529 92Q497 60 449.0 42.0Q401 24 347 7Q336 4 324.5 1.0Q313 -2 302 -6L303 11L281 -3Q277 -6 274.5 -9.0Q272 -12 270 -15Q244 -22 227.0 -25.0Q210 -28 195 -31Q178 -35 163.0 -37.5Q148 -40 131 -40Q126 -40 120.0 -40.0Q114 -40 108 -39Z" transform="translate(32.6328125, 24.625) scale(0.0234375, -0.0234375)" fill="#000000"/>
<path d="M529 84Q523 67 511.5 49.5Q500 32 484.5 18.5Q469 5 450.0 -4.0Q431 -13 410 -14Q397 -11 392.5 -7.5Q388 -4 383 -1Q380 1 377.5 2.5Q375 4 373 5L361 10L365 23Q367 31 364.0 35.5Q361 40 352 48Q349 51 346.0 54.0Q343 57 341 60L324 79L351 86Q376 93 384.5 104.0Q393 115 391 141Q371 145 357.5 142.0Q344 139 330 135Q312 130 293.5 126.5Q275 123 253 123Q245 123 238.0 123.5Q231 124 223 125L213 127Q211 138 209.0 139.5Q207 141 205 143Q200 148 194.5 156.5Q189 165 192 178Q187 187 186 196Q180 184 177 171L173 161L163 159Q161 158 160.0 154.5Q159 151 159 149L154 132Q152 130 150.0 128.5Q148 127 146 125Q144 116 141.0 107.0Q138 98 135 90Q130 77 126.5 64.5Q123 52 124 40L120 29Q115 23 109.0 19.5Q103 16 97 13Q95 11 91.5 9.5Q88 8 86 7L83 -4L71 -6Q60 -8 55.5 -9.0Q51 -10 45 -10L35 -9Q24 0 18.0 5.5Q12 11 4 16Q-5 28 -6.0 34.0Q-7 40 -8 45Q-10 51 -10.5 55.0Q-11 59 -13 61L-26 73L-15 82L-14 99Q6 150 28.5 197.0Q51 244 75 293Q83 309 90.5 325.0Q98 341 106 357Q105 360 105.0 364.0Q105 368 107 373Q118 390 125.0 403.5Q132 417 139 431Q147 448 155.5 464.0Q164 480 177 497L193 504Q196 505 200.0 506.5Q204 508 209 508L224 506Q252 519 273.0 542.5Q294 566 316 599L326 613L339 605Q344 602 353.0 599.5Q362 597 372 594Q390 590 406.0 585.0Q422 580 432 570Q438 554 439.0 546.0Q440 538 442 530Q445 513 447.5 496.0Q450 479 451 458Q456 441 459.5 424.5Q463 408 466 391Q471 367 476.0 344.5Q481 322 489 302Q497 302 499 301Q504 303 509.5 304.0Q515 305 522 306L533 307L537 297Q538 292 547 287Q560 286 566.0 281.5Q572 277 577 272Q581 268 585 266L600 260L592 245Q582 227 563.5 210.5Q545 194 522 183Q523 177 523.5 171.5Q524 166 526 160Q529 143 531.0 125.0Q533 107 531 88ZM240 257Q270 259 294.5 261.5Q319 264 349 270Q342 300 334.0 332.5Q326 365 317 397L311 387Q291 366 272.5 340.0Q254 314 241 291Q235 282 229.0 273.0Q223 264 218 255Q224 256 229.5 256.0Q235 256 240 257Z" transform="translate(45.78125, 24.625) scale(0.0234375, -0.0234375)" fill="#000000"/>
<path d="M161 104Q150 64 141.5 43.5Q133 23 116 1Q103 3 98.0 -2.0Q93 -7 87 -11Q78 -13 74.0 -11.0Q70 -9 67.0 -6.5Q64 -4 59.5 -1.5Q55 1 46 1Q44 9 41.5 16.0Q39 23 28 21Q30 29 29.0 34.5Q28 40 26.5 44.5Q25 49 24.0 53.5Q23 58 25 65Q20 65 17.0 72.0Q14 79 10 86Q13 104 16.0 120.0Q19 136 23.5 150.0Q28 164 31.0 178.0Q34 192 28 207Q32 204 34.0 208.5Q36 213 37.0 220.5Q38 228 38.0 235.5Q38 243 37 248Q47 274 53.5 301.5Q60 329 65.5 356.0Q71 383 77.0 409.0Q83 435 93 457Q104 459 117.5 454.5Q131 450 134 443Q160 463 180.0 491.5Q200 520 221.0 547.0Q242 574 267.5 595.0Q293 616 332 620Q352 605 376.5 589.5Q401 574 417 549Q425 545 430.5 540.5Q436 536 444 531V519Q456 508 463.5 493.5Q471 479 477.0 462.5Q483 446 489.0 429.5Q495 413 503 398Q501 393 501.0 389.5Q501 386 502.5 382.0Q504 378 505.0 374.0Q506 370 505 363Q502 319 476.5 292.0Q451 265 415.0 247.5Q379 230 338.0 218.0Q297 206 264 192Q264 188 267.5 188.0Q271 188 270 183Q294 168 308.0 159.0Q322 150 334.5 144.0Q347 138 361.5 133.5Q376 129 402 123Q428 117 442.5 113.5Q457 110 469.0 107.5Q481 105 493.5 103.5Q506 102 529 100Q538 91 544.5 78.5Q551 66 553.0 53.5Q555 41 554.0 29.5Q553 18 547 11Q548 8 551.5 8.5Q555 9 559 8Q553 4 549.0 -2.0Q545 -8 541.0 -14.0Q537 -20 532.0 -24.5Q527 -29 518 -30Q487 -42 440.0 -31.5Q393 -21 321 7Q285 21 262.5 31.5Q240 42 223.5 52.5Q207 63 193.5 75.0Q180 87 161 104ZM304 447Q293 431 279.5 418.0Q266 405 253.5 391.5Q241 378 231.0 361.5Q221 345 217 323Q252 327 290.0 342.5Q328 358 362 372Q358 403 340.5 422.0Q323 441 304 447Z" transform="translate(59.7265625, 24.625) scale(0.0234375, -0.0234375)" fill="#000000"/>
<path d="M493 270Q492 265 491.0 261.5Q490 258 489.0 255.0Q488 252 488.0 247.5Q488 243 488 236Q458 183 412.5 147.0Q367 111 312.5 83.5Q258 56 199.0 33.5Q140 11 84 -15Q60 -9 47.5 5.0Q35 19 28.5 37.5Q22 56 19.5 78.5Q17 101 15 125Q18 136 23.5 143.5Q29 151 29 165Q37 191 45.0 216.0Q53 241 55 267Q58 275 66 278Q71 326 66.5 375.5Q62 425 50 468Q51 478 52.5 482.5Q54 487 52 489Q51 497 57.5 497.0Q64 497 71 497Q71 512 65.5 527.0Q60 542 55 561Q62 576 64.0 590.5Q66 605 73 616Q127 599 176.5 575.0Q226 551 274 540Q310 514 348.0 488.5Q386 463 417.0 432.5Q448 402 469.0 363.0Q490 324 493 270ZM256 215Q277 223 297.5 232.0Q318 241 335.5 252.5Q353 264 367.0 279.0Q381 294 390 315Q384 327 374.0 336.5Q364 346 354.0 354.5Q344 363 334.5 372.0Q325 381 319 394Q306 396 296.0 401.5Q286 407 276.5 412.5Q267 418 256.5 423.0Q246 428 232 429Q210 440 192.5 445.0Q175 450 166 458Q159 458 155 455Q165 417 170.0 383.5Q175 350 175.5 316.5Q176 283 172.0 248.0Q168 213 161 172Q171 173 179.5 176.5Q188 180 196.5 184.0Q205 188 214.5 191.5Q224 195 237 196Q240 202 245.5 206.0Q251 210 256 215Z" transform="translate(72.7109375, 24.625) scale(0.0234375, -0.0234375)" fill="#000000"/>
<path d="M16 450Q23 471 38.5 486.0Q54 501 72.5 511.5Q91 522 111.0 529.0Q131 536 149 541Q189 558 234.5 573.5Q280 589 327.5 601.0Q375 613 425.0 616.5Q475 620 530 604Q533 594 539.0 585.0Q545 576 551.5 567.0Q558 558 563.0 549.5Q568 541 569 532Q579 523 585.0 512.5Q591 502 587 485Q577 477 567.5 470.5Q558 464 547 459Q510 468 472.0 465.0Q434 462 404 460Q395 469 382.5 469.0Q370 469 356.5 465.0Q343 461 329.5 457.0Q316 453 304 455Q294 447 279.5 444.5Q265 442 248 440Q247 435 250.0 433.5Q253 432 251 427Q257 420 266.5 417.0Q276 414 286.5 411.0Q297 408 305.0 403.5Q313 399 316 389Q331 389 342.0 382.0Q353 375 360.0 365.0Q367 355 370.5 343.5Q374 332 374 323Q377 315 381.0 316.0Q385 317 390 312Q393 299 405.0 285.5Q417 272 424 256Q426 231 427.0 211.5Q428 192 420 172Q405 135 378.5 106.0Q352 77 318.5 54.5Q285 32 247.0 16.0Q209 0 173 -11Q169 -10 165.0 -11.0Q161 -12 163 -6Q155 -13 145.5 -15.0Q136 -17 125.0 -16.5Q114 -16 102.5 -15.0Q91 -14 81 -16Q74 -9 68.5 -2.5Q63 4 60 14Q55 14 55.5 19.0Q56 24 52 24Q58 34 57.5 35.5Q57 37 54.5 38.0Q52 39 50.0 40.5Q48 42 49 45Q53 53 52.0 63.5Q51 74 50.0 85.0Q49 96 51.5 106.0Q54 116 66 122Q100 118 130.5 124.5Q161 131 188.0 143.0Q215 155 239.5 169.0Q264 183 288 194Q291 203 296.5 209.0Q302 215 308.0 220.0Q314 225 319.0 231.0Q324 237 326 246Q327 253 322.5 254.5Q318 256 318 262L307 265Q288 276 264.0 283.5Q240 291 223 300Q212 294 202.5 297.0Q193 300 178 303Q144 305 112.5 310.0Q81 315 52 328Q50 333 47.0 337.0Q44 341 36 339Q30 347 24.0 354.5Q18 362 13 371Q15 383 16.0 391.5Q17 400 10 408Q14 421 16.0 429.0Q18 437 16 450Z" transform="translate(84.640625, 24.625) scale(0.0234375, -0.0234375)" fill="#000000"/>
</svg>