<svg xmlns="http://www.w3.org/2000/svg" viewBox="0 0 190.16 28" width="190.16" height="28">
  <path d="M9 -2Q22 67 34.5 134.5Q47 202 60 269Q74 352 86.5 425.0Q99 498 111.5 570.0Q124 642 136 721L298 732Q281 662 264.5 586.0Q248 510 234 438L333 449Q340 484 346.5 518.5Q353 553 358 587Q363 620 370.5 654.5Q378 689 387 724Q423 730 460.0 733.5Q497 737 522.0 738.5Q547 740 547 740Q534 700 521.0 646.0Q508 592 496.0 532.0Q484 472 473.0 412.5Q462 353 453 302Q442 238 432.0 173.5Q422 109 412 42L256 24Q263 54 268.5 83.5Q274 113 279 141Q289 189 299.5 241.0Q310 293 316 330L219 321Q215 302 211.5 280.0Q208 258 203 233Q198 208 193.5 184.5Q189 161 185 138Q180 111 174.0 84.0Q168 57 163 30Z" transform="translate(2, 22) scale(0.024, -0.024)" fill="#000"/>
  <path d="M181 -4Q115 -4 73.0 47.0Q31 98 31 201Q31 258 45.0 321.0Q59 384 84.0 445.0Q109 506 142 558Q195 642 264.0 695.0Q333 748 409 748Q469 748 501.5 717.5Q534 687 547.0 639.5Q560 592 560 541Q560 422 523.5 319.5Q487 217 429 146Q371 73 305.5 34.5Q240 -4 181 -4ZM235 161Q280 161 314.5 191.0Q349 221 373.0 267.5Q397 314 409.0 365.0Q421 416 421 457Q421 473 418.0 491.5Q415 510 405.0 524.0Q395 538 374 538Q328 538 291.0 504.5Q254 471 229 420Q204 368 192.0 318.0Q180 268 180 227Q180 206 195.0 183.5Q210 161 235 161Z" transform="translate(14.608, 22) scale(0.024, -0.024)" fill="#000"/>
  <path d="M41 -4 117 706Q140 707 162.5 709.5Q185 712 206 716Q226 720 247.0 722.5Q268 725 288 726L285 706Q284 696 281.5 683.5Q279 671 277 655Q272 620 265.0 575.0Q258 530 249 475Q243 441 235.5 393.0Q228 345 218 284H233Q246 330 257.0 368.0Q268 406 276 435Q284 464 291.5 487.5Q299 511 304 530Q325 604 338.0 651.0Q351 698 355 712H364Q390 712 418.5 716.0Q447 720 470 725Q469 721 466.0 692.0Q463 663 459.0 621.0Q455 579 451 534Q444 449 438.5 386.0Q433 323 429 284H447L542 714L609 723Q623 725 638.0 727.0Q653 729 669 731Q698 735 724 740Q694 656 664.0 542.0Q634 428 604 311Q588 247 572.5 181.5Q557 116 542 48L316 10L360 396H348L249 33Z" transform="translate(28.44, 22) scale(0.024, -0.024)" fill="#000"/>
  <path d="M-30 6Q14 140 54 267Q71 319 89.0 378.0Q107 437 125.0 496.5Q143 556 159.0 611.0Q175 666 186 709Q241 709 290 715Q315 718 341.5 721.0Q368 724 396 726L390 677Q388 663 386.0 648.5Q384 634 382 619Q380 604 377.0 588.5Q374 573 372 557Q368 526 360.0 470.5Q352 415 341 350H354Q383 426 402.0 476.5Q421 527 433 559Q450 606 470.0 654.0Q490 702 503 728Q527 730 560.5 734.5Q594 739 628.5 745.0Q663 751 688 755Q674 671 662.5 585.5Q651 500 642.5 422.5Q634 345 628 283Q622 221 617.0 160.5Q612 100 607 41L433 10Q433 12 436.0 55.0Q439 98 446 162Q453 226 460.0 283.5Q467 341 474 378H465Q440 302 404.5 212.0Q369 122 335 13Q300 12 275.0 10.5Q250 9 217 7L249 378H234Q233 367 225.0 335.5Q217 304 206.0 263.5Q195 223 183 183Q138 26 135 17Z" transform="translate(49.664, 22) scale(0.024, -0.024)" fill="#000"/>
  <path d="M165 -18Q135 -18 104.0 -5.0Q73 8 52.0 35.0Q31 62 31 104V112Q31 117 32 120Q35 146 40.5 188.0Q46 230 54.0 279.5Q62 329 70.5 378.0Q79 427 86 467Q101 547 110.0 596.0Q119 645 124.5 671.5Q130 698 133 711L298 727Q285 666 273.5 611.5Q262 557 252 508L206 287Q200 262 197 245Q193 229 188.5 204.5Q184 180 184 160Q184 144 192.0 133.5Q200 123 212 123Q229 123 240.0 136.0Q251 149 258.0 168.0Q265 187 269.0 206.5Q273 226 276 238Q286 284 294.5 327.5Q303 371 312.5 420.0Q322 469 334 533Q342 577 350.5 622.5Q359 668 367 715L519 725L484 532Q477 495 468.5 449.0Q460 403 450.0 356.0Q440 309 431.5 267.0Q423 225 416 195Q396 113 354.0 66.5Q312 20 261.5 1.0Q211 -18 165 -18Z" transform="translate(66.52000000000001, 22) scale(0.024, -0.024)" fill="#000"/>
  <path d="M182 -2Q119 -2 79.0 57.0Q39 116 39 219Q39 313 65.0 404.5Q91 496 138 569Q185 642 249.5 686.5Q314 731 392 731Q441 731 476.0 693.0Q511 655 511 591V579Q511 575 511.0 572.0Q511 569 510 565L379 530Q367 555 351 555Q327 555 300.5 516.0Q274 477 250 423Q234 387 221.5 349.0Q209 311 202.0 278.0Q195 245 195 224Q195 193 204 179Q211 166 226 166Q241 166 259.0 180.5Q277 195 292.5 217.0Q308 239 313 261L427 215Q378 103 310.5 50.5Q243 -2 182 -2Z" transform="translate(78.57600000000001, 22) scale(0.024, -0.024)" fill="#000"/>
  <path d="M9 -2Q22 67 34.5 134.5Q47 202 60 269Q74 352 86.5 425.0Q99 498 111.5 570.0Q124 642 136 721L298 732Q281 662 264.5 586.0Q248 510 234 438L333 449Q340 484 346.5 518.5Q353 553 358 587Q363 620 370.5 654.5Q378 689 387 724Q423 730 460.0 733.5Q497 737 522.0 738.5Q547 740 547 740Q534 700 521.0 646.0Q508 592 496.0 532.0Q484 472 473.0 412.5Q462 353 453 302Q442 238 432.0 173.5Q422 109 412 42L256 24Q263 54 268.5 83.5Q274 113 279 141Q289 189 299.5 241.0Q310 293 316 330L219 321Q215 302 211.5 280.0Q208 258 203 233Q198 208 193.5 184.5Q189 161 185 138Q180 111 174.0 84.0Q168 57 163 30Z" transform="translate(90.512, 22) scale(0.024, -0.024)" fill="#000"/>
  <path d="M8 -1 139 710 455 737Q448 715 443 692Q438 673 433.5 652.5Q429 632 426 616Q413 615 389.0 614.5Q365 614 340.0 613.5Q315 613 297.0 613.0Q279 613 278 613L243 434L301 437Q312 438 323.5 438.0Q335 438 346 438Q357 438 366.0 438.0Q375 438 380 439Q378 425 376.5 411.5Q375 398 373 384L364 329Q359 328 351.0 328.0Q343 328 332 328Q321 327 309.0 327.0Q297 327 286 326Q273 325 259.0 325.0Q245 325 229 324L195 140L341 163L331 49Z" transform="translate(107.92, 22) scale(0.024, -0.024)" fill="#000"/>
  <path d="M4 -1Q18 47 31.0 108.5Q44 170 55.5 234.0Q67 298 77.0 353.0Q87 408 93 444Q104 511 114.5 579.5Q125 648 135 719L470 736L441 613H284L253 435Q269 436 283.5 436.0Q298 436 312 436H359Q371 436 380.0 436.0Q389 436 396 437Q395 423 393.0 409.5Q391 396 389 382L380 328Q359 328 319.5 329.5Q280 331 236 332L190 37Q173 34 156.5 31.0Q140 28 123 24Q95 19 62.0 12.0Q29 5 4 -1Z" transform="translate(118.104, 22) scale(0.024, -0.024)" fill="#000"/>
  <path d="M4 -1Q18 47 31.0 108.5Q44 170 55.5 234.0Q67 298 77.0 353.0Q87 408 93 444Q104 511 114.5 579.5Q125 648 135 719L470 736L441 613H284L253 435Q269 436 283.5 436.0Q298 436 312 436H359Q371 436 380.0 436.0Q389 436 396 437Q395 423 393.0 409.5Q391 396 389 382L380 328Q359 328 319.5 329.5Q280 331 236 332L190 37Q173 34 156.5 31.0Q140 28 123 24Q95 19 62.0 12.0Q29 5 4 -1Z" transform="translate(128.288, 22) scale(0.024, -0.024)" fill="#000"/>
  <path d="M181 -4Q115 -4 73.0 47.0Q31 98 31 201Q31 258 45.0 321.0Q59 384 84.0 445.0Q109 506 142 558Q195 642 264.0 695.0Q333 748 409 748Q469 748 501.5 717.5Q534 687 547.0 639.5Q560 592 560 541Q560 422 523.5 319.5Q487 217 429 146Q371 73 305.5 34.5Q240 -4 181 -4ZM235 161Q280 161 314.5 191.0Q349 221 373.0 267.5Q397 314 409.0 365.0Q421 416 421 457Q421 473 418.0 491.5Q415 510 405.0 524.0Q395 538 374 538Q328 538 291.0 504.5Q254 471 229 420Q204 368 192.0 318.0Q180 268 180 227Q180 206 195.0 183.5Q210 161 235 161Z" transform="translate(138.472, 22) scale(0.024, -0.024)" fill="#000"/>
  <path d="M4 -1 56 259Q68 331 82.0 407.0Q96 483 108.5 557.0Q121 631 128 696Q185 714 251.0 722.5Q317 731 382 731Q458 731 485.5 698.0Q513 665 513 609Q513 558 489.0 506.5Q465 455 426.5 413.5Q388 372 342 348Q360 308 380.5 260.5Q401 213 419 170Q429 145 439.5 120.0Q450 95 460 70L305 16Q295 51 286.0 83.0Q277 115 269 146Q259 183 250.0 217.5Q241 252 234.5 279.0Q228 306 227 317L214 313Q208 281 199.5 235.0Q191 189 184 146L166 41ZM239 433Q257 435 283.5 448.5Q310 462 336.5 482.0Q363 502 381.0 523.0Q399 544 399 560Q399 580 375.5 586.5Q352 593 314 593H292Q286 592 281.0 592.0Q276 592 271 592Z" transform="translate(152.304, 22) scale(0.024, -0.024)" fill="#000"/>
  <path d="M90 -1Q101 54 112.5 108.5Q124 163 134 216Q172 406 196 580Q185 582 173.0 582.5Q161 583 150 582Q126 580 103 588Q104 596 104.0 605.5Q104 615 104 625Q104 636 104.0 646.5Q104 657 105 667Q106 678 106.0 690.5Q106 703 107 716Q133 714 159.0 713.0Q185 712 211 712Q285 712 352.5 717.0Q420 722 477 729L466 675L457 628Q452 602 448 587Q437 584 426.0 582.0Q415 580 404 579Q393 578 381.5 576.0Q370 574 359 572Q344 498 334.5 444.0Q325 390 317.5 340.5Q310 291 300 232Q283 131 270 27Z" transform="translate(164.96, 22) scale(0.024, -0.024)" fill="#000"/>
  <path d="M149 236Q149 290 164.5 332.5Q180 375 204.0 408.0Q228 441 253 465Q291 502 323.0 530.0Q355 558 355 580Q355 586 347.0 596.5Q339 607 322 607Q304 607 276.0 592.0Q248 577 218.0 554.5Q188 532 162 508L109 631Q160 677 224.0 703.5Q288 730 354 730Q395 730 431.0 718.0Q467 706 489.5 678.0Q512 650 512 602Q512 533 479.5 487.5Q447 442 404 410Q359 377 319.5 339.0Q280 301 267 248ZM174 -23Q134 -23 115.0 1.5Q96 26 96 60Q96 86 109.0 111.0Q122 136 147.0 153.0Q172 170 208 170Q263 170 288.5 146.0Q314 122 314 91Q314 63 297.5 36.5Q281 10 249.5 -6.5Q218 -23 174 -23Z" transform="translate(175.648, 22) scale(0.024, -0.024)" fill="#000"/>
</svg>