<svg xmlns="http://www.w3.org/2000/svg" width="198.6" height="24">
  <path d="M90 -14Q80 -14 59 -11Q43 6 30.5 35.5Q18 65 11.5 98.5Q5 132 5.5 165.5Q6 199 17 225Q17 226 26.5 249.0Q36 272 51.0 307.5Q66 343 85.0 386.5Q104 430 123.0 472.0Q142 514 159.5 548.5Q177 583 190 602Q199 616 206.5 629.0Q214 642 221 653Q232 671 241.5 686.5Q251 702 262.5 714.5Q274 727 288.0 736.5Q302 746 322 753Q334 748 343.0 742.5Q352 737 359 729L362 715Q364 708 368.5 705.5Q373 703 376 703Q389 700 398.5 696.5Q408 693 419 692Q423 686 426.5 680.0Q430 674 434 669Q454 640 467.0 613.0Q480 586 467 554L468 543Q473 536 473.0 530.0Q473 524 471 513Q470 505 469.5 495.5Q469 486 472 475L479 467Q495 459 510 459Q530 459 546.0 468.0Q562 477 576 486Q587 494 596.5 499.0Q606 504 615 506Q636 526 653.5 541.5Q671 557 690 573Q726 602 760.0 635.5Q794 669 814 719Q825 726 839 726Q853 726 867.0 720.5Q881 715 895 708Q898 706 900.5 705.0Q903 704 906 702Q906 691 915 682Q920 678 922.0 677.0Q924 676 926 675Q934 670 939.5 666.0Q945 662 948 655Q957 628 978 613Q976 602 979.0 591.5Q982 581 986 571Q988 567 989.0 563.5Q990 560 992 555L970 557L973 535Q976 518 970.5 497.0Q965 476 958 464Q960 434 960.0 416.5Q960 399 958.0 384.0Q956 369 951.5 355.5Q947 342 940 327Q944 251 922.5 188.0Q901 125 876 70Q873 63 870.0 57.0Q867 51 865 45Q854 42 845.0 38.0Q836 34 828 29Q817 22 806.0 17.5Q795 13 783 13Q735 48 733.5 134.0Q732 220 770 353Q777 358 776 368V379L766 380Q761 380 757.0 379.0Q753 378 751 370Q719 347 681.5 322.5Q644 298 604.0 277.5Q564 257 522.5 243.5Q481 230 442 230Q342 230 291 332L282 350L272 334Q269 329 261.5 314.5Q254 300 246.5 281.0Q239 262 233.5 242.0Q228 222 230 207Q218 196 206.5 182.0Q195 168 190 150Q188 145 189.0 140.5Q190 136 192 131Q191 124 188.0 121.0Q185 118 181 115Q176 110 171.0 104.5Q166 99 162 92Q160 86 159.0 79.5Q158 73 157 68Q157 57 154 53Q144 32 136.5 18.5Q129 5 122.0 -2.0Q115 -9 107.5 -11.5Q100 -14 90 -14Z" transform="translate(2.0, 24.625) scale(0.0234375, -0.0234375)" fill="#000000"/>
<path d="M583 300Q582 288 585.0 277.0Q588 266 592.5 255.5Q597 245 601.0 234.0Q605 223 607 212Q609 198 607.0 181.5Q605 165 600.0 149.5Q595 134 587.0 121.5Q579 109 568 103Q554 85 534.0 75.0Q514 65 497 51Q486 44 472.5 41.0Q459 38 445 35Q434 29 419.0 22.5Q404 16 388.0 10.5Q372 5 356.0 2.5Q340 0 328 1Q298 -10 269.5 -13.5Q241 -17 203 -9Q167 -14 136.5 -6.0Q106 2 82.5 19.5Q59 37 41.5 61.5Q24 86 13 113Q5 170 17.0 216.5Q29 263 51.5 302.5Q74 342 103.0 375.5Q132 409 159 441Q165 439 168.5 441.5Q172 444 175.0 448.5Q178 453 181.5 457.0Q185 461 190 462Q197 477 210.5 484.5Q224 492 232 506Q241 508 247.0 512.0Q253 516 258.5 521.0Q264 526 270.0 530.5Q276 535 284 537V548Q302 556 310.5 566.5Q319 577 331 592Q340 593 345.5 593.0Q351 593 362 595Q370 609 376.5 616.0Q383 623 396 631Q408 625 422.5 623.0Q437 621 448 610Q449 600 454.0 594.5Q459 589 465.0 584.5Q471 580 476.5 575.0Q482 570 484 561Q488 560 489.5 562.0Q491 564 495 563Q498 549 502.0 544.5Q506 540 510 527Q505 517 502.5 506.5Q500 496 490 491Q489 484 494.0 483.5Q499 483 500 478Q501 469 497 465Q521 426 540.0 382.5Q559 339 583 300ZM458 205Q462 216 468.5 223.0Q475 230 476 244Q471 252 470.0 256.5Q469 261 469 271Q447 302 431.0 337.5Q415 373 395 404Q393 400 388.0 396.0Q383 392 377 398Q375 390 370.0 386.5Q365 383 359.0 383.5Q353 384 346.5 386.5Q340 389 335 393Q306 370 277.0 348.0Q248 326 225 297Q221 295 220.0 295.5Q219 296 214 294Q206 275 194.5 259.5Q183 244 172.0 228.0Q161 212 153.0 194.0Q145 176 144 152Q161 138 184.0 135.0Q207 132 231.5 134.0Q256 136 279.5 140.5Q303 145 323 145Q365 155 395.0 171.5Q425 188 458 205Z" transform="translate(25.3671875, 24.625) scale(0.0234375, -0.0234375)" fill="#000000"/>
<path d="M333 176Q332 162 326.5 149.5Q321 137 313.0 125.5Q305 114 295.5 103.5Q286 93 277 85Q280 72 277.5 65.5Q275 59 276 46Q261 6 230.5 -7.5Q200 -21 173 -2Q162 6 154.5 18.5Q147 31 134 34Q137 51 131.0 68.0Q125 85 118 86Q115 107 109.0 131.0Q103 155 98.0 179.5Q93 204 89.5 227.5Q86 251 87 271Q88 281 83.5 289.0Q79 297 77 308Q73 331 74.5 356.5Q76 382 76 405Q76 427 73.5 452.5Q71 478 69.0 501.5Q67 525 67.0 544.5Q67 564 72 575Q78 587 88.5 594.5Q99 602 108 611Q130 609 143.0 593.0Q156 577 153 563Q174 550 186.5 529.5Q199 509 206.5 483.5Q214 458 217.0 429.5Q220 401 222.0 373.5Q224 346 226.0 321.0Q228 296 234 278Q271 331 296.0 372.5Q321 414 347.0 452.0Q373 490 405.0 529.0Q437 568 488 617Q498 616 504.5 613.0Q511 610 516.0 608.0Q521 606 528.0 604.5Q535 603 547 605Q551 595 553.0 590.5Q555 586 556.5 581.5Q558 577 560.5 570.0Q563 563 569 550Q572 547 571.0 542.0Q570 537 569.5 532.5Q569 528 569.0 526.0Q569 524 574 526Q571 512 563.5 500.5Q556 489 557 473Q534 443 506.5 411.0Q479 379 451.5 345.0Q424 311 399.0 273.5Q374 236 356 195Q351 195 348.5 192.0Q346 189 344.0 185.5Q342 182 339.5 179.0Q337 176 333 176Z" transform="translate(40.4609375, 24.625) scale(0.0234375, -0.0234375)" fill="#000000"/>
<path d="M558 563Q559 556 558.5 552.5Q558 549 557.5 546.0Q557 543 557.0 539.5Q557 536 559 529Q538 495 510.5 482.5Q483 470 451.0 464.5Q419 459 385.5 453.0Q352 447 319 427Q306 432 295.5 427.0Q285 422 265 424Q259 418 250.0 415.5Q241 413 232 410Q236 401 235.5 391.5Q235 382 238 376Q273 373 315.5 377.0Q358 381 399 382Q400 377 398.0 375.5Q396 374 397 370Q404 365 411.0 357.5Q418 350 425.0 343.0Q432 336 439.5 331.5Q447 327 457 328Q461 320 462.5 310.5Q464 301 460 291Q444 280 428.0 268.5Q412 257 394.5 248.0Q377 239 357.5 233.5Q338 228 314 229Q309 229 306.5 229.0Q304 229 300 232Q292 227 277.5 229.0Q263 231 255 226Q244 231 228.5 230.5Q213 230 201 234Q185 213 172.0 189.0Q159 165 149 138Q183 133 205.5 134.0Q228 135 248.0 137.5Q268 140 289.0 142.5Q310 145 342 144Q362 155 389.5 158.5Q417 162 440 170Q448 167 454.0 159.5Q460 152 465.5 145.5Q471 139 477.0 134.0Q483 129 492 130Q496 126 497.5 120.5Q499 115 500.0 110.0Q501 105 503.5 101.5Q506 98 512 99Q497 66 477.5 48.5Q458 31 433.0 22.0Q408 13 377.5 8.0Q347 3 310 -4Q301 -6 295.0 -3.5Q289 -1 281 -1Q258 -6 226.0 -10.0Q194 -14 161.0 -13.0Q128 -12 98.0 -4.5Q68 3 49 22Q41 29 38.5 38.5Q36 48 25 53Q24 66 21.0 82.0Q18 98 15.0 115.5Q12 133 10.5 150.0Q9 167 12 181Q15 196 24.5 208.0Q34 220 31 234Q36 235 37.0 239.5Q38 244 45 243Q51 261 58.0 277.0Q65 293 72.5 308.0Q80 323 87.5 338.5Q95 354 102 373Q88 386 81.5 401.5Q75 417 72.0 432.5Q69 448 67.0 464.5Q65 481 60 498Q70 513 84.5 522.5Q99 532 116.0 538.0Q133 544 153.0 548.0Q173 552 195 557Q235 570 266.5 577.0Q298 584 328.5 588.5Q359 593 392.0 597.0Q425 601 467 609Q476 600 484 600Q488 609 493.5 605.5Q499 602 498 611Q508 594 523.5 582.5Q539 571 558 563Z" transform="translate(52.109375, 24.625) scale(0.0234375, -0.0234375)" fill="#000000"/>
<path d="M692 18Q682 13 673.5 9.0Q665 5 654 5Q615 34 613.5 106.0Q612 178 644 289Q649 292 649 301L640 311Q636 311 632.5 310.0Q629 309 627 303Q601 284 570.0 263.5Q539 243 505.5 225.5Q472 208 437.5 197.0Q403 186 370 186Q286 186 244 271L236 286L228 273Q225 269 219.0 256.5Q213 244 207.0 228.0Q201 212 196.5 195.5Q192 179 193 167Q184 158 174.0 146.0Q164 134 159 119Q157 111 161 104Q159 95 152 90Q148 85 143.5 80.5Q139 76 136 71Q134 66 133.5 61.0Q133 56 132 51Q132 44 130 38Q113 3 103.0 -7.5Q93 -18 76 -18Q68 -18 50 -15Q37 -1 26.5 23.5Q16 48 10.5 76.0Q5 104 5.5 132.5Q6 161 15 182Q15 183 23.0 202.0Q31 221 43.5 251.0Q56 281 72.0 317.5Q88 354 104.0 388.5Q120 423 134.5 452.0Q149 481 159 496Q167 508 173.5 518.5Q180 529 186 539Q204 570 220.5 590.5Q237 611 269 623Q291 614 301 602L303 591Q307 581 315 581Q326 578 333.5 575.5Q341 573 350 571Q357 563 363 552Q371 540 378.5 528.5Q386 517 390.5 505.5Q395 494 395.5 482.0Q396 470 391 457L392 447Q397 438 394 422Q393 415 393.0 407.5Q393 400 395 391Q413 377 427 377Q443 377 456.5 384.5Q470 392 482 400Q490 406 498.0 410.5Q506 415 514 416Q532 433 546.5 446.0Q561 459 577 472Q607 496 635.0 524.0Q663 552 680 594Q690 600 701 600Q712 600 724.0 595.0Q736 590 747 585Q750 583 752.5 582.0Q755 581 757 580Q757 570 765 563Q769 560 770.0 559.0Q771 558 773 557Q788 549 792 541Q799 518 817 506Q815 496 817.5 487.5Q820 479 824 470Q825 467 826.0 464.0Q827 461 829 457L810 459L813 440Q815 426 810.5 409.0Q806 392 800 382Q801 356 801.5 341.5Q802 327 800.0 314.5Q798 302 794.5 291.0Q791 280 785 267Q789 203 770.5 150.5Q752 98 732 52Q730 47 727.5 42.0Q725 37 723 32Q714 29 707.0 25.5Q700 22 692 18Z" transform="translate(64.625, 24.625) scale(0.0234375, -0.0234375)" fill="#000000"/>
<path d="M558 563Q559 556 558.5 552.5Q558 549 557.5 546.0Q557 543 557.0 539.5Q557 536 559 529Q538 495 510.5 482.5Q483 470 451.0 464.5Q419 459 385.5 453.0Q352 447 319 427Q306 432 295.5 427.0Q285 422 265 424Q259 418 250.0 415.5Q241 413 232 410Q236 401 235.5 391.5Q235 382 238 376Q273 373 315.5 377.0Q358 381 399 382Q400 377 398.0 375.5Q396 374 397 370Q404 365 411.0 357.5Q418 350 425.0 343.0Q432 336 439.5 331.5Q447 327 457 328Q461 320 462.5 310.5Q464 301 460 291Q444 280 428.0 268.5Q412 257 394.5 248.0Q377 239 357.5 233.5Q338 228 314 229Q309 229 306.5 229.0Q304 229 300 232Q292 227 277.5 229.0Q263 231 255 226Q244 231 228.5 230.5Q213 230 201 234Q185 213 172.0 189.0Q159 165 149 138Q183 133 205.5 134.0Q228 135 248.0 137.5Q268 140 289.0 142.5Q310 145 342 144Q362 155 389.5 158.5Q417 162 440 170Q448 167 454.0 159.5Q460 152 465.5 145.5Q471 139 477.0 134.0Q483 129 492 130Q496 126 497.5 120.5Q499 115 500.0 110.0Q501 105 503.5 101.5Q506 98 512 99Q497 66 477.5 48.5Q458 31 433.0 22.0Q408 13 377.5 8.0Q347 3 310 -4Q301 -6 295.0 -3.5Q289 -1 281 -1Q258 -6 226.0 -10.0Q194 -14 161.0 -13.0Q128 -12 98.0 -4.5Q68 3 49 22Q41 29 38.5 38.5Q36 48 25 53Q24 66 21.0 82.0Q18 98 15.0 115.5Q12 133 10.5 150.0Q9 167 12 181Q15 196 24.5 208.0Q34 220 31 234Q36 235 37.0 239.5Q38 244 45 243Q51 261 58.0 277.0Q65 293 72.5 308.0Q80 323 87.5 338.5Q95 354 102 373Q88 386 81.5 401.5Q75 417 72.0 432.5Q69 448 67.0 464.5Q65 481 60 498Q70 513 84.5 522.5Q99 532 116.0 538.0Q133 544 153.0 548.0Q173 552 195 557Q235 570 266.5 577.0Q298 584 328.5 588.5Q359 593 392.0 597.0Q425 601 467 609Q476 600 484 600Q488 609 493.5 605.5Q499 602 498 611Q508 594 523.5 582.5Q539 571 558 563Z" transform="translate(84.171875, 24.625) scale(0.0234375, -0.0234375)" fill="#000000"/>
<path d="M205 182Q196 180 192.0 171.5Q188 163 184.5 154.0Q181 145 177.5 137.5Q174 130 167 130Q166 122 161.5 116.0Q157 110 153.0 103.5Q149 97 147.0 89.5Q145 82 149 72Q141 66 139.0 55.0Q137 44 134.5 34.0Q132 24 126.0 17.0Q120 10 104 11Q101 7 103.0 6.0Q105 5 106 -1Q95 1 89.5 -2.5Q84 -6 76 -7Q57 -1 44.5 14.0Q32 29 22.5 47.5Q13 66 5.5 85.0Q-2 104 -9 118Q-6 129 -8.0 139.5Q-10 150 -15 157Q34 261 92.0 379.0Q150 497 202 612Q225 603 247.5 591.5Q270 580 288.5 565.0Q307 550 320.0 530.5Q333 511 337 487Q335 481 332.5 482.5Q330 484 328 481Q332 476 332.5 474.0Q333 472 332.5 470.0Q332 468 332.0 464.5Q332 461 335 455Q331 456 329.5 454.0Q328 452 323 454Q327 443 325.5 436.0Q324 429 321.0 423.5Q318 418 316.0 411.5Q314 405 317 395Q314 395 312.5 393.5Q311 392 310.0 390.5Q309 389 307.5 387.5Q306 386 303 387Q306 365 305.0 343.0Q304 321 303.5 298.5Q303 276 304.0 251.5Q305 227 311 201Q347 222 368.5 255.0Q390 288 403.5 329.0Q417 370 424.0 417.0Q431 464 439 513Q448 522 453.0 535.0Q458 548 462.0 562.5Q466 577 470.0 591.5Q474 606 480 618Q495 616 505.5 608.5Q516 601 525.0 592.5Q534 584 544.0 576.5Q554 569 569 567Q581 550 591.0 534.0Q601 518 604 500Q599 492 596.5 482.0Q594 472 591.0 462.0Q588 452 583.0 443.5Q578 435 569 429Q566 403 561.5 381.5Q557 360 552.5 339.0Q548 318 545.0 295.5Q542 273 543 246Q535 223 526.0 197.0Q517 171 512 150Q496 137 487.0 119.0Q478 101 468 83Q464 79 463.0 81.0Q462 83 456 84Q457 80 456.0 78.0Q455 76 453.5 74.5Q452 73 451.5 70.0Q451 67 453 62Q439 56 428.0 45.0Q417 34 404.5 25.0Q392 16 374.5 13.0Q357 10 329 20Q288 50 256.5 89.0Q225 128 205 182Z" transform="translate(96.6875, 24.625) scale(0.0234375, -0.0234375)" fill="#000000"/>
<path d="M569 481Q544 481 515.0 477.5Q486 474 458 470Q438 467 419.5 465.0Q401 463 386 462Q379 440 372.0 423.0Q365 406 357 390Q349 373 342.5 355.5Q336 338 330 318Q320 302 313.5 288.5Q307 275 303 258Q291 243 285.0 226.5Q279 210 276 198L272 186Q266 180 265.0 176.5Q264 173 260 170Q259 159 253 148Q251 143 250.0 138.5Q249 134 249 132Q249 122 244 119Q245 114 244.0 108.5Q243 103 242 98Q239 86 240 79Q243 75 245.5 72.0Q248 69 249 64Q255 60 258 59Q262 56 270 52L279 42Q284 13 270 -4Q255 -23 219 -23H207Q202 -18 201 -15Q193 -12 188.0 -10.0Q183 -8 179 -2Q166 4 158 8L149 13Q149 24 149 25Q142 34 138.5 45.0Q135 56 133 67Q131 76 128.5 84.0Q126 92 122 98Q120 156 133.0 196.0Q146 236 160 273Q168 293 176.0 313.5Q184 334 190 356L199 366Q206 382 210.5 392.5Q215 403 220 414Q223 421 225.5 427.5Q228 434 230 439Q224 439 219.0 438.5Q214 438 209 437Q203 436 198.0 435.5Q193 435 188 435Q181 435 178 436Q167 431 154 431H144Q141 431 138.5 431.5Q136 432 134 432Q124 432 118 429Q106 429 95 429H85Q83 429 80.0 428.5Q77 428 75 428Q68 428 60.0 429.5Q52 431 43 436Q31 452 27 453L18 465Q17 471 15.0 476.5Q13 482 11 489Q7 499 3.5 510.5Q0 522 0 538Q1 546 4.0 550.0Q7 554 9 557L12 572L25 571H53Q85 571 118.0 573.5Q151 576 186 579Q206 581 226.5 583.0Q247 585 269 587Q273 596 277 604L287 609Q305 610 312.5 604.5Q320 599 325 594Q347 596 369.5 598.5Q392 601 415 605Q449 610 483.5 614.0Q518 618 550 618Q564 618 577.0 617.0Q590 616 601 614L611 607Q614 601 619.5 596.0Q625 591 631 586Q643 575 655.0 560.0Q667 545 664 516Q656 504 652 502L643 490L633 491Q627 491 622.0 489.5Q617 488 612 486Q608 484 604.0 482.5Q600 481 595 480Q586 480 580.5 480.5Q575 481 569 481Z" transform="translate(110.234375, 24.625) scale(0.0234375, -0.0234375)" fill="#000000"/>
<path d="M28 86Q23 85 19.0 93.5Q15 102 10 110H21Q14 132 17.5 150.5Q21 169 26.0 186.5Q31 204 34.5 220.5Q38 237 31 255Q36 252 38.5 257.5Q41 263 42.5 271.5Q44 280 43.5 289.5Q43 299 42 305Q55 336 62.5 369.0Q70 402 76.0 434.5Q82 467 89.5 497.5Q97 528 109 555Q123 557 138.5 551.5Q154 546 159 538Q190 562 214.0 596.0Q238 630 262.5 662.5Q287 695 318.0 720.0Q349 745 395 750Q419 733 449.0 713.5Q479 694 498 665Q506 660 513.5 654.5Q521 649 529 644V629Q543 616 552.5 598.5Q562 581 569.5 561.5Q577 542 584.0 522.0Q591 502 600 485Q598 479 598.5 474.5Q599 470 600.5 465.5Q602 461 603.0 455.5Q604 450 604 442Q600 389 569.5 356.5Q539 324 495.5 303.5Q452 283 403.0 268.5Q354 254 314 237Q314 233 318.5 233.0Q323 233 321 227Q351 209 367.5 198.0Q384 187 398.5 179.5Q413 172 430.5 167.0Q448 162 479 155Q510 148 527.5 143.5Q545 139 559.0 136.5Q573 134 589.0 132.0Q605 130 632 127Q643 116 650.0 101.0Q657 86 660.0 71.0Q663 56 661.5 42.5Q660 29 653 21Q654 17 658.5 17.5Q663 18 668 17Q661 12 656.0 5.0Q651 -2 646.0 -9.0Q641 -16 634.5 -22.0Q628 -28 618 -29Q582 -43 526.0 -30.0Q470 -17 383 16Q340 32 313.0 45.0Q286 58 266.0 70.5Q246 83 229.0 97.5Q212 112 190 132Q187 131 186.5 128.0Q186 125 183 124Q178 84 167.5 59.0Q157 34 137 8Q121 11 115.5 5.0Q110 -1 102 -6Q92 -8 87.0 -5.5Q82 -3 78.0 0.0Q74 3 69.0 6.0Q64 9 53 8Q50 17 47.0 25.5Q44 34 31 33Q34 42 33.0 48.5Q32 55 30.0 60.5Q28 66 26.5 72.0Q25 78 28 86ZM362 543Q349 524 333.0 508.5Q317 493 301.5 476.5Q286 460 274.0 440.5Q262 421 257 394Q299 399 345.0 417.5Q391 436 432 453Q427 490 406.0 512.5Q385 535 362 543Z" transform="translate(130.625, 24.625) scale(0.0234375, -0.0234375)" fill="#000000"/>
<path d="M590 569Q592 547 597.0 531.0Q602 515 608 500Q613 486 617.5 472.5Q622 459 624 440Q616 414 612.5 392.0Q609 370 605 346Q589 311 574.0 284.0Q559 257 550 237Q545 232 541.5 225.5Q538 219 534 212Q532 209 529.0 203.0Q526 197 524 195L504 202L500 177L486 173L476 161Q457 128 436.0 105.5Q415 83 388.5 65.5Q362 48 328.5 33.0Q295 18 253 0Q236 2 223.5 2.5Q211 3 200 4Q181 4 153 7Q150 15 144.0 18.0Q138 21 133 21Q116 29 107.5 44.5Q99 60 91 78Q86 89 81.0 98.5Q76 108 70 118L87 123L65 147Q63 150 60.0 152.5Q57 155 55 158L54 174Q51 243 51.5 300.5Q52 358 67 403V414Q70 436 73.0 450.5Q76 465 78 478Q81 500 87 519Q101 522 108.0 530.5Q115 539 120 546Q134 547 139.0 542.0Q144 537 149 526Q154 517 161.5 506.0Q169 495 184 489Q186 481 189.5 472.5Q193 464 197 454Q205 437 211.5 418.5Q218 400 219 383Q209 364 203.5 339.0Q198 314 196.5 288.5Q195 263 197.5 239.5Q200 216 206 200L212 187L229 189Q259 197 283.5 206.5Q308 216 329.0 229.0Q350 242 369.0 259.5Q388 277 409 300Q430 323 445.5 352.5Q461 382 471.5 414.0Q482 446 487.5 477.5Q493 509 495 537Q512 543 512 561L510 572Q506 578 510 586Q516 605 538 615Q554 605 566.5 593.0Q579 581 590 569Z" transform="translate(146.140625, 24.625) scale(0.0234375, -0.0234375)" fill="#000000"/>
<path d="M264 11Q236 2 203.0 -7.0Q170 -16 137 -16Q87 -16 58 9Q53 20 49 24Q46 28 43.5 32.5Q41 37 40 45Q28 59 21.0 77.5Q14 96 11.5 115.5Q9 135 10.5 155.0Q12 175 17 193Q19 197 19.5 201.0Q20 205 21 210Q25 226 29.5 241.0Q34 256 42 267Q38 276 42.0 287.0Q46 298 51 307Q65 345 74.5 371.5Q84 398 94 424Q111 469 126.0 513.0Q141 557 153 608Q161 613 165 615Q171 617 175 618Q193 609 217.0 600.5Q241 592 257 592Q265 587 267.0 584.5Q269 582 271 580Q282 567 290.0 553.5Q298 540 295 518Q289 509 286 509Q281 489 275.5 475.0Q270 461 264 447Q257 432 251.0 417.0Q245 402 241 380Q237 375 235.5 371.0Q234 367 232 362Q230 357 227.5 351.5Q225 346 220 342Q217 316 210.5 300.0Q204 284 197 268Q185 239 175.5 210.0Q166 181 164 144Q169 146 173.5 146.0Q178 146 182 146Q191 146 203 143Q233 159 268.5 162.0Q304 165 339 166Q353 166 367.0 166.0Q381 166 393 168Q402 163 404.5 162.5Q407 162 412 162Q419 162 424 161Q436 150 447.0 145.0Q458 140 470 136Q481 132 491.5 127.5Q502 123 512 115L519 72Q526 63 525 60Q525 52 521 48L523 37Q508 34 502.5 30.0Q497 26 492 21Q484 20 480.5 20.0Q477 20 474 20Q460 20 440 15Q413 24 384 24Q373 24 361.0 23.0Q349 22 337 21Q325 19 312.5 18.0Q300 17 287 17Z" transform="translate(160.1796875, 24.625) scale(0.0234375, -0.0234375)" fill="#000000"/>
<path d="M558 563Q559 556 558.5 552.5Q558 549 557.5 546.0Q557 543 557.0 539.5Q557 536 559 529Q538 495 510.5 482.5Q483 470 451.0 464.5Q419 459 385.5 453.0Q352 447 319 427Q306 432 295.5 427.0Q285 422 265 424Q259 418 250.0 415.5Q241 413 232 410Q236 401 235.5 391.5Q235 382 238 376Q273 373 315.5 377.0Q358 381 399 382Q400 377 398.0 375.5Q396 374 397 370Q404 365 411.0 357.5Q418 350 425.0 343.0Q432 336 439.5 331.5Q447 327 457 328Q461 320 462.5 310.5Q464 301 460 291Q444 280 428.0 268.5Q412 257 394.5 248.0Q377 239 357.5 233.5Q338 228 314 229Q309 229 306.5 229.0Q304 229 300 232Q292 227 277.5 229.0Q263 231 255 226Q244 231 228.5 230.5Q213 230 201 234Q185 213 172.0 189.0Q159 165 149 138Q183 133 205.5 134.0Q228 135 248.0 137.5Q268 140 289.0 142.5Q310 145 342 144Q362 155 389.5 158.5Q417 162 440 170Q448 167 454.0 159.5Q460 152 465.5 145.5Q471 139 477.0 134.0Q483 129 492 130Q496 126 497.5 120.5Q499 115 500.0 110.0Q501 105 503.5 101.5Q506 98 512 99Q497 66 477.5 48.5Q458 31 433.0 22.0Q408 13 377.5 8.0Q347 3 310 -4Q301 -6 295.0 -3.5Q289 -1 281 -1Q258 -6 226.0 -10.0Q194 -14 161.0 -13.0Q128 -12 98.0 -4.5Q68 3 49 22Q41 29 38.5 38.5Q36 48 25 53Q24 66 21.0 82.0Q18 98 15.0 115.5Q12 133 10.5 150.0Q9 167 12 181Q15 196 24.5 208.0Q34 220 31 234Q36 235 37.0 239.5Q38 244 45 243Q51 261 58.0 277.0Q65 293 72.5 308.0Q80 323 87.5 338.5Q95 354 102 373Q88 386 81.5 401.5Q75 417 72.0 432.5Q69 448 67.0 464.5Q65 481 60 498Q70 513 84.5 522.5Q99 532 116.0 538.0Q133 544 153.0 548.0Q173 552 195 557Q235 570 266.5 577.0Q298 584 328.5 588.5Q359 593 392.0 597.0Q425 601 467 609Q476 600 484 600Q488 609 493.5 605.5Q499 602 498 611Q508 594 523.5 582.5Q539 571 558 563Z" transform="translate(172.9765625, 24.625) scale(0.0234375, -0.0234375)" fill="#000000"/>
<path d="M16 450Q23 471 38.5 486.0Q54 501 72.5 511.5Q91 522 111.0 529.0Q131 536 149 541Q189 558 234.5 573.5Q280 589 327.5 601.0Q375 613 425.0 616.5Q475 620 530 604Q533 594 539.0 585.0Q545 576 551.5 567.0Q558 558 563.0 549.5Q568 541 569 532Q579 523 585.0 512.5Q591 502 587 485Q577 477 567.5 470.5Q558 464 547 459Q510 468 472.0 465.0Q434 462 404 460Q395 469 382.5 469.0Q370 469 356.5 465.0Q343 461 329.5 457.0Q316 453 304 455Q294 447 279.5 444.5Q265 442 248 440Q247 435 250.0 433.5Q253 432 251 427Q257 420 266.5 417.0Q276 414 286.5 411.0Q297 408 305.0 403.5Q313 399 316 389Q331 389 342.0 382.0Q353 375 360.0 365.0Q367 355 370.5 343.5Q374 332 374 323Q377 315 381.0 316.0Q385 317 390 312Q393 299 405.0 285.5Q417 272 424 256Q426 231 427.0 211.5Q428 192 420 172Q405 135 378.5 106.0Q352 77 318.5 54.5Q285 32 247.0 16.0Q209 0 173 -11Q169 -10 165.0 -11.0Q161 -12 163 -6Q155 -13 145.5 -15.0Q136 -17 125.0 -16.5Q114 -16 102.5 -15.0Q91 -14 81 -16Q74 -9 68.5 -2.5Q63 4 60 14Q55 14 55.5 19.0Q56 24 52 24Q58 34 57.5 35.5Q57 37 54.5 38.0Q52 39 50.0 40.5Q48 42 49 45Q53 53 52.0 63.5Q51 74 50.0 85.0Q49 96 51.5 106.0Q54 116 66 122Q100 118 130.5 124.5Q161 131 188.0 143.0Q215 155 239.5 169.0Q264 183 288 194Q291 203 296.5 209.0Q302 215 308.0 220.0Q314 225 319.0 231.0Q324 237 326 246Q327 253 322.5 254.5Q318 256 318 262L307 265Q288 276 264.0 283.5Q240 291 223 300Q212 294 202.5 297.0Q193 300 178 303Q144 305 112.5 310.0Q81 315 52 328Q50 333 47.0 337.0Q44 341 36 339Q30 347 24.0 354.5Q18 362 13 371Q15 383 16.0 391.5Q17 400 10 408Q14 421 16.0 429.0Q18 437 16 450Z" transform="translate(185.4921875, 24.625) scale(0.0234375, -0.0234375)" fill="#000000"/>
</svg>