<?xml version="1.0" encoding="UTF-8"?>
<svg xmlns="http://www.w3.org/2000/svg" viewBox="0 0 78.8 18" 
     width="78.8" height="18">
  <g transform="translate(0, 15.299999999999999) scale(0.017578, -0.017578)" fill="#000000">
    <g transform="translate(0, 0)"><path d="M241 -4Q197 -10 161.0 0.0Q125 10 96.5 31.0Q68 52 47.5 81.0Q27 110 14 143Q5 211 19.0 266.5Q33 322 60.0 369.0Q87 416 121.5 457.0Q156 498 188 536Q195 533 199.5 536.0Q204 539 207.5 544.0Q211 549 215.5 554.0Q220 559 226 561Q230 570 236.5 576.0Q243 582 250.5 587.5Q258 593 264.5 599.0Q271 605 276 614Q286 616 293.5 621.0Q301 626 307.5 632.0Q314 638 321.0 643.0Q328 648 338 651V664Q360 674 370.0 686.0Q380 698 394 717Q405 718 411.5 718.0Q418 718 432 720Q441 737 449.0 745.0Q457 753 472 763Q487 755 504.0 753.5Q521 752 535 738Q536 726 542.0 719.5Q548 713 555.0 707.5Q562 702 569.0 696.0Q576 690 578 679Q583 679 584.5 681.0Q586 683 591 682Q593 674 595.0 669.0Q597 664 599.5 660.0Q602 656 604.5 651.0Q607 646 609 639Q604 627 600.0 613.5Q596 600 584 595Q584 587 590.0 586.5Q596 586 597 579Q598 570 594 564Q622 517 645.0 465.5Q668 414 697 367Q695 353 698.5 339.5Q702 326 707.5 313.0Q713 300 718.0 287.0Q723 274 725 261Q727 244 725.0 224.5Q723 205 717.0 187.0Q711 169 701.0 153.5Q691 138 678 130Q662 110 638.0 97.5Q614 85 594 68Q580 60 564.0 56.5Q548 53 531 49Q518 41 500.0 33.5Q482 26 463.0 20.0Q444 14 425.0 10.5Q406 7 391 9Q355 -4 321.0 -9.0Q287 -14 241 -4ZM254 360Q244 337 230.5 318.5Q217 300 204.0 281.0Q191 262 181.5 240.5Q172 219 171 190Q191 173 218.5 169.5Q246 166 275.0 168.5Q304 171 333.0 176.0Q362 181 385 181Q385 190 393 190Q435 194 471.0 213.5Q507 233 546 253Q551 265 559.0 274.0Q567 283 568 300Q563 309 561.5 315.0Q560 321 560 333Q534 369 515.0 411.5Q496 454 471 492Q469 487 463.0 482.0Q457 477 450 484Q447 474 441.0 470.5Q435 467 427.5 467.0Q420 467 412.5 470.0Q405 473 399 478Q364 450 329.5 424.0Q295 398 267 363Q262 360 261.0 361.0Q260 362 254 360Z"/></g>
    <g transform="translate(762, 0)"><path d="M377 620Q419 615 452.0 603.0Q485 591 508 571Q524 546 538.5 517.0Q553 488 560.5 456.5Q568 425 567.5 392.0Q567 359 553 325Q524 289 482.5 266.5Q441 244 393.0 230.0Q345 216 293.5 206.0Q242 196 193 186Q194 163 193.5 137.5Q193 112 188.5 86.5Q184 61 175.0 37.0Q166 13 151 -7Q134 -7 116.0 -11.5Q98 -16 84 -19Q77 -15 71.5 -11.5Q66 -8 56 -7Q58 3 51.0 13.5Q44 24 37.0 35.0Q30 46 27.5 56.0Q25 66 37 75Q30 82 30 93Q37 105 42.5 126.0Q48 147 51.5 167.5Q55 188 53.0 205.0Q51 222 33 230Q34 232 37.0 232.0Q40 232 43 233Q35 239 33.5 250.0Q32 261 26 269Q28 274 29.0 278.0Q30 282 36 281Q33 299 36.5 315.0Q40 331 47.0 345.5Q54 360 64.0 374.0Q74 388 83 402Q90 403 91.5 400.0Q93 397 98 401Q111 411 116.0 422.0Q121 433 121 447Q128 468 138.0 489.5Q148 511 160.0 529.0Q172 547 186.5 561.0Q201 575 217 582Q229 592 247.0 600.5Q265 609 286.0 613.5Q307 618 328.5 618.5Q350 619 368 614Q373 612 373.5 616.0Q374 620 377 620ZM336 381Q361 392 389.5 398.5Q418 405 437 423Q425 434 402.0 442.5Q379 451 352.0 453.0Q325 455 297.5 448.5Q270 442 250 424Q244 406 240.0 395.5Q236 385 229 370Q231 365 235.5 362.5Q240 360 242 355Q265 367 288.5 368.5Q312 370 336 381Z"/></g>
    <g transform="translate(1299, 0)"><path d="M569 481Q544 481 515.0 477.5Q486 474 458 470Q438 467 419.5 465.0Q401 463 386 462Q379 440 372.0 423.0Q365 406 357 390Q349 373 342.5 355.5Q336 338 330 318Q320 302 313.5 288.5Q307 275 303 258Q291 243 285.0 226.5Q279 210 276 198L272 186Q266 180 265.0 176.5Q264 173 260 170Q259 159 253 148Q251 143 250.0 138.5Q249 134 249 132Q249 122 244 119Q245 114 244.0 108.5Q243 103 242 98Q239 86 240 79Q243 75 245.5 72.0Q248 69 249 64Q255 60 258 59Q262 56 270 52L279 42Q284 13 270 -4Q255 -23 219 -23H207Q202 -18 201 -15Q193 -12 188.0 -10.0Q183 -8 179 -2Q166 4 158 8L149 13Q149 24 149 25Q142 34 138.5 45.0Q135 56 133 67Q131 76 128.5 84.0Q126 92 122 98Q120 156 133.0 196.0Q146 236 160 273Q168 293 176.0 313.5Q184 334 190 356L199 366Q206 382 210.5 392.5Q215 403 220 414Q223 421 225.5 427.5Q228 434 230 439Q224 439 219.0 438.5Q214 438 209 437Q203 436 198.0 435.5Q193 435 188 435Q181 435 178 436Q167 431 154 431H144Q141 431 138.5 431.5Q136 432 134 432Q124 432 118 429Q106 429 95 429H85Q83 429 80.0 428.5Q77 428 75 428Q68 428 60.0 429.5Q52 431 43 436Q31 452 27 453L18 465Q17 471 15.0 476.5Q13 482 11 489Q7 499 3.5 510.5Q0 522 0 538Q1 546 4.0 550.0Q7 554 9 557L12 572L25 571H53Q85 571 118.0 573.5Q151 576 186 579Q206 581 226.5 583.0Q247 585 269 587Q273 596 277 604L287 609Q305 610 312.5 604.5Q320 599 325 594Q347 596 369.5 598.5Q392 601 415 605Q449 610 483.5 614.0Q518 618 550 618Q564 618 577.0 617.0Q590 616 601 614L611 607Q614 601 619.5 596.0Q625 591 631 586Q643 575 655.0 560.0Q667 545 664 516Q656 504 652 502L643 490L633 491Q627 491 622.0 489.5Q617 488 612 486Q608 484 604.0 482.5Q600 481 595 480Q586 480 580.5 480.5Q575 481 569 481Z"/></g>
    <g transform="translate(1790, 0)"><path d="M212 70Q217 40 208.5 23.0Q200 6 184.5 -2.5Q169 -11 149.0 -12.0Q129 -13 111 -10Q101 4 93.0 25.0Q85 46 78.0 68.5Q71 91 65.5 113.0Q60 135 56 152Q61 164 62.5 179.5Q64 195 64.5 211.0Q65 227 65.5 243.5Q66 260 68 275Q75 317 88.5 355.0Q102 393 110 434Q112 443 108.5 451.0Q105 459 107 466Q108 470 113.0 471.5Q118 473 119 478Q122 489 120.5 496.0Q119 503 124 513Q129 521 136.5 536.5Q144 552 142 569Q151 575 159.0 583.0Q167 591 175.5 597.5Q184 604 194.5 609.0Q205 614 220 614Q228 604 230.5 592.0Q233 580 235.5 568.0Q238 556 243.0 545.5Q248 535 260 529Q260 521 260.0 509.0Q260 497 261.0 485.5Q262 474 265.5 464.5Q269 455 277 452Q259 404 243.5 357.0Q228 310 218.0 262.5Q208 215 205.5 167.0Q203 119 212 70Z"/></g>
    <g transform="translate(2118, 0)"><path d="M583 300Q582 288 585.0 277.0Q588 266 592.5 255.5Q597 245 601.0 234.0Q605 223 607 212Q609 198 607.0 181.5Q605 165 600.0 149.5Q595 134 587.0 121.5Q579 109 568 103Q554 85 534.0 75.0Q514 65 497 51Q486 44 472.5 41.0Q459 38 445 35Q434 29 419.0 22.5Q404 16 388.0 10.5Q372 5 356.0 2.5Q340 0 328 1Q298 -10 269.5 -13.5Q241 -17 203 -9Q167 -14 136.5 -6.0Q106 2 82.5 19.5Q59 37 41.5 61.5Q24 86 13 113Q5 170 17.0 216.5Q29 263 51.5 302.5Q74 342 103.0 375.5Q132 409 159 441Q165 439 168.5 441.5Q172 444 175.0 448.5Q178 453 181.5 457.0Q185 461 190 462Q197 477 210.5 484.5Q224 492 232 506Q241 508 247.0 512.0Q253 516 258.5 521.0Q264 526 270.0 530.5Q276 535 284 537V548Q302 556 310.5 566.5Q319 577 331 592Q340 593 345.5 593.0Q351 593 362 595Q370 609 376.5 616.0Q383 623 396 631Q408 625 422.5 623.0Q437 621 448 610Q449 600 454.0 594.5Q459 589 465.0 584.5Q471 580 476.5 575.0Q482 570 484 561Q488 560 489.5 562.0Q491 564 495 563Q498 549 502.0 544.5Q506 540 510 527Q505 517 502.5 506.5Q500 496 490 491Q489 484 494.0 483.5Q499 483 500 478Q501 469 497 465Q521 426 540.0 382.5Q559 339 583 300ZM458 205Q462 216 468.5 223.0Q475 230 476 244Q471 252 470.0 256.5Q469 261 469 271Q447 302 431.0 337.5Q415 373 395 404Q393 400 388.0 396.0Q383 392 377 398Q375 390 370.0 386.5Q365 383 359.0 383.5Q353 384 346.5 386.5Q340 389 335 393Q306 370 277.0 348.0Q248 326 225 297Q221 295 220.0 295.5Q219 296 214 294Q206 275 194.5 259.5Q183 244 172.0 228.0Q161 212 153.0 194.0Q145 176 144 152Q161 138 184.0 135.0Q207 132 231.5 134.0Q256 136 279.5 140.5Q303 145 323 145Q365 155 395.0 171.5Q425 188 458 205Z"/></g>
    <g transform="translate(2762, 0)"><path d="M205 182Q196 180 192.0 171.5Q188 163 184.5 154.0Q181 145 177.5 137.5Q174 130 167 130Q166 122 161.5 116.0Q157 110 153.0 103.5Q149 97 147.0 89.5Q145 82 149 72Q141 66 139.0 55.0Q137 44 134.5 34.0Q132 24 126.0 17.0Q120 10 104 11Q101 7 103.0 6.0Q105 5 106 -1Q95 1 89.5 -2.5Q84 -6 76 -7Q57 -1 44.5 14.0Q32 29 22.5 47.5Q13 66 5.5 85.0Q-2 104 -9 118Q-6 129 -8.0 139.5Q-10 150 -15 157Q34 261 92.0 379.0Q150 497 202 612Q225 603 247.5 591.5Q270 580 288.5 565.0Q307 550 320.0 530.5Q333 511 337 487Q335 481 332.5 482.5Q330 484 328 481Q332 476 332.5 474.0Q333 472 332.5 470.0Q332 468 332.0 464.5Q332 461 335 455Q331 456 329.5 454.0Q328 452 323 454Q327 443 325.5 436.0Q324 429 321.0 423.5Q318 418 316.0 411.5Q314 405 317 395Q314 395 312.5 393.5Q311 392 310.0 390.5Q309 389 307.5 387.5Q306 386 303 387Q306 365 305.0 343.0Q304 321 303.5 298.5Q303 276 304.0 251.5Q305 227 311 201Q347 222 368.5 255.0Q390 288 403.5 329.0Q417 370 424.0 417.0Q431 464 439 513Q448 522 453.0 535.0Q458 548 462.0 562.5Q466 577 470.0 591.5Q474 606 480 618Q495 616 505.5 608.5Q516 601 525.0 592.5Q534 584 544.0 576.5Q554 569 569 567Q581 550 591.0 534.0Q601 518 604 500Q599 492 596.5 482.0Q594 472 591.0 462.0Q588 452 583.0 443.5Q578 435 569 429Q566 403 561.5 381.5Q557 360 552.5 339.0Q548 318 545.0 295.5Q542 273 543 246Q535 223 526.0 197.0Q517 171 512 150Q496 137 487.0 119.0Q478 101 468 83Q464 79 463.0 81.0Q462 83 456 84Q457 80 456.0 78.0Q455 76 453.5 74.5Q452 73 451.5 70.0Q451 67 453 62Q439 56 428.0 45.0Q417 34 404.5 25.0Q392 16 374.5 13.0Q357 10 329 20Q288 50 256.5 89.0Q225 128 205 182Z"/></g>
    <g transform="translate(3340, 0)"><path d="M529 84Q523 67 511.5 49.5Q500 32 484.5 18.5Q469 5 450.0 -4.0Q431 -13 410 -14Q397 -11 392.5 -7.5Q388 -4 383 -1Q380 1 377.5 2.5Q375 4 373 5L361 10L365 23Q367 31 364.0 35.5Q361 40 352 48Q349 51 346.0 54.0Q343 57 341 60L324 79L351 86Q376 93 384.5 104.0Q393 115 391 141Q371 145 357.5 142.0Q344 139 330 135Q312 130 293.5 126.5Q275 123 253 123Q245 123 238.0 123.5Q231 124 223 125L213 127Q211 138 209.0 139.5Q207 141 205 143Q200 148 194.5 156.5Q189 165 192 178Q187 187 186 196Q180 184 177 171L173 161L163 159Q161 158 160.0 154.5Q159 151 159 149L154 132Q152 130 150.0 128.5Q148 127 146 125Q144 116 141.0 107.0Q138 98 135 90Q130 77 126.5 64.5Q123 52 124 40L120 29Q115 23 109.0 19.5Q103 16 97 13Q95 11 91.5 9.5Q88 8 86 7L83 -4L71 -6Q60 -8 55.5 -9.0Q51 -10 45 -10L35 -9Q24 0 18.0 5.5Q12 11 4 16Q-5 28 -6.0 34.0Q-7 40 -8 45Q-10 51 -10.5 55.0Q-11 59 -13 61L-26 73L-15 82L-14 99Q6 150 28.5 197.0Q51 244 75 293Q83 309 90.5 325.0Q98 341 106 357Q105 360 105.0 364.0Q105 368 107 373Q118 390 125.0 403.5Q132 417 139 431Q147 448 155.5 464.0Q164 480 177 497L193 504Q196 505 200.0 506.5Q204 508 209 508L224 506Q252 519 273.0 542.5Q294 566 316 599L326 613L339 605Q344 602 353.0 599.5Q362 597 372 594Q390 590 406.0 585.0Q422 580 432 570Q438 554 439.0 546.0Q440 538 442 530Q445 513 447.5 496.0Q450 479 451 458Q456 441 459.5 424.5Q463 408 466 391Q471 367 476.0 344.5Q481 322 489 302Q497 302 499 301Q504 303 509.5 304.0Q515 305 522 306L533 307L537 297Q538 292 547 287Q560 286 566.0 281.5Q572 277 577 272Q581 268 585 266L600 260L592 245Q582 227 563.5 210.5Q545 194 522 183Q523 177 523.5 171.5Q524 166 526 160Q529 143 531.0 125.0Q533 107 531 88ZM240 257Q270 259 294.5 261.5Q319 264 349 270Q342 300 334.0 332.5Q326 365 317 397L311 387Q291 366 272.5 340.0Q254 314 241 291Q235 282 229.0 273.0Q223 264 218 255Q224 256 229.5 256.0Q235 256 240 257Z"/></g>
    <g transform="translate(3935, 0)"><path d="M264 11Q236 2 203.0 -7.0Q170 -16 137 -16Q87 -16 58 9Q53 20 49 24Q46 28 43.5 32.5Q41 37 40 45Q28 59 21.0 77.5Q14 96 11.5 115.5Q9 135 10.5 155.0Q12 175 17 193Q19 197 19.5 201.0Q20 205 21 210Q25 226 29.5 241.0Q34 256 42 267Q38 276 42.0 287.0Q46 298 51 307Q65 345 74.5 371.5Q84 398 94 424Q111 469 126.0 513.0Q141 557 153 608Q161 613 165 615Q171 617 175 618Q193 609 217.0 600.5Q241 592 257 592Q265 587 267.0 584.5Q269 582 271 580Q282 567 290.0 553.5Q298 540 295 518Q289 509 286 509Q281 489 275.5 475.0Q270 461 264 447Q257 432 251.0 417.0Q245 402 241 380Q237 375 235.5 371.0Q234 367 232 362Q230 357 227.5 351.5Q225 346 220 342Q217 316 210.5 300.0Q204 284 197 268Q185 239 175.5 210.0Q166 181 164 144Q169 146 173.5 146.0Q178 146 182 146Q191 146 203 143Q233 159 268.5 162.0Q304 165 339 166Q353 166 367.0 166.0Q381 166 393 168Q402 163 404.5 162.5Q407 162 412 162Q419 162 424 161Q436 150 447.0 145.0Q458 140 470 136Q481 132 491.5 127.5Q502 123 512 115L519 72Q526 63 525 60Q525 52 521 48L523 37Q508 34 502.5 30.0Q497 26 492 21Q484 20 480.5 20.0Q477 20 474 20Q460 20 440 15Q413 24 384 24Q373 24 361.0 23.0Q349 22 337 21Q325 19 312.5 18.0Q300 17 287 17Z"/></g>
  </g>
</svg>