<?xml version="1.0" encoding="UTF-8"?>
<svg xmlns="http://www.w3.org/2000/svg" viewBox="0 0 175.8 18" 
     width="175.8" height="18">
  <g transform="translate(0, 15.299999999999999) scale(0.017578, -0.017578)" fill="#000000">
    <g transform="translate(0, 0)"><path d="M22 564Q21 572 18.5 578.5Q16 585 13 593Q8 605 4.0 619.0Q0 633 0 652Q2 662 5.0 666.5Q8 671 11 674L15 692H30Q38 691 46.5 691.0Q55 691 63 691Q101 691 141.0 694.0Q181 697 223 701Q269 707 322 710Q327 721 328.5 724.0Q330 727 332 731L343 737Q366 738 375.0 731.5Q384 725 389 719Q415 721 442.0 724.5Q469 728 498 732Q538 737 579.0 742.0Q620 747 659 747Q676 747 691.0 746.0Q706 745 720 743L732 734Q736 727 742.0 721.0Q748 715 756 709Q771 697 785.5 679.0Q800 661 796 626L791 616Q787 612 781 608L771 595H760Q750 595 745.0 593.5Q740 592 733 589Q729 587 724.0 585.5Q719 584 713 582Q702 583 696.0 583.0Q690 583 682 583Q652 583 617.0 579.0Q582 575 549 570Q525 567 503.0 564.5Q481 562 463 560Q453 534 445.0 514.0Q437 494 428 474Q419 454 411.0 433.5Q403 413 396 388Q384 370 376.0 353.5Q368 337 363 316Q348 299 341.5 279.0Q335 259 330 245L326 230Q319 223 317.5 219.0Q316 215 312 210Q309 197 304 185Q302 180 300.0 174.5Q298 169 299 166Q297 155 293 149Q293 143 292.0 137.0Q291 131 290 125Q288 118 287.0 112.5Q286 107 288 102Q291 98 294.0 94.0Q297 90 299 84Q301 82 304.0 81.0Q307 80 309 78Q317 71 324 70L334 58Q340 22 323 2Q305 -21 263 -21L249 -20Q242 -13 241 -11Q232 -7 226.0 -4.5Q220 -2 215 5Q213 7 210.0 7.5Q207 8 205 10Q195 13 189 17L178 23Q179 33 179 37Q171 48 166.5 61.0Q162 74 159 88Q156 99 153.5 108.0Q151 117 146 124Q144 194 159.0 241.5Q174 289 192 334Q202 358 211.0 383.0Q220 408 227 434L238 445Q245 451 247 452Q247 465 252.0 477.5Q257 490 263 503Q267 511 270.5 519.0Q274 527 275 533Q268 533 262.5 532.5Q257 532 251 531Q238 528 226 528Q217 528 213 529Q205 525 198.0 524.5Q191 524 184 524H172H160Q148 524 141 521Q127 521 123.0 521.0Q119 521 114 521H102H90Q82 521 72.0 522.5Q62 524 51 530L44 538Q38 549 33 550L22 553Z"/></g>
    <g transform="translate(622, 0)"><path d="M558 563Q559 556 558.5 552.5Q558 549 557.5 546.0Q557 543 557.0 539.5Q557 536 559 529Q538 495 510.5 482.5Q483 470 451.0 464.5Q419 459 385.5 453.0Q352 447 319 427Q306 432 295.5 427.0Q285 422 265 424Q259 418 250.0 415.5Q241 413 232 410Q236 401 235.5 391.5Q235 382 238 376Q273 373 315.5 377.0Q358 381 399 382Q400 377 398.0 375.5Q396 374 397 370Q404 365 411.0 357.5Q418 350 425.0 343.0Q432 336 439.5 331.5Q447 327 457 328Q461 320 462.5 310.5Q464 301 460 291Q444 280 428.0 268.5Q412 257 394.5 248.0Q377 239 357.5 233.5Q338 228 314 229Q309 229 306.5 229.0Q304 229 300 232Q292 227 277.5 229.0Q263 231 255 226Q244 231 228.5 230.5Q213 230 201 234Q185 213 172.0 189.0Q159 165 149 138Q183 133 205.5 134.0Q228 135 248.0 137.5Q268 140 289.0 142.5Q310 145 342 144Q362 155 389.5 158.5Q417 162 440 170Q448 167 454.0 159.5Q460 152 465.5 145.5Q471 139 477.0 134.0Q483 129 492 130Q496 126 497.5 120.5Q499 115 500.0 110.0Q501 105 503.5 101.5Q506 98 512 99Q497 66 477.5 48.5Q458 31 433.0 22.0Q408 13 377.5 8.0Q347 3 310 -4Q301 -6 295.0 -3.5Q289 -1 281 -1Q258 -6 226.0 -10.0Q194 -14 161.0 -13.0Q128 -12 98.0 -4.5Q68 3 49 22Q41 29 38.5 38.5Q36 48 25 53Q24 66 21.0 82.0Q18 98 15.0 115.5Q12 133 10.5 150.0Q9 167 12 181Q15 196 24.5 208.0Q34 220 31 234Q36 235 37.0 239.5Q38 244 45 243Q51 261 58.0 277.0Q65 293 72.5 308.0Q80 323 87.5 338.5Q95 354 102 373Q88 386 81.5 401.5Q75 417 72.0 432.5Q69 448 67.0 464.5Q65 481 60 498Q70 513 84.5 522.5Q99 532 116.0 538.0Q133 544 153.0 548.0Q173 552 195 557Q235 570 266.5 577.0Q298 584 328.5 588.5Q359 593 392.0 597.0Q425 601 467 609Q476 600 484 600Q488 609 493.5 605.5Q499 602 498 611Q508 594 523.5 582.5Q539 571 558 563Z"/></g>
    <g transform="translate(1156, 0)"><path d="M347 26Q332 76 303.5 122.0Q275 168 249 201Q208 170 171.5 132.5Q135 95 105 52Q103 31 100.0 17.5Q97 4 89.5 -5.0Q82 -14 70.5 -20.5Q59 -27 41 -34Q8 -10 -7.0 25.5Q-22 61 -11 96Q-10 121 1.5 145.0Q13 169 29.5 190.5Q46 212 65.0 231.5Q84 251 101 268Q104 278 112.5 285.5Q121 293 130.5 300.0Q140 307 149.5 315.0Q159 323 165 334Q158 357 138.0 380.5Q118 404 101 429Q99 434 93.5 432.0Q88 430 86 433Q88 446 80.5 461.0Q73 476 62 487Q65 498 69.0 513.5Q73 529 67 548Q67 556 70.0 563.5Q73 571 76.0 577.5Q79 584 81.0 590.5Q83 597 80 603Q93 605 103.0 602.0Q113 599 122.0 595.0Q131 591 138.5 589.0Q146 587 154 590Q153 585 154.0 583.0Q155 581 157.0 580.0Q159 579 161.0 577.5Q163 576 163 573Q179 568 198.0 551.5Q217 535 234.5 515.0Q252 495 266.0 475.0Q280 455 287 445Q311 460 339.0 480.5Q367 501 397.0 523.0Q427 545 457.5 564.5Q488 584 517 596Q534 588 543.5 576.5Q553 565 559.5 552.5Q566 540 571.0 526.5Q576 513 585 503Q577 486 567.5 474.5Q558 463 554 448Q533 439 504 421Q478 405 440.5 378.0Q403 351 350 306Q362 292 370.0 279.0Q378 266 383 257Q388 246 392 237Q401 230 407.0 221.0Q413 212 418.5 202.5Q424 193 431.0 184.5Q438 176 449 171Q455 141 466.0 117.5Q477 94 476 69Q469 46 455.5 31.0Q442 16 436 0Q427 -3 418.0 -6.0Q409 -9 404 -15Z"/></g>
    <g transform="translate(1675, 0)"><path d="M569 481Q544 481 515.0 477.5Q486 474 458 470Q438 467 419.5 465.0Q401 463 386 462Q379 440 372.0 423.0Q365 406 357 390Q349 373 342.5 355.5Q336 338 330 318Q320 302 313.5 288.5Q307 275 303 258Q291 243 285.0 226.5Q279 210 276 198L272 186Q266 180 265.0 176.5Q264 173 260 170Q259 159 253 148Q251 143 250.0 138.5Q249 134 249 132Q249 122 244 119Q245 114 244.0 108.5Q243 103 242 98Q239 86 240 79Q243 75 245.5 72.0Q248 69 249 64Q255 60 258 59Q262 56 270 52L279 42Q284 13 270 -4Q255 -23 219 -23H207Q202 -18 201 -15Q193 -12 188.0 -10.0Q183 -8 179 -2Q166 4 158 8L149 13Q149 24 149 25Q142 34 138.5 45.0Q135 56 133 67Q131 76 128.5 84.0Q126 92 122 98Q120 156 133.0 196.0Q146 236 160 273Q168 293 176.0 313.5Q184 334 190 356L199 366Q206 382 210.5 392.5Q215 403 220 414Q223 421 225.5 427.5Q228 434 230 439Q224 439 219.0 438.5Q214 438 209 437Q203 436 198.0 435.5Q193 435 188 435Q181 435 178 436Q167 431 154 431H144Q141 431 138.5 431.5Q136 432 134 432Q124 432 118 429Q106 429 95 429H85Q83 429 80.0 428.5Q77 428 75 428Q68 428 60.0 429.5Q52 431 43 436Q31 452 27 453L18 465Q17 471 15.0 476.5Q13 482 11 489Q7 499 3.5 510.5Q0 522 0 538Q1 546 4.0 550.0Q7 554 9 557L12 572L25 571H53Q85 571 118.0 573.5Q151 576 186 579Q206 581 226.5 583.0Q247 585 269 587Q273 596 277 604L287 609Q305 610 312.5 604.5Q320 599 325 594Q347 596 369.5 598.5Q392 601 415 605Q449 610 483.5 614.0Q518 618 550 618Q564 618 577.0 617.0Q590 616 601 614L611 607Q614 601 619.5 596.0Q625 591 631 586Q643 575 655.0 560.0Q667 545 664 516Q656 504 652 502L643 490L633 491Q627 491 622.0 489.5Q617 488 612 486Q608 484 604.0 482.5Q600 481 595 480Q586 480 580.5 480.5Q575 481 569 481Z"/></g>
    <g transform="translate(2166, 0)"><path d="M549 163Q555 160 556.0 153.0Q557 146 556 142Q538 119 531.0 110.0Q524 101 521.0 96.5Q518 92 514.5 89.0Q511 86 499 76Q454 49 406.5 28.0Q359 7 307 -1Q299 -12 276.5 -16.5Q254 -21 235 -25Q231 -23 230.5 -19.5Q230 -16 226 -14Q225 -24 217.0 -24.5Q209 -25 197.5 -20.5Q186 -16 173.5 -8.5Q161 -1 152 5Q147 -3 141.5 -11.0Q136 -19 128 -22Q117 -20 111.5 -19.0Q106 -18 101 -23Q95 -20 91.5 -16.0Q88 -12 84.5 -8.5Q81 -5 76.5 -2.0Q72 1 64 3Q66 7 62.0 15.5Q58 24 50 26Q54 33 46.5 43.5Q39 54 35 67Q37 78 38.0 91.0Q39 104 50 106Q49 113 47.0 118.0Q45 123 43 128Q50 134 53.0 142.5Q56 151 58.0 160.0Q60 169 63.0 178.0Q66 187 74 193Q83 223 88.0 237.5Q93 252 95.5 266.0Q98 280 101.5 296.0Q105 312 114 336Q113 351 117.0 362.5Q121 374 125.5 385.5Q130 397 133.0 409.5Q136 422 132 439Q118 438 112.0 429.5Q106 421 104 407Q96 399 84.5 399.5Q73 400 64 397Q29 411 6.0 437.0Q-17 463 -31 498Q-22 521 -4.0 536.5Q14 552 37.0 562.5Q60 573 86.0 579.5Q112 586 136 592Q175 599 214.0 608.0Q253 617 298 614Q304 617 312.5 617.5Q321 618 330.0 618.0Q339 618 347.5 618.5Q356 619 362 622Q367 616 376.5 614.5Q386 613 397 605Q409 614 417.5 609.0Q426 604 433.0 598.0Q440 592 446.5 587.0Q453 582 460 582Q467 573 477.5 565.0Q488 557 497.5 548.5Q507 540 513.5 530.0Q520 520 520 507Q519 502 523.0 501.0Q527 500 529 497Q530 466 519.5 443.5Q509 421 493.5 402.0Q478 383 459.5 366.0Q441 349 426 330Q436 317 449.0 307.0Q462 297 475.5 287.0Q489 277 501.0 266.0Q513 255 521 240Q523 238 526.0 236.5Q529 235 532 233Q535 223 540.0 212.5Q545 202 548.5 192.5Q552 183 553.0 175.5Q554 168 549 163ZM373 497Q322 499 271.5 488.0Q221 477 187 457Q204 443 221.5 432.0Q239 421 249 402Q288 418 318.0 442.5Q348 467 373 497ZM386 178Q389 188 397.0 194.0Q405 200 413.0 205.5Q421 211 427.0 217.5Q433 224 432 236Q400 253 373.5 256.5Q347 260 323.5 256.5Q300 253 278.5 246.0Q257 239 235 236Q224 207 212.0 173.0Q200 139 189 107Q219 111 244.0 119.5Q269 128 292.5 138.0Q316 148 338.5 158.5Q361 169 386 178Z"/></g>
    <g transform="translate(2753, 0)"><path d="M583 300Q582 288 585.0 277.0Q588 266 592.5 255.5Q597 245 601.0 234.0Q605 223 607 212Q609 198 607.0 181.5Q605 165 600.0 149.5Q595 134 587.0 121.5Q579 109 568 103Q554 85 534.0 75.0Q514 65 497 51Q486 44 472.5 41.0Q459 38 445 35Q434 29 419.0 22.5Q404 16 388.0 10.5Q372 5 356.0 2.5Q340 0 328 1Q298 -10 269.5 -13.5Q241 -17 203 -9Q167 -14 136.5 -6.0Q106 2 82.5 19.5Q59 37 41.5 61.5Q24 86 13 113Q5 170 17.0 216.5Q29 263 51.5 302.5Q74 342 103.0 375.5Q132 409 159 441Q165 439 168.5 441.5Q172 444 175.0 448.5Q178 453 181.5 457.0Q185 461 190 462Q197 477 210.5 484.5Q224 492 232 506Q241 508 247.0 512.0Q253 516 258.5 521.0Q264 526 270.0 530.5Q276 535 284 537V548Q302 556 310.5 566.5Q319 577 331 592Q340 593 345.5 593.0Q351 593 362 595Q370 609 376.5 616.0Q383 623 396 631Q408 625 422.5 623.0Q437 621 448 610Q449 600 454.0 594.5Q459 589 465.0 584.5Q471 580 476.5 575.0Q482 570 484 561Q488 560 489.5 562.0Q491 564 495 563Q498 549 502.0 544.5Q506 540 510 527Q505 517 502.5 506.5Q500 496 490 491Q489 484 494.0 483.5Q499 483 500 478Q501 469 497 465Q521 426 540.0 382.5Q559 339 583 300ZM458 205Q462 216 468.5 223.0Q475 230 476 244Q471 252 470.0 256.5Q469 261 469 271Q447 302 431.0 337.5Q415 373 395 404Q393 400 388.0 396.0Q383 392 377 398Q375 390 370.0 386.5Q365 383 359.0 383.5Q353 384 346.5 386.5Q340 389 335 393Q306 370 277.0 348.0Q248 326 225 297Q221 295 220.0 295.5Q219 296 214 294Q206 275 194.5 259.5Q183 244 172.0 228.0Q161 212 153.0 194.0Q145 176 144 152Q161 138 184.0 135.0Q207 132 231.5 134.0Q256 136 279.5 140.5Q303 145 323 145Q365 155 395.0 171.5Q425 188 458 205Z"/></g>
    <g transform="translate(3397, 0)"><path d="M583 300Q582 288 585.0 277.0Q588 266 592.5 255.5Q597 245 601.0 234.0Q605 223 607 212Q609 198 607.0 181.5Q605 165 600.0 149.5Q595 134 587.0 121.5Q579 109 568 103Q554 85 534.0 75.0Q514 65 497 51Q486 44 472.5 41.0Q459 38 445 35Q434 29 419.0 22.5Q404 16 388.0 10.5Q372 5 356.0 2.5Q340 0 328 1Q298 -10 269.5 -13.5Q241 -17 203 -9Q167 -14 136.5 -6.0Q106 2 82.5 19.5Q59 37 41.5 61.5Q24 86 13 113Q5 170 17.0 216.5Q29 263 51.5 302.5Q74 342 103.0 375.5Q132 409 159 441Q165 439 168.5 441.5Q172 444 175.0 448.5Q178 453 181.5 457.0Q185 461 190 462Q197 477 210.5 484.5Q224 492 232 506Q241 508 247.0 512.0Q253 516 258.5 521.0Q264 526 270.0 530.5Q276 535 284 537V548Q302 556 310.5 566.5Q319 577 331 592Q340 593 345.5 593.0Q351 593 362 595Q370 609 376.5 616.0Q383 623 396 631Q408 625 422.5 623.0Q437 621 448 610Q449 600 454.0 594.5Q459 589 465.0 584.5Q471 580 476.5 575.0Q482 570 484 561Q488 560 489.5 562.0Q491 564 495 563Q498 549 502.0 544.5Q506 540 510 527Q505 517 502.5 506.5Q500 496 490 491Q489 484 494.0 483.5Q499 483 500 478Q501 469 497 465Q521 426 540.0 382.5Q559 339 583 300ZM458 205Q462 216 468.5 223.0Q475 230 476 244Q471 252 470.0 256.5Q469 261 469 271Q447 302 431.0 337.5Q415 373 395 404Q393 400 388.0 396.0Q383 392 377 398Q375 390 370.0 386.5Q365 383 359.0 383.5Q353 384 346.5 386.5Q340 389 335 393Q306 370 277.0 348.0Q248 326 225 297Q221 295 220.0 295.5Q219 296 214 294Q206 275 194.5 259.5Q183 244 172.0 228.0Q161 212 153.0 194.0Q145 176 144 152Q161 138 184.0 135.0Q207 132 231.5 134.0Q256 136 279.5 140.5Q303 145 323 145Q365 155 395.0 171.5Q425 188 458 205Z"/></g>
    <g transform="translate(4041, 0)"><path d="M603 36Q555 34 518.5 38.0Q482 42 447 57Q445 58 443.0 62.0Q441 66 439 68Q433 71 424.5 70.5Q416 70 410 72Q402 76 385.0 87.5Q368 99 354 109Q336 123 320.0 137.0Q304 151 292 167Q289 171 284.0 171.5Q279 172 275 174Q246 156 226.0 129.0Q206 102 188.0 74.0Q170 46 150.0 21.0Q130 -4 99 -17Q90 -17 83.0 -14.0Q76 -11 70.0 -6.5Q64 -2 58.0 2.0Q52 6 45 8Q45 20 40.5 30.0Q36 40 31.5 49.0Q27 58 25.0 66.5Q23 75 29 83Q23 89 11 96Q17 102 16.5 107.0Q16 112 14.0 117.0Q12 122 10.5 128.0Q9 134 13 140Q18 140 25 142Q19 150 19.5 151.5Q20 153 17 156Q15 162 19.0 163.5Q23 165 27 167Q31 216 44.0 258.0Q57 300 73.0 339.0Q89 378 104.5 418.0Q120 458 130 504Q141 515 147.5 530.0Q154 545 161.5 560.0Q169 575 178.5 589.5Q188 604 205 613Q219 612 230.0 605.5Q241 599 257 600Q260 595 262.5 590.0Q265 585 269 580L284 583Q295 574 303.5 560.5Q312 547 315.0 532.0Q318 517 314.0 503.5Q310 490 295 482Q296 477 295.5 474.5Q295 472 294.0 470.0Q293 468 293.0 466.0Q293 464 296 460Q276 445 266.0 418.0Q256 391 255 370Q267 382 281.5 393.5Q296 405 311.5 416.0Q327 427 341.5 437.0Q356 447 368 457Q401 487 431.5 505.5Q462 524 496 547Q504 549 508.5 547.5Q513 546 518 544Q518 550 514.5 551.0Q511 552 512 559Q527 563 538.0 568.5Q549 574 562 579Q571 570 579.0 560.5Q587 551 601 549Q606 538 613.0 532.5Q620 527 627.0 522.0Q634 517 639.5 510.0Q645 503 646 488Q642 481 637.5 473.0Q633 465 629 454Q609 436 588.5 422.0Q568 408 547.0 395.0Q526 382 504.0 369.0Q482 356 459 338Q454 331 446.5 325.5Q439 320 431.0 314.5Q423 309 416.0 303.0Q409 297 405 289Q402 288 399.0 288.0Q396 288 393 287Q390 280 383.5 276.0Q377 272 375 265Q390 233 414.0 216.0Q438 199 468.0 191.5Q498 184 533.0 183.5Q568 183 606 183Q610 184 609.5 187.5Q609 191 614 190Q638 182 651.0 167.5Q664 153 682 139Q680 101 659.0 76.0Q638 51 603 36Z"/></g>
    <g transform="translate(5081, 0)"><path d="M28 86Q23 85 19.0 93.5Q15 102 10 110H21Q14 132 17.5 150.5Q21 169 26.0 186.5Q31 204 34.5 220.5Q38 237 31 255Q36 252 38.5 257.5Q41 263 42.5 271.5Q44 280 43.5 289.5Q43 299 42 305Q55 336 62.5 369.0Q70 402 76.0 434.5Q82 467 89.5 497.5Q97 528 109 555Q123 557 138.5 551.5Q154 546 159 538Q190 562 214.0 596.0Q238 630 262.5 662.5Q287 695 318.0 720.0Q349 745 395 750Q419 733 449.0 713.5Q479 694 498 665Q506 660 513.5 654.5Q521 649 529 644V629Q543 616 552.5 598.5Q562 581 569.5 561.5Q577 542 584.0 522.0Q591 502 600 485Q598 479 598.5 474.5Q599 470 600.5 465.5Q602 461 603.0 455.5Q604 450 604 442Q600 389 569.5 356.5Q539 324 495.5 303.5Q452 283 403.0 268.5Q354 254 314 237Q314 233 318.5 233.0Q323 233 321 227Q351 209 367.5 198.0Q384 187 398.5 179.5Q413 172 430.5 167.0Q448 162 479 155Q510 148 527.5 143.5Q545 139 559.0 136.5Q573 134 589.0 132.0Q605 130 632 127Q643 116 650.0 101.0Q657 86 660.0 71.0Q663 56 661.5 42.5Q660 29 653 21Q654 17 658.5 17.5Q663 18 668 17Q661 12 656.0 5.0Q651 -2 646.0 -9.0Q641 -16 634.5 -22.0Q628 -28 618 -29Q582 -43 526.0 -30.0Q470 -17 383 16Q340 32 313.0 45.0Q286 58 266.0 70.5Q246 83 229.0 97.5Q212 112 190 132Q187 131 186.5 128.0Q186 125 183 124Q178 84 167.5 59.0Q157 34 137 8Q121 11 115.5 5.0Q110 -1 102 -6Q92 -8 87.0 -5.5Q82 -3 78.0 0.0Q74 3 69.0 6.0Q64 9 53 8Q50 17 47.0 25.5Q44 34 31 33Q34 42 33.0 48.5Q32 55 30.0 60.5Q28 66 26.5 72.0Q25 78 28 86ZM362 543Q349 524 333.0 508.5Q317 493 301.5 476.5Q286 460 274.0 440.5Q262 421 257 394Q299 399 345.0 417.5Q391 436 432 453Q427 490 406.0 512.5Q385 535 362 543Z"/></g>
    <g transform="translate(5743, 0)"><path d="M558 563Q559 556 558.5 552.5Q558 549 557.5 546.0Q557 543 557.0 539.5Q557 536 559 529Q538 495 510.5 482.5Q483 470 451.0 464.5Q419 459 385.5 453.0Q352 447 319 427Q306 432 295.5 427.0Q285 422 265 424Q259 418 250.0 415.5Q241 413 232 410Q236 401 235.5 391.5Q235 382 238 376Q273 373 315.5 377.0Q358 381 399 382Q400 377 398.0 375.5Q396 374 397 370Q404 365 411.0 357.5Q418 350 425.0 343.0Q432 336 439.5 331.5Q447 327 457 328Q461 320 462.5 310.5Q464 301 460 291Q444 280 428.0 268.5Q412 257 394.5 248.0Q377 239 357.5 233.5Q338 228 314 229Q309 229 306.5 229.0Q304 229 300 232Q292 227 277.5 229.0Q263 231 255 226Q244 231 228.5 230.5Q213 230 201 234Q185 213 172.0 189.0Q159 165 149 138Q183 133 205.5 134.0Q228 135 248.0 137.5Q268 140 289.0 142.5Q310 145 342 144Q362 155 389.5 158.5Q417 162 440 170Q448 167 454.0 159.5Q460 152 465.5 145.5Q471 139 477.0 134.0Q483 129 492 130Q496 126 497.5 120.5Q499 115 500.0 110.0Q501 105 503.5 101.5Q506 98 512 99Q497 66 477.5 48.5Q458 31 433.0 22.0Q408 13 377.5 8.0Q347 3 310 -4Q301 -6 295.0 -3.5Q289 -1 281 -1Q258 -6 226.0 -10.0Q194 -14 161.0 -13.0Q128 -12 98.0 -4.5Q68 3 49 22Q41 29 38.5 38.5Q36 48 25 53Q24 66 21.0 82.0Q18 98 15.0 115.5Q12 133 10.5 150.0Q9 167 12 181Q15 196 24.5 208.0Q34 220 31 234Q36 235 37.0 239.5Q38 244 45 243Q51 261 58.0 277.0Q65 293 72.5 308.0Q80 323 87.5 338.5Q95 354 102 373Q88 386 81.5 401.5Q75 417 72.0 432.5Q69 448 67.0 464.5Q65 481 60 498Q70 513 84.5 522.5Q99 532 116.0 538.0Q133 544 153.0 548.0Q173 552 195 557Q235 570 266.5 577.0Q298 584 328.5 588.5Q359 593 392.0 597.0Q425 601 467 609Q476 600 484 600Q488 609 493.5 605.5Q499 602 498 611Q508 594 523.5 582.5Q539 571 558 563Z"/></g>
    <g transform="translate(6277, 0)"><path d="M140 34Q134 0 106 -13Q93 -14 86.5 -12.0Q80 -10 73 -7Q64 -3 57 -2L46 6Q44 11 41.0 16.0Q38 21 34 26Q26 36 18 51Q12 80 16.0 99.5Q20 119 26 138Q28 144 30.0 150.5Q32 157 34 163Q8 177 -5.0 203.0Q-18 229 -20 253Q-17 272 -9.0 283.5Q-1 295 9.5 302.0Q20 309 31.5 313.0Q43 317 54 320L67 315Q76 306 85 301Q92 304 94.5 310.5Q97 317 99 325Q102 334 105.5 343.0Q109 352 114 361Q113 374 118 385Q111 390 103 391Q101 391 93 393Q81 402 76.5 408.5Q72 415 68 421Q62 434 53 442L43 449L48 459Q50 461 50.0 464.0Q50 467 46 473Q44 484 46 488L48 498Q56 509 56 510L65 519Q85 524 104.5 530.5Q124 537 144 544Q163 550 182.5 556.5Q202 563 222 568Q229 573 237.0 574.5Q245 576 252 577Q258 578 263.0 578.5Q268 579 270 582Q282 586 298 591Q323 598 364.0 606.5Q405 615 456 620L473 621Q478 620 483.0 620.5Q488 621 493 621Q538 621 550 594Q559 589 566.0 583.0Q573 577 579 571Q582 567 585.5 564.0Q589 561 591 560Q608 534 602 514Q593 501 579 499L568 493Q557 494 551.5 494.0Q546 494 540 494Q515 494 482.0 491.0Q449 488 414.5 482.5Q380 477 348.0 469.0Q316 461 292 452L274 443Q267 432 266.0 425.5Q265 419 264 413Q263 409 262.5 405.0Q262 401 261 396Q244 375 244 346Q237 334 235.0 328.5Q233 323 235 315Q254 307 271.0 309.0Q288 311 305 314Q328 318 352.5 321.0Q377 324 403 324H435L427 316L432 302Q438 299 440.5 298.0Q443 297 446 295L451 286Q455 284 458.5 279.0Q462 274 463 264L422 206L408 202Q391 203 378 198Q371 196 364.0 194.5Q357 193 349 193Q329 189 315.5 187.0Q302 185 288 183Q270 181 253.0 177.5Q236 174 221 168Q211 168 207 168Q199 168 190.5 165.5Q182 163 175 161Q170 157 168.0 152.5Q166 148 164 143Q160 129 153 120V105Q145 95 143.5 89.5Q142 84 140 79Q138 76 137.0 73.5Q136 71 136 68Q144 53 140 34Z"/></g>
    <g transform="translate(6743, 0)"><path d="M558 563Q559 556 558.5 552.5Q558 549 557.5 546.0Q557 543 557.0 539.5Q557 536 559 529Q538 495 510.5 482.5Q483 470 451.0 464.5Q419 459 385.5 453.0Q352 447 319 427Q306 432 295.5 427.0Q285 422 265 424Q259 418 250.0 415.5Q241 413 232 410Q236 401 235.5 391.5Q235 382 238 376Q273 373 315.5 377.0Q358 381 399 382Q400 377 398.0 375.5Q396 374 397 370Q404 365 411.0 357.5Q418 350 425.0 343.0Q432 336 439.5 331.5Q447 327 457 328Q461 320 462.5 310.5Q464 301 460 291Q444 280 428.0 268.5Q412 257 394.5 248.0Q377 239 357.5 233.5Q338 228 314 229Q309 229 306.5 229.0Q304 229 300 232Q292 227 277.5 229.0Q263 231 255 226Q244 231 228.5 230.5Q213 230 201 234Q185 213 172.0 189.0Q159 165 149 138Q183 133 205.5 134.0Q228 135 248.0 137.5Q268 140 289.0 142.5Q310 145 342 144Q362 155 389.5 158.5Q417 162 440 170Q448 167 454.0 159.5Q460 152 465.5 145.5Q471 139 477.0 134.0Q483 129 492 130Q496 126 497.5 120.5Q499 115 500.0 110.0Q501 105 503.5 101.5Q506 98 512 99Q497 66 477.5 48.5Q458 31 433.0 22.0Q408 13 377.5 8.0Q347 3 310 -4Q301 -6 295.0 -3.5Q289 -1 281 -1Q258 -6 226.0 -10.0Q194 -14 161.0 -13.0Q128 -12 98.0 -4.5Q68 3 49 22Q41 29 38.5 38.5Q36 48 25 53Q24 66 21.0 82.0Q18 98 15.0 115.5Q12 133 10.5 150.0Q9 167 12 181Q15 196 24.5 208.0Q34 220 31 234Q36 235 37.0 239.5Q38 244 45 243Q51 261 58.0 277.0Q65 293 72.5 308.0Q80 323 87.5 338.5Q95 354 102 373Q88 386 81.5 401.5Q75 417 72.0 432.5Q69 448 67.0 464.5Q65 481 60 498Q70 513 84.5 522.5Q99 532 116.0 538.0Q133 544 153.0 548.0Q173 552 195 557Q235 570 266.5 577.0Q298 584 328.5 588.5Q359 593 392.0 597.0Q425 601 467 609Q476 600 484 600Q488 609 493.5 605.5Q499 602 498 611Q508 594 523.5 582.5Q539 571 558 563Z"/></g>
    <g transform="translate(7277, 0)"><path d="M161 104Q150 64 141.5 43.5Q133 23 116 1Q103 3 98.0 -2.0Q93 -7 87 -11Q78 -13 74.0 -11.0Q70 -9 67.0 -6.5Q64 -4 59.5 -1.5Q55 1 46 1Q44 9 41.5 16.0Q39 23 28 21Q30 29 29.0 34.5Q28 40 26.5 44.5Q25 49 24.0 53.5Q23 58 25 65Q20 65 17.0 72.0Q14 79 10 86Q13 104 16.0 120.0Q19 136 23.5 150.0Q28 164 31.0 178.0Q34 192 28 207Q32 204 34.0 208.5Q36 213 37.0 220.5Q38 228 38.0 235.5Q38 243 37 248Q47 274 53.5 301.5Q60 329 65.5 356.0Q71 383 77.0 409.0Q83 435 93 457Q104 459 117.5 454.5Q131 450 134 443Q160 463 180.0 491.5Q200 520 221.0 547.0Q242 574 267.5 595.0Q293 616 332 620Q352 605 376.5 589.5Q401 574 417 549Q425 545 430.5 540.5Q436 536 444 531V519Q456 508 463.5 493.5Q471 479 477.0 462.5Q483 446 489.0 429.5Q495 413 503 398Q501 393 501.0 389.5Q501 386 502.5 382.0Q504 378 505.0 374.0Q506 370 505 363Q502 319 476.5 292.0Q451 265 415.0 247.5Q379 230 338.0 218.0Q297 206 264 192Q264 188 267.5 188.0Q271 188 270 183Q294 168 308.0 159.0Q322 150 334.5 144.0Q347 138 361.5 133.5Q376 129 402 123Q428 117 442.5 113.5Q457 110 469.0 107.5Q481 105 493.5 103.5Q506 102 529 100Q538 91 544.5 78.5Q551 66 553.0 53.5Q555 41 554.0 29.5Q553 18 547 11Q548 8 551.5 8.5Q555 9 559 8Q553 4 549.0 -2.0Q545 -8 541.0 -14.0Q537 -20 532.0 -24.5Q527 -29 518 -30Q487 -42 440.0 -31.5Q393 -21 321 7Q285 21 262.5 31.5Q240 42 223.5 52.5Q207 63 193.5 75.0Q180 87 161 104ZM304 447Q293 431 279.5 418.0Q266 405 253.5 391.5Q241 378 231.0 361.5Q221 345 217 323Q252 327 290.0 342.5Q328 358 362 372Q358 403 340.5 422.0Q323 441 304 447Z"/></g>
    <g transform="translate(7831, 0)"><path d="M558 563Q559 556 558.5 552.5Q558 549 557.5 546.0Q557 543 557.0 539.5Q557 536 559 529Q538 495 510.5 482.5Q483 470 451.0 464.5Q419 459 385.5 453.0Q352 447 319 427Q306 432 295.5 427.0Q285 422 265 424Q259 418 250.0 415.5Q241 413 232 410Q236 401 235.5 391.5Q235 382 238 376Q273 373 315.5 377.0Q358 381 399 382Q400 377 398.0 375.5Q396 374 397 370Q404 365 411.0 357.5Q418 350 425.0 343.0Q432 336 439.5 331.5Q447 327 457 328Q461 320 462.5 310.5Q464 301 460 291Q444 280 428.0 268.5Q412 257 394.5 248.0Q377 239 357.5 233.5Q338 228 314 229Q309 229 306.5 229.0Q304 229 300 232Q292 227 277.5 229.0Q263 231 255 226Q244 231 228.5 230.5Q213 230 201 234Q185 213 172.0 189.0Q159 165 149 138Q183 133 205.5 134.0Q228 135 248.0 137.5Q268 140 289.0 142.5Q310 145 342 144Q362 155 389.5 158.5Q417 162 440 170Q448 167 454.0 159.5Q460 152 465.5 145.5Q471 139 477.0 134.0Q483 129 492 130Q496 126 497.5 120.5Q499 115 500.0 110.0Q501 105 503.5 101.5Q506 98 512 99Q497 66 477.5 48.5Q458 31 433.0 22.0Q408 13 377.5 8.0Q347 3 310 -4Q301 -6 295.0 -3.5Q289 -1 281 -1Q258 -6 226.0 -10.0Q194 -14 161.0 -13.0Q128 -12 98.0 -4.5Q68 3 49 22Q41 29 38.5 38.5Q36 48 25 53Q24 66 21.0 82.0Q18 98 15.0 115.5Q12 133 10.5 150.0Q9 167 12 181Q15 196 24.5 208.0Q34 220 31 234Q36 235 37.0 239.5Q38 244 45 243Q51 261 58.0 277.0Q65 293 72.5 308.0Q80 323 87.5 338.5Q95 354 102 373Q88 386 81.5 401.5Q75 417 72.0 432.5Q69 448 67.0 464.5Q65 481 60 498Q70 513 84.5 522.5Q99 532 116.0 538.0Q133 544 153.0 548.0Q173 552 195 557Q235 570 266.5 577.0Q298 584 328.5 588.5Q359 593 392.0 597.0Q425 601 467 609Q476 600 484 600Q488 609 493.5 605.5Q499 602 498 611Q508 594 523.5 582.5Q539 571 558 563Z"/></g>
    <g transform="translate(8365, 0)"><path d="M205 182Q196 180 192.0 171.5Q188 163 184.5 154.0Q181 145 177.5 137.5Q174 130 167 130Q166 122 161.5 116.0Q157 110 153.0 103.5Q149 97 147.0 89.5Q145 82 149 72Q141 66 139.0 55.0Q137 44 134.5 34.0Q132 24 126.0 17.0Q120 10 104 11Q101 7 103.0 6.0Q105 5 106 -1Q95 1 89.5 -2.5Q84 -6 76 -7Q57 -1 44.5 14.0Q32 29 22.5 47.5Q13 66 5.5 85.0Q-2 104 -9 118Q-6 129 -8.0 139.5Q-10 150 -15 157Q34 261 92.0 379.0Q150 497 202 612Q225 603 247.5 591.5Q270 580 288.5 565.0Q307 550 320.0 530.5Q333 511 337 487Q335 481 332.5 482.5Q330 484 328 481Q332 476 332.5 474.0Q333 472 332.5 470.0Q332 468 332.0 464.5Q332 461 335 455Q331 456 329.5 454.0Q328 452 323 454Q327 443 325.5 436.0Q324 429 321.0 423.5Q318 418 316.0 411.5Q314 405 317 395Q314 395 312.5 393.5Q311 392 310.0 390.5Q309 389 307.5 387.5Q306 386 303 387Q306 365 305.0 343.0Q304 321 303.5 298.5Q303 276 304.0 251.5Q305 227 311 201Q347 222 368.5 255.0Q390 288 403.5 329.0Q417 370 424.0 417.0Q431 464 439 513Q448 522 453.0 535.0Q458 548 462.0 562.5Q466 577 470.0 591.5Q474 606 480 618Q495 616 505.5 608.5Q516 601 525.0 592.5Q534 584 544.0 576.5Q554 569 569 567Q581 550 591.0 534.0Q601 518 604 500Q599 492 596.5 482.0Q594 472 591.0 462.0Q588 452 583.0 443.5Q578 435 569 429Q566 403 561.5 381.5Q557 360 552.5 339.0Q548 318 545.0 295.5Q542 273 543 246Q535 223 526.0 197.0Q517 171 512 150Q496 137 487.0 119.0Q478 101 468 83Q464 79 463.0 81.0Q462 83 456 84Q457 80 456.0 78.0Q455 76 453.5 74.5Q452 73 451.5 70.0Q451 67 453 62Q439 56 428.0 45.0Q417 34 404.5 25.0Q392 16 374.5 13.0Q357 10 329 20Q288 50 256.5 89.0Q225 128 205 182Z"/></g>
    <g transform="translate(8943, 0)"><path d="M416 -2Q400 -3 376.5 -1.0Q353 1 333 -8Q280 -6 225.0 5.0Q170 16 124 32Q114 43 104.0 52.5Q94 62 77 66Q53 85 38.0 112.5Q23 140 14.0 171.0Q5 202 2.0 234.5Q-1 267 0 297Q15 342 42.5 374.5Q70 407 99 439Q112 445 118.5 451.5Q125 458 132.5 463.5Q140 469 147.5 474.5Q155 480 161 488Q182 493 197.5 502.5Q213 512 228.0 522.5Q243 533 259.0 542.0Q275 551 296 556Q304 565 315.0 570.5Q326 576 337.5 581.5Q349 587 359.5 593.0Q370 599 376 609Q381 601 390.0 603.5Q399 606 407 609Q412 610 415.5 607.0Q419 604 422.0 601.0Q425 598 427.5 597.5Q430 597 432 602Q437 602 435.0 597.0Q433 592 432 590Q440 591 445.5 586.5Q451 582 463 581Q467 576 465.0 573.5Q463 571 463 565Q493 556 501.0 536.5Q509 517 502.0 496.0Q495 475 477.0 457.0Q459 439 438 433Q390 420 347.5 404.5Q305 389 278 359Q254 352 235.5 340.5Q217 329 200.5 314.5Q184 300 169.5 284.5Q155 269 139 254Q140 240 134.5 232.5Q129 225 124 217Q126 202 131.0 190.5Q136 179 142 168Q208 148 282.5 143.0Q357 138 432 137Q439 127 448.5 118.5Q458 110 466.0 100.5Q474 91 479.0 79.5Q484 68 481 51Q467 36 450.0 23.5Q433 11 416 -2Z"/></g>
    <g transform="translate(9469, 0)"><path d="M558 563Q559 556 558.5 552.5Q558 549 557.5 546.0Q557 543 557.0 539.5Q557 536 559 529Q538 495 510.5 482.5Q483 470 451.0 464.5Q419 459 385.5 453.0Q352 447 319 427Q306 432 295.5 427.0Q285 422 265 424Q259 418 250.0 415.5Q241 413 232 410Q236 401 235.5 391.5Q235 382 238 376Q273 373 315.5 377.0Q358 381 399 382Q400 377 398.0 375.5Q396 374 397 370Q404 365 411.0 357.5Q418 350 425.0 343.0Q432 336 439.5 331.5Q447 327 457 328Q461 320 462.5 310.5Q464 301 460 291Q444 280 428.0 268.5Q412 257 394.5 248.0Q377 239 357.5 233.5Q338 228 314 229Q309 229 306.5 229.0Q304 229 300 232Q292 227 277.5 229.0Q263 231 255 226Q244 231 228.5 230.5Q213 230 201 234Q185 213 172.0 189.0Q159 165 149 138Q183 133 205.5 134.0Q228 135 248.0 137.5Q268 140 289.0 142.5Q310 145 342 144Q362 155 389.5 158.5Q417 162 440 170Q448 167 454.0 159.5Q460 152 465.5 145.5Q471 139 477.0 134.0Q483 129 492 130Q496 126 497.5 120.5Q499 115 500.0 110.0Q501 105 503.5 101.5Q506 98 512 99Q497 66 477.5 48.5Q458 31 433.0 22.0Q408 13 377.5 8.0Q347 3 310 -4Q301 -6 295.0 -3.5Q289 -1 281 -1Q258 -6 226.0 -10.0Q194 -14 161.0 -13.0Q128 -12 98.0 -4.5Q68 3 49 22Q41 29 38.5 38.5Q36 48 25 53Q24 66 21.0 82.0Q18 98 15.0 115.5Q12 133 10.5 150.0Q9 167 12 181Q15 196 24.5 208.0Q34 220 31 234Q36 235 37.0 239.5Q38 244 45 243Q51 261 58.0 277.0Q65 293 72.5 308.0Q80 323 87.5 338.5Q95 354 102 373Q88 386 81.5 401.5Q75 417 72.0 432.5Q69 448 67.0 464.5Q65 481 60 498Q70 513 84.5 522.5Q99 532 116.0 538.0Q133 544 153.0 548.0Q173 552 195 557Q235 570 266.5 577.0Q298 584 328.5 588.5Q359 593 392.0 597.0Q425 601 467 609Q476 600 484 600Q488 609 493.5 605.5Q499 602 498 611Q508 594 523.5 582.5Q539 571 558 563Z"/></g>
  </g>
</svg>