<?xml version="1.0" encoding="UTF-8"?>
<svg xmlns="http://www.w3.org/2000/svg" viewBox="0 0 114.9 18" 
     width="114.9" height="18">
  <g transform="translate(0, 15.299999999999999) scale(0.017578, -0.017578)" fill="#000000">
    <g transform="translate(0, 0)"><path d="M22 564Q21 572 18.5 578.5Q16 585 13 593Q8 605 4.0 619.0Q0 633 0 652Q2 662 5.0 666.5Q8 671 11 674L15 692H30Q38 691 46.5 691.0Q55 691 63 691Q101 691 141.0 694.0Q181 697 223 701Q269 707 322 710Q327 721 328.5 724.0Q330 727 332 731L343 737Q366 738 375.0 731.5Q384 725 389 719Q415 721 442.0 724.5Q469 728 498 732Q538 737 579.0 742.0Q620 747 659 747Q676 747 691.0 746.0Q706 745 720 743L732 734Q736 727 742.0 721.0Q748 715 756 709Q771 697 785.5 679.0Q800 661 796 626L791 616Q787 612 781 608L771 595H760Q750 595 745.0 593.5Q740 592 733 589Q729 587 724.0 585.5Q719 584 713 582Q702 583 696.0 583.0Q690 583 682 583Q652 583 617.0 579.0Q582 575 549 570Q525 567 503.0 564.5Q481 562 463 560Q453 534 445.0 514.0Q437 494 428 474Q419 454 411.0 433.5Q403 413 396 388Q384 370 376.0 353.5Q368 337 363 316Q348 299 341.5 279.0Q335 259 330 245L326 230Q319 223 317.5 219.0Q316 215 312 210Q309 197 304 185Q302 180 300.0 174.5Q298 169 299 166Q297 155 293 149Q293 143 292.0 137.0Q291 131 290 125Q288 118 287.0 112.5Q286 107 288 102Q291 98 294.0 94.0Q297 90 299 84Q301 82 304.0 81.0Q307 80 309 78Q317 71 324 70L334 58Q340 22 323 2Q305 -21 263 -21L249 -20Q242 -13 241 -11Q232 -7 226.0 -4.5Q220 -2 215 5Q213 7 210.0 7.5Q207 8 205 10Q195 13 189 17L178 23Q179 33 179 37Q171 48 166.5 61.0Q162 74 159 88Q156 99 153.5 108.0Q151 117 146 124Q144 194 159.0 241.5Q174 289 192 334Q202 358 211.0 383.0Q220 408 227 434L238 445Q245 451 247 452Q247 465 252.0 477.5Q257 490 263 503Q267 511 270.5 519.0Q274 527 275 533Q268 533 262.5 532.5Q257 532 251 531Q238 528 226 528Q217 528 213 529Q205 525 198.0 524.5Q191 524 184 524H172H160Q148 524 141 521Q127 521 123.0 521.0Q119 521 114 521H102H90Q82 521 72.0 522.5Q62 524 51 530L44 538Q38 549 33 550L22 553Z"/></g>
    <g transform="translate(622, 0)"><path d="M320 262Q313 256 308.0 247.5Q303 239 298 230Q293 219 287.0 209.0Q281 199 272 191Q267 176 262.0 167.5Q257 159 246 148Q236 108 199 61Q198 52 193.5 43.5Q189 35 184 27Q182 24 180.0 20.5Q178 17 177 15L175 5Q170 -3 164.0 -9.0Q158 -15 153 -20Q151 -23 146 -28L131 -34Q58 -24 42 44L43 54Q45 59 46.5 64.5Q48 70 50 76Q54 90 59.5 104.0Q65 118 76 129Q78 136 85.0 151.5Q92 167 109 198Q123 222 131.0 236.0Q139 250 144 258Q134 274 120 287Q107 312 97.5 335.0Q88 358 83 376Q82 389 80.0 398.0Q78 407 76 417Q73 428 71.0 439.0Q69 450 69 462Q64 469 63 476L65 486Q68 493 66.0 504.5Q64 516 61 528Q59 538 56.5 550.0Q54 562 55.0 574.0Q56 586 61.5 596.5Q67 607 80 615L97 616Q106 611 114.5 606.5Q123 602 131 597Q142 592 152.0 587.0Q162 582 173 574L180 560L193 549V538Q194 534 194 527Q194 514 198 511L202 499Q202 485 205.0 472.5Q208 460 211 449Q214 438 217.0 426.0Q220 414 218 400Q224 403 228 407Q230 409 232.0 410.0Q234 411 236 413L295 493L293 503L314 523Q322 531 329.5 538.0Q337 545 342 553L353 561Q385 611 444 623L458 625L462 612Q466 601 478.5 592.0Q491 583 505 575L514 569Q519 559 519.0 554.0Q519 549 518 545L522 535Q514 511 502.5 500.0Q491 489 480 480Q471 472 463.5 465.5Q456 459 452 449L445 441Q424 429 418 409L415 397H403Q402 397 398.5 393.5Q395 390 388 376Q381 366 378.0 363.0Q375 360 373 358Q372 354 370.5 350.5Q369 347 367 342Q354 329 351.0 322.5Q348 316 344 308Q340 300 336.5 292.5Q333 285 325 277Z"/></g>
    <g transform="translate(1032, 0)"><path d="M264 11Q236 2 203.0 -7.0Q170 -16 137 -16Q87 -16 58 9Q53 20 49 24Q46 28 43.5 32.5Q41 37 40 45Q28 59 21.0 77.5Q14 96 11.5 115.5Q9 135 10.5 155.0Q12 175 17 193Q19 197 19.5 201.0Q20 205 21 210Q25 226 29.5 241.0Q34 256 42 267Q38 276 42.0 287.0Q46 298 51 307Q65 345 74.5 371.5Q84 398 94 424Q111 469 126.0 513.0Q141 557 153 608Q161 613 165 615Q171 617 175 618Q193 609 217.0 600.5Q241 592 257 592Q265 587 267.0 584.5Q269 582 271 580Q282 567 290.0 553.5Q298 540 295 518Q289 509 286 509Q281 489 275.5 475.0Q270 461 264 447Q257 432 251.0 417.0Q245 402 241 380Q237 375 235.5 371.0Q234 367 232 362Q230 357 227.5 351.5Q225 346 220 342Q217 316 210.5 300.0Q204 284 197 268Q185 239 175.5 210.0Q166 181 164 144Q169 146 173.5 146.0Q178 146 182 146Q191 146 203 143Q233 159 268.5 162.0Q304 165 339 166Q353 166 367.0 166.0Q381 166 393 168Q402 163 404.5 162.5Q407 162 412 162Q419 162 424 161Q436 150 447.0 145.0Q458 140 470 136Q481 132 491.5 127.5Q502 123 512 115L519 72Q526 63 525 60Q525 52 521 48L523 37Q508 34 502.5 30.0Q497 26 492 21Q484 20 480.5 20.0Q477 20 474 20Q460 20 440 15Q413 24 384 24Q373 24 361.0 23.0Q349 22 337 21Q325 19 312.5 18.0Q300 17 287 17Z"/></g>
    <g transform="translate(1578, 0)"><path d="M558 563Q559 556 558.5 552.5Q558 549 557.5 546.0Q557 543 557.0 539.5Q557 536 559 529Q538 495 510.5 482.5Q483 470 451.0 464.5Q419 459 385.5 453.0Q352 447 319 427Q306 432 295.5 427.0Q285 422 265 424Q259 418 250.0 415.5Q241 413 232 410Q236 401 235.5 391.5Q235 382 238 376Q273 373 315.5 377.0Q358 381 399 382Q400 377 398.0 375.5Q396 374 397 370Q404 365 411.0 357.5Q418 350 425.0 343.0Q432 336 439.5 331.5Q447 327 457 328Q461 320 462.5 310.5Q464 301 460 291Q444 280 428.0 268.5Q412 257 394.5 248.0Q377 239 357.5 233.5Q338 228 314 229Q309 229 306.5 229.0Q304 229 300 232Q292 227 277.5 229.0Q263 231 255 226Q244 231 228.5 230.5Q213 230 201 234Q185 213 172.0 189.0Q159 165 149 138Q183 133 205.5 134.0Q228 135 248.0 137.5Q268 140 289.0 142.5Q310 145 342 144Q362 155 389.5 158.5Q417 162 440 170Q448 167 454.0 159.5Q460 152 465.5 145.5Q471 139 477.0 134.0Q483 129 492 130Q496 126 497.5 120.5Q499 115 500.0 110.0Q501 105 503.5 101.5Q506 98 512 99Q497 66 477.5 48.5Q458 31 433.0 22.0Q408 13 377.5 8.0Q347 3 310 -4Q301 -6 295.0 -3.5Q289 -1 281 -1Q258 -6 226.0 -10.0Q194 -14 161.0 -13.0Q128 -12 98.0 -4.5Q68 3 49 22Q41 29 38.5 38.5Q36 48 25 53Q24 66 21.0 82.0Q18 98 15.0 115.5Q12 133 10.5 150.0Q9 167 12 181Q15 196 24.5 208.0Q34 220 31 234Q36 235 37.0 239.5Q38 244 45 243Q51 261 58.0 277.0Q65 293 72.5 308.0Q80 323 87.5 338.5Q95 354 102 373Q88 386 81.5 401.5Q75 417 72.0 432.5Q69 448 67.0 464.5Q65 481 60 498Q70 513 84.5 522.5Q99 532 116.0 538.0Q133 544 153.0 548.0Q173 552 195 557Q235 570 266.5 577.0Q298 584 328.5 588.5Q359 593 392.0 597.0Q425 601 467 609Q476 600 484 600Q488 609 493.5 605.5Q499 602 498 611Q508 594 523.5 582.5Q539 571 558 563Z"/></g>
    <g transform="translate(2112, 0)"><path d="M161 104Q150 64 141.5 43.5Q133 23 116 1Q103 3 98.0 -2.0Q93 -7 87 -11Q78 -13 74.0 -11.0Q70 -9 67.0 -6.5Q64 -4 59.5 -1.5Q55 1 46 1Q44 9 41.5 16.0Q39 23 28 21Q30 29 29.0 34.5Q28 40 26.5 44.5Q25 49 24.0 53.5Q23 58 25 65Q20 65 17.0 72.0Q14 79 10 86Q13 104 16.0 120.0Q19 136 23.5 150.0Q28 164 31.0 178.0Q34 192 28 207Q32 204 34.0 208.5Q36 213 37.0 220.5Q38 228 38.0 235.5Q38 243 37 248Q47 274 53.5 301.5Q60 329 65.5 356.0Q71 383 77.0 409.0Q83 435 93 457Q104 459 117.5 454.5Q131 450 134 443Q160 463 180.0 491.5Q200 520 221.0 547.0Q242 574 267.5 595.0Q293 616 332 620Q352 605 376.5 589.5Q401 574 417 549Q425 545 430.5 540.5Q436 536 444 531V519Q456 508 463.5 493.5Q471 479 477.0 462.5Q483 446 489.0 429.5Q495 413 503 398Q501 393 501.0 389.5Q501 386 502.5 382.0Q504 378 505.0 374.0Q506 370 505 363Q502 319 476.5 292.0Q451 265 415.0 247.5Q379 230 338.0 218.0Q297 206 264 192Q264 188 267.5 188.0Q271 188 270 183Q294 168 308.0 159.0Q322 150 334.5 144.0Q347 138 361.5 133.5Q376 129 402 123Q428 117 442.5 113.5Q457 110 469.0 107.5Q481 105 493.5 103.5Q506 102 529 100Q538 91 544.5 78.5Q551 66 553.0 53.5Q555 41 554.0 29.5Q553 18 547 11Q548 8 551.5 8.5Q555 9 559 8Q553 4 549.0 -2.0Q545 -8 541.0 -14.0Q537 -20 532.0 -24.5Q527 -29 518 -30Q487 -42 440.0 -31.5Q393 -21 321 7Q285 21 262.5 31.5Q240 42 223.5 52.5Q207 63 193.5 75.0Q180 87 161 104ZM304 447Q293 431 279.5 418.0Q266 405 253.5 391.5Q241 378 231.0 361.5Q221 345 217 323Q252 327 290.0 342.5Q328 358 362 372Q358 403 340.5 422.0Q323 441 304 447Z"/></g>
    <g transform="translate(3045, 0)"><path d="M181 94Q171 86 169.0 73.5Q167 61 164.0 49.0Q161 37 153.5 28.5Q146 20 127 21Q123 16 125.5 15.0Q128 14 130 6Q116 8 110.0 4.0Q104 0 95 -2Q72 5 56.5 23.5Q41 42 29.5 64.0Q18 86 9.5 109.0Q1 132 -8 149Q-8 153 -4.5 152.5Q-1 152 2 152Q-3 162 -5.5 174.5Q-8 187 -15 195Q14 257 47.0 324.5Q80 392 113.5 461.5Q147 531 180.5 601.5Q214 672 245 740Q273 730 299.5 716.5Q326 703 348.0 685.0Q370 667 385.5 643.5Q401 620 406 590Q404 584 401.0 586.0Q398 588 396 584Q401 578 401.5 575.5Q402 573 401.0 570.5Q400 568 400.0 564.0Q400 560 405 553Q400 554 398.0 551.5Q396 549 391 551Q396 537 394.0 529.0Q392 521 388.0 514.5Q384 508 381.5 500.5Q379 493 383 480Q379 480 377.5 478.5Q376 477 375.0 475.0Q374 473 372.5 471.5Q371 470 367 471Q370 445 369.0 418.5Q368 392 367.0 364.5Q366 337 367.0 308.0Q368 279 375 248Q418 273 444.5 313.0Q471 353 486.5 402.0Q502 451 510.5 507.0Q519 563 528 621Q539 632 545.5 648.0Q552 664 556.5 681.0Q561 698 565.5 715.5Q570 733 578 747Q596 745 608.5 736.5Q621 728 632.0 717.5Q643 707 655.0 698.0Q667 689 685 686Q699 666 711.0 647.5Q723 629 727 606Q721 596 718.0 584.0Q715 572 711.5 560.0Q708 548 702.0 538.0Q696 528 685 521Q682 491 676.0 465.0Q670 439 665.0 414.0Q660 389 656.0 362.0Q652 335 653 303Q644 274 633.0 243.5Q622 213 617 187Q598 172 587.0 150.0Q576 128 564 106Q559 102 558.0 104.5Q557 107 549 108Q550 99 545.5 96.5Q541 94 546 82Q529 74 516.0 61.0Q503 48 487.5 37.0Q472 26 451.5 22.5Q431 19 398 31Q349 67 310.0 114.0Q271 161 248 225Q238 222 233.0 212.0Q228 202 224.0 191.0Q220 180 216.0 171.0Q212 162 204 162Q202 153 196.5 145.5Q191 138 186.0 130.5Q181 123 178.5 114.0Q176 105 181 94Z"/></g>
    <g transform="translate(3746, 0)"><path d="M709 180Q685 137 646.0 113.5Q607 90 560.0 74.5Q513 59 461.5 47.0Q410 35 362 16Q348 16 337.5 15.0Q327 14 317.5 12.5Q308 11 299.0 9.5Q290 8 279 7Q275 8 274.0 5.5Q273 3 271 1Q254 -2 240.5 -2.0Q227 -2 218 -2Q206 -2 193.5 -5.5Q181 -9 171 -8Q96 -4 53.5 45.5Q11 95 6 183Q7 188 4.5 189.0Q2 190 0 192Q0 202 2.5 209.0Q5 216 3 227Q29 282 62.0 329.5Q95 377 141 413Q148 419 153.0 425.0Q158 431 162.5 437.0Q167 443 173.0 447.5Q179 452 188 454Q209 478 238.0 498.0Q267 518 299.0 536.5Q331 555 362.5 573.5Q394 592 420 615Q431 610 436.0 612.0Q441 614 447 612Q454 597 466.5 591.0Q479 585 491.5 578.5Q504 572 515.0 563.0Q526 554 532 539Q526 539 526.5 534.5Q527 530 529.0 525.5Q531 521 530.5 516.5Q530 512 523 512Q524 507 529.5 506.5Q535 506 535 501Q535 496 532.5 493.0Q530 490 532 483Q512 470 487.5 458.0Q463 446 436.5 432.5Q410 419 381.5 403.5Q353 388 326 368Q299 348 271.0 323.5Q243 299 217.0 272.0Q191 245 168.0 216.5Q145 188 129 160Q131 155 133.5 152.5Q136 150 138 145Q170 143 197.5 145.5Q225 148 253 142Q256 144 257.0 148.0Q258 152 262 154Q319 160 368.0 172.5Q417 185 468 199Q460 202 453.5 204.5Q447 207 441 209Q436 214 441.5 217.5Q447 221 451 225Q437 233 428.5 245.0Q420 257 418 277Q424 282 424.0 289.0Q424 296 418 300Q414 301 413.0 300.0Q412 299 411.5 297.0Q411 295 410.0 293.5Q409 292 405 294Q406 303 409.5 309.0Q413 315 415 323L484 369Q495 361 511.0 351.5Q527 342 544.5 332.5Q562 323 580.5 313.5Q599 304 615 295Q629 289 640.0 279.0Q651 269 661.0 258.5Q671 248 681.5 238.0Q692 228 706 221Q704 208 707.0 200.0Q710 192 709 180Z"/></g>
    <g transform="translate(4414, 0)"><path d="M590 569Q592 547 597.0 531.0Q602 515 608 500Q613 486 617.5 472.5Q622 459 624 440Q616 414 612.5 392.0Q609 370 605 346Q589 311 574.0 284.0Q559 257 550 237Q545 232 541.5 225.5Q538 219 534 212Q532 209 529.0 203.0Q526 197 524 195L504 202L500 177L486 173L476 161Q457 128 436.0 105.5Q415 83 388.5 65.5Q362 48 328.5 33.0Q295 18 253 0Q236 2 223.5 2.5Q211 3 200 4Q181 4 153 7Q150 15 144.0 18.0Q138 21 133 21Q116 29 107.5 44.5Q99 60 91 78Q86 89 81.0 98.5Q76 108 70 118L87 123L65 147Q63 150 60.0 152.5Q57 155 55 158L54 174Q51 243 51.5 300.5Q52 358 67 403V414Q70 436 73.0 450.5Q76 465 78 478Q81 500 87 519Q101 522 108.0 530.5Q115 539 120 546Q134 547 139.0 542.0Q144 537 149 526Q154 517 161.5 506.0Q169 495 184 489Q186 481 189.5 472.5Q193 464 197 454Q205 437 211.5 418.5Q218 400 219 383Q209 364 203.5 339.0Q198 314 196.5 288.5Q195 263 197.5 239.5Q200 216 206 200L212 187L229 189Q259 197 283.5 206.5Q308 216 329.0 229.0Q350 242 369.0 259.5Q388 277 409 300Q430 323 445.5 352.5Q461 382 471.5 414.0Q482 446 487.5 477.5Q493 509 495 537Q512 543 512 561L510 572Q506 578 510 586Q516 605 538 615Q554 605 566.5 593.0Q579 581 590 569Z"/></g>
    <g transform="translate(5013, 0)"><path d="M320 262Q313 256 308.0 247.5Q303 239 298 230Q293 219 287.0 209.0Q281 199 272 191Q267 176 262.0 167.5Q257 159 246 148Q236 108 199 61Q198 52 193.5 43.5Q189 35 184 27Q182 24 180.0 20.5Q178 17 177 15L175 5Q170 -3 164.0 -9.0Q158 -15 153 -20Q151 -23 146 -28L131 -34Q58 -24 42 44L43 54Q45 59 46.5 64.5Q48 70 50 76Q54 90 59.5 104.0Q65 118 76 129Q78 136 85.0 151.5Q92 167 109 198Q123 222 131.0 236.0Q139 250 144 258Q134 274 120 287Q107 312 97.5 335.0Q88 358 83 376Q82 389 80.0 398.0Q78 407 76 417Q73 428 71.0 439.0Q69 450 69 462Q64 469 63 476L65 486Q68 493 66.0 504.5Q64 516 61 528Q59 538 56.5 550.0Q54 562 55.0 574.0Q56 586 61.5 596.5Q67 607 80 615L97 616Q106 611 114.5 606.5Q123 602 131 597Q142 592 152.0 587.0Q162 582 173 574L180 560L193 549V538Q194 534 194 527Q194 514 198 511L202 499Q202 485 205.0 472.5Q208 460 211 449Q214 438 217.0 426.0Q220 414 218 400Q224 403 228 407Q230 409 232.0 410.0Q234 411 236 413L295 493L293 503L314 523Q322 531 329.5 538.0Q337 545 342 553L353 561Q385 611 444 623L458 625L462 612Q466 601 478.5 592.0Q491 583 505 575L514 569Q519 559 519.0 554.0Q519 549 518 545L522 535Q514 511 502.5 500.0Q491 489 480 480Q471 472 463.5 465.5Q456 459 452 449L445 441Q424 429 418 409L415 397H403Q402 397 398.5 393.5Q395 390 388 376Q381 366 378.0 363.0Q375 360 373 358Q372 354 370.5 350.5Q369 347 367 342Q354 329 351.0 322.5Q348 316 344 308Q340 300 336.5 292.5Q333 285 325 277Z"/></g>
    <g transform="translate(5423, 0)"><path d="M558 563Q559 556 558.5 552.5Q558 549 557.5 546.0Q557 543 557.0 539.5Q557 536 559 529Q538 495 510.5 482.5Q483 470 451.0 464.5Q419 459 385.5 453.0Q352 447 319 427Q306 432 295.5 427.0Q285 422 265 424Q259 418 250.0 415.5Q241 413 232 410Q236 401 235.5 391.5Q235 382 238 376Q273 373 315.5 377.0Q358 381 399 382Q400 377 398.0 375.5Q396 374 397 370Q404 365 411.0 357.5Q418 350 425.0 343.0Q432 336 439.5 331.5Q447 327 457 328Q461 320 462.5 310.5Q464 301 460 291Q444 280 428.0 268.5Q412 257 394.5 248.0Q377 239 357.5 233.5Q338 228 314 229Q309 229 306.5 229.0Q304 229 300 232Q292 227 277.5 229.0Q263 231 255 226Q244 231 228.5 230.5Q213 230 201 234Q185 213 172.0 189.0Q159 165 149 138Q183 133 205.5 134.0Q228 135 248.0 137.5Q268 140 289.0 142.5Q310 145 342 144Q362 155 389.5 158.5Q417 162 440 170Q448 167 454.0 159.5Q460 152 465.5 145.5Q471 139 477.0 134.0Q483 129 492 130Q496 126 497.5 120.5Q499 115 500.0 110.0Q501 105 503.5 101.5Q506 98 512 99Q497 66 477.5 48.5Q458 31 433.0 22.0Q408 13 377.5 8.0Q347 3 310 -4Q301 -6 295.0 -3.5Q289 -1 281 -1Q258 -6 226.0 -10.0Q194 -14 161.0 -13.0Q128 -12 98.0 -4.5Q68 3 49 22Q41 29 38.5 38.5Q36 48 25 53Q24 66 21.0 82.0Q18 98 15.0 115.5Q12 133 10.5 150.0Q9 167 12 181Q15 196 24.5 208.0Q34 220 31 234Q36 235 37.0 239.5Q38 244 45 243Q51 261 58.0 277.0Q65 293 72.5 308.0Q80 323 87.5 338.5Q95 354 102 373Q88 386 81.5 401.5Q75 417 72.0 432.5Q69 448 67.0 464.5Q65 481 60 498Q70 513 84.5 522.5Q99 532 116.0 538.0Q133 544 153.0 548.0Q173 552 195 557Q235 570 266.5 577.0Q298 584 328.5 588.5Q359 593 392.0 597.0Q425 601 467 609Q476 600 484 600Q488 609 493.5 605.5Q499 602 498 611Q508 594 523.5 582.5Q539 571 558 563Z"/></g>
    <g transform="translate(5957, 0)"><path d="M205 182Q196 180 192.0 171.5Q188 163 184.5 154.0Q181 145 177.5 137.5Q174 130 167 130Q166 122 161.5 116.0Q157 110 153.0 103.5Q149 97 147.0 89.5Q145 82 149 72Q141 66 139.0 55.0Q137 44 134.5 34.0Q132 24 126.0 17.0Q120 10 104 11Q101 7 103.0 6.0Q105 5 106 -1Q95 1 89.5 -2.5Q84 -6 76 -7Q57 -1 44.5 14.0Q32 29 22.5 47.5Q13 66 5.5 85.0Q-2 104 -9 118Q-6 129 -8.0 139.5Q-10 150 -15 157Q34 261 92.0 379.0Q150 497 202 612Q225 603 247.5 591.5Q270 580 288.5 565.0Q307 550 320.0 530.5Q333 511 337 487Q335 481 332.5 482.5Q330 484 328 481Q332 476 332.5 474.0Q333 472 332.5 470.0Q332 468 332.0 464.5Q332 461 335 455Q331 456 329.5 454.0Q328 452 323 454Q327 443 325.5 436.0Q324 429 321.0 423.5Q318 418 316.0 411.5Q314 405 317 395Q314 395 312.5 393.5Q311 392 310.0 390.5Q309 389 307.5 387.5Q306 386 303 387Q306 365 305.0 343.0Q304 321 303.5 298.5Q303 276 304.0 251.5Q305 227 311 201Q347 222 368.5 255.0Q390 288 403.5 329.0Q417 370 424.0 417.0Q431 464 439 513Q448 522 453.0 535.0Q458 548 462.0 562.5Q466 577 470.0 591.5Q474 606 480 618Q495 616 505.5 608.5Q516 601 525.0 592.5Q534 584 544.0 576.5Q554 569 569 567Q581 550 591.0 534.0Q601 518 604 500Q599 492 596.5 482.0Q594 472 591.0 462.0Q588 452 583.0 443.5Q578 435 569 429Q566 403 561.5 381.5Q557 360 552.5 339.0Q548 318 545.0 295.5Q542 273 543 246Q535 223 526.0 197.0Q517 171 512 150Q496 137 487.0 119.0Q478 101 468 83Q464 79 463.0 81.0Q462 83 456 84Q457 80 456.0 78.0Q455 76 453.5 74.5Q452 73 451.5 70.0Q451 67 453 62Q439 56 428.0 45.0Q417 34 404.5 25.0Q392 16 374.5 13.0Q357 10 329 20Q288 50 256.5 89.0Q225 128 205 182Z"/></g>
  </g>
</svg>