<svg xmlns="http://www.w3.org/2000/svg" viewBox="0 0 139.76 28" width="139.76" height="28">
  <path d="M41 -4 117 706Q140 707 162.5 709.5Q185 712 206 716Q226 720 247.0 722.5Q268 725 288 726L285 706Q284 696 281.5 683.5Q279 671 277 655Q272 620 265.0 575.0Q258 530 249 475Q243 441 235.5 393.0Q228 345 218 284H233Q246 330 257.0 368.0Q268 406 276 435Q284 464 291.5 487.5Q299 511 304 530Q325 604 338.0 651.0Q351 698 355 712H364Q390 712 418.5 716.0Q447 720 470 725Q469 721 466.0 692.0Q463 663 459.0 621.0Q455 579 451 534Q444 449 438.5 386.0Q433 323 429 284H447L542 714L609 723Q623 725 638.0 727.0Q653 729 669 731Q698 735 724 740Q694 656 664.0 542.0Q634 428 604 311Q588 247 572.5 181.5Q557 116 542 48L316 10L360 396H348L249 33Z" transform="translate(2, 22) scale(0.024, -0.024)" fill="#000"/>
  <path d="M9 -2Q22 67 34.5 134.5Q47 202 60 269Q74 352 86.5 425.0Q99 498 111.5 570.0Q124 642 136 721L298 732Q281 662 264.5 586.0Q248 510 234 438L333 449Q340 484 346.5 518.5Q353 553 358 587Q363 620 370.5 654.5Q378 689 387 724Q423 730 460.0 733.5Q497 737 522.0 738.5Q547 740 547 740Q534 700 521.0 646.0Q508 592 496.0 532.0Q484 472 473.0 412.5Q462 353 453 302Q442 238 432.0 173.5Q422 109 412 42L256 24Q263 54 268.5 83.5Q274 113 279 141Q289 189 299.5 241.0Q310 293 316 330L219 321Q215 302 211.5 280.0Q208 258 203 233Q198 208 193.5 184.5Q189 161 185 138Q180 111 174.0 84.0Q168 57 163 30Z" transform="translate(18.424, 22) scale(0.024, -0.024)" fill="#000"/>
  <path d="M259 2Q261 19 263.0 35.0Q265 51 267 67L273 123Q274 137 275.0 149.0Q276 161 277 171H190L150 27Q128 24 98.0 20.5Q68 17 42 14Q26 12 10.5 10.0Q-5 8 -21 6L58 268Q72 315 90.0 375.0Q108 435 126.5 498.0Q145 561 161.5 616.5Q178 672 188 710Q256 715 326.5 722.0Q397 729 464 741Q459 685 454.5 614.5Q450 544 446.5 469.0Q443 394 439 321Q437 252 434.0 178.5Q431 105 428 28Q413 26 398.0 24.0Q383 22 368 20Q343 16 313.0 11.0Q283 6 259 2ZM214 271Q220 271 236.5 272.0Q253 273 268.0 274.0Q283 275 286 275Q286 288 290.0 328.0Q294 368 298 412Q300 438 302.5 465.5Q305 493 308 522L314 609L299 608L276 522Z" transform="translate(31.032, 22) scale(0.024, -0.024)" fill="#000"/>
  <path d="M90 -1Q101 54 112.5 108.5Q124 163 134 216Q172 406 196 580Q185 582 173.0 582.5Q161 583 150 582Q126 580 103 588Q104 596 104.0 605.5Q104 615 104 625Q104 636 104.0 646.5Q104 657 105 667Q106 678 106.0 690.5Q106 703 107 716Q133 714 159.0 713.0Q185 712 211 712Q285 712 352.5 717.0Q420 722 477 729L466 675L457 628Q452 602 448 587Q437 584 426.0 582.0Q415 580 404 579Q393 578 381.5 576.0Q370 574 359 572Q344 498 334.5 444.0Q325 390 317.5 340.5Q310 291 300 232Q283 131 270 27Z" transform="translate(43.424, 22) scale(0.024, -0.024)" fill="#000"/>
  <path d="M-6 1Q11 60 27.5 135.0Q44 210 59.5 288.5Q75 367 89 437Q102 501 114.0 567.0Q126 633 138 700L294 725Q281 658 268.0 592.5Q255 527 242 462Q228 392 213.0 314.0Q198 236 184.0 160.5Q170 85 158 20Q140 20 113.0 17.5Q86 15 59.0 11.5Q32 8 13.5 5.0Q-5 2 -6 1Z" transform="translate(58.912, 22) scale(0.024, -0.024)" fill="#000"/>
  <path d="M171 -2Q131 -2 91.0 19.5Q51 41 14 88L88 233Q99 214 120.5 197.0Q142 180 166.0 170.0Q190 160 207 160Q233 160 256.5 176.0Q280 192 280 219Q280 254 248.0 283.0Q216 312 176 340Q137 368 104.5 403.5Q72 439 72 485Q72 537 102.0 581.5Q132 626 180.0 659.5Q228 693 282.5 711.5Q337 730 386 730Q421 730 451.0 718.5Q481 707 499.0 681.0Q517 655 517 611Q517 604 516.5 597.0Q516 590 515 583Q514 576 512.5 568.5Q511 561 510 553L365 511Q367 519 368.5 527.0Q370 535 370 543Q370 573 359.5 586.5Q349 600 332 600Q323 600 306.0 590.5Q289 581 275.5 564.5Q262 548 262 528Q262 495 289.5 473.5Q317 452 353 430Q370 420 391.0 398.5Q412 377 427.5 340.5Q443 304 443 247Q443 173 406.5 117.0Q370 61 308.0 29.5Q246 -2 171 -2Z" transform="translate(65.712, 22) scale(0.024, -0.024)" fill="#000"/>
  <path d="M90 -1Q101 54 112.5 108.5Q124 163 134 216Q172 406 196 580Q185 582 173.0 582.5Q161 583 150 582Q126 580 103 588Q104 596 104.0 605.5Q104 615 104 625Q104 636 104.0 646.5Q104 657 105 667Q106 678 106.0 690.5Q106 703 107 716Q133 714 159.0 713.0Q185 712 211 712Q285 712 352.5 717.0Q420 722 477 729L466 675L457 628Q452 602 448 587Q437 584 426.0 582.0Q415 580 404 579Q393 578 381.5 576.0Q370 574 359 572Q344 498 334.5 444.0Q325 390 317.5 340.5Q310 291 300 232Q283 131 270 27Z" transform="translate(82.83200000000001, 22) scale(0.024, -0.024)" fill="#000"/>
  <path d="M9 -2Q22 67 34.5 134.5Q47 202 60 269Q74 352 86.5 425.0Q99 498 111.5 570.0Q124 642 136 721L298 732Q281 662 264.5 586.0Q248 510 234 438L333 449Q340 484 346.5 518.5Q353 553 358 587Q363 620 370.5 654.5Q378 689 387 724Q423 730 460.0 733.5Q497 737 522.0 738.5Q547 740 547 740Q534 700 521.0 646.0Q508 592 496.0 532.0Q484 472 473.0 412.5Q462 353 453 302Q442 238 432.0 173.5Q422 109 412 42L256 24Q263 54 268.5 83.5Q274 113 279 141Q289 189 299.5 241.0Q310 293 316 330L219 321Q215 302 211.5 280.0Q208 258 203 233Q198 208 193.5 184.5Q189 161 185 138Q180 111 174.0 84.0Q168 57 163 30Z" transform="translate(93.52000000000001, 22) scale(0.024, -0.024)" fill="#000"/>
  <path d="M-6 1Q11 60 27.5 135.0Q44 210 59.5 288.5Q75 367 89 437Q102 501 114.0 567.0Q126 633 138 700L294 725Q281 658 268.0 592.5Q255 527 242 462Q228 392 213.0 314.0Q198 236 184.0 160.5Q170 85 158 20Q140 20 113.0 17.5Q86 15 59.0 11.5Q32 8 13.5 5.0Q-5 2 -6 1Z" transform="translate(106.12800000000001, 22) scale(0.024, -0.024)" fill="#000"/>
  <path d="M171 -2Q131 -2 91.0 19.5Q51 41 14 88L88 233Q99 214 120.5 197.0Q142 180 166.0 170.0Q190 160 207 160Q233 160 256.5 176.0Q280 192 280 219Q280 254 248.0 283.0Q216 312 176 340Q137 368 104.5 403.5Q72 439 72 485Q72 537 102.0 581.5Q132 626 180.0 659.5Q228 693 282.5 711.5Q337 730 386 730Q421 730 451.0 718.5Q481 707 499.0 681.0Q517 655 517 611Q517 604 516.5 597.0Q516 590 515 583Q514 576 512.5 568.5Q511 561 510 553L365 511Q367 519 368.5 527.0Q370 535 370 543Q370 573 359.5 586.5Q349 600 332 600Q323 600 306.0 590.5Q289 581 275.5 564.5Q262 548 262 528Q262 495 289.5 473.5Q317 452 353 430Q370 420 391.0 398.5Q412 377 427.5 340.5Q443 304 443 247Q443 173 406.5 117.0Q370 61 308.0 29.5Q246 -2 171 -2Z" transform="translate(112.92800000000001, 22) scale(0.024, -0.024)" fill="#000"/>
  <path d="M149 236Q149 290 164.5 332.5Q180 375 204.0 408.0Q228 441 253 465Q291 502 323.0 530.0Q355 558 355 580Q355 586 347.0 596.5Q339 607 322 607Q304 607 276.0 592.0Q248 577 218.0 554.5Q188 532 162 508L109 631Q160 677 224.0 703.5Q288 730 354 730Q395 730 431.0 718.0Q467 706 489.5 678.0Q512 650 512 602Q512 533 479.5 487.5Q447 442 404 410Q359 377 319.5 339.0Q280 301 267 248ZM174 -23Q134 -23 115.0 1.5Q96 26 96 60Q96 86 109.0 111.0Q122 136 147.0 153.0Q172 170 208 170Q263 170 288.5 146.0Q314 122 314 91Q314 63 297.5 36.5Q281 10 249.5 -6.5Q218 -23 174 -23Z" transform="translate(125.24800000000002, 22) scale(0.024, -0.024)" fill="#000"/>
</svg>