<?xml version="1.0" encoding="UTF-8"?>
<svg xmlns="http://www.w3.org/2000/svg" viewBox="0 0 141.5 18" 
     width="141.5" height="18">
  <g transform="translate(0, 15.3) scale(0.017578, -0.017578)" fill="#000000">
    <g transform="translate(0, 0)"><path d="M78 71Q73 82 68.0 92.0Q63 102 58 110Q46 134 37.0 153.0Q28 172 20 197Q23 214 30.5 254.0Q38 294 48.0 341.5Q58 389 69.5 438.0Q81 487 93 522Q104 553 117.5 588.0Q131 623 147.5 652.5Q164 682 183.0 703.0Q202 724 224 728Q230 720 237.0 715.5Q244 711 250 709Q267 685 283.0 668.5Q299 652 321 636Q315 606 303.5 569.5Q292 533 279.5 496.0Q267 459 255.0 424.5Q243 390 236 365Q230 345 224 319Q219 297 213.5 266.0Q208 235 203 198Q217 202 234.5 214.0Q252 226 267 239Q285 254 302 271Q325 294 341.0 313.0Q357 332 370.5 352.5Q384 373 398.5 397.5Q413 422 433 456Q451 485 470.5 518.0Q490 551 510.0 581.0Q530 611 549.0 636.5Q568 662 584 676Q595 665 609.5 653.0Q624 641 641 636Q648 625 654.5 616.5Q661 608 667 600Q675 589 681.5 580.0Q688 571 693 560Q692 552 689.5 539.0Q687 526 684.0 510.5Q681 495 677.5 479.0Q674 463 671 448Q661 403 656.0 380.0Q651 357 649.0 344.0Q647 331 646.5 322.0Q646 313 646 297Q646 285 648 273Q650 262 652.5 250.5Q655 239 662 229L710 266Q730 281 748.5 308.5Q767 336 784.5 371.5Q802 407 819.0 448.5Q836 490 853 534Q865 566 877.5 597.5Q890 629 903.0 657.5Q916 686 928.5 709.5Q941 733 953 749Q980 732 999.5 715.0Q1019 698 1033.5 677.5Q1048 657 1056.5 630.5Q1065 604 1069 568Q1047 526 1028.0 482.0Q1009 438 990 393Q966 335 940.5 277.5Q915 220 884.0 168.0Q853 116 814.5 72.5Q776 29 726 -1Q712 2 702 2Q691 2 683.5 -1.0Q676 -4 670 -9Q629 10 604.0 47.5Q579 85 555 131Q552 138 548.5 144.5Q545 151 541 158L524 189L514 208L500 195L479 176L467 164Q436 135 404.0 107.5Q372 80 337.0 57.5Q302 35 262.5 21.0Q223 7 178 6Q170 10 163.5 13.0Q157 16 151 19Q128 30 113.0 40.0Q98 50 78 71Z"/></g>
    <g transform="translate(1018, 0)"><path d="M512 97Q514 71 506.0 54.0Q498 37 484.0 25.0Q470 13 452.0 6.0Q434 -1 417 -7Q409 -2 401.5 3.5Q394 9 384 12Q371 36 359.0 54.5Q347 73 348 97Q348 98 349.5 108.0Q351 118 353.5 130.0Q356 142 357.5 152.5Q359 163 359 164Q336 162 311.0 154.0Q286 146 262.5 135.0Q239 124 218.5 113.0Q198 102 185 94Q185 91 181.0 79.5Q177 68 171.0 55.5Q165 43 158.0 33.0Q151 23 144 23Q145 20 147.0 17.0Q149 14 147 9Q133 5 122.0 -1.5Q111 -8 99.0 -12.5Q87 -17 73.0 -17.0Q59 -17 40 -7Q40 -1 35.0 3.5Q30 8 24.5 11.5Q19 15 15.0 17.5Q11 20 11 22Q6 21 7.0 29.0Q8 37 15 33Q4 47 1.5 57.5Q-1 68 -10 84Q-8 86 -6.5 91.0Q-5 96 -4.0 100.0Q-3 104 -1.0 106.0Q1 108 4 105Q2 114 4.0 120.0Q6 126 8.0 131.0Q10 136 11.0 141.0Q12 146 8 152Q24 174 29.0 199.5Q34 225 35 246Q42 253 47.5 266.0Q53 279 56.0 292.5Q59 306 58.5 318.5Q58 331 55 339Q56 344 66 342Q72 375 74.5 416.5Q77 458 83.0 495.5Q89 533 103.0 561.5Q117 590 148 599Q154 578 163.5 562.0Q173 546 184.5 531.5Q196 517 207.5 502.0Q219 487 229 468Q228 449 225.0 424.0Q222 399 217.5 373.0Q213 347 208.5 323.0Q204 299 200 282Q201 277 205.5 276.0Q210 275 207 267Q231 273 257.0 278.0Q283 283 309.0 289.0Q335 295 359.5 302.5Q384 310 405 321Q410 360 418.0 399.0Q426 438 420 479Q425 483 428.0 489.0Q431 495 438 497Q433 516 434.0 537.0Q435 558 441.5 577.0Q448 596 460.5 609.5Q473 623 491 627Q502 611 510.0 592.5Q518 574 526.5 555.5Q535 537 544.5 520.5Q554 504 569 492Q572 463 573.5 432.0Q575 401 576 369Q568 331 558.5 295.5Q549 260 545 220Q538 212 534.0 202.0Q530 192 526.0 181.5Q522 171 517.0 161.5Q512 152 505 145Q509 133 506.5 122.5Q504 112 512 97Z"/></g>
    <g transform="translate(1614, 0)"><path d="M529 84Q523 67 511.5 49.5Q500 32 484.5 18.5Q469 5 450.0 -4.0Q431 -13 410 -14Q397 -11 392.5 -7.5Q388 -4 383 -1Q380 1 377.5 2.5Q375 4 373 5L361 10L365 23Q367 31 364.0 35.5Q361 40 352 48Q349 51 346.0 54.0Q343 57 341 60L324 79L351 86Q376 93 384.5 104.0Q393 115 391 141Q371 145 357.5 142.0Q344 139 330 135Q312 130 293.5 126.5Q275 123 253 123Q245 123 238.0 123.5Q231 124 223 125L213 127Q211 138 209.0 139.5Q207 141 205 143Q200 148 194.5 156.5Q189 165 192 178Q187 187 186 196Q180 184 177 171L173 161L163 159Q161 158 160.0 154.5Q159 151 159 149L154 132Q152 130 150.0 128.5Q148 127 146 125Q144 116 141.0 107.0Q138 98 135 90Q130 77 126.5 64.5Q123 52 124 40L120 29Q115 23 109.0 19.5Q103 16 97 13Q95 11 91.5 9.5Q88 8 86 7L83 -4L71 -6Q60 -8 55.5 -9.0Q51 -10 45 -10L35 -9Q24 0 18.0 5.5Q12 11 4 16Q-5 28 -6.0 34.0Q-7 40 -8 45Q-10 51 -10.5 55.0Q-11 59 -13 61L-26 73L-15 82L-14 99Q6 150 28.5 197.0Q51 244 75 293Q83 309 90.5 325.0Q98 341 106 357Q105 360 105.0 364.0Q105 368 107 373Q118 390 125.0 403.5Q132 417 139 431Q147 448 155.5 464.0Q164 480 177 497L193 504Q196 505 200.0 506.5Q204 508 209 508L224 506Q252 519 273.0 542.5Q294 566 316 599L326 613L339 605Q344 602 353.0 599.5Q362 597 372 594Q390 590 406.0 585.0Q422 580 432 570Q438 554 439.0 546.0Q440 538 442 530Q445 513 447.5 496.0Q450 479 451 458Q456 441 459.5 424.5Q463 408 466 391Q471 367 476.0 344.5Q481 322 489 302Q497 302 499 301Q504 303 509.5 304.0Q515 305 522 306L533 307L537 297Q538 292 547 287Q560 286 566.0 281.5Q572 277 577 272Q581 268 585 266L600 260L592 245Q582 227 563.5 210.5Q545 194 522 183Q523 177 523.5 171.5Q524 166 526 160Q529 143 531.0 125.0Q533 107 531 88ZM240 257Q270 259 294.5 261.5Q319 264 349 270Q342 300 334.0 332.5Q326 365 317 397L311 387Q291 366 272.5 340.0Q254 314 241 291Q235 282 229.0 273.0Q223 264 218 255Q224 256 229.5 256.0Q235 256 240 257Z"/></g>
    <g transform="translate(2209, 0)"><path d="M569 481Q544 481 515.0 477.5Q486 474 458 470Q438 467 419.5 465.0Q401 463 386 462Q379 440 372.0 423.0Q365 406 357 390Q349 373 342.5 355.5Q336 338 330 318Q320 302 313.5 288.5Q307 275 303 258Q291 243 285.0 226.5Q279 210 276 198L272 186Q266 180 265.0 176.5Q264 173 260 170Q259 159 253 148Q251 143 250.0 138.5Q249 134 249 132Q249 122 244 119Q245 114 244.0 108.5Q243 103 242 98Q239 86 240 79Q243 75 245.5 72.0Q248 69 249 64Q255 60 258 59Q262 56 270 52L279 42Q284 13 270 -4Q255 -23 219 -23H207Q202 -18 201 -15Q193 -12 188.0 -10.0Q183 -8 179 -2Q166 4 158 8L149 13Q149 24 149 25Q142 34 138.5 45.0Q135 56 133 67Q131 76 128.5 84.0Q126 92 122 98Q120 156 133.0 196.0Q146 236 160 273Q168 293 176.0 313.5Q184 334 190 356L199 366Q206 382 210.5 392.5Q215 403 220 414Q223 421 225.5 427.5Q228 434 230 439Q224 439 219.0 438.5Q214 438 209 437Q203 436 198.0 435.5Q193 435 188 435Q181 435 178 436Q167 431 154 431H144Q141 431 138.5 431.5Q136 432 134 432Q124 432 118 429Q106 429 95 429H85Q83 429 80.0 428.5Q77 428 75 428Q68 428 60.0 429.5Q52 431 43 436Q31 452 27 453L18 465Q17 471 15.0 476.5Q13 482 11 489Q7 499 3.5 510.5Q0 522 0 538Q1 546 4.0 550.0Q7 554 9 557L12 572L25 571H53Q85 571 118.0 573.5Q151 576 186 579Q206 581 226.5 583.0Q247 585 269 587Q273 596 277 604L287 609Q305 610 312.5 604.5Q320 599 325 594Q347 596 369.5 598.5Q392 601 415 605Q449 610 483.5 614.0Q518 618 550 618Q564 618 577.0 617.0Q590 616 601 614L611 607Q614 601 619.5 596.0Q625 591 631 586Q643 575 655.0 560.0Q667 545 664 516Q656 504 652 502L643 490L633 491Q627 491 622.0 489.5Q617 488 612 486Q608 484 604.0 482.5Q600 481 595 480Q586 480 580.5 480.5Q575 481 569 481Z"/></g>
    <g transform="translate(2950, 0)"><path d="M212 70Q217 40 208.5 23.0Q200 6 184.5 -2.5Q169 -11 149.0 -12.0Q129 -13 111 -10Q101 4 93.0 25.0Q85 46 78.0 68.5Q71 91 65.5 113.0Q60 135 56 152Q61 164 62.5 179.5Q64 195 64.5 211.0Q65 227 65.5 243.5Q66 260 68 275Q75 317 88.5 355.0Q102 393 110 434Q112 443 108.5 451.0Q105 459 107 466Q108 470 113.0 471.5Q118 473 119 478Q122 489 120.5 496.0Q119 503 124 513Q129 521 136.5 536.5Q144 552 142 569Q151 575 159.0 583.0Q167 591 175.5 597.5Q184 604 194.5 609.0Q205 614 220 614Q228 604 230.5 592.0Q233 580 235.5 568.0Q238 556 243.0 545.5Q248 535 260 529Q260 521 260.0 509.0Q260 497 261.0 485.5Q262 474 265.5 464.5Q269 455 277 452Q259 404 243.5 357.0Q228 310 218.0 262.5Q208 215 205.5 167.0Q203 119 212 70Z"/></g>
    <g transform="translate(3278, 0)"><path d="M16 450Q23 471 38.5 486.0Q54 501 72.5 511.5Q91 522 111.0 529.0Q131 536 149 541Q189 558 234.5 573.5Q280 589 327.5 601.0Q375 613 425.0 616.5Q475 620 530 604Q533 594 539.0 585.0Q545 576 551.5 567.0Q558 558 563.0 549.5Q568 541 569 532Q579 523 585.0 512.5Q591 502 587 485Q577 477 567.5 470.5Q558 464 547 459Q510 468 472.0 465.0Q434 462 404 460Q395 469 382.5 469.0Q370 469 356.5 465.0Q343 461 329.5 457.0Q316 453 304 455Q294 447 279.5 444.5Q265 442 248 440Q247 435 250.0 433.5Q253 432 251 427Q257 420 266.5 417.0Q276 414 286.5 411.0Q297 408 305.0 403.5Q313 399 316 389Q331 389 342.0 382.0Q353 375 360.0 365.0Q367 355 370.5 343.5Q374 332 374 323Q377 315 381.0 316.0Q385 317 390 312Q393 299 405.0 285.5Q417 272 424 256Q426 231 427.0 211.5Q428 192 420 172Q405 135 378.5 106.0Q352 77 318.5 54.5Q285 32 247.0 16.0Q209 0 173 -11Q169 -10 165.0 -11.0Q161 -12 163 -6Q155 -13 145.5 -15.0Q136 -17 125.0 -16.5Q114 -16 102.5 -15.0Q91 -14 81 -16Q74 -9 68.5 -2.5Q63 4 60 14Q55 14 55.5 19.0Q56 24 52 24Q58 34 57.5 35.5Q57 37 54.5 38.0Q52 39 50.0 40.5Q48 42 49 45Q53 53 52.0 63.5Q51 74 50.0 85.0Q49 96 51.5 106.0Q54 116 66 122Q100 118 130.5 124.5Q161 131 188.0 143.0Q215 155 239.5 169.0Q264 183 288 194Q291 203 296.5 209.0Q302 215 308.0 220.0Q314 225 319.0 231.0Q324 237 326 246Q327 253 322.5 254.5Q318 256 318 262L307 265Q288 276 264.0 283.5Q240 291 223 300Q212 294 202.5 297.0Q193 300 178 303Q144 305 112.5 310.0Q81 315 52 328Q50 333 47.0 337.0Q44 341 36 339Q30 347 24.0 354.5Q18 362 13 371Q15 383 16.0 391.5Q17 400 10 408Q14 421 16.0 429.0Q18 437 16 450Z"/></g>
    <g transform="translate(4003, 0)"><path d="M44 203Q14 220 -2.0 251.0Q-18 282 -20 310Q-17 334 -7.5 347.5Q2 361 15.0 369.5Q28 378 42.0 382.5Q56 387 69 390L84 385Q89 380 94.5 376.0Q100 372 105 368Q115 372 117.5 380.0Q120 388 123 396Q126 407 130.0 418.0Q134 429 140 440Q139 449 141.0 456.0Q143 463 145 468Q139 473 136.5 473.5Q134 474 128 476Q125 476 122.0 476.5Q119 477 115 478Q100 489 95.5 496.5Q91 504 86 512Q81 520 77.0 526.0Q73 532 68 537L56 545L62 557Q64 559 64.0 562.5Q64 566 60 573Q57 586 59 592L61 604Q71 617 72 619L82 629Q105 635 129.0 642.5Q153 650 176 658Q199 666 223.0 674.0Q247 682 271 688Q279 695 288.5 696.5Q298 698 306 699Q313 699 319.0 700.0Q325 701 328 705Q345 711 361 715Q391 723 440.0 734.0Q489 745 550 750L571 751Q577 750 583.0 750.5Q589 751 595 751Q647 751 664 719Q674 714 682.0 706.5Q690 699 697 692Q702 687 706.0 683.5Q710 680 713 678L721 670Q732 646 725 623Q719 611 712.0 609.0Q705 607 698 605L685 598Q672 599 665.5 599.0Q659 599 651 599Q621 599 581.5 595.5Q542 592 501.0 585.5Q460 579 421.0 569.5Q382 560 353 549Q345 543 332 538Q329 537 323 533Q324 525 323.0 517.5Q322 510 320 503Q319 498 318.5 492.5Q318 487 317 481Q296 456 297 422L292 412Q288 408 285.5 400.5Q283 393 285 385L289 373Q309 375 328.5 377.5Q348 380 370 383Q398 388 426.5 391.5Q455 395 486 395H525L516 386L527 385L521 369Q528 366 531.5 364.5Q535 363 538 361L545 351Q550 348 554.0 341.5Q558 335 559 324L556 314L509 254L503 246L493 249Q474 250 457 245Q449 243 440.0 240.5Q431 238 422 238Q398 234 382.0 231.5Q366 229 350 227Q328 223 307.5 219.5Q287 216 269 209Q258 208 256.0 208.5Q254 209 252 209Q242 209 232.0 206.0Q222 203 213 200Q207 195 205.0 189.5Q203 184 201 178Q199 171 195.5 164.5Q192 158 187 151L188 133Q179 131 179.0 130.5Q179 130 178 130Q178 122 175.5 115.0Q173 108 171 102Q169 98 168.0 95.0Q167 92 167 89Q177 71 172 48Q168 29 157.0 14.5Q146 0 131 -8Q115 -10 107.5 -7.0Q100 -4 92 -1Q87 1 82.0 2.5Q77 4 72 5L60 15Q57 21 53.0 26.5Q49 32 45 38Q40 45 35.0 52.0Q30 59 26 68Q19 103 23.5 126.5Q28 150 36 173Q38 181 40.0 188.0Q42 195 44 203Z"/></g>
    <g transform="translate(4592, 0)"><path d="M264 11Q236 2 203.0 -7.0Q170 -16 137 -16Q87 -16 58 9Q53 20 49 24Q46 28 43.5 32.5Q41 37 40 45Q28 59 21.0 77.5Q14 96 11.5 115.5Q9 135 10.5 155.0Q12 175 17 193Q19 197 19.5 201.0Q20 205 21 210Q25 226 29.5 241.0Q34 256 42 267Q38 276 42.0 287.0Q46 298 51 307Q65 345 74.5 371.5Q84 398 94 424Q111 469 126.0 513.0Q141 557 153 608Q161 613 165 615Q171 617 175 618Q193 609 217.0 600.5Q241 592 257 592Q265 587 267.0 584.5Q269 582 271 580Q282 567 290.0 553.5Q298 540 295 518Q289 509 286 509Q281 489 275.5 475.0Q270 461 264 447Q257 432 251.0 417.0Q245 402 241 380Q237 375 235.5 371.0Q234 367 232 362Q230 357 227.5 351.5Q225 346 220 342Q217 316 210.5 300.0Q204 284 197 268Q185 239 175.5 210.0Q166 181 164 144Q169 146 173.5 146.0Q178 146 182 146Q191 146 203 143Q233 159 268.5 162.0Q304 165 339 166Q353 166 367.0 166.0Q381 166 393 168Q402 163 404.5 162.5Q407 162 412 162Q419 162 424 161Q436 150 447.0 145.0Q458 140 470 136Q481 132 491.5 127.5Q502 123 512 115L519 72Q526 63 525 60Q525 52 521 48L523 37Q508 34 502.5 30.0Q497 26 492 21Q484 20 480.5 20.0Q477 20 474 20Q460 20 440 15Q413 24 384 24Q373 24 361.0 23.0Q349 22 337 21Q325 19 312.5 18.0Q300 17 287 17Z"/></g>
    <g transform="translate(5138, 0)"><path d="M529 84Q523 67 511.5 49.5Q500 32 484.5 18.5Q469 5 450.0 -4.0Q431 -13 410 -14Q397 -11 392.5 -7.5Q388 -4 383 -1Q380 1 377.5 2.5Q375 4 373 5L361 10L365 23Q367 31 364.0 35.5Q361 40 352 48Q349 51 346.0 54.0Q343 57 341 60L324 79L351 86Q376 93 384.5 104.0Q393 115 391 141Q371 145 357.5 142.0Q344 139 330 135Q312 130 293.5 126.5Q275 123 253 123Q245 123 238.0 123.5Q231 124 223 125L213 127Q211 138 209.0 139.5Q207 141 205 143Q200 148 194.5 156.5Q189 165 192 178Q187 187 186 196Q180 184 177 171L173 161L163 159Q161 158 160.0 154.5Q159 151 159 149L154 132Q152 130 150.0 128.5Q148 127 146 125Q144 116 141.0 107.0Q138 98 135 90Q130 77 126.5 64.5Q123 52 124 40L120 29Q115 23 109.0 19.5Q103 16 97 13Q95 11 91.5 9.5Q88 8 86 7L83 -4L71 -6Q60 -8 55.5 -9.0Q51 -10 45 -10L35 -9Q24 0 18.0 5.5Q12 11 4 16Q-5 28 -6.0 34.0Q-7 40 -8 45Q-10 51 -10.5 55.0Q-11 59 -13 61L-26 73L-15 82L-14 99Q6 150 28.5 197.0Q51 244 75 293Q83 309 90.5 325.0Q98 341 106 357Q105 360 105.0 364.0Q105 368 107 373Q118 390 125.0 403.5Q132 417 139 431Q147 448 155.5 464.0Q164 480 177 497L193 504Q196 505 200.0 506.5Q204 508 209 508L224 506Q252 519 273.0 542.5Q294 566 316 599L326 613L339 605Q344 602 353.0 599.5Q362 597 372 594Q390 590 406.0 585.0Q422 580 432 570Q438 554 439.0 546.0Q440 538 442 530Q445 513 447.5 496.0Q450 479 451 458Q456 441 459.5 424.5Q463 408 466 391Q471 367 476.0 344.5Q481 322 489 302Q497 302 499 301Q504 303 509.5 304.0Q515 305 522 306L533 307L537 297Q538 292 547 287Q560 286 566.0 281.5Q572 277 577 272Q581 268 585 266L600 260L592 245Q582 227 563.5 210.5Q545 194 522 183Q523 177 523.5 171.5Q524 166 526 160Q529 143 531.0 125.0Q533 107 531 88ZM240 257Q270 259 294.5 261.5Q319 264 349 270Q342 300 334.0 332.5Q326 365 317 397L311 387Q291 366 272.5 340.0Q254 314 241 291Q235 282 229.0 273.0Q223 264 218 255Q224 256 229.5 256.0Q235 256 240 257Z"/></g>
    <g transform="translate(5733, 0)"><path d="M603 36Q555 34 518.5 38.0Q482 42 447 57Q445 58 443.0 62.0Q441 66 439 68Q433 71 424.5 70.5Q416 70 410 72Q402 76 385.0 87.5Q368 99 354 109Q336 123 320.0 137.0Q304 151 292 167Q289 171 284.0 171.5Q279 172 275 174Q246 156 226.0 129.0Q206 102 188.0 74.0Q170 46 150.0 21.0Q130 -4 99 -17Q90 -17 83.0 -14.0Q76 -11 70.0 -6.5Q64 -2 58.0 2.0Q52 6 45 8Q45 20 40.5 30.0Q36 40 31.5 49.0Q27 58 25.0 66.5Q23 75 29 83Q23 89 11 96Q17 102 16.5 107.0Q16 112 14.0 117.0Q12 122 10.5 128.0Q9 134 13 140Q18 140 25 142Q19 150 19.5 151.5Q20 153 17 156Q15 162 19.0 163.5Q23 165 27 167Q31 216 44.0 258.0Q57 300 73.0 339.0Q89 378 104.5 418.0Q120 458 130 504Q141 515 147.5 530.0Q154 545 161.5 560.0Q169 575 178.5 589.5Q188 604 205 613Q219 612 230.0 605.5Q241 599 257 600Q260 595 262.5 590.0Q265 585 269 580L284 583Q295 574 303.5 560.5Q312 547 315.0 532.0Q318 517 314.0 503.5Q310 490 295 482Q296 477 295.5 474.5Q295 472 294.0 470.0Q293 468 293.0 466.0Q293 464 296 460Q276 445 266.0 418.0Q256 391 255 370Q267 382 281.5 393.5Q296 405 311.5 416.0Q327 427 341.5 437.0Q356 447 368 457Q401 487 431.5 505.5Q462 524 496 547Q504 549 508.5 547.5Q513 546 518 544Q518 550 514.5 551.0Q511 552 512 559Q527 563 538.0 568.5Q549 574 562 579Q571 570 579.0 560.5Q587 551 601 549Q606 538 613.0 532.5Q620 527 627.0 522.0Q634 517 639.5 510.0Q645 503 646 488Q642 481 637.5 473.0Q633 465 629 454Q609 436 588.5 422.0Q568 408 547.0 395.0Q526 382 504.0 369.0Q482 356 459 338Q454 331 446.5 325.5Q439 320 431.0 314.5Q423 309 416.0 303.0Q409 297 405 289Q402 288 399.0 288.0Q396 288 393 287Q390 280 383.5 276.0Q377 272 375 265Q390 233 414.0 216.0Q438 199 468.0 191.5Q498 184 533.0 183.5Q568 183 606 183Q610 184 609.5 187.5Q609 191 614 190Q638 182 651.0 167.5Q664 153 682 139Q680 101 659.0 76.0Q638 51 603 36Z"/></g>
    <g transform="translate(6394, 0)"><path d="M558 563Q559 556 558.5 552.5Q558 549 557.5 546.0Q557 543 557.0 539.5Q557 536 559 529Q538 495 510.5 482.5Q483 470 451.0 464.5Q419 459 385.5 453.0Q352 447 319 427Q306 432 295.5 427.0Q285 422 265 424Q259 418 250.0 415.5Q241 413 232 410Q236 401 235.5 391.5Q235 382 238 376Q273 373 315.5 377.0Q358 381 399 382Q400 377 398.0 375.5Q396 374 397 370Q404 365 411.0 357.5Q418 350 425.0 343.0Q432 336 439.5 331.5Q447 327 457 328Q461 320 462.5 310.5Q464 301 460 291Q444 280 428.0 268.5Q412 257 394.5 248.0Q377 239 357.5 233.5Q338 228 314 229Q309 229 306.5 229.0Q304 229 300 232Q292 227 277.5 229.0Q263 231 255 226Q244 231 228.5 230.5Q213 230 201 234Q185 213 172.0 189.0Q159 165 149 138Q183 133 205.5 134.0Q228 135 248.0 137.5Q268 140 289.0 142.5Q310 145 342 144Q362 155 389.5 158.5Q417 162 440 170Q448 167 454.0 159.5Q460 152 465.5 145.5Q471 139 477.0 134.0Q483 129 492 130Q496 126 497.5 120.5Q499 115 500.0 110.0Q501 105 503.5 101.5Q506 98 512 99Q497 66 477.5 48.5Q458 31 433.0 22.0Q408 13 377.5 8.0Q347 3 310 -4Q301 -6 295.0 -3.5Q289 -1 281 -1Q258 -6 226.0 -10.0Q194 -14 161.0 -13.0Q128 -12 98.0 -4.5Q68 3 49 22Q41 29 38.5 38.5Q36 48 25 53Q24 66 21.0 82.0Q18 98 15.0 115.5Q12 133 10.5 150.0Q9 167 12 181Q15 196 24.5 208.0Q34 220 31 234Q36 235 37.0 239.5Q38 244 45 243Q51 261 58.0 277.0Q65 293 72.5 308.0Q80 323 87.5 338.5Q95 354 102 373Q88 386 81.5 401.5Q75 417 72.0 432.5Q69 448 67.0 464.5Q65 481 60 498Q70 513 84.5 522.5Q99 532 116.0 538.0Q133 544 153.0 548.0Q173 552 195 557Q235 570 266.5 577.0Q298 584 328.5 588.5Q359 593 392.0 597.0Q425 601 467 609Q476 600 484 600Q488 609 493.5 605.5Q499 602 498 611Q508 594 523.5 582.5Q539 571 558 563Z"/></g>
    <g transform="translate(6928, 0)"><path d="M524 733Q546 717 559.5 694.5Q573 672 581.0 646.5Q589 621 593.5 593.5Q598 566 601 541Q591 506 567.0 474.0Q543 442 510 423Q480 400 456.5 381.5Q433 363 401 357Q393 349 385.5 342.5Q378 336 372 326Q389 280 407.0 235.0Q425 190 431 136Q419 129 418.0 115.0Q417 101 417 85Q405 71 399.0 55.5Q393 40 380 29Q377 27 373.5 28.5Q370 30 367 28Q354 21 340.5 10.0Q327 -1 313 -5Q287 -12 260.5 -11.0Q234 -10 209.5 -3.0Q185 4 164.0 16.5Q143 29 127 46Q116 66 109.0 87.5Q102 109 86 125Q81 157 80.5 201.0Q80 245 94 288Q99 302 107.0 313.0Q115 324 114 338Q119 339 121.5 342.0Q124 345 129 347Q132 355 128.5 358.0Q125 361 127 368Q112 389 97.5 411.5Q83 434 73.0 458.0Q63 482 61.0 509.0Q59 536 70 567Q70 582 76.5 601.0Q83 620 94.0 638.0Q105 656 119.0 670.5Q133 685 150 692Q150 699 153.5 700.5Q157 702 157 709Q170 713 181.0 719.0Q192 725 203.5 730.5Q215 736 228.5 740.5Q242 745 260 746Q292 748 325.5 742.0Q359 736 382 722Q392 696 406.5 676.0Q421 656 428 639Q430 624 432.0 612.5Q434 601 434.0 590.0Q434 579 431.0 567.5Q428 556 420 541Q440 546 453.5 557.0Q467 568 474 589Q474 606 465.0 618.0Q456 630 451 645Q457 648 459.0 652.5Q461 657 460.0 662.0Q459 667 457.5 672.0Q456 677 456 682Q462 684 464.0 682.0Q466 680 469 683Q467 691 466.5 691.5Q466 692 465 698Q469 703 475.0 708.0Q481 713 486 707Q480 717 485.5 726.0Q491 735 500 740Q505 738 510.5 736.0Q516 734 524 733ZM287 163Q287 170 290.0 173.5Q293 177 295 182Q283 207 271.5 224.5Q260 242 234 258Q220 249 213.0 236.0Q206 223 205.0 209.5Q204 196 209.5 183.0Q215 170 226 160Q236 163 254.0 159.5Q272 156 287 163ZM262 453Q277 461 293.0 467.0Q309 473 325.0 479.0Q341 485 356.0 492.5Q371 500 382 512Q344 512 319.5 525.0Q295 538 296 571Q282 578 266.0 577.5Q250 577 237.0 570.5Q224 564 218.0 552.5Q212 541 217 527Q215 522 210.0 521.5Q205 521 205 514Q220 500 231.5 483.0Q243 466 262 453Z"/></g>
    <g transform="translate(7478, 0)"><path d="M604 689Q611 681 616.0 672.5Q621 664 631 660Q626 635 628.0 612.5Q630 590 631 564Q617 488 569.0 442.5Q521 397 458 380Q458 370 452 366Q432 363 422.0 356.0Q412 349 403.5 341.0Q395 333 383.5 325.5Q372 318 348 314Q343 303 334.5 300.0Q326 297 317.5 295.5Q309 294 301.0 290.5Q293 287 289 274L232 221Q208 227 190.0 226.5Q172 226 160.0 228.0Q148 230 141.5 240.0Q135 250 133 278Q134 288 140.5 291.5Q147 295 149 303Q149 325 155.5 335.5Q162 346 172.0 353.0Q182 360 193.0 368.5Q204 377 212 395Q228 402 247.5 417.5Q267 433 283 448Q308 461 325.5 471.0Q343 481 358.0 491.0Q373 501 388.0 513.0Q403 525 424 543Q419 556 405.5 557.5Q392 559 375 557Q346 566 318.5 568.5Q291 571 254 573Q240 572 233.5 570.5Q227 569 214 571Q208 566 200.5 563.0Q193 560 184.5 557.5Q176 555 167.5 552.5Q159 550 152 546Q132 551 120.0 565.0Q108 579 91 587Q89 594 94.0 596.0Q99 598 97 608Q87 613 87.5 616.0Q88 619 81 624Q85 640 92.5 651.5Q100 663 109.0 673.5Q118 684 127.0 694.0Q136 704 143 717Q159 721 170.5 729.5Q182 738 193 748Q247 754 298.0 751.5Q349 749 399.5 741.0Q450 733 500.5 719.0Q551 705 604 689ZM220 114Q218 99 216.5 92.0Q215 85 215.0 79.0Q215 73 216.5 64.0Q218 55 222 36L225 20L211 17Q206 16 194.5 8.0Q183 0 174 -5Q160 -13 147.5 -22.5Q135 -32 122 -32Q107 -24 101.0 -20.0Q95 -16 89 -12Q84 -3 80.0 6.0Q76 15 71 24Q68 31 67.0 33.0Q66 35 65.5 36.0Q65 37 63.5 37.5Q62 38 57 43L51 55Q50 63 52.5 70.5Q55 78 57 85Q58 88 59.5 92.5Q61 97 61 99L55 109L63 120Q69 131 72.0 135.0Q75 139 80 144L89 151Q116 152 133 156Q150 153 155.0 149.5Q160 146 165 142Q176 134 181 134H201L199 119Z"/></g>
  </g>
</svg>