<?xml version="1.0" encoding="UTF-8"?>
<svg xmlns="http://www.w3.org/2000/svg" viewBox="0 0 152.7 18" 
     width="152.7" height="18">
  <g transform="translate(0, 15.299999999999999) scale(0.0087890625, -0.0087890625)" fill="#000">
    <g transform="translate(0, 0)"><path d="M55.70782470703125 0V174.73370361328125L211.30523681640625 205.20123291015625V1249.7987670898438L55.70782470703125 1280.2662963867188V1456H211.30523681640625H702.8311767578125Q959.8246459960938 1456 1104.0551452636719 1355.9577941894531Q1248.28564453125 1255.9155883789062 1248.28564453125 1057.06494140625Q1248.28564453125 956.3636474609375 1194.4966735839844 876.7792358398438Q1140.7077026367188 797.19482421875 1039.0908203125 757.1104125976562Q1126.4739379882812 738.4935302734375 1184.5388793945312 690.3117065429688Q1242.6038208007812 642.1298828125 1271.8603210449219 573.4155883789062Q1301.1168212890625 504.7012939453125 1301.1168212890625 423.95452880859375Q1301.1168212890625 215.31817626953125 1163.0973510742188 107.65908813476562Q1025.077880859375 0 772.2337646484375 0ZM503.30511474609375 223.70770263671875H772.2337646484375Q888.1104125976562 223.70770263671875 949.0390014648438 274.4772033691406Q1009.9675903320312 325.2467041015625 1009.9675903320312 423.80517578125Q1009.9675903320312 530.8311767578125 957.95458984375 587.4837951660156Q905.9415893554688 644.1364135742188 794.2142944335938 644.1364135742188H503.30511474609375ZM503.30511474609375 846.2532348632812H713.116943359375Q830.2208251953125 846.2532348632812 893.2532958984375 894.1818237304688Q956.2857666015625 942.1104125976562 956.2857666015625 1033.922119140625Q956.2857666015625 1135.2662963867188 892.4643249511719 1183.279296875Q828.6428833007812 1231.2922973632812 702.8311767578125 1231.2922973632812H503.30511474609375Z"/></g>
    <g transform="translate(1344, 0)"><path d="M579.0389404296875 -21Q418.55194091796875 -21 303.88311767578125 48.88311767578125Q189.21429443359375 118.7662353515625 128.05520629882812 243.2662353515625Q66.8961181640625 367.7662353515625 66.8961181640625 530.2337646484375V551Q66.8961181640625 712.2337646484375 128.05520629882812 836.4253234863281Q189.21429443359375 960.6168823242188 303.5746765136719 1031.3084411621094Q417.93505859375 1102 577.0389404296875 1102Q737.5259399414062 1102 851.577880859375 1031.6168823242188Q965.6298217773438 961.2337646484375 1026.7889099121094 837.2337646484375Q1087.947998046875 713.2337646484375 1087.947998046875 551V530.2337646484375Q1087.947998046875 368 1026.7889099121094 243.5Q965.6298217773438 119 851.7694396972656 49.0Q737.9090576171875 -21 579.0389404296875 -21ZM579.0389404296875 202.70770263671875Q654.532470703125 202.70770263671875 702.6104125976562 243.720703125Q750.6883544921875 284.73370361328125 773.9351196289062 358.5032043457031Q797.181884765625 432.272705078125 797.181884765625 530.2337646484375V551Q797.181884765625 647.1104125976562 773.9351196289062 720.5714721679688Q750.6883544921875 794.0325317382812 702.1104125976562 835.6624145507812Q653.532470703125 877.2922973632812 577.0389404296875 877.2922973632812Q501.54541015625 877.2922973632812 452.96746826171875 835.6624145507812Q404.3895263671875 794.0325317382812 381.64276123046875 720.5714721679688Q358.89599609375 647.1104125976562 358.89599609375 551V530.2337646484375Q358.89599609375 431.65582275390625 381.64276123046875 357.8863220214844Q404.3895263671875 284.1168212890625 453.1590270996094 243.41226196289062Q501.92852783203125 202.70770263671875 579.0389404296875 202.70770263671875Z"/></g>
    <g transform="translate(2499, 0)"><path d="M696.4999389648438 -21Q596.0518798828125 -21 525.1460266113281 18.2662353515625Q454.24017333984375 57.532470703125 405.94146728515625 132.8311767578125L384.8570556640625 0H132.81170654296875V1353.7987670898438L-22.1688232421875 1384.2662963867188V1560H424.1947021484375V966.9545288085938Q470.87652587890625 1032.1688232421875 539.5908203125 1067.0844116210938Q608.3051147460938 1102 699.4349975585938 1102Q830.3505859375 1102 921.7661743164062 1031.6590881347656Q1013.1817626953125 961.3181762695312 1061.2142333984375 833.0941467285156Q1109.2467041015625 704.8701171875 1109.2467041015625 532.1038818359375V511.1038818359375Q1109.2467041015625 350.1688232421875 1061.2142333984375 230.39285278320312Q1013.1817626953125 110.61688232421875 921.1492919921875 44.808441162109375Q829.1168212890625 -21 696.4999389648438 -21ZM608.2532348632812 206.24017333984375Q720.1104125976562 206.24017333984375 769.1039428710938 285.49993896484375Q818.0974731445312 364.75970458984375 818.0974731445312 511.1038818359375V532.1038818359375Q818.0974731445312 637.9805297851562 796.4253845214844 714.5909423828125Q774.7532958984375 791.2013549804688 729.1753540039062 832.9805908203125Q683.597412109375 874.7598266601562 610.5714111328125 874.7598266601562Q545.48046875 874.7598266601562 498.40252685546875 843.71435546875Q451.3245849609375 812.6688842773438 424.1947021484375 759.6428833007812V308.1688232421875Q454.40899658203125 258.46099853515625 500.63629150390625 232.3505859375Q546.8635864257812 206.24017333984375 608.2532348632812 206.24017333984375Z"/></g>
    <g transform="translate(3680, 0)"><path d="M696.4999389648438 -21Q596.0518798828125 -21 525.1460266113281 18.2662353515625Q454.24017333984375 57.532470703125 405.94146728515625 132.8311767578125L384.8570556640625 0H132.81170654296875V1353.7987670898438L-22.1688232421875 1384.2662963867188V1560H424.1947021484375V966.9545288085938Q470.87652587890625 1032.1688232421875 539.5908203125 1067.0844116210938Q608.3051147460938 1102 699.4349975585938 1102Q830.3505859375 1102 921.7661743164062 1031.6590881347656Q1013.1817626953125 961.3181762695312 1061.2142333984375 833.0941467285156Q1109.2467041015625 704.8701171875 1109.2467041015625 532.1038818359375V511.1038818359375Q1109.2467041015625 350.1688232421875 1061.2142333984375 230.39285278320312Q1013.1817626953125 110.61688232421875 921.1492919921875 44.808441162109375Q829.1168212890625 -21 696.4999389648438 -21ZM608.2532348632812 206.24017333984375Q720.1104125976562 206.24017333984375 769.1039428710938 285.49993896484375Q818.0974731445312 364.75970458984375 818.0974731445312 511.1038818359375V532.1038818359375Q818.0974731445312 637.9805297851562 796.4253845214844 714.5909423828125Q774.7532958984375 791.2013549804688 729.1753540039062 832.9805908203125Q683.597412109375 874.7598266601562 610.5714111328125 874.7598266601562Q545.48046875 874.7598266601562 498.40252685546875 843.71435546875Q451.3245849609375 812.6688842773438 424.1947021484375 759.6428833007812V308.1688232421875Q454.40899658203125 258.46099853515625 500.63629150390625 232.3505859375Q546.8635864257812 206.24017333984375 608.2532348632812 206.24017333984375Z"/></g>
    <g transform="translate(4861, 0)"><path d="M362.66876220703125 -437Q325.48046875 -437 282.6200866699219 -430.2662353515625Q239.75970458984375 -423.532470703125 201.8701171875 -412.98052978515625L235.4415283203125 -198.75982666015625Q254.29217529296875 -202.6104736328125 277.1980285644531 -204.72735595703125Q300.1038818359375 -206.84423828125 316.65582275390625 -206.84423828125Q380.272705078125 -206.84423828125 425.9415283203125 -173.95785522460938Q471.6103515625 -141.07147216796875 492.65582275390625 -79.04547119140625L516.8311767578125 -11.92852783203125L155.42205810546875 887.181884765625L21.532470703125 906.2662963867188V1082H596.44140625V906.2662963867188L463.59075927734375 886.2662963867188L633.8765258789062 408.80517578125L654.6492919921875 349.85052490234375H660.6492919921875L861.9155883789062 888.116943359375L732.5519409179688 906.2662963867188V1082H1267.6167602539062V906.2662963867188L1145.7466430664062 889.0325317382812L732.701171875 -161.06494140625Q703.3180541992188 -235.98052978515625 656.8083190917969 -298.71429443359375Q610.298583984375 -361.44805908203125 538.6200256347656 -399.2240295410156Q466.94146728515625 -437 362.66876220703125 -437Z"/></g>
    <g transform="translate(6648, 0)"><path d="M55.70782470703125 0V174.73370361328125L211.30523681640625 205.20123291015625V1249.7987670898438L55.70782470703125 1280.2662963867188V1456H658.9025268554688V1280.2662963867188L503.30511474609375 1249.7987670898438V830.077880859375H1096.9026489257812V1249.7987670898438L941.3052368164062 1280.2662963867188V1456H1096.9026489257812H1388.28564453125H1543.883056640625V1280.2662963867188L1388.28564453125 1249.7987670898438V205.20123291015625L1543.883056640625 174.73370361328125V0H941.3052368164062V174.73370361328125L1096.9026489257812 205.20123291015625V604.7532958984375H503.30511474609375V205.20123291015625L658.9025268554688 174.73370361328125V0Z"/></g>
    <g transform="translate(8248, 0)"><path d="M581.1882934570312 -21Q425.6363525390625 -21 310.0097351074219 47.5Q194.38311767578125 116 130.7987060546875 236.14935302734375Q67.21429443359375 356.2987060546875 67.21429443359375 510.1298828125V549.8117065429688Q67.21429443359375 710.597412109375 127.32144165039062 835.1818237304688Q187.4285888671875 959.7662353515625 296.9383239746094 1030.8831176757812Q406.44805908203125 1102 554.8895874023438 1102Q701.5064697265625 1102 801.8571166992188 1044.1590881347656Q902.207763671875 986.3181762695312 954.0584106445312 877.2012939453125Q1005.9090576171875 768.0844116210938 1005.9090576171875 613.06494140625V454.2857666015625H369.91546630859375L368.14923095703125 448.052001953125Q373.85052490234375 376.74676513671875 403.41546630859375 321.5389404296875Q432.98040771484375 266.33111572265625 486.87652587890625 234.5194091796875Q540.7726440429688 202.70770263671875 618.2012329101562 202.70770263671875Q698.4609985351562 202.70770263671875 767.7921752929688 223.188232421875Q837.1233520507812 243.66876220703125 903.2272338867188 283.79864501953125L982.077880859375 103.98052978515625Q914.8246459960938 50.44805908203125 813.4642639160156 14.724029541015625Q712.1038818359375 -21 581.1882934570312 -21ZM372.21417236328125 647.1493530273438H733.0325317382812V673.1493530273438Q733.0325317382812 738.8117065429688 715.4026489257812 786.4318542480469Q697.7727661132812 834.052001953125 659.6201477050781 859.9903259277344Q621.467529296875 885.9286499023438 559.8246459960938 885.9286499023438Q501.8441162109375 885.9286499023438 461.7239685058594 855.4481201171875Q421.60382080078125 824.9675903320312 399.2499084472656 772.2305603027344Q376.89599609375 719.4935302734375 368.98040771484375 652.1493530273438Z"/></g>
    <g transform="translate(9326, 0)"><path d="M84.95452880859375 0V174.73370361328125L225.1298828125 205.20123291015625V875.7987670898438L70.14935302734375 906.2662963867188V1082H496.74664306640625L508.1947021484375 947.7012939453125L510.1947021484375 923.7662353515625Q550.02587890625 1012.3181762695312 608.8895263671875 1057.1590881347656Q667.753173828125 1102 750.4349975585938 1102Q775.883056640625 1102 806.8408508300781 1097.7337646484375Q837.7986450195312 1093.467529296875 862.28564453125 1086L830.7337036132812 817.2533569335938L685.7142333984375 824.636474609375Q623.753173828125 827.7858276367188 585.2499084472656 803.941650390625Q546.7466430664062 780.0974731445312 517.1297607421875 734.922119140625V205.20123291015625L657.3051147460938 174.73370361328125V0Z"/></g>
    <g transform="translate(10212, 0)"><path d="M51.792236328125 0V174.73370361328125L191.96759033203125 205.20123291015625V875.7987670898438L36.987060546875 906.2662963867188V1082H464.20123291015625L476.96746826171875 927.1688232421875Q530.9674682617188 1010.0844116210938 610.6168212890625 1056.0422058105469Q690.2661743164062 1102 791.7986450195312 1102Q952.6103515625 1102 1043.67529296875 999.1915588378906Q1134.740234375 896.3831176757812 1134.740234375 676.2142944335938V205.20123291015625L1274.9155883789062 174.73370361328125V0H716.7532958984375V174.73370361328125L842.1234741210938 205.20123291015625V675.2987060546875Q842.1234741210938 783.7532958984375 798.8864440917969 829.2565612792969Q755.6494140625 874.7598266601562 671.1104125976562 874.7598266601562Q608.3181762695312 874.7598266601562 561.6330871582031 848.2565612792969Q514.947998046875 821.7532958984375 483.96746826171875 772.9610595703125V205.20123291015625L601.93505859375 174.73370361328125V0Z"/></g>
    <g transform="translate(11519, 0)"><path d="M425.2337646484375 -21Q263.6363525390625 -21 168.85064697265625 65.50973510742188Q74.06494140625 152.01947021484375 74.06494140625 300.78570556640625Q74.06494140625 453.55194091796875 197.90585327148438 549.2110290527344Q321.74676513671875 644.8701171875 560.5519409179688 644.8701171875H704.2013549804688V724.9610595703125Q704.2013549804688 802.6039428710938 658.5812072753906 851.3604431152344Q612.9610595703125 900.116943359375 522.2337646484375 900.116943359375Q475.207763671875 900.116943359375 437.8538513183594 888.552001953125Q400.49993896484375 876.987060546875 369.9869384765625 856.0065307617188L347.13629150390625 713.0260009765625H136.532470703125L133.44805908203125 993.7207641601562Q218.1688232421875 1041.6168823242188 317.3279113769531 1071.8084411621094Q416.48699951171875 1102 538.1882934570312 1102Q749.9934692382812 1102 873.0973510742188 1003.3733825683594Q996.2012329101562 904.7467651367188 996.2012329101562 721.727294921875V275.9869384765625Q996.2012329101562 253.753173828125 996.7012329101562 232.5194091796875Q997.2012329101562 211.28564453125 1000.4349975585938 191.28564453125L1112.8375854492188 174.73370361328125V0H751.4935302734375Q740.0260009765625 27.9610595703125 728.857177734375 59.87664794921875Q717.6883544921875 91.792236328125 713.2208251953125 123.70782470703125Q661.1558837890625 58.11041259765625 590.7695007324219 18.555206298828125Q520.3831176757812 -21 425.2337646484375 -21ZM502.96746826171875 195.20123291015625Q563.9545288085938 195.20123291015625 618.7370300292969 222.76943969726562Q673.51953125 250.337646484375 704.2013549804688 294.74676513671875V466.07147216796875H560.337646484375Q464.43499755859375 466.07147216796875 414.6330261230469 422.04547119140625Q364.8310546875 378.01947021484375 364.8310546875 315.9090576171875Q364.8310546875 258.48046875 401.428466796875 226.84085083007812Q438.02587890625 195.20123291015625 502.96746826171875 195.20123291015625Z"/></g>
    <g transform="translate(12673, 0)"><path d="M51.792236328125 0V174.73370361328125L191.96759033203125 205.20123291015625V875.7987670898438L36.987060546875 906.2662963867188V1082H464.20123291015625L476.96746826171875 927.1688232421875Q530.9674682617188 1010.0844116210938 610.6168212890625 1056.0422058105469Q690.2661743164062 1102 791.7986450195312 1102Q952.6103515625 1102 1043.67529296875 999.1915588378906Q1134.740234375 896.3831176757812 1134.740234375 676.2142944335938V205.20123291015625L1274.9155883789062 174.73370361328125V0H716.7532958984375V174.73370361328125L842.1234741210938 205.20123291015625V675.2987060546875Q842.1234741210938 783.7532958984375 798.8864440917969 829.2565612792969Q755.6494140625 874.7598266601562 671.1104125976562 874.7598266601562Q608.3181762695312 874.7598266601562 561.6330871582031 848.2565612792969Q514.947998046875 821.7532958984375 483.96746826171875 772.9610595703125V205.20123291015625L601.93505859375 174.73370361328125V0Z"/></g>
    <g transform="translate(13980, 0)"><path d="M479.259765625 -21Q350.34417724609375 -21 257.69482421875 45.425323486328125Q165.04547119140625 111.85064697265625 115.97079467773438 231.62661743164062Q66.8961181640625 351.402587890625 66.8961181640625 511.1038818359375V532.1038818359375Q66.8961181640625 703.0194702148438 116.27923583984375 831.2434997558594Q165.662353515625 959.467529296875 257.8863830566406 1030.7337646484375Q350.11041259765625 1102 477.5584716796875 1102Q567.3896484375 1102 634.1039428710938 1066.5Q700.8182373046875 1031 749.7338256835938 965.8506469726562V1353.7987670898438L593.51953125 1384.2662963867188V1560H749.7338256835938H1041.7337036132812V205.20123291015625L1181.9090576171875 174.73370361328125V0H788.6883544921875L766.51953125 132.08441162109375Q715.987060546875 56.85064697265625 645.3474426269531 17.925323486328125Q574.7078247070312 -21 479.259765625 -21ZM565.6558227539062 206.24017333984375Q626.5130004882812 206.24017333984375 672.9415893554688 232.0518798828125Q719.3701782226562 257.86358642578125 749.7338256835938 306.80517578125V766.2402954101562Q719.7532958984375 817.58447265625 673.8669128417969 846.1721496582031Q627.9805297851562 874.7598266601562 567.6558227539062 874.7598266601562Q494.62982177734375 874.7598266601562 448.43499755859375 831.4383850097656Q402.24017333984375 788.116943359375 380.5680847167969 711.1980895996094Q358.89599609375 634.2792358398438 358.89599609375 532.1038818359375V511.1038818359375Q358.89599609375 369.077880859375 406.77264404296875 287.6590270996094Q454.6492919921875 206.24017333984375 565.6558227539062 206.24017333984375Z"/></g>
    <g transform="translate(15192, 0)"><path d="M581.1882934570312 -21Q425.6363525390625 -21 310.0097351074219 47.5Q194.38311767578125 116 130.7987060546875 236.14935302734375Q67.21429443359375 356.2987060546875 67.21429443359375 510.1298828125V549.8117065429688Q67.21429443359375 710.597412109375 127.32144165039062 835.1818237304688Q187.4285888671875 959.7662353515625 296.9383239746094 1030.8831176757812Q406.44805908203125 1102 554.8895874023438 1102Q701.5064697265625 1102 801.8571166992188 1044.1590881347656Q902.207763671875 986.3181762695312 954.0584106445312 877.2012939453125Q1005.9090576171875 768.0844116210938 1005.9090576171875 613.06494140625V454.2857666015625H369.91546630859375L368.14923095703125 448.052001953125Q373.85052490234375 376.74676513671875 403.41546630859375 321.5389404296875Q432.98040771484375 266.33111572265625 486.87652587890625 234.5194091796875Q540.7726440429688 202.70770263671875 618.2012329101562 202.70770263671875Q698.4609985351562 202.70770263671875 767.7921752929688 223.188232421875Q837.1233520507812 243.66876220703125 903.2272338867188 283.79864501953125L982.077880859375 103.98052978515625Q914.8246459960938 50.44805908203125 813.4642639160156 14.724029541015625Q712.1038818359375 -21 581.1882934570312 -21ZM372.21417236328125 647.1493530273438H733.0325317382812V673.1493530273438Q733.0325317382812 738.8117065429688 715.4026489257812 786.4318542480469Q697.7727661132812 834.052001953125 659.6201477050781 859.9903259277344Q621.467529296875 885.9286499023438 559.8246459960938 885.9286499023438Q501.8441162109375 885.9286499023438 461.7239685058594 855.4481201171875Q421.60382080078125 824.9675903320312 399.2499084472656 772.2305603027344Q376.89599609375 719.4935302734375 368.98040771484375 652.1493530273438Z"/></g>
    <g transform="translate(16270, 0)"><path d="M88 0V171.92852783203125L651.0909423828125 878.181884765625H359.1297607421875L326.11029052734375 693.0974731445312H112.1038818359375V1082H1001.1947021484375V894.9481201171875L469.73358154296875 209.220703125H775.8961181640625L819.1688232421875 408.2596435546875H1024.15576171875V0Z"/></g>
  </g>
</svg>