<?xml version="1.0" encoding="UTF-8"?>
<svg xmlns="http://www.w3.org/2000/svg" viewBox="0 0 89.9 18" 
     width="89.9" height="18">
  <g transform="translate(0, 15.299999999999999) scale(0.0087890625, -0.0087890625)" fill="#000">
    <g transform="translate(0, 0)"><path d="M55.70782470703125 0V174.73370361328125L211.30523681640625 205.20123291015625V1249.7987670898438L55.70782470703125 1280.2662963867188V1456H1186.142822265625V1062.8182373046875H962.1364135742188L948.7727661132812 1231.2078857421875H503.30511474609375V865.1622924804688H995.8895874023438V639.8377075195312H503.30511474609375V223.87652587890625H972.7532958984375L986.116943359375 397.73370361328125H1207.8895874023438V0Z"/></g>
    <g transform="translate(1308, 0)"><path d="M35.58447265625 0V174.73370361328125L163.43511962890625 199.20123291015625L574.9546508789062 721.1104125976562L186.56500244140625 1255.181884765625L68.8182373046875 1280.2662963867188V1456H637.6687622070312V1280.2662963867188L498.818115234375 1267.2662963867188L749.259765625 916.9674682617188L998.506591796875 1267.2662963867188L862.8247680664062 1280.2662963867188V1456H1423.5714111328125V1280.2662963867188L1294.8895874023438 1255.181884765625L922.0973510742188 747.0194702148438L1340.3571166992188 199.818115234375L1478.6103515625 174.73370361328125V0H895.7403564453125V174.73370361328125L1021.3182983398438 187.1168212890625L750.9610595703125 557.0974731445312L475.43499755859375 187.1168212890625L597.3311157226562 174.73370361328125V0Z"/></g>
    <g transform="translate(2822, 0)"><path d="M41.00653076171875 0V174.73370361328125L145.30523681640625 189.73370361328125L608.0390625 1456H907.2012329101562L1367.1038818359375 189.73370361328125L1471.0194702148438 174.73370361328125V0H975.2922973632812V174.73370361328125L1076.0390625 193.1168212890625L1012.116943359375 393.259765625H500.05841064453125L436.220703125 193.1168212890625L536.9674682617188 174.73370361328125V0ZM569.077880859375 608.2272338867188H942.8637084960938L773.2792358398438 1107.0780029296875L758.8117065429688 1151.181884765625H752.8117065429688L737.727294921875 1103.9935913085938Z"/></g>
    <g transform="translate(4334, 0)"><path d="M55.7532958984375 0V174.73370361328125L210.73382568359375 205.20123291015625V1249.7987670898438L55.7532958984375 1280.2662963867188V1456H210.73382568359375H642.7595825195312L1039.5843505859375 441.0648193359375H1045.5843505859375L1430.4935302734375 1456H2017.5452880859375V1280.2662963867188L1861.9478759765625 1249.7987670898438V205.20123291015625L2017.5452880859375 174.73370361328125V0H1414.9674682617188V174.73370361328125L1577.7142333984375 205.20123291015625V484.08453369140625L1582.6492919921875 1140.7338256835938L1577.0324096679688 1141.7338256835938L1141.6622314453125 19.922119140625H921.2142944335938L476.012939453125 1132.9481201171875L469.7791748046875 1131.9481201171875L487.26617431640625 513.6948852539062V205.20123291015625L658.947998046875 174.73370361328125V0Z"/></g>
    <g transform="translate(6400, 0)"><path d="M55.70782470703125 0V174.73370361328125L211.30523681640625 205.20123291015625V1249.7987670898438L55.70782470703125 1280.2662963867188V1456H211.30523681640625H748.7662353515625Q915.8701171875 1456 1036.9739990234375 1397.4902648925781Q1158.077880859375 1338.9805297851562 1223.1720275878906 1234.5032653808594Q1288.2661743164062 1130.0260009765625 1288.2661743164062 991.0065307617188Q1288.2661743164062 851.6039428710938 1223.1720275878906 747.4351196289062Q1158.077880859375 643.2662963867188 1036.9739990234375 585.5650024414062Q915.8701171875 527.8637084960938 748.7662353515625 527.8637084960938H503.30511474609375V205.20123291015625L658.9025268554688 174.73370361328125V0ZM503.30511474609375 752.80517578125H748.7662353515625Q871.4740600585938 752.80517578125 933.8701782226562 819.3506469726562Q996.2662963867188 885.8961181640625 996.2662963867188 989.0065307617188Q996.2662963867188 1093.9675903320312 933.8701782226562 1162.6299438476562Q871.4740600585938 1231.2922973632812 748.7662353515625 1231.2922973632812H503.30511474609375Z"/></g>
    <g transform="translate(7725, 0)"><path d="M55.70782470703125 0V174.73370361328125L211.30523681640625 205.20123291015625V1249.7987670898438L55.70782470703125 1280.2662963867188V1456H211.30523681640625H503.30511474609375H679.2596435546875V1280.2662963867188L503.30511474609375 1249.7987670898438V223.7921142578125H914.052001953125L927.7987670898438 437.13629150390625H1150.9739990234375V0Z"/></g>
    <g transform="translate(8925, 0)"><path d="M55.70782470703125 0V174.73370361328125L211.30523681640625 205.20123291015625V1249.7987670898438L55.70782470703125 1280.2662963867188V1456H1186.142822265625V1062.8182373046875H962.1364135742188L948.7727661132812 1231.2078857421875H503.30511474609375V865.1622924804688H995.8895874023438V639.8377075195312H503.30511474609375V223.87652587890625H972.7532958984375L986.116943359375 397.73370361328125H1207.8895874023438V0Z"/></g>
  </g>
</svg>