<?xml version="1.0" encoding="UTF-8"?>
<svg xmlns="http://www.w3.org/2000/svg" viewBox="0 0 186.1 18" 
     width="186.1" height="18">
  <g transform="translate(0, 15.299999999999999) scale(0.0087890625, -0.0087890625)" fill="#000">
    <g transform="translate(0, 0)"><path d="M55.857177734375 0V174.73370361328125L210.83770751953125 205.20123291015625V1249.7987670898438L55.857177734375 1280.2662963867188V1456H210.83770751953125H507.30511474609375L1141.1104125976562 446.22711181640625L1147.1104125976562 446.99334716796875V1249.7987670898438L960.7078247070312 1280.2662963867188V1456H1408.3051147460938H1563.9025268554688V1280.2662963867188L1408.3051147460938 1249.7987670898438V0H1125.9026489257812L478.03240966796875 999.7339477539062L472.03240966796875 998.9677124023438V205.20123291015625L659.0518798828125 174.73370361328125V0Z"/></g>
    <g transform="translate(1604, 0)"><path d="M41.00653076171875 0V174.73370361328125L145.30523681640625 189.73370361328125L608.0390625 1456H907.2012329101562L1367.1038818359375 189.73370361328125L1471.0194702148438 174.73370361328125V0H975.2922973632812V174.73370361328125L1076.0390625 193.1168212890625L1012.116943359375 393.259765625H500.05841064453125L436.220703125 193.1168212890625L536.9674682617188 174.73370361328125V0ZM569.077880859375 608.2272338867188H942.8637084960938L773.2792358398438 1107.0780029296875L758.8117065429688 1151.181884765625H752.8117065429688L737.727294921875 1103.9935913085938Z"/></g>
    <g transform="translate(3116, 0)"><path d="M55.7532958984375 0V174.73370361328125L210.73382568359375 205.20123291015625V1249.7987670898438L55.7532958984375 1280.2662963867188V1456H210.73382568359375H642.7595825195312L1039.5843505859375 441.0648193359375H1045.5843505859375L1430.4935302734375 1456H2017.5452880859375V1280.2662963867188L1861.9478759765625 1249.7987670898438V205.20123291015625L2017.5452880859375 174.73370361328125V0H1414.9674682617188V174.73370361328125L1577.7142333984375 205.20123291015625V484.08453369140625L1582.6492919921875 1140.7338256835938L1577.0324096679688 1141.7338256835938L1141.6622314453125 19.922119140625H921.2142944335938L476.012939453125 1132.9481201171875L469.7791748046875 1131.9481201171875L487.26617431640625 513.6948852539062V205.20123291015625L658.947998046875 174.73370361328125V0Z"/></g>
    <g transform="translate(5182, 0)"><path d="M55.70782470703125 0V174.73370361328125L211.30523681640625 205.20123291015625V1249.7987670898438L55.70782470703125 1280.2662963867188V1456H1186.142822265625V1062.8182373046875H962.1364135742188L948.7727661132812 1231.2078857421875H503.30511474609375V865.1622924804688H995.8895874023438V639.8377075195312H503.30511474609375V223.87652587890625H972.7532958984375L986.116943359375 397.73370361328125H1207.8895874023438V0Z"/></g>
    <g transform="translate(6490, 0)"><path d="M55.70782470703125 0V174.73370361328125L212.53900146484375 208.28564453125V1246.0974731445312L55.70782470703125 1280.2662963867188V1456H212.53900146484375H694.7986450195312Q890.2661743164062 1456 1039.0096740722656 1364.3084411621094Q1187.753173828125 1272.6168823242188 1271.4544677734375 1111.3084411621094Q1355.15576171875 950 1355.15576171875 740.532470703125V714.467529296875Q1355.15576171875 506.91558837890625 1272.6038208007812 345.41558837890625Q1190.0518798828125 183.91558837890625 1042.0746154785156 91.95779418945312Q894.0973510742188 0 698.6298217773438 0ZM504.53887939453125 223.0908203125H683.6947631835938Q805.0389404296875 223.0908203125 889.2337646484375 286.5616149902344Q973.4285888671875 350.03240966796875 1017.6753540039062 461.1103515625Q1061.922119140625 572.1882934570312 1061.922119140625 714.467529296875V741.9155883789062Q1061.922119140625 886.1104125976562 1017.6753540039062 996.4967956542969Q973.4285888671875 1106.8831787109375 889.2337646484375 1169.3961791992188Q805.0389404296875 1231.9091796875 683.6947631835938 1231.9091796875H504.53887939453125Z"/></g>
    <g transform="translate(8418, 0)"><path d="M748.8701171875 -21Q536.6558227539062 -21 379.9772644042969 67.597412109375Q223.2987060546875 156.19482421875 137.76950073242188 318.5682067871094Q52.24029541015625 480.94158935546875 52.24029541015625 702.8117065429688V752.1882934570312Q52.24029541015625 963.7207641601562 134.48379516601562 1127.1363525390625Q216.727294921875 1290.5519409179688 369.6720886230469 1383.7759704589844Q522.6168823242188 1477 733.7207641601562 1477Q881.5064697265625 1477 1011.1525573730469 1435.1590881347656Q1140.7986450195312 1393.3181762695312 1243.0908203125 1306.8117065429688V955.181884765625H1025.6363525390625L996 1175.9286499023438Q962.7662353515625 1199.6948852539062 923.7337646484375 1216.6948852539062Q884.7012939453125 1233.6948852539062 839.1363525390625 1242.6948852539062Q793.5714111328125 1251.6948852539062 740.740234375 1251.6948852539062Q617.48046875 1251.6948852539062 528.3505859375 1190.8409729003906Q439.220703125 1129.987060546875 391.6135559082031 1018.5682067871094Q344.00640869140625 907.1493530273438 344.00640869140625 754.1882934570312V702.8117065429688Q344.00640869140625 550.0389404296875 393.8797912597656 437.8116455078125Q443.753173828125 325.5843505859375 535.91552734375 264.37005615234375Q628.077880859375 203.15576171875 754.0194702148438 203.15576171875Q817.2337646484375 203.15576171875 880.532470703125 217.37979125976562Q943.8311767578125 231.60382080078125 995.8506469726562 254.90252685546875L1025.8701171875 459.753173828125H1242.7921142578125V112.29217529296875Q1157.7077026367188 55.740234375 1030.753173828125 17.3701171875Q903.7986450195312 -21 748.8701171875 -21Z"/></g>
    <g transform="translate(9739, 0)"><path d="M723.1168212890625 -21Q575.947998046875 -21 455.0032043457031 33.925323486328125Q334.05841064453125 88.85064697265625 246.61361694335938 188.27597045898438Q159.1688232421875 287.7012939453125 112.11688232421875 422.3928527832031Q65.06494140625 557.0844116210938 65.06494140625 717V739.2337646484375Q65.06494140625 898.1493530273438 112.11688232421875 1032.7240295410156Q159.1688232421875 1167.2987060546875 246.30517578125 1266.9155883789062Q333.4415283203125 1366.532470703125 454.077880859375 1421.7662353515625Q574.7142333984375 1477 721.883056640625 1477Q870.2661743164062 1477 991.9025268554688 1421.7662353515625Q1113.5388793945312 1366.532470703125 1201.7596435546875 1266.9155883789062Q1289.9804077148438 1167.2987060546875 1337.6167602539062 1032.7240295410156Q1385.2531127929688 898.1493530273438 1385.2531127929688 739.2337646484375V717Q1385.2531127929688 557.0844116210938 1337.6167602539062 422.3928527832031Q1289.9804077148438 287.7012939453125 1202.0680847167969 188.27597045898438Q1114.15576171875 88.85064697265625 992.5194091796875 33.925323486328125Q870.883056640625 -21 723.1168212890625 -21ZM723.1168212890625 205.9219970703125Q846.5259399414062 205.9219970703125 928.9317932128906 269.90252685546875Q1011.337646484375 333.883056640625 1052.7207641601562 448.8863220214844Q1094.1038818359375 563.8895874023438 1094.1038818359375 717V741.2337646484375Q1094.1038818359375 892.1104125976562 1052.2207641601562 1006.422119140625Q1010.337646484375 1120.7338256835938 927.740234375 1184.9059143066406Q845.142822265625 1249.0780029296875 721.883056640625 1249.0780029296875Q599.5194091796875 1249.0780029296875 518.6979675292969 1185.3312377929688Q437.87652587890625 1121.58447265625 397.6622314453125 1007.5812072753906Q357.44793701171875 893.5779418945312 357.44793701171875 741.2337646484375V717Q357.44793701171875 564.272705078125 397.9706726074219 448.96099853515625Q438.493408203125 333.6492919921875 519.9317321777344 269.78564453125Q601.3700561523438 205.9219970703125 723.1168212890625 205.9219970703125Z"/></g>
    <g transform="translate(11185, 0)"><path d="M55.857177734375 0V174.73370361328125L210.83770751953125 205.20123291015625V1249.7987670898438L55.857177734375 1280.2662963867188V1456H210.83770751953125H507.30511474609375L1141.1104125976562 446.22711181640625L1147.1104125976562 446.99334716796875V1249.7987670898438L960.7078247070312 1280.2662963867188V1456H1408.3051147460938H1563.9025268554688V1280.2662963867188L1408.3051147460938 1249.7987670898438V0H1125.9026489257812L478.03240966796875 999.7339477539062L472.03240966796875 998.9677124023438V205.20123291015625L659.0518798828125 174.73370361328125V0Z"/></g>
    <g transform="translate(12789, 0)"><path d="M649.7986450195312 -21Q489.0389404296875 -21 356.78570556640625 14.91558837890625Q224.532470703125 50.8311767578125 97.11041259765625 139.85064697265625V492.1817626953125H322.90252685546875L354.0518798828125 284.77264404296875Q398.69476318359375 247.24017333984375 477.7791748046875 223.69796752929688Q556.8635864257812 200.15576171875 649.7986450195312 200.15576171875Q729.4415283203125 200.15576171875 783.8279113769531 222.0194091796875Q838.2142944335938 243.883056640625 866.5779418945312 284.3116455078125Q894.9415893554688 324.740234375 894.9415893554688 380.08441162109375Q894.9415893554688 432.27923583984375 869.4188537597656 472.792236328125Q843.8961181640625 513.3052368164062 785.5097351074219 546.8701782226562Q727.1233520507812 580.4351196289062 627.2661743164062 611.2857666015625Q454.4415283203125 661.7078247070312 340.7629699707031 722.3669128417969Q227.08441162109375 783.0260009765625 170.5 867.4513244628906Q113.91558837890625 951.8766479492188 113.91558837890625 1070.9805297851562Q113.91558837890625 1189.2987060546875 179.65908813476562 1279.6071472167969Q245.402587890625 1369.9155883789062 361.42205810546875 1421.9155883789062Q477.4415283203125 1473.9155883789062 628.8441162109375 1475.7662353515625Q797.2661743164062 1478.2337646484375 926.7953796386719 1436.0519409179688Q1056.3245849609375 1393.8701171875 1150.2141723632812 1319.2337646484375V991.2208251953125H931.207763671875L893.272705078125 1191.2013549804688Q855.0584106445312 1215.4805908203125 790.5259399414062 1233.311767578125Q725.9934692382812 1251.1429443359375 644.2661743164062 1251.1429443359375Q574.4544677734375 1251.1429443359375 520.6330261230469 1229.9708557128906Q466.81158447265625 1208.7987670898438 436.0550842285156 1168.7532958984375Q405.298583984375 1128.7078247070312 405.298583984375 1071.5130004882812Q405.298583984375 1023.3181762695312 431.9382019042969 986.4967346191406Q458.57781982421875 949.67529296875 522.5161437988281 917.2597045898438Q586.4544677734375 884.8441162109375 697.7337036132812 848.2921752929688Q938.8375854492188 781.4220581054688 1063.5064086914062 671.1558227539062Q1188.1752319335938 560.8895874023438 1188.1752319335938 382.08441162109375Q1188.1752319335938 257.68182373046875 1120.8570556640625 167.18182373046875Q1053.5388793945312 76.68182373046875 932.5616149902344 27.840911865234375Q811.5843505859375 -21 649.7986450195312 -21Z"/></g>
    <g transform="translate(14036, 0)"><path d="M391.26629638671875 0V174.73370361328125L547.4805908203125 205.20123291015625V1231.1234741210938H282.25323486328125L265.59088134765625 1056.8831787109375H45.4156494140625V1456H1343.6298217773438V1056.8831787109375H1122.3701782226562L1105.9415893554688 1231.1234741210938H839.48046875V205.20123291015625L995.6947631835938 174.73370361328125V0Z"/></g>
    <g transform="translate(15425, 0)"><path d="M41.00653076171875 0V174.73370361328125L145.30523681640625 189.73370361328125L608.0390625 1456H907.2012329101562L1367.1038818359375 189.73370361328125L1471.0194702148438 174.73370361328125V0H975.2922973632812V174.73370361328125L1076.0390625 193.1168212890625L1012.116943359375 393.259765625H500.05841064453125L436.220703125 193.1168212890625L536.9674682617188 174.73370361328125V0ZM569.077880859375 608.2272338867188H942.8637084960938L773.2792358398438 1107.0780029296875L758.8117065429688 1151.181884765625H752.8117065429688L737.727294921875 1103.9935913085938Z"/></g>
    <g transform="translate(16937, 0)"><path d="M55.857177734375 0V174.73370361328125L210.83770751953125 205.20123291015625V1249.7987670898438L55.857177734375 1280.2662963867188V1456H210.83770751953125H507.30511474609375L1141.1104125976562 446.22711181640625L1147.1104125976562 446.99334716796875V1249.7987670898438L960.7078247070312 1280.2662963867188V1456H1408.3051147460938H1563.9025268554688V1280.2662963867188L1408.3051147460938 1249.7987670898438V0H1125.9026489257812L478.03240966796875 999.7339477539062L472.03240966796875 998.9677124023438V205.20123291015625L659.0518798828125 174.73370361328125V0Z"/></g>
    <g transform="translate(18541, 0)"><path d="M391.26629638671875 0V174.73370361328125L547.4805908203125 205.20123291015625V1231.1234741210938H282.25323486328125L265.59088134765625 1056.8831787109375H45.4156494140625V1456H1343.6298217773438V1056.8831787109375H1122.3701782226562L1105.9415893554688 1231.1234741210938H839.48046875V205.20123291015625L995.6947631835938 174.73370361328125V0Z"/></g>
    <g transform="translate(19930, 0)"><path d="M649.7986450195312 -21Q489.0389404296875 -21 356.78570556640625 14.91558837890625Q224.532470703125 50.8311767578125 97.11041259765625 139.85064697265625V492.1817626953125H322.90252685546875L354.0518798828125 284.77264404296875Q398.69476318359375 247.24017333984375 477.7791748046875 223.69796752929688Q556.8635864257812 200.15576171875 649.7986450195312 200.15576171875Q729.4415283203125 200.15576171875 783.8279113769531 222.0194091796875Q838.2142944335938 243.883056640625 866.5779418945312 284.3116455078125Q894.9415893554688 324.740234375 894.9415893554688 380.08441162109375Q894.9415893554688 432.27923583984375 869.4188537597656 472.792236328125Q843.8961181640625 513.3052368164062 785.5097351074219 546.8701782226562Q727.1233520507812 580.4351196289062 627.2661743164062 611.2857666015625Q454.4415283203125 661.7078247070312 340.7629699707031 722.3669128417969Q227.08441162109375 783.0260009765625 170.5 867.4513244628906Q113.91558837890625 951.8766479492188 113.91558837890625 1070.9805297851562Q113.91558837890625 1189.2987060546875 179.65908813476562 1279.6071472167969Q245.402587890625 1369.9155883789062 361.42205810546875 1421.9155883789062Q477.4415283203125 1473.9155883789062 628.8441162109375 1475.7662353515625Q797.2661743164062 1478.2337646484375 926.7953796386719 1436.0519409179688Q1056.3245849609375 1393.8701171875 1150.2141723632812 1319.2337646484375V991.2208251953125H931.207763671875L893.272705078125 1191.2013549804688Q855.0584106445312 1215.4805908203125 790.5259399414062 1233.311767578125Q725.9934692382812 1251.1429443359375 644.2661743164062 1251.1429443359375Q574.4544677734375 1251.1429443359375 520.6330261230469 1229.9708557128906Q466.81158447265625 1208.7987670898438 436.0550842285156 1168.7532958984375Q405.298583984375 1128.7078247070312 405.298583984375 1071.5130004882812Q405.298583984375 1023.3181762695312 431.9382019042969 986.4967346191406Q458.57781982421875 949.67529296875 522.5161437988281 917.2597045898438Q586.4544677734375 884.8441162109375 697.7337036132812 848.2921752929688Q938.8375854492188 781.4220581054688 1063.5064086914062 671.1558227539062Q1188.1752319335938 560.8895874023438 1188.1752319335938 382.08441162109375Q1188.1752319335938 257.68182373046875 1120.8570556640625 167.18182373046875Q1053.5388793945312 76.68182373046875 932.5616149902344 27.840911865234375Q811.5843505859375 -21 649.7986450195312 -21Z"/></g>
  </g>
</svg>