<?xml version="1.0" encoding="UTF-8"?>
<svg xmlns="http://www.w3.org/2000/svg" viewBox="0 0 112.8 18" 
     width="112.8" height="18">
  <g transform="translate(0, 15.299999999999999) scale(0.0087890625, -0.0087890625)" fill="#000">
    <g transform="translate(0, 0)"><path d="M55.857177734375 0V174.73370361328125L210.83770751953125 205.20123291015625V1249.7987670898438L55.857177734375 1280.2662963867188V1456H210.83770751953125H507.30511474609375L1141.1104125976562 446.22711181640625L1147.1104125976562 446.99334716796875V1249.7987670898438L960.7078247070312 1280.2662963867188V1456H1408.3051147460938H1563.9025268554688V1280.2662963867188L1408.3051147460938 1249.7987670898438V0H1125.9026489257812L478.03240966796875 999.7339477539062L472.03240966796875 998.9677124023438V205.20123291015625L659.0518798828125 174.73370361328125V0Z"/></g>
    <g transform="translate(1604, 0)"><path d="M55.70782470703125 0V174.73370361328125L211.30523681640625 205.20123291015625V1249.7987670898438L55.70782470703125 1280.2662963867188V1456H1186.142822265625V1062.8182373046875H962.1364135742188L948.7727661132812 1231.2078857421875H503.30511474609375V865.1622924804688H995.8895874023438V639.8377075195312H503.30511474609375V223.87652587890625H972.7532958984375L986.116943359375 397.73370361328125H1207.8895874023438V0Z"/></g>
    <g transform="translate(2912, 0)"><path d="M35.58447265625 0V174.73370361328125L163.43511962890625 199.20123291015625L574.9546508789062 721.1104125976562L186.56500244140625 1255.181884765625L68.8182373046875 1280.2662963867188V1456H637.6687622070312V1280.2662963867188L498.818115234375 1267.2662963867188L749.259765625 916.9674682617188L998.506591796875 1267.2662963867188L862.8247680664062 1280.2662963867188V1456H1423.5714111328125V1280.2662963867188L1294.8895874023438 1255.181884765625L922.0973510742188 747.0194702148438L1340.3571166992188 199.818115234375L1478.6103515625 174.73370361328125V0H895.7403564453125V174.73370361328125L1021.3182983398438 187.1168212890625L750.9610595703125 557.0974731445312L475.43499755859375 187.1168212890625L597.3311157226562 174.73370361328125V0Z"/></g>
    <g transform="translate(4426, 0)"><path d="M391.26629638671875 0V174.73370361328125L547.4805908203125 205.20123291015625V1231.1234741210938H282.25323486328125L265.59088134765625 1056.8831787109375H45.4156494140625V1456H1343.6298217773438V1056.8831787109375H1122.3701782226562L1105.9415893554688 1231.1234741210938H839.48046875V205.20123291015625L995.6947631835938 174.73370361328125V0Z"/></g>
    <g transform="translate(6317, 0)"><path d="M649.7986450195312 -21Q489.0389404296875 -21 356.78570556640625 14.91558837890625Q224.532470703125 50.8311767578125 97.11041259765625 139.85064697265625V492.1817626953125H322.90252685546875L354.0518798828125 284.77264404296875Q398.69476318359375 247.24017333984375 477.7791748046875 223.69796752929688Q556.8635864257812 200.15576171875 649.7986450195312 200.15576171875Q729.4415283203125 200.15576171875 783.8279113769531 222.0194091796875Q838.2142944335938 243.883056640625 866.5779418945312 284.3116455078125Q894.9415893554688 324.740234375 894.9415893554688 380.08441162109375Q894.9415893554688 432.27923583984375 869.4188537597656 472.792236328125Q843.8961181640625 513.3052368164062 785.5097351074219 546.8701782226562Q727.1233520507812 580.4351196289062 627.2661743164062 611.2857666015625Q454.4415283203125 661.7078247070312 340.7629699707031 722.3669128417969Q227.08441162109375 783.0260009765625 170.5 867.4513244628906Q113.91558837890625 951.8766479492188 113.91558837890625 1070.9805297851562Q113.91558837890625 1189.2987060546875 179.65908813476562 1279.6071472167969Q245.402587890625 1369.9155883789062 361.42205810546875 1421.9155883789062Q477.4415283203125 1473.9155883789062 628.8441162109375 1475.7662353515625Q797.2661743164062 1478.2337646484375 926.7953796386719 1436.0519409179688Q1056.3245849609375 1393.8701171875 1150.2141723632812 1319.2337646484375V991.2208251953125H931.207763671875L893.272705078125 1191.2013549804688Q855.0584106445312 1215.4805908203125 790.5259399414062 1233.311767578125Q725.9934692382812 1251.1429443359375 644.2661743164062 1251.1429443359375Q574.4544677734375 1251.1429443359375 520.6330261230469 1229.9708557128906Q466.81158447265625 1208.7987670898438 436.0550842285156 1168.7532958984375Q405.298583984375 1128.7078247070312 405.298583984375 1071.5130004882812Q405.298583984375 1023.3181762695312 431.9382019042969 986.4967346191406Q458.57781982421875 949.67529296875 522.5161437988281 917.2597045898438Q586.4544677734375 884.8441162109375 697.7337036132812 848.2921752929688Q938.8375854492188 781.4220581054688 1063.5064086914062 671.1558227539062Q1188.1752319335938 560.8895874023438 1188.1752319335938 382.08441162109375Q1188.1752319335938 257.68182373046875 1120.8570556640625 167.18182373046875Q1053.5388793945312 76.68182373046875 932.5616149902344 27.840911865234375Q811.5843505859375 -21 649.7986450195312 -21Z"/></g>
    <g transform="translate(7564, 0)"><path d="M391.26629638671875 0V174.73370361328125L547.4805908203125 205.20123291015625V1231.1234741210938H282.25323486328125L265.59088134765625 1056.8831787109375H45.4156494140625V1456H1343.6298217773438V1056.8831787109375H1122.3701782226562L1105.9415893554688 1231.1234741210938H839.48046875V205.20123291015625L995.6947631835938 174.73370361328125V0Z"/></g>
    <g transform="translate(8953, 0)"><path d="M55.70782470703125 0V174.73370361328125L211.30523681640625 205.20123291015625V1249.7987670898438L55.70782470703125 1280.2662963867188V1456H1186.142822265625V1062.8182373046875H962.1364135742188L948.7727661132812 1231.2078857421875H503.30511474609375V865.1622924804688H995.8895874023438V639.8377075195312H503.30511474609375V223.87652587890625H972.7532958984375L986.116943359375 397.73370361328125H1207.8895874023438V0Z"/></g>
    <g transform="translate(10261, 0)"><path d="M55.70782470703125 0V174.73370361328125L211.30523681640625 205.20123291015625V1249.7987670898438L55.70782470703125 1280.2662963867188V1456H211.30523681640625H748.7662353515625Q915.8701171875 1456 1036.9739990234375 1397.4902648925781Q1158.077880859375 1338.9805297851562 1223.1720275878906 1234.5032653808594Q1288.2661743164062 1130.0260009765625 1288.2661743164062 991.0065307617188Q1288.2661743164062 851.6039428710938 1223.1720275878906 747.4351196289062Q1158.077880859375 643.2662963867188 1036.9739990234375 585.5650024414062Q915.8701171875 527.8637084960938 748.7662353515625 527.8637084960938H503.30511474609375V205.20123291015625L658.9025268554688 174.73370361328125V0ZM503.30511474609375 752.80517578125H748.7662353515625Q871.4740600585938 752.80517578125 933.8701782226562 819.3506469726562Q996.2662963867188 885.8961181640625 996.2662963867188 989.0065307617188Q996.2662963867188 1093.9675903320312 933.8701782226562 1162.6299438476562Q871.4740600585938 1231.2922973632812 748.7662353515625 1231.2922973632812H503.30511474609375Z"/></g>
    <g transform="translate(11586, 0)"><path d="M649.7986450195312 -21Q489.0389404296875 -21 356.78570556640625 14.91558837890625Q224.532470703125 50.8311767578125 97.11041259765625 139.85064697265625V492.1817626953125H322.90252685546875L354.0518798828125 284.77264404296875Q398.69476318359375 247.24017333984375 477.7791748046875 223.69796752929688Q556.8635864257812 200.15576171875 649.7986450195312 200.15576171875Q729.4415283203125 200.15576171875 783.8279113769531 222.0194091796875Q838.2142944335938 243.883056640625 866.5779418945312 284.3116455078125Q894.9415893554688 324.740234375 894.9415893554688 380.08441162109375Q894.9415893554688 432.27923583984375 869.4188537597656 472.792236328125Q843.8961181640625 513.3052368164062 785.5097351074219 546.8701782226562Q727.1233520507812 580.4351196289062 627.2661743164062 611.2857666015625Q454.4415283203125 661.7078247070312 340.7629699707031 722.3669128417969Q227.08441162109375 783.0260009765625 170.5 867.4513244628906Q113.91558837890625 951.8766479492188 113.91558837890625 1070.9805297851562Q113.91558837890625 1189.2987060546875 179.65908813476562 1279.6071472167969Q245.402587890625 1369.9155883789062 361.42205810546875 1421.9155883789062Q477.4415283203125 1473.9155883789062 628.8441162109375 1475.7662353515625Q797.2661743164062 1478.2337646484375 926.7953796386719 1436.0519409179688Q1056.3245849609375 1393.8701171875 1150.2141723632812 1319.2337646484375V991.2208251953125H931.207763671875L893.272705078125 1191.2013549804688Q855.0584106445312 1215.4805908203125 790.5259399414062 1233.311767578125Q725.9934692382812 1251.1429443359375 644.2661743164062 1251.1429443359375Q574.4544677734375 1251.1429443359375 520.6330261230469 1229.9708557128906Q466.81158447265625 1208.7987670898438 436.0550842285156 1168.7532958984375Q405.298583984375 1128.7078247070312 405.298583984375 1071.5130004882812Q405.298583984375 1023.3181762695312 431.9382019042969 986.4967346191406Q458.57781982421875 949.67529296875 522.5161437988281 917.2597045898438Q586.4544677734375 884.8441162109375 697.7337036132812 848.2921752929688Q938.8375854492188 781.4220581054688 1063.5064086914062 671.1558227539062Q1188.1752319335938 560.8895874023438 1188.1752319335938 382.08441162109375Q1188.1752319335938 257.68182373046875 1120.8570556640625 167.18182373046875Q1053.5388793945312 76.68182373046875 932.5616149902344 27.840911865234375Q811.5843505859375 -21 649.7986450195312 -21Z"/></g>
  </g>
</svg>