<?xml version="1.0" encoding="UTF-8"?>
<svg xmlns="http://www.w3.org/2000/svg" viewBox="0 0 93.5 18" 
     width="93.5" height="18">
  <g transform="translate(0, 15.299999999999999) scale(0.0087890625, -0.0087890625)" fill="#000">
    <g transform="translate(0, 0)"><path d="M723.1168212890625 -21Q575.947998046875 -21 455.0032043457031 33.925323486328125Q334.05841064453125 88.85064697265625 246.61361694335938 188.27597045898438Q159.1688232421875 287.7012939453125 112.11688232421875 422.3928527832031Q65.06494140625 557.0844116210938 65.06494140625 717V739.2337646484375Q65.06494140625 898.1493530273438 112.11688232421875 1032.7240295410156Q159.1688232421875 1167.2987060546875 246.30517578125 1266.9155883789062Q333.4415283203125 1366.532470703125 454.077880859375 1421.7662353515625Q574.7142333984375 1477 721.883056640625 1477Q870.2661743164062 1477 991.9025268554688 1421.7662353515625Q1113.5388793945312 1366.532470703125 1201.7596435546875 1266.9155883789062Q1289.9804077148438 1167.2987060546875 1337.6167602539062 1032.7240295410156Q1385.2531127929688 898.1493530273438 1385.2531127929688 739.2337646484375V717Q1385.2531127929688 557.0844116210938 1337.6167602539062 422.3928527832031Q1289.9804077148438 287.7012939453125 1202.0680847167969 188.27597045898438Q1114.15576171875 88.85064697265625 992.5194091796875 33.925323486328125Q870.883056640625 -21 723.1168212890625 -21ZM723.1168212890625 205.9219970703125Q846.5259399414062 205.9219970703125 928.9317932128906 269.90252685546875Q1011.337646484375 333.883056640625 1052.7207641601562 448.8863220214844Q1094.1038818359375 563.8895874023438 1094.1038818359375 717V741.2337646484375Q1094.1038818359375 892.1104125976562 1052.2207641601562 1006.422119140625Q1010.337646484375 1120.7338256835938 927.740234375 1184.9059143066406Q845.142822265625 1249.0780029296875 721.883056640625 1249.0780029296875Q599.5194091796875 1249.0780029296875 518.6979675292969 1185.3312377929688Q437.87652587890625 1121.58447265625 397.6622314453125 1007.5812072753906Q357.44793701171875 893.5779418945312 357.44793701171875 741.2337646484375V717Q357.44793701171875 564.272705078125 397.9706726074219 448.96099853515625Q438.493408203125 333.6492919921875 519.9317321777344 269.78564453125Q601.3700561523438 205.9219970703125 723.1168212890625 205.9219970703125Z"/></g>
    <g transform="translate(1446, 0)"><path d="M55.70782470703125 0V174.73370361328125L211.30523681640625 205.20123291015625V1249.7987670898438L55.70782470703125 1280.2662963867188V1456H211.30523681640625H748.7662353515625Q915.8701171875 1456 1036.9739990234375 1397.4902648925781Q1158.077880859375 1338.9805297851562 1223.1720275878906 1234.5032653808594Q1288.2661743164062 1130.0260009765625 1288.2661743164062 991.0065307617188Q1288.2661743164062 851.6039428710938 1223.1720275878906 747.4351196289062Q1158.077880859375 643.2662963867188 1036.9739990234375 585.5650024414062Q915.8701171875 527.8637084960938 748.7662353515625 527.8637084960938H503.30511474609375V205.20123291015625L658.9025268554688 174.73370361328125V0ZM503.30511474609375 752.80517578125H748.7662353515625Q871.4740600585938 752.80517578125 933.8701782226562 819.3506469726562Q996.2662963867188 885.8961181640625 996.2662963867188 989.0065307617188Q996.2662963867188 1093.9675903320312 933.8701782226562 1162.6299438476562Q871.4740600585938 1231.2922973632812 748.7662353515625 1231.2922973632812H503.30511474609375Z"/></g>
    <g transform="translate(2771, 0)"><path d="M391.26629638671875 0V174.73370361328125L547.4805908203125 205.20123291015625V1231.1234741210938H282.25323486328125L265.59088134765625 1056.8831787109375H45.4156494140625V1456H1343.6298217773438V1056.8831787109375H1122.3701782226562L1105.9415893554688 1231.1234741210938H839.48046875V205.20123291015625L995.6947631835938 174.73370361328125V0Z"/></g>
    <g transform="translate(4160, 0)"><path d="M55.70782470703125 0V174.73370361328125L211.30523681640625 205.20123291015625V1249.7987670898438L55.70782470703125 1280.2662963867188V1456H658.28564453125V1280.2662963867188L502.688232421875 1249.7987670898438V205.20123291015625L658.28564453125 174.73370361328125V0Z"/></g>
    <g transform="translate(4874, 0)"><path d="M723.1168212890625 -21Q575.947998046875 -21 455.0032043457031 33.925323486328125Q334.05841064453125 88.85064697265625 246.61361694335938 188.27597045898438Q159.1688232421875 287.7012939453125 112.11688232421875 422.3928527832031Q65.06494140625 557.0844116210938 65.06494140625 717V739.2337646484375Q65.06494140625 898.1493530273438 112.11688232421875 1032.7240295410156Q159.1688232421875 1167.2987060546875 246.30517578125 1266.9155883789062Q333.4415283203125 1366.532470703125 454.077880859375 1421.7662353515625Q574.7142333984375 1477 721.883056640625 1477Q870.2661743164062 1477 991.9025268554688 1421.7662353515625Q1113.5388793945312 1366.532470703125 1201.7596435546875 1266.9155883789062Q1289.9804077148438 1167.2987060546875 1337.6167602539062 1032.7240295410156Q1385.2531127929688 898.1493530273438 1385.2531127929688 739.2337646484375V717Q1385.2531127929688 557.0844116210938 1337.6167602539062 422.3928527832031Q1289.9804077148438 287.7012939453125 1202.0680847167969 188.27597045898438Q1114.15576171875 88.85064697265625 992.5194091796875 33.925323486328125Q870.883056640625 -21 723.1168212890625 -21ZM723.1168212890625 205.9219970703125Q846.5259399414062 205.9219970703125 928.9317932128906 269.90252685546875Q1011.337646484375 333.883056640625 1052.7207641601562 448.8863220214844Q1094.1038818359375 563.8895874023438 1094.1038818359375 717V741.2337646484375Q1094.1038818359375 892.1104125976562 1052.2207641601562 1006.422119140625Q1010.337646484375 1120.7338256835938 927.740234375 1184.9059143066406Q845.142822265625 1249.0780029296875 721.883056640625 1249.0780029296875Q599.5194091796875 1249.0780029296875 518.6979675292969 1185.3312377929688Q437.87652587890625 1121.58447265625 397.6622314453125 1007.5812072753906Q357.44793701171875 893.5779418945312 357.44793701171875 741.2337646484375V717Q357.44793701171875 564.272705078125 397.9706726074219 448.96099853515625Q438.493408203125 333.6492919921875 519.9317321777344 269.78564453125Q601.3700561523438 205.9219970703125 723.1168212890625 205.9219970703125Z"/></g>
    <g transform="translate(6320, 0)"><path d="M55.857177734375 0V174.73370361328125L210.83770751953125 205.20123291015625V1249.7987670898438L55.857177734375 1280.2662963867188V1456H210.83770751953125H507.30511474609375L1141.1104125976562 446.22711181640625L1147.1104125976562 446.99334716796875V1249.7987670898438L960.7078247070312 1280.2662963867188V1456H1408.3051147460938H1563.9025268554688V1280.2662963867188L1408.3051147460938 1249.7987670898438V0H1125.9026489257812L478.03240966796875 999.7339477539062L472.03240966796875 998.9677124023438V205.20123291015625L659.0518798828125 174.73370361328125V0Z"/></g>
    <g transform="translate(7924, 0)"><path d="M41.00653076171875 0V174.73370361328125L145.30523681640625 189.73370361328125L608.0390625 1456H907.2012329101562L1367.1038818359375 189.73370361328125L1471.0194702148438 174.73370361328125V0H975.2922973632812V174.73370361328125L1076.0390625 193.1168212890625L1012.116943359375 393.259765625H500.05841064453125L436.220703125 193.1168212890625L536.9674682617188 174.73370361328125V0ZM569.077880859375 608.2272338867188H942.8637084960938L773.2792358398438 1107.0780029296875L758.8117065429688 1151.181884765625H752.8117065429688L737.727294921875 1103.9935913085938Z"/></g>
    <g transform="translate(9436, 0)"><path d="M55.70782470703125 0V174.73370361328125L211.30523681640625 205.20123291015625V1249.7987670898438L55.70782470703125 1280.2662963867188V1456H211.30523681640625H503.30511474609375H679.2596435546875V1280.2662963867188L503.30511474609375 1249.7987670898438V223.7921142578125H914.052001953125L927.7987670898438 437.13629150390625H1150.9739990234375V0Z"/></g>
  </g>
</svg>