<?xml version="1.0" encoding="UTF-8"?>
<svg xmlns="http://www.w3.org/2000/svg" viewBox="0 0 100.7 18" 
     width="100.7" height="18">
  <g transform="translate(0, 15.299999999999999) scale(0.0087890625, -0.0087890625)" fill="#000">
    <g transform="translate(0, 0)"><path d="M723.1168212890625 -21Q575.947998046875 -21 455.0032043457031 33.925323486328125Q334.05841064453125 88.85064697265625 246.61361694335938 188.27597045898438Q159.1688232421875 287.7012939453125 112.11688232421875 422.3928527832031Q65.06494140625 557.0844116210938 65.06494140625 717V739.2337646484375Q65.06494140625 898.1493530273438 112.11688232421875 1032.7240295410156Q159.1688232421875 1167.2987060546875 246.30517578125 1266.9155883789062Q333.4415283203125 1366.532470703125 454.077880859375 1421.7662353515625Q574.7142333984375 1477 721.883056640625 1477Q870.2661743164062 1477 991.9025268554688 1421.7662353515625Q1113.5388793945312 1366.532470703125 1201.7596435546875 1266.9155883789062Q1289.9804077148438 1167.2987060546875 1337.6167602539062 1032.7240295410156Q1385.2531127929688 898.1493530273438 1385.2531127929688 739.2337646484375V717Q1385.2531127929688 557.0844116210938 1337.6167602539062 422.3928527832031Q1289.9804077148438 287.7012939453125 1202.0680847167969 188.27597045898438Q1114.15576171875 88.85064697265625 992.5194091796875 33.925323486328125Q870.883056640625 -21 723.1168212890625 -21ZM723.1168212890625 205.9219970703125Q846.5259399414062 205.9219970703125 928.9317932128906 269.90252685546875Q1011.337646484375 333.883056640625 1052.7207641601562 448.8863220214844Q1094.1038818359375 563.8895874023438 1094.1038818359375 717V741.2337646484375Q1094.1038818359375 892.1104125976562 1052.2207641601562 1006.422119140625Q1010.337646484375 1120.7338256835938 927.740234375 1184.9059143066406Q845.142822265625 1249.0780029296875 721.883056640625 1249.0780029296875Q599.5194091796875 1249.0780029296875 518.6979675292969 1185.3312377929688Q437.87652587890625 1121.58447265625 397.6622314453125 1007.5812072753906Q357.44793701171875 893.5779418945312 357.44793701171875 741.2337646484375V717Q357.44793701171875 564.272705078125 397.9706726074219 448.96099853515625Q438.493408203125 333.6492919921875 519.9317321777344 269.78564453125Q601.3700561523438 205.9219970703125 723.1168212890625 205.9219970703125Z"/></g>
    <g transform="translate(1446, 0)"><path d="M631.987060546875 0 163.727294921875 1264.2662963867188 34.1558837890625 1280.2662963867188V1456H613.2141723632812V1280.2662963867188L482.0648193359375 1259.8831787109375L767.9674682617188 400.5064697265625L789.6298217773438 321.28564453125H795.6298217773438L817.4415283203125 398.65582275390625L1103.0065307617188 1260.2662963867188L950.0714721679688 1280.2662963867188V1456H1502.220703125V1280.2662963867188L1369.7986450195312 1264.2662963867188L931.1492309570312 0Z"/></g>
    <g transform="translate(2981, 0)"><path d="M55.70782470703125 0V174.73370361328125L211.30523681640625 205.20123291015625V1249.7987670898438L55.70782470703125 1280.2662963867188V1456H1186.142822265625V1062.8182373046875H962.1364135742188L948.7727661132812 1231.2078857421875H503.30511474609375V865.1622924804688H995.8895874023438V639.8377075195312H503.30511474609375V223.87652587890625H972.7532958984375L986.116943359375 397.73370361328125H1207.8895874023438V0Z"/></g>
    <g transform="translate(4289, 0)"><path d="M55.70782470703125 0V174.73370361328125L211.30523681640625 205.20123291015625V1249.7987670898438L55.70782470703125 1280.2662963867188V1456.2337646484375H746.0389404296875Q913.67529296875 1456.2337646484375 1033.9707336425781 1404.1071472167969Q1154.2661743164062 1351.9805297851562 1218.6687622070312 1254.8863830566406Q1283.0713500976562 1157.792236328125 1283.0713500976562 1022.2402954101562Q1283.0713500976562 894.2402954101562 1218.9349975585938 793.052001953125Q1154.7986450195312 691.8637084960938 1041.077880859375 633.7922973632812Q927.3571166992188 575.7208862304688 778.1038818359375 575.1884155273438L503.30511474609375 574.7403564453125V205.20123291015625L658.9025268554688 174.73370361328125V0ZM992.6494140625 0 747.6103515625 628.9157104492188 1011.233642578125 693.8377075195312 1223.48046875 203.753173828125 1347.3051147460938 175.26617431640625V0ZM503.30511474609375 800.06494140625H740.8441162109375Q866.9805297851562 800.06494140625 929.6428833007812 853.5032653808594Q992.3052368164062 906.9415893554688 992.3052368164062 1008.8182373046875Q992.3052368164062 1110.246826171875 930.1753540039062 1170.7695617675781Q868.0454711914062 1231.2922973632812 746.0389404296875 1231.2922973632812H503.30511474609375Z"/></g>
    <g transform="translate(5697, 0)"><path d="M631.987060546875 0 163.727294921875 1264.2662963867188 34.1558837890625 1280.2662963867188V1456H613.2141723632812V1280.2662963867188L482.0648193359375 1259.8831787109375L767.9674682617188 400.5064697265625L789.6298217773438 321.28564453125H795.6298217773438L817.4415283203125 398.65582275390625L1103.0065307617188 1260.2662963867188L950.0714721679688 1280.2662963867188V1456H1502.220703125V1280.2662963867188L1369.7986450195312 1264.2662963867188L931.1492309570312 0Z"/></g>
    <g transform="translate(7232, 0)"><path d="M55.70782470703125 0V174.73370361328125L211.30523681640625 205.20123291015625V1249.7987670898438L55.70782470703125 1280.2662963867188V1456H658.28564453125V1280.2662963867188L502.688232421875 1249.7987670898438V205.20123291015625L658.28564453125 174.73370361328125V0Z"/></g>
    <g transform="translate(7946, 0)"><path d="M55.70782470703125 0V174.73370361328125L211.30523681640625 205.20123291015625V1249.7987670898438L55.70782470703125 1280.2662963867188V1456H1186.142822265625V1062.8182373046875H962.1364135742188L948.7727661132812 1231.2078857421875H503.30511474609375V865.1622924804688H995.8895874023438V639.8377075195312H503.30511474609375V223.87652587890625H972.7532958984375L986.116943359375 397.73370361328125H1207.8895874023438V0Z"/></g>
    <g transform="translate(9254, 0)"><path d="M520.8117065429688 0 183.27923583984375 1265.2662963867188 34.37017822265625 1280.2662963867188V1456H620.493408203125V1280.2662963867188L462.70770263671875 1257.2662963867188L633.5843505859375 548.7986450195312L664.6298217773438 419.168701171875L670.6298217773438 418.78558349609375L707.6558227539062 549.0324096679688L995.7207641601562 1456H1211.28564453125L1509.753173828125 523.740234375L1544.54541015625 409.01934814453125H1550.54541015625L1580.9545288085938 523.740234375L1757.8506469726562 1257.2662963867188L1592.3831176757812 1280.2662963867188V1456H2167.4219360351562V1280.2662963867188L2027.7466430664062 1265.2662963867188L1686.3245849609375 0H1421.597412109375L1145.6947631835938 850.6950073242188L1111.2467041015625 971.1690673828125H1105.2467041015625L1066.2467041015625 846.9937133789062L787.493408203125 0Z"/></g>
  </g>
</svg>