<?xml version="1.0" encoding="UTF-8"?>
<svg xmlns="http://www.w3.org/2000/svg" viewBox="0 0 244.4 18" 
     width="244.4" height="18">
  <g transform="translate(0, 15.299999999999999) scale(0.0087890625, -0.0087890625)" fill="#000">
    <g transform="translate(0, 0)"><path d="M55.70782470703125 0V174.73370361328125L211.30523681640625 205.20123291015625V1249.7987670898438L55.70782470703125 1280.2662963867188V1456H211.30523681640625H748.7662353515625Q915.8701171875 1456 1036.9739990234375 1397.4902648925781Q1158.077880859375 1338.9805297851562 1223.1720275878906 1234.5032653808594Q1288.2661743164062 1130.0260009765625 1288.2661743164062 991.0065307617188Q1288.2661743164062 851.6039428710938 1223.1720275878906 747.4351196289062Q1158.077880859375 643.2662963867188 1036.9739990234375 585.5650024414062Q915.8701171875 527.8637084960938 748.7662353515625 527.8637084960938H503.30511474609375V205.20123291015625L658.9025268554688 174.73370361328125V0ZM503.30511474609375 752.80517578125H748.7662353515625Q871.4740600585938 752.80517578125 933.8701782226562 819.3506469726562Q996.2662963867188 885.8961181640625 996.2662963867188 989.0065307617188Q996.2662963867188 1093.9675903320312 933.8701782226562 1162.6299438476562Q871.4740600585938 1231.2922973632812 748.7662353515625 1231.2922973632812H503.30511474609375Z"/></g>
    <g transform="translate(1325, 0)"><path d="M55.70782470703125 0V174.73370361328125L211.30523681640625 205.20123291015625V1249.7987670898438L55.70782470703125 1280.2662963867188V1456.2337646484375H746.0389404296875Q913.67529296875 1456.2337646484375 1033.9707336425781 1404.1071472167969Q1154.2661743164062 1351.9805297851562 1218.6687622070312 1254.8863830566406Q1283.0713500976562 1157.792236328125 1283.0713500976562 1022.2402954101562Q1283.0713500976562 894.2402954101562 1218.9349975585938 793.052001953125Q1154.7986450195312 691.8637084960938 1041.077880859375 633.7922973632812Q927.3571166992188 575.7208862304688 778.1038818359375 575.1884155273438L503.30511474609375 574.7403564453125V205.20123291015625L658.9025268554688 174.73370361328125V0ZM992.6494140625 0 747.6103515625 628.9157104492188 1011.233642578125 693.8377075195312 1223.48046875 203.753173828125 1347.3051147460938 175.26617431640625V0ZM503.30511474609375 800.06494140625H740.8441162109375Q866.9805297851562 800.06494140625 929.6428833007812 853.5032653808594Q992.3052368164062 906.9415893554688 992.3052368164062 1008.8182373046875Q992.3052368164062 1110.246826171875 930.1753540039062 1170.7695617675781Q868.0454711914062 1231.2922973632812 746.0389404296875 1231.2922973632812H503.30511474609375Z"/></g>
    <g transform="translate(2733, 0)"><path d="M723.1168212890625 -21Q575.947998046875 -21 455.0032043457031 33.925323486328125Q334.05841064453125 88.85064697265625 246.61361694335938 188.27597045898438Q159.1688232421875 287.7012939453125 112.11688232421875 422.3928527832031Q65.06494140625 557.0844116210938 65.06494140625 717V739.2337646484375Q65.06494140625 898.1493530273438 112.11688232421875 1032.7240295410156Q159.1688232421875 1167.2987060546875 246.30517578125 1266.9155883789062Q333.4415283203125 1366.532470703125 454.077880859375 1421.7662353515625Q574.7142333984375 1477 721.883056640625 1477Q870.2661743164062 1477 991.9025268554688 1421.7662353515625Q1113.5388793945312 1366.532470703125 1201.7596435546875 1266.9155883789062Q1289.9804077148438 1167.2987060546875 1337.6167602539062 1032.7240295410156Q1385.2531127929688 898.1493530273438 1385.2531127929688 739.2337646484375V717Q1385.2531127929688 557.0844116210938 1337.6167602539062 422.3928527832031Q1289.9804077148438 287.7012939453125 1202.0680847167969 188.27597045898438Q1114.15576171875 88.85064697265625 992.5194091796875 33.925323486328125Q870.883056640625 -21 723.1168212890625 -21ZM723.1168212890625 205.9219970703125Q846.5259399414062 205.9219970703125 928.9317932128906 269.90252685546875Q1011.337646484375 333.883056640625 1052.7207641601562 448.8863220214844Q1094.1038818359375 563.8895874023438 1094.1038818359375 717V741.2337646484375Q1094.1038818359375 892.1104125976562 1052.2207641601562 1006.422119140625Q1010.337646484375 1120.7338256835938 927.740234375 1184.9059143066406Q845.142822265625 1249.0780029296875 721.883056640625 1249.0780029296875Q599.5194091796875 1249.0780029296875 518.6979675292969 1185.3312377929688Q437.87652587890625 1121.58447265625 397.6622314453125 1007.5812072753906Q357.44793701171875 893.5779418945312 357.44793701171875 741.2337646484375V717Q357.44793701171875 564.272705078125 397.9706726074219 448.96099853515625Q438.493408203125 333.6492919921875 519.9317321777344 269.78564453125Q601.3700561523438 205.9219970703125 723.1168212890625 205.9219970703125Z"/></g>
    <g transform="translate(4179, 0)"><path d="M733.06494140625 -21Q516.259765625 -21 363.0162658691406 69.10714721679688Q209.77276611328125 159.21429443359375 128.53900146484375 319.3539123535156Q47.30523681640625 479.4935302734375 47.30523681640625 690.0909423828125V740Q47.30523681640625 958.1493530273438 128.11367797851562 1123.9577941894531Q208.922119140625 1289.7662353515625 357.5584716796875 1383.3831176757812Q506.19482421875 1477 708.8701171875 1477Q865.9155883789062 1477 1003.8473815917969 1433.9902648925781Q1141.7791748046875 1390.9805297851562 1244.28564453125 1305.2402954101562V982.246826171875H1028L987.259765625 1177.2078857421875Q947.5130004882812 1211.0585327148438 881.7565002441406 1231.5682678222656Q816 1252.0780029296875 730.7207641601562 1252.0780029296875Q608.80517578125 1252.0780029296875 520.5259399414062 1187.7890319824219Q432.2467041015625 1123.5000610351562 385.0421447753906 1008.8799133300781Q337.83758544921875 894.259765625 337.83758544921875 742V690.0909423828125Q337.83758544921875 542 384.5518798828125 432.5486755371094Q431.26617431640625 323.09735107421875 521.3116455078125 263.0096740722656Q611.3571166992188 202.9219970703125 741.7012939453125 202.9219970703125Q818.8766479492188 202.9219970703125 883.5584716796875 217.64602661132812Q948.2402954101562 232.37005615234375 990.1364135742188 252.96746826171875V499.96759033203125L782.077880859375 516.1364135742188V720.9739990234375H1282.753173828125V132.2987060546875Q1185.8246459960938 62.81170654296875 1049.2012939453125 20.905853271484375Q912.5779418945312 -21 733.06494140625 -21Z"/></g>
    <g transform="translate(5552, 0)"><path d="M55.70782470703125 0V174.73370361328125L211.30523681640625 205.20123291015625V1249.7987670898438L55.70782470703125 1280.2662963867188V1456.2337646484375H746.0389404296875Q913.67529296875 1456.2337646484375 1033.9707336425781 1404.1071472167969Q1154.2661743164062 1351.9805297851562 1218.6687622070312 1254.8863830566406Q1283.0713500976562 1157.792236328125 1283.0713500976562 1022.2402954101562Q1283.0713500976562 894.2402954101562 1218.9349975585938 793.052001953125Q1154.7986450195312 691.8637084960938 1041.077880859375 633.7922973632812Q927.3571166992188 575.7208862304688 778.1038818359375 575.1884155273438L503.30511474609375 574.7403564453125V205.20123291015625L658.9025268554688 174.73370361328125V0ZM992.6494140625 0 747.6103515625 628.9157104492188 1011.233642578125 693.8377075195312 1223.48046875 203.753173828125 1347.3051147460938 175.26617431640625V0ZM503.30511474609375 800.06494140625H740.8441162109375Q866.9805297851562 800.06494140625 929.6428833007812 853.5032653808594Q992.3052368164062 906.9415893554688 992.3052368164062 1008.8182373046875Q992.3052368164062 1110.246826171875 930.1753540039062 1170.7695617675781Q868.0454711914062 1231.2922973632812 746.0389404296875 1231.2922973632812H503.30511474609375Z"/></g>
    <g transform="translate(6960, 0)"><path d="M41.00653076171875 0V174.73370361328125L145.30523681640625 189.73370361328125L608.0390625 1456H907.2012329101562L1367.1038818359375 189.73370361328125L1471.0194702148438 174.73370361328125V0H975.2922973632812V174.73370361328125L1076.0390625 193.1168212890625L1012.116943359375 393.259765625H500.05841064453125L436.220703125 193.1168212890625L536.9674682617188 174.73370361328125V0ZM569.077880859375 608.2272338867188H942.8637084960938L773.2792358398438 1107.0780029296875L758.8117065429688 1151.181884765625H752.8117065429688L737.727294921875 1103.9935913085938Z"/></g>
    <g transform="translate(8472, 0)"><path d="M55.7532958984375 0V174.73370361328125L210.73382568359375 205.20123291015625V1249.7987670898438L55.7532958984375 1280.2662963867188V1456H210.73382568359375H642.7595825195312L1039.5843505859375 441.0648193359375H1045.5843505859375L1430.4935302734375 1456H2017.5452880859375V1280.2662963867188L1861.9478759765625 1249.7987670898438V205.20123291015625L2017.5452880859375 174.73370361328125V0H1414.9674682617188V174.73370361328125L1577.7142333984375 205.20123291015625V484.08453369140625L1582.6492919921875 1140.7338256835938L1577.0324096679688 1141.7338256835938L1141.6622314453125 19.922119140625H921.2142944335938L476.012939453125 1132.9481201171875L469.7791748046875 1131.9481201171875L487.26617431640625 513.6948852539062V205.20123291015625L658.947998046875 174.73370361328125V0Z"/></g>
    <g transform="translate(11040, 0)"><path d="M55.70782470703125 0V174.73370361328125L211.30523681640625 205.20123291015625V1249.7987670898438L55.70782470703125 1280.2662963867188V1456.2337646484375H746.0389404296875Q913.67529296875 1456.2337646484375 1033.9707336425781 1404.1071472167969Q1154.2661743164062 1351.9805297851562 1218.6687622070312 1254.8863830566406Q1283.0713500976562 1157.792236328125 1283.0713500976562 1022.2402954101562Q1283.0713500976562 894.2402954101562 1218.9349975585938 793.052001953125Q1154.7986450195312 691.8637084960938 1041.077880859375 633.7922973632812Q927.3571166992188 575.7208862304688 778.1038818359375 575.1884155273438L503.30511474609375 574.7403564453125V205.20123291015625L658.9025268554688 174.73370361328125V0ZM992.6494140625 0 747.6103515625 628.9157104492188 1011.233642578125 693.8377075195312 1223.48046875 203.753173828125 1347.3051147460938 175.26617431640625V0ZM503.30511474609375 800.06494140625H740.8441162109375Q866.9805297851562 800.06494140625 929.6428833007812 853.5032653808594Q992.3052368164062 906.9415893554688 992.3052368164062 1008.8182373046875Q992.3052368164062 1110.246826171875 930.1753540039062 1170.7695617675781Q868.0454711914062 1231.2922973632812 746.0389404296875 1231.2922973632812H503.30511474609375Z"/></g>
    <g transform="translate(12448, 0)"><path d="M55.70782470703125 0V174.73370361328125L211.30523681640625 205.20123291015625V1249.7987670898438L55.70782470703125 1280.2662963867188V1456H1186.142822265625V1062.8182373046875H962.1364135742188L948.7727661132812 1231.2078857421875H503.30511474609375V865.1622924804688H995.8895874023438V639.8377075195312H503.30511474609375V223.87652587890625H972.7532958984375L986.116943359375 397.73370361328125H1207.8895874023438V0Z"/></g>
    <g transform="translate(13756, 0)"><path d="M1293.1362915039062 -280.7791748046875 881.9155883789062 -3.0389404296875Q843.0194702148438 -11.01947021484375 803.5908813476562 -16.009735107421875Q764.1622924804688 -21 725.2012329101562 -21Q577.7986450195312 -21 456.54541015625 33.925323486328125Q335.29217529296875 88.85064697265625 248.15582275390625 188.15908813476562Q161.01947021484375 287.467529296875 113.967529296875 422.1590881347656Q66.91558837890625 556.8506469726562 66.91558837890625 717V739.2337646484375Q66.91558837890625 898.1493530273438 113.967529296875 1032.8409118652344Q161.01947021484375 1167.532470703125 247.96426391601562 1267.3409118652344Q334.9090576171875 1367.1493530273438 455.8538513183594 1422.0746765136719Q576.7986450195312 1477 723.9674682617188 1477Q871.9674682617188 1477 993.6038208007812 1422.0746765136719Q1115.2401733398438 1367.1493530273438 1203.4609375 1267.3409118652344Q1291.6817016601562 1167.532470703125 1339.3180541992188 1032.8409118652344Q1386.9544067382812 898.1493530273438 1386.9544067382812 739.2337646484375V717Q1386.9544067382812 527.402587890625 1318.363525390625 370.1363525390625Q1249.7726440429688 212.8701171875 1126.9414672851562 114.25323486328125L1436.8310546875 -78.87664794921875ZM725.2012329101562 205.9219970703125Q848.9285278320312 205.9219970703125 931.2174987792969 269.90252685546875Q1013.5064697265625 333.883056640625 1054.8473815917969 448.8863220214844Q1096.1882934570312 563.8895874023438 1096.1882934570312 717V741.2337646484375Q1096.1882934570312 892.1104125976562 1054.30517578125 1006.422119140625Q1012.4220581054688 1120.7338256835938 929.8246459960938 1184.9059143066406Q847.2272338867188 1249.0780029296875 723.9674682617188 1249.0780029296875Q601.3700561523438 1249.0780029296875 520.2401733398438 1185.3312377929688Q439.11029052734375 1121.58447265625 399.01287841796875 1007.5812072753906Q358.91546630859375 893.5779418945312 358.91546630859375 741.2337646484375V717Q358.91546630859375 564.272705078125 399.5550842285156 448.96099853515625Q440.1947021484375 333.6492919921875 521.9414672851562 269.78564453125Q603.688232421875 205.9219970703125 725.2012329101562 205.9219970703125Z"/></g>
    <g transform="translate(15205, 0)"><path d="M775.9739990234375 -21Q602.532470703125 -21 471.2695007324219 38.925323486328125Q340.00653076171875 98.85064697265625 267.07147216796875 212.97726440429688Q194.13641357421875 327.1038818359375 194.13641357421875 489.9739990234375V1249.7987670898438L39.1558837890625 1280.2662963867188V1456H641.7337036132812V1280.2662963867188L486.13629150390625 1249.7987670898438V489.9739990234375Q486.13629150390625 393.92852783203125 521.1590270996094 330.1070861816406Q556.1817626953125 266.28564453125 621.2369689941406 234.64602661132812Q686.2921752929688 203.00640869140625 775.8895874023438 203.00640869140625Q867.7207641601562 203.00640869140625 933.3506469726562 234.4544677734375Q998.9805297851562 265.90252685546875 1034.0779418945312 329.7239685058594Q1069.1753540039062 393.54541015625 1069.1753540039062 489.9739990234375V1249.7987670898438L914.19482421875 1280.2662963867188V1456H1516.7726440429688V1280.2662963867188L1361.1752319335938 1249.7987670898438V489.9739990234375Q1361.1752319335938 327.0389404296875 1287.5810852050781 212.6038818359375Q1213.9869384765625 98.1688232421875 1082.5746154785156 38.58441162109375Q951.1622924804688 -21 775.9739990234375 -21Z"/></g>
    <g transform="translate(16760, 0)"><path d="M55.70782470703125 0V174.73370361328125L211.30523681640625 205.20123291015625V1249.7987670898438L55.70782470703125 1280.2662963867188V1456H658.28564453125V1280.2662963867188L502.688232421875 1249.7987670898438V205.20123291015625L658.28564453125 174.73370361328125V0Z"/></g>
    <g transform="translate(17474, 0)"><path d="M55.70782470703125 0V174.73370361328125L211.30523681640625 205.20123291015625V1249.7987670898438L55.70782470703125 1280.2662963867188V1456.2337646484375H746.0389404296875Q913.67529296875 1456.2337646484375 1033.9707336425781 1404.1071472167969Q1154.2661743164062 1351.9805297851562 1218.6687622070312 1254.8863830566406Q1283.0713500976562 1157.792236328125 1283.0713500976562 1022.2402954101562Q1283.0713500976562 894.2402954101562 1218.9349975585938 793.052001953125Q1154.7986450195312 691.8637084960938 1041.077880859375 633.7922973632812Q927.3571166992188 575.7208862304688 778.1038818359375 575.1884155273438L503.30511474609375 574.7403564453125V205.20123291015625L658.9025268554688 174.73370361328125V0ZM992.6494140625 0 747.6103515625 628.9157104492188 1011.233642578125 693.8377075195312 1223.48046875 203.753173828125 1347.3051147460938 175.26617431640625V0ZM503.30511474609375 800.06494140625H740.8441162109375Q866.9805297851562 800.06494140625 929.6428833007812 853.5032653808594Q992.3052368164062 906.9415893554688 992.3052368164062 1008.8182373046875Q992.3052368164062 1110.246826171875 930.1753540039062 1170.7695617675781Q868.0454711914062 1231.2922973632812 746.0389404296875 1231.2922973632812H503.30511474609375Z"/></g>
    <g transform="translate(18882, 0)"><path d="M55.70782470703125 0V174.73370361328125L211.30523681640625 205.20123291015625V1249.7987670898438L55.70782470703125 1280.2662963867188V1456H1186.142822265625V1062.8182373046875H962.1364135742188L948.7727661132812 1231.2078857421875H503.30511474609375V865.1622924804688H995.8895874023438V639.8377075195312H503.30511474609375V223.87652587890625H972.7532958984375L986.116943359375 397.73370361328125H1207.8895874023438V0Z"/></g>
    <g transform="translate(20190, 0)"><path d="M55.7532958984375 0V174.73370361328125L210.73382568359375 205.20123291015625V1249.7987670898438L55.7532958984375 1280.2662963867188V1456H210.73382568359375H642.7595825195312L1039.5843505859375 441.0648193359375H1045.5843505859375L1430.4935302734375 1456H2017.5452880859375V1280.2662963867188L1861.9478759765625 1249.7987670898438V205.20123291015625L2017.5452880859375 174.73370361328125V0H1414.9674682617188V174.73370361328125L1577.7142333984375 205.20123291015625V484.08453369140625L1582.6492919921875 1140.7338256835938L1577.0324096679688 1141.7338256835938L1141.6622314453125 19.922119140625H921.2142944335938L476.012939453125 1132.9481201171875L469.7791748046875 1131.9481201171875L487.26617431640625 513.6948852539062V205.20123291015625L658.947998046875 174.73370361328125V0Z"/></g>
    <g transform="translate(22256, 0)"><path d="M55.70782470703125 0V174.73370361328125L211.30523681640625 205.20123291015625V1249.7987670898438L55.70782470703125 1280.2662963867188V1456H1186.142822265625V1062.8182373046875H962.1364135742188L948.7727661132812 1231.2078857421875H503.30511474609375V865.1622924804688H995.8895874023438V639.8377075195312H503.30511474609375V223.87652587890625H972.7532958984375L986.116943359375 397.73370361328125H1207.8895874023438V0Z"/></g>
    <g transform="translate(23564, 0)"><path d="M55.857177734375 0V174.73370361328125L210.83770751953125 205.20123291015625V1249.7987670898438L55.857177734375 1280.2662963867188V1456H210.83770751953125H507.30511474609375L1141.1104125976562 446.22711181640625L1147.1104125976562 446.99334716796875V1249.7987670898438L960.7078247070312 1280.2662963867188V1456H1408.3051147460938H1563.9025268554688V1280.2662963867188L1408.3051147460938 1249.7987670898438V0H1125.9026489257812L478.03240966796875 999.7339477539062L472.03240966796875 998.9677124023438V205.20123291015625L659.0518798828125 174.73370361328125V0Z"/></g>
    <g transform="translate(25168, 0)"><path d="M391.26629638671875 0V174.73370361328125L547.4805908203125 205.20123291015625V1231.1234741210938H282.25323486328125L265.59088134765625 1056.8831787109375H45.4156494140625V1456H1343.6298217773438V1056.8831787109375H1122.3701782226562L1105.9415893554688 1231.1234741210938H839.48046875V205.20123291015625L995.6947631835938 174.73370361328125V0Z"/></g>
    <g transform="translate(26557, 0)"><path d="M649.7986450195312 -21Q489.0389404296875 -21 356.78570556640625 14.91558837890625Q224.532470703125 50.8311767578125 97.11041259765625 139.85064697265625V492.1817626953125H322.90252685546875L354.0518798828125 284.77264404296875Q398.69476318359375 247.24017333984375 477.7791748046875 223.69796752929688Q556.8635864257812 200.15576171875 649.7986450195312 200.15576171875Q729.4415283203125 200.15576171875 783.8279113769531 222.0194091796875Q838.2142944335938 243.883056640625 866.5779418945312 284.3116455078125Q894.9415893554688 324.740234375 894.9415893554688 380.08441162109375Q894.9415893554688 432.27923583984375 869.4188537597656 472.792236328125Q843.8961181640625 513.3052368164062 785.5097351074219 546.8701782226562Q727.1233520507812 580.4351196289062 627.2661743164062 611.2857666015625Q454.4415283203125 661.7078247070312 340.7629699707031 722.3669128417969Q227.08441162109375 783.0260009765625 170.5 867.4513244628906Q113.91558837890625 951.8766479492188 113.91558837890625 1070.9805297851562Q113.91558837890625 1189.2987060546875 179.65908813476562 1279.6071472167969Q245.402587890625 1369.9155883789062 361.42205810546875 1421.9155883789062Q477.4415283203125 1473.9155883789062 628.8441162109375 1475.7662353515625Q797.2661743164062 1478.2337646484375 926.7953796386719 1436.0519409179688Q1056.3245849609375 1393.8701171875 1150.2141723632812 1319.2337646484375V991.2208251953125H931.207763671875L893.272705078125 1191.2013549804688Q855.0584106445312 1215.4805908203125 790.5259399414062 1233.311767578125Q725.9934692382812 1251.1429443359375 644.2661743164062 1251.1429443359375Q574.4544677734375 1251.1429443359375 520.6330261230469 1229.9708557128906Q466.81158447265625 1208.7987670898438 436.0550842285156 1168.7532958984375Q405.298583984375 1128.7078247070312 405.298583984375 1071.5130004882812Q405.298583984375 1023.3181762695312 431.9382019042969 986.4967346191406Q458.57781982421875 949.67529296875 522.5161437988281 917.2597045898438Q586.4544677734375 884.8441162109375 697.7337036132812 848.2921752929688Q938.8375854492188 781.4220581054688 1063.5064086914062 671.1558227539062Q1188.1752319335938 560.8895874023438 1188.1752319335938 382.08441162109375Q1188.1752319335938 257.68182373046875 1120.8570556640625 167.18182373046875Q1053.5388793945312 76.68182373046875 932.5616149902344 27.840911865234375Q811.5843505859375 -21 649.7986450195312 -21Z"/></g>
  </g>
</svg>