<?xml version="1.0" encoding="UTF-8"?>
<svg xmlns="http://www.w3.org/2000/svg" viewBox="0 0 93.0 18" 
     width="93.0" height="18">
  <g transform="translate(0, 15.299999999999999) scale(0.0087890625, -0.0087890625)" fill="#000">
    <g transform="translate(0, 0)"><path d="M55.70782470703125 0V174.73370361328125L211.30523681640625 205.20123291015625V1249.7987670898438L55.70782470703125 1280.2662963867188V1456.2337646484375H746.0389404296875Q913.67529296875 1456.2337646484375 1033.9707336425781 1404.1071472167969Q1154.2661743164062 1351.9805297851562 1218.6687622070312 1254.8863830566406Q1283.0713500976562 1157.792236328125 1283.0713500976562 1022.2402954101562Q1283.0713500976562 894.2402954101562 1218.9349975585938 793.052001953125Q1154.7986450195312 691.8637084960938 1041.077880859375 633.7922973632812Q927.3571166992188 575.7208862304688 778.1038818359375 575.1884155273438L503.30511474609375 574.7403564453125V205.20123291015625L658.9025268554688 174.73370361328125V0ZM992.6494140625 0 747.6103515625 628.9157104492188 1011.233642578125 693.8377075195312 1223.48046875 203.753173828125 1347.3051147460938 175.26617431640625V0ZM503.30511474609375 800.06494140625H740.8441162109375Q866.9805297851562 800.06494140625 929.6428833007812 853.5032653808594Q992.3052368164062 906.9415893554688 992.3052368164062 1008.8182373046875Q992.3052368164062 1110.246826171875 930.1753540039062 1170.7695617675781Q868.0454711914062 1231.2922973632812 746.0389404296875 1231.2922973632812H503.30511474609375Z"/></g>
    <g transform="translate(1408, 0)"><path d="M55.70782470703125 0V174.73370361328125L211.30523681640625 205.20123291015625V1249.7987670898438L55.70782470703125 1280.2662963867188V1456H1186.142822265625V1062.8182373046875H962.1364135742188L948.7727661132812 1231.2078857421875H503.30511474609375V865.1622924804688H995.8895874023438V639.8377075195312H503.30511474609375V223.87652587890625H972.7532958984375L986.116943359375 397.73370361328125H1207.8895874023438V0Z"/></g>
    <g transform="translate(2716, 0)"><path d="M1293.1362915039062 -280.7791748046875 881.9155883789062 -3.0389404296875Q843.0194702148438 -11.01947021484375 803.5908813476562 -16.009735107421875Q764.1622924804688 -21 725.2012329101562 -21Q577.7986450195312 -21 456.54541015625 33.925323486328125Q335.29217529296875 88.85064697265625 248.15582275390625 188.15908813476562Q161.01947021484375 287.467529296875 113.967529296875 422.1590881347656Q66.91558837890625 556.8506469726562 66.91558837890625 717V739.2337646484375Q66.91558837890625 898.1493530273438 113.967529296875 1032.8409118652344Q161.01947021484375 1167.532470703125 247.96426391601562 1267.3409118652344Q334.9090576171875 1367.1493530273438 455.8538513183594 1422.0746765136719Q576.7986450195312 1477 723.9674682617188 1477Q871.9674682617188 1477 993.6038208007812 1422.0746765136719Q1115.2401733398438 1367.1493530273438 1203.4609375 1267.3409118652344Q1291.6817016601562 1167.532470703125 1339.3180541992188 1032.8409118652344Q1386.9544067382812 898.1493530273438 1386.9544067382812 739.2337646484375V717Q1386.9544067382812 527.402587890625 1318.363525390625 370.1363525390625Q1249.7726440429688 212.8701171875 1126.9414672851562 114.25323486328125L1436.8310546875 -78.87664794921875ZM725.2012329101562 205.9219970703125Q848.9285278320312 205.9219970703125 931.2174987792969 269.90252685546875Q1013.5064697265625 333.883056640625 1054.8473815917969 448.8863220214844Q1096.1882934570312 563.8895874023438 1096.1882934570312 717V741.2337646484375Q1096.1882934570312 892.1104125976562 1054.30517578125 1006.422119140625Q1012.4220581054688 1120.7338256835938 929.8246459960938 1184.9059143066406Q847.2272338867188 1249.0780029296875 723.9674682617188 1249.0780029296875Q601.3700561523438 1249.0780029296875 520.2401733398438 1185.3312377929688Q439.11029052734375 1121.58447265625 399.01287841796875 1007.5812072753906Q358.91546630859375 893.5779418945312 358.91546630859375 741.2337646484375V717Q358.91546630859375 564.272705078125 399.5550842285156 448.96099853515625Q440.1947021484375 333.6492919921875 521.9414672851562 269.78564453125Q603.688232421875 205.9219970703125 725.2012329101562 205.9219970703125Z"/></g>
    <g transform="translate(4165, 0)"><path d="M775.9739990234375 -21Q602.532470703125 -21 471.2695007324219 38.925323486328125Q340.00653076171875 98.85064697265625 267.07147216796875 212.97726440429688Q194.13641357421875 327.1038818359375 194.13641357421875 489.9739990234375V1249.7987670898438L39.1558837890625 1280.2662963867188V1456H641.7337036132812V1280.2662963867188L486.13629150390625 1249.7987670898438V489.9739990234375Q486.13629150390625 393.92852783203125 521.1590270996094 330.1070861816406Q556.1817626953125 266.28564453125 621.2369689941406 234.64602661132812Q686.2921752929688 203.00640869140625 775.8895874023438 203.00640869140625Q867.7207641601562 203.00640869140625 933.3506469726562 234.4544677734375Q998.9805297851562 265.90252685546875 1034.0779418945312 329.7239685058594Q1069.1753540039062 393.54541015625 1069.1753540039062 489.9739990234375V1249.7987670898438L914.19482421875 1280.2662963867188V1456H1516.7726440429688V1280.2662963867188L1361.1752319335938 1249.7987670898438V489.9739990234375Q1361.1752319335938 327.0389404296875 1287.5810852050781 212.6038818359375Q1213.9869384765625 98.1688232421875 1082.5746154785156 38.58441162109375Q951.1622924804688 -21 775.9739990234375 -21Z"/></g>
    <g transform="translate(5720, 0)"><path d="M55.70782470703125 0V174.73370361328125L211.30523681640625 205.20123291015625V1249.7987670898438L55.70782470703125 1280.2662963867188V1456H658.28564453125V1280.2662963867188L502.688232421875 1249.7987670898438V205.20123291015625L658.28564453125 174.73370361328125V0Z"/></g>
    <g transform="translate(6434, 0)"><path d="M55.70782470703125 0V174.73370361328125L211.30523681640625 205.20123291015625V1249.7987670898438L55.70782470703125 1280.2662963867188V1456.2337646484375H746.0389404296875Q913.67529296875 1456.2337646484375 1033.9707336425781 1404.1071472167969Q1154.2661743164062 1351.9805297851562 1218.6687622070312 1254.8863830566406Q1283.0713500976562 1157.792236328125 1283.0713500976562 1022.2402954101562Q1283.0713500976562 894.2402954101562 1218.9349975585938 793.052001953125Q1154.7986450195312 691.8637084960938 1041.077880859375 633.7922973632812Q927.3571166992188 575.7208862304688 778.1038818359375 575.1884155273438L503.30511474609375 574.7403564453125V205.20123291015625L658.9025268554688 174.73370361328125V0ZM992.6494140625 0 747.6103515625 628.9157104492188 1011.233642578125 693.8377075195312 1223.48046875 203.753173828125 1347.3051147460938 175.26617431640625V0ZM503.30511474609375 800.06494140625H740.8441162109375Q866.9805297851562 800.06494140625 929.6428833007812 853.5032653808594Q992.3052368164062 906.9415893554688 992.3052368164062 1008.8182373046875Q992.3052368164062 1110.246826171875 930.1753540039062 1170.7695617675781Q868.0454711914062 1231.2922973632812 746.0389404296875 1231.2922973632812H503.30511474609375Z"/></g>
    <g transform="translate(7842, 0)"><path d="M55.70782470703125 0V174.73370361328125L211.30523681640625 205.20123291015625V1249.7987670898438L55.70782470703125 1280.2662963867188V1456H1186.142822265625V1062.8182373046875H962.1364135742188L948.7727661132812 1231.2078857421875H503.30511474609375V865.1622924804688H995.8895874023438V639.8377075195312H503.30511474609375V223.87652587890625H972.7532958984375L986.116943359375 397.73370361328125H1207.8895874023438V0Z"/></g>
    <g transform="translate(9150, 0)"><path d="M55.70782470703125 0V174.73370361328125L212.53900146484375 208.28564453125V1246.0974731445312L55.70782470703125 1280.2662963867188V1456H212.53900146484375H694.7986450195312Q890.2661743164062 1456 1039.0096740722656 1364.3084411621094Q1187.753173828125 1272.6168823242188 1271.4544677734375 1111.3084411621094Q1355.15576171875 950 1355.15576171875 740.532470703125V714.467529296875Q1355.15576171875 506.91558837890625 1272.6038208007812 345.41558837890625Q1190.0518798828125 183.91558837890625 1042.0746154785156 91.95779418945312Q894.0973510742188 0 698.6298217773438 0ZM504.53887939453125 223.0908203125H683.6947631835938Q805.0389404296875 223.0908203125 889.2337646484375 286.5616149902344Q973.4285888671875 350.03240966796875 1017.6753540039062 461.1103515625Q1061.922119140625 572.1882934570312 1061.922119140625 714.467529296875V741.9155883789062Q1061.922119140625 886.1104125976562 1017.6753540039062 996.4967956542969Q973.4285888671875 1106.8831787109375 889.2337646484375 1169.3961791992188Q805.0389404296875 1231.9091796875 683.6947631835938 1231.9091796875H504.53887939453125Z"/></g>
  </g>
</svg>