<?xml version="1.0" encoding="UTF-8"?>
<svg xmlns="http://www.w3.org/2000/svg" viewBox="0 0 60.4 18" 
     width="60.4" height="18">
  <g transform="translate(0, 15.299999999999999) scale(0.0087890625, -0.0087890625)" fill="#000">
    <g transform="translate(0, 0)"><path d="M55.70782470703125 0V174.73370361328125L211.30523681640625 205.20123291015625V1249.7987670898438L55.70782470703125 1280.2662963867188V1456.2337646484375H746.0389404296875Q913.67529296875 1456.2337646484375 1033.9707336425781 1404.1071472167969Q1154.2661743164062 1351.9805297851562 1218.6687622070312 1254.8863830566406Q1283.0713500976562 1157.792236328125 1283.0713500976562 1022.2402954101562Q1283.0713500976562 894.2402954101562 1218.9349975585938 793.052001953125Q1154.7986450195312 691.8637084960938 1041.077880859375 633.7922973632812Q927.3571166992188 575.7208862304688 778.1038818359375 575.1884155273438L503.30511474609375 574.7403564453125V205.20123291015625L658.9025268554688 174.73370361328125V0ZM992.6494140625 0 747.6103515625 628.9157104492188 1011.233642578125 693.8377075195312 1223.48046875 203.753173828125 1347.3051147460938 175.26617431640625V0ZM503.30511474609375 800.06494140625H740.8441162109375Q866.9805297851562 800.06494140625 929.6428833007812 853.5032653808594Q992.3052368164062 906.9415893554688 992.3052368164062 1008.8182373046875Q992.3052368164062 1110.246826171875 930.1753540039062 1170.7695617675781Q868.0454711914062 1231.2922973632812 746.0389404296875 1231.2922973632812H503.30511474609375Z"/></g>
    <g transform="translate(1408, 0)"><path d="M55.70782470703125 0V174.73370361328125L211.30523681640625 205.20123291015625V1249.7987670898438L55.70782470703125 1280.2662963867188V1456H1186.142822265625V1062.8182373046875H962.1364135742188L948.7727661132812 1231.2078857421875H503.30511474609375V865.1622924804688H995.8895874023438V639.8377075195312H503.30511474609375V223.87652587890625H972.7532958984375L986.116943359375 397.73370361328125H1207.8895874023438V0Z"/></g>
    <g transform="translate(2716, 0)"><path d="M748.8701171875 -21Q536.6558227539062 -21 379.9772644042969 67.597412109375Q223.2987060546875 156.19482421875 137.76950073242188 318.5682067871094Q52.24029541015625 480.94158935546875 52.24029541015625 702.8117065429688V752.1882934570312Q52.24029541015625 963.7207641601562 134.48379516601562 1127.1363525390625Q216.727294921875 1290.5519409179688 369.6720886230469 1383.7759704589844Q522.6168823242188 1477 733.7207641601562 1477Q881.5064697265625 1477 1011.1525573730469 1435.1590881347656Q1140.7986450195312 1393.3181762695312 1243.0908203125 1306.8117065429688V955.181884765625H1025.6363525390625L996 1175.9286499023438Q962.7662353515625 1199.6948852539062 923.7337646484375 1216.6948852539062Q884.7012939453125 1233.6948852539062 839.1363525390625 1242.6948852539062Q793.5714111328125 1251.6948852539062 740.740234375 1251.6948852539062Q617.48046875 1251.6948852539062 528.3505859375 1190.8409729003906Q439.220703125 1129.987060546875 391.6135559082031 1018.5682067871094Q344.00640869140625 907.1493530273438 344.00640869140625 754.1882934570312V702.8117065429688Q344.00640869140625 550.0389404296875 393.8797912597656 437.8116455078125Q443.753173828125 325.5843505859375 535.91552734375 264.37005615234375Q628.077880859375 203.15576171875 754.0194702148438 203.15576171875Q817.2337646484375 203.15576171875 880.532470703125 217.37979125976562Q943.8311767578125 231.60382080078125 995.8506469726562 254.90252685546875L1025.8701171875 459.753173828125H1242.7921142578125V112.29217529296875Q1157.7077026367188 55.740234375 1030.753173828125 17.3701171875Q903.7986450195312 -21 748.8701171875 -21Z"/></g>
    <g transform="translate(4037, 0)"><path d="M41.00653076171875 0V174.73370361328125L145.30523681640625 189.73370361328125L608.0390625 1456H907.2012329101562L1367.1038818359375 189.73370361328125L1471.0194702148438 174.73370361328125V0H975.2922973632812V174.73370361328125L1076.0390625 193.1168212890625L1012.116943359375 393.259765625H500.05841064453125L436.220703125 193.1168212890625L536.9674682617188 174.73370361328125V0ZM569.077880859375 608.2272338867188H942.8637084960938L773.2792358398438 1107.0780029296875L758.8117065429688 1151.181884765625H752.8117065429688L737.727294921875 1103.9935913085938Z"/></g>
    <g transform="translate(5549, 0)"><path d="M55.70782470703125 0V174.73370361328125L211.30523681640625 205.20123291015625V1249.7987670898438L55.70782470703125 1280.2662963867188V1456H211.30523681640625H748.7662353515625Q915.8701171875 1456 1036.9739990234375 1397.4902648925781Q1158.077880859375 1338.9805297851562 1223.1720275878906 1234.5032653808594Q1288.2661743164062 1130.0260009765625 1288.2661743164062 991.0065307617188Q1288.2661743164062 851.6039428710938 1223.1720275878906 747.4351196289062Q1158.077880859375 643.2662963867188 1036.9739990234375 585.5650024414062Q915.8701171875 527.8637084960938 748.7662353515625 527.8637084960938H503.30511474609375V205.20123291015625L658.9025268554688 174.73370361328125V0ZM503.30511474609375 752.80517578125H748.7662353515625Q871.4740600585938 752.80517578125 933.8701782226562 819.3506469726562Q996.2662963867188 885.8961181640625 996.2662963867188 989.0065307617188Q996.2662963867188 1093.9675903320312 933.8701782226562 1162.6299438476562Q871.4740600585938 1231.2922973632812 748.7662353515625 1231.2922973632812H503.30511474609375Z"/></g>
  </g>
</svg>