<?xml version="1.0" encoding="UTF-8"?>
<svg xmlns="http://www.w3.org/2000/svg" viewBox="0 0 146.7 18" 
     width="146.7" height="18">
  <g transform="translate(0, 15.299999999999999) scale(0.0087890625, -0.0087890625)" fill="#000">
    <g transform="translate(0, 0)"><path d="M649.7986450195312 -21Q489.0389404296875 -21 356.78570556640625 14.91558837890625Q224.532470703125 50.8311767578125 97.11041259765625 139.85064697265625V492.1817626953125H322.90252685546875L354.0518798828125 284.77264404296875Q398.69476318359375 247.24017333984375 477.7791748046875 223.69796752929688Q556.8635864257812 200.15576171875 649.7986450195312 200.15576171875Q729.4415283203125 200.15576171875 783.8279113769531 222.0194091796875Q838.2142944335938 243.883056640625 866.5779418945312 284.3116455078125Q894.9415893554688 324.740234375 894.9415893554688 380.08441162109375Q894.9415893554688 432.27923583984375 869.4188537597656 472.792236328125Q843.8961181640625 513.3052368164062 785.5097351074219 546.8701782226562Q727.1233520507812 580.4351196289062 627.2661743164062 611.2857666015625Q454.4415283203125 661.7078247070312 340.7629699707031 722.3669128417969Q227.08441162109375 783.0260009765625 170.5 867.4513244628906Q113.91558837890625 951.8766479492188 113.91558837890625 1070.9805297851562Q113.91558837890625 1189.2987060546875 179.65908813476562 1279.6071472167969Q245.402587890625 1369.9155883789062 361.42205810546875 1421.9155883789062Q477.4415283203125 1473.9155883789062 628.8441162109375 1475.7662353515625Q797.2661743164062 1478.2337646484375 926.7953796386719 1436.0519409179688Q1056.3245849609375 1393.8701171875 1150.2141723632812 1319.2337646484375V991.2208251953125H931.207763671875L893.272705078125 1191.2013549804688Q855.0584106445312 1215.4805908203125 790.5259399414062 1233.311767578125Q725.9934692382812 1251.1429443359375 644.2661743164062 1251.1429443359375Q574.4544677734375 1251.1429443359375 520.6330261230469 1229.9708557128906Q466.81158447265625 1208.7987670898438 436.0550842285156 1168.7532958984375Q405.298583984375 1128.7078247070312 405.298583984375 1071.5130004882812Q405.298583984375 1023.3181762695312 431.9382019042969 986.4967346191406Q458.57781982421875 949.67529296875 522.5161437988281 917.2597045898438Q586.4544677734375 884.8441162109375 697.7337036132812 848.2921752929688Q938.8375854492188 781.4220581054688 1063.5064086914062 671.1558227539062Q1188.1752319335938 560.8895874023438 1188.1752319335938 382.08441162109375Q1188.1752319335938 257.68182373046875 1120.8570556640625 167.18182373046875Q1053.5388793945312 76.68182373046875 932.5616149902344 27.840911865234375Q811.5843505859375 -21 649.7986450195312 -21Z"/></g>
    <g transform="translate(1247, 0)"><path d="M748.8701171875 -21Q536.6558227539062 -21 379.9772644042969 67.597412109375Q223.2987060546875 156.19482421875 137.76950073242188 318.5682067871094Q52.24029541015625 480.94158935546875 52.24029541015625 702.8117065429688V752.1882934570312Q52.24029541015625 963.7207641601562 134.48379516601562 1127.1363525390625Q216.727294921875 1290.5519409179688 369.6720886230469 1383.7759704589844Q522.6168823242188 1477 733.7207641601562 1477Q881.5064697265625 1477 1011.1525573730469 1435.1590881347656Q1140.7986450195312 1393.3181762695312 1243.0908203125 1306.8117065429688V955.181884765625H1025.6363525390625L996 1175.9286499023438Q962.7662353515625 1199.6948852539062 923.7337646484375 1216.6948852539062Q884.7012939453125 1233.6948852539062 839.1363525390625 1242.6948852539062Q793.5714111328125 1251.6948852539062 740.740234375 1251.6948852539062Q617.48046875 1251.6948852539062 528.3505859375 1190.8409729003906Q439.220703125 1129.987060546875 391.6135559082031 1018.5682067871094Q344.00640869140625 907.1493530273438 344.00640869140625 754.1882934570312V702.8117065429688Q344.00640869140625 550.0389404296875 393.8797912597656 437.8116455078125Q443.753173828125 325.5843505859375 535.91552734375 264.37005615234375Q628.077880859375 203.15576171875 754.0194702148438 203.15576171875Q817.2337646484375 203.15576171875 880.532470703125 217.37979125976562Q943.8311767578125 231.60382080078125 995.8506469726562 254.90252685546875L1025.8701171875 459.753173828125H1242.7921142578125V112.29217529296875Q1157.7077026367188 55.740234375 1030.753173828125 17.3701171875Q903.7986450195312 -21 748.8701171875 -21Z"/></g>
    <g transform="translate(2568, 0)"><path d="M55.70782470703125 0V174.73370361328125L211.30523681640625 205.20123291015625V1249.7987670898438L55.70782470703125 1280.2662963867188V1456.2337646484375H746.0389404296875Q913.67529296875 1456.2337646484375 1033.9707336425781 1404.1071472167969Q1154.2661743164062 1351.9805297851562 1218.6687622070312 1254.8863830566406Q1283.0713500976562 1157.792236328125 1283.0713500976562 1022.2402954101562Q1283.0713500976562 894.2402954101562 1218.9349975585938 793.052001953125Q1154.7986450195312 691.8637084960938 1041.077880859375 633.7922973632812Q927.3571166992188 575.7208862304688 778.1038818359375 575.1884155273438L503.30511474609375 574.7403564453125V205.20123291015625L658.9025268554688 174.73370361328125V0ZM992.6494140625 0 747.6103515625 628.9157104492188 1011.233642578125 693.8377075195312 1223.48046875 203.753173828125 1347.3051147460938 175.26617431640625V0ZM503.30511474609375 800.06494140625H740.8441162109375Q866.9805297851562 800.06494140625 929.6428833007812 853.5032653808594Q992.3052368164062 906.9415893554688 992.3052368164062 1008.8182373046875Q992.3052368164062 1110.246826171875 930.1753540039062 1170.7695617675781Q868.0454711914062 1231.2922973632812 746.0389404296875 1231.2922973632812H503.30511474609375Z"/></g>
    <g transform="translate(3976, 0)"><path d="M55.70782470703125 0V174.73370361328125L211.30523681640625 205.20123291015625V1249.7987670898438L55.70782470703125 1280.2662963867188V1456H1186.142822265625V1062.8182373046875H962.1364135742188L948.7727661132812 1231.2078857421875H503.30511474609375V865.1622924804688H995.8895874023438V639.8377075195312H503.30511474609375V223.87652587890625H972.7532958984375L986.116943359375 397.73370361328125H1207.8895874023438V0Z"/></g>
    <g transform="translate(5284, 0)"><path d="M55.70782470703125 0V174.73370361328125L211.30523681640625 205.20123291015625V1249.7987670898438L55.70782470703125 1280.2662963867188V1456H1186.142822265625V1062.8182373046875H962.1364135742188L948.7727661132812 1231.2078857421875H503.30511474609375V865.1622924804688H995.8895874023438V639.8377075195312H503.30511474609375V223.87652587890625H972.7532958984375L986.116943359375 397.73370361328125H1207.8895874023438V0Z"/></g>
    <g transform="translate(6592, 0)"><path d="M55.857177734375 0V174.73370361328125L210.83770751953125 205.20123291015625V1249.7987670898438L55.857177734375 1280.2662963867188V1456H210.83770751953125H507.30511474609375L1141.1104125976562 446.22711181640625L1147.1104125976562 446.99334716796875V1249.7987670898438L960.7078247070312 1280.2662963867188V1456H1408.3051147460938H1563.9025268554688V1280.2662963867188L1408.3051147460938 1249.7987670898438V0H1125.9026489257812L478.03240966796875 999.7339477539062L472.03240966796875 998.9677124023438V205.20123291015625L659.0518798828125 174.73370361328125V0Z"/></g>
    <g transform="translate(8196, 0)"><path d="M649.7986450195312 -21Q489.0389404296875 -21 356.78570556640625 14.91558837890625Q224.532470703125 50.8311767578125 97.11041259765625 139.85064697265625V492.1817626953125H322.90252685546875L354.0518798828125 284.77264404296875Q398.69476318359375 247.24017333984375 477.7791748046875 223.69796752929688Q556.8635864257812 200.15576171875 649.7986450195312 200.15576171875Q729.4415283203125 200.15576171875 783.8279113769531 222.0194091796875Q838.2142944335938 243.883056640625 866.5779418945312 284.3116455078125Q894.9415893554688 324.740234375 894.9415893554688 380.08441162109375Q894.9415893554688 432.27923583984375 869.4188537597656 472.792236328125Q843.8961181640625 513.3052368164062 785.5097351074219 546.8701782226562Q727.1233520507812 580.4351196289062 627.2661743164062 611.2857666015625Q454.4415283203125 661.7078247070312 340.7629699707031 722.3669128417969Q227.08441162109375 783.0260009765625 170.5 867.4513244628906Q113.91558837890625 951.8766479492188 113.91558837890625 1070.9805297851562Q113.91558837890625 1189.2987060546875 179.65908813476562 1279.6071472167969Q245.402587890625 1369.9155883789062 361.42205810546875 1421.9155883789062Q477.4415283203125 1473.9155883789062 628.8441162109375 1475.7662353515625Q797.2661743164062 1478.2337646484375 926.7953796386719 1436.0519409179688Q1056.3245849609375 1393.8701171875 1150.2141723632812 1319.2337646484375V991.2208251953125H931.207763671875L893.272705078125 1191.2013549804688Q855.0584106445312 1215.4805908203125 790.5259399414062 1233.311767578125Q725.9934692382812 1251.1429443359375 644.2661743164062 1251.1429443359375Q574.4544677734375 1251.1429443359375 520.6330261230469 1229.9708557128906Q466.81158447265625 1208.7987670898438 436.0550842285156 1168.7532958984375Q405.298583984375 1128.7078247070312 405.298583984375 1071.5130004882812Q405.298583984375 1023.3181762695312 431.9382019042969 986.4967346191406Q458.57781982421875 949.67529296875 522.5161437988281 917.2597045898438Q586.4544677734375 884.8441162109375 697.7337036132812 848.2921752929688Q938.8375854492188 781.4220581054688 1063.5064086914062 671.1558227539062Q1188.1752319335938 560.8895874023438 1188.1752319335938 382.08441162109375Q1188.1752319335938 257.68182373046875 1120.8570556640625 167.18182373046875Q1053.5388793945312 76.68182373046875 932.5616149902344 27.840911865234375Q811.5843505859375 -21 649.7986450195312 -21Z"/></g>
    <g transform="translate(9443, 0)"><path d="M55.70782470703125 0V174.73370361328125L211.30523681640625 205.20123291015625V1249.7987670898438L55.70782470703125 1280.2662963867188V1456H658.9025268554688V1280.2662963867188L503.30511474609375 1249.7987670898438V830.077880859375H1096.9026489257812V1249.7987670898438L941.3052368164062 1280.2662963867188V1456H1096.9026489257812H1388.28564453125H1543.883056640625V1280.2662963867188L1388.28564453125 1249.7987670898438V205.20123291015625L1543.883056640625 174.73370361328125V0H941.3052368164062V174.73370361328125L1096.9026489257812 205.20123291015625V604.7532958984375H503.30511474609375V205.20123291015625L658.9025268554688 174.73370361328125V0Z"/></g>
    <g transform="translate(11043, 0)"><path d="M723.1168212890625 -21Q575.947998046875 -21 455.0032043457031 33.925323486328125Q334.05841064453125 88.85064697265625 246.61361694335938 188.27597045898438Q159.1688232421875 287.7012939453125 112.11688232421875 422.3928527832031Q65.06494140625 557.0844116210938 65.06494140625 717V739.2337646484375Q65.06494140625 898.1493530273438 112.11688232421875 1032.7240295410156Q159.1688232421875 1167.2987060546875 246.30517578125 1266.9155883789062Q333.4415283203125 1366.532470703125 454.077880859375 1421.7662353515625Q574.7142333984375 1477 721.883056640625 1477Q870.2661743164062 1477 991.9025268554688 1421.7662353515625Q1113.5388793945312 1366.532470703125 1201.7596435546875 1266.9155883789062Q1289.9804077148438 1167.2987060546875 1337.6167602539062 1032.7240295410156Q1385.2531127929688 898.1493530273438 1385.2531127929688 739.2337646484375V717Q1385.2531127929688 557.0844116210938 1337.6167602539062 422.3928527832031Q1289.9804077148438 287.7012939453125 1202.0680847167969 188.27597045898438Q1114.15576171875 88.85064697265625 992.5194091796875 33.925323486328125Q870.883056640625 -21 723.1168212890625 -21ZM723.1168212890625 205.9219970703125Q846.5259399414062 205.9219970703125 928.9317932128906 269.90252685546875Q1011.337646484375 333.883056640625 1052.7207641601562 448.8863220214844Q1094.1038818359375 563.8895874023438 1094.1038818359375 717V741.2337646484375Q1094.1038818359375 892.1104125976562 1052.2207641601562 1006.422119140625Q1010.337646484375 1120.7338256835938 927.740234375 1184.9059143066406Q845.142822265625 1249.0780029296875 721.883056640625 1249.0780029296875Q599.5194091796875 1249.0780029296875 518.6979675292969 1185.3312377929688Q437.87652587890625 1121.58447265625 397.6622314453125 1007.5812072753906Q357.44793701171875 893.5779418945312 357.44793701171875 741.2337646484375V717Q357.44793701171875 564.272705078125 397.9706726074219 448.96099853515625Q438.493408203125 333.6492919921875 519.9317321777344 269.78564453125Q601.3700561523438 205.9219970703125 723.1168212890625 205.9219970703125Z"/></g>
    <g transform="translate(12489, 0)"><path d="M391.26629638671875 0V174.73370361328125L547.4805908203125 205.20123291015625V1231.1234741210938H282.25323486328125L265.59088134765625 1056.8831787109375H45.4156494140625V1456H1343.6298217773438V1056.8831787109375H1122.3701782226562L1105.9415893554688 1231.1234741210938H839.48046875V205.20123291015625L995.6947631835938 174.73370361328125V0Z"/></g>
    <g transform="translate(14380, 0)"><path d="M193.94158935546875 0 265.922119140625 410H38.94158935546875V578.9934692382812H295.1558837890625L345.8831787109375 869.0065307617188H114.94158935546875V1040H375.73382568359375L449.71435546875 1456H632.792236328125L560.0454711914062 1040H752.1234741210938L824.8702392578125 1456H1009.181884765625L935.2013549804688 1040H1154.9415893554688V869.0065307617188H905.116943359375L853.7727661132812 578.9934692382812H1079.9415893554688V410H825.1558837890625L753.1753540039062 0H570.0974731445312L642.0780029296875 410H450.2337646484375L378.25323486328125 0ZM478.85064697265625 578.9934692382812H670.6948852539062L722.0390625 869.0065307617188H530.19482421875Z"/></g>
    <g transform="translate(15578, 0)"><path d="M554.0584106445312 -21Q414.88958740234375 -21 300.51947021484375 28.11688232421875Q186.14935302734375 77.2337646484375 120.1298828125 170.74349975585938Q54.11041259765625 264.25323486328125 57.11041259765625 397.12335205078125L58.87664794921875 403.12335205078125H341.87652587890625Q341.87652587890625 345.62982177734375 367.70770263671875 300.23370361328125Q393.53887939453125 254.83758544921875 441.1265563964844 228.77264404296875Q488.7142333984375 202.70770263671875 554.0584106445312 202.70770263671875Q655 202.70770263671875 713.3539123535156 259.60382080078125Q771.7078247070312 316.49993896484375 771.7078247070312 416.80517578125Q771.7078247070312 519.1104125976562 713.6428833007812 576.0162658691406Q655.5779418945312 632.922119140625 538.7012939453125 632.922119140625H380.88958740234375V851.6947631835938H544.8701171875Q614.9805297851562 851.6947631835938 660.0779418945312 876.2597045898438Q705.1753540039062 900.8246459960938 727.1331481933594 945.837646484375Q749.0909423828125 990.8506469726562 749.0909423828125 1052.19482421875Q749.0909423828125 1144.5000610351562 699.1201477050781 1198.3961791992188Q649.1493530273438 1252.2922973632812 554.0584106445312 1252.2922973632812Q497.1817626953125 1252.2922973632812 453.253173828125 1229.5033264160156Q409.3245849609375 1206.71435546875 384.61029052734375 1166.01953125Q359.89599609375 1125.32470703125 359.89599609375 1070.6818237304688H77.1298828125L75.1298828125 1076.6818237304688Q71.51300048828125 1192.8506469726562 131.94805908203125 1283.467529296875Q192.38311767578125 1374.0844116210938 301.5941467285156 1425.5422058105469Q410.80517578125 1477 551.5908813476562 1477Q773.3311157226562 1477 907.2109680175781 1369.5Q1041.0908203125 1262 1041.0908203125 1064.8506469726562Q1041.0908203125 963.1298828125 984.7401733398438 881.032470703125Q928.3895263671875 798.93505859375 816.3051147460938 747Q937.4349975585938 704 1000.5713500976562 615.0844116210938Q1063.7077026367188 526.1688232421875 1063.7077026367188 407.85064697265625Q1063.7077026367188 275.2337646484375 997.7304382324219 178.92532348632812Q931.753173828125 82.61688232421875 816.7661743164062 30.808441162109375Q701.7791748046875 -21 554.0584106445312 -21Z"/></g>
  </g>
</svg>