<?xml version="1.0" encoding="UTF-8"?>
<svg xmlns="http://www.w3.org/2000/svg" viewBox="0 0 121.7 18" 
     width="121.7" height="18">
  <g transform="translate(0, 15.299999999999999) scale(0.0087890625, -0.0087890625)" fill="#000">
    <g transform="translate(0, 0)"><path d="M649.7986450195312 -21Q489.0389404296875 -21 356.78570556640625 14.91558837890625Q224.532470703125 50.8311767578125 97.11041259765625 139.85064697265625V492.1817626953125H322.90252685546875L354.0518798828125 284.77264404296875Q398.69476318359375 247.24017333984375 477.7791748046875 223.69796752929688Q556.8635864257812 200.15576171875 649.7986450195312 200.15576171875Q729.4415283203125 200.15576171875 783.8279113769531 222.0194091796875Q838.2142944335938 243.883056640625 866.5779418945312 284.3116455078125Q894.9415893554688 324.740234375 894.9415893554688 380.08441162109375Q894.9415893554688 432.27923583984375 869.4188537597656 472.792236328125Q843.8961181640625 513.3052368164062 785.5097351074219 546.8701782226562Q727.1233520507812 580.4351196289062 627.2661743164062 611.2857666015625Q454.4415283203125 661.7078247070312 340.7629699707031 722.3669128417969Q227.08441162109375 783.0260009765625 170.5 867.4513244628906Q113.91558837890625 951.8766479492188 113.91558837890625 1070.9805297851562Q113.91558837890625 1189.2987060546875 179.65908813476562 1279.6071472167969Q245.402587890625 1369.9155883789062 361.42205810546875 1421.9155883789062Q477.4415283203125 1473.9155883789062 628.8441162109375 1475.7662353515625Q797.2661743164062 1478.2337646484375 926.7953796386719 1436.0519409179688Q1056.3245849609375 1393.8701171875 1150.2141723632812 1319.2337646484375V991.2208251953125H931.207763671875L893.272705078125 1191.2013549804688Q855.0584106445312 1215.4805908203125 790.5259399414062 1233.311767578125Q725.9934692382812 1251.1429443359375 644.2661743164062 1251.1429443359375Q574.4544677734375 1251.1429443359375 520.6330261230469 1229.9708557128906Q466.81158447265625 1208.7987670898438 436.0550842285156 1168.7532958984375Q405.298583984375 1128.7078247070312 405.298583984375 1071.5130004882812Q405.298583984375 1023.3181762695312 431.9382019042969 986.4967346191406Q458.57781982421875 949.67529296875 522.5161437988281 917.2597045898438Q586.4544677734375 884.8441162109375 697.7337036132812 848.2921752929688Q938.8375854492188 781.4220581054688 1063.5064086914062 671.1558227539062Q1188.1752319335938 560.8895874023438 1188.1752319335938 382.08441162109375Q1188.1752319335938 257.68182373046875 1120.8570556640625 167.18182373046875Q1053.5388793945312 76.68182373046875 932.5616149902344 27.840911865234375Q811.5843505859375 -21 649.7986450195312 -21Z"/></g>
    <g transform="translate(1247, 0)"><path d="M425.2337646484375 -21Q263.6363525390625 -21 168.85064697265625 65.50973510742188Q74.06494140625 152.01947021484375 74.06494140625 300.78570556640625Q74.06494140625 453.55194091796875 197.90585327148438 549.2110290527344Q321.74676513671875 644.8701171875 560.5519409179688 644.8701171875H704.2013549804688V724.9610595703125Q704.2013549804688 802.6039428710938 658.5812072753906 851.3604431152344Q612.9610595703125 900.116943359375 522.2337646484375 900.116943359375Q475.207763671875 900.116943359375 437.8538513183594 888.552001953125Q400.49993896484375 876.987060546875 369.9869384765625 856.0065307617188L347.13629150390625 713.0260009765625H136.532470703125L133.44805908203125 993.7207641601562Q218.1688232421875 1041.6168823242188 317.3279113769531 1071.8084411621094Q416.48699951171875 1102 538.1882934570312 1102Q749.9934692382812 1102 873.0973510742188 1003.3733825683594Q996.2012329101562 904.7467651367188 996.2012329101562 721.727294921875V275.9869384765625Q996.2012329101562 253.753173828125 996.7012329101562 232.5194091796875Q997.2012329101562 211.28564453125 1000.4349975585938 191.28564453125L1112.8375854492188 174.73370361328125V0H751.4935302734375Q740.0260009765625 27.9610595703125 728.857177734375 59.87664794921875Q717.6883544921875 91.792236328125 713.2208251953125 123.70782470703125Q661.1558837890625 58.11041259765625 590.7695007324219 18.555206298828125Q520.3831176757812 -21 425.2337646484375 -21ZM502.96746826171875 195.20123291015625Q563.9545288085938 195.20123291015625 618.7370300292969 222.76943969726562Q673.51953125 250.337646484375 704.2013549804688 294.74676513671875V466.07147216796875H560.337646484375Q464.43499755859375 466.07147216796875 414.6330261230469 422.04547119140625Q364.8310546875 378.01947021484375 364.8310546875 315.9090576171875Q364.8310546875 258.48046875 401.428466796875 226.84085083007812Q438.02587890625 195.20123291015625 502.96746826171875 195.20123291015625Z"/></g>
    <g transform="translate(2401, 0)"><path d="M526.80517578125 -21Q406.08441162109375 -21 301.5227355957031 1.925323486328125Q196.9610595703125 24.85064697265625 101.06494140625 67.7662353515625L97.8311767578125 374.1168212890625H301.1168212890625L339.96746826171875 217.883056640625Q374.3765869140625 201.0518798828125 414.8473815917969 191.16876220703125Q455.31817626953125 181.28564453125 507.06494140625 181.28564453125Q605.4740600585938 181.28564453125 645.1364135742188 213.09735107421875Q684.7987670898438 244.9090576171875 684.7987670898438 292.55194091796875Q684.7987670898438 338.04547119140625 642.1688842773438 372.67535400390625Q599.5390014648438 407.30523681640625 473.259765625 432.7532958984375Q280.9610595703125 472.8182373046875 190.00326538085938 556.95458984375Q99.04547119140625 641.0909423828125 99.04547119140625 772.0260009765625Q99.04547119140625 861.8766479492188 144.4935302734375 936.0032653808594Q189.94158935546875 1010.1298828125 283.7175598144531 1055.1396179199219Q377.4935302734375 1100.1493530273438 522.5519409179688 1100.1493530273438Q644.93505859375 1100.1493530273438 746.6233520507812 1076.467529296875Q848.3116455078125 1052.7857055664062 917.012939453125 1015.0389404296875L920.2272338867188 719.3052368164062H717.9415893554688L687.1753540039062 860.8377075195312Q659.5779418945312 880.6688842773438 623.2987060546875 890.9675903320312Q587.0194702148438 901.2662963867188 541.0584106445312 901.2662963867188Q464.48046875 901.2662963867188 423.3278503417969 869.987060546875Q382.17523193359375 838.7078247070312 382.17523193359375 790.3636474609375Q382.17523193359375 762.2337646484375 396.8245849609375 737.93505859375Q411.47393798828125 713.6363525390625 454.15576171875 692.6785583496094Q496.83758544921875 671.7207641601562 579.2012329101562 652.80517578125Q779.9090576171875 607.207763671875 871.8765869140625 530.7597045898438Q963.8441162109375 454.3116455078125 963.8441162109375 316.42205810546875Q963.8441162109375 165.2337646484375 854.3246459960938 72.11688232421875Q744.80517578125 -21 526.80517578125 -21Z"/></g>
    <g transform="translate(3435, 0)"><path d="M47.14935302734375 0V174.73370361328125L187.94158935546875 205.20123291015625V1353.7987670898438L31.727294921875 1384.2662963867188V1560H478.70770263671875V944.1688232421875Q529.7726440429688 1019.0844116210938 605.220703125 1060.5422058105469Q680.6687622070312 1102 777.2012329101562 1102Q940.0973510742188 1102 1035.48046875 993.3733825683594Q1130.8635864257812 884.7467651367188 1130.8635864257812 658.259765625V205.20123291015625L1271.0389404296875 174.73370361328125V0H712.8766479492188V174.73370361328125L838.8637084960938 205.20123291015625V660.259765625Q838.8637084960938 776.987060546875 794.9351196289062 825.8734436035156Q751.0065307617188 874.7598266601562 666 874.7598266601562Q606.5908813476562 874.7598266601562 558.2889099121094 850.1396789550781Q509.9869384765625 825.51953125 478.70770263671875 778.6428833007812V205.20123291015625L604.6947631835938 174.73370361328125V0Z"/></g>
    <g transform="translate(4737, 0)"><path d="M425.2337646484375 -21Q263.6363525390625 -21 168.85064697265625 65.50973510742188Q74.06494140625 152.01947021484375 74.06494140625 300.78570556640625Q74.06494140625 453.55194091796875 197.90585327148438 549.2110290527344Q321.74676513671875 644.8701171875 560.5519409179688 644.8701171875H704.2013549804688V724.9610595703125Q704.2013549804688 802.6039428710938 658.5812072753906 851.3604431152344Q612.9610595703125 900.116943359375 522.2337646484375 900.116943359375Q475.207763671875 900.116943359375 437.8538513183594 888.552001953125Q400.49993896484375 876.987060546875 369.9869384765625 856.0065307617188L347.13629150390625 713.0260009765625H136.532470703125L133.44805908203125 993.7207641601562Q218.1688232421875 1041.6168823242188 317.3279113769531 1071.8084411621094Q416.48699951171875 1102 538.1882934570312 1102Q749.9934692382812 1102 873.0973510742188 1003.3733825683594Q996.2012329101562 904.7467651367188 996.2012329101562 721.727294921875V275.9869384765625Q996.2012329101562 253.753173828125 996.7012329101562 232.5194091796875Q997.2012329101562 211.28564453125 1000.4349975585938 191.28564453125L1112.8375854492188 174.73370361328125V0H751.4935302734375Q740.0260009765625 27.9610595703125 728.857177734375 59.87664794921875Q717.6883544921875 91.792236328125 713.2208251953125 123.70782470703125Q661.1558837890625 58.11041259765625 590.7695007324219 18.555206298828125Q520.3831176757812 -21 425.2337646484375 -21ZM502.96746826171875 195.20123291015625Q563.9545288085938 195.20123291015625 618.7370300292969 222.76943969726562Q673.51953125 250.337646484375 704.2013549804688 294.74676513671875V466.07147216796875H560.337646484375Q464.43499755859375 466.07147216796875 414.6330261230469 422.04547119140625Q364.8310546875 378.01947021484375 364.8310546875 315.9090576171875Q364.8310546875 258.48046875 401.428466796875 226.84085083007812Q438.02587890625 195.20123291015625 502.96746826171875 195.20123291015625Z"/></g>
    <g transform="translate(6393, 0)"><path d="M55.7532958984375 0V174.73370361328125L210.73382568359375 205.20123291015625V1249.7987670898438L55.7532958984375 1280.2662963867188V1456H210.73382568359375H642.7595825195312L1039.5843505859375 441.0648193359375H1045.5843505859375L1430.4935302734375 1456H2017.5452880859375V1280.2662963867188L1861.9478759765625 1249.7987670898438V205.20123291015625L2017.5452880859375 174.73370361328125V0H1414.9674682617188V174.73370361328125L1577.7142333984375 205.20123291015625V484.08453369140625L1582.6492919921875 1140.7338256835938L1577.0324096679688 1141.7338256835938L1141.6622314453125 19.922119140625H921.2142944335938L476.012939453125 1132.9481201171875L469.7791748046875 1131.9481201171875L487.26617431640625 513.6948852539062V205.20123291015625L658.947998046875 174.73370361328125V0Z"/></g>
    <g transform="translate(8459, 0)"><path d="M54.04547119140625 0V174.73370361328125L194.83770751953125 205.20123291015625V875.7987670898438L39.24029541015625 906.2662963867188V1082H486.83758544921875V205.20123291015625L627.012939453125 174.73370361328125V0ZM184.83770751953125 1310.7532958984375V1560H486.83758544921875V1310.7532958984375Z"/></g>
    <g transform="translate(9120, 0)"><path d="M84.95452880859375 0V174.73370361328125L225.1298828125 205.20123291015625V875.7987670898438L70.14935302734375 906.2662963867188V1082H496.74664306640625L508.1947021484375 947.7012939453125L510.1947021484375 923.7662353515625Q550.02587890625 1012.3181762695312 608.8895263671875 1057.1590881347656Q667.753173828125 1102 750.4349975585938 1102Q775.883056640625 1102 806.8408508300781 1097.7337646484375Q837.7986450195312 1093.467529296875 862.28564453125 1086L830.7337036132812 817.2533569335938L685.7142333984375 824.636474609375Q623.753173828125 827.7858276367188 585.2499084472656 803.941650390625Q546.7466430664062 780.0974731445312 517.1297607421875 734.922119140625V205.20123291015625L657.3051147460938 174.73370361328125V0Z"/></g>
    <g transform="translate(10006, 0)"><path d="M581.1882934570312 -21Q425.6363525390625 -21 310.0097351074219 47.5Q194.38311767578125 116 130.7987060546875 236.14935302734375Q67.21429443359375 356.2987060546875 67.21429443359375 510.1298828125V549.8117065429688Q67.21429443359375 710.597412109375 127.32144165039062 835.1818237304688Q187.4285888671875 959.7662353515625 296.9383239746094 1030.8831176757812Q406.44805908203125 1102 554.8895874023438 1102Q701.5064697265625 1102 801.8571166992188 1044.1590881347656Q902.207763671875 986.3181762695312 954.0584106445312 877.2012939453125Q1005.9090576171875 768.0844116210938 1005.9090576171875 613.06494140625V454.2857666015625H369.91546630859375L368.14923095703125 448.052001953125Q373.85052490234375 376.74676513671875 403.41546630859375 321.5389404296875Q432.98040771484375 266.33111572265625 486.87652587890625 234.5194091796875Q540.7726440429688 202.70770263671875 618.2012329101562 202.70770263671875Q698.4609985351562 202.70770263671875 767.7921752929688 223.188232421875Q837.1233520507812 243.66876220703125 903.2272338867188 283.79864501953125L982.077880859375 103.98052978515625Q914.8246459960938 50.44805908203125 813.4642639160156 14.724029541015625Q712.1038818359375 -21 581.1882934570312 -21ZM372.21417236328125 647.1493530273438H733.0325317382812V673.1493530273438Q733.0325317382812 738.8117065429688 715.4026489257812 786.4318542480469Q697.7727661132812 834.052001953125 659.6201477050781 859.9903259277344Q621.467529296875 885.9286499023438 559.8246459960938 885.9286499023438Q501.8441162109375 885.9286499023438 461.7239685058594 855.4481201171875Q421.60382080078125 824.9675903320312 399.2499084472656 772.2305603027344Q376.89599609375 719.4935302734375 368.98040771484375 652.1493530273438Z"/></g>
    <g transform="translate(11084, 0)"><path d="M46.727294921875 0V174.73370361328125L188.13641357421875 205.20123291015625V1353.7987670898438L31.922119140625 1384.2662963867188V1560H480.13629150390625V205.20123291015625L620.9285278320312 174.73370361328125V0Z"/></g>
    <g transform="translate(11737, 0)"><path d="M581.1882934570312 -21Q425.6363525390625 -21 310.0097351074219 47.5Q194.38311767578125 116 130.7987060546875 236.14935302734375Q67.21429443359375 356.2987060546875 67.21429443359375 510.1298828125V549.8117065429688Q67.21429443359375 710.597412109375 127.32144165039062 835.1818237304688Q187.4285888671875 959.7662353515625 296.9383239746094 1030.8831176757812Q406.44805908203125 1102 554.8895874023438 1102Q701.5064697265625 1102 801.8571166992188 1044.1590881347656Q902.207763671875 986.3181762695312 954.0584106445312 877.2012939453125Q1005.9090576171875 768.0844116210938 1005.9090576171875 613.06494140625V454.2857666015625H369.91546630859375L368.14923095703125 448.052001953125Q373.85052490234375 376.74676513671875 403.41546630859375 321.5389404296875Q432.98040771484375 266.33111572265625 486.87652587890625 234.5194091796875Q540.7726440429688 202.70770263671875 618.2012329101562 202.70770263671875Q698.4609985351562 202.70770263671875 767.7921752929688 223.188232421875Q837.1233520507812 243.66876220703125 903.2272338867188 283.79864501953125L982.077880859375 103.98052978515625Q914.8246459960938 50.44805908203125 813.4642639160156 14.724029541015625Q712.1038818359375 -21 581.1882934570312 -21ZM372.21417236328125 647.1493530273438H733.0325317382812V673.1493530273438Q733.0325317382812 738.8117065429688 715.4026489257812 786.4318542480469Q697.7727661132812 834.052001953125 659.6201477050781 859.9903259277344Q621.467529296875 885.9286499023438 559.8246459960938 885.9286499023438Q501.8441162109375 885.9286499023438 461.7239685058594 855.4481201171875Q421.60382080078125 824.9675903320312 399.2499084472656 772.2305603027344Q376.89599609375 719.4935302734375 368.98040771484375 652.1493530273438Z"/></g>
    <g transform="translate(12815, 0)"><path d="M526.80517578125 -21Q406.08441162109375 -21 301.5227355957031 1.925323486328125Q196.9610595703125 24.85064697265625 101.06494140625 67.7662353515625L97.8311767578125 374.1168212890625H301.1168212890625L339.96746826171875 217.883056640625Q374.3765869140625 201.0518798828125 414.8473815917969 191.16876220703125Q455.31817626953125 181.28564453125 507.06494140625 181.28564453125Q605.4740600585938 181.28564453125 645.1364135742188 213.09735107421875Q684.7987670898438 244.9090576171875 684.7987670898438 292.55194091796875Q684.7987670898438 338.04547119140625 642.1688842773438 372.67535400390625Q599.5390014648438 407.30523681640625 473.259765625 432.7532958984375Q280.9610595703125 472.8182373046875 190.00326538085938 556.95458984375Q99.04547119140625 641.0909423828125 99.04547119140625 772.0260009765625Q99.04547119140625 861.8766479492188 144.4935302734375 936.0032653808594Q189.94158935546875 1010.1298828125 283.7175598144531 1055.1396179199219Q377.4935302734375 1100.1493530273438 522.5519409179688 1100.1493530273438Q644.93505859375 1100.1493530273438 746.6233520507812 1076.467529296875Q848.3116455078125 1052.7857055664062 917.012939453125 1015.0389404296875L920.2272338867188 719.3052368164062H717.9415893554688L687.1753540039062 860.8377075195312Q659.5779418945312 880.6688842773438 623.2987060546875 890.9675903320312Q587.0194702148438 901.2662963867188 541.0584106445312 901.2662963867188Q464.48046875 901.2662963867188 423.3278503417969 869.987060546875Q382.17523193359375 838.7078247070312 382.17523193359375 790.3636474609375Q382.17523193359375 762.2337646484375 396.8245849609375 737.93505859375Q411.47393798828125 713.6363525390625 454.15576171875 692.6785583496094Q496.83758544921875 671.7207641601562 579.2012329101562 652.80517578125Q779.9090576171875 607.207763671875 871.8765869140625 530.7597045898438Q963.8441162109375 454.3116455078125 963.8441162109375 316.42205810546875Q963.8441162109375 165.2337646484375 854.3246459960938 72.11688232421875Q744.80517578125 -21 526.80517578125 -21Z"/></g>
  </g>
</svg>