<?xml version="1.0" encoding="UTF-8"?>
<svg xmlns="http://www.w3.org/2000/svg" viewBox="0 0 212.0 18" 
     width="212.0" height="18">
  <g transform="translate(0, 15.299999999999999) scale(0.0087890625, -0.0087890625)" fill="#000">
    <g transform="translate(0, 0)"><path d="M391.26629638671875 0V174.73370361328125L547.4805908203125 205.20123291015625V1231.1234741210938H282.25323486328125L265.59088134765625 1056.8831787109375H45.4156494140625V1456H1343.6298217773438V1056.8831787109375H1122.3701782226562L1105.9415893554688 1231.1234741210938H839.48046875V205.20123291015625L995.6947631835938 174.73370361328125V0Z"/></g>
    <g transform="translate(1389, 0)"><path d="M55.70782470703125 0V174.73370361328125L211.30523681640625 205.20123291015625V1249.7987670898438L55.70782470703125 1280.2662963867188V1456H1186.142822265625V1062.8182373046875H962.1364135742188L948.7727661132812 1231.2078857421875H503.30511474609375V865.1622924804688H995.8895874023438V639.8377075195312H503.30511474609375V223.87652587890625H972.7532958984375L986.116943359375 397.73370361328125H1207.8895874023438V0Z"/></g>
    <g transform="translate(2697, 0)"><path d="M35.58447265625 0V174.73370361328125L163.43511962890625 199.20123291015625L574.9546508789062 721.1104125976562L186.56500244140625 1255.181884765625L68.8182373046875 1280.2662963867188V1456H637.6687622070312V1280.2662963867188L498.818115234375 1267.2662963867188L749.259765625 916.9674682617188L998.506591796875 1267.2662963867188L862.8247680664062 1280.2662963867188V1456H1423.5714111328125V1280.2662963867188L1294.8895874023438 1255.181884765625L922.0973510742188 747.0194702148438L1340.3571166992188 199.818115234375L1478.6103515625 174.73370361328125V0H895.7403564453125V174.73370361328125L1021.3182983398438 187.1168212890625L750.9610595703125 557.0974731445312L475.43499755859375 187.1168212890625L597.3311157226562 174.73370361328125V0Z"/></g>
    <g transform="translate(4211, 0)"><path d="M391.26629638671875 0V174.73370361328125L547.4805908203125 205.20123291015625V1231.1234741210938H282.25323486328125L265.59088134765625 1056.8831787109375H45.4156494140625V1456H1343.6298217773438V1056.8831787109375H1122.3701782226562L1105.9415893554688 1231.1234741210938H839.48046875V205.20123291015625L995.6947631835938 174.73370361328125V0Z"/></g>
    <g transform="translate(5600, 0)"><path d="M55.70782470703125 0V174.73370361328125L211.30523681640625 205.20123291015625V1249.7987670898438L55.70782470703125 1280.2662963867188V1456H211.30523681640625H702.8311767578125Q959.8246459960938 1456 1104.0551452636719 1355.9577941894531Q1248.28564453125 1255.9155883789062 1248.28564453125 1057.06494140625Q1248.28564453125 956.3636474609375 1194.4966735839844 876.7792358398438Q1140.7077026367188 797.19482421875 1039.0908203125 757.1104125976562Q1126.4739379882812 738.4935302734375 1184.5388793945312 690.3117065429688Q1242.6038208007812 642.1298828125 1271.8603210449219 573.4155883789062Q1301.1168212890625 504.7012939453125 1301.1168212890625 423.95452880859375Q1301.1168212890625 215.31817626953125 1163.0973510742188 107.65908813476562Q1025.077880859375 0 772.2337646484375 0ZM503.30511474609375 223.70770263671875H772.2337646484375Q888.1104125976562 223.70770263671875 949.0390014648438 274.4772033691406Q1009.9675903320312 325.2467041015625 1009.9675903320312 423.80517578125Q1009.9675903320312 530.8311767578125 957.95458984375 587.4837951660156Q905.9415893554688 644.1364135742188 794.2142944335938 644.1364135742188H503.30511474609375ZM503.30511474609375 846.2532348632812H713.116943359375Q830.2208251953125 846.2532348632812 893.2532958984375 894.1818237304688Q956.2857666015625 942.1104125976562 956.2857666015625 1033.922119140625Q956.2857666015625 1135.2662963867188 892.4643249511719 1183.279296875Q828.6428833007812 1231.2922973632812 702.8311767578125 1231.2922973632812H503.30511474609375Z"/></g>
    <g transform="translate(6944, 0)"><path d="M723.1168212890625 -21Q575.947998046875 -21 455.0032043457031 33.925323486328125Q334.05841064453125 88.85064697265625 246.61361694335938 188.27597045898438Q159.1688232421875 287.7012939453125 112.11688232421875 422.3928527832031Q65.06494140625 557.0844116210938 65.06494140625 717V739.2337646484375Q65.06494140625 898.1493530273438 112.11688232421875 1032.7240295410156Q159.1688232421875 1167.2987060546875 246.30517578125 1266.9155883789062Q333.4415283203125 1366.532470703125 454.077880859375 1421.7662353515625Q574.7142333984375 1477 721.883056640625 1477Q870.2661743164062 1477 991.9025268554688 1421.7662353515625Q1113.5388793945312 1366.532470703125 1201.7596435546875 1266.9155883789062Q1289.9804077148438 1167.2987060546875 1337.6167602539062 1032.7240295410156Q1385.2531127929688 898.1493530273438 1385.2531127929688 739.2337646484375V717Q1385.2531127929688 557.0844116210938 1337.6167602539062 422.3928527832031Q1289.9804077148438 287.7012939453125 1202.0680847167969 188.27597045898438Q1114.15576171875 88.85064697265625 992.5194091796875 33.925323486328125Q870.883056640625 -21 723.1168212890625 -21ZM723.1168212890625 205.9219970703125Q846.5259399414062 205.9219970703125 928.9317932128906 269.90252685546875Q1011.337646484375 333.883056640625 1052.7207641601562 448.8863220214844Q1094.1038818359375 563.8895874023438 1094.1038818359375 717V741.2337646484375Q1094.1038818359375 892.1104125976562 1052.2207641601562 1006.422119140625Q1010.337646484375 1120.7338256835938 927.740234375 1184.9059143066406Q845.142822265625 1249.0780029296875 721.883056640625 1249.0780029296875Q599.5194091796875 1249.0780029296875 518.6979675292969 1185.3312377929688Q437.87652587890625 1121.58447265625 397.6622314453125 1007.5812072753906Q357.44793701171875 893.5779418945312 357.44793701171875 741.2337646484375V717Q357.44793701171875 564.272705078125 397.9706726074219 448.96099853515625Q438.493408203125 333.6492919921875 519.9317321777344 269.78564453125Q601.3700561523438 205.9219970703125 723.1168212890625 205.9219970703125Z"/></g>
    <g transform="translate(8390, 0)"><path d="M723.1168212890625 -21Q575.947998046875 -21 455.0032043457031 33.925323486328125Q334.05841064453125 88.85064697265625 246.61361694335938 188.27597045898438Q159.1688232421875 287.7012939453125 112.11688232421875 422.3928527832031Q65.06494140625 557.0844116210938 65.06494140625 717V739.2337646484375Q65.06494140625 898.1493530273438 112.11688232421875 1032.7240295410156Q159.1688232421875 1167.2987060546875 246.30517578125 1266.9155883789062Q333.4415283203125 1366.532470703125 454.077880859375 1421.7662353515625Q574.7142333984375 1477 721.883056640625 1477Q870.2661743164062 1477 991.9025268554688 1421.7662353515625Q1113.5388793945312 1366.532470703125 1201.7596435546875 1266.9155883789062Q1289.9804077148438 1167.2987060546875 1337.6167602539062 1032.7240295410156Q1385.2531127929688 898.1493530273438 1385.2531127929688 739.2337646484375V717Q1385.2531127929688 557.0844116210938 1337.6167602539062 422.3928527832031Q1289.9804077148438 287.7012939453125 1202.0680847167969 188.27597045898438Q1114.15576171875 88.85064697265625 992.5194091796875 33.925323486328125Q870.883056640625 -21 723.1168212890625 -21ZM723.1168212890625 205.9219970703125Q846.5259399414062 205.9219970703125 928.9317932128906 269.90252685546875Q1011.337646484375 333.883056640625 1052.7207641601562 448.8863220214844Q1094.1038818359375 563.8895874023438 1094.1038818359375 717V741.2337646484375Q1094.1038818359375 892.1104125976562 1052.2207641601562 1006.422119140625Q1010.337646484375 1120.7338256835938 927.740234375 1184.9059143066406Q845.142822265625 1249.0780029296875 721.883056640625 1249.0780029296875Q599.5194091796875 1249.0780029296875 518.6979675292969 1185.3312377929688Q437.87652587890625 1121.58447265625 397.6622314453125 1007.5812072753906Q357.44793701171875 893.5779418945312 357.44793701171875 741.2337646484375V717Q357.44793701171875 564.272705078125 397.9706726074219 448.96099853515625Q438.493408203125 333.6492919921875 519.9317321777344 269.78564453125Q601.3700561523438 205.9219970703125 723.1168212890625 205.9219970703125Z"/></g>
    <g transform="translate(9836, 0)"><path d="M441.80517578125 356.84423828125 291.1558837890625 530.0454711914062 1003.7467651367188 1264.9675903320312 1005.8961181640625 1268.116943359375 862.3507080078125 1280.2662963867188V1456H1460.7466430664062V1280.2662963867188L1323.7466430664062 1252.7987670898438ZM55.70782470703125 0V174.73370361328125L211.30523681640625 205.20123291015625V1249.7987670898438L55.70782470703125 1280.2662963867188V1456H650.883056640625V1280.2662963867188L503.30511474609375 1249.7987670898438V205.20123291015625L650.883056640625 174.73370361328125V0ZM894.116943359375 0V174.73370361328125L1030.1558837890625 186.883056640625L1031.0065307617188 187.26617431640625L660.7012939453125 696.9155883789062L853.9804077148438 890.1622924804688L1370.1102905273438 199.73370361328125L1513.363525390625 174.73370361328125V0Z"/></g>
    <g transform="translate(11883, 0)"><path d="M55.70782470703125 0V174.73370361328125L211.30523681640625 205.20123291015625V1249.7987670898438L55.70782470703125 1280.2662963867188V1456.2337646484375H746.0389404296875Q913.67529296875 1456.2337646484375 1033.9707336425781 1404.1071472167969Q1154.2661743164062 1351.9805297851562 1218.6687622070312 1254.8863830566406Q1283.0713500976562 1157.792236328125 1283.0713500976562 1022.2402954101562Q1283.0713500976562 894.2402954101562 1218.9349975585938 793.052001953125Q1154.7986450195312 691.8637084960938 1041.077880859375 633.7922973632812Q927.3571166992188 575.7208862304688 778.1038818359375 575.1884155273438L503.30511474609375 574.7403564453125V205.20123291015625L658.9025268554688 174.73370361328125V0ZM992.6494140625 0 747.6103515625 628.9157104492188 1011.233642578125 693.8377075195312 1223.48046875 203.753173828125 1347.3051147460938 175.26617431640625V0ZM503.30511474609375 800.06494140625H740.8441162109375Q866.9805297851562 800.06494140625 929.6428833007812 853.5032653808594Q992.3052368164062 906.9415893554688 992.3052368164062 1008.8182373046875Q992.3052368164062 1110.246826171875 930.1753540039062 1170.7695617675781Q868.0454711914062 1231.2922973632812 746.0389404296875 1231.2922973632812H503.30511474609375Z"/></g>
    <g transform="translate(13291, 0)"><path d="M55.70782470703125 0V174.73370361328125L211.30523681640625 205.20123291015625V1249.7987670898438L55.70782470703125 1280.2662963867188V1456H1186.142822265625V1062.8182373046875H962.1364135742188L948.7727661132812 1231.2078857421875H503.30511474609375V865.1622924804688H995.8895874023438V639.8377075195312H503.30511474609375V223.87652587890625H972.7532958984375L986.116943359375 397.73370361328125H1207.8895874023438V0Z"/></g>
    <g transform="translate(14599, 0)"><path d="M55.70782470703125 0V174.73370361328125L211.30523681640625 205.20123291015625V1249.7987670898438L55.70782470703125 1280.2662963867188V1456H1214.8635864257812V1057.2662963867188H990.857177734375L978.1104125976562 1230.8247680664062H503.30511474609375V829.8441162109375H1012.8635864257812V605.1364135742188H503.30511474609375V205.20123291015625L658.9025268554688 174.73370361328125V0Z"/></g>
    <g transform="translate(15864, 0)"><path d="M55.70782470703125 0V174.73370361328125L211.30523681640625 205.20123291015625V1249.7987670898438L55.70782470703125 1280.2662963867188V1456H1186.142822265625V1062.8182373046875H962.1364135742188L948.7727661132812 1231.2078857421875H503.30511474609375V865.1622924804688H995.8895874023438V639.8377075195312H503.30511474609375V223.87652587890625H972.7532958984375L986.116943359375 397.73370361328125H1207.8895874023438V0Z"/></g>
    <g transform="translate(17172, 0)"><path d="M55.70782470703125 0V174.73370361328125L211.30523681640625 205.20123291015625V1249.7987670898438L55.70782470703125 1280.2662963867188V1456.2337646484375H746.0389404296875Q913.67529296875 1456.2337646484375 1033.9707336425781 1404.1071472167969Q1154.2661743164062 1351.9805297851562 1218.6687622070312 1254.8863830566406Q1283.0713500976562 1157.792236328125 1283.0713500976562 1022.2402954101562Q1283.0713500976562 894.2402954101562 1218.9349975585938 793.052001953125Q1154.7986450195312 691.8637084960938 1041.077880859375 633.7922973632812Q927.3571166992188 575.7208862304688 778.1038818359375 575.1884155273438L503.30511474609375 574.7403564453125V205.20123291015625L658.9025268554688 174.73370361328125V0ZM992.6494140625 0 747.6103515625 628.9157104492188 1011.233642578125 693.8377075195312 1223.48046875 203.753173828125 1347.3051147460938 175.26617431640625V0ZM503.30511474609375 800.06494140625H740.8441162109375Q866.9805297851562 800.06494140625 929.6428833007812 853.5032653808594Q992.3052368164062 906.9415893554688 992.3052368164062 1008.8182373046875Q992.3052368164062 1110.246826171875 930.1753540039062 1170.7695617675781Q868.0454711914062 1231.2922973632812 746.0389404296875 1231.2922973632812H503.30511474609375Z"/></g>
    <g transform="translate(18580, 0)"><path d="M55.70782470703125 0V174.73370361328125L211.30523681640625 205.20123291015625V1249.7987670898438L55.70782470703125 1280.2662963867188V1456H1186.142822265625V1062.8182373046875H962.1364135742188L948.7727661132812 1231.2078857421875H503.30511474609375V865.1622924804688H995.8895874023438V639.8377075195312H503.30511474609375V223.87652587890625H972.7532958984375L986.116943359375 397.73370361328125H1207.8895874023438V0Z"/></g>
    <g transform="translate(19888, 0)"><path d="M55.857177734375 0V174.73370361328125L210.83770751953125 205.20123291015625V1249.7987670898438L55.857177734375 1280.2662963867188V1456H210.83770751953125H507.30511474609375L1141.1104125976562 446.22711181640625L1147.1104125976562 446.99334716796875V1249.7987670898438L960.7078247070312 1280.2662963867188V1456H1408.3051147460938H1563.9025268554688V1280.2662963867188L1408.3051147460938 1249.7987670898438V0H1125.9026489257812L478.03240966796875 999.7339477539062L472.03240966796875 998.9677124023438V205.20123291015625L659.0518798828125 174.73370361328125V0Z"/></g>
    <g transform="translate(21492, 0)"><path d="M748.8701171875 -21Q536.6558227539062 -21 379.9772644042969 67.597412109375Q223.2987060546875 156.19482421875 137.76950073242188 318.5682067871094Q52.24029541015625 480.94158935546875 52.24029541015625 702.8117065429688V752.1882934570312Q52.24029541015625 963.7207641601562 134.48379516601562 1127.1363525390625Q216.727294921875 1290.5519409179688 369.6720886230469 1383.7759704589844Q522.6168823242188 1477 733.7207641601562 1477Q881.5064697265625 1477 1011.1525573730469 1435.1590881347656Q1140.7986450195312 1393.3181762695312 1243.0908203125 1306.8117065429688V955.181884765625H1025.6363525390625L996 1175.9286499023438Q962.7662353515625 1199.6948852539062 923.7337646484375 1216.6948852539062Q884.7012939453125 1233.6948852539062 839.1363525390625 1242.6948852539062Q793.5714111328125 1251.6948852539062 740.740234375 1251.6948852539062Q617.48046875 1251.6948852539062 528.3505859375 1190.8409729003906Q439.220703125 1129.987060546875 391.6135559082031 1018.5682067871094Q344.00640869140625 907.1493530273438 344.00640869140625 754.1882934570312V702.8117065429688Q344.00640869140625 550.0389404296875 393.8797912597656 437.8116455078125Q443.753173828125 325.5843505859375 535.91552734375 264.37005615234375Q628.077880859375 203.15576171875 754.0194702148438 203.15576171875Q817.2337646484375 203.15576171875 880.532470703125 217.37979125976562Q943.8311767578125 231.60382080078125 995.8506469726562 254.90252685546875L1025.8701171875 459.753173828125H1242.7921142578125V112.29217529296875Q1157.7077026367188 55.740234375 1030.753173828125 17.3701171875Q903.7986450195312 -21 748.8701171875 -21Z"/></g>
    <g transform="translate(22813, 0)"><path d="M55.70782470703125 0V174.73370361328125L211.30523681640625 205.20123291015625V1249.7987670898438L55.70782470703125 1280.2662963867188V1456H1186.142822265625V1062.8182373046875H962.1364135742188L948.7727661132812 1231.2078857421875H503.30511474609375V865.1622924804688H995.8895874023438V639.8377075195312H503.30511474609375V223.87652587890625H972.7532958984375L986.116943359375 397.73370361328125H1207.8895874023438V0Z"/></g>
  </g>
</svg>