<?xml version="1.0" encoding="UTF-8"?>
<svg xmlns="http://www.w3.org/2000/svg" viewBox="0 0 223.1 18" 
     width="223.1" height="18">
  <g transform="translate(0, 15.299999999999999) scale(0.0087890625, -0.0087890625)" fill="#000">
    <g transform="translate(0, 0)"><path d="M391.26629638671875 0V174.73370361328125L547.4805908203125 205.20123291015625V1231.1234741210938H282.25323486328125L265.59088134765625 1056.8831787109375H45.4156494140625V1456H1343.6298217773438V1056.8831787109375H1122.3701782226562L1105.9415893554688 1231.1234741210938H839.48046875V205.20123291015625L995.6947631835938 174.73370361328125V0Z"/></g>
    <g transform="translate(1389, 0)"><path d="M581.1882934570312 -21Q425.6363525390625 -21 310.0097351074219 47.5Q194.38311767578125 116 130.7987060546875 236.14935302734375Q67.21429443359375 356.2987060546875 67.21429443359375 510.1298828125V549.8117065429688Q67.21429443359375 710.597412109375 127.32144165039062 835.1818237304688Q187.4285888671875 959.7662353515625 296.9383239746094 1030.8831176757812Q406.44805908203125 1102 554.8895874023438 1102Q701.5064697265625 1102 801.8571166992188 1044.1590881347656Q902.207763671875 986.3181762695312 954.0584106445312 877.2012939453125Q1005.9090576171875 768.0844116210938 1005.9090576171875 613.06494140625V454.2857666015625H369.91546630859375L368.14923095703125 448.052001953125Q373.85052490234375 376.74676513671875 403.41546630859375 321.5389404296875Q432.98040771484375 266.33111572265625 486.87652587890625 234.5194091796875Q540.7726440429688 202.70770263671875 618.2012329101562 202.70770263671875Q698.4609985351562 202.70770263671875 767.7921752929688 223.188232421875Q837.1233520507812 243.66876220703125 903.2272338867188 283.79864501953125L982.077880859375 103.98052978515625Q914.8246459960938 50.44805908203125 813.4642639160156 14.724029541015625Q712.1038818359375 -21 581.1882934570312 -21ZM372.21417236328125 647.1493530273438H733.0325317382812V673.1493530273438Q733.0325317382812 738.8117065429688 715.4026489257812 786.4318542480469Q697.7727661132812 834.052001953125 659.6201477050781 859.9903259277344Q621.467529296875 885.9286499023438 559.8246459960938 885.9286499023438Q501.8441162109375 885.9286499023438 461.7239685058594 855.4481201171875Q421.60382080078125 824.9675903320312 399.2499084472656 772.2305603027344Q376.89599609375 719.4935302734375 368.98040771484375 652.1493530273438Z"/></g>
    <g transform="translate(2467, 0)"><path d="M84.95452880859375 0V174.73370361328125L225.1298828125 205.20123291015625V875.7987670898438L70.14935302734375 906.2662963867188V1082H496.74664306640625L508.1947021484375 947.7012939453125L510.1947021484375 923.7662353515625Q550.02587890625 1012.3181762695312 608.8895263671875 1057.1590881347656Q667.753173828125 1102 750.4349975585938 1102Q775.883056640625 1102 806.8408508300781 1097.7337646484375Q837.7986450195312 1093.467529296875 862.28564453125 1086L830.7337036132812 817.2533569335938L685.7142333984375 824.636474609375Q623.753173828125 827.7858276367188 585.2499084472656 803.941650390625Q546.7466430664062 780.0974731445312 517.1297607421875 734.922119140625V205.20123291015625L657.3051147460938 174.73370361328125V0Z"/></g>
    <g transform="translate(3353, 0)"><path d="M84.95452880859375 0V174.73370361328125L225.1298828125 205.20123291015625V875.7987670898438L70.14935302734375 906.2662963867188V1082H496.74664306640625L508.1947021484375 947.7012939453125L510.1947021484375 923.7662353515625Q550.02587890625 1012.3181762695312 608.8895263671875 1057.1590881347656Q667.753173828125 1102 750.4349975585938 1102Q775.883056640625 1102 806.8408508300781 1097.7337646484375Q837.7986450195312 1093.467529296875 862.28564453125 1086L830.7337036132812 817.2533569335938L685.7142333984375 824.636474609375Q623.753173828125 827.7858276367188 585.2499084472656 803.941650390625Q546.7466430664062 780.0974731445312 517.1297607421875 734.922119140625V205.20123291015625L657.3051147460938 174.73370361328125V0Z"/></g>
    <g transform="translate(4239, 0)"><path d="M581.1882934570312 -21Q425.6363525390625 -21 310.0097351074219 47.5Q194.38311767578125 116 130.7987060546875 236.14935302734375Q67.21429443359375 356.2987060546875 67.21429443359375 510.1298828125V549.8117065429688Q67.21429443359375 710.597412109375 127.32144165039062 835.1818237304688Q187.4285888671875 959.7662353515625 296.9383239746094 1030.8831176757812Q406.44805908203125 1102 554.8895874023438 1102Q701.5064697265625 1102 801.8571166992188 1044.1590881347656Q902.207763671875 986.3181762695312 954.0584106445312 877.2012939453125Q1005.9090576171875 768.0844116210938 1005.9090576171875 613.06494140625V454.2857666015625H369.91546630859375L368.14923095703125 448.052001953125Q373.85052490234375 376.74676513671875 403.41546630859375 321.5389404296875Q432.98040771484375 266.33111572265625 486.87652587890625 234.5194091796875Q540.7726440429688 202.70770263671875 618.2012329101562 202.70770263671875Q698.4609985351562 202.70770263671875 767.7921752929688 223.188232421875Q837.1233520507812 243.66876220703125 903.2272338867188 283.79864501953125L982.077880859375 103.98052978515625Q914.8246459960938 50.44805908203125 813.4642639160156 14.724029541015625Q712.1038818359375 -21 581.1882934570312 -21ZM372.21417236328125 647.1493530273438H733.0325317382812V673.1493530273438Q733.0325317382812 738.8117065429688 715.4026489257812 786.4318542480469Q697.7727661132812 834.052001953125 659.6201477050781 859.9903259277344Q621.467529296875 885.9286499023438 559.8246459960938 885.9286499023438Q501.8441162109375 885.9286499023438 461.7239685058594 855.4481201171875Q421.60382080078125 824.9675903320312 399.2499084472656 772.2305603027344Q376.89599609375 719.4935302734375 368.98040771484375 652.1493530273438Z"/></g>
    <g transform="translate(5317, 0)"><path d="M51.792236328125 0V174.73370361328125L191.96759033203125 205.20123291015625V875.7987670898438L36.987060546875 906.2662963867188V1082H464.20123291015625L476.96746826171875 927.1688232421875Q530.9674682617188 1010.0844116210938 610.6168212890625 1056.0422058105469Q690.2661743164062 1102 791.7986450195312 1102Q952.6103515625 1102 1043.67529296875 999.1915588378906Q1134.740234375 896.3831176757812 1134.740234375 676.2142944335938V205.20123291015625L1274.9155883789062 174.73370361328125V0H716.7532958984375V174.73370361328125L842.1234741210938 205.20123291015625V675.2987060546875Q842.1234741210938 783.7532958984375 798.8864440917969 829.2565612792969Q755.6494140625 874.7598266601562 671.1104125976562 874.7598266601562Q608.3181762695312 874.7598266601562 561.6330871582031 848.2565612792969Q514.947998046875 821.7532958984375 483.96746826171875 772.9610595703125V205.20123291015625L601.93505859375 174.73370361328125V0Z"/></g>
    <g transform="translate(6624, 0)"><path d="M571.6363525390625 -21Q416 -21 302.68182373046875 49.042205810546875Q189.3636474609375 119.08441162109375 128.1298828125 242.31817626953125Q66.8961181640625 365.55194091796875 66.8961181640625 524.93505859375V555.2142944335938Q66.8961181640625 714.7662353515625 128.90585327148438 838.0Q190.91558837890625 961.2337646484375 303.9253234863281 1031.6168823242188Q416.93505859375 1102 569.7857055664062 1102Q715.5908813476562 1102 821.4934692382812 1056.532470703125Q927.3960571289062 1011.06494140625 992.54541015625 950.8701171875L990.7597045898438 640.9026489257812H770.7532958984375L731.8182373046875 834.2208251953125Q708.3052368164062 858.116943359375 671.1850891113281 872.9481201171875Q634.06494140625 887.779296875 595.9090576171875 887.779296875Q515.9285278320312 887.779296875 463.3083801269531 847.8085021972656Q410.688232421875 807.8377075195312 384.7921142578125 733.792236328125Q358.89599609375 659.7467651367188 358.89599609375 555.2142944335938V524.93505859375Q358.89599609375 413.72076416015625 387.84405517578125 342.4512634277344Q416.7921142578125 271.1817626953125 465.5616149902344 236.94473266601562Q514.3311157226562 202.70770263671875 573.7207641601562 202.70770263671875Q650.8961181640625 202.70770263671875 697.4643249511719 243.21096801757812Q744.0325317382812 283.7142333984375 761.5000610351562 358.12335205078125H1010.67529296875L1013.9090576171875 352.12335205078125Q997.1882934570312 236.91558837890625 946.5714111328125 153.13961791992188Q895.9545288085938 69.3636474609375 804.6882934570312 24.18182373046875Q713.4220581054688 -21 571.6363525390625 -21Z"/></g>
    <g transform="translate(7706, 0)"><path d="M581.1882934570312 -21Q425.6363525390625 -21 310.0097351074219 47.5Q194.38311767578125 116 130.7987060546875 236.14935302734375Q67.21429443359375 356.2987060546875 67.21429443359375 510.1298828125V549.8117065429688Q67.21429443359375 710.597412109375 127.32144165039062 835.1818237304688Q187.4285888671875 959.7662353515625 296.9383239746094 1030.8831176757812Q406.44805908203125 1102 554.8895874023438 1102Q701.5064697265625 1102 801.8571166992188 1044.1590881347656Q902.207763671875 986.3181762695312 954.0584106445312 877.2012939453125Q1005.9090576171875 768.0844116210938 1005.9090576171875 613.06494140625V454.2857666015625H369.91546630859375L368.14923095703125 448.052001953125Q373.85052490234375 376.74676513671875 403.41546630859375 321.5389404296875Q432.98040771484375 266.33111572265625 486.87652587890625 234.5194091796875Q540.7726440429688 202.70770263671875 618.2012329101562 202.70770263671875Q698.4609985351562 202.70770263671875 767.7921752929688 223.188232421875Q837.1233520507812 243.66876220703125 903.2272338867188 283.79864501953125L982.077880859375 103.98052978515625Q914.8246459960938 50.44805908203125 813.4642639160156 14.724029541015625Q712.1038818359375 -21 581.1882934570312 -21ZM372.21417236328125 647.1493530273438H733.0325317382812V673.1493530273438Q733.0325317382812 738.8117065429688 715.4026489257812 786.4318542480469Q697.7727661132812 834.052001953125 659.6201477050781 859.9903259277344Q621.467529296875 885.9286499023438 559.8246459960938 885.9286499023438Q501.8441162109375 885.9286499023438 461.7239685058594 855.4481201171875Q421.60382080078125 824.9675903320312 399.2499084472656 772.2305603027344Q376.89599609375 719.4935302734375 368.98040771484375 652.1493530273438Z"/></g>
    <g transform="translate(9286, 0)"><path d="M138.857177734375 1031.5584716796875V1329.4740600585938V1560H355.46099853515625V1304.922119140625L267.93505859375 1031.5584716796875ZM476.0 1031.5584716796875V1329.4740600585938V1560.0H692.6038208007812V1304.922119140625L605.077880859375 1031.5584716796875Z"/></g>
    <g transform="translate(10072, 0)"><path d="M391.26629638671875 0V174.73370361328125L547.4805908203125 205.20123291015625V1231.1234741210938H282.25323486328125L265.59088134765625 1056.8831787109375H45.4156494140625V1456H1343.6298217773438V1056.8831787109375H1122.3701782226562L1105.9415893554688 1231.1234741210938H839.48046875V205.20123291015625L995.6947631835938 174.73370361328125V0Z"/></g>
    <g transform="translate(11461, 0)"><path d="M131.17535400390625 510.24029541015625V735.1817626953125H694.818115234375V510.24029541015625Z"/></g>
    <g transform="translate(12276, 0)"><path d="M55.70782470703125 0V174.73370361328125L211.30523681640625 205.20123291015625V1249.7987670898438L55.70782470703125 1280.2662963867188V1456H211.30523681640625H702.8311767578125Q959.8246459960938 1456 1104.0551452636719 1355.9577941894531Q1248.28564453125 1255.9155883789062 1248.28564453125 1057.06494140625Q1248.28564453125 956.3636474609375 1194.4966735839844 876.7792358398438Q1140.7077026367188 797.19482421875 1039.0908203125 757.1104125976562Q1126.4739379882812 738.4935302734375 1184.5388793945312 690.3117065429688Q1242.6038208007812 642.1298828125 1271.8603210449219 573.4155883789062Q1301.1168212890625 504.7012939453125 1301.1168212890625 423.95452880859375Q1301.1168212890625 215.31817626953125 1163.0973510742188 107.65908813476562Q1025.077880859375 0 772.2337646484375 0ZM503.30511474609375 223.70770263671875H772.2337646484375Q888.1104125976562 223.70770263671875 949.0390014648438 274.4772033691406Q1009.9675903320312 325.2467041015625 1009.9675903320312 423.80517578125Q1009.9675903320312 530.8311767578125 957.95458984375 587.4837951660156Q905.9415893554688 644.1364135742188 794.2142944335938 644.1364135742188H503.30511474609375ZM503.30511474609375 846.2532348632812H713.116943359375Q830.2208251953125 846.2532348632812 893.2532958984375 894.1818237304688Q956.2857666015625 942.1104125976562 956.2857666015625 1033.922119140625Q956.2857666015625 1135.2662963867188 892.4643249511719 1183.279296875Q828.6428833007812 1231.2922973632812 702.8311767578125 1231.2922973632812H503.30511474609375Z"/></g>
    <g transform="translate(13620, 0)"><path d="M579.0389404296875 -21Q418.55194091796875 -21 303.88311767578125 48.88311767578125Q189.21429443359375 118.7662353515625 128.05520629882812 243.2662353515625Q66.8961181640625 367.7662353515625 66.8961181640625 530.2337646484375V551Q66.8961181640625 712.2337646484375 128.05520629882812 836.4253234863281Q189.21429443359375 960.6168823242188 303.5746765136719 1031.3084411621094Q417.93505859375 1102 577.0389404296875 1102Q737.5259399414062 1102 851.577880859375 1031.6168823242188Q965.6298217773438 961.2337646484375 1026.7889099121094 837.2337646484375Q1087.947998046875 713.2337646484375 1087.947998046875 551V530.2337646484375Q1087.947998046875 368 1026.7889099121094 243.5Q965.6298217773438 119 851.7694396972656 49.0Q737.9090576171875 -21 579.0389404296875 -21ZM579.0389404296875 202.70770263671875Q654.532470703125 202.70770263671875 702.6104125976562 243.720703125Q750.6883544921875 284.73370361328125 773.9351196289062 358.5032043457031Q797.181884765625 432.272705078125 797.181884765625 530.2337646484375V551Q797.181884765625 647.1104125976562 773.9351196289062 720.5714721679688Q750.6883544921875 794.0325317382812 702.1104125976562 835.6624145507812Q653.532470703125 877.2922973632812 577.0389404296875 877.2922973632812Q501.54541015625 877.2922973632812 452.96746826171875 835.6624145507812Q404.3895263671875 794.0325317382812 381.64276123046875 720.5714721679688Q358.89599609375 647.1104125976562 358.89599609375 551V530.2337646484375Q358.89599609375 431.65582275390625 381.64276123046875 357.8863220214844Q404.3895263671875 284.1168212890625 453.1590270996094 243.41226196289062Q501.92852783203125 202.70770263671875 579.0389404296875 202.70770263671875Z"/></g>
    <g transform="translate(14775, 0)"><path d="M51.792236328125 0V174.73370361328125L191.96759033203125 205.20123291015625V875.7987670898438L36.987060546875 906.2662963867188V1082H464.20123291015625L476.96746826171875 927.1688232421875Q530.9674682617188 1010.0844116210938 610.6168212890625 1056.0422058105469Q690.2661743164062 1102 791.7986450195312 1102Q952.6103515625 1102 1043.67529296875 999.1915588378906Q1134.740234375 896.3831176757812 1134.740234375 676.2142944335938V205.20123291015625L1274.9155883789062 174.73370361328125V0H716.7532958984375V174.73370361328125L842.1234741210938 205.20123291015625V675.2987060546875Q842.1234741210938 783.7532958984375 798.8864440917969 829.2565612792969Q755.6494140625 874.7598266601562 671.1104125976562 874.7598266601562Q608.3181762695312 874.7598266601562 561.6330871582031 848.2565612792969Q514.947998046875 821.7532958984375 483.96746826171875 772.9610595703125V205.20123291015625L601.93505859375 174.73370361328125V0Z"/></g>
    <g transform="translate(16082, 0)"><path d="M581.1882934570312 -21Q425.6363525390625 -21 310.0097351074219 47.5Q194.38311767578125 116 130.7987060546875 236.14935302734375Q67.21429443359375 356.2987060546875 67.21429443359375 510.1298828125V549.8117065429688Q67.21429443359375 710.597412109375 127.32144165039062 835.1818237304688Q187.4285888671875 959.7662353515625 296.9383239746094 1030.8831176757812Q406.44805908203125 1102 554.8895874023438 1102Q701.5064697265625 1102 801.8571166992188 1044.1590881347656Q902.207763671875 986.3181762695312 954.0584106445312 877.2012939453125Q1005.9090576171875 768.0844116210938 1005.9090576171875 613.06494140625V454.2857666015625H369.91546630859375L368.14923095703125 448.052001953125Q373.85052490234375 376.74676513671875 403.41546630859375 321.5389404296875Q432.98040771484375 266.33111572265625 486.87652587890625 234.5194091796875Q540.7726440429688 202.70770263671875 618.2012329101562 202.70770263671875Q698.4609985351562 202.70770263671875 767.7921752929688 223.188232421875Q837.1233520507812 243.66876220703125 903.2272338867188 283.79864501953125L982.077880859375 103.98052978515625Q914.8246459960938 50.44805908203125 813.4642639160156 14.724029541015625Q712.1038818359375 -21 581.1882934570312 -21ZM372.21417236328125 647.1493530273438H733.0325317382812V673.1493530273438Q733.0325317382812 738.8117065429688 715.4026489257812 786.4318542480469Q697.7727661132812 834.052001953125 659.6201477050781 859.9903259277344Q621.467529296875 885.9286499023438 559.8246459960938 885.9286499023438Q501.8441162109375 885.9286499023438 461.7239685058594 855.4481201171875Q421.60382080078125 824.9675903320312 399.2499084472656 772.2305603027344Q376.89599609375 719.4935302734375 368.98040771484375 652.1493530273438Z"/></g>
    <g transform="translate(17160, 0)"><path d="M138.857177734375 1031.5584716796875V1329.4740600585938V1560H355.46099853515625V1304.922119140625L267.93505859375 1031.5584716796875ZM476.0 1031.5584716796875V1329.4740600585938V1560.0H692.6038208007812V1304.922119140625L605.077880859375 1031.5584716796875Z"/></g>
    <g transform="translate(18448, 0)"><path d="M55.70782470703125 0V174.73370361328125L211.30523681640625 205.20123291015625V1249.7987670898438L55.70782470703125 1280.2662963867188V1456H211.30523681640625H702.8311767578125Q959.8246459960938 1456 1104.0551452636719 1355.9577941894531Q1248.28564453125 1255.9155883789062 1248.28564453125 1057.06494140625Q1248.28564453125 956.3636474609375 1194.4966735839844 876.7792358398438Q1140.7077026367188 797.19482421875 1039.0908203125 757.1104125976562Q1126.4739379882812 738.4935302734375 1184.5388793945312 690.3117065429688Q1242.6038208007812 642.1298828125 1271.8603210449219 573.4155883789062Q1301.1168212890625 504.7012939453125 1301.1168212890625 423.95452880859375Q1301.1168212890625 215.31817626953125 1163.0973510742188 107.65908813476562Q1025.077880859375 0 772.2337646484375 0ZM503.30511474609375 223.70770263671875H772.2337646484375Q888.1104125976562 223.70770263671875 949.0390014648438 274.4772033691406Q1009.9675903320312 325.2467041015625 1009.9675903320312 423.80517578125Q1009.9675903320312 530.8311767578125 957.95458984375 587.4837951660156Q905.9415893554688 644.1364135742188 794.2142944335938 644.1364135742188H503.30511474609375ZM503.30511474609375 846.2532348632812H713.116943359375Q830.2208251953125 846.2532348632812 893.2532958984375 894.1818237304688Q956.2857666015625 942.1104125976562 956.2857666015625 1033.922119140625Q956.2857666015625 1135.2662963867188 892.4643249511719 1183.279296875Q828.6428833007812 1231.2922973632812 702.8311767578125 1231.2922973632812H503.30511474609375Z"/></g>
    <g transform="translate(19792, 0)"><path d="M579.0389404296875 -21Q418.55194091796875 -21 303.88311767578125 48.88311767578125Q189.21429443359375 118.7662353515625 128.05520629882812 243.2662353515625Q66.8961181640625 367.7662353515625 66.8961181640625 530.2337646484375V551Q66.8961181640625 712.2337646484375 128.05520629882812 836.4253234863281Q189.21429443359375 960.6168823242188 303.5746765136719 1031.3084411621094Q417.93505859375 1102 577.0389404296875 1102Q737.5259399414062 1102 851.577880859375 1031.6168823242188Q965.6298217773438 961.2337646484375 1026.7889099121094 837.2337646484375Q1087.947998046875 713.2337646484375 1087.947998046875 551V530.2337646484375Q1087.947998046875 368 1026.7889099121094 243.5Q965.6298217773438 119 851.7694396972656 49.0Q737.9090576171875 -21 579.0389404296875 -21ZM579.0389404296875 202.70770263671875Q654.532470703125 202.70770263671875 702.6104125976562 243.720703125Q750.6883544921875 284.73370361328125 773.9351196289062 358.5032043457031Q797.181884765625 432.272705078125 797.181884765625 530.2337646484375V551Q797.181884765625 647.1104125976562 773.9351196289062 720.5714721679688Q750.6883544921875 794.0325317382812 702.1104125976562 835.6624145507812Q653.532470703125 877.2922973632812 577.0389404296875 877.2922973632812Q501.54541015625 877.2922973632812 452.96746826171875 835.6624145507812Q404.3895263671875 794.0325317382812 381.64276123046875 720.5714721679688Q358.89599609375 647.1104125976562 358.89599609375 551V530.2337646484375Q358.89599609375 431.65582275390625 381.64276123046875 357.8863220214844Q404.3895263671875 284.1168212890625 453.1590270996094 243.41226196289062Q501.92852783203125 202.70770263671875 579.0389404296875 202.70770263671875Z"/></g>
    <g transform="translate(20947, 0)"><path d="M579.0389404296875 -21Q418.55194091796875 -21 303.88311767578125 48.88311767578125Q189.21429443359375 118.7662353515625 128.05520629882812 243.2662353515625Q66.8961181640625 367.7662353515625 66.8961181640625 530.2337646484375V551Q66.8961181640625 712.2337646484375 128.05520629882812 836.4253234863281Q189.21429443359375 960.6168823242188 303.5746765136719 1031.3084411621094Q417.93505859375 1102 577.0389404296875 1102Q737.5259399414062 1102 851.577880859375 1031.6168823242188Q965.6298217773438 961.2337646484375 1026.7889099121094 837.2337646484375Q1087.947998046875 713.2337646484375 1087.947998046875 551V530.2337646484375Q1087.947998046875 368 1026.7889099121094 243.5Q965.6298217773438 119 851.7694396972656 49.0Q737.9090576171875 -21 579.0389404296875 -21ZM579.0389404296875 202.70770263671875Q654.532470703125 202.70770263671875 702.6104125976562 243.720703125Q750.6883544921875 284.73370361328125 773.9351196289062 358.5032043457031Q797.181884765625 432.272705078125 797.181884765625 530.2337646484375V551Q797.181884765625 647.1104125976562 773.9351196289062 720.5714721679688Q750.6883544921875 794.0325317382812 702.1104125976562 835.6624145507812Q653.532470703125 877.2922973632812 577.0389404296875 877.2922973632812Q501.54541015625 877.2922973632812 452.96746826171875 835.6624145507812Q404.3895263671875 794.0325317382812 381.64276123046875 720.5714721679688Q358.89599609375 647.1104125976562 358.89599609375 551V530.2337646484375Q358.89599609375 431.65582275390625 381.64276123046875 357.8863220214844Q404.3895263671875 284.1168212890625 453.1590270996094 243.41226196289062Q501.92852783203125 202.70770263671875 579.0389404296875 202.70770263671875Z"/></g>
    <g transform="translate(22102, 0)"><path d="M46.727294921875 0V174.73370361328125L188.13641357421875 205.20123291015625V1353.7987670898438L31.922119140625 1384.2662963867188V1560H478.90252685546875V205.20123291015625L604.8895874023438 174.73370361328125V0ZM735.5584716796875 0V166.09735107421875L818.4156494140625 185.26617431640625L816.0325317382812 189.26617431640625L601.7337036132812 480.376708984375L787.6296997070312 671.3052368164062L1142.5843505859375 206.13629150390625L1276.9934692382812 174.73370361328125V0ZM448.2467041015625 295.727294921875 308.00653076171875 458.74676513671875 778.0065307617188 889.116943359375 779.922119140625 892.0325317382812 668.857177734375 908.116943359375V1082H1231.7077026367188V906.2662963867188L1092.0908203125 871.0130615234375Z"/></g>
    <g transform="translate(23418, 0)"><path d="M581.1882934570312 -21Q425.6363525390625 -21 310.0097351074219 47.5Q194.38311767578125 116 130.7987060546875 236.14935302734375Q67.21429443359375 356.2987060546875 67.21429443359375 510.1298828125V549.8117065429688Q67.21429443359375 710.597412109375 127.32144165039062 835.1818237304688Q187.4285888671875 959.7662353515625 296.9383239746094 1030.8831176757812Q406.44805908203125 1102 554.8895874023438 1102Q701.5064697265625 1102 801.8571166992188 1044.1590881347656Q902.207763671875 986.3181762695312 954.0584106445312 877.2012939453125Q1005.9090576171875 768.0844116210938 1005.9090576171875 613.06494140625V454.2857666015625H369.91546630859375L368.14923095703125 448.052001953125Q373.85052490234375 376.74676513671875 403.41546630859375 321.5389404296875Q432.98040771484375 266.33111572265625 486.87652587890625 234.5194091796875Q540.7726440429688 202.70770263671875 618.2012329101562 202.70770263671875Q698.4609985351562 202.70770263671875 767.7921752929688 223.188232421875Q837.1233520507812 243.66876220703125 903.2272338867188 283.79864501953125L982.077880859375 103.98052978515625Q914.8246459960938 50.44805908203125 813.4642639160156 14.724029541015625Q712.1038818359375 -21 581.1882934570312 -21ZM372.21417236328125 647.1493530273438H733.0325317382812V673.1493530273438Q733.0325317382812 738.8117065429688 715.4026489257812 786.4318542480469Q697.7727661132812 834.052001953125 659.6201477050781 859.9903259277344Q621.467529296875 885.9286499023438 559.8246459960938 885.9286499023438Q501.8441162109375 885.9286499023438 461.7239685058594 855.4481201171875Q421.60382080078125 824.9675903320312 399.2499084472656 772.2305603027344Q376.89599609375 719.4935302734375 368.98040771484375 652.1493530273438Z"/></g>
    <g transform="translate(24496, 0)"><path d="M84.95452880859375 0V174.73370361328125L225.1298828125 205.20123291015625V875.7987670898438L70.14935302734375 906.2662963867188V1082H496.74664306640625L508.1947021484375 947.7012939453125L510.1947021484375 923.7662353515625Q550.02587890625 1012.3181762695312 608.8895263671875 1057.1590881347656Q667.753173828125 1102 750.4349975585938 1102Q775.883056640625 1102 806.8408508300781 1097.7337646484375Q837.7986450195312 1093.467529296875 862.28564453125 1086L830.7337036132812 817.2533569335938L685.7142333984375 824.636474609375Q623.753173828125 827.7858276367188 585.2499084472656 803.941650390625Q546.7466430664062 780.0974731445312 517.1297607421875 734.922119140625V205.20123291015625L657.3051147460938 174.73370361328125V0Z"/></g>
  </g>
</svg>