<?xml version="1.0" encoding="UTF-8"?>
<svg xmlns="http://www.w3.org/2000/svg" viewBox="0 0 91.6 18" 
     width="91.6" height="18">
  <g transform="translate(0, 15.299999999999999) scale(0.0087890625, -0.0087890625)" fill="#000">
    <g transform="translate(0, 0)"><path d="M520.8117065429688 0 183.27923583984375 1265.2662963867188 34.37017822265625 1280.2662963867188V1456H620.493408203125V1280.2662963867188L462.70770263671875 1257.2662963867188L633.5843505859375 548.7986450195312L664.6298217773438 419.168701171875L670.6298217773438 418.78558349609375L707.6558227539062 549.0324096679688L995.7207641601562 1456H1211.28564453125L1509.753173828125 523.740234375L1544.54541015625 409.01934814453125H1550.54541015625L1580.9545288085938 523.740234375L1757.8506469726562 1257.2662963867188L1592.3831176757812 1280.2662963867188V1456H2167.4219360351562V1280.2662963867188L2027.7466430664062 1265.2662963867188L1686.3245849609375 0H1421.597412109375L1145.6947631835938 850.6950073242188L1111.2467041015625 971.1690673828125H1105.2467041015625L1066.2467041015625 846.9937133789062L787.493408203125 0Z"/></g>
    <g transform="translate(2202, 0)"><path d="M41.00653076171875 0V174.73370361328125L145.30523681640625 189.73370361328125L608.0390625 1456H907.2012329101562L1367.1038818359375 189.73370361328125L1471.0194702148438 174.73370361328125V0H975.2922973632812V174.73370361328125L1076.0390625 193.1168212890625L1012.116943359375 393.259765625H500.05841064453125L436.220703125 193.1168212890625L536.9674682617188 174.73370361328125V0ZM569.077880859375 608.2272338867188H942.8637084960938L773.2792358398438 1107.0780029296875L758.8117065429688 1151.181884765625H752.8117065429688L737.727294921875 1103.9935913085938Z"/></g>
    <g transform="translate(3714, 0)"><path d="M55.70782470703125 0V174.73370361328125L211.30523681640625 205.20123291015625V1249.7987670898438L55.70782470703125 1280.2662963867188V1456.2337646484375H746.0389404296875Q913.67529296875 1456.2337646484375 1033.9707336425781 1404.1071472167969Q1154.2661743164062 1351.9805297851562 1218.6687622070312 1254.8863830566406Q1283.0713500976562 1157.792236328125 1283.0713500976562 1022.2402954101562Q1283.0713500976562 894.2402954101562 1218.9349975585938 793.052001953125Q1154.7986450195312 691.8637084960938 1041.077880859375 633.7922973632812Q927.3571166992188 575.7208862304688 778.1038818359375 575.1884155273438L503.30511474609375 574.7403564453125V205.20123291015625L658.9025268554688 174.73370361328125V0ZM992.6494140625 0 747.6103515625 628.9157104492188 1011.233642578125 693.8377075195312 1223.48046875 203.753173828125 1347.3051147460938 175.26617431640625V0ZM503.30511474609375 800.06494140625H740.8441162109375Q866.9805297851562 800.06494140625 929.6428833007812 853.5032653808594Q992.3052368164062 906.9415893554688 992.3052368164062 1008.8182373046875Q992.3052368164062 1110.246826171875 930.1753540039062 1170.7695617675781Q868.0454711914062 1231.2922973632812 746.0389404296875 1231.2922973632812H503.30511474609375Z"/></g>
    <g transform="translate(5122, 0)"><path d="M55.857177734375 0V174.73370361328125L210.83770751953125 205.20123291015625V1249.7987670898438L55.857177734375 1280.2662963867188V1456H210.83770751953125H507.30511474609375L1141.1104125976562 446.22711181640625L1147.1104125976562 446.99334716796875V1249.7987670898438L960.7078247070312 1280.2662963867188V1456H1408.3051147460938H1563.9025268554688V1280.2662963867188L1408.3051147460938 1249.7987670898438V0H1125.9026489257812L478.03240966796875 999.7339477539062L472.03240966796875 998.9677124023438V205.20123291015625L659.0518798828125 174.73370361328125V0Z"/></g>
    <g transform="translate(6726, 0)"><path d="M55.70782470703125 0V174.73370361328125L211.30523681640625 205.20123291015625V1249.7987670898438L55.70782470703125 1280.2662963867188V1456H658.28564453125V1280.2662963867188L502.688232421875 1249.7987670898438V205.20123291015625L658.28564453125 174.73370361328125V0Z"/></g>
    <g transform="translate(7440, 0)"><path d="M55.857177734375 0V174.73370361328125L210.83770751953125 205.20123291015625V1249.7987670898438L55.857177734375 1280.2662963867188V1456H210.83770751953125H507.30511474609375L1141.1104125976562 446.22711181640625L1147.1104125976562 446.99334716796875V1249.7987670898438L960.7078247070312 1280.2662963867188V1456H1408.3051147460938H1563.9025268554688V1280.2662963867188L1408.3051147460938 1249.7987670898438V0H1125.9026489257812L478.03240966796875 999.7339477539062L472.03240966796875 998.9677124023438V205.20123291015625L659.0518798828125 174.73370361328125V0Z"/></g>
    <g transform="translate(9044, 0)"><path d="M733.06494140625 -21Q516.259765625 -21 363.0162658691406 69.10714721679688Q209.77276611328125 159.21429443359375 128.53900146484375 319.3539123535156Q47.30523681640625 479.4935302734375 47.30523681640625 690.0909423828125V740Q47.30523681640625 958.1493530273438 128.11367797851562 1123.9577941894531Q208.922119140625 1289.7662353515625 357.5584716796875 1383.3831176757812Q506.19482421875 1477 708.8701171875 1477Q865.9155883789062 1477 1003.8473815917969 1433.9902648925781Q1141.7791748046875 1390.9805297851562 1244.28564453125 1305.2402954101562V982.246826171875H1028L987.259765625 1177.2078857421875Q947.5130004882812 1211.0585327148438 881.7565002441406 1231.5682678222656Q816 1252.0780029296875 730.7207641601562 1252.0780029296875Q608.80517578125 1252.0780029296875 520.5259399414062 1187.7890319824219Q432.2467041015625 1123.5000610351562 385.0421447753906 1008.8799133300781Q337.83758544921875 894.259765625 337.83758544921875 742V690.0909423828125Q337.83758544921875 542 384.5518798828125 432.5486755371094Q431.26617431640625 323.09735107421875 521.3116455078125 263.0096740722656Q611.3571166992188 202.9219970703125 741.7012939453125 202.9219970703125Q818.8766479492188 202.9219970703125 883.5584716796875 217.64602661132812Q948.2402954101562 232.37005615234375 990.1364135742188 252.96746826171875V499.96759033203125L782.077880859375 516.1364135742188V720.9739990234375H1282.753173828125V132.2987060546875Q1185.8246459960938 62.81170654296875 1049.2012939453125 20.905853271484375Q912.5779418945312 -21 733.06494140625 -21Z"/></g>
  </g>
</svg>