<?xml version="1.0" encoding="UTF-8"?>
<svg xmlns="http://www.w3.org/2000/svg" viewBox="0 0 123.2 18" 
     width="123.2" height="18">
  <g transform="translate(0, 15.299999999999999) scale(0.0087890625, -0.0087890625)" fill="#000">
    <g transform="translate(0, 0)"><path d="M520.8117065429688 0 183.27923583984375 1265.2662963867188 34.37017822265625 1280.2662963867188V1456H620.493408203125V1280.2662963867188L462.70770263671875 1257.2662963867188L633.5843505859375 548.7986450195312L664.6298217773438 419.168701171875L670.6298217773438 418.78558349609375L707.6558227539062 549.0324096679688L995.7207641601562 1456H1211.28564453125L1509.753173828125 523.740234375L1544.54541015625 409.01934814453125H1550.54541015625L1580.9545288085938 523.740234375L1757.8506469726562 1257.2662963867188L1592.3831176757812 1280.2662963867188V1456H2167.4219360351562V1280.2662963867188L2027.7466430664062 1265.2662963867188L1686.3245849609375 0H1421.597412109375L1145.6947631835938 850.6950073242188L1111.2467041015625 971.1690673828125H1105.2467041015625L1066.2467041015625 846.9937133789062L787.493408203125 0Z"/></g>
    <g transform="translate(2202, 0)"><path d="M55.70782470703125 0V174.73370361328125L211.30523681640625 205.20123291015625V1249.7987670898438L55.70782470703125 1280.2662963867188V1456H658.9025268554688V1280.2662963867188L503.30511474609375 1249.7987670898438V830.077880859375H1096.9026489257812V1249.7987670898438L941.3052368164062 1280.2662963867188V1456H1096.9026489257812H1388.28564453125H1543.883056640625V1280.2662963867188L1388.28564453125 1249.7987670898438V205.20123291015625L1543.883056640625 174.73370361328125V0H941.3052368164062V174.73370361328125L1096.9026489257812 205.20123291015625V604.7532958984375H503.30511474609375V205.20123291015625L658.9025268554688 174.73370361328125V0Z"/></g>
    <g transform="translate(3802, 0)"><path d="M41.00653076171875 0V174.73370361328125L145.30523681640625 189.73370361328125L608.0390625 1456H907.2012329101562L1367.1038818359375 189.73370361328125L1471.0194702148438 174.73370361328125V0H975.2922973632812V174.73370361328125L1076.0390625 193.1168212890625L1012.116943359375 393.259765625H500.05841064453125L436.220703125 193.1168212890625L536.9674682617188 174.73370361328125V0ZM569.077880859375 608.2272338867188H942.8637084960938L773.2792358398438 1107.0780029296875L758.8117065429688 1151.181884765625H752.8117065429688L737.727294921875 1103.9935913085938Z"/></g>
    <g transform="translate(5314, 0)"><path d="M391.26629638671875 0V174.73370361328125L547.4805908203125 205.20123291015625V1231.1234741210938H282.25323486328125L265.59088134765625 1056.8831787109375H45.4156494140625V1456H1343.6298217773438V1056.8831787109375H1122.3701782226562L1105.9415893554688 1231.1234741210938H839.48046875V205.20123291015625L995.6947631835938 174.73370361328125V0Z"/></g>
    <g transform="translate(6703, 0)"><path d="M138.857177734375 1031.5584716796875V1329.4740600585938V1560H355.46099853515625V1304.922119140625L267.93505859375 1031.5584716796875Z"/></g>
    <g transform="translate(7152, 0)"><path d="M649.7986450195312 -21Q489.0389404296875 -21 356.78570556640625 14.91558837890625Q224.532470703125 50.8311767578125 97.11041259765625 139.85064697265625V492.1817626953125H322.90252685546875L354.0518798828125 284.77264404296875Q398.69476318359375 247.24017333984375 477.7791748046875 223.69796752929688Q556.8635864257812 200.15576171875 649.7986450195312 200.15576171875Q729.4415283203125 200.15576171875 783.8279113769531 222.0194091796875Q838.2142944335938 243.883056640625 866.5779418945312 284.3116455078125Q894.9415893554688 324.740234375 894.9415893554688 380.08441162109375Q894.9415893554688 432.27923583984375 869.4188537597656 472.792236328125Q843.8961181640625 513.3052368164062 785.5097351074219 546.8701782226562Q727.1233520507812 580.4351196289062 627.2661743164062 611.2857666015625Q454.4415283203125 661.7078247070312 340.7629699707031 722.3669128417969Q227.08441162109375 783.0260009765625 170.5 867.4513244628906Q113.91558837890625 951.8766479492188 113.91558837890625 1070.9805297851562Q113.91558837890625 1189.2987060546875 179.65908813476562 1279.6071472167969Q245.402587890625 1369.9155883789062 361.42205810546875 1421.9155883789062Q477.4415283203125 1473.9155883789062 628.8441162109375 1475.7662353515625Q797.2661743164062 1478.2337646484375 926.7953796386719 1436.0519409179688Q1056.3245849609375 1393.8701171875 1150.2141723632812 1319.2337646484375V991.2208251953125H931.207763671875L893.272705078125 1191.2013549804688Q855.0584106445312 1215.4805908203125 790.5259399414062 1233.311767578125Q725.9934692382812 1251.1429443359375 644.2661743164062 1251.1429443359375Q574.4544677734375 1251.1429443359375 520.6330261230469 1229.9708557128906Q466.81158447265625 1208.7987670898438 436.0550842285156 1168.7532958984375Q405.298583984375 1128.7078247070312 405.298583984375 1071.5130004882812Q405.298583984375 1023.3181762695312 431.9382019042969 986.4967346191406Q458.57781982421875 949.67529296875 522.5161437988281 917.2597045898438Q586.4544677734375 884.8441162109375 697.7337036132812 848.2921752929688Q938.8375854492188 781.4220581054688 1063.5064086914062 671.1558227539062Q1188.1752319335938 560.8895874023438 1188.1752319335938 382.08441162109375Q1188.1752319335938 257.68182373046875 1120.8570556640625 167.18182373046875Q1053.5388793945312 76.68182373046875 932.5616149902344 27.840911865234375Q811.5843505859375 -21 649.7986450195312 -21Z"/></g>
    <g transform="translate(8901, 0)"><path d="M55.857177734375 0V174.73370361328125L210.83770751953125 205.20123291015625V1249.7987670898438L55.857177734375 1280.2662963867188V1456H210.83770751953125H507.30511474609375L1141.1104125976562 446.22711181640625L1147.1104125976562 446.99334716796875V1249.7987670898438L960.7078247070312 1280.2662963867188V1456H1408.3051147460938H1563.9025268554688V1280.2662963867188L1408.3051147460938 1249.7987670898438V0H1125.9026489257812L478.03240966796875 999.7339477539062L472.03240966796875 998.9677124023438V205.20123291015625L659.0518798828125 174.73370361328125V0Z"/></g>
    <g transform="translate(10505, 0)"><path d="M55.70782470703125 0V174.73370361328125L211.30523681640625 205.20123291015625V1249.7987670898438L55.70782470703125 1280.2662963867188V1456H1186.142822265625V1062.8182373046875H962.1364135742188L948.7727661132812 1231.2078857421875H503.30511474609375V865.1622924804688H995.8895874023438V639.8377075195312H503.30511474609375V223.87652587890625H972.7532958984375L986.116943359375 397.73370361328125H1207.8895874023438V0Z"/></g>
    <g transform="translate(11813, 0)"><path d="M520.8117065429688 0 183.27923583984375 1265.2662963867188 34.37017822265625 1280.2662963867188V1456H620.493408203125V1280.2662963867188L462.70770263671875 1257.2662963867188L633.5843505859375 548.7986450195312L664.6298217773438 419.168701171875L670.6298217773438 418.78558349609375L707.6558227539062 549.0324096679688L995.7207641601562 1456H1211.28564453125L1509.753173828125 523.740234375L1544.54541015625 409.01934814453125H1550.54541015625L1580.9545288085938 523.740234375L1757.8506469726562 1257.2662963867188L1592.3831176757812 1280.2662963867188V1456H2167.4219360351562V1280.2662963867188L2027.7466430664062 1265.2662963867188L1686.3245849609375 0H1421.597412109375L1145.6947631835938 850.6950073242188L1111.2467041015625 971.1690673828125H1105.2467041015625L1066.2467041015625 846.9937133789062L787.493408203125 0Z"/></g>
  </g>
</svg>