<?xml version="1.0" encoding="UTF-8"?>
<svg xmlns="http://www.w3.org/2000/svg" viewBox="0 0 222.5 18" 
     width="222.5" height="18">
  <g transform="translate(0, 15.299999999999999) scale(0.0087890625, -0.0087890625)" fill="#000">
    <g transform="translate(0, 0)"><path d="M520.8117065429688 0 183.27923583984375 1265.2662963867188 34.37017822265625 1280.2662963867188V1456H620.493408203125V1280.2662963867188L462.70770263671875 1257.2662963867188L633.5843505859375 548.7986450195312L664.6298217773438 419.168701171875L670.6298217773438 418.78558349609375L707.6558227539062 549.0324096679688L995.7207641601562 1456H1211.28564453125L1509.753173828125 523.740234375L1544.54541015625 409.01934814453125H1550.54541015625L1580.9545288085938 523.740234375L1757.8506469726562 1257.2662963867188L1592.3831176757812 1280.2662963867188V1456H2167.4219360351562V1280.2662963867188L2027.7466430664062 1265.2662963867188L1686.3245849609375 0H1421.597412109375L1145.6947631835938 850.6950073242188L1111.2467041015625 971.1690673828125H1105.2467041015625L1066.2467041015625 846.9937133789062L787.493408203125 0Z"/></g>
    <g transform="translate(2202, 0)"><path d="M55.70782470703125 0V174.73370361328125L211.30523681640625 205.20123291015625V1249.7987670898438L55.70782470703125 1280.2662963867188V1456H658.9025268554688V1280.2662963867188L503.30511474609375 1249.7987670898438V830.077880859375H1096.9026489257812V1249.7987670898438L941.3052368164062 1280.2662963867188V1456H1096.9026489257812H1388.28564453125H1543.883056640625V1280.2662963867188L1388.28564453125 1249.7987670898438V205.20123291015625L1543.883056640625 174.73370361328125V0H941.3052368164062V174.73370361328125L1096.9026489257812 205.20123291015625V604.7532958984375H503.30511474609375V205.20123291015625L658.9025268554688 174.73370361328125V0Z"/></g>
    <g transform="translate(3802, 0)"><path d="M41.00653076171875 0V174.73370361328125L145.30523681640625 189.73370361328125L608.0390625 1456H907.2012329101562L1367.1038818359375 189.73370361328125L1471.0194702148438 174.73370361328125V0H975.2922973632812V174.73370361328125L1076.0390625 193.1168212890625L1012.116943359375 393.259765625H500.05841064453125L436.220703125 193.1168212890625L536.9674682617188 174.73370361328125V0ZM569.077880859375 608.2272338867188H942.8637084960938L773.2792358398438 1107.0780029296875L758.8117065429688 1151.181884765625H752.8117065429688L737.727294921875 1103.9935913085938Z"/></g>
    <g transform="translate(5314, 0)"><path d="M391.26629638671875 0V174.73370361328125L547.4805908203125 205.20123291015625V1231.1234741210938H282.25323486328125L265.59088134765625 1056.8831787109375H45.4156494140625V1456H1343.6298217773438V1056.8831787109375H1122.3701782226562L1105.9415893554688 1231.1234741210938H839.48046875V205.20123291015625L995.6947631835938 174.73370361328125V0Z"/></g>
    <g transform="translate(7205, 0)"><path d="M452.11041259765625 0V174.73370361328125L607.7078247070312 205.20123291015625V499.1558837890625L175.74676513671875 1260.0325317382812L36.00653076171875 1280.2662963867188V1456H616.9674682617188V1280.2662963867188L497.85052490234375 1263.116943359375L739.6103515625 797.8375854492188L761.8441162109375 751.4349975585938L767.7791748046875 752.2012329101562L790.2467041015625 795.9869384765625L1058.727294921875 1263.116943359375L899.06494140625 1280.2662963867188V1456H1468.7921142578125V1280.2662963867188L1325.1362915039062 1260.0325317382812L898.7077026367188 522.1753540039062V205.20123291015625L1054.9219970703125 174.73370361328125V0Z"/></g>
    <g transform="translate(8713, 0)"><path d="M723.1168212890625 -21Q575.947998046875 -21 455.0032043457031 33.925323486328125Q334.05841064453125 88.85064697265625 246.61361694335938 188.27597045898438Q159.1688232421875 287.7012939453125 112.11688232421875 422.3928527832031Q65.06494140625 557.0844116210938 65.06494140625 717V739.2337646484375Q65.06494140625 898.1493530273438 112.11688232421875 1032.7240295410156Q159.1688232421875 1167.2987060546875 246.30517578125 1266.9155883789062Q333.4415283203125 1366.532470703125 454.077880859375 1421.7662353515625Q574.7142333984375 1477 721.883056640625 1477Q870.2661743164062 1477 991.9025268554688 1421.7662353515625Q1113.5388793945312 1366.532470703125 1201.7596435546875 1266.9155883789062Q1289.9804077148438 1167.2987060546875 1337.6167602539062 1032.7240295410156Q1385.2531127929688 898.1493530273438 1385.2531127929688 739.2337646484375V717Q1385.2531127929688 557.0844116210938 1337.6167602539062 422.3928527832031Q1289.9804077148438 287.7012939453125 1202.0680847167969 188.27597045898438Q1114.15576171875 88.85064697265625 992.5194091796875 33.925323486328125Q870.883056640625 -21 723.1168212890625 -21ZM723.1168212890625 205.9219970703125Q846.5259399414062 205.9219970703125 928.9317932128906 269.90252685546875Q1011.337646484375 333.883056640625 1052.7207641601562 448.8863220214844Q1094.1038818359375 563.8895874023438 1094.1038818359375 717V741.2337646484375Q1094.1038818359375 892.1104125976562 1052.2207641601562 1006.422119140625Q1010.337646484375 1120.7338256835938 927.740234375 1184.9059143066406Q845.142822265625 1249.0780029296875 721.883056640625 1249.0780029296875Q599.5194091796875 1249.0780029296875 518.6979675292969 1185.3312377929688Q437.87652587890625 1121.58447265625 397.6622314453125 1007.5812072753906Q357.44793701171875 893.5779418945312 357.44793701171875 741.2337646484375V717Q357.44793701171875 564.272705078125 397.9706726074219 448.96099853515625Q438.493408203125 333.6492919921875 519.9317321777344 269.78564453125Q601.3700561523438 205.9219970703125 723.1168212890625 205.9219970703125Z"/></g>
    <g transform="translate(10159, 0)"><path d="M775.9739990234375 -21Q602.532470703125 -21 471.2695007324219 38.925323486328125Q340.00653076171875 98.85064697265625 267.07147216796875 212.97726440429688Q194.13641357421875 327.1038818359375 194.13641357421875 489.9739990234375V1249.7987670898438L39.1558837890625 1280.2662963867188V1456H641.7337036132812V1280.2662963867188L486.13629150390625 1249.7987670898438V489.9739990234375Q486.13629150390625 393.92852783203125 521.1590270996094 330.1070861816406Q556.1817626953125 266.28564453125 621.2369689941406 234.64602661132812Q686.2921752929688 203.00640869140625 775.8895874023438 203.00640869140625Q867.7207641601562 203.00640869140625 933.3506469726562 234.4544677734375Q998.9805297851562 265.90252685546875 1034.0779418945312 329.7239685058594Q1069.1753540039062 393.54541015625 1069.1753540039062 489.9739990234375V1249.7987670898438L914.19482421875 1280.2662963867188V1456H1516.7726440429688V1280.2662963867188L1361.1752319335938 1249.7987670898438V489.9739990234375Q1361.1752319335938 327.0389404296875 1287.5810852050781 212.6038818359375Q1213.9869384765625 98.1688232421875 1082.5746154785156 38.58441162109375Q951.1622924804688 -21 775.9739990234375 -21Z"/></g>
    <g transform="translate(11714, 0)"><path d="M138.857177734375 1031.5584716796875V1329.4740600585938V1560H355.46099853515625V1304.922119140625L267.93505859375 1031.5584716796875Z"/></g>
    <g transform="translate(12163, 0)"><path d="M55.70782470703125 0V174.73370361328125L211.30523681640625 205.20123291015625V1249.7987670898438L55.70782470703125 1280.2662963867188V1456.2337646484375H746.0389404296875Q913.67529296875 1456.2337646484375 1033.9707336425781 1404.1071472167969Q1154.2661743164062 1351.9805297851562 1218.6687622070312 1254.8863830566406Q1283.0713500976562 1157.792236328125 1283.0713500976562 1022.2402954101562Q1283.0713500976562 894.2402954101562 1218.9349975585938 793.052001953125Q1154.7986450195312 691.8637084960938 1041.077880859375 633.7922973632812Q927.3571166992188 575.7208862304688 778.1038818359375 575.1884155273438L503.30511474609375 574.7403564453125V205.20123291015625L658.9025268554688 174.73370361328125V0ZM992.6494140625 0 747.6103515625 628.9157104492188 1011.233642578125 693.8377075195312 1223.48046875 203.753173828125 1347.3051147460938 175.26617431640625V0ZM503.30511474609375 800.06494140625H740.8441162109375Q866.9805297851562 800.06494140625 929.6428833007812 853.5032653808594Q992.3052368164062 906.9415893554688 992.3052368164062 1008.8182373046875Q992.3052368164062 1110.246826171875 930.1753540039062 1170.7695617675781Q868.0454711914062 1231.2922973632812 746.0389404296875 1231.2922973632812H503.30511474609375Z"/></g>
    <g transform="translate(13571, 0)"><path d="M55.70782470703125 0V174.73370361328125L211.30523681640625 205.20123291015625V1249.7987670898438L55.70782470703125 1280.2662963867188V1456H1186.142822265625V1062.8182373046875H962.1364135742188L948.7727661132812 1231.2078857421875H503.30511474609375V865.1622924804688H995.8895874023438V639.8377075195312H503.30511474609375V223.87652587890625H972.7532958984375L986.116943359375 397.73370361328125H1207.8895874023438V0Z"/></g>
    <g transform="translate(15381, 0)"><path d="M55.70782470703125 0V174.73370361328125L211.30523681640625 205.20123291015625V1249.7987670898438L55.70782470703125 1280.2662963867188V1456H211.30523681640625H702.8311767578125Q959.8246459960938 1456 1104.0551452636719 1355.9577941894531Q1248.28564453125 1255.9155883789062 1248.28564453125 1057.06494140625Q1248.28564453125 956.3636474609375 1194.4966735839844 876.7792358398438Q1140.7077026367188 797.19482421875 1039.0908203125 757.1104125976562Q1126.4739379882812 738.4935302734375 1184.5388793945312 690.3117065429688Q1242.6038208007812 642.1298828125 1271.8603210449219 573.4155883789062Q1301.1168212890625 504.7012939453125 1301.1168212890625 423.95452880859375Q1301.1168212890625 215.31817626953125 1163.0973510742188 107.65908813476562Q1025.077880859375 0 772.2337646484375 0ZM503.30511474609375 223.70770263671875H772.2337646484375Q888.1104125976562 223.70770263671875 949.0390014648438 274.4772033691406Q1009.9675903320312 325.2467041015625 1009.9675903320312 423.80517578125Q1009.9675903320312 530.8311767578125 957.95458984375 587.4837951660156Q905.9415893554688 644.1364135742188 794.2142944335938 644.1364135742188H503.30511474609375ZM503.30511474609375 846.2532348632812H713.116943359375Q830.2208251953125 846.2532348632812 893.2532958984375 894.1818237304688Q956.2857666015625 942.1104125976562 956.2857666015625 1033.922119140625Q956.2857666015625 1135.2662963867188 892.4643249511719 1183.279296875Q828.6428833007812 1231.2922973632812 702.8311767578125 1231.2922973632812H503.30511474609375Z"/></g>
    <g transform="translate(16725, 0)"><path d="M775.9739990234375 -21Q602.532470703125 -21 471.2695007324219 38.925323486328125Q340.00653076171875 98.85064697265625 267.07147216796875 212.97726440429688Q194.13641357421875 327.1038818359375 194.13641357421875 489.9739990234375V1249.7987670898438L39.1558837890625 1280.2662963867188V1456H641.7337036132812V1280.2662963867188L486.13629150390625 1249.7987670898438V489.9739990234375Q486.13629150390625 393.92852783203125 521.1590270996094 330.1070861816406Q556.1817626953125 266.28564453125 621.2369689941406 234.64602661132812Q686.2921752929688 203.00640869140625 775.8895874023438 203.00640869140625Q867.7207641601562 203.00640869140625 933.3506469726562 234.4544677734375Q998.9805297851562 265.90252685546875 1034.0779418945312 329.7239685058594Q1069.1753540039062 393.54541015625 1069.1753540039062 489.9739990234375V1249.7987670898438L914.19482421875 1280.2662963867188V1456H1516.7726440429688V1280.2662963867188L1361.1752319335938 1249.7987670898438V489.9739990234375Q1361.1752319335938 327.0389404296875 1287.5810852050781 212.6038818359375Q1213.9869384765625 98.1688232421875 1082.5746154785156 38.58441162109375Q951.1622924804688 -21 775.9739990234375 -21Z"/></g>
    <g transform="translate(18280, 0)"><path d="M55.70782470703125 0V174.73370361328125L211.30523681640625 205.20123291015625V1249.7987670898438L55.70782470703125 1280.2662963867188V1456H658.28564453125V1280.2662963867188L502.688232421875 1249.7987670898438V205.20123291015625L658.28564453125 174.73370361328125V0Z"/></g>
    <g transform="translate(18994, 0)"><path d="M55.70782470703125 0V174.73370361328125L211.30523681640625 205.20123291015625V1249.7987670898438L55.70782470703125 1280.2662963867188V1456H211.30523681640625H503.30511474609375H679.2596435546875V1280.2662963867188L503.30511474609375 1249.7987670898438V223.7921142578125H914.052001953125L927.7987670898438 437.13629150390625H1150.9739990234375V0Z"/></g>
    <g transform="translate(20194, 0)"><path d="M55.70782470703125 0V174.73370361328125L212.53900146484375 208.28564453125V1246.0974731445312L55.70782470703125 1280.2662963867188V1456H212.53900146484375H694.7986450195312Q890.2661743164062 1456 1039.0096740722656 1364.3084411621094Q1187.753173828125 1272.6168823242188 1271.4544677734375 1111.3084411621094Q1355.15576171875 950 1355.15576171875 740.532470703125V714.467529296875Q1355.15576171875 506.91558837890625 1272.6038208007812 345.41558837890625Q1190.0518798828125 183.91558837890625 1042.0746154785156 91.95779418945312Q894.0973510742188 0 698.6298217773438 0ZM504.53887939453125 223.0908203125H683.6947631835938Q805.0389404296875 223.0908203125 889.2337646484375 286.5616149902344Q973.4285888671875 350.03240966796875 1017.6753540039062 461.1103515625Q1061.922119140625 572.1882934570312 1061.922119140625 714.467529296875V741.9155883789062Q1061.922119140625 886.1104125976562 1017.6753540039062 996.4967956542969Q973.4285888671875 1106.8831787109375 889.2337646484375 1169.3961791992188Q805.0389404296875 1231.9091796875 683.6947631835938 1231.9091796875H504.53887939453125Z"/></g>
    <g transform="translate(21620, 0)"><path d="M55.70782470703125 0V174.73370361328125L211.30523681640625 205.20123291015625V1249.7987670898438L55.70782470703125 1280.2662963867188V1456H658.28564453125V1280.2662963867188L502.688232421875 1249.7987670898438V205.20123291015625L658.28564453125 174.73370361328125V0Z"/></g>
    <g transform="translate(22334, 0)"><path d="M55.857177734375 0V174.73370361328125L210.83770751953125 205.20123291015625V1249.7987670898438L55.857177734375 1280.2662963867188V1456H210.83770751953125H507.30511474609375L1141.1104125976562 446.22711181640625L1147.1104125976562 446.99334716796875V1249.7987670898438L960.7078247070312 1280.2662963867188V1456H1408.3051147460938H1563.9025268554688V1280.2662963867188L1408.3051147460938 1249.7987670898438V0H1125.9026489257812L478.03240966796875 999.7339477539062L472.03240966796875 998.9677124023438V205.20123291015625L659.0518798828125 174.73370361328125V0Z"/></g>
    <g transform="translate(23938, 0)"><path d="M733.06494140625 -21Q516.259765625 -21 363.0162658691406 69.10714721679688Q209.77276611328125 159.21429443359375 128.53900146484375 319.3539123535156Q47.30523681640625 479.4935302734375 47.30523681640625 690.0909423828125V740Q47.30523681640625 958.1493530273438 128.11367797851562 1123.9577941894531Q208.922119140625 1289.7662353515625 357.5584716796875 1383.3831176757812Q506.19482421875 1477 708.8701171875 1477Q865.9155883789062 1477 1003.8473815917969 1433.9902648925781Q1141.7791748046875 1390.9805297851562 1244.28564453125 1305.2402954101562V982.246826171875H1028L987.259765625 1177.2078857421875Q947.5130004882812 1211.0585327148438 881.7565002441406 1231.5682678222656Q816 1252.0780029296875 730.7207641601562 1252.0780029296875Q608.80517578125 1252.0780029296875 520.5259399414062 1187.7890319824219Q432.2467041015625 1123.5000610351562 385.0421447753906 1008.8799133300781Q337.83758544921875 894.259765625 337.83758544921875 742V690.0909423828125Q337.83758544921875 542 384.5518798828125 432.5486755371094Q431.26617431640625 323.09735107421875 521.3116455078125 263.0096740722656Q611.3571166992188 202.9219970703125 741.7012939453125 202.9219970703125Q818.8766479492188 202.9219970703125 883.5584716796875 217.64602661132812Q948.2402954101562 232.37005615234375 990.1364135742188 252.96746826171875V499.96759033203125L782.077880859375 516.1364135742188V720.9739990234375H1282.753173828125V132.2987060546875Q1185.8246459960938 62.81170654296875 1049.2012939453125 20.905853271484375Q912.5779418945312 -21 733.06494140625 -21Z"/></g>
  </g>
</svg>