<?xml version="1.0" encoding="UTF-8"?>
<svg xmlns="http://www.w3.org/2000/svg" viewBox="0 0 108.8 18" 
     width="108.8" height="18">
  <g transform="translate(0, 15.299999999999999) scale(0.0087890625, -0.0087890625)" fill="#000">
    <g transform="translate(0, 0)"><path d="M452.11041259765625 0V174.73370361328125L607.7078247070312 205.20123291015625V499.1558837890625L175.74676513671875 1260.0325317382812L36.00653076171875 1280.2662963867188V1456H616.9674682617188V1280.2662963867188L497.85052490234375 1263.116943359375L739.6103515625 797.8375854492188L761.8441162109375 751.4349975585938L767.7791748046875 752.2012329101562L790.2467041015625 795.9869384765625L1058.727294921875 1263.116943359375L899.06494140625 1280.2662963867188V1456H1468.7921142578125V1280.2662963867188L1325.1362915039062 1260.0325317382812L898.7077026367188 522.1753540039062V205.20123291015625L1054.9219970703125 174.73370361328125V0Z"/></g>
    <g transform="translate(1508, 0)"><path d="M723.1168212890625 -21Q575.947998046875 -21 455.0032043457031 33.925323486328125Q334.05841064453125 88.85064697265625 246.61361694335938 188.27597045898438Q159.1688232421875 287.7012939453125 112.11688232421875 422.3928527832031Q65.06494140625 557.0844116210938 65.06494140625 717V739.2337646484375Q65.06494140625 898.1493530273438 112.11688232421875 1032.7240295410156Q159.1688232421875 1167.2987060546875 246.30517578125 1266.9155883789062Q333.4415283203125 1366.532470703125 454.077880859375 1421.7662353515625Q574.7142333984375 1477 721.883056640625 1477Q870.2661743164062 1477 991.9025268554688 1421.7662353515625Q1113.5388793945312 1366.532470703125 1201.7596435546875 1266.9155883789062Q1289.9804077148438 1167.2987060546875 1337.6167602539062 1032.7240295410156Q1385.2531127929688 898.1493530273438 1385.2531127929688 739.2337646484375V717Q1385.2531127929688 557.0844116210938 1337.6167602539062 422.3928527832031Q1289.9804077148438 287.7012939453125 1202.0680847167969 188.27597045898438Q1114.15576171875 88.85064697265625 992.5194091796875 33.925323486328125Q870.883056640625 -21 723.1168212890625 -21ZM723.1168212890625 205.9219970703125Q846.5259399414062 205.9219970703125 928.9317932128906 269.90252685546875Q1011.337646484375 333.883056640625 1052.7207641601562 448.8863220214844Q1094.1038818359375 563.8895874023438 1094.1038818359375 717V741.2337646484375Q1094.1038818359375 892.1104125976562 1052.2207641601562 1006.422119140625Q1010.337646484375 1120.7338256835938 927.740234375 1184.9059143066406Q845.142822265625 1249.0780029296875 721.883056640625 1249.0780029296875Q599.5194091796875 1249.0780029296875 518.6979675292969 1185.3312377929688Q437.87652587890625 1121.58447265625 397.6622314453125 1007.5812072753906Q357.44793701171875 893.5779418945312 357.44793701171875 741.2337646484375V717Q357.44793701171875 564.272705078125 397.9706726074219 448.96099853515625Q438.493408203125 333.6492919921875 519.9317321777344 269.78564453125Q601.3700561523438 205.9219970703125 723.1168212890625 205.9219970703125Z"/></g>
    <g transform="translate(2954, 0)"><path d="M775.9739990234375 -21Q602.532470703125 -21 471.2695007324219 38.925323486328125Q340.00653076171875 98.85064697265625 267.07147216796875 212.97726440429688Q194.13641357421875 327.1038818359375 194.13641357421875 489.9739990234375V1249.7987670898438L39.1558837890625 1280.2662963867188V1456H641.7337036132812V1280.2662963867188L486.13629150390625 1249.7987670898438V489.9739990234375Q486.13629150390625 393.92852783203125 521.1590270996094 330.1070861816406Q556.1817626953125 266.28564453125 621.2369689941406 234.64602661132812Q686.2921752929688 203.00640869140625 775.8895874023438 203.00640869140625Q867.7207641601562 203.00640869140625 933.3506469726562 234.4544677734375Q998.9805297851562 265.90252685546875 1034.0779418945312 329.7239685058594Q1069.1753540039062 393.54541015625 1069.1753540039062 489.9739990234375V1249.7987670898438L914.19482421875 1280.2662963867188V1456H1516.7726440429688V1280.2662963867188L1361.1752319335938 1249.7987670898438V489.9739990234375Q1361.1752319335938 327.0389404296875 1287.5810852050781 212.6038818359375Q1213.9869384765625 98.1688232421875 1082.5746154785156 38.58441162109375Q951.1622924804688 -21 775.9739990234375 -21Z"/></g>
    <g transform="translate(4509, 0)"><path d="M55.70782470703125 0V174.73370361328125L211.30523681640625 205.20123291015625V1249.7987670898438L55.70782470703125 1280.2662963867188V1456.2337646484375H746.0389404296875Q913.67529296875 1456.2337646484375 1033.9707336425781 1404.1071472167969Q1154.2661743164062 1351.9805297851562 1218.6687622070312 1254.8863830566406Q1283.0713500976562 1157.792236328125 1283.0713500976562 1022.2402954101562Q1283.0713500976562 894.2402954101562 1218.9349975585938 793.052001953125Q1154.7986450195312 691.8637084960938 1041.077880859375 633.7922973632812Q927.3571166992188 575.7208862304688 778.1038818359375 575.1884155273438L503.30511474609375 574.7403564453125V205.20123291015625L658.9025268554688 174.73370361328125V0ZM992.6494140625 0 747.6103515625 628.9157104492188 1011.233642578125 693.8377075195312 1223.48046875 203.753173828125 1347.3051147460938 175.26617431640625V0ZM503.30511474609375 800.06494140625H740.8441162109375Q866.9805297851562 800.06494140625 929.6428833007812 853.5032653808594Q992.3052368164062 906.9415893554688 992.3052368164062 1008.8182373046875Q992.3052368164062 1110.246826171875 930.1753540039062 1170.7695617675781Q868.0454711914062 1231.2922973632812 746.0389404296875 1231.2922973632812H503.30511474609375Z"/></g>
    <g transform="translate(6419, 0)"><path d="M391.26629638671875 0V174.73370361328125L547.4805908203125 205.20123291015625V1231.1234741210938H282.25323486328125L265.59088134765625 1056.8831787109375H45.4156494140625V1456H1343.6298217773438V1056.8831787109375H1122.3701782226562L1105.9415893554688 1231.1234741210938H839.48046875V205.20123291015625L995.6947631835938 174.73370361328125V0Z"/></g>
    <g transform="translate(7808, 0)"><path d="M775.9739990234375 -21Q602.532470703125 -21 471.2695007324219 38.925323486328125Q340.00653076171875 98.85064697265625 267.07147216796875 212.97726440429688Q194.13641357421875 327.1038818359375 194.13641357421875 489.9739990234375V1249.7987670898438L39.1558837890625 1280.2662963867188V1456H641.7337036132812V1280.2662963867188L486.13629150390625 1249.7987670898438V489.9739990234375Q486.13629150390625 393.92852783203125 521.1590270996094 330.1070861816406Q556.1817626953125 266.28564453125 621.2369689941406 234.64602661132812Q686.2921752929688 203.00640869140625 775.8895874023438 203.00640869140625Q867.7207641601562 203.00640869140625 933.3506469726562 234.4544677734375Q998.9805297851562 265.90252685546875 1034.0779418945312 329.7239685058594Q1069.1753540039062 393.54541015625 1069.1753540039062 489.9739990234375V1249.7987670898438L914.19482421875 1280.2662963867188V1456H1516.7726440429688V1280.2662963867188L1361.1752319335938 1249.7987670898438V489.9739990234375Q1361.1752319335938 327.0389404296875 1287.5810852050781 212.6038818359375Q1213.9869384765625 98.1688232421875 1082.5746154785156 38.58441162109375Q951.1622924804688 -21 775.9739990234375 -21Z"/></g>
    <g transform="translate(9363, 0)"><path d="M55.70782470703125 0V174.73370361328125L211.30523681640625 205.20123291015625V1249.7987670898438L55.70782470703125 1280.2662963867188V1456.2337646484375H746.0389404296875Q913.67529296875 1456.2337646484375 1033.9707336425781 1404.1071472167969Q1154.2661743164062 1351.9805297851562 1218.6687622070312 1254.8863830566406Q1283.0713500976562 1157.792236328125 1283.0713500976562 1022.2402954101562Q1283.0713500976562 894.2402954101562 1218.9349975585938 793.052001953125Q1154.7986450195312 691.8637084960938 1041.077880859375 633.7922973632812Q927.3571166992188 575.7208862304688 778.1038818359375 575.1884155273438L503.30511474609375 574.7403564453125V205.20123291015625L658.9025268554688 174.73370361328125V0ZM992.6494140625 0 747.6103515625 628.9157104492188 1011.233642578125 693.8377075195312 1223.48046875 203.753173828125 1347.3051147460938 175.26617431640625V0ZM503.30511474609375 800.06494140625H740.8441162109375Q866.9805297851562 800.06494140625 929.6428833007812 853.5032653808594Q992.3052368164062 906.9415893554688 992.3052368164062 1008.8182373046875Q992.3052368164062 1110.246826171875 930.1753540039062 1170.7695617675781Q868.0454711914062 1231.2922973632812 746.0389404296875 1231.2922973632812H503.30511474609375Z"/></g>
    <g transform="translate(10771, 0)"><path d="M55.857177734375 0V174.73370361328125L210.83770751953125 205.20123291015625V1249.7987670898438L55.857177734375 1280.2662963867188V1456H210.83770751953125H507.30511474609375L1141.1104125976562 446.22711181640625L1147.1104125976562 446.99334716796875V1249.7987670898438L960.7078247070312 1280.2662963867188V1456H1408.3051147460938H1563.9025268554688V1280.2662963867188L1408.3051147460938 1249.7987670898438V0H1125.9026489257812L478.03240966796875 999.7339477539062L472.03240966796875 998.9677124023438V205.20123291015625L659.0518798828125 174.73370361328125V0Z"/></g>
  </g>
</svg>