<?xml version="1.0" encoding="UTF-8"?>
<svg xmlns="http://www.w3.org/2000/svg" viewBox="0 0 164.6 17.9">
  <!-- Text: BookEx Reference -->
  <g transform="translate(2, 15.21875) scale(0.017578125, -0.017578125)"
     fill="#000000">
    <g transform="translate(0, 0)"><path d="M83 483Q41 500 13.5 531.0Q-14 562 -31 604Q-21 631 1.0 649.5Q23 668 50.5 681.0Q78 694 109.0 702.0Q140 710 169 716Q175 714 175.0 716.0Q175 718 180 714Q216 725 263.0 735.5Q310 746 363 743Q370 747 380.0 747.5Q390 748 401.0 748.0Q412 748 422.0 748.5Q432 749 439 752Q445 745 457.0 743.5Q469 742 482 733Q486 732 482.0 736.5Q478 741 483 743Q496 743 506.0 737.0Q516 731 524.5 723.5Q533 716 540.5 710.0Q548 704 557 704Q566 693 578.5 683.5Q591 674 602.5 664.0Q614 654 621.5 642.0Q629 630 629 615Q628 609 633.0 608.0Q638 607 640 602Q641 565 628.5 538.0Q616 511 597.0 488.5Q578 466 556.5 446.0Q535 426 517 403Q529 388 544.5 375.5Q560 363 576.0 351.0Q592 339 606.5 325.5Q621 312 631 295Q634 289 644 287Q647 275 652.5 262.5Q658 250 663.0 238.5Q668 227 669.0 218.0Q670 209 664 203Q671 199 672.0 190.5Q673 182 672 177Q650 150 642.0 139.0Q634 128 630.0 123.0Q626 118 622.0 114.0Q618 110 604 98Q551 66 493.5 40.5Q436 15 374 6Q369 -1 359.5 -5.5Q350 -10 338.0 -13.0Q326 -16 312.5 -18.0Q299 -20 288 -22Q283 -20 282.5 -15.5Q282 -11 277 -9Q276 -21 266.5 -21.5Q257 -22 243.0 -17.0Q229 -12 214.0 -3.0Q199 6 188 14Q183 5 175.5 -5.0Q168 -15 160 -19Q146 -17 139.5 -16.0Q133 -15 127 -21Q119 -17 115.0 -12.5Q111 -8 107.0 -3.5Q103 1 98.0 4.5Q93 8 83 11Q85 16 80.0 26.5Q75 37 66 39Q71 47 62.0 59.5Q53 72 48 88Q49 95 49.5 102.5Q50 110 51.5 116.5Q53 123 56.0 128.0Q59 133 66 135Q65 148 58 160Q67 167 70.0 177.5Q73 188 75.5 199.0Q78 210 82.0 220.5Q86 231 95 238Q93 241 91.0 243.0Q89 245 89 250Q104 275 110.0 292.5Q116 310 119.5 326.5Q123 343 127.0 362.0Q131 381 143 410Q142 428 147.0 442.0Q152 456 157.5 469.5Q163 483 166.0 498.0Q169 513 165 533Q148 531 140.5 521.0Q133 511 131 494Q122 486 108.0 486.5Q94 487 83 483ZM523 290Q485 311 453.5 315.0Q422 319 393.5 314.5Q365 310 339.0 302.0Q313 294 287 290Q274 256 260.0 215.0Q246 174 233 135Q269 140 299.0 150.0Q329 160 357.0 172.5Q385 185 412.0 197.5Q439 210 468 221Q471 233 481.0 240.0Q491 247 501.0 253.5Q511 260 518.0 268.0Q525 276 523 290ZM453 603Q391 605 331.0 592.0Q271 579 230 554Q250 537 271.5 524.0Q293 511 304 489Q352 508 388.0 537.5Q424 567 453 603Z"/></g>
      <g transform="translate(703, 0)"><path d="M583 300Q582 288 585.0 277.0Q588 266 592.5 255.5Q597 245 601.0 234.0Q605 223 607 212Q609 198 607.0 181.5Q605 165 600.0 149.5Q595 134 587.0 121.5Q579 109 568 103Q554 85 534.0 75.0Q514 65 497 51Q486 44 472.5 41.0Q459 38 445 35Q434 29 419.0 22.5Q404 16 388.0 10.5Q372 5 356.0 2.5Q340 0 328 1Q298 -10 269.5 -13.5Q241 -17 203 -9Q167 -14 136.5 -6.0Q106 2 82.5 19.5Q59 37 41.5 61.5Q24 86 13 113Q5 170 17.0 216.5Q29 263 51.5 302.5Q74 342 103.0 375.5Q132 409 159 441Q165 439 168.5 441.5Q172 444 175.0 448.5Q178 453 181.5 457.0Q185 461 190 462Q197 477 210.5 484.5Q224 492 232 506Q241 508 247.0 512.0Q253 516 258.5 521.0Q264 526 270.0 530.5Q276 535 284 537V548Q302 556 310.5 566.5Q319 577 331 592Q340 593 345.5 593.0Q351 593 362 595Q370 609 376.5 616.0Q383 623 396 631Q408 625 422.5 623.0Q437 621 448 610Q449 600 454.0 594.5Q459 589 465.0 584.5Q471 580 476.5 575.0Q482 570 484 561Q488 560 489.5 562.0Q491 564 495 563Q498 549 502.0 544.5Q506 540 510 527Q505 517 502.5 506.5Q500 496 490 491Q489 484 494.0 483.5Q499 483 500 478Q501 469 497 465Q521 426 540.0 382.5Q559 339 583 300ZM458 205Q462 216 468.5 223.0Q475 230 476 244Q471 252 470.0 256.5Q469 261 469 271Q447 302 431.0 337.5Q415 373 395 404Q393 400 388.0 396.0Q383 392 377 398Q375 390 370.0 386.5Q365 383 359.0 383.5Q353 384 346.5 386.5Q340 389 335 393Q306 370 277.0 348.0Q248 326 225 297Q221 295 220.0 295.5Q219 296 214 294Q206 275 194.5 259.5Q183 244 172.0 228.0Q161 212 153.0 194.0Q145 176 144 152Q161 138 184.0 135.0Q207 132 231.5 134.0Q256 136 279.5 140.5Q303 145 323 145Q365 155 395.0 171.5Q425 188 458 205Z"/></g>
      <g transform="translate(1347, 0)"><path d="M583 300Q582 288 585.0 277.0Q588 266 592.5 255.5Q597 245 601.0 234.0Q605 223 607 212Q609 198 607.0 181.5Q605 165 600.0 149.5Q595 134 587.0 121.5Q579 109 568 103Q554 85 534.0 75.0Q514 65 497 51Q486 44 472.5 41.0Q459 38 445 35Q434 29 419.0 22.5Q404 16 388.0 10.5Q372 5 356.0 2.5Q340 0 328 1Q298 -10 269.5 -13.5Q241 -17 203 -9Q167 -14 136.5 -6.0Q106 2 82.5 19.5Q59 37 41.5 61.5Q24 86 13 113Q5 170 17.0 216.5Q29 263 51.5 302.5Q74 342 103.0 375.5Q132 409 159 441Q165 439 168.5 441.5Q172 444 175.0 448.5Q178 453 181.5 457.0Q185 461 190 462Q197 477 210.5 484.5Q224 492 232 506Q241 508 247.0 512.0Q253 516 258.5 521.0Q264 526 270.0 530.5Q276 535 284 537V548Q302 556 310.5 566.5Q319 577 331 592Q340 593 345.5 593.0Q351 593 362 595Q370 609 376.5 616.0Q383 623 396 631Q408 625 422.5 623.0Q437 621 448 610Q449 600 454.0 594.5Q459 589 465.0 584.5Q471 580 476.5 575.0Q482 570 484 561Q488 560 489.5 562.0Q491 564 495 563Q498 549 502.0 544.5Q506 540 510 527Q505 517 502.5 506.5Q500 496 490 491Q489 484 494.0 483.5Q499 483 500 478Q501 469 497 465Q521 426 540.0 382.5Q559 339 583 300ZM458 205Q462 216 468.5 223.0Q475 230 476 244Q471 252 470.0 256.5Q469 261 469 271Q447 302 431.0 337.5Q415 373 395 404Q393 400 388.0 396.0Q383 392 377 398Q375 390 370.0 386.5Q365 383 359.0 383.5Q353 384 346.5 386.5Q340 389 335 393Q306 370 277.0 348.0Q248 326 225 297Q221 295 220.0 295.5Q219 296 214 294Q206 275 194.5 259.5Q183 244 172.0 228.0Q161 212 153.0 194.0Q145 176 144 152Q161 138 184.0 135.0Q207 132 231.5 134.0Q256 136 279.5 140.5Q303 145 323 145Q365 155 395.0 171.5Q425 188 458 205Z"/></g>
      <g transform="translate(1991, 0)"><path d="M603 36Q555 34 518.5 38.0Q482 42 447 57Q445 58 443.0 62.0Q441 66 439 68Q433 71 424.5 70.5Q416 70 410 72Q402 76 385.0 87.5Q368 99 354 109Q336 123 320.0 137.0Q304 151 292 167Q289 171 284.0 171.5Q279 172 275 174Q246 156 226.0 129.0Q206 102 188.0 74.0Q170 46 150.0 21.0Q130 -4 99 -17Q90 -17 83.0 -14.0Q76 -11 70.0 -6.5Q64 -2 58.0 2.0Q52 6 45 8Q45 20 40.5 30.0Q36 40 31.5 49.0Q27 58 25.0 66.5Q23 75 29 83Q23 89 11 96Q17 102 16.5 107.0Q16 112 14.0 117.0Q12 122 10.5 128.0Q9 134 13 140Q18 140 25 142Q19 150 19.5 151.5Q20 153 17 156Q15 162 19.0 163.5Q23 165 27 167Q31 216 44.0 258.0Q57 300 73.0 339.0Q89 378 104.5 418.0Q120 458 130 504Q141 515 147.5 530.0Q154 545 161.5 560.0Q169 575 178.5 589.5Q188 604 205 613Q219 612 230.0 605.5Q241 599 257 600Q260 595 262.5 590.0Q265 585 269 580L284 583Q295 574 303.5 560.5Q312 547 315.0 532.0Q318 517 314.0 503.5Q310 490 295 482Q296 477 295.5 474.5Q295 472 294.0 470.0Q293 468 293.0 466.0Q293 464 296 460Q276 445 266.0 418.0Q256 391 255 370Q267 382 281.5 393.5Q296 405 311.5 416.0Q327 427 341.5 437.0Q356 447 368 457Q401 487 431.5 505.5Q462 524 496 547Q504 549 508.5 547.5Q513 546 518 544Q518 550 514.5 551.0Q511 552 512 559Q527 563 538.0 568.5Q549 574 562 579Q571 570 579.0 560.5Q587 551 601 549Q606 538 613.0 532.5Q620 527 627.0 522.0Q634 517 639.5 510.0Q645 503 646 488Q642 481 637.5 473.0Q633 465 629 454Q609 436 588.5 422.0Q568 408 547.0 395.0Q526 382 504.0 369.0Q482 356 459 338Q454 331 446.5 325.5Q439 320 431.0 314.5Q423 309 416.0 303.0Q409 297 405 289Q402 288 399.0 288.0Q396 288 393 287Q390 280 383.5 276.0Q377 272 375 265Q390 233 414.0 216.0Q438 199 468.0 191.5Q498 184 533.0 183.5Q568 183 606 183Q610 184 609.5 187.5Q609 191 614 190Q638 182 651.0 167.5Q664 153 682 139Q680 101 659.0 76.0Q638 51 603 36Z"/></g>
      <g transform="translate(2652, 0)"><path d="M56 34Q48 42 44.5 53.0Q41 64 28 71Q26 86 22.5 105.5Q19 125 15.5 145.5Q12 166 10.5 186.5Q9 207 12 224Q14 233 18.5 241.0Q23 249 27.5 256.5Q32 264 34.5 272.0Q37 280 35 288Q41 289 42.5 294.5Q44 300 52 298Q59 320 67.0 339.0Q75 358 84.0 376.0Q93 394 102.5 412.5Q112 431 120 454Q103 470 95.5 488.5Q88 507 84.0 526.0Q80 545 78.0 564.5Q76 584 70 604Q82 622 99.0 633.5Q116 645 136.5 652.5Q157 660 181.0 664.5Q205 669 232 675Q280 690 318.0 698.5Q356 707 392.0 712.5Q428 718 467.0 722.5Q506 727 557 736Q558 733 560.5 733.0Q563 733 567 733Q570 726 578 726Q578 729 577.5 731.5Q577 734 577 736Q579 736 582.5 735.0Q586 734 588.5 733.0Q591 732 593.0 733.5Q595 735 594 740Q606 719 625.0 705.5Q644 692 667 682Q668 673 667.5 669.0Q667 665 666.0 661.5Q665 658 665.0 653.5Q665 649 667 641Q651 614 630.5 599.0Q610 584 587.0 576.0Q564 568 538.5 564.0Q513 560 486.5 555.5Q460 551 433.0 543.0Q406 535 380 519Q372 522 365.5 521.5Q359 521 352.0 519.0Q345 517 336.5 515.0Q328 513 316 515Q308 508 297.5 505.0Q287 502 276 499Q281 488 280.5 477.0Q280 466 283 458Q325 454 376.0 458.5Q427 463 476 465Q477 460 475.0 458.0Q473 456 473 451Q482 445 490.0 436.0Q498 427 506.5 418.5Q515 410 524.0 404.5Q533 399 545 400Q550 390 552.0 379.0Q554 368 549 356Q529 343 510.0 329.5Q491 316 470.5 305.0Q450 294 426.0 287.0Q402 280 374 281Q369 281 365.5 281.0Q362 281 357 285Q347 280 330.5 281.5Q314 283 303 278Q289 283 270.5 283.0Q252 283 238 288Q220 262 204.0 233.5Q188 205 176 173Q217 167 244.0 168.0Q271 169 295.0 172.0Q319 175 344.5 178.0Q370 181 407 180Q432 192 464.5 196.5Q497 201 525 210Q535 207 542.0 198.5Q549 190 555.5 181.5Q562 173 569.0 167.0Q576 161 587 163Q592 158 593.5 151.0Q595 144 596.5 138.0Q598 132 601.0 128.5Q604 125 612 126Q593 87 569.5 66.0Q546 45 516.5 33.5Q487 22 450.5 16.5Q414 11 369 3Q358 1 350.5 3.5Q343 6 335 6Q307 1 268.5 -4.0Q230 -9 191.0 -8.0Q152 -7 116.0 2.0Q80 11 56 34Z"/></g>
      <g transform="translate(3294, 0)"><path d="M347 26Q332 76 303.5 122.0Q275 168 249 201Q208 170 171.5 132.5Q135 95 105 52Q103 31 100.0 17.5Q97 4 89.5 -5.0Q82 -14 70.5 -20.5Q59 -27 41 -34Q8 -10 -7.0 25.5Q-22 61 -11 96Q-10 121 1.5 145.0Q13 169 29.5 190.5Q46 212 65.0 231.5Q84 251 101 268Q104 278 112.5 285.5Q121 293 130.5 300.0Q140 307 149.5 315.0Q159 323 165 334Q158 357 138.0 380.5Q118 404 101 429Q99 434 93.5 432.0Q88 430 86 433Q88 446 80.5 461.0Q73 476 62 487Q65 498 69.0 513.5Q73 529 67 548Q67 556 70.0 563.5Q73 571 76.0 577.5Q79 584 81.0 590.5Q83 597 80 603Q93 605 103.0 602.0Q113 599 122.0 595.0Q131 591 138.5 589.0Q146 587 154 590Q153 585 154.0 583.0Q155 581 157.0 580.0Q159 579 161.0 577.5Q163 576 163 573Q179 568 198.0 551.5Q217 535 234.5 515.0Q252 495 266.0 475.0Q280 455 287 445Q311 460 339.0 480.5Q367 501 397.0 523.0Q427 545 457.5 564.5Q488 584 517 596Q534 588 543.5 576.5Q553 565 559.5 552.5Q566 540 571.0 526.5Q576 513 585 503Q577 486 567.5 474.5Q558 463 554 448Q533 439 504 421Q478 405 440.5 378.0Q403 351 350 306Q362 292 370.0 279.0Q378 266 383 257Q388 246 392 237Q401 230 407.0 221.0Q413 212 418.5 202.5Q424 193 431.0 184.5Q438 176 449 171Q455 141 466.0 117.5Q477 94 476 69Q469 46 455.5 31.0Q442 16 436 0Q427 -3 418.0 -6.0Q409 -9 404 -15Z"/></g>
      <g transform="translate(4213, 0)"><path d="M28 86Q23 85 19.0 93.5Q15 102 10 110H21Q14 132 17.5 150.5Q21 169 26.0 186.5Q31 204 34.5 220.5Q38 237 31 255Q36 252 38.5 257.5Q41 263 42.5 271.5Q44 280 43.5 289.5Q43 299 42 305Q55 336 62.5 369.0Q70 402 76.0 434.5Q82 467 89.5 497.5Q97 528 109 555Q123 557 138.5 551.5Q154 546 159 538Q190 562 214.0 596.0Q238 630 262.5 662.5Q287 695 318.0 720.0Q349 745 395 750Q419 733 449.0 713.5Q479 694 498 665Q506 660 513.5 654.5Q521 649 529 644V629Q543 616 552.5 598.5Q562 581 569.5 561.5Q577 542 584.0 522.0Q591 502 600 485Q598 479 598.5 474.5Q599 470 600.5 465.5Q602 461 603.0 455.5Q604 450 604 442Q600 389 569.5 356.5Q539 324 495.5 303.5Q452 283 403.0 268.5Q354 254 314 237Q314 233 318.5 233.0Q323 233 321 227Q351 209 367.5 198.0Q384 187 398.5 179.5Q413 172 430.5 167.0Q448 162 479 155Q510 148 527.5 143.5Q545 139 559.0 136.5Q573 134 589.0 132.0Q605 130 632 127Q643 116 650.0 101.0Q657 86 660.0 71.0Q663 56 661.5 42.5Q660 29 653 21Q654 17 658.5 17.5Q663 18 668 17Q661 12 656.0 5.0Q651 -2 646.0 -9.0Q641 -16 634.5 -22.0Q628 -28 618 -29Q582 -43 526.0 -30.0Q470 -17 383 16Q340 32 313.0 45.0Q286 58 266.0 70.5Q246 83 229.0 97.5Q212 112 190 132Q187 131 186.5 128.0Q186 125 183 124Q178 84 167.5 59.0Q157 34 137 8Q121 11 115.5 5.0Q110 -1 102 -6Q92 -8 87.0 -5.5Q82 -3 78.0 0.0Q74 3 69.0 6.0Q64 9 53 8Q50 17 47.0 25.5Q44 34 31 33Q34 42 33.0 48.5Q32 55 30.0 60.5Q28 66 26.5 72.0Q25 78 28 86ZM362 543Q349 524 333.0 508.5Q317 493 301.5 476.5Q286 460 274.0 440.5Q262 421 257 394Q299 399 345.0 417.5Q391 436 432 453Q427 490 406.0 512.5Q385 535 362 543Z"/></g>
      <g transform="translate(4875, 0)"><path d="M558 563Q559 556 558.5 552.5Q558 549 557.5 546.0Q557 543 557.0 539.5Q557 536 559 529Q538 495 510.5 482.5Q483 470 451.0 464.5Q419 459 385.5 453.0Q352 447 319 427Q306 432 295.5 427.0Q285 422 265 424Q259 418 250.0 415.5Q241 413 232 410Q236 401 235.5 391.5Q235 382 238 376Q273 373 315.5 377.0Q358 381 399 382Q400 377 398.0 375.5Q396 374 397 370Q404 365 411.0 357.5Q418 350 425.0 343.0Q432 336 439.5 331.5Q447 327 457 328Q461 320 462.5 310.5Q464 301 460 291Q444 280 428.0 268.5Q412 257 394.5 248.0Q377 239 357.5 233.5Q338 228 314 229Q309 229 306.5 229.0Q304 229 300 232Q292 227 277.5 229.0Q263 231 255 226Q244 231 228.5 230.5Q213 230 201 234Q185 213 172.0 189.0Q159 165 149 138Q183 133 205.5 134.0Q228 135 248.0 137.5Q268 140 289.0 142.5Q310 145 342 144Q362 155 389.5 158.5Q417 162 440 170Q448 167 454.0 159.5Q460 152 465.5 145.5Q471 139 477.0 134.0Q483 129 492 130Q496 126 497.5 120.5Q499 115 500.0 110.0Q501 105 503.5 101.5Q506 98 512 99Q497 66 477.5 48.5Q458 31 433.0 22.0Q408 13 377.5 8.0Q347 3 310 -4Q301 -6 295.0 -3.5Q289 -1 281 -1Q258 -6 226.0 -10.0Q194 -14 161.0 -13.0Q128 -12 98.0 -4.5Q68 3 49 22Q41 29 38.5 38.5Q36 48 25 53Q24 66 21.0 82.0Q18 98 15.0 115.5Q12 133 10.5 150.0Q9 167 12 181Q15 196 24.5 208.0Q34 220 31 234Q36 235 37.0 239.5Q38 244 45 243Q51 261 58.0 277.0Q65 293 72.5 308.0Q80 323 87.5 338.5Q95 354 102 373Q88 386 81.5 401.5Q75 417 72.0 432.5Q69 448 67.0 464.5Q65 481 60 498Q70 513 84.5 522.5Q99 532 116.0 538.0Q133 544 153.0 548.0Q173 552 195 557Q235 570 266.5 577.0Q298 584 328.5 588.5Q359 593 392.0 597.0Q425 601 467 609Q476 600 484 600Q488 609 493.5 605.5Q499 602 498 611Q508 594 523.5 582.5Q539 571 558 563Z"/></g>
      <g transform="translate(5409, 0)"><path d="M140 34Q134 0 106 -13Q93 -14 86.5 -12.0Q80 -10 73 -7Q64 -3 57 -2L46 6Q44 11 41.0 16.0Q38 21 34 26Q26 36 18 51Q12 80 16.0 99.5Q20 119 26 138Q28 144 30.0 150.5Q32 157 34 163Q8 177 -5.0 203.0Q-18 229 -20 253Q-17 272 -9.0 283.5Q-1 295 9.5 302.0Q20 309 31.5 313.0Q43 317 54 320L67 315Q76 306 85 301Q92 304 94.5 310.5Q97 317 99 325Q102 334 105.5 343.0Q109 352 114 361Q113 374 118 385Q111 390 103 391Q101 391 93 393Q81 402 76.5 408.5Q72 415 68 421Q62 434 53 442L43 449L48 459Q50 461 50.0 464.0Q50 467 46 473Q44 484 46 488L48 498Q56 509 56 510L65 519Q85 524 104.5 530.5Q124 537 144 544Q163 550 182.5 556.5Q202 563 222 568Q229 573 237.0 574.5Q245 576 252 577Q258 578 263.0 578.5Q268 579 270 582Q282 586 298 591Q323 598 364.0 606.5Q405 615 456 620L473 621Q478 620 483.0 620.5Q488 621 493 621Q538 621 550 594Q559 589 566.0 583.0Q573 577 579 571Q582 567 585.5 564.0Q589 561 591 560Q608 534 602 514Q593 501 579 499L568 493Q557 494 551.5 494.0Q546 494 540 494Q515 494 482.0 491.0Q449 488 414.5 482.5Q380 477 348.0 469.0Q316 461 292 452L274 443Q267 432 266.0 425.5Q265 419 264 413Q263 409 262.5 405.0Q262 401 261 396Q244 375 244 346Q237 334 235.0 328.5Q233 323 235 315Q254 307 271.0 309.0Q288 311 305 314Q328 318 352.5 321.0Q377 324 403 324H435L427 316L432 302Q438 299 440.5 298.0Q443 297 446 295L451 286Q455 284 458.5 279.0Q462 274 463 264L422 206L408 202Q391 203 378 198Q371 196 364.0 194.5Q357 193 349 193Q329 189 315.5 187.0Q302 185 288 183Q270 181 253.0 177.5Q236 174 221 168Q211 168 207 168Q199 168 190.5 165.5Q182 163 175 161Q170 157 168.0 152.5Q166 148 164 143Q160 129 153 120V105Q145 95 143.5 89.5Q142 84 140 79Q138 76 137.0 73.5Q136 71 136 68Q144 53 140 34Z"/></g>
      <g transform="translate(5875, 0)"><path d="M558 563Q559 556 558.5 552.5Q558 549 557.5 546.0Q557 543 557.0 539.5Q557 536 559 529Q538 495 510.5 482.5Q483 470 451.0 464.5Q419 459 385.5 453.0Q352 447 319 427Q306 432 295.5 427.0Q285 422 265 424Q259 418 250.0 415.5Q241 413 232 410Q236 401 235.5 391.5Q235 382 238 376Q273 373 315.5 377.0Q358 381 399 382Q400 377 398.0 375.5Q396 374 397 370Q404 365 411.0 357.5Q418 350 425.0 343.0Q432 336 439.5 331.5Q447 327 457 328Q461 320 462.5 310.5Q464 301 460 291Q444 280 428.0 268.5Q412 257 394.5 248.0Q377 239 357.5 233.5Q338 228 314 229Q309 229 306.5 229.0Q304 229 300 232Q292 227 277.5 229.0Q263 231 255 226Q244 231 228.5 230.5Q213 230 201 234Q185 213 172.0 189.0Q159 165 149 138Q183 133 205.5 134.0Q228 135 248.0 137.5Q268 140 289.0 142.5Q310 145 342 144Q362 155 389.5 158.5Q417 162 440 170Q448 167 454.0 159.5Q460 152 465.5 145.5Q471 139 477.0 134.0Q483 129 492 130Q496 126 497.5 120.5Q499 115 500.0 110.0Q501 105 503.5 101.5Q506 98 512 99Q497 66 477.5 48.5Q458 31 433.0 22.0Q408 13 377.5 8.0Q347 3 310 -4Q301 -6 295.0 -3.5Q289 -1 281 -1Q258 -6 226.0 -10.0Q194 -14 161.0 -13.0Q128 -12 98.0 -4.5Q68 3 49 22Q41 29 38.5 38.5Q36 48 25 53Q24 66 21.0 82.0Q18 98 15.0 115.5Q12 133 10.5 150.0Q9 167 12 181Q15 196 24.5 208.0Q34 220 31 234Q36 235 37.0 239.5Q38 244 45 243Q51 261 58.0 277.0Q65 293 72.5 308.0Q80 323 87.5 338.5Q95 354 102 373Q88 386 81.5 401.5Q75 417 72.0 432.5Q69 448 67.0 464.5Q65 481 60 498Q70 513 84.5 522.5Q99 532 116.0 538.0Q133 544 153.0 548.0Q173 552 195 557Q235 570 266.5 577.0Q298 584 328.5 588.5Q359 593 392.0 597.0Q425 601 467 609Q476 600 484 600Q488 609 493.5 605.5Q499 602 498 611Q508 594 523.5 582.5Q539 571 558 563Z"/></g>
      <g transform="translate(6409, 0)"><path d="M161 104Q150 64 141.5 43.5Q133 23 116 1Q103 3 98.0 -2.0Q93 -7 87 -11Q78 -13 74.0 -11.0Q70 -9 67.0 -6.5Q64 -4 59.5 -1.5Q55 1 46 1Q44 9 41.5 16.0Q39 23 28 21Q30 29 29.0 34.5Q28 40 26.5 44.5Q25 49 24.0 53.5Q23 58 25 65Q20 65 17.0 72.0Q14 79 10 86Q13 104 16.0 120.0Q19 136 23.5 150.0Q28 164 31.0 178.0Q34 192 28 207Q32 204 34.0 208.5Q36 213 37.0 220.5Q38 228 38.0 235.5Q38 243 37 248Q47 274 53.5 301.5Q60 329 65.5 356.0Q71 383 77.0 409.0Q83 435 93 457Q104 459 117.5 454.5Q131 450 134 443Q160 463 180.0 491.5Q200 520 221.0 547.0Q242 574 267.5 595.0Q293 616 332 620Q352 605 376.5 589.5Q401 574 417 549Q425 545 430.5 540.5Q436 536 444 531V519Q456 508 463.5 493.5Q471 479 477.0 462.5Q483 446 489.0 429.5Q495 413 503 398Q501 393 501.0 389.5Q501 386 502.5 382.0Q504 378 505.0 374.0Q506 370 505 363Q502 319 476.5 292.0Q451 265 415.0 247.5Q379 230 338.0 218.0Q297 206 264 192Q264 188 267.5 188.0Q271 188 270 183Q294 168 308.0 159.0Q322 150 334.5 144.0Q347 138 361.5 133.5Q376 129 402 123Q428 117 442.5 113.5Q457 110 469.0 107.5Q481 105 493.5 103.5Q506 102 529 100Q538 91 544.5 78.5Q551 66 553.0 53.5Q555 41 554.0 29.5Q553 18 547 11Q548 8 551.5 8.5Q555 9 559 8Q553 4 549.0 -2.0Q545 -8 541.0 -14.0Q537 -20 532.0 -24.5Q527 -29 518 -30Q487 -42 440.0 -31.5Q393 -21 321 7Q285 21 262.5 31.5Q240 42 223.5 52.5Q207 63 193.5 75.0Q180 87 161 104ZM304 447Q293 431 279.5 418.0Q266 405 253.5 391.5Q241 378 231.0 361.5Q221 345 217 323Q252 327 290.0 342.5Q328 358 362 372Q358 403 340.5 422.0Q323 441 304 447Z"/></g>
      <g transform="translate(6963, 0)"><path d="M558 563Q559 556 558.5 552.5Q558 549 557.5 546.0Q557 543 557.0 539.5Q557 536 559 529Q538 495 510.5 482.5Q483 470 451.0 464.5Q419 459 385.5 453.0Q352 447 319 427Q306 432 295.5 427.0Q285 422 265 424Q259 418 250.0 415.5Q241 413 232 410Q236 401 235.5 391.5Q235 382 238 376Q273 373 315.5 377.0Q358 381 399 382Q400 377 398.0 375.5Q396 374 397 370Q404 365 411.0 357.5Q418 350 425.0 343.0Q432 336 439.5 331.5Q447 327 457 328Q461 320 462.5 310.5Q464 301 460 291Q444 280 428.0 268.5Q412 257 394.5 248.0Q377 239 357.5 233.5Q338 228 314 229Q309 229 306.5 229.0Q304 229 300 232Q292 227 277.5 229.0Q263 231 255 226Q244 231 228.5 230.5Q213 230 201 234Q185 213 172.0 189.0Q159 165 149 138Q183 133 205.5 134.0Q228 135 248.0 137.5Q268 140 289.0 142.5Q310 145 342 144Q362 155 389.5 158.5Q417 162 440 170Q448 167 454.0 159.5Q460 152 465.5 145.5Q471 139 477.0 134.0Q483 129 492 130Q496 126 497.5 120.5Q499 115 500.0 110.0Q501 105 503.5 101.5Q506 98 512 99Q497 66 477.5 48.5Q458 31 433.0 22.0Q408 13 377.5 8.0Q347 3 310 -4Q301 -6 295.0 -3.5Q289 -1 281 -1Q258 -6 226.0 -10.0Q194 -14 161.0 -13.0Q128 -12 98.0 -4.5Q68 3 49 22Q41 29 38.5 38.5Q36 48 25 53Q24 66 21.0 82.0Q18 98 15.0 115.5Q12 133 10.5 150.0Q9 167 12 181Q15 196 24.5 208.0Q34 220 31 234Q36 235 37.0 239.5Q38 244 45 243Q51 261 58.0 277.0Q65 293 72.5 308.0Q80 323 87.5 338.5Q95 354 102 373Q88 386 81.5 401.5Q75 417 72.0 432.5Q69 448 67.0 464.5Q65 481 60 498Q70 513 84.5 522.5Q99 532 116.0 538.0Q133 544 153.0 548.0Q173 552 195 557Q235 570 266.5 577.0Q298 584 328.5 588.5Q359 593 392.0 597.0Q425 601 467 609Q476 600 484 600Q488 609 493.5 605.5Q499 602 498 611Q508 594 523.5 582.5Q539 571 558 563Z"/></g>
      <g transform="translate(7497, 0)"><path d="M205 182Q196 180 192.0 171.5Q188 163 184.5 154.0Q181 145 177.5 137.5Q174 130 167 130Q166 122 161.5 116.0Q157 110 153.0 103.5Q149 97 147.0 89.5Q145 82 149 72Q141 66 139.0 55.0Q137 44 134.5 34.0Q132 24 126.0 17.0Q120 10 104 11Q101 7 103.0 6.0Q105 5 106 -1Q95 1 89.5 -2.5Q84 -6 76 -7Q57 -1 44.5 14.0Q32 29 22.5 47.5Q13 66 5.5 85.0Q-2 104 -9 118Q-6 129 -8.0 139.5Q-10 150 -15 157Q34 261 92.0 379.0Q150 497 202 612Q225 603 247.5 591.5Q270 580 288.5 565.0Q307 550 320.0 530.5Q333 511 337 487Q335 481 332.5 482.5Q330 484 328 481Q332 476 332.5 474.0Q333 472 332.5 470.0Q332 468 332.0 464.5Q332 461 335 455Q331 456 329.5 454.0Q328 452 323 454Q327 443 325.5 436.0Q324 429 321.0 423.5Q318 418 316.0 411.5Q314 405 317 395Q314 395 312.5 393.5Q311 392 310.0 390.5Q309 389 307.5 387.5Q306 386 303 387Q306 365 305.0 343.0Q304 321 303.5 298.5Q303 276 304.0 251.5Q305 227 311 201Q347 222 368.5 255.0Q390 288 403.5 329.0Q417 370 424.0 417.0Q431 464 439 513Q448 522 453.0 535.0Q458 548 462.0 562.5Q466 577 470.0 591.5Q474 606 480 618Q495 616 505.5 608.5Q516 601 525.0 592.5Q534 584 544.0 576.5Q554 569 569 567Q581 550 591.0 534.0Q601 518 604 500Q599 492 596.5 482.0Q594 472 591.0 462.0Q588 452 583.0 443.5Q578 435 569 429Q566 403 561.5 381.5Q557 360 552.5 339.0Q548 318 545.0 295.5Q542 273 543 246Q535 223 526.0 197.0Q517 171 512 150Q496 137 487.0 119.0Q478 101 468 83Q464 79 463.0 81.0Q462 83 456 84Q457 80 456.0 78.0Q455 76 453.5 74.5Q452 73 451.5 70.0Q451 67 453 62Q439 56 428.0 45.0Q417 34 404.5 25.0Q392 16 374.5 13.0Q357 10 329 20Q288 50 256.5 89.0Q225 128 205 182Z"/></g>
      <g transform="translate(8075, 0)"><path d="M416 -2Q400 -3 376.5 -1.0Q353 1 333 -8Q280 -6 225.0 5.0Q170 16 124 32Q114 43 104.0 52.5Q94 62 77 66Q53 85 38.0 112.5Q23 140 14.0 171.0Q5 202 2.0 234.5Q-1 267 0 297Q15 342 42.5 374.5Q70 407 99 439Q112 445 118.5 451.5Q125 458 132.5 463.5Q140 469 147.5 474.5Q155 480 161 488Q182 493 197.5 502.5Q213 512 228.0 522.5Q243 533 259.0 542.0Q275 551 296 556Q304 565 315.0 570.5Q326 576 337.5 581.5Q349 587 359.5 593.0Q370 599 376 609Q381 601 390.0 603.5Q399 606 407 609Q412 610 415.5 607.0Q419 604 422.0 601.0Q425 598 427.5 597.5Q430 597 432 602Q437 602 435.0 597.0Q433 592 432 590Q440 591 445.5 586.5Q451 582 463 581Q467 576 465.0 573.5Q463 571 463 565Q493 556 501.0 536.5Q509 517 502.0 496.0Q495 475 477.0 457.0Q459 439 438 433Q390 420 347.5 404.5Q305 389 278 359Q254 352 235.5 340.5Q217 329 200.5 314.5Q184 300 169.5 284.5Q155 269 139 254Q140 240 134.5 232.5Q129 225 124 217Q126 202 131.0 190.5Q136 179 142 168Q208 148 282.5 143.0Q357 138 432 137Q439 127 448.5 118.5Q458 110 466.0 100.5Q474 91 479.0 79.5Q484 68 481 51Q467 36 450.0 23.5Q433 11 416 -2Z"/></g>
      <g transform="translate(8601, 0)"><path d="M558 563Q559 556 558.5 552.5Q558 549 557.5 546.0Q557 543 557.0 539.5Q557 536 559 529Q538 495 510.5 482.5Q483 470 451.0 464.5Q419 459 385.5 453.0Q352 447 319 427Q306 432 295.5 427.0Q285 422 265 424Q259 418 250.0 415.5Q241 413 232 410Q236 401 235.5 391.5Q235 382 238 376Q273 373 315.5 377.0Q358 381 399 382Q400 377 398.0 375.5Q396 374 397 370Q404 365 411.0 357.5Q418 350 425.0 343.0Q432 336 439.5 331.5Q447 327 457 328Q461 320 462.5 310.5Q464 301 460 291Q444 280 428.0 268.5Q412 257 394.5 248.0Q377 239 357.5 233.5Q338 228 314 229Q309 229 306.5 229.0Q304 229 300 232Q292 227 277.5 229.0Q263 231 255 226Q244 231 228.5 230.5Q213 230 201 234Q185 213 172.0 189.0Q159 165 149 138Q183 133 205.5 134.0Q228 135 248.0 137.5Q268 140 289.0 142.5Q310 145 342 144Q362 155 389.5 158.5Q417 162 440 170Q448 167 454.0 159.5Q460 152 465.5 145.5Q471 139 477.0 134.0Q483 129 492 130Q496 126 497.5 120.5Q499 115 500.0 110.0Q501 105 503.5 101.5Q506 98 512 99Q497 66 477.5 48.5Q458 31 433.0 22.0Q408 13 377.5 8.0Q347 3 310 -4Q301 -6 295.0 -3.5Q289 -1 281 -1Q258 -6 226.0 -10.0Q194 -14 161.0 -13.0Q128 -12 98.0 -4.5Q68 3 49 22Q41 29 38.5 38.5Q36 48 25 53Q24 66 21.0 82.0Q18 98 15.0 115.5Q12 133 10.5 150.0Q9 167 12 181Q15 196 24.5 208.0Q34 220 31 234Q36 235 37.0 239.5Q38 244 45 243Q51 261 58.0 277.0Q65 293 72.5 308.0Q80 323 87.5 338.5Q95 354 102 373Q88 386 81.5 401.5Q75 417 72.0 432.5Q69 448 67.0 464.5Q65 481 60 498Q70 513 84.5 522.5Q99 532 116.0 538.0Q133 544 153.0 548.0Q173 552 195 557Q235 570 266.5 577.0Q298 584 328.5 588.5Q359 593 392.0 597.0Q425 601 467 609Q476 600 484 600Q488 609 493.5 605.5Q499 602 498 611Q508 594 523.5 582.5Q539 571 558 563Z"/></g>
  </g>
</svg>