<?xml version="1.0" encoding="UTF-8"?>
<svg xmlns="http://www.w3.org/2000/svg" viewBox="0 0 84.0 18.1">
  <!-- Text: Overview -->
  <g transform="translate(2, 15.412109375) scale(0.017578125, -0.017578125)"
     fill="#000000">
    <g transform="translate(0.0, 0)"><path d="M241 -4Q197 -10 161.0 0.0Q125 10 96.5 31.0Q68 52 47.5 81.0Q27 110 14 143Q5 211 19.0 266.5Q33 322 60.0 369.0Q87 416 121.5 457.0Q156 498 188 536Q195 533 199.5 536.0Q204 539 207.5 544.0Q211 549 215.5 554.0Q220 559 226 561Q230 570 236.5 576.0Q243 582 250.5 587.5Q258 593 264.5 599.0Q271 605 276 614Q286 616 293.5 621.0Q301 626 307.5 632.0Q314 638 321.0 643.0Q328 648 338 651V664Q360 674 370.0 686.0Q380 698 394 717Q405 718 411.5 718.0Q418 718 432 720Q441 737 449.0 745.0Q457 753 472 763Q487 755 504.0 753.5Q521 752 535 738Q536 726 542.0 719.5Q548 713 555.0 707.5Q562 702 569.0 696.0Q576 690 578 679Q583 679 584.5 681.0Q586 683 591 682Q593 674 595.0 669.0Q597 664 599.5 660.0Q602 656 604.5 651.0Q607 646 609 639Q604 627 600.0 613.5Q596 600 584 595Q584 587 590.0 586.5Q596 586 597 579Q598 570 594 564Q622 517 645.0 465.5Q668 414 697 367Q695 353 698.5 339.5Q702 326 707.5 313.0Q713 300 718.0 287.0Q723 274 725 261Q727 244 725.0 224.5Q723 205 717.0 187.0Q711 169 701.0 153.5Q691 138 678 130Q662 110 638.0 97.5Q614 85 594 68Q580 60 564.0 56.5Q548 53 531 49Q518 41 500.0 33.5Q482 26 463.0 20.0Q444 14 425.0 10.5Q406 7 391 9Q355 -4 321.0 -9.0Q287 -14 241 -4ZM254 360Q244 337 230.5 318.5Q217 300 204.0 281.0Q191 262 181.5 240.5Q172 219 171 190Q191 173 218.5 169.5Q246 166 275.0 168.5Q304 171 333.0 176.0Q362 181 385 181Q385 190 393 190Q435 194 471.0 213.5Q507 233 546 253Q551 265 559.0 274.0Q567 283 568 300Q563 309 561.5 315.0Q560 321 560 333Q534 369 515.0 411.5Q496 454 471 492Q469 487 463.0 482.0Q457 477 450 484Q447 474 441.0 470.5Q435 467 427.5 467.0Q420 467 412.5 470.0Q405 473 399 478Q364 450 329.5 424.0Q295 398 267 363Q262 360 261.0 361.0Q260 362 254 360Z"/></g>
      <g transform="translate(13.39453125, 0)"><path d="M333 176Q332 162 326.5 149.5Q321 137 313.0 125.5Q305 114 295.5 103.5Q286 93 277 85Q280 72 277.5 65.5Q275 59 276 46Q261 6 230.5 -7.5Q200 -21 173 -2Q162 6 154.5 18.5Q147 31 134 34Q137 51 131.0 68.0Q125 85 118 86Q115 107 109.0 131.0Q103 155 98.0 179.5Q93 204 89.5 227.5Q86 251 87 271Q88 281 83.5 289.0Q79 297 77 308Q73 331 74.5 356.5Q76 382 76 405Q76 427 73.5 452.5Q71 478 69.0 501.5Q67 525 67.0 544.5Q67 564 72 575Q78 587 88.5 594.5Q99 602 108 611Q130 609 143.0 593.0Q156 577 153 563Q174 550 186.5 529.5Q199 509 206.5 483.5Q214 458 217.0 429.5Q220 401 222.0 373.5Q224 346 226.0 321.0Q228 296 234 278Q271 331 296.0 372.5Q321 414 347.0 452.0Q373 490 405.0 529.0Q437 568 488 617Q498 616 504.5 613.0Q511 610 516.0 608.0Q521 606 528.0 604.5Q535 603 547 605Q551 595 553.0 590.5Q555 586 556.5 581.5Q558 577 560.5 570.0Q563 563 569 550Q572 547 571.0 542.0Q570 537 569.5 532.5Q569 528 569.0 526.0Q569 524 574 526Q571 512 563.5 500.5Q556 489 557 473Q534 443 506.5 411.0Q479 379 451.5 345.0Q424 311 399.0 273.5Q374 236 356 195Q351 195 348.5 192.0Q346 189 344.0 185.5Q342 182 339.5 179.0Q337 176 333 176Z"/></g>
      <g transform="translate(22.130859375, 0)"><path d="M558 563Q559 556 558.5 552.5Q558 549 557.5 546.0Q557 543 557.0 539.5Q557 536 559 529Q538 495 510.5 482.5Q483 470 451.0 464.5Q419 459 385.5 453.0Q352 447 319 427Q306 432 295.5 427.0Q285 422 265 424Q259 418 250.0 415.5Q241 413 232 410Q236 401 235.5 391.5Q235 382 238 376Q273 373 315.5 377.0Q358 381 399 382Q400 377 398.0 375.5Q396 374 397 370Q404 365 411.0 357.5Q418 350 425.0 343.0Q432 336 439.5 331.5Q447 327 457 328Q461 320 462.5 310.5Q464 301 460 291Q444 280 428.0 268.5Q412 257 394.5 248.0Q377 239 357.5 233.5Q338 228 314 229Q309 229 306.5 229.0Q304 229 300 232Q292 227 277.5 229.0Q263 231 255 226Q244 231 228.5 230.5Q213 230 201 234Q185 213 172.0 189.0Q159 165 149 138Q183 133 205.5 134.0Q228 135 248.0 137.5Q268 140 289.0 142.5Q310 145 342 144Q362 155 389.5 158.5Q417 162 440 170Q448 167 454.0 159.5Q460 152 465.5 145.5Q471 139 477.0 134.0Q483 129 492 130Q496 126 497.5 120.5Q499 115 500.0 110.0Q501 105 503.5 101.5Q506 98 512 99Q497 66 477.5 48.5Q458 31 433.0 22.0Q408 13 377.5 8.0Q347 3 310 -4Q301 -6 295.0 -3.5Q289 -1 281 -1Q258 -6 226.0 -10.0Q194 -14 161.0 -13.0Q128 -12 98.0 -4.5Q68 3 49 22Q41 29 38.5 38.5Q36 48 25 53Q24 66 21.0 82.0Q18 98 15.0 115.5Q12 133 10.5 150.0Q9 167 12 181Q15 196 24.5 208.0Q34 220 31 234Q36 235 37.0 239.5Q38 244 45 243Q51 261 58.0 277.0Q65 293 72.5 308.0Q80 323 87.5 338.5Q95 354 102 373Q88 386 81.5 401.5Q75 417 72.0 432.5Q69 448 67.0 464.5Q65 481 60 498Q70 513 84.5 522.5Q99 532 116.0 538.0Q133 544 153.0 548.0Q173 552 195 557Q235 570 266.5 577.0Q298 584 328.5 588.5Q359 593 392.0 597.0Q425 601 467 609Q476 600 484 600Q488 609 493.5 605.5Q499 602 498 611Q508 594 523.5 582.5Q539 571 558 563Z"/></g>
      <g transform="translate(31.517578125, 0)"><path d="M161 104Q150 64 141.5 43.5Q133 23 116 1Q103 3 98.0 -2.0Q93 -7 87 -11Q78 -13 74.0 -11.0Q70 -9 67.0 -6.5Q64 -4 59.5 -1.5Q55 1 46 1Q44 9 41.5 16.0Q39 23 28 21Q30 29 29.0 34.5Q28 40 26.5 44.5Q25 49 24.0 53.5Q23 58 25 65Q20 65 17.0 72.0Q14 79 10 86Q13 104 16.0 120.0Q19 136 23.5 150.0Q28 164 31.0 178.0Q34 192 28 207Q32 204 34.0 208.5Q36 213 37.0 220.5Q38 228 38.0 235.5Q38 243 37 248Q47 274 53.5 301.5Q60 329 65.5 356.0Q71 383 77.0 409.0Q83 435 93 457Q104 459 117.5 454.5Q131 450 134 443Q160 463 180.0 491.5Q200 520 221.0 547.0Q242 574 267.5 595.0Q293 616 332 620Q352 605 376.5 589.5Q401 574 417 549Q425 545 430.5 540.5Q436 536 444 531V519Q456 508 463.5 493.5Q471 479 477.0 462.5Q483 446 489.0 429.5Q495 413 503 398Q501 393 501.0 389.5Q501 386 502.5 382.0Q504 378 505.0 374.0Q506 370 505 363Q502 319 476.5 292.0Q451 265 415.0 247.5Q379 230 338.0 218.0Q297 206 264 192Q264 188 267.5 188.0Q271 188 270 183Q294 168 308.0 159.0Q322 150 334.5 144.0Q347 138 361.5 133.5Q376 129 402 123Q428 117 442.5 113.5Q457 110 469.0 107.5Q481 105 493.5 103.5Q506 102 529 100Q538 91 544.5 78.5Q551 66 553.0 53.5Q555 41 554.0 29.5Q553 18 547 11Q548 8 551.5 8.5Q555 9 559 8Q553 4 549.0 -2.0Q545 -8 541.0 -14.0Q537 -20 532.0 -24.5Q527 -29 518 -30Q487 -42 440.0 -31.5Q393 -21 321 7Q285 21 262.5 31.5Q240 42 223.5 52.5Q207 63 193.5 75.0Q180 87 161 104ZM304 447Q293 431 279.5 418.0Q266 405 253.5 391.5Q241 378 231.0 361.5Q221 345 217 323Q252 327 290.0 342.5Q328 358 362 372Q358 403 340.5 422.0Q323 441 304 447Z"/></g>
      <g transform="translate(41.255859375, 0)"><path d="M333 176Q332 162 326.5 149.5Q321 137 313.0 125.5Q305 114 295.5 103.5Q286 93 277 85Q280 72 277.5 65.5Q275 59 276 46Q261 6 230.5 -7.5Q200 -21 173 -2Q162 6 154.5 18.5Q147 31 134 34Q137 51 131.0 68.0Q125 85 118 86Q115 107 109.0 131.0Q103 155 98.0 179.5Q93 204 89.5 227.5Q86 251 87 271Q88 281 83.5 289.0Q79 297 77 308Q73 331 74.5 356.5Q76 382 76 405Q76 427 73.5 452.5Q71 478 69.0 501.5Q67 525 67.0 544.5Q67 564 72 575Q78 587 88.5 594.5Q99 602 108 611Q130 609 143.0 593.0Q156 577 153 563Q174 550 186.5 529.5Q199 509 206.5 483.5Q214 458 217.0 429.5Q220 401 222.0 373.5Q224 346 226.0 321.0Q228 296 234 278Q271 331 296.0 372.5Q321 414 347.0 452.0Q373 490 405.0 529.0Q437 568 488 617Q498 616 504.5 613.0Q511 610 516.0 608.0Q521 606 528.0 604.5Q535 603 547 605Q551 595 553.0 590.5Q555 586 556.5 581.5Q558 577 560.5 570.0Q563 563 569 550Q572 547 571.0 542.0Q570 537 569.5 532.5Q569 528 569.0 526.0Q569 524 574 526Q571 512 563.5 500.5Q556 489 557 473Q534 443 506.5 411.0Q479 379 451.5 345.0Q424 311 399.0 273.5Q374 236 356 195Q351 195 348.5 192.0Q346 189 344.0 185.5Q342 182 339.5 179.0Q337 176 333 176Z"/></g>
      <g transform="translate(49.9921875, 0)"><path d="M212 70Q217 40 208.5 23.0Q200 6 184.5 -2.5Q169 -11 149.0 -12.0Q129 -13 111 -10Q101 4 93.0 25.0Q85 46 78.0 68.5Q71 91 65.5 113.0Q60 135 56 152Q61 164 62.5 179.5Q64 195 64.5 211.0Q65 227 65.5 243.5Q66 260 68 275Q75 317 88.5 355.0Q102 393 110 434Q112 443 108.5 451.0Q105 459 107 466Q108 470 113.0 471.5Q118 473 119 478Q122 489 120.5 496.0Q119 503 124 513Q129 521 136.5 536.5Q144 552 142 569Q151 575 159.0 583.0Q167 591 175.5 597.5Q184 604 194.5 609.0Q205 614 220 614Q228 604 230.5 592.0Q233 580 235.5 568.0Q238 556 243.0 545.5Q248 535 260 529Q260 521 260.0 509.0Q260 497 261.0 485.5Q262 474 265.5 464.5Q269 455 277 452Q259 404 243.5 357.0Q228 310 218.0 262.5Q208 215 205.5 167.0Q203 119 212 70Z"/></g>
      <g transform="translate(55.7578125, 0)"><path d="M558 563Q559 556 558.5 552.5Q558 549 557.5 546.0Q557 543 557.0 539.5Q557 536 559 529Q538 495 510.5 482.5Q483 470 451.0 464.5Q419 459 385.5 453.0Q352 447 319 427Q306 432 295.5 427.0Q285 422 265 424Q259 418 250.0 415.5Q241 413 232 410Q236 401 235.5 391.5Q235 382 238 376Q273 373 315.5 377.0Q358 381 399 382Q400 377 398.0 375.5Q396 374 397 370Q404 365 411.0 357.5Q418 350 425.0 343.0Q432 336 439.5 331.5Q447 327 457 328Q461 320 462.5 310.5Q464 301 460 291Q444 280 428.0 268.5Q412 257 394.5 248.0Q377 239 357.5 233.5Q338 228 314 229Q309 229 306.5 229.0Q304 229 300 232Q292 227 277.5 229.0Q263 231 255 226Q244 231 228.5 230.5Q213 230 201 234Q185 213 172.0 189.0Q159 165 149 138Q183 133 205.5 134.0Q228 135 248.0 137.5Q268 140 289.0 142.5Q310 145 342 144Q362 155 389.5 158.5Q417 162 440 170Q448 167 454.0 159.5Q460 152 465.5 145.5Q471 139 477.0 134.0Q483 129 492 130Q496 126 497.5 120.5Q499 115 500.0 110.0Q501 105 503.5 101.5Q506 98 512 99Q497 66 477.5 48.5Q458 31 433.0 22.0Q408 13 377.5 8.0Q347 3 310 -4Q301 -6 295.0 -3.5Q289 -1 281 -1Q258 -6 226.0 -10.0Q194 -14 161.0 -13.0Q128 -12 98.0 -4.5Q68 3 49 22Q41 29 38.5 38.5Q36 48 25 53Q24 66 21.0 82.0Q18 98 15.0 115.5Q12 133 10.5 150.0Q9 167 12 181Q15 196 24.5 208.0Q34 220 31 234Q36 235 37.0 239.5Q38 244 45 243Q51 261 58.0 277.0Q65 293 72.5 308.0Q80 323 87.5 338.5Q95 354 102 373Q88 386 81.5 401.5Q75 417 72.0 432.5Q69 448 67.0 464.5Q65 481 60 498Q70 513 84.5 522.5Q99 532 116.0 538.0Q133 544 153.0 548.0Q173 552 195 557Q235 570 266.5 577.0Q298 584 328.5 588.5Q359 593 392.0 597.0Q425 601 467 609Q476 600 484 600Q488 609 493.5 605.5Q499 602 498 611Q508 594 523.5 582.5Q539 571 558 563Z"/></g>
      <g transform="translate(65.14453125, 0)"><path d="M563 -13Q528 3 507.5 34.0Q487 65 467 103Q464 109 461.0 115.0Q458 121 455 126L441 152L433 168L421 157L403 141L393 131Q367 107 340.5 83.5Q314 60 284.5 41.5Q255 23 222.5 11.5Q190 0 152 -1L130 10Q111 20 98.0 28.0Q85 36 68 53Q63 62 59.5 70.0Q56 78 52 86Q41 106 34.0 122.0Q27 138 20 158Q23 172 29.0 205.5Q35 239 43.5 279.0Q52 319 61.5 359.5Q71 400 81 430Q90 456 101.5 485.0Q113 514 126.5 538.5Q140 563 156.0 580.5Q172 598 190 601Q195 594 201.0 591.0Q207 588 212 586Q226 566 239.5 552.0Q253 538 271 524Q266 499 256.5 468.5Q247 438 236.5 407.5Q226 377 216.0 348.0Q206 319 200 298Q194 281 190 260Q181 223 173 159Q185 162 199.0 172.0Q213 182 226 193Q241 205 256 220Q275 239 288.0 255.0Q301 271 312.5 288.0Q324 305 336.0 325.5Q348 346 365 374Q380 398 396.5 425.5Q413 453 429.5 478.5Q446 504 462.0 525.0Q478 546 491 558Q499 548 511.5 539.0Q524 530 538 525Q544 516 549.5 508.5Q555 501 560 495Q566 486 571.5 478.0Q577 470 582 462Q581 455 579.0 444.0Q577 433 574.5 420.0Q572 407 569.0 393.5Q566 380 563 368Q555 330 551.0 311.0Q547 292 545.5 281.0Q544 270 543.5 262.5Q543 255 543 242Q542 232 544 222Q545 213 548.0 203.0Q551 193 556 185L596 216Q613 229 628.5 251.5Q644 274 658.5 303.5Q673 333 687.0 368.0Q701 403 715 439Q736 492 757.5 542.0Q779 592 799 619Q821 605 837.5 590.5Q854 576 866.0 559.0Q878 542 885.5 520.0Q893 498 896 468Q878 433 861.5 396.0Q845 359 830 322Q810 274 788.5 226.0Q767 178 741.0 134.5Q715 91 683.0 54.5Q651 18 609 -7Q598 -4 590 -4Q574 -4 563 -13Z"/></g>
  </g>
</svg>