<?xml version="1.0" encoding="UTF-8"?>
<svg xmlns="http://www.w3.org/2000/svg" viewBox="0 0 119.1 17.7">
  <!-- Text: Step-by-Step -->
  <g transform="translate(2, 15.131640625000001) scale(0.017578125, -0.017578125)"
     fill="#000000">
    <g transform="translate(0, 0)"><path d="M13 451Q16 466 17.0 475.5Q18 485 10 496Q14 512 16.5 521.0Q19 530 17 546Q26 572 44.5 590.0Q63 608 85.0 620.5Q107 633 131.0 641.5Q155 650 176 656Q176 660 172.0 660.0Q168 660 170 665Q224 675 278.5 694.0Q333 713 390.0 728.0Q447 743 507.0 746.5Q567 750 633 731Q637 719 644.0 708.0Q651 697 658.5 686.5Q666 676 672.0 666.0Q678 656 679 645Q691 634 698.5 621.5Q706 609 701 588Q690 580 678.0 572.0Q666 564 653 557Q608 568 563.0 565.0Q518 562 482 558Q471 570 456.0 569.5Q441 569 424.5 564.5Q408 560 392.0 555.5Q376 551 362 553Q351 543 333.0 539.5Q315 536 295 534Q294 529 297.0 527.0Q300 525 298 519Q305 510 317.0 506.5Q329 503 341.5 500.0Q354 497 364.0 491.5Q374 486 377 474Q395 473 408.0 464.5Q421 456 430.0 444.0Q439 432 443.0 418.5Q447 405 446 394Q450 384 454.5 386.0Q459 388 465 381Q469 366 483.5 349.5Q498 333 506 314Q508 284 509.5 260.0Q511 236 501 213Q484 169 452.0 134.0Q420 99 379.5 72.5Q339 46 294.0 26.5Q249 7 205 -6Q201 -5 195.5 -6.0Q190 -7 193 0Q184 -8 172.5 -10.0Q161 -12 147.5 -11.5Q134 -11 120.5 -10.0Q107 -9 94 -11Q86 -3 79.5 5.0Q73 13 69 24Q64 25 64.5 30.5Q65 36 60 36Q60 40 61.0 42.0Q62 44 63 46Q67 49 66.5 50.5Q66 52 63.5 53.5Q61 55 58.5 57.0Q56 59 57 62Q62 71 60.5 83.5Q59 96 58.0 109.0Q57 122 60.0 133.5Q63 145 77 153Q118 149 154.5 157.0Q191 165 223.5 179.0Q256 193 285.5 209.5Q315 226 343 240Q346 250 352.5 257.0Q359 264 366.0 270.5Q373 277 379.0 284.5Q385 292 388 303Q389 307 388.0 309.0Q387 311 385.0 312.5Q383 314 381.0 316.0Q379 318 379 322Q376 323 373.5 324.0Q371 325 369 325Q343 338 314.0 347.0Q285 356 265 367Q253 359 241.0 363.0Q229 367 212 371Q170 373 132.5 379.0Q95 385 60 400Q58 406 55.0 410.5Q52 415 41 413Q34 423 26.5 431.5Q19 440 13 451Z"/></g>
      <g transform="translate(590, 0)"><path d="M569 481Q544 481 515.0 477.5Q486 474 458 470Q438 467 419.5 465.0Q401 463 386 462Q379 440 372.0 423.0Q365 406 357 390Q349 373 342.5 355.5Q336 338 330 318Q320 302 313.5 288.5Q307 275 303 258Q291 243 285.0 226.5Q279 210 276 198L272 186Q266 180 265.0 176.5Q264 173 260 170Q259 159 253 148Q251 143 250.0 138.5Q249 134 249 132Q249 122 244 119Q245 114 244.0 108.5Q243 103 242 98Q239 86 240 79Q243 75 245.5 72.0Q248 69 249 64Q255 60 258 59Q262 56 270 52L279 42Q284 13 270 -4Q255 -23 219 -23H207Q202 -18 201 -15Q193 -12 188.0 -10.0Q183 -8 179 -2Q166 4 158 8L149 13Q149 24 149 25Q142 34 138.5 45.0Q135 56 133 67Q131 76 128.5 84.0Q126 92 122 98Q120 156 133.0 196.0Q146 236 160 273Q168 293 176.0 313.5Q184 334 190 356L199 366Q206 382 210.5 392.5Q215 403 220 414Q223 421 225.5 427.5Q228 434 230 439Q224 439 219.0 438.5Q214 438 209 437Q203 436 198.0 435.5Q193 435 188 435Q181 435 178 436Q167 431 154 431H144Q141 431 138.5 431.5Q136 432 134 432Q124 432 118 429Q106 429 95 429H85Q83 429 80.0 428.5Q77 428 75 428Q68 428 60.0 429.5Q52 431 43 436Q31 452 27 453L18 465Q17 471 15.0 476.5Q13 482 11 489Q7 499 3.5 510.5Q0 522 0 538Q1 546 4.0 550.0Q7 554 9 557L12 572L25 571H53Q85 571 118.0 573.5Q151 576 186 579Q206 581 226.5 583.0Q247 585 269 587Q273 596 277 604L287 609Q305 610 312.5 604.5Q320 599 325 594Q347 596 369.5 598.5Q392 601 415 605Q449 610 483.5 614.0Q518 618 550 618Q564 618 577.0 617.0Q590 616 601 614L611 607Q614 601 619.5 596.0Q625 591 631 586Q643 575 655.0 560.0Q667 545 664 516Q656 504 652 502L643 490L633 491Q627 491 622.0 489.5Q617 488 612 486Q608 484 604.0 482.5Q600 481 595 480Q586 480 580.5 480.5Q575 481 569 481Z"/></g>
      <g transform="translate(1081, 0)"><path d="M558 563Q559 556 558.5 552.5Q558 549 557.5 546.0Q557 543 557.0 539.5Q557 536 559 529Q538 495 510.5 482.5Q483 470 451.0 464.5Q419 459 385.5 453.0Q352 447 319 427Q306 432 295.5 427.0Q285 422 265 424Q259 418 250.0 415.5Q241 413 232 410Q236 401 235.5 391.5Q235 382 238 376Q273 373 315.5 377.0Q358 381 399 382Q400 377 398.0 375.5Q396 374 397 370Q404 365 411.0 357.5Q418 350 425.0 343.0Q432 336 439.5 331.5Q447 327 457 328Q461 320 462.5 310.5Q464 301 460 291Q444 280 428.0 268.5Q412 257 394.5 248.0Q377 239 357.5 233.5Q338 228 314 229Q309 229 306.5 229.0Q304 229 300 232Q292 227 277.5 229.0Q263 231 255 226Q244 231 228.5 230.5Q213 230 201 234Q185 213 172.0 189.0Q159 165 149 138Q183 133 205.5 134.0Q228 135 248.0 137.5Q268 140 289.0 142.5Q310 145 342 144Q362 155 389.5 158.5Q417 162 440 170Q448 167 454.0 159.5Q460 152 465.5 145.5Q471 139 477.0 134.0Q483 129 492 130Q496 126 497.5 120.5Q499 115 500.0 110.0Q501 105 503.5 101.5Q506 98 512 99Q497 66 477.5 48.5Q458 31 433.0 22.0Q408 13 377.5 8.0Q347 3 310 -4Q301 -6 295.0 -3.5Q289 -1 281 -1Q258 -6 226.0 -10.0Q194 -14 161.0 -13.0Q128 -12 98.0 -4.5Q68 3 49 22Q41 29 38.5 38.5Q36 48 25 53Q24 66 21.0 82.0Q18 98 15.0 115.5Q12 133 10.5 150.0Q9 167 12 181Q15 196 24.5 208.0Q34 220 31 234Q36 235 37.0 239.5Q38 244 45 243Q51 261 58.0 277.0Q65 293 72.5 308.0Q80 323 87.5 338.5Q95 354 102 373Q88 386 81.5 401.5Q75 417 72.0 432.5Q69 448 67.0 464.5Q65 481 60 498Q70 513 84.5 522.5Q99 532 116.0 538.0Q133 544 153.0 548.0Q173 552 195 557Q235 570 266.5 577.0Q298 584 328.5 588.5Q359 593 392.0 597.0Q425 601 467 609Q476 600 484 600Q488 609 493.5 605.5Q499 602 498 611Q508 594 523.5 582.5Q539 571 558 563Z"/></g>
      <g transform="translate(1615, 0)"><path d="M377 620Q419 615 452.0 603.0Q485 591 508 571Q524 546 538.5 517.0Q553 488 560.5 456.5Q568 425 567.5 392.0Q567 359 553 325Q524 289 482.5 266.5Q441 244 393.0 230.0Q345 216 293.5 206.0Q242 196 193 186Q194 163 193.5 137.5Q193 112 188.5 86.5Q184 61 175.0 37.0Q166 13 151 -7Q134 -7 116.0 -11.5Q98 -16 84 -19Q77 -15 71.5 -11.5Q66 -8 56 -7Q58 3 51.0 13.5Q44 24 37.0 35.0Q30 46 27.5 56.0Q25 66 37 75Q30 82 30 93Q37 105 42.5 126.0Q48 147 51.5 167.5Q55 188 53.0 205.0Q51 222 33 230Q34 232 37.0 232.0Q40 232 43 233Q35 239 33.5 250.0Q32 261 26 269Q28 274 29.0 278.0Q30 282 36 281Q33 299 36.5 315.0Q40 331 47.0 345.5Q54 360 64.0 374.0Q74 388 83 402Q90 403 91.5 400.0Q93 397 98 401Q111 411 116.0 422.0Q121 433 121 447Q128 468 138.0 489.5Q148 511 160.0 529.0Q172 547 186.5 561.0Q201 575 217 582Q229 592 247.0 600.5Q265 609 286.0 613.5Q307 618 328.5 618.5Q350 619 368 614Q373 612 373.5 616.0Q374 620 377 620ZM336 381Q361 392 389.5 398.5Q418 405 437 423Q425 434 402.0 442.5Q379 451 352.0 453.0Q325 455 297.5 448.5Q270 442 250 424Q244 406 240.0 395.5Q236 385 229 370Q231 365 235.5 362.5Q240 360 242 355Q265 367 288.5 368.5Q312 370 336 381Z"/></g>
      <g transform="translate(2152, 0)"><path d="M520 298Q535 296 541.5 291.0Q548 286 550.5 278.5Q553 271 552.0 262.0Q551 253 551 244Q526 227 482.0 220.5Q438 214 390.0 211.5Q342 209 297.0 209.0Q252 209 226 206Q172 200 142.5 194.5Q113 189 102 184Q83 185 72.0 191.0Q61 197 54.0 205.5Q47 214 42.0 225.0Q37 236 30 248Q34 256 32.0 271.0Q30 286 20 294Q28 295 32.0 305.5Q36 316 32 321Q48 325 66.5 326.5Q85 328 103.0 329.0Q121 330 137.5 332.5Q154 335 166 341Q216 342 269.5 344.0Q323 346 370 348Q387 343 410.0 342.5Q433 342 455.0 339.5Q477 337 495.0 328.0Q513 319 520 298Z"/></g>
      <g transform="translate(2776, 0)"><path d="M549 163Q555 160 556.0 153.0Q557 146 556 142Q538 119 531.0 110.0Q524 101 521.0 96.5Q518 92 514.5 89.0Q511 86 499 76Q454 49 406.5 28.0Q359 7 307 -1Q299 -12 276.5 -16.5Q254 -21 235 -25Q231 -23 230.5 -19.5Q230 -16 226 -14Q225 -24 217.0 -24.5Q209 -25 197.5 -20.5Q186 -16 173.5 -8.5Q161 -1 152 5Q147 -3 141.5 -11.0Q136 -19 128 -22Q117 -20 111.5 -19.0Q106 -18 101 -23Q95 -20 91.5 -16.0Q88 -12 84.5 -8.5Q81 -5 76.5 -2.0Q72 1 64 3Q66 7 62.0 15.5Q58 24 50 26Q54 33 46.5 43.5Q39 54 35 67Q37 78 38.0 91.0Q39 104 50 106Q49 113 47.0 118.0Q45 123 43 128Q50 134 53.0 142.5Q56 151 58.0 160.0Q60 169 63.0 178.0Q66 187 74 193Q83 223 88.0 237.5Q93 252 95.5 266.0Q98 280 101.5 296.0Q105 312 114 336Q113 351 117.0 362.5Q121 374 125.5 385.5Q130 397 133.0 409.5Q136 422 132 439Q118 438 112.0 429.5Q106 421 104 407Q96 399 84.5 399.5Q73 400 64 397Q29 411 6.0 437.0Q-17 463 -31 498Q-22 521 -4.0 536.5Q14 552 37.0 562.5Q60 573 86.0 579.5Q112 586 136 592Q175 599 214.0 608.0Q253 617 298 614Q304 617 312.5 617.5Q321 618 330.0 618.0Q339 618 347.5 618.5Q356 619 362 622Q367 616 376.5 614.5Q386 613 397 605Q409 614 417.5 609.0Q426 604 433.0 598.0Q440 592 446.5 587.0Q453 582 460 582Q467 573 477.5 565.0Q488 557 497.5 548.5Q507 540 513.5 530.0Q520 520 520 507Q519 502 523.0 501.0Q527 500 529 497Q530 466 519.5 443.5Q509 421 493.5 402.0Q478 383 459.5 366.0Q441 349 426 330Q436 317 449.0 307.0Q462 297 475.5 287.0Q489 277 501.0 266.0Q513 255 521 240Q523 238 526.0 236.5Q529 235 532 233Q535 223 540.0 212.5Q545 202 548.5 192.5Q552 183 553.0 175.5Q554 168 549 163ZM373 497Q322 499 271.5 488.0Q221 477 187 457Q204 443 221.5 432.0Q239 421 249 402Q288 418 318.0 442.5Q348 467 373 497ZM386 178Q389 188 397.0 194.0Q405 200 413.0 205.5Q421 211 427.0 217.5Q433 224 432 236Q400 253 373.5 256.5Q347 260 323.5 256.5Q300 253 278.5 246.0Q257 239 235 236Q224 207 212.0 173.0Q200 139 189 107Q219 111 244.0 119.5Q269 128 292.5 138.0Q316 148 338.5 158.5Q361 169 386 178Z"/></g>
      <g transform="translate(3363, 0)"><path d="M320 262Q313 256 308.0 247.5Q303 239 298 230Q293 219 287.0 209.0Q281 199 272 191Q267 176 262.0 167.5Q257 159 246 148Q236 108 199 61Q198 52 193.5 43.5Q189 35 184 27Q182 24 180.0 20.5Q178 17 177 15L175 5Q170 -3 164.0 -9.0Q158 -15 153 -20Q151 -23 146 -28L131 -34Q58 -24 42 44L43 54Q45 59 46.5 64.5Q48 70 50 76Q54 90 59.5 104.0Q65 118 76 129Q78 136 85.0 151.5Q92 167 109 198Q123 222 131.0 236.0Q139 250 144 258Q134 274 120 287Q107 312 97.5 335.0Q88 358 83 376Q82 389 80.0 398.0Q78 407 76 417Q73 428 71.0 439.0Q69 450 69 462Q64 469 63 476L65 486Q68 493 66.0 504.5Q64 516 61 528Q59 538 56.5 550.0Q54 562 55.0 574.0Q56 586 61.5 596.5Q67 607 80 615L97 616Q106 611 114.5 606.5Q123 602 131 597Q142 592 152.0 587.0Q162 582 173 574L180 560L193 549V538Q194 534 194 527Q194 514 198 511L202 499Q202 485 205.0 472.5Q208 460 211 449Q214 438 217.0 426.0Q220 414 218 400Q224 403 228 407Q230 409 232.0 410.0Q234 411 236 413L295 493L293 503L314 523Q322 531 329.5 538.0Q337 545 342 553L353 561Q385 611 444 623L458 625L462 612Q466 601 478.5 592.0Q491 583 505 575L514 569Q519 559 519.0 554.0Q519 549 518 545L522 535Q514 511 502.5 500.0Q491 489 480 480Q471 472 463.5 465.5Q456 459 452 449L445 441Q424 429 418 409L415 397H403Q402 397 398.5 393.5Q395 390 388 376Q381 366 378.0 363.0Q375 360 373 358Q372 354 370.5 350.5Q369 347 367 342Q354 329 351.0 322.5Q348 316 344 308Q340 300 336.5 292.5Q333 285 325 277Z"/></g>
      <g transform="translate(3773, 0)"><path d="M520 298Q535 296 541.5 291.0Q548 286 550.5 278.5Q553 271 552.0 262.0Q551 253 551 244Q526 227 482.0 220.5Q438 214 390.0 211.5Q342 209 297.0 209.0Q252 209 226 206Q172 200 142.5 194.5Q113 189 102 184Q83 185 72.0 191.0Q61 197 54.0 205.5Q47 214 42.0 225.0Q37 236 30 248Q34 256 32.0 271.0Q30 286 20 294Q28 295 32.0 305.5Q36 316 32 321Q48 325 66.5 326.5Q85 328 103.0 329.0Q121 330 137.5 332.5Q154 335 166 341Q216 342 269.5 344.0Q323 346 370 348Q387 343 410.0 342.5Q433 342 455.0 339.5Q477 337 495.0 328.0Q513 319 520 298Z"/></g>
      <g transform="translate(4397, 0)"><path d="M13 451Q16 466 17.0 475.5Q18 485 10 496Q14 512 16.5 521.0Q19 530 17 546Q26 572 44.5 590.0Q63 608 85.0 620.5Q107 633 131.0 641.5Q155 650 176 656Q176 660 172.0 660.0Q168 660 170 665Q224 675 278.5 694.0Q333 713 390.0 728.0Q447 743 507.0 746.5Q567 750 633 731Q637 719 644.0 708.0Q651 697 658.5 686.5Q666 676 672.0 666.0Q678 656 679 645Q691 634 698.5 621.5Q706 609 701 588Q690 580 678.0 572.0Q666 564 653 557Q608 568 563.0 565.0Q518 562 482 558Q471 570 456.0 569.5Q441 569 424.5 564.5Q408 560 392.0 555.5Q376 551 362 553Q351 543 333.0 539.5Q315 536 295 534Q294 529 297.0 527.0Q300 525 298 519Q305 510 317.0 506.5Q329 503 341.5 500.0Q354 497 364.0 491.5Q374 486 377 474Q395 473 408.0 464.5Q421 456 430.0 444.0Q439 432 443.0 418.5Q447 405 446 394Q450 384 454.5 386.0Q459 388 465 381Q469 366 483.5 349.5Q498 333 506 314Q508 284 509.5 260.0Q511 236 501 213Q484 169 452.0 134.0Q420 99 379.5 72.5Q339 46 294.0 26.5Q249 7 205 -6Q201 -5 195.5 -6.0Q190 -7 193 0Q184 -8 172.5 -10.0Q161 -12 147.5 -11.5Q134 -11 120.5 -10.0Q107 -9 94 -11Q86 -3 79.5 5.0Q73 13 69 24Q64 25 64.5 30.5Q65 36 60 36Q60 40 61.0 42.0Q62 44 63 46Q67 49 66.5 50.5Q66 52 63.5 53.5Q61 55 58.5 57.0Q56 59 57 62Q62 71 60.5 83.5Q59 96 58.0 109.0Q57 122 60.0 133.5Q63 145 77 153Q118 149 154.5 157.0Q191 165 223.5 179.0Q256 193 285.5 209.5Q315 226 343 240Q346 250 352.5 257.0Q359 264 366.0 270.5Q373 277 379.0 284.5Q385 292 388 303Q389 307 388.0 309.0Q387 311 385.0 312.5Q383 314 381.0 316.0Q379 318 379 322Q376 323 373.5 324.0Q371 325 369 325Q343 338 314.0 347.0Q285 356 265 367Q253 359 241.0 363.0Q229 367 212 371Q170 373 132.5 379.0Q95 385 60 400Q58 406 55.0 410.5Q52 415 41 413Q34 423 26.5 431.5Q19 440 13 451Z"/></g>
      <g transform="translate(4987, 0)"><path d="M569 481Q544 481 515.0 477.5Q486 474 458 470Q438 467 419.5 465.0Q401 463 386 462Q379 440 372.0 423.0Q365 406 357 390Q349 373 342.5 355.5Q336 338 330 318Q320 302 313.5 288.5Q307 275 303 258Q291 243 285.0 226.5Q279 210 276 198L272 186Q266 180 265.0 176.5Q264 173 260 170Q259 159 253 148Q251 143 250.0 138.5Q249 134 249 132Q249 122 244 119Q245 114 244.0 108.5Q243 103 242 98Q239 86 240 79Q243 75 245.5 72.0Q248 69 249 64Q255 60 258 59Q262 56 270 52L279 42Q284 13 270 -4Q255 -23 219 -23H207Q202 -18 201 -15Q193 -12 188.0 -10.0Q183 -8 179 -2Q166 4 158 8L149 13Q149 24 149 25Q142 34 138.5 45.0Q135 56 133 67Q131 76 128.5 84.0Q126 92 122 98Q120 156 133.0 196.0Q146 236 160 273Q168 293 176.0 313.5Q184 334 190 356L199 366Q206 382 210.5 392.5Q215 403 220 414Q223 421 225.5 427.5Q228 434 230 439Q224 439 219.0 438.5Q214 438 209 437Q203 436 198.0 435.5Q193 435 188 435Q181 435 178 436Q167 431 154 431H144Q141 431 138.5 431.5Q136 432 134 432Q124 432 118 429Q106 429 95 429H85Q83 429 80.0 428.5Q77 428 75 428Q68 428 60.0 429.5Q52 431 43 436Q31 452 27 453L18 465Q17 471 15.0 476.5Q13 482 11 489Q7 499 3.5 510.5Q0 522 0 538Q1 546 4.0 550.0Q7 554 9 557L12 572L25 571H53Q85 571 118.0 573.5Q151 576 186 579Q206 581 226.5 583.0Q247 585 269 587Q273 596 277 604L287 609Q305 610 312.5 604.5Q320 599 325 594Q347 596 369.5 598.5Q392 601 415 605Q449 610 483.5 614.0Q518 618 550 618Q564 618 577.0 617.0Q590 616 601 614L611 607Q614 601 619.5 596.0Q625 591 631 586Q643 575 655.0 560.0Q667 545 664 516Q656 504 652 502L643 490L633 491Q627 491 622.0 489.5Q617 488 612 486Q608 484 604.0 482.5Q600 481 595 480Q586 480 580.5 480.5Q575 481 569 481Z"/></g>
      <g transform="translate(5478, 0)"><path d="M558 563Q559 556 558.5 552.5Q558 549 557.5 546.0Q557 543 557.0 539.5Q557 536 559 529Q538 495 510.5 482.5Q483 470 451.0 464.5Q419 459 385.5 453.0Q352 447 319 427Q306 432 295.5 427.0Q285 422 265 424Q259 418 250.0 415.5Q241 413 232 410Q236 401 235.5 391.5Q235 382 238 376Q273 373 315.5 377.0Q358 381 399 382Q400 377 398.0 375.5Q396 374 397 370Q404 365 411.0 357.5Q418 350 425.0 343.0Q432 336 439.5 331.5Q447 327 457 328Q461 320 462.5 310.5Q464 301 460 291Q444 280 428.0 268.5Q412 257 394.5 248.0Q377 239 357.5 233.5Q338 228 314 229Q309 229 306.5 229.0Q304 229 300 232Q292 227 277.5 229.0Q263 231 255 226Q244 231 228.5 230.5Q213 230 201 234Q185 213 172.0 189.0Q159 165 149 138Q183 133 205.5 134.0Q228 135 248.0 137.5Q268 140 289.0 142.5Q310 145 342 144Q362 155 389.5 158.5Q417 162 440 170Q448 167 454.0 159.5Q460 152 465.5 145.5Q471 139 477.0 134.0Q483 129 492 130Q496 126 497.5 120.5Q499 115 500.0 110.0Q501 105 503.5 101.5Q506 98 512 99Q497 66 477.5 48.5Q458 31 433.0 22.0Q408 13 377.5 8.0Q347 3 310 -4Q301 -6 295.0 -3.5Q289 -1 281 -1Q258 -6 226.0 -10.0Q194 -14 161.0 -13.0Q128 -12 98.0 -4.5Q68 3 49 22Q41 29 38.5 38.5Q36 48 25 53Q24 66 21.0 82.0Q18 98 15.0 115.5Q12 133 10.5 150.0Q9 167 12 181Q15 196 24.5 208.0Q34 220 31 234Q36 235 37.0 239.5Q38 244 45 243Q51 261 58.0 277.0Q65 293 72.5 308.0Q80 323 87.5 338.5Q95 354 102 373Q88 386 81.5 401.5Q75 417 72.0 432.5Q69 448 67.0 464.5Q65 481 60 498Q70 513 84.5 522.5Q99 532 116.0 538.0Q133 544 153.0 548.0Q173 552 195 557Q235 570 266.5 577.0Q298 584 328.5 588.5Q359 593 392.0 597.0Q425 601 467 609Q476 600 484 600Q488 609 493.5 605.5Q499 602 498 611Q508 594 523.5 582.5Q539 571 558 563Z"/></g>
      <g transform="translate(6012, 0)"><path d="M377 620Q419 615 452.0 603.0Q485 591 508 571Q524 546 538.5 517.0Q553 488 560.5 456.5Q568 425 567.5 392.0Q567 359 553 325Q524 289 482.5 266.5Q441 244 393.0 230.0Q345 216 293.5 206.0Q242 196 193 186Q194 163 193.5 137.5Q193 112 188.5 86.5Q184 61 175.0 37.0Q166 13 151 -7Q134 -7 116.0 -11.5Q98 -16 84 -19Q77 -15 71.5 -11.5Q66 -8 56 -7Q58 3 51.0 13.5Q44 24 37.0 35.0Q30 46 27.5 56.0Q25 66 37 75Q30 82 30 93Q37 105 42.5 126.0Q48 147 51.5 167.5Q55 188 53.0 205.0Q51 222 33 230Q34 232 37.0 232.0Q40 232 43 233Q35 239 33.5 250.0Q32 261 26 269Q28 274 29.0 278.0Q30 282 36 281Q33 299 36.5 315.0Q40 331 47.0 345.5Q54 360 64.0 374.0Q74 388 83 402Q90 403 91.5 400.0Q93 397 98 401Q111 411 116.0 422.0Q121 433 121 447Q128 468 138.0 489.5Q148 511 160.0 529.0Q172 547 186.5 561.0Q201 575 217 582Q229 592 247.0 600.5Q265 609 286.0 613.5Q307 618 328.5 618.5Q350 619 368 614Q373 612 373.5 616.0Q374 620 377 620ZM336 381Q361 392 389.5 398.5Q418 405 437 423Q425 434 402.0 442.5Q379 451 352.0 453.0Q325 455 297.5 448.5Q270 442 250 424Q244 406 240.0 395.5Q236 385 229 370Q231 365 235.5 362.5Q240 360 242 355Q265 367 288.5 368.5Q312 370 336 381Z"/></g>
  </g>
</svg>