<?xml version="1.0" encoding="UTF-8"?>
<svg xmlns="http://www.w3.org/2000/svg" viewBox="0 0 144.4 19" 
     width="144.4" height="19">
  <!-- Shadow layer (offset down-right) -->
  <g transform="translate(1.5, 17.65) scale(0.0078125, -0.0078125)" 
     fill="#000" stroke="#000" stroke-width="40" stroke-linejoin="round">
    <g transform="translate(0, 0)"><path d="M55.70782470703125 0V174.73370361328125L212.53900146484375 208.28564453125V1246.0974731445312L55.70782470703125 1280.2662963867188V1456H212.53900146484375H694.7986450195312Q890.2661743164062 1456 1039.0096740722656 1364.3084411621094Q1187.753173828125 1272.6168823242188 1271.4544677734375 1111.3084411621094Q1355.15576171875 950 1355.15576171875 740.532470703125V714.467529296875Q1355.15576171875 506.91558837890625 1272.6038208007812 345.41558837890625Q1190.0518798828125 183.91558837890625 1042.0746154785156 91.95779418945312Q894.0973510742188 0 698.6298217773438 0ZM504.53887939453125 223.0908203125H683.6947631835938Q805.0389404296875 223.0908203125 889.2337646484375 286.5616149902344Q973.4285888671875 350.03240966796875 1017.6753540039062 461.1103515625Q1061.922119140625 572.1882934570312 1061.922119140625 714.467529296875V741.9155883789062Q1061.922119140625 886.1104125976562 1017.6753540039062 996.4967956542969Q973.4285888671875 1106.8831787109375 889.2337646484375 1169.3961791992188Q805.0389404296875 1231.9091796875 683.6947631835938 1231.9091796875H504.53887939453125Z"/></g>
      <g transform="translate(1426, 0)"><path d="M425.2337646484375 -21Q263.6363525390625 -21 168.85064697265625 65.50973510742188Q74.06494140625 152.01947021484375 74.06494140625 300.78570556640625Q74.06494140625 453.55194091796875 197.90585327148438 549.2110290527344Q321.74676513671875 644.8701171875 560.5519409179688 644.8701171875H704.2013549804688V724.9610595703125Q704.2013549804688 802.6039428710938 658.5812072753906 851.3604431152344Q612.9610595703125 900.116943359375 522.2337646484375 900.116943359375Q475.207763671875 900.116943359375 437.8538513183594 888.552001953125Q400.49993896484375 876.987060546875 369.9869384765625 856.0065307617188L347.13629150390625 713.0260009765625H136.532470703125L133.44805908203125 993.7207641601562Q218.1688232421875 1041.6168823242188 317.3279113769531 1071.8084411621094Q416.48699951171875 1102 538.1882934570312 1102Q749.9934692382812 1102 873.0973510742188 1003.3733825683594Q996.2012329101562 904.7467651367188 996.2012329101562 721.727294921875V275.9869384765625Q996.2012329101562 253.753173828125 996.7012329101562 232.5194091796875Q997.2012329101562 211.28564453125 1000.4349975585938 191.28564453125L1112.8375854492188 174.73370361328125V0H751.4935302734375Q740.0260009765625 27.9610595703125 728.857177734375 59.87664794921875Q717.6883544921875 91.792236328125 713.2208251953125 123.70782470703125Q661.1558837890625 58.11041259765625 590.7695007324219 18.555206298828125Q520.3831176757812 -21 425.2337646484375 -21ZM502.96746826171875 195.20123291015625Q563.9545288085938 195.20123291015625 618.7370300292969 222.76943969726562Q673.51953125 250.337646484375 704.2013549804688 294.74676513671875V466.07147216796875H560.337646484375Q464.43499755859375 466.07147216796875 414.6330261230469 422.04547119140625Q364.8310546875 378.01947021484375 364.8310546875 315.9090576171875Q364.8310546875 258.48046875 401.428466796875 226.84085083007812Q438.02587890625 195.20123291015625 502.96746826171875 195.20123291015625Z"/></g>
      <g transform="translate(2580, 0)"><path d="M51.792236328125 0V174.73370361328125L191.96759033203125 205.20123291015625V875.7987670898438L36.987060546875 906.2662963867188V1082H464.20123291015625L476.96746826171875 927.1688232421875Q530.9674682617188 1010.0844116210938 610.6168212890625 1056.0422058105469Q690.2661743164062 1102 791.7986450195312 1102Q952.6103515625 1102 1043.67529296875 999.1915588378906Q1134.740234375 896.3831176757812 1134.740234375 676.2142944335938V205.20123291015625L1274.9155883789062 174.73370361328125V0H716.7532958984375V174.73370361328125L842.1234741210938 205.20123291015625V675.2987060546875Q842.1234741210938 783.7532958984375 798.8864440917969 829.2565612792969Q755.6494140625 874.7598266601562 671.1104125976562 874.7598266601562Q608.3181762695312 874.7598266601562 561.6330871582031 848.2565612792969Q514.947998046875 821.7532958984375 483.96746826171875 772.9610595703125V205.20123291015625L601.93505859375 174.73370361328125V0Z"/></g>
      <g transform="translate(3887, 0)"><path d="M51.792236328125 0V174.73370361328125L191.96759033203125 205.20123291015625V875.7987670898438L36.987060546875 906.2662963867188V1082H464.20123291015625L476.96746826171875 927.1688232421875Q530.9674682617188 1010.0844116210938 610.6168212890625 1056.0422058105469Q690.2661743164062 1102 791.7986450195312 1102Q952.6103515625 1102 1043.67529296875 999.1915588378906Q1134.740234375 896.3831176757812 1134.740234375 676.2142944335938V205.20123291015625L1274.9155883789062 174.73370361328125V0H716.7532958984375V174.73370361328125L842.1234741210938 205.20123291015625V675.2987060546875Q842.1234741210938 783.7532958984375 798.8864440917969 829.2565612792969Q755.6494140625 874.7598266601562 671.1104125976562 874.7598266601562Q608.3181762695312 874.7598266601562 561.6330871582031 848.2565612792969Q514.947998046875 821.7532958984375 483.96746826171875 772.9610595703125V205.20123291015625L601.93505859375 174.73370361328125V0Z"/></g>
      <g transform="translate(5194, 0)"><path d="M362.66876220703125 -437Q325.48046875 -437 282.6200866699219 -430.2662353515625Q239.75970458984375 -423.532470703125 201.8701171875 -412.98052978515625L235.4415283203125 -198.75982666015625Q254.29217529296875 -202.6104736328125 277.1980285644531 -204.72735595703125Q300.1038818359375 -206.84423828125 316.65582275390625 -206.84423828125Q380.272705078125 -206.84423828125 425.9415283203125 -173.95785522460938Q471.6103515625 -141.07147216796875 492.65582275390625 -79.04547119140625L516.8311767578125 -11.92852783203125L155.42205810546875 887.181884765625L21.532470703125 906.2662963867188V1082H596.44140625V906.2662963867188L463.59075927734375 886.2662963867188L633.8765258789062 408.80517578125L654.6492919921875 349.85052490234375H660.6492919921875L861.9155883789062 888.116943359375L732.5519409179688 906.2662963867188V1082H1267.6167602539062V906.2662963867188L1145.7466430664062 889.0325317382812L732.701171875 -161.06494140625Q703.3180541992188 -235.98052978515625 656.8083190917969 -298.71429443359375Q610.298583984375 -361.44805908203125 538.6200256347656 -399.2240295410156Q466.94146728515625 -437 362.66876220703125 -437Z"/></g>
      <g transform="translate(6981, 0)"><path d="M748.8701171875 -21Q536.6558227539062 -21 379.9772644042969 67.597412109375Q223.2987060546875 156.19482421875 137.76950073242188 318.5682067871094Q52.24029541015625 480.94158935546875 52.24029541015625 702.8117065429688V752.1882934570312Q52.24029541015625 963.7207641601562 134.48379516601562 1127.1363525390625Q216.727294921875 1290.5519409179688 369.6720886230469 1383.7759704589844Q522.6168823242188 1477 733.7207641601562 1477Q881.5064697265625 1477 1011.1525573730469 1435.1590881347656Q1140.7986450195312 1393.3181762695312 1243.0908203125 1306.8117065429688V955.181884765625H1025.6363525390625L996 1175.9286499023438Q962.7662353515625 1199.6948852539062 923.7337646484375 1216.6948852539062Q884.7012939453125 1233.6948852539062 839.1363525390625 1242.6948852539062Q793.5714111328125 1251.6948852539062 740.740234375 1251.6948852539062Q617.48046875 1251.6948852539062 528.3505859375 1190.8409729003906Q439.220703125 1129.987060546875 391.6135559082031 1018.5682067871094Q344.00640869140625 907.1493530273438 344.00640869140625 754.1882934570312V702.8117065429688Q344.00640869140625 550.0389404296875 393.8797912597656 437.8116455078125Q443.753173828125 325.5843505859375 535.91552734375 264.37005615234375Q628.077880859375 203.15576171875 754.0194702148438 203.15576171875Q817.2337646484375 203.15576171875 880.532470703125 217.37979125976562Q943.8311767578125 231.60382080078125 995.8506469726562 254.90252685546875L1025.8701171875 459.753173828125H1242.7921142578125V112.29217529296875Q1157.7077026367188 55.740234375 1030.753173828125 17.3701171875Q903.7986450195312 -21 748.8701171875 -21Z"/></g>
      <g transform="translate(8302, 0)"><path d="M425.2337646484375 -21Q263.6363525390625 -21 168.85064697265625 65.50973510742188Q74.06494140625 152.01947021484375 74.06494140625 300.78570556640625Q74.06494140625 453.55194091796875 197.90585327148438 549.2110290527344Q321.74676513671875 644.8701171875 560.5519409179688 644.8701171875H704.2013549804688V724.9610595703125Q704.2013549804688 802.6039428710938 658.5812072753906 851.3604431152344Q612.9610595703125 900.116943359375 522.2337646484375 900.116943359375Q475.207763671875 900.116943359375 437.8538513183594 888.552001953125Q400.49993896484375 876.987060546875 369.9869384765625 856.0065307617188L347.13629150390625 713.0260009765625H136.532470703125L133.44805908203125 993.7207641601562Q218.1688232421875 1041.6168823242188 317.3279113769531 1071.8084411621094Q416.48699951171875 1102 538.1882934570312 1102Q749.9934692382812 1102 873.0973510742188 1003.3733825683594Q996.2012329101562 904.7467651367188 996.2012329101562 721.727294921875V275.9869384765625Q996.2012329101562 253.753173828125 996.7012329101562 232.5194091796875Q997.2012329101562 211.28564453125 1000.4349975585938 191.28564453125L1112.8375854492188 174.73370361328125V0H751.4935302734375Q740.0260009765625 27.9610595703125 728.857177734375 59.87664794921875Q717.6883544921875 91.792236328125 713.2208251953125 123.70782470703125Q661.1558837890625 58.11041259765625 590.7695007324219 18.555206298828125Q520.3831176757812 -21 425.2337646484375 -21ZM502.96746826171875 195.20123291015625Q563.9545288085938 195.20123291015625 618.7370300292969 222.76943969726562Q673.51953125 250.337646484375 704.2013549804688 294.74676513671875V466.07147216796875H560.337646484375Q464.43499755859375 466.07147216796875 414.6330261230469 422.04547119140625Q364.8310546875 378.01947021484375 364.8310546875 315.9090576171875Q364.8310546875 258.48046875 401.428466796875 226.84085083007812Q438.02587890625 195.20123291015625 502.96746826171875 195.20123291015625Z"/></g>
      <g transform="translate(9456, 0)"><path d="M466.246826171875 0 139.2337646484375 888.181884765625 22.2987060546875 906.2662963867188V1082H547.2401733398438V906.8831787109375L433.38299560546875 886.8831787109375L596.272705078125 396.11029052734375L620.5714111328125 312.1947021484375H626.5714111328125L655.4869995117188 396.11029052734375L834.0714721679688 886.2662963867188L701.4091186523438 906.8831787109375V1082H1225.3505859375V906.2662963867188L1105.1817626953125 885.71435546875L762.623291015625 0Z"/></g>
      <g transform="translate(10703, 0)"><path d="M425.2337646484375 -21Q263.6363525390625 -21 168.85064697265625 65.50973510742188Q74.06494140625 152.01947021484375 74.06494140625 300.78570556640625Q74.06494140625 453.55194091796875 197.90585327148438 549.2110290527344Q321.74676513671875 644.8701171875 560.5519409179688 644.8701171875H704.2013549804688V724.9610595703125Q704.2013549804688 802.6039428710938 658.5812072753906 851.3604431152344Q612.9610595703125 900.116943359375 522.2337646484375 900.116943359375Q475.207763671875 900.116943359375 437.8538513183594 888.552001953125Q400.49993896484375 876.987060546875 369.9869384765625 856.0065307617188L347.13629150390625 713.0260009765625H136.532470703125L133.44805908203125 993.7207641601562Q218.1688232421875 1041.6168823242188 317.3279113769531 1071.8084411621094Q416.48699951171875 1102 538.1882934570312 1102Q749.9934692382812 1102 873.0973510742188 1003.3733825683594Q996.2012329101562 904.7467651367188 996.2012329101562 721.727294921875V275.9869384765625Q996.2012329101562 253.753173828125 996.7012329101562 232.5194091796875Q997.2012329101562 211.28564453125 1000.4349975585938 191.28564453125L1112.8375854492188 174.73370361328125V0H751.4935302734375Q740.0260009765625 27.9610595703125 728.857177734375 59.87664794921875Q717.6883544921875 91.792236328125 713.2208251953125 123.70782470703125Q661.1558837890625 58.11041259765625 590.7695007324219 18.555206298828125Q520.3831176757812 -21 425.2337646484375 -21ZM502.96746826171875 195.20123291015625Q563.9545288085938 195.20123291015625 618.7370300292969 222.76943969726562Q673.51953125 250.337646484375 704.2013549804688 294.74676513671875V466.07147216796875H560.337646484375Q464.43499755859375 466.07147216796875 414.6330261230469 422.04547119140625Q364.8310546875 378.01947021484375 364.8310546875 315.9090576171875Q364.8310546875 258.48046875 401.428466796875 226.84085083007812Q438.02587890625 195.20123291015625 502.96746826171875 195.20123291015625Z"/></g>
      <g transform="translate(11857, 0)"><path d="M51.792236328125 0V174.73370361328125L191.96759033203125 205.20123291015625V875.7987670898438L36.987060546875 906.2662963867188V1082H464.20123291015625L476.96746826171875 927.1688232421875Q530.9674682617188 1010.0844116210938 610.6168212890625 1056.0422058105469Q690.2661743164062 1102 791.7986450195312 1102Q952.6103515625 1102 1043.67529296875 999.1915588378906Q1134.740234375 896.3831176757812 1134.740234375 676.2142944335938V205.20123291015625L1274.9155883789062 174.73370361328125V0H716.7532958984375V174.73370361328125L842.1234741210938 205.20123291015625V675.2987060546875Q842.1234741210938 783.7532958984375 798.8864440917969 829.2565612792969Q755.6494140625 874.7598266601562 671.1104125976562 874.7598266601562Q608.3181762695312 874.7598266601562 561.6330871582031 848.2565612792969Q514.947998046875 821.7532958984375 483.96746826171875 772.9610595703125V205.20123291015625L601.93505859375 174.73370361328125V0Z"/></g>
      <g transform="translate(13164, 0)"><path d="M425.2337646484375 -21Q263.6363525390625 -21 168.85064697265625 65.50973510742188Q74.06494140625 152.01947021484375 74.06494140625 300.78570556640625Q74.06494140625 453.55194091796875 197.90585327148438 549.2110290527344Q321.74676513671875 644.8701171875 560.5519409179688 644.8701171875H704.2013549804688V724.9610595703125Q704.2013549804688 802.6039428710938 658.5812072753906 851.3604431152344Q612.9610595703125 900.116943359375 522.2337646484375 900.116943359375Q475.207763671875 900.116943359375 437.8538513183594 888.552001953125Q400.49993896484375 876.987060546875 369.9869384765625 856.0065307617188L347.13629150390625 713.0260009765625H136.532470703125L133.44805908203125 993.7207641601562Q218.1688232421875 1041.6168823242188 317.3279113769531 1071.8084411621094Q416.48699951171875 1102 538.1882934570312 1102Q749.9934692382812 1102 873.0973510742188 1003.3733825683594Q996.2012329101562 904.7467651367188 996.2012329101562 721.727294921875V275.9869384765625Q996.2012329101562 253.753173828125 996.7012329101562 232.5194091796875Q997.2012329101562 211.28564453125 1000.4349975585938 191.28564453125L1112.8375854492188 174.73370361328125V0H751.4935302734375Q740.0260009765625 27.9610595703125 728.857177734375 59.87664794921875Q717.6883544921875 91.792236328125 713.2208251953125 123.70782470703125Q661.1558837890625 58.11041259765625 590.7695007324219 18.555206298828125Q520.3831176757812 -21 425.2337646484375 -21ZM502.96746826171875 195.20123291015625Q563.9545288085938 195.20123291015625 618.7370300292969 222.76943969726562Q673.51953125 250.337646484375 704.2013549804688 294.74676513671875V466.07147216796875H560.337646484375Q464.43499755859375 466.07147216796875 414.6330261230469 422.04547119140625Q364.8310546875 378.01947021484375 364.8310546875 315.9090576171875Q364.8310546875 258.48046875 401.428466796875 226.84085083007812Q438.02587890625 195.20123291015625 502.96746826171875 195.20123291015625Z"/></g>
      <g transform="translate(14318, 0)"><path d="M521.6234130859375 -21Q350.5584716796875 -21 253.40911865234375 87.68182373046875Q156.259765625 196.3636474609375 156.259765625 424.87664794921875V875.7987670898438L37.19482421875 906.2662963867188V1082H156.259765625H448.2596435546875V422.87664794921875Q448.2596435546875 307.2467041015625 488.4642028808594 256.7434387207031Q528.6687622070312 206.24017333984375 611.3765869140625 206.24017333984375Q675.662353515625 206.24017333984375 725.6558837890625 231.46746826171875Q775.6494140625 256.69476318359375 807.5650024414062 304.467529296875V875.7987670898438L679.2208251953125 906.2662963867188V1082H807.5650024414062H1099.5648803710938V205.20123291015625L1230.3505859375 174.73370361328125V0H843.6039428710938L824.4351196289062 137.17535400390625Q772.8182373046875 60.662353515625 696.01953125 19.8311767578125Q619.2208251953125 -21 521.6234130859375 -21Z"/></g>
      <g transform="translate(15593, 0)"><path d="M540.3636474609375 -437Q458.04547119140625 -437 355.94158935546875 -415.8084411621094Q253.83770751953125 -394.61688232421875 176.20135498046875 -355.7662353515625L230.2857666015625 -147.86370849609375Q300.0909423828125 -178.09747314453125 378.4837951660156 -195.55526733398438Q456.87664794921875 -213.0130615234375 524.792236328125 -213.0130615234375Q641.987060546875 -213.0130615234375 696.7013549804688 -147.95785522460938Q751.4156494140625 -82.90264892578125 751.4156494140625 33.12335205078125V104.04547119140625Q703.3507080078125 43.44805908203125 638.2955017089844 11.224029541015625Q573.2402954101562 -21 488.9610595703125 -21Q356.9610595703125 -21 262.19482421875 45.425323486328125Q167.4285888671875 111.85064697265625 117.162353515625 231.81817626953125Q66.8961181640625 351.78570556640625 66.8961181640625 511.1038818359375V532.1038818359375Q66.8961181640625 703.0194702148438 116.85391235351562 831.2434997558594Q166.81170654296875 959.467529296875 260.0357360839844 1030.7337646484375Q353.259765625 1102 482.94158935546875 1102Q580.0065307617188 1102 650.2208251953125 1061.3831176757812Q720.4351196289062 1020.7662353515625 769.3507080078125 946L789.8182373046875 1082H1044.0324096679688V31.88958740234375Q1044.0324096679688 -110.57794189453125 983.512939453125 -215.8961181640625Q922.9934692382812 -321.21429443359375 810.1558227539062 -379.1071472167969Q697.3181762695312 -437 540.3636474609375 -437ZM571.272705078125 206.24017333984375Q632.5130004882812 206.24017333984375 677.7078247070312 230.70123291015625Q722.9026489257812 255.16229248046875 751.4156494140625 302.01947021484375V772.259765625Q723.2857666015625 820.9026489257812 677.7078247070312 847.8312377929688Q632.1298828125 874.7598266601562 572.0389404296875 874.7598266601562Q497.16229248046875 874.7598266601562 450.0843505859375 831.5552673339844Q403.00640869140625 788.3507080078125 380.9512023925781 711.4318542480469Q358.89599609375 634.5130004882812 358.89599609375 532.1038818359375V511.1038818359375Q358.89599609375 369.077880859375 408.15576171875 287.6590270996094Q457.41552734375 206.24017333984375 571.272705078125 206.24017333984375ZM1007.2467041015625 871.0325317382812 880.2792358398438 1082H1171.2467041015625V906.0325317382812Z"/></g>
      <g transform="translate(16791, 0)"><path d="M47.14935302734375 0V174.73370361328125L187.94158935546875 205.20123291015625V1353.7987670898438L31.727294921875 1384.2662963867188V1560H478.70770263671875V944.1688232421875Q529.7726440429688 1019.0844116210938 605.220703125 1060.5422058105469Q680.6687622070312 1102 777.2012329101562 1102Q940.0973510742188 1102 1035.48046875 993.3733825683594Q1130.8635864257812 884.7467651367188 1130.8635864257812 658.259765625V205.20123291015625L1271.0389404296875 174.73370361328125V0H712.8766479492188V174.73370361328125L838.8637084960938 205.20123291015625V660.259765625Q838.8637084960938 776.987060546875 794.9351196289062 825.8734436035156Q751.0065307617188 874.7598266601562 666 874.7598266601562Q606.5908813476562 874.7598266601562 558.2889099121094 850.1396789550781Q509.9869384765625 825.51953125 478.70770263671875 778.6428833007812V205.20123291015625L604.6947631835938 174.73370361328125V0Z"/></g>
  </g>
  <!-- Black stroke layer -->
  <g transform="translate(0, 16.15) scale(0.0078125, -0.0078125)" 
     fill="#000" stroke="#000" stroke-width="50" stroke-linejoin="round">
    <g transform="translate(0, 0)"><path d="M55.70782470703125 0V174.73370361328125L212.53900146484375 208.28564453125V1246.0974731445312L55.70782470703125 1280.2662963867188V1456H212.53900146484375H694.7986450195312Q890.2661743164062 1456 1039.0096740722656 1364.3084411621094Q1187.753173828125 1272.6168823242188 1271.4544677734375 1111.3084411621094Q1355.15576171875 950 1355.15576171875 740.532470703125V714.467529296875Q1355.15576171875 506.91558837890625 1272.6038208007812 345.41558837890625Q1190.0518798828125 183.91558837890625 1042.0746154785156 91.95779418945312Q894.0973510742188 0 698.6298217773438 0ZM504.53887939453125 223.0908203125H683.6947631835938Q805.0389404296875 223.0908203125 889.2337646484375 286.5616149902344Q973.4285888671875 350.03240966796875 1017.6753540039062 461.1103515625Q1061.922119140625 572.1882934570312 1061.922119140625 714.467529296875V741.9155883789062Q1061.922119140625 886.1104125976562 1017.6753540039062 996.4967956542969Q973.4285888671875 1106.8831787109375 889.2337646484375 1169.3961791992188Q805.0389404296875 1231.9091796875 683.6947631835938 1231.9091796875H504.53887939453125Z"/></g>
      <g transform="translate(1426, 0)"><path d="M425.2337646484375 -21Q263.6363525390625 -21 168.85064697265625 65.50973510742188Q74.06494140625 152.01947021484375 74.06494140625 300.78570556640625Q74.06494140625 453.55194091796875 197.90585327148438 549.2110290527344Q321.74676513671875 644.8701171875 560.5519409179688 644.8701171875H704.2013549804688V724.9610595703125Q704.2013549804688 802.6039428710938 658.5812072753906 851.3604431152344Q612.9610595703125 900.116943359375 522.2337646484375 900.116943359375Q475.207763671875 900.116943359375 437.8538513183594 888.552001953125Q400.49993896484375 876.987060546875 369.9869384765625 856.0065307617188L347.13629150390625 713.0260009765625H136.532470703125L133.44805908203125 993.7207641601562Q218.1688232421875 1041.6168823242188 317.3279113769531 1071.8084411621094Q416.48699951171875 1102 538.1882934570312 1102Q749.9934692382812 1102 873.0973510742188 1003.3733825683594Q996.2012329101562 904.7467651367188 996.2012329101562 721.727294921875V275.9869384765625Q996.2012329101562 253.753173828125 996.7012329101562 232.5194091796875Q997.2012329101562 211.28564453125 1000.4349975585938 191.28564453125L1112.8375854492188 174.73370361328125V0H751.4935302734375Q740.0260009765625 27.9610595703125 728.857177734375 59.87664794921875Q717.6883544921875 91.792236328125 713.2208251953125 123.70782470703125Q661.1558837890625 58.11041259765625 590.7695007324219 18.555206298828125Q520.3831176757812 -21 425.2337646484375 -21ZM502.96746826171875 195.20123291015625Q563.9545288085938 195.20123291015625 618.7370300292969 222.76943969726562Q673.51953125 250.337646484375 704.2013549804688 294.74676513671875V466.07147216796875H560.337646484375Q464.43499755859375 466.07147216796875 414.6330261230469 422.04547119140625Q364.8310546875 378.01947021484375 364.8310546875 315.9090576171875Q364.8310546875 258.48046875 401.428466796875 226.84085083007812Q438.02587890625 195.20123291015625 502.96746826171875 195.20123291015625Z"/></g>
      <g transform="translate(2580, 0)"><path d="M51.792236328125 0V174.73370361328125L191.96759033203125 205.20123291015625V875.7987670898438L36.987060546875 906.2662963867188V1082H464.20123291015625L476.96746826171875 927.1688232421875Q530.9674682617188 1010.0844116210938 610.6168212890625 1056.0422058105469Q690.2661743164062 1102 791.7986450195312 1102Q952.6103515625 1102 1043.67529296875 999.1915588378906Q1134.740234375 896.3831176757812 1134.740234375 676.2142944335938V205.20123291015625L1274.9155883789062 174.73370361328125V0H716.7532958984375V174.73370361328125L842.1234741210938 205.20123291015625V675.2987060546875Q842.1234741210938 783.7532958984375 798.8864440917969 829.2565612792969Q755.6494140625 874.7598266601562 671.1104125976562 874.7598266601562Q608.3181762695312 874.7598266601562 561.6330871582031 848.2565612792969Q514.947998046875 821.7532958984375 483.96746826171875 772.9610595703125V205.20123291015625L601.93505859375 174.73370361328125V0Z"/></g>
      <g transform="translate(3887, 0)"><path d="M51.792236328125 0V174.73370361328125L191.96759033203125 205.20123291015625V875.7987670898438L36.987060546875 906.2662963867188V1082H464.20123291015625L476.96746826171875 927.1688232421875Q530.9674682617188 1010.0844116210938 610.6168212890625 1056.0422058105469Q690.2661743164062 1102 791.7986450195312 1102Q952.6103515625 1102 1043.67529296875 999.1915588378906Q1134.740234375 896.3831176757812 1134.740234375 676.2142944335938V205.20123291015625L1274.9155883789062 174.73370361328125V0H716.7532958984375V174.73370361328125L842.1234741210938 205.20123291015625V675.2987060546875Q842.1234741210938 783.7532958984375 798.8864440917969 829.2565612792969Q755.6494140625 874.7598266601562 671.1104125976562 874.7598266601562Q608.3181762695312 874.7598266601562 561.6330871582031 848.2565612792969Q514.947998046875 821.7532958984375 483.96746826171875 772.9610595703125V205.20123291015625L601.93505859375 174.73370361328125V0Z"/></g>
      <g transform="translate(5194, 0)"><path d="M362.66876220703125 -437Q325.48046875 -437 282.6200866699219 -430.2662353515625Q239.75970458984375 -423.532470703125 201.8701171875 -412.98052978515625L235.4415283203125 -198.75982666015625Q254.29217529296875 -202.6104736328125 277.1980285644531 -204.72735595703125Q300.1038818359375 -206.84423828125 316.65582275390625 -206.84423828125Q380.272705078125 -206.84423828125 425.9415283203125 -173.95785522460938Q471.6103515625 -141.07147216796875 492.65582275390625 -79.04547119140625L516.8311767578125 -11.92852783203125L155.42205810546875 887.181884765625L21.532470703125 906.2662963867188V1082H596.44140625V906.2662963867188L463.59075927734375 886.2662963867188L633.8765258789062 408.80517578125L654.6492919921875 349.85052490234375H660.6492919921875L861.9155883789062 888.116943359375L732.5519409179688 906.2662963867188V1082H1267.6167602539062V906.2662963867188L1145.7466430664062 889.0325317382812L732.701171875 -161.06494140625Q703.3180541992188 -235.98052978515625 656.8083190917969 -298.71429443359375Q610.298583984375 -361.44805908203125 538.6200256347656 -399.2240295410156Q466.94146728515625 -437 362.66876220703125 -437Z"/></g>
      <g transform="translate(6981, 0)"><path d="M748.8701171875 -21Q536.6558227539062 -21 379.9772644042969 67.597412109375Q223.2987060546875 156.19482421875 137.76950073242188 318.5682067871094Q52.24029541015625 480.94158935546875 52.24029541015625 702.8117065429688V752.1882934570312Q52.24029541015625 963.7207641601562 134.48379516601562 1127.1363525390625Q216.727294921875 1290.5519409179688 369.6720886230469 1383.7759704589844Q522.6168823242188 1477 733.7207641601562 1477Q881.5064697265625 1477 1011.1525573730469 1435.1590881347656Q1140.7986450195312 1393.3181762695312 1243.0908203125 1306.8117065429688V955.181884765625H1025.6363525390625L996 1175.9286499023438Q962.7662353515625 1199.6948852539062 923.7337646484375 1216.6948852539062Q884.7012939453125 1233.6948852539062 839.1363525390625 1242.6948852539062Q793.5714111328125 1251.6948852539062 740.740234375 1251.6948852539062Q617.48046875 1251.6948852539062 528.3505859375 1190.8409729003906Q439.220703125 1129.987060546875 391.6135559082031 1018.5682067871094Q344.00640869140625 907.1493530273438 344.00640869140625 754.1882934570312V702.8117065429688Q344.00640869140625 550.0389404296875 393.8797912597656 437.8116455078125Q443.753173828125 325.5843505859375 535.91552734375 264.37005615234375Q628.077880859375 203.15576171875 754.0194702148438 203.15576171875Q817.2337646484375 203.15576171875 880.532470703125 217.37979125976562Q943.8311767578125 231.60382080078125 995.8506469726562 254.90252685546875L1025.8701171875 459.753173828125H1242.7921142578125V112.29217529296875Q1157.7077026367188 55.740234375 1030.753173828125 17.3701171875Q903.7986450195312 -21 748.8701171875 -21Z"/></g>
      <g transform="translate(8302, 0)"><path d="M425.2337646484375 -21Q263.6363525390625 -21 168.85064697265625 65.50973510742188Q74.06494140625 152.01947021484375 74.06494140625 300.78570556640625Q74.06494140625 453.55194091796875 197.90585327148438 549.2110290527344Q321.74676513671875 644.8701171875 560.5519409179688 644.8701171875H704.2013549804688V724.9610595703125Q704.2013549804688 802.6039428710938 658.5812072753906 851.3604431152344Q612.9610595703125 900.116943359375 522.2337646484375 900.116943359375Q475.207763671875 900.116943359375 437.8538513183594 888.552001953125Q400.49993896484375 876.987060546875 369.9869384765625 856.0065307617188L347.13629150390625 713.0260009765625H136.532470703125L133.44805908203125 993.7207641601562Q218.1688232421875 1041.6168823242188 317.3279113769531 1071.8084411621094Q416.48699951171875 1102 538.1882934570312 1102Q749.9934692382812 1102 873.0973510742188 1003.3733825683594Q996.2012329101562 904.7467651367188 996.2012329101562 721.727294921875V275.9869384765625Q996.2012329101562 253.753173828125 996.7012329101562 232.5194091796875Q997.2012329101562 211.28564453125 1000.4349975585938 191.28564453125L1112.8375854492188 174.73370361328125V0H751.4935302734375Q740.0260009765625 27.9610595703125 728.857177734375 59.87664794921875Q717.6883544921875 91.792236328125 713.2208251953125 123.70782470703125Q661.1558837890625 58.11041259765625 590.7695007324219 18.555206298828125Q520.3831176757812 -21 425.2337646484375 -21ZM502.96746826171875 195.20123291015625Q563.9545288085938 195.20123291015625 618.7370300292969 222.76943969726562Q673.51953125 250.337646484375 704.2013549804688 294.74676513671875V466.07147216796875H560.337646484375Q464.43499755859375 466.07147216796875 414.6330261230469 422.04547119140625Q364.8310546875 378.01947021484375 364.8310546875 315.9090576171875Q364.8310546875 258.48046875 401.428466796875 226.84085083007812Q438.02587890625 195.20123291015625 502.96746826171875 195.20123291015625Z"/></g>
      <g transform="translate(9456, 0)"><path d="M466.246826171875 0 139.2337646484375 888.181884765625 22.2987060546875 906.2662963867188V1082H547.2401733398438V906.8831787109375L433.38299560546875 886.8831787109375L596.272705078125 396.11029052734375L620.5714111328125 312.1947021484375H626.5714111328125L655.4869995117188 396.11029052734375L834.0714721679688 886.2662963867188L701.4091186523438 906.8831787109375V1082H1225.3505859375V906.2662963867188L1105.1817626953125 885.71435546875L762.623291015625 0Z"/></g>
      <g transform="translate(10703, 0)"><path d="M425.2337646484375 -21Q263.6363525390625 -21 168.85064697265625 65.50973510742188Q74.06494140625 152.01947021484375 74.06494140625 300.78570556640625Q74.06494140625 453.55194091796875 197.90585327148438 549.2110290527344Q321.74676513671875 644.8701171875 560.5519409179688 644.8701171875H704.2013549804688V724.9610595703125Q704.2013549804688 802.6039428710938 658.5812072753906 851.3604431152344Q612.9610595703125 900.116943359375 522.2337646484375 900.116943359375Q475.207763671875 900.116943359375 437.8538513183594 888.552001953125Q400.49993896484375 876.987060546875 369.9869384765625 856.0065307617188L347.13629150390625 713.0260009765625H136.532470703125L133.44805908203125 993.7207641601562Q218.1688232421875 1041.6168823242188 317.3279113769531 1071.8084411621094Q416.48699951171875 1102 538.1882934570312 1102Q749.9934692382812 1102 873.0973510742188 1003.3733825683594Q996.2012329101562 904.7467651367188 996.2012329101562 721.727294921875V275.9869384765625Q996.2012329101562 253.753173828125 996.7012329101562 232.5194091796875Q997.2012329101562 211.28564453125 1000.4349975585938 191.28564453125L1112.8375854492188 174.73370361328125V0H751.4935302734375Q740.0260009765625 27.9610595703125 728.857177734375 59.87664794921875Q717.6883544921875 91.792236328125 713.2208251953125 123.70782470703125Q661.1558837890625 58.11041259765625 590.7695007324219 18.555206298828125Q520.3831176757812 -21 425.2337646484375 -21ZM502.96746826171875 195.20123291015625Q563.9545288085938 195.20123291015625 618.7370300292969 222.76943969726562Q673.51953125 250.337646484375 704.2013549804688 294.74676513671875V466.07147216796875H560.337646484375Q464.43499755859375 466.07147216796875 414.6330261230469 422.04547119140625Q364.8310546875 378.01947021484375 364.8310546875 315.9090576171875Q364.8310546875 258.48046875 401.428466796875 226.84085083007812Q438.02587890625 195.20123291015625 502.96746826171875 195.20123291015625Z"/></g>
      <g transform="translate(11857, 0)"><path d="M51.792236328125 0V174.73370361328125L191.96759033203125 205.20123291015625V875.7987670898438L36.987060546875 906.2662963867188V1082H464.20123291015625L476.96746826171875 927.1688232421875Q530.9674682617188 1010.0844116210938 610.6168212890625 1056.0422058105469Q690.2661743164062 1102 791.7986450195312 1102Q952.6103515625 1102 1043.67529296875 999.1915588378906Q1134.740234375 896.3831176757812 1134.740234375 676.2142944335938V205.20123291015625L1274.9155883789062 174.73370361328125V0H716.7532958984375V174.73370361328125L842.1234741210938 205.20123291015625V675.2987060546875Q842.1234741210938 783.7532958984375 798.8864440917969 829.2565612792969Q755.6494140625 874.7598266601562 671.1104125976562 874.7598266601562Q608.3181762695312 874.7598266601562 561.6330871582031 848.2565612792969Q514.947998046875 821.7532958984375 483.96746826171875 772.9610595703125V205.20123291015625L601.93505859375 174.73370361328125V0Z"/></g>
      <g transform="translate(13164, 0)"><path d="M425.2337646484375 -21Q263.6363525390625 -21 168.85064697265625 65.50973510742188Q74.06494140625 152.01947021484375 74.06494140625 300.78570556640625Q74.06494140625 453.55194091796875 197.90585327148438 549.2110290527344Q321.74676513671875 644.8701171875 560.5519409179688 644.8701171875H704.2013549804688V724.9610595703125Q704.2013549804688 802.6039428710938 658.5812072753906 851.3604431152344Q612.9610595703125 900.116943359375 522.2337646484375 900.116943359375Q475.207763671875 900.116943359375 437.8538513183594 888.552001953125Q400.49993896484375 876.987060546875 369.9869384765625 856.0065307617188L347.13629150390625 713.0260009765625H136.532470703125L133.44805908203125 993.7207641601562Q218.1688232421875 1041.6168823242188 317.3279113769531 1071.8084411621094Q416.48699951171875 1102 538.1882934570312 1102Q749.9934692382812 1102 873.0973510742188 1003.3733825683594Q996.2012329101562 904.7467651367188 996.2012329101562 721.727294921875V275.9869384765625Q996.2012329101562 253.753173828125 996.7012329101562 232.5194091796875Q997.2012329101562 211.28564453125 1000.4349975585938 191.28564453125L1112.8375854492188 174.73370361328125V0H751.4935302734375Q740.0260009765625 27.9610595703125 728.857177734375 59.87664794921875Q717.6883544921875 91.792236328125 713.2208251953125 123.70782470703125Q661.1558837890625 58.11041259765625 590.7695007324219 18.555206298828125Q520.3831176757812 -21 425.2337646484375 -21ZM502.96746826171875 195.20123291015625Q563.9545288085938 195.20123291015625 618.7370300292969 222.76943969726562Q673.51953125 250.337646484375 704.2013549804688 294.74676513671875V466.07147216796875H560.337646484375Q464.43499755859375 466.07147216796875 414.6330261230469 422.04547119140625Q364.8310546875 378.01947021484375 364.8310546875 315.9090576171875Q364.8310546875 258.48046875 401.428466796875 226.84085083007812Q438.02587890625 195.20123291015625 502.96746826171875 195.20123291015625Z"/></g>
      <g transform="translate(14318, 0)"><path d="M521.6234130859375 -21Q350.5584716796875 -21 253.40911865234375 87.68182373046875Q156.259765625 196.3636474609375 156.259765625 424.87664794921875V875.7987670898438L37.19482421875 906.2662963867188V1082H156.259765625H448.2596435546875V422.87664794921875Q448.2596435546875 307.2467041015625 488.4642028808594 256.7434387207031Q528.6687622070312 206.24017333984375 611.3765869140625 206.24017333984375Q675.662353515625 206.24017333984375 725.6558837890625 231.46746826171875Q775.6494140625 256.69476318359375 807.5650024414062 304.467529296875V875.7987670898438L679.2208251953125 906.2662963867188V1082H807.5650024414062H1099.5648803710938V205.20123291015625L1230.3505859375 174.73370361328125V0H843.6039428710938L824.4351196289062 137.17535400390625Q772.8182373046875 60.662353515625 696.01953125 19.8311767578125Q619.2208251953125 -21 521.6234130859375 -21Z"/></g>
      <g transform="translate(15593, 0)"><path d="M540.3636474609375 -437Q458.04547119140625 -437 355.94158935546875 -415.8084411621094Q253.83770751953125 -394.61688232421875 176.20135498046875 -355.7662353515625L230.2857666015625 -147.86370849609375Q300.0909423828125 -178.09747314453125 378.4837951660156 -195.55526733398438Q456.87664794921875 -213.0130615234375 524.792236328125 -213.0130615234375Q641.987060546875 -213.0130615234375 696.7013549804688 -147.95785522460938Q751.4156494140625 -82.90264892578125 751.4156494140625 33.12335205078125V104.04547119140625Q703.3507080078125 43.44805908203125 638.2955017089844 11.224029541015625Q573.2402954101562 -21 488.9610595703125 -21Q356.9610595703125 -21 262.19482421875 45.425323486328125Q167.4285888671875 111.85064697265625 117.162353515625 231.81817626953125Q66.8961181640625 351.78570556640625 66.8961181640625 511.1038818359375V532.1038818359375Q66.8961181640625 703.0194702148438 116.85391235351562 831.2434997558594Q166.81170654296875 959.467529296875 260.0357360839844 1030.7337646484375Q353.259765625 1102 482.94158935546875 1102Q580.0065307617188 1102 650.2208251953125 1061.3831176757812Q720.4351196289062 1020.7662353515625 769.3507080078125 946L789.8182373046875 1082H1044.0324096679688V31.88958740234375Q1044.0324096679688 -110.57794189453125 983.512939453125 -215.8961181640625Q922.9934692382812 -321.21429443359375 810.1558227539062 -379.1071472167969Q697.3181762695312 -437 540.3636474609375 -437ZM571.272705078125 206.24017333984375Q632.5130004882812 206.24017333984375 677.7078247070312 230.70123291015625Q722.9026489257812 255.16229248046875 751.4156494140625 302.01947021484375V772.259765625Q723.2857666015625 820.9026489257812 677.7078247070312 847.8312377929688Q632.1298828125 874.7598266601562 572.0389404296875 874.7598266601562Q497.16229248046875 874.7598266601562 450.0843505859375 831.5552673339844Q403.00640869140625 788.3507080078125 380.9512023925781 711.4318542480469Q358.89599609375 634.5130004882812 358.89599609375 532.1038818359375V511.1038818359375Q358.89599609375 369.077880859375 408.15576171875 287.6590270996094Q457.41552734375 206.24017333984375 571.272705078125 206.24017333984375ZM1007.2467041015625 871.0325317382812 880.2792358398438 1082H1171.2467041015625V906.0325317382812Z"/></g>
      <g transform="translate(16791, 0)"><path d="M47.14935302734375 0V174.73370361328125L187.94158935546875 205.20123291015625V1353.7987670898438L31.727294921875 1384.2662963867188V1560H478.70770263671875V944.1688232421875Q529.7726440429688 1019.0844116210938 605.220703125 1060.5422058105469Q680.6687622070312 1102 777.2012329101562 1102Q940.0973510742188 1102 1035.48046875 993.3733825683594Q1130.8635864257812 884.7467651367188 1130.8635864257812 658.259765625V205.20123291015625L1271.0389404296875 174.73370361328125V0H712.8766479492188V174.73370361328125L838.8637084960938 205.20123291015625V660.259765625Q838.8637084960938 776.987060546875 794.9351196289062 825.8734436035156Q751.0065307617188 874.7598266601562 666 874.7598266601562Q606.5908813476562 874.7598266601562 558.2889099121094 850.1396789550781Q509.9869384765625 825.51953125 478.70770263671875 778.6428833007812V205.20123291015625L604.6947631835938 174.73370361328125V0Z"/></g>
  </g>
  <!-- Colored fill layer -->
  <g transform="translate(0, 16.15) scale(0.0078125, -0.0078125)" fill="#FFCC00">
    <g transform="translate(0, 0)"><path d="M55.70782470703125 0V174.73370361328125L212.53900146484375 208.28564453125V1246.0974731445312L55.70782470703125 1280.2662963867188V1456H212.53900146484375H694.7986450195312Q890.2661743164062 1456 1039.0096740722656 1364.3084411621094Q1187.753173828125 1272.6168823242188 1271.4544677734375 1111.3084411621094Q1355.15576171875 950 1355.15576171875 740.532470703125V714.467529296875Q1355.15576171875 506.91558837890625 1272.6038208007812 345.41558837890625Q1190.0518798828125 183.91558837890625 1042.0746154785156 91.95779418945312Q894.0973510742188 0 698.6298217773438 0ZM504.53887939453125 223.0908203125H683.6947631835938Q805.0389404296875 223.0908203125 889.2337646484375 286.5616149902344Q973.4285888671875 350.03240966796875 1017.6753540039062 461.1103515625Q1061.922119140625 572.1882934570312 1061.922119140625 714.467529296875V741.9155883789062Q1061.922119140625 886.1104125976562 1017.6753540039062 996.4967956542969Q973.4285888671875 1106.8831787109375 889.2337646484375 1169.3961791992188Q805.0389404296875 1231.9091796875 683.6947631835938 1231.9091796875H504.53887939453125Z"/></g>
      <g transform="translate(1426, 0)"><path d="M425.2337646484375 -21Q263.6363525390625 -21 168.85064697265625 65.50973510742188Q74.06494140625 152.01947021484375 74.06494140625 300.78570556640625Q74.06494140625 453.55194091796875 197.90585327148438 549.2110290527344Q321.74676513671875 644.8701171875 560.5519409179688 644.8701171875H704.2013549804688V724.9610595703125Q704.2013549804688 802.6039428710938 658.5812072753906 851.3604431152344Q612.9610595703125 900.116943359375 522.2337646484375 900.116943359375Q475.207763671875 900.116943359375 437.8538513183594 888.552001953125Q400.49993896484375 876.987060546875 369.9869384765625 856.0065307617188L347.13629150390625 713.0260009765625H136.532470703125L133.44805908203125 993.7207641601562Q218.1688232421875 1041.6168823242188 317.3279113769531 1071.8084411621094Q416.48699951171875 1102 538.1882934570312 1102Q749.9934692382812 1102 873.0973510742188 1003.3733825683594Q996.2012329101562 904.7467651367188 996.2012329101562 721.727294921875V275.9869384765625Q996.2012329101562 253.753173828125 996.7012329101562 232.5194091796875Q997.2012329101562 211.28564453125 1000.4349975585938 191.28564453125L1112.8375854492188 174.73370361328125V0H751.4935302734375Q740.0260009765625 27.9610595703125 728.857177734375 59.87664794921875Q717.6883544921875 91.792236328125 713.2208251953125 123.70782470703125Q661.1558837890625 58.11041259765625 590.7695007324219 18.555206298828125Q520.3831176757812 -21 425.2337646484375 -21ZM502.96746826171875 195.20123291015625Q563.9545288085938 195.20123291015625 618.7370300292969 222.76943969726562Q673.51953125 250.337646484375 704.2013549804688 294.74676513671875V466.07147216796875H560.337646484375Q464.43499755859375 466.07147216796875 414.6330261230469 422.04547119140625Q364.8310546875 378.01947021484375 364.8310546875 315.9090576171875Q364.8310546875 258.48046875 401.428466796875 226.84085083007812Q438.02587890625 195.20123291015625 502.96746826171875 195.20123291015625Z"/></g>
      <g transform="translate(2580, 0)"><path d="M51.792236328125 0V174.73370361328125L191.96759033203125 205.20123291015625V875.7987670898438L36.987060546875 906.2662963867188V1082H464.20123291015625L476.96746826171875 927.1688232421875Q530.9674682617188 1010.0844116210938 610.6168212890625 1056.0422058105469Q690.2661743164062 1102 791.7986450195312 1102Q952.6103515625 1102 1043.67529296875 999.1915588378906Q1134.740234375 896.3831176757812 1134.740234375 676.2142944335938V205.20123291015625L1274.9155883789062 174.73370361328125V0H716.7532958984375V174.73370361328125L842.1234741210938 205.20123291015625V675.2987060546875Q842.1234741210938 783.7532958984375 798.8864440917969 829.2565612792969Q755.6494140625 874.7598266601562 671.1104125976562 874.7598266601562Q608.3181762695312 874.7598266601562 561.6330871582031 848.2565612792969Q514.947998046875 821.7532958984375 483.96746826171875 772.9610595703125V205.20123291015625L601.93505859375 174.73370361328125V0Z"/></g>
      <g transform="translate(3887, 0)"><path d="M51.792236328125 0V174.73370361328125L191.96759033203125 205.20123291015625V875.7987670898438L36.987060546875 906.2662963867188V1082H464.20123291015625L476.96746826171875 927.1688232421875Q530.9674682617188 1010.0844116210938 610.6168212890625 1056.0422058105469Q690.2661743164062 1102 791.7986450195312 1102Q952.6103515625 1102 1043.67529296875 999.1915588378906Q1134.740234375 896.3831176757812 1134.740234375 676.2142944335938V205.20123291015625L1274.9155883789062 174.73370361328125V0H716.7532958984375V174.73370361328125L842.1234741210938 205.20123291015625V675.2987060546875Q842.1234741210938 783.7532958984375 798.8864440917969 829.2565612792969Q755.6494140625 874.7598266601562 671.1104125976562 874.7598266601562Q608.3181762695312 874.7598266601562 561.6330871582031 848.2565612792969Q514.947998046875 821.7532958984375 483.96746826171875 772.9610595703125V205.20123291015625L601.93505859375 174.73370361328125V0Z"/></g>
      <g transform="translate(5194, 0)"><path d="M362.66876220703125 -437Q325.48046875 -437 282.6200866699219 -430.2662353515625Q239.75970458984375 -423.532470703125 201.8701171875 -412.98052978515625L235.4415283203125 -198.75982666015625Q254.29217529296875 -202.6104736328125 277.1980285644531 -204.72735595703125Q300.1038818359375 -206.84423828125 316.65582275390625 -206.84423828125Q380.272705078125 -206.84423828125 425.9415283203125 -173.95785522460938Q471.6103515625 -141.07147216796875 492.65582275390625 -79.04547119140625L516.8311767578125 -11.92852783203125L155.42205810546875 887.181884765625L21.532470703125 906.2662963867188V1082H596.44140625V906.2662963867188L463.59075927734375 886.2662963867188L633.8765258789062 408.80517578125L654.6492919921875 349.85052490234375H660.6492919921875L861.9155883789062 888.116943359375L732.5519409179688 906.2662963867188V1082H1267.6167602539062V906.2662963867188L1145.7466430664062 889.0325317382812L732.701171875 -161.06494140625Q703.3180541992188 -235.98052978515625 656.8083190917969 -298.71429443359375Q610.298583984375 -361.44805908203125 538.6200256347656 -399.2240295410156Q466.94146728515625 -437 362.66876220703125 -437Z"/></g>
      <g transform="translate(6981, 0)"><path d="M748.8701171875 -21Q536.6558227539062 -21 379.9772644042969 67.597412109375Q223.2987060546875 156.19482421875 137.76950073242188 318.5682067871094Q52.24029541015625 480.94158935546875 52.24029541015625 702.8117065429688V752.1882934570312Q52.24029541015625 963.7207641601562 134.48379516601562 1127.1363525390625Q216.727294921875 1290.5519409179688 369.6720886230469 1383.7759704589844Q522.6168823242188 1477 733.7207641601562 1477Q881.5064697265625 1477 1011.1525573730469 1435.1590881347656Q1140.7986450195312 1393.3181762695312 1243.0908203125 1306.8117065429688V955.181884765625H1025.6363525390625L996 1175.9286499023438Q962.7662353515625 1199.6948852539062 923.7337646484375 1216.6948852539062Q884.7012939453125 1233.6948852539062 839.1363525390625 1242.6948852539062Q793.5714111328125 1251.6948852539062 740.740234375 1251.6948852539062Q617.48046875 1251.6948852539062 528.3505859375 1190.8409729003906Q439.220703125 1129.987060546875 391.6135559082031 1018.5682067871094Q344.00640869140625 907.1493530273438 344.00640869140625 754.1882934570312V702.8117065429688Q344.00640869140625 550.0389404296875 393.8797912597656 437.8116455078125Q443.753173828125 325.5843505859375 535.91552734375 264.37005615234375Q628.077880859375 203.15576171875 754.0194702148438 203.15576171875Q817.2337646484375 203.15576171875 880.532470703125 217.37979125976562Q943.8311767578125 231.60382080078125 995.8506469726562 254.90252685546875L1025.8701171875 459.753173828125H1242.7921142578125V112.29217529296875Q1157.7077026367188 55.740234375 1030.753173828125 17.3701171875Q903.7986450195312 -21 748.8701171875 -21Z"/></g>
      <g transform="translate(8302, 0)"><path d="M425.2337646484375 -21Q263.6363525390625 -21 168.85064697265625 65.50973510742188Q74.06494140625 152.01947021484375 74.06494140625 300.78570556640625Q74.06494140625 453.55194091796875 197.90585327148438 549.2110290527344Q321.74676513671875 644.8701171875 560.5519409179688 644.8701171875H704.2013549804688V724.9610595703125Q704.2013549804688 802.6039428710938 658.5812072753906 851.3604431152344Q612.9610595703125 900.116943359375 522.2337646484375 900.116943359375Q475.207763671875 900.116943359375 437.8538513183594 888.552001953125Q400.49993896484375 876.987060546875 369.9869384765625 856.0065307617188L347.13629150390625 713.0260009765625H136.532470703125L133.44805908203125 993.7207641601562Q218.1688232421875 1041.6168823242188 317.3279113769531 1071.8084411621094Q416.48699951171875 1102 538.1882934570312 1102Q749.9934692382812 1102 873.0973510742188 1003.3733825683594Q996.2012329101562 904.7467651367188 996.2012329101562 721.727294921875V275.9869384765625Q996.2012329101562 253.753173828125 996.7012329101562 232.5194091796875Q997.2012329101562 211.28564453125 1000.4349975585938 191.28564453125L1112.8375854492188 174.73370361328125V0H751.4935302734375Q740.0260009765625 27.9610595703125 728.857177734375 59.87664794921875Q717.6883544921875 91.792236328125 713.2208251953125 123.70782470703125Q661.1558837890625 58.11041259765625 590.7695007324219 18.555206298828125Q520.3831176757812 -21 425.2337646484375 -21ZM502.96746826171875 195.20123291015625Q563.9545288085938 195.20123291015625 618.7370300292969 222.76943969726562Q673.51953125 250.337646484375 704.2013549804688 294.74676513671875V466.07147216796875H560.337646484375Q464.43499755859375 466.07147216796875 414.6330261230469 422.04547119140625Q364.8310546875 378.01947021484375 364.8310546875 315.9090576171875Q364.8310546875 258.48046875 401.428466796875 226.84085083007812Q438.02587890625 195.20123291015625 502.96746826171875 195.20123291015625Z"/></g>
      <g transform="translate(9456, 0)"><path d="M466.246826171875 0 139.2337646484375 888.181884765625 22.2987060546875 906.2662963867188V1082H547.2401733398438V906.8831787109375L433.38299560546875 886.8831787109375L596.272705078125 396.11029052734375L620.5714111328125 312.1947021484375H626.5714111328125L655.4869995117188 396.11029052734375L834.0714721679688 886.2662963867188L701.4091186523438 906.8831787109375V1082H1225.3505859375V906.2662963867188L1105.1817626953125 885.71435546875L762.623291015625 0Z"/></g>
      <g transform="translate(10703, 0)"><path d="M425.2337646484375 -21Q263.6363525390625 -21 168.85064697265625 65.50973510742188Q74.06494140625 152.01947021484375 74.06494140625 300.78570556640625Q74.06494140625 453.55194091796875 197.90585327148438 549.2110290527344Q321.74676513671875 644.8701171875 560.5519409179688 644.8701171875H704.2013549804688V724.9610595703125Q704.2013549804688 802.6039428710938 658.5812072753906 851.3604431152344Q612.9610595703125 900.116943359375 522.2337646484375 900.116943359375Q475.207763671875 900.116943359375 437.8538513183594 888.552001953125Q400.49993896484375 876.987060546875 369.9869384765625 856.0065307617188L347.13629150390625 713.0260009765625H136.532470703125L133.44805908203125 993.7207641601562Q218.1688232421875 1041.6168823242188 317.3279113769531 1071.8084411621094Q416.48699951171875 1102 538.1882934570312 1102Q749.9934692382812 1102 873.0973510742188 1003.3733825683594Q996.2012329101562 904.7467651367188 996.2012329101562 721.727294921875V275.9869384765625Q996.2012329101562 253.753173828125 996.7012329101562 232.5194091796875Q997.2012329101562 211.28564453125 1000.4349975585938 191.28564453125L1112.8375854492188 174.73370361328125V0H751.4935302734375Q740.0260009765625 27.9610595703125 728.857177734375 59.87664794921875Q717.6883544921875 91.792236328125 713.2208251953125 123.70782470703125Q661.1558837890625 58.11041259765625 590.7695007324219 18.555206298828125Q520.3831176757812 -21 425.2337646484375 -21ZM502.96746826171875 195.20123291015625Q563.9545288085938 195.20123291015625 618.7370300292969 222.76943969726562Q673.51953125 250.337646484375 704.2013549804688 294.74676513671875V466.07147216796875H560.337646484375Q464.43499755859375 466.07147216796875 414.6330261230469 422.04547119140625Q364.8310546875 378.01947021484375 364.8310546875 315.9090576171875Q364.8310546875 258.48046875 401.428466796875 226.84085083007812Q438.02587890625 195.20123291015625 502.96746826171875 195.20123291015625Z"/></g>
      <g transform="translate(11857, 0)"><path d="M51.792236328125 0V174.73370361328125L191.96759033203125 205.20123291015625V875.7987670898438L36.987060546875 906.2662963867188V1082H464.20123291015625L476.96746826171875 927.1688232421875Q530.9674682617188 1010.0844116210938 610.6168212890625 1056.0422058105469Q690.2661743164062 1102 791.7986450195312 1102Q952.6103515625 1102 1043.67529296875 999.1915588378906Q1134.740234375 896.3831176757812 1134.740234375 676.2142944335938V205.20123291015625L1274.9155883789062 174.73370361328125V0H716.7532958984375V174.73370361328125L842.1234741210938 205.20123291015625V675.2987060546875Q842.1234741210938 783.7532958984375 798.8864440917969 829.2565612792969Q755.6494140625 874.7598266601562 671.1104125976562 874.7598266601562Q608.3181762695312 874.7598266601562 561.6330871582031 848.2565612792969Q514.947998046875 821.7532958984375 483.96746826171875 772.9610595703125V205.20123291015625L601.93505859375 174.73370361328125V0Z"/></g>
      <g transform="translate(13164, 0)"><path d="M425.2337646484375 -21Q263.6363525390625 -21 168.85064697265625 65.50973510742188Q74.06494140625 152.01947021484375 74.06494140625 300.78570556640625Q74.06494140625 453.55194091796875 197.90585327148438 549.2110290527344Q321.74676513671875 644.8701171875 560.5519409179688 644.8701171875H704.2013549804688V724.9610595703125Q704.2013549804688 802.6039428710938 658.5812072753906 851.3604431152344Q612.9610595703125 900.116943359375 522.2337646484375 900.116943359375Q475.207763671875 900.116943359375 437.8538513183594 888.552001953125Q400.49993896484375 876.987060546875 369.9869384765625 856.0065307617188L347.13629150390625 713.0260009765625H136.532470703125L133.44805908203125 993.7207641601562Q218.1688232421875 1041.6168823242188 317.3279113769531 1071.8084411621094Q416.48699951171875 1102 538.1882934570312 1102Q749.9934692382812 1102 873.0973510742188 1003.3733825683594Q996.2012329101562 904.7467651367188 996.2012329101562 721.727294921875V275.9869384765625Q996.2012329101562 253.753173828125 996.7012329101562 232.5194091796875Q997.2012329101562 211.28564453125 1000.4349975585938 191.28564453125L1112.8375854492188 174.73370361328125V0H751.4935302734375Q740.0260009765625 27.9610595703125 728.857177734375 59.87664794921875Q717.6883544921875 91.792236328125 713.2208251953125 123.70782470703125Q661.1558837890625 58.11041259765625 590.7695007324219 18.555206298828125Q520.3831176757812 -21 425.2337646484375 -21ZM502.96746826171875 195.20123291015625Q563.9545288085938 195.20123291015625 618.7370300292969 222.76943969726562Q673.51953125 250.337646484375 704.2013549804688 294.74676513671875V466.07147216796875H560.337646484375Q464.43499755859375 466.07147216796875 414.6330261230469 422.04547119140625Q364.8310546875 378.01947021484375 364.8310546875 315.9090576171875Q364.8310546875 258.48046875 401.428466796875 226.84085083007812Q438.02587890625 195.20123291015625 502.96746826171875 195.20123291015625Z"/></g>
      <g transform="translate(14318, 0)"><path d="M521.6234130859375 -21Q350.5584716796875 -21 253.40911865234375 87.68182373046875Q156.259765625 196.3636474609375 156.259765625 424.87664794921875V875.7987670898438L37.19482421875 906.2662963867188V1082H156.259765625H448.2596435546875V422.87664794921875Q448.2596435546875 307.2467041015625 488.4642028808594 256.7434387207031Q528.6687622070312 206.24017333984375 611.3765869140625 206.24017333984375Q675.662353515625 206.24017333984375 725.6558837890625 231.46746826171875Q775.6494140625 256.69476318359375 807.5650024414062 304.467529296875V875.7987670898438L679.2208251953125 906.2662963867188V1082H807.5650024414062H1099.5648803710938V205.20123291015625L1230.3505859375 174.73370361328125V0H843.6039428710938L824.4351196289062 137.17535400390625Q772.8182373046875 60.662353515625 696.01953125 19.8311767578125Q619.2208251953125 -21 521.6234130859375 -21Z"/></g>
      <g transform="translate(15593, 0)"><path d="M540.3636474609375 -437Q458.04547119140625 -437 355.94158935546875 -415.8084411621094Q253.83770751953125 -394.61688232421875 176.20135498046875 -355.7662353515625L230.2857666015625 -147.86370849609375Q300.0909423828125 -178.09747314453125 378.4837951660156 -195.55526733398438Q456.87664794921875 -213.0130615234375 524.792236328125 -213.0130615234375Q641.987060546875 -213.0130615234375 696.7013549804688 -147.95785522460938Q751.4156494140625 -82.90264892578125 751.4156494140625 33.12335205078125V104.04547119140625Q703.3507080078125 43.44805908203125 638.2955017089844 11.224029541015625Q573.2402954101562 -21 488.9610595703125 -21Q356.9610595703125 -21 262.19482421875 45.425323486328125Q167.4285888671875 111.85064697265625 117.162353515625 231.81817626953125Q66.8961181640625 351.78570556640625 66.8961181640625 511.1038818359375V532.1038818359375Q66.8961181640625 703.0194702148438 116.85391235351562 831.2434997558594Q166.81170654296875 959.467529296875 260.0357360839844 1030.7337646484375Q353.259765625 1102 482.94158935546875 1102Q580.0065307617188 1102 650.2208251953125 1061.3831176757812Q720.4351196289062 1020.7662353515625 769.3507080078125 946L789.8182373046875 1082H1044.0324096679688V31.88958740234375Q1044.0324096679688 -110.57794189453125 983.512939453125 -215.8961181640625Q922.9934692382812 -321.21429443359375 810.1558227539062 -379.1071472167969Q697.3181762695312 -437 540.3636474609375 -437ZM571.272705078125 206.24017333984375Q632.5130004882812 206.24017333984375 677.7078247070312 230.70123291015625Q722.9026489257812 255.16229248046875 751.4156494140625 302.01947021484375V772.259765625Q723.2857666015625 820.9026489257812 677.7078247070312 847.8312377929688Q632.1298828125 874.7598266601562 572.0389404296875 874.7598266601562Q497.16229248046875 874.7598266601562 450.0843505859375 831.5552673339844Q403.00640869140625 788.3507080078125 380.9512023925781 711.4318542480469Q358.89599609375 634.5130004882812 358.89599609375 532.1038818359375V511.1038818359375Q358.89599609375 369.077880859375 408.15576171875 287.6590270996094Q457.41552734375 206.24017333984375 571.272705078125 206.24017333984375ZM1007.2467041015625 871.0325317382812 880.2792358398438 1082H1171.2467041015625V906.0325317382812Z"/></g>
      <g transform="translate(16791, 0)"><path d="M47.14935302734375 0V174.73370361328125L187.94158935546875 205.20123291015625V1353.7987670898438L31.727294921875 1384.2662963867188V1560H478.70770263671875V944.1688232421875Q529.7726440429688 1019.0844116210938 605.220703125 1060.5422058105469Q680.6687622070312 1102 777.2012329101562 1102Q940.0973510742188 1102 1035.48046875 993.3733825683594Q1130.8635864257812 884.7467651367188 1130.8635864257812 658.259765625V205.20123291015625L1271.0389404296875 174.73370361328125V0H712.8766479492188V174.73370361328125L838.8637084960938 205.20123291015625V660.259765625Q838.8637084960938 776.987060546875 794.9351196289062 825.8734436035156Q751.0065307617188 874.7598266601562 666 874.7598266601562Q606.5908813476562 874.7598266601562 558.2889099121094 850.1396789550781Q509.9869384765625 825.51953125 478.70770263671875 778.6428833007812V205.20123291015625L604.6947631835938 174.73370361328125V0Z"/></g>
  </g>
</svg>