<?xml version="1.0" encoding="UTF-8"?>
<svg xmlns="http://www.w3.org/2000/svg" viewBox="0 0 212.6 19" 
     width="212.6" height="19">
  <!-- Shadow layer (offset down-right) -->
  <g transform="translate(1.5, 17.65) scale(0.0078125, -0.0078125)" 
     fill="#000" stroke="#000" stroke-width="40" stroke-linejoin="round">
    <g transform="translate(0, 0)"><path d="M391.26629638671875 0V174.73370361328125L547.4805908203125 205.20123291015625V1231.1234741210938H282.25323486328125L265.59088134765625 1056.8831787109375H45.4156494140625V1456H1343.6298217773438V1056.8831787109375H1122.3701782226562L1105.9415893554688 1231.1234741210938H839.48046875V205.20123291015625L995.6947631835938 174.73370361328125V0Z"/></g>
      <g transform="translate(1389, 0)"><path d="M425.2337646484375 -21Q263.6363525390625 -21 168.85064697265625 65.50973510742188Q74.06494140625 152.01947021484375 74.06494140625 300.78570556640625Q74.06494140625 453.55194091796875 197.90585327148438 549.2110290527344Q321.74676513671875 644.8701171875 560.5519409179688 644.8701171875H704.2013549804688V724.9610595703125Q704.2013549804688 802.6039428710938 658.5812072753906 851.3604431152344Q612.9610595703125 900.116943359375 522.2337646484375 900.116943359375Q475.207763671875 900.116943359375 437.8538513183594 888.552001953125Q400.49993896484375 876.987060546875 369.9869384765625 856.0065307617188L347.13629150390625 713.0260009765625H136.532470703125L133.44805908203125 993.7207641601562Q218.1688232421875 1041.6168823242188 317.3279113769531 1071.8084411621094Q416.48699951171875 1102 538.1882934570312 1102Q749.9934692382812 1102 873.0973510742188 1003.3733825683594Q996.2012329101562 904.7467651367188 996.2012329101562 721.727294921875V275.9869384765625Q996.2012329101562 253.753173828125 996.7012329101562 232.5194091796875Q997.2012329101562 211.28564453125 1000.4349975585938 191.28564453125L1112.8375854492188 174.73370361328125V0H751.4935302734375Q740.0260009765625 27.9610595703125 728.857177734375 59.87664794921875Q717.6883544921875 91.792236328125 713.2208251953125 123.70782470703125Q661.1558837890625 58.11041259765625 590.7695007324219 18.555206298828125Q520.3831176757812 -21 425.2337646484375 -21ZM502.96746826171875 195.20123291015625Q563.9545288085938 195.20123291015625 618.7370300292969 222.76943969726562Q673.51953125 250.337646484375 704.2013549804688 294.74676513671875V466.07147216796875H560.337646484375Q464.43499755859375 466.07147216796875 414.6330261230469 422.04547119140625Q364.8310546875 378.01947021484375 364.8310546875 315.9090576171875Q364.8310546875 258.48046875 401.428466796875 226.84085083007812Q438.02587890625 195.20123291015625 502.96746826171875 195.20123291015625Z"/></g>
      <g transform="translate(2543, 0)"><path d="M51.792236328125 0V174.73370361328125L193.20135498046875 205.20123291015625V875.7987670898438L36.987060546875 906.2662963867188V1082H463.96746826171875L475.73370361328125 939.1493530273438Q528.3505859375 1016.7662353515625 606.6492919921875 1059.3831176757812Q684.947998046875 1102 788.012939453125 1102Q891.6947631835938 1102 966.1103515625 1056.0097351074219Q1040.5259399414062 1010.0194702148438 1078.2921752929688 916.80517578125Q1128.0584106445312 1003.8701171875 1208.0486755371094 1052.93505859375Q1288.0389404296875 1102 1395.7207641601562 1102Q1556.1688232421875 1102 1648.467529296875 993.1266174316406Q1740.7662353515625 884.2532348632812 1740.7662353515625 661.1882934570312V205.20123291015625L1882.1753540039062 174.73370361328125V0H1323.0130615234375V174.73370361328125L1449.0001220703125 205.20123291015625V661.9545288085938Q1449.0001220703125 781.857177734375 1409.7306213378906 828.3085021972656Q1370.4611206054688 874.7598266601562 1294.5390014648438 874.7598266601562Q1226.7012939453125 874.7598266601562 1179.9317932128906 836.1883544921875Q1133.1622924804688 797.6168823242188 1112.0584106445312 735.1168212890625V205.20123291015625L1230.0260009765625 174.73370361328125V0H703.32470703125V174.73370361328125L821.2922973632812 205.20123291015625V661.9545288085938Q821.2922973632812 778.792236328125 781.7565612792969 826.7760314941406Q742.2208251953125 874.7598266601562 665.4480590820312 874.7598266601562Q603.207763671875 874.7598266601562 558.1622924804688 849.7890319824219Q513.1168212890625 824.8182373046875 483.96746826171875 778.1753540039062V205.20123291015625L609.9545288085938 174.73370361328125V0Z"/></g>
      <g transform="translate(4460, 0)"><path d="M51.792236328125 0V174.73370361328125L193.20135498046875 205.20123291015625V875.7987670898438L36.987060546875 906.2662963867188V1082H463.96746826171875L475.73370361328125 939.1493530273438Q528.3505859375 1016.7662353515625 606.6492919921875 1059.3831176757812Q684.947998046875 1102 788.012939453125 1102Q891.6947631835938 1102 966.1103515625 1056.0097351074219Q1040.5259399414062 1010.0194702148438 1078.2921752929688 916.80517578125Q1128.0584106445312 1003.8701171875 1208.0486755371094 1052.93505859375Q1288.0389404296875 1102 1395.7207641601562 1102Q1556.1688232421875 1102 1648.467529296875 993.1266174316406Q1740.7662353515625 884.2532348632812 1740.7662353515625 661.1882934570312V205.20123291015625L1882.1753540039062 174.73370361328125V0H1323.0130615234375V174.73370361328125L1449.0001220703125 205.20123291015625V661.9545288085938Q1449.0001220703125 781.857177734375 1409.7306213378906 828.3085021972656Q1370.4611206054688 874.7598266601562 1294.5390014648438 874.7598266601562Q1226.7012939453125 874.7598266601562 1179.9317932128906 836.1883544921875Q1133.1622924804688 797.6168823242188 1112.0584106445312 735.1168212890625V205.20123291015625L1230.0260009765625 174.73370361328125V0H703.32470703125V174.73370361328125L821.2922973632812 205.20123291015625V661.9545288085938Q821.2922973632812 778.792236328125 781.7565612792969 826.7760314941406Q742.2208251953125 874.7598266601562 665.4480590820312 874.7598266601562Q603.207763671875 874.7598266601562 558.1622924804688 849.7890319824219Q513.1168212890625 824.8182373046875 483.96746826171875 778.1753540039062V205.20123291015625L609.9545288085938 174.73370361328125V0Z"/></g>
      <g transform="translate(6377, 0)"><path d="M362.66876220703125 -437Q325.48046875 -437 282.6200866699219 -430.2662353515625Q239.75970458984375 -423.532470703125 201.8701171875 -412.98052978515625L235.4415283203125 -198.75982666015625Q254.29217529296875 -202.6104736328125 277.1980285644531 -204.72735595703125Q300.1038818359375 -206.84423828125 316.65582275390625 -206.84423828125Q380.272705078125 -206.84423828125 425.9415283203125 -173.95785522460938Q471.6103515625 -141.07147216796875 492.65582275390625 -79.04547119140625L516.8311767578125 -11.92852783203125L155.42205810546875 887.181884765625L21.532470703125 906.2662963867188V1082H596.44140625V906.2662963867188L463.59075927734375 886.2662963867188L633.8765258789062 408.80517578125L654.6492919921875 349.85052490234375H660.6492919921875L861.9155883789062 888.116943359375L732.5519409179688 906.2662963867188V1082H1267.6167602539062V906.2662963867188L1145.7466430664062 889.0325317382812L732.701171875 -161.06494140625Q703.3180541992188 -235.98052978515625 656.8083190917969 -298.71429443359375Q610.298583984375 -361.44805908203125 538.6200256347656 -399.2240295410156Q466.94146728515625 -437 362.66876220703125 -437Z"/></g>
      <g transform="translate(8164, 0)"><path d="M552.9674682617188 -21Q401.12335205078125 -21 286.58441162109375 30.7012939453125Q172.04547119140625 82.402587890625 106.37664794921875 188.34738159179688Q40.70782470703125 294.29217529296875 34.70782470703125 456.947998046875L36.70782470703125 462.947998046875H310.83758544921875Q318.53887939453125 319.6492919921875 374.63629150390625 263.2953796386719Q430.73370361328125 206.94146728515625 524.0584106445312 206.94146728515625Q583.6168823242188 206.94146728515625 629.5227355957031 232.87979125976562Q675.4285888671875 258.818115234375 701.8539123535156 310.2142333984375Q728.2792358398438 361.6103515625 728.2792358398438 437.05841064453125V1249.7987670898438L531.8117065429688 1280.116943359375V1456H1175.2596435546875V1280.2662963867188L1019.0453491210938 1249.7987670898438V437.05841064453125Q1019.0453491210938 296.5714111328125 964.9187316894531 193.6363525390625Q910.7921142578125 90.7012939453125 806.8895263671875 34.85064697265625Q702.9869384765625 -21 552.9674682617188 -21Z"/></g>
      <g transform="translate(9366, 0)"><path d="M579.0389404296875 -21Q418.55194091796875 -21 303.88311767578125 48.88311767578125Q189.21429443359375 118.7662353515625 128.05520629882812 243.2662353515625Q66.8961181640625 367.7662353515625 66.8961181640625 530.2337646484375V551Q66.8961181640625 712.2337646484375 128.05520629882812 836.4253234863281Q189.21429443359375 960.6168823242188 303.5746765136719 1031.3084411621094Q417.93505859375 1102 577.0389404296875 1102Q737.5259399414062 1102 851.577880859375 1031.6168823242188Q965.6298217773438 961.2337646484375 1026.7889099121094 837.2337646484375Q1087.947998046875 713.2337646484375 1087.947998046875 551V530.2337646484375Q1087.947998046875 368 1026.7889099121094 243.5Q965.6298217773438 119 851.7694396972656 49.0Q737.9090576171875 -21 579.0389404296875 -21ZM579.0389404296875 202.70770263671875Q654.532470703125 202.70770263671875 702.6104125976562 243.720703125Q750.6883544921875 284.73370361328125 773.9351196289062 358.5032043457031Q797.181884765625 432.272705078125 797.181884765625 530.2337646484375V551Q797.181884765625 647.1104125976562 773.9351196289062 720.5714721679688Q750.6883544921875 794.0325317382812 702.1104125976562 835.6624145507812Q653.532470703125 877.2922973632812 577.0389404296875 877.2922973632812Q501.54541015625 877.2922973632812 452.96746826171875 835.6624145507812Q404.3895263671875 794.0325317382812 381.64276123046875 720.5714721679688Q358.89599609375 647.1104125976562 358.89599609375 551V530.2337646484375Q358.89599609375 431.65582275390625 381.64276123046875 357.8863220214844Q404.3895263671875 284.1168212890625 453.1590270996094 243.41226196289062Q501.92852783203125 202.70770263671875 579.0389404296875 202.70770263671875Z"/></g>
      <g transform="translate(11023, 0)"><path d="M55.70782470703125 0V174.73370361328125L211.30523681640625 205.20123291015625V1249.7987670898438L55.70782470703125 1280.2662963867188V1456H658.9025268554688V1280.2662963867188L503.30511474609375 1249.7987670898438V830.077880859375H1096.9026489257812V1249.7987670898438L941.3052368164062 1280.2662963867188V1456H1096.9026489257812H1388.28564453125H1543.883056640625V1280.2662963867188L1388.28564453125 1249.7987670898438V205.20123291015625L1543.883056640625 174.73370361328125V0H941.3052368164062V174.73370361328125L1096.9026489257812 205.20123291015625V604.7532958984375H503.30511474609375V205.20123291015625L658.9025268554688 174.73370361328125V0Z"/></g>
      <g transform="translate(12623, 0)"><path d="M521.6234130859375 -21Q350.5584716796875 -21 253.40911865234375 87.68182373046875Q156.259765625 196.3636474609375 156.259765625 424.87664794921875V875.7987670898438L37.19482421875 906.2662963867188V1082H156.259765625H448.2596435546875V422.87664794921875Q448.2596435546875 307.2467041015625 488.4642028808594 256.7434387207031Q528.6687622070312 206.24017333984375 611.3765869140625 206.24017333984375Q675.662353515625 206.24017333984375 725.6558837890625 231.46746826171875Q775.6494140625 256.69476318359375 807.5650024414062 304.467529296875V875.7987670898438L679.2208251953125 906.2662963867188V1082H807.5650024414062H1099.5648803710938V205.20123291015625L1230.3505859375 174.73370361328125V0H843.6039428710938L824.4351196289062 137.17535400390625Q772.8182373046875 60.662353515625 696.01953125 19.8311767578125Q619.2208251953125 -21 521.6234130859375 -21Z"/></g>
      <g transform="translate(13898, 0)"><path d="M488.077880859375 -20.7012939453125Q337.2337646484375 -20.7012939453125 255.6298828125 62.1363525390625Q174.0260009765625 144.9739990234375 174.0260009765625 325.26617431640625V876.779296875H25.2337646484375V1082H174.0260009765625V1346.7012939453125H464.7921142578125V1082H664.012939453125V876.779296875H464.7921142578125V325.883056640625Q464.7921142578125 263.30511474609375 491.47393798828125 236.17523193359375Q518.15576171875 209.04534912109375 563.9869384765625 209.04534912109375Q588.4999389648438 209.04534912109375 616.077880859375 212.76937866210938Q643.6558227539062 216.493408203125 663.9545288085938 220.2596435546875L689.1038818359375 9.21429443359375Q644.2532348632812 -3.78570556640625 591.6233520507812 -12.243499755859375Q538.9934692382812 -20.7012939453125 488.077880859375 -20.7012939453125Z"/></g>
      <g transform="translate(14633, 0)"><path d="M571.6363525390625 -21Q416 -21 302.68182373046875 49.042205810546875Q189.3636474609375 119.08441162109375 128.1298828125 242.31817626953125Q66.8961181640625 365.55194091796875 66.8961181640625 524.93505859375V555.2142944335938Q66.8961181640625 714.7662353515625 128.90585327148438 838.0Q190.91558837890625 961.2337646484375 303.9253234863281 1031.6168823242188Q416.93505859375 1102 569.7857055664062 1102Q715.5908813476562 1102 821.4934692382812 1056.532470703125Q927.3960571289062 1011.06494140625 992.54541015625 950.8701171875L990.7597045898438 640.9026489257812H770.7532958984375L731.8182373046875 834.2208251953125Q708.3052368164062 858.116943359375 671.1850891113281 872.9481201171875Q634.06494140625 887.779296875 595.9090576171875 887.779296875Q515.9285278320312 887.779296875 463.3083801269531 847.8085021972656Q410.688232421875 807.8377075195312 384.7921142578125 733.792236328125Q358.89599609375 659.7467651367188 358.89599609375 555.2142944335938V524.93505859375Q358.89599609375 413.72076416015625 387.84405517578125 342.4512634277344Q416.7921142578125 271.1817626953125 465.5616149902344 236.94473266601562Q514.3311157226562 202.70770263671875 573.7207641601562 202.70770263671875Q650.8961181640625 202.70770263671875 697.4643249511719 243.21096801757812Q744.0325317382812 283.7142333984375 761.5000610351562 358.12335205078125H1010.67529296875L1013.9090576171875 352.12335205078125Q997.1882934570312 236.91558837890625 946.5714111328125 153.13961791992188Q895.9545288085938 69.3636474609375 804.6882934570312 24.18182373046875Q713.4220581054688 -21 571.6363525390625 -21Z"/></g>
      <g transform="translate(15715, 0)"><path d="M47.14935302734375 0V174.73370361328125L187.94158935546875 205.20123291015625V1353.7987670898438L31.727294921875 1384.2662963867188V1560H478.70770263671875V944.1688232421875Q529.7726440429688 1019.0844116210938 605.220703125 1060.5422058105469Q680.6687622070312 1102 777.2012329101562 1102Q940.0973510742188 1102 1035.48046875 993.3733825683594Q1130.8635864257812 884.7467651367188 1130.8635864257812 658.259765625V205.20123291015625L1271.0389404296875 174.73370361328125V0H712.8766479492188V174.73370361328125L838.8637084960938 205.20123291015625V660.259765625Q838.8637084960938 776.987060546875 794.9351196289062 825.8734436035156Q751.0065307617188 874.7598266601562 666 874.7598266601562Q606.5908813476562 874.7598266601562 558.2889099121094 850.1396789550781Q509.9869384765625 825.51953125 478.70770263671875 778.6428833007812V205.20123291015625L604.6947631835938 174.73370361328125V0Z"/></g>
      <g transform="translate(17017, 0)"><path d="M54.04547119140625 0V174.73370361328125L194.83770751953125 205.20123291015625V875.7987670898438L39.24029541015625 906.2662963867188V1082H486.83758544921875V205.20123291015625L627.012939453125 174.73370361328125V0ZM184.83770751953125 1310.7532958984375V1560H486.83758544921875V1310.7532958984375Z"/></g>
      <g transform="translate(17678, 0)"><path d="M51.792236328125 0V174.73370361328125L191.96759033203125 205.20123291015625V875.7987670898438L36.987060546875 906.2662963867188V1082H464.20123291015625L476.96746826171875 927.1688232421875Q530.9674682617188 1010.0844116210938 610.6168212890625 1056.0422058105469Q690.2661743164062 1102 791.7986450195312 1102Q952.6103515625 1102 1043.67529296875 999.1915588378906Q1134.740234375 896.3831176757812 1134.740234375 676.2142944335938V205.20123291015625L1274.9155883789062 174.73370361328125V0H716.7532958984375V174.73370361328125L842.1234741210938 205.20123291015625V675.2987060546875Q842.1234741210938 783.7532958984375 798.8864440917969 829.2565612792969Q755.6494140625 874.7598266601562 671.1104125976562 874.7598266601562Q608.3181762695312 874.7598266601562 561.6330871582031 848.2565612792969Q514.947998046875 821.7532958984375 483.96746826171875 772.9610595703125V205.20123291015625L601.93505859375 174.73370361328125V0Z"/></g>
      <g transform="translate(18985, 0)"><path d="M526.80517578125 -21Q406.08441162109375 -21 301.5227355957031 1.925323486328125Q196.9610595703125 24.85064697265625 101.06494140625 67.7662353515625L97.8311767578125 374.1168212890625H301.1168212890625L339.96746826171875 217.883056640625Q374.3765869140625 201.0518798828125 414.8473815917969 191.16876220703125Q455.31817626953125 181.28564453125 507.06494140625 181.28564453125Q605.4740600585938 181.28564453125 645.1364135742188 213.09735107421875Q684.7987670898438 244.9090576171875 684.7987670898438 292.55194091796875Q684.7987670898438 338.04547119140625 642.1688842773438 372.67535400390625Q599.5390014648438 407.30523681640625 473.259765625 432.7532958984375Q280.9610595703125 472.8182373046875 190.00326538085938 556.95458984375Q99.04547119140625 641.0909423828125 99.04547119140625 772.0260009765625Q99.04547119140625 861.8766479492188 144.4935302734375 936.0032653808594Q189.94158935546875 1010.1298828125 283.7175598144531 1055.1396179199219Q377.4935302734375 1100.1493530273438 522.5519409179688 1100.1493530273438Q644.93505859375 1100.1493530273438 746.6233520507812 1076.467529296875Q848.3116455078125 1052.7857055664062 917.012939453125 1015.0389404296875L920.2272338867188 719.3052368164062H717.9415893554688L687.1753540039062 860.8377075195312Q659.5779418945312 880.6688842773438 623.2987060546875 890.9675903320312Q587.0194702148438 901.2662963867188 541.0584106445312 901.2662963867188Q464.48046875 901.2662963867188 423.3278503417969 869.987060546875Q382.17523193359375 838.7078247070312 382.17523193359375 790.3636474609375Q382.17523193359375 762.2337646484375 396.8245849609375 737.93505859375Q411.47393798828125 713.6363525390625 454.15576171875 692.6785583496094Q496.83758544921875 671.7207641601562 579.2012329101562 652.80517578125Q779.9090576171875 607.207763671875 871.8765869140625 530.7597045898438Q963.8441162109375 454.3116455078125 963.8441162109375 316.42205810546875Q963.8441162109375 165.2337646484375 854.3246459960938 72.11688232421875Q744.80517578125 -21 526.80517578125 -21Z"/></g>
      <g transform="translate(20019, 0)"><path d="M131.17535400390625 510.24029541015625V735.1817626953125H694.818115234375V510.24029541015625Z"/></g>
      <g transform="translate(20834, 0)"><path d="M55.7532958984375 0V174.73370361328125L210.73382568359375 205.20123291015625V1249.7987670898438L55.7532958984375 1280.2662963867188V1456H210.73382568359375H642.7595825195312L1039.5843505859375 441.0648193359375H1045.5843505859375L1430.4935302734375 1456H2017.5452880859375V1280.2662963867188L1861.9478759765625 1249.7987670898438V205.20123291015625L2017.5452880859375 174.73370361328125V0H1414.9674682617188V174.73370361328125L1577.7142333984375 205.20123291015625V484.08453369140625L1582.6492919921875 1140.7338256835938L1577.0324096679688 1141.7338256835938L1141.6622314453125 19.922119140625H921.2142944335938L476.012939453125 1132.9481201171875L469.7791748046875 1131.9481201171875L487.26617431640625 513.6948852539062V205.20123291015625L658.947998046875 174.73370361328125V0Z"/></g>
      <g transform="translate(22900, 0)"><path d="M54.04547119140625 0V174.73370361328125L194.83770751953125 205.20123291015625V875.7987670898438L39.24029541015625 906.2662963867188V1082H486.83758544921875V205.20123291015625L627.012939453125 174.73370361328125V0ZM184.83770751953125 1310.7532958984375V1560H486.83758544921875V1310.7532958984375Z"/></g>
      <g transform="translate(23561, 0)"><path d="M46.727294921875 0V174.73370361328125L188.13641357421875 205.20123291015625V1353.7987670898438L31.922119140625 1384.2662963867188V1560H480.13629150390625V205.20123291015625L620.9285278320312 174.73370361328125V0Z"/></g>
      <g transform="translate(24214, 0)"><path d="M46.727294921875 0V174.73370361328125L188.13641357421875 205.20123291015625V1353.7987670898438L31.922119140625 1384.2662963867188V1560H480.13629150390625V205.20123291015625L620.9285278320312 174.73370361328125V0Z"/></g>
      <g transform="translate(24867, 0)"><path d="M581.1882934570312 -21Q425.6363525390625 -21 310.0097351074219 47.5Q194.38311767578125 116 130.7987060546875 236.14935302734375Q67.21429443359375 356.2987060546875 67.21429443359375 510.1298828125V549.8117065429688Q67.21429443359375 710.597412109375 127.32144165039062 835.1818237304688Q187.4285888671875 959.7662353515625 296.9383239746094 1030.8831176757812Q406.44805908203125 1102 554.8895874023438 1102Q701.5064697265625 1102 801.8571166992188 1044.1590881347656Q902.207763671875 986.3181762695312 954.0584106445312 877.2012939453125Q1005.9090576171875 768.0844116210938 1005.9090576171875 613.06494140625V454.2857666015625H369.91546630859375L368.14923095703125 448.052001953125Q373.85052490234375 376.74676513671875 403.41546630859375 321.5389404296875Q432.98040771484375 266.33111572265625 486.87652587890625 234.5194091796875Q540.7726440429688 202.70770263671875 618.2012329101562 202.70770263671875Q698.4609985351562 202.70770263671875 767.7921752929688 223.188232421875Q837.1233520507812 243.66876220703125 903.2272338867188 283.79864501953125L982.077880859375 103.98052978515625Q914.8246459960938 50.44805908203125 813.4642639160156 14.724029541015625Q712.1038818359375 -21 581.1882934570312 -21ZM372.21417236328125 647.1493530273438H733.0325317382812V673.1493530273438Q733.0325317382812 738.8117065429688 715.4026489257812 786.4318542480469Q697.7727661132812 834.052001953125 659.6201477050781 859.9903259277344Q621.467529296875 885.9286499023438 559.8246459960938 885.9286499023438Q501.8441162109375 885.9286499023438 461.7239685058594 855.4481201171875Q421.60382080078125 824.9675903320312 399.2499084472656 772.2305603027344Q376.89599609375 719.4935302734375 368.98040771484375 652.1493530273438Z"/></g>
      <g transform="translate(25945, 0)"><path d="M84.95452880859375 0V174.73370361328125L225.1298828125 205.20123291015625V875.7987670898438L70.14935302734375 906.2662963867188V1082H496.74664306640625L508.1947021484375 947.7012939453125L510.1947021484375 923.7662353515625Q550.02587890625 1012.3181762695312 608.8895263671875 1057.1590881347656Q667.753173828125 1102 750.4349975585938 1102Q775.883056640625 1102 806.8408508300781 1097.7337646484375Q837.7986450195312 1093.467529296875 862.28564453125 1086L830.7337036132812 817.2533569335938L685.7142333984375 824.636474609375Q623.753173828125 827.7858276367188 585.2499084472656 803.941650390625Q546.7466430664062 780.0974731445312 517.1297607421875 734.922119140625V205.20123291015625L657.3051147460938 174.73370361328125V0Z"/></g>
  </g>
  <!-- Black stroke layer -->
  <g transform="translate(0, 16.15) scale(0.0078125, -0.0078125)" 
     fill="#000" stroke="#000" stroke-width="50" stroke-linejoin="round">
    <g transform="translate(0, 0)"><path d="M391.26629638671875 0V174.73370361328125L547.4805908203125 205.20123291015625V1231.1234741210938H282.25323486328125L265.59088134765625 1056.8831787109375H45.4156494140625V1456H1343.6298217773438V1056.8831787109375H1122.3701782226562L1105.9415893554688 1231.1234741210938H839.48046875V205.20123291015625L995.6947631835938 174.73370361328125V0Z"/></g>
      <g transform="translate(1389, 0)"><path d="M425.2337646484375 -21Q263.6363525390625 -21 168.85064697265625 65.50973510742188Q74.06494140625 152.01947021484375 74.06494140625 300.78570556640625Q74.06494140625 453.55194091796875 197.90585327148438 549.2110290527344Q321.74676513671875 644.8701171875 560.5519409179688 644.8701171875H704.2013549804688V724.9610595703125Q704.2013549804688 802.6039428710938 658.5812072753906 851.3604431152344Q612.9610595703125 900.116943359375 522.2337646484375 900.116943359375Q475.207763671875 900.116943359375 437.8538513183594 888.552001953125Q400.49993896484375 876.987060546875 369.9869384765625 856.0065307617188L347.13629150390625 713.0260009765625H136.532470703125L133.44805908203125 993.7207641601562Q218.1688232421875 1041.6168823242188 317.3279113769531 1071.8084411621094Q416.48699951171875 1102 538.1882934570312 1102Q749.9934692382812 1102 873.0973510742188 1003.3733825683594Q996.2012329101562 904.7467651367188 996.2012329101562 721.727294921875V275.9869384765625Q996.2012329101562 253.753173828125 996.7012329101562 232.5194091796875Q997.2012329101562 211.28564453125 1000.4349975585938 191.28564453125L1112.8375854492188 174.73370361328125V0H751.4935302734375Q740.0260009765625 27.9610595703125 728.857177734375 59.87664794921875Q717.6883544921875 91.792236328125 713.2208251953125 123.70782470703125Q661.1558837890625 58.11041259765625 590.7695007324219 18.555206298828125Q520.3831176757812 -21 425.2337646484375 -21ZM502.96746826171875 195.20123291015625Q563.9545288085938 195.20123291015625 618.7370300292969 222.76943969726562Q673.51953125 250.337646484375 704.2013549804688 294.74676513671875V466.07147216796875H560.337646484375Q464.43499755859375 466.07147216796875 414.6330261230469 422.04547119140625Q364.8310546875 378.01947021484375 364.8310546875 315.9090576171875Q364.8310546875 258.48046875 401.428466796875 226.84085083007812Q438.02587890625 195.20123291015625 502.96746826171875 195.20123291015625Z"/></g>
      <g transform="translate(2543, 0)"><path d="M51.792236328125 0V174.73370361328125L193.20135498046875 205.20123291015625V875.7987670898438L36.987060546875 906.2662963867188V1082H463.96746826171875L475.73370361328125 939.1493530273438Q528.3505859375 1016.7662353515625 606.6492919921875 1059.3831176757812Q684.947998046875 1102 788.012939453125 1102Q891.6947631835938 1102 966.1103515625 1056.0097351074219Q1040.5259399414062 1010.0194702148438 1078.2921752929688 916.80517578125Q1128.0584106445312 1003.8701171875 1208.0486755371094 1052.93505859375Q1288.0389404296875 1102 1395.7207641601562 1102Q1556.1688232421875 1102 1648.467529296875 993.1266174316406Q1740.7662353515625 884.2532348632812 1740.7662353515625 661.1882934570312V205.20123291015625L1882.1753540039062 174.73370361328125V0H1323.0130615234375V174.73370361328125L1449.0001220703125 205.20123291015625V661.9545288085938Q1449.0001220703125 781.857177734375 1409.7306213378906 828.3085021972656Q1370.4611206054688 874.7598266601562 1294.5390014648438 874.7598266601562Q1226.7012939453125 874.7598266601562 1179.9317932128906 836.1883544921875Q1133.1622924804688 797.6168823242188 1112.0584106445312 735.1168212890625V205.20123291015625L1230.0260009765625 174.73370361328125V0H703.32470703125V174.73370361328125L821.2922973632812 205.20123291015625V661.9545288085938Q821.2922973632812 778.792236328125 781.7565612792969 826.7760314941406Q742.2208251953125 874.7598266601562 665.4480590820312 874.7598266601562Q603.207763671875 874.7598266601562 558.1622924804688 849.7890319824219Q513.1168212890625 824.8182373046875 483.96746826171875 778.1753540039062V205.20123291015625L609.9545288085938 174.73370361328125V0Z"/></g>
      <g transform="translate(4460, 0)"><path d="M51.792236328125 0V174.73370361328125L193.20135498046875 205.20123291015625V875.7987670898438L36.987060546875 906.2662963867188V1082H463.96746826171875L475.73370361328125 939.1493530273438Q528.3505859375 1016.7662353515625 606.6492919921875 1059.3831176757812Q684.947998046875 1102 788.012939453125 1102Q891.6947631835938 1102 966.1103515625 1056.0097351074219Q1040.5259399414062 1010.0194702148438 1078.2921752929688 916.80517578125Q1128.0584106445312 1003.8701171875 1208.0486755371094 1052.93505859375Q1288.0389404296875 1102 1395.7207641601562 1102Q1556.1688232421875 1102 1648.467529296875 993.1266174316406Q1740.7662353515625 884.2532348632812 1740.7662353515625 661.1882934570312V205.20123291015625L1882.1753540039062 174.73370361328125V0H1323.0130615234375V174.73370361328125L1449.0001220703125 205.20123291015625V661.9545288085938Q1449.0001220703125 781.857177734375 1409.7306213378906 828.3085021972656Q1370.4611206054688 874.7598266601562 1294.5390014648438 874.7598266601562Q1226.7012939453125 874.7598266601562 1179.9317932128906 836.1883544921875Q1133.1622924804688 797.6168823242188 1112.0584106445312 735.1168212890625V205.20123291015625L1230.0260009765625 174.73370361328125V0H703.32470703125V174.73370361328125L821.2922973632812 205.20123291015625V661.9545288085938Q821.2922973632812 778.792236328125 781.7565612792969 826.7760314941406Q742.2208251953125 874.7598266601562 665.4480590820312 874.7598266601562Q603.207763671875 874.7598266601562 558.1622924804688 849.7890319824219Q513.1168212890625 824.8182373046875 483.96746826171875 778.1753540039062V205.20123291015625L609.9545288085938 174.73370361328125V0Z"/></g>
      <g transform="translate(6377, 0)"><path d="M362.66876220703125 -437Q325.48046875 -437 282.6200866699219 -430.2662353515625Q239.75970458984375 -423.532470703125 201.8701171875 -412.98052978515625L235.4415283203125 -198.75982666015625Q254.29217529296875 -202.6104736328125 277.1980285644531 -204.72735595703125Q300.1038818359375 -206.84423828125 316.65582275390625 -206.84423828125Q380.272705078125 -206.84423828125 425.9415283203125 -173.95785522460938Q471.6103515625 -141.07147216796875 492.65582275390625 -79.04547119140625L516.8311767578125 -11.92852783203125L155.42205810546875 887.181884765625L21.532470703125 906.2662963867188V1082H596.44140625V906.2662963867188L463.59075927734375 886.2662963867188L633.8765258789062 408.80517578125L654.6492919921875 349.85052490234375H660.6492919921875L861.9155883789062 888.116943359375L732.5519409179688 906.2662963867188V1082H1267.6167602539062V906.2662963867188L1145.7466430664062 889.0325317382812L732.701171875 -161.06494140625Q703.3180541992188 -235.98052978515625 656.8083190917969 -298.71429443359375Q610.298583984375 -361.44805908203125 538.6200256347656 -399.2240295410156Q466.94146728515625 -437 362.66876220703125 -437Z"/></g>
      <g transform="translate(8164, 0)"><path d="M552.9674682617188 -21Q401.12335205078125 -21 286.58441162109375 30.7012939453125Q172.04547119140625 82.402587890625 106.37664794921875 188.34738159179688Q40.70782470703125 294.29217529296875 34.70782470703125 456.947998046875L36.70782470703125 462.947998046875H310.83758544921875Q318.53887939453125 319.6492919921875 374.63629150390625 263.2953796386719Q430.73370361328125 206.94146728515625 524.0584106445312 206.94146728515625Q583.6168823242188 206.94146728515625 629.5227355957031 232.87979125976562Q675.4285888671875 258.818115234375 701.8539123535156 310.2142333984375Q728.2792358398438 361.6103515625 728.2792358398438 437.05841064453125V1249.7987670898438L531.8117065429688 1280.116943359375V1456H1175.2596435546875V1280.2662963867188L1019.0453491210938 1249.7987670898438V437.05841064453125Q1019.0453491210938 296.5714111328125 964.9187316894531 193.6363525390625Q910.7921142578125 90.7012939453125 806.8895263671875 34.85064697265625Q702.9869384765625 -21 552.9674682617188 -21Z"/></g>
      <g transform="translate(9366, 0)"><path d="M579.0389404296875 -21Q418.55194091796875 -21 303.88311767578125 48.88311767578125Q189.21429443359375 118.7662353515625 128.05520629882812 243.2662353515625Q66.8961181640625 367.7662353515625 66.8961181640625 530.2337646484375V551Q66.8961181640625 712.2337646484375 128.05520629882812 836.4253234863281Q189.21429443359375 960.6168823242188 303.5746765136719 1031.3084411621094Q417.93505859375 1102 577.0389404296875 1102Q737.5259399414062 1102 851.577880859375 1031.6168823242188Q965.6298217773438 961.2337646484375 1026.7889099121094 837.2337646484375Q1087.947998046875 713.2337646484375 1087.947998046875 551V530.2337646484375Q1087.947998046875 368 1026.7889099121094 243.5Q965.6298217773438 119 851.7694396972656 49.0Q737.9090576171875 -21 579.0389404296875 -21ZM579.0389404296875 202.70770263671875Q654.532470703125 202.70770263671875 702.6104125976562 243.720703125Q750.6883544921875 284.73370361328125 773.9351196289062 358.5032043457031Q797.181884765625 432.272705078125 797.181884765625 530.2337646484375V551Q797.181884765625 647.1104125976562 773.9351196289062 720.5714721679688Q750.6883544921875 794.0325317382812 702.1104125976562 835.6624145507812Q653.532470703125 877.2922973632812 577.0389404296875 877.2922973632812Q501.54541015625 877.2922973632812 452.96746826171875 835.6624145507812Q404.3895263671875 794.0325317382812 381.64276123046875 720.5714721679688Q358.89599609375 647.1104125976562 358.89599609375 551V530.2337646484375Q358.89599609375 431.65582275390625 381.64276123046875 357.8863220214844Q404.3895263671875 284.1168212890625 453.1590270996094 243.41226196289062Q501.92852783203125 202.70770263671875 579.0389404296875 202.70770263671875Z"/></g>
      <g transform="translate(11023, 0)"><path d="M55.70782470703125 0V174.73370361328125L211.30523681640625 205.20123291015625V1249.7987670898438L55.70782470703125 1280.2662963867188V1456H658.9025268554688V1280.2662963867188L503.30511474609375 1249.7987670898438V830.077880859375H1096.9026489257812V1249.7987670898438L941.3052368164062 1280.2662963867188V1456H1096.9026489257812H1388.28564453125H1543.883056640625V1280.2662963867188L1388.28564453125 1249.7987670898438V205.20123291015625L1543.883056640625 174.73370361328125V0H941.3052368164062V174.73370361328125L1096.9026489257812 205.20123291015625V604.7532958984375H503.30511474609375V205.20123291015625L658.9025268554688 174.73370361328125V0Z"/></g>
      <g transform="translate(12623, 0)"><path d="M521.6234130859375 -21Q350.5584716796875 -21 253.40911865234375 87.68182373046875Q156.259765625 196.3636474609375 156.259765625 424.87664794921875V875.7987670898438L37.19482421875 906.2662963867188V1082H156.259765625H448.2596435546875V422.87664794921875Q448.2596435546875 307.2467041015625 488.4642028808594 256.7434387207031Q528.6687622070312 206.24017333984375 611.3765869140625 206.24017333984375Q675.662353515625 206.24017333984375 725.6558837890625 231.46746826171875Q775.6494140625 256.69476318359375 807.5650024414062 304.467529296875V875.7987670898438L679.2208251953125 906.2662963867188V1082H807.5650024414062H1099.5648803710938V205.20123291015625L1230.3505859375 174.73370361328125V0H843.6039428710938L824.4351196289062 137.17535400390625Q772.8182373046875 60.662353515625 696.01953125 19.8311767578125Q619.2208251953125 -21 521.6234130859375 -21Z"/></g>
      <g transform="translate(13898, 0)"><path d="M488.077880859375 -20.7012939453125Q337.2337646484375 -20.7012939453125 255.6298828125 62.1363525390625Q174.0260009765625 144.9739990234375 174.0260009765625 325.26617431640625V876.779296875H25.2337646484375V1082H174.0260009765625V1346.7012939453125H464.7921142578125V1082H664.012939453125V876.779296875H464.7921142578125V325.883056640625Q464.7921142578125 263.30511474609375 491.47393798828125 236.17523193359375Q518.15576171875 209.04534912109375 563.9869384765625 209.04534912109375Q588.4999389648438 209.04534912109375 616.077880859375 212.76937866210938Q643.6558227539062 216.493408203125 663.9545288085938 220.2596435546875L689.1038818359375 9.21429443359375Q644.2532348632812 -3.78570556640625 591.6233520507812 -12.243499755859375Q538.9934692382812 -20.7012939453125 488.077880859375 -20.7012939453125Z"/></g>
      <g transform="translate(14633, 0)"><path d="M571.6363525390625 -21Q416 -21 302.68182373046875 49.042205810546875Q189.3636474609375 119.08441162109375 128.1298828125 242.31817626953125Q66.8961181640625 365.55194091796875 66.8961181640625 524.93505859375V555.2142944335938Q66.8961181640625 714.7662353515625 128.90585327148438 838.0Q190.91558837890625 961.2337646484375 303.9253234863281 1031.6168823242188Q416.93505859375 1102 569.7857055664062 1102Q715.5908813476562 1102 821.4934692382812 1056.532470703125Q927.3960571289062 1011.06494140625 992.54541015625 950.8701171875L990.7597045898438 640.9026489257812H770.7532958984375L731.8182373046875 834.2208251953125Q708.3052368164062 858.116943359375 671.1850891113281 872.9481201171875Q634.06494140625 887.779296875 595.9090576171875 887.779296875Q515.9285278320312 887.779296875 463.3083801269531 847.8085021972656Q410.688232421875 807.8377075195312 384.7921142578125 733.792236328125Q358.89599609375 659.7467651367188 358.89599609375 555.2142944335938V524.93505859375Q358.89599609375 413.72076416015625 387.84405517578125 342.4512634277344Q416.7921142578125 271.1817626953125 465.5616149902344 236.94473266601562Q514.3311157226562 202.70770263671875 573.7207641601562 202.70770263671875Q650.8961181640625 202.70770263671875 697.4643249511719 243.21096801757812Q744.0325317382812 283.7142333984375 761.5000610351562 358.12335205078125H1010.67529296875L1013.9090576171875 352.12335205078125Q997.1882934570312 236.91558837890625 946.5714111328125 153.13961791992188Q895.9545288085938 69.3636474609375 804.6882934570312 24.18182373046875Q713.4220581054688 -21 571.6363525390625 -21Z"/></g>
      <g transform="translate(15715, 0)"><path d="M47.14935302734375 0V174.73370361328125L187.94158935546875 205.20123291015625V1353.7987670898438L31.727294921875 1384.2662963867188V1560H478.70770263671875V944.1688232421875Q529.7726440429688 1019.0844116210938 605.220703125 1060.5422058105469Q680.6687622070312 1102 777.2012329101562 1102Q940.0973510742188 1102 1035.48046875 993.3733825683594Q1130.8635864257812 884.7467651367188 1130.8635864257812 658.259765625V205.20123291015625L1271.0389404296875 174.73370361328125V0H712.8766479492188V174.73370361328125L838.8637084960938 205.20123291015625V660.259765625Q838.8637084960938 776.987060546875 794.9351196289062 825.8734436035156Q751.0065307617188 874.7598266601562 666 874.7598266601562Q606.5908813476562 874.7598266601562 558.2889099121094 850.1396789550781Q509.9869384765625 825.51953125 478.70770263671875 778.6428833007812V205.20123291015625L604.6947631835938 174.73370361328125V0Z"/></g>
      <g transform="translate(17017, 0)"><path d="M54.04547119140625 0V174.73370361328125L194.83770751953125 205.20123291015625V875.7987670898438L39.24029541015625 906.2662963867188V1082H486.83758544921875V205.20123291015625L627.012939453125 174.73370361328125V0ZM184.83770751953125 1310.7532958984375V1560H486.83758544921875V1310.7532958984375Z"/></g>
      <g transform="translate(17678, 0)"><path d="M51.792236328125 0V174.73370361328125L191.96759033203125 205.20123291015625V875.7987670898438L36.987060546875 906.2662963867188V1082H464.20123291015625L476.96746826171875 927.1688232421875Q530.9674682617188 1010.0844116210938 610.6168212890625 1056.0422058105469Q690.2661743164062 1102 791.7986450195312 1102Q952.6103515625 1102 1043.67529296875 999.1915588378906Q1134.740234375 896.3831176757812 1134.740234375 676.2142944335938V205.20123291015625L1274.9155883789062 174.73370361328125V0H716.7532958984375V174.73370361328125L842.1234741210938 205.20123291015625V675.2987060546875Q842.1234741210938 783.7532958984375 798.8864440917969 829.2565612792969Q755.6494140625 874.7598266601562 671.1104125976562 874.7598266601562Q608.3181762695312 874.7598266601562 561.6330871582031 848.2565612792969Q514.947998046875 821.7532958984375 483.96746826171875 772.9610595703125V205.20123291015625L601.93505859375 174.73370361328125V0Z"/></g>
      <g transform="translate(18985, 0)"><path d="M526.80517578125 -21Q406.08441162109375 -21 301.5227355957031 1.925323486328125Q196.9610595703125 24.85064697265625 101.06494140625 67.7662353515625L97.8311767578125 374.1168212890625H301.1168212890625L339.96746826171875 217.883056640625Q374.3765869140625 201.0518798828125 414.8473815917969 191.16876220703125Q455.31817626953125 181.28564453125 507.06494140625 181.28564453125Q605.4740600585938 181.28564453125 645.1364135742188 213.09735107421875Q684.7987670898438 244.9090576171875 684.7987670898438 292.55194091796875Q684.7987670898438 338.04547119140625 642.1688842773438 372.67535400390625Q599.5390014648438 407.30523681640625 473.259765625 432.7532958984375Q280.9610595703125 472.8182373046875 190.00326538085938 556.95458984375Q99.04547119140625 641.0909423828125 99.04547119140625 772.0260009765625Q99.04547119140625 861.8766479492188 144.4935302734375 936.0032653808594Q189.94158935546875 1010.1298828125 283.7175598144531 1055.1396179199219Q377.4935302734375 1100.1493530273438 522.5519409179688 1100.1493530273438Q644.93505859375 1100.1493530273438 746.6233520507812 1076.467529296875Q848.3116455078125 1052.7857055664062 917.012939453125 1015.0389404296875L920.2272338867188 719.3052368164062H717.9415893554688L687.1753540039062 860.8377075195312Q659.5779418945312 880.6688842773438 623.2987060546875 890.9675903320312Q587.0194702148438 901.2662963867188 541.0584106445312 901.2662963867188Q464.48046875 901.2662963867188 423.3278503417969 869.987060546875Q382.17523193359375 838.7078247070312 382.17523193359375 790.3636474609375Q382.17523193359375 762.2337646484375 396.8245849609375 737.93505859375Q411.47393798828125 713.6363525390625 454.15576171875 692.6785583496094Q496.83758544921875 671.7207641601562 579.2012329101562 652.80517578125Q779.9090576171875 607.207763671875 871.8765869140625 530.7597045898438Q963.8441162109375 454.3116455078125 963.8441162109375 316.42205810546875Q963.8441162109375 165.2337646484375 854.3246459960938 72.11688232421875Q744.80517578125 -21 526.80517578125 -21Z"/></g>
      <g transform="translate(20019, 0)"><path d="M131.17535400390625 510.24029541015625V735.1817626953125H694.818115234375V510.24029541015625Z"/></g>
      <g transform="translate(20834, 0)"><path d="M55.7532958984375 0V174.73370361328125L210.73382568359375 205.20123291015625V1249.7987670898438L55.7532958984375 1280.2662963867188V1456H210.73382568359375H642.7595825195312L1039.5843505859375 441.0648193359375H1045.5843505859375L1430.4935302734375 1456H2017.5452880859375V1280.2662963867188L1861.9478759765625 1249.7987670898438V205.20123291015625L2017.5452880859375 174.73370361328125V0H1414.9674682617188V174.73370361328125L1577.7142333984375 205.20123291015625V484.08453369140625L1582.6492919921875 1140.7338256835938L1577.0324096679688 1141.7338256835938L1141.6622314453125 19.922119140625H921.2142944335938L476.012939453125 1132.9481201171875L469.7791748046875 1131.9481201171875L487.26617431640625 513.6948852539062V205.20123291015625L658.947998046875 174.73370361328125V0Z"/></g>
      <g transform="translate(22900, 0)"><path d="M54.04547119140625 0V174.73370361328125L194.83770751953125 205.20123291015625V875.7987670898438L39.24029541015625 906.2662963867188V1082H486.83758544921875V205.20123291015625L627.012939453125 174.73370361328125V0ZM184.83770751953125 1310.7532958984375V1560H486.83758544921875V1310.7532958984375Z"/></g>
      <g transform="translate(23561, 0)"><path d="M46.727294921875 0V174.73370361328125L188.13641357421875 205.20123291015625V1353.7987670898438L31.922119140625 1384.2662963867188V1560H480.13629150390625V205.20123291015625L620.9285278320312 174.73370361328125V0Z"/></g>
      <g transform="translate(24214, 0)"><path d="M46.727294921875 0V174.73370361328125L188.13641357421875 205.20123291015625V1353.7987670898438L31.922119140625 1384.2662963867188V1560H480.13629150390625V205.20123291015625L620.9285278320312 174.73370361328125V0Z"/></g>
      <g transform="translate(24867, 0)"><path d="M581.1882934570312 -21Q425.6363525390625 -21 310.0097351074219 47.5Q194.38311767578125 116 130.7987060546875 236.14935302734375Q67.21429443359375 356.2987060546875 67.21429443359375 510.1298828125V549.8117065429688Q67.21429443359375 710.597412109375 127.32144165039062 835.1818237304688Q187.4285888671875 959.7662353515625 296.9383239746094 1030.8831176757812Q406.44805908203125 1102 554.8895874023438 1102Q701.5064697265625 1102 801.8571166992188 1044.1590881347656Q902.207763671875 986.3181762695312 954.0584106445312 877.2012939453125Q1005.9090576171875 768.0844116210938 1005.9090576171875 613.06494140625V454.2857666015625H369.91546630859375L368.14923095703125 448.052001953125Q373.85052490234375 376.74676513671875 403.41546630859375 321.5389404296875Q432.98040771484375 266.33111572265625 486.87652587890625 234.5194091796875Q540.7726440429688 202.70770263671875 618.2012329101562 202.70770263671875Q698.4609985351562 202.70770263671875 767.7921752929688 223.188232421875Q837.1233520507812 243.66876220703125 903.2272338867188 283.79864501953125L982.077880859375 103.98052978515625Q914.8246459960938 50.44805908203125 813.4642639160156 14.724029541015625Q712.1038818359375 -21 581.1882934570312 -21ZM372.21417236328125 647.1493530273438H733.0325317382812V673.1493530273438Q733.0325317382812 738.8117065429688 715.4026489257812 786.4318542480469Q697.7727661132812 834.052001953125 659.6201477050781 859.9903259277344Q621.467529296875 885.9286499023438 559.8246459960938 885.9286499023438Q501.8441162109375 885.9286499023438 461.7239685058594 855.4481201171875Q421.60382080078125 824.9675903320312 399.2499084472656 772.2305603027344Q376.89599609375 719.4935302734375 368.98040771484375 652.1493530273438Z"/></g>
      <g transform="translate(25945, 0)"><path d="M84.95452880859375 0V174.73370361328125L225.1298828125 205.20123291015625V875.7987670898438L70.14935302734375 906.2662963867188V1082H496.74664306640625L508.1947021484375 947.7012939453125L510.1947021484375 923.7662353515625Q550.02587890625 1012.3181762695312 608.8895263671875 1057.1590881347656Q667.753173828125 1102 750.4349975585938 1102Q775.883056640625 1102 806.8408508300781 1097.7337646484375Q837.7986450195312 1093.467529296875 862.28564453125 1086L830.7337036132812 817.2533569335938L685.7142333984375 824.636474609375Q623.753173828125 827.7858276367188 585.2499084472656 803.941650390625Q546.7466430664062 780.0974731445312 517.1297607421875 734.922119140625V205.20123291015625L657.3051147460938 174.73370361328125V0Z"/></g>
  </g>
  <!-- Colored fill layer -->
  <g transform="translate(0, 16.15) scale(0.0078125, -0.0078125)" fill="#FF6B1A">
    <g transform="translate(0, 0)"><path d="M391.26629638671875 0V174.73370361328125L547.4805908203125 205.20123291015625V1231.1234741210938H282.25323486328125L265.59088134765625 1056.8831787109375H45.4156494140625V1456H1343.6298217773438V1056.8831787109375H1122.3701782226562L1105.9415893554688 1231.1234741210938H839.48046875V205.20123291015625L995.6947631835938 174.73370361328125V0Z"/></g>
      <g transform="translate(1389, 0)"><path d="M425.2337646484375 -21Q263.6363525390625 -21 168.85064697265625 65.50973510742188Q74.06494140625 152.01947021484375 74.06494140625 300.78570556640625Q74.06494140625 453.55194091796875 197.90585327148438 549.2110290527344Q321.74676513671875 644.8701171875 560.5519409179688 644.8701171875H704.2013549804688V724.9610595703125Q704.2013549804688 802.6039428710938 658.5812072753906 851.3604431152344Q612.9610595703125 900.116943359375 522.2337646484375 900.116943359375Q475.207763671875 900.116943359375 437.8538513183594 888.552001953125Q400.49993896484375 876.987060546875 369.9869384765625 856.0065307617188L347.13629150390625 713.0260009765625H136.532470703125L133.44805908203125 993.7207641601562Q218.1688232421875 1041.6168823242188 317.3279113769531 1071.8084411621094Q416.48699951171875 1102 538.1882934570312 1102Q749.9934692382812 1102 873.0973510742188 1003.3733825683594Q996.2012329101562 904.7467651367188 996.2012329101562 721.727294921875V275.9869384765625Q996.2012329101562 253.753173828125 996.7012329101562 232.5194091796875Q997.2012329101562 211.28564453125 1000.4349975585938 191.28564453125L1112.8375854492188 174.73370361328125V0H751.4935302734375Q740.0260009765625 27.9610595703125 728.857177734375 59.87664794921875Q717.6883544921875 91.792236328125 713.2208251953125 123.70782470703125Q661.1558837890625 58.11041259765625 590.7695007324219 18.555206298828125Q520.3831176757812 -21 425.2337646484375 -21ZM502.96746826171875 195.20123291015625Q563.9545288085938 195.20123291015625 618.7370300292969 222.76943969726562Q673.51953125 250.337646484375 704.2013549804688 294.74676513671875V466.07147216796875H560.337646484375Q464.43499755859375 466.07147216796875 414.6330261230469 422.04547119140625Q364.8310546875 378.01947021484375 364.8310546875 315.9090576171875Q364.8310546875 258.48046875 401.428466796875 226.84085083007812Q438.02587890625 195.20123291015625 502.96746826171875 195.20123291015625Z"/></g>
      <g transform="translate(2543, 0)"><path d="M51.792236328125 0V174.73370361328125L193.20135498046875 205.20123291015625V875.7987670898438L36.987060546875 906.2662963867188V1082H463.96746826171875L475.73370361328125 939.1493530273438Q528.3505859375 1016.7662353515625 606.6492919921875 1059.3831176757812Q684.947998046875 1102 788.012939453125 1102Q891.6947631835938 1102 966.1103515625 1056.0097351074219Q1040.5259399414062 1010.0194702148438 1078.2921752929688 916.80517578125Q1128.0584106445312 1003.8701171875 1208.0486755371094 1052.93505859375Q1288.0389404296875 1102 1395.7207641601562 1102Q1556.1688232421875 1102 1648.467529296875 993.1266174316406Q1740.7662353515625 884.2532348632812 1740.7662353515625 661.1882934570312V205.20123291015625L1882.1753540039062 174.73370361328125V0H1323.0130615234375V174.73370361328125L1449.0001220703125 205.20123291015625V661.9545288085938Q1449.0001220703125 781.857177734375 1409.7306213378906 828.3085021972656Q1370.4611206054688 874.7598266601562 1294.5390014648438 874.7598266601562Q1226.7012939453125 874.7598266601562 1179.9317932128906 836.1883544921875Q1133.1622924804688 797.6168823242188 1112.0584106445312 735.1168212890625V205.20123291015625L1230.0260009765625 174.73370361328125V0H703.32470703125V174.73370361328125L821.2922973632812 205.20123291015625V661.9545288085938Q821.2922973632812 778.792236328125 781.7565612792969 826.7760314941406Q742.2208251953125 874.7598266601562 665.4480590820312 874.7598266601562Q603.207763671875 874.7598266601562 558.1622924804688 849.7890319824219Q513.1168212890625 824.8182373046875 483.96746826171875 778.1753540039062V205.20123291015625L609.9545288085938 174.73370361328125V0Z"/></g>
      <g transform="translate(4460, 0)"><path d="M51.792236328125 0V174.73370361328125L193.20135498046875 205.20123291015625V875.7987670898438L36.987060546875 906.2662963867188V1082H463.96746826171875L475.73370361328125 939.1493530273438Q528.3505859375 1016.7662353515625 606.6492919921875 1059.3831176757812Q684.947998046875 1102 788.012939453125 1102Q891.6947631835938 1102 966.1103515625 1056.0097351074219Q1040.5259399414062 1010.0194702148438 1078.2921752929688 916.80517578125Q1128.0584106445312 1003.8701171875 1208.0486755371094 1052.93505859375Q1288.0389404296875 1102 1395.7207641601562 1102Q1556.1688232421875 1102 1648.467529296875 993.1266174316406Q1740.7662353515625 884.2532348632812 1740.7662353515625 661.1882934570312V205.20123291015625L1882.1753540039062 174.73370361328125V0H1323.0130615234375V174.73370361328125L1449.0001220703125 205.20123291015625V661.9545288085938Q1449.0001220703125 781.857177734375 1409.7306213378906 828.3085021972656Q1370.4611206054688 874.7598266601562 1294.5390014648438 874.7598266601562Q1226.7012939453125 874.7598266601562 1179.9317932128906 836.1883544921875Q1133.1622924804688 797.6168823242188 1112.0584106445312 735.1168212890625V205.20123291015625L1230.0260009765625 174.73370361328125V0H703.32470703125V174.73370361328125L821.2922973632812 205.20123291015625V661.9545288085938Q821.2922973632812 778.792236328125 781.7565612792969 826.7760314941406Q742.2208251953125 874.7598266601562 665.4480590820312 874.7598266601562Q603.207763671875 874.7598266601562 558.1622924804688 849.7890319824219Q513.1168212890625 824.8182373046875 483.96746826171875 778.1753540039062V205.20123291015625L609.9545288085938 174.73370361328125V0Z"/></g>
      <g transform="translate(6377, 0)"><path d="M362.66876220703125 -437Q325.48046875 -437 282.6200866699219 -430.2662353515625Q239.75970458984375 -423.532470703125 201.8701171875 -412.98052978515625L235.4415283203125 -198.75982666015625Q254.29217529296875 -202.6104736328125 277.1980285644531 -204.72735595703125Q300.1038818359375 -206.84423828125 316.65582275390625 -206.84423828125Q380.272705078125 -206.84423828125 425.9415283203125 -173.95785522460938Q471.6103515625 -141.07147216796875 492.65582275390625 -79.04547119140625L516.8311767578125 -11.92852783203125L155.42205810546875 887.181884765625L21.532470703125 906.2662963867188V1082H596.44140625V906.2662963867188L463.59075927734375 886.2662963867188L633.8765258789062 408.80517578125L654.6492919921875 349.85052490234375H660.6492919921875L861.9155883789062 888.116943359375L732.5519409179688 906.2662963867188V1082H1267.6167602539062V906.2662963867188L1145.7466430664062 889.0325317382812L732.701171875 -161.06494140625Q703.3180541992188 -235.98052978515625 656.8083190917969 -298.71429443359375Q610.298583984375 -361.44805908203125 538.6200256347656 -399.2240295410156Q466.94146728515625 -437 362.66876220703125 -437Z"/></g>
      <g transform="translate(8164, 0)"><path d="M552.9674682617188 -21Q401.12335205078125 -21 286.58441162109375 30.7012939453125Q172.04547119140625 82.402587890625 106.37664794921875 188.34738159179688Q40.70782470703125 294.29217529296875 34.70782470703125 456.947998046875L36.70782470703125 462.947998046875H310.83758544921875Q318.53887939453125 319.6492919921875 374.63629150390625 263.2953796386719Q430.73370361328125 206.94146728515625 524.0584106445312 206.94146728515625Q583.6168823242188 206.94146728515625 629.5227355957031 232.87979125976562Q675.4285888671875 258.818115234375 701.8539123535156 310.2142333984375Q728.2792358398438 361.6103515625 728.2792358398438 437.05841064453125V1249.7987670898438L531.8117065429688 1280.116943359375V1456H1175.2596435546875V1280.2662963867188L1019.0453491210938 1249.7987670898438V437.05841064453125Q1019.0453491210938 296.5714111328125 964.9187316894531 193.6363525390625Q910.7921142578125 90.7012939453125 806.8895263671875 34.85064697265625Q702.9869384765625 -21 552.9674682617188 -21Z"/></g>
      <g transform="translate(9366, 0)"><path d="M579.0389404296875 -21Q418.55194091796875 -21 303.88311767578125 48.88311767578125Q189.21429443359375 118.7662353515625 128.05520629882812 243.2662353515625Q66.8961181640625 367.7662353515625 66.8961181640625 530.2337646484375V551Q66.8961181640625 712.2337646484375 128.05520629882812 836.4253234863281Q189.21429443359375 960.6168823242188 303.5746765136719 1031.3084411621094Q417.93505859375 1102 577.0389404296875 1102Q737.5259399414062 1102 851.577880859375 1031.6168823242188Q965.6298217773438 961.2337646484375 1026.7889099121094 837.2337646484375Q1087.947998046875 713.2337646484375 1087.947998046875 551V530.2337646484375Q1087.947998046875 368 1026.7889099121094 243.5Q965.6298217773438 119 851.7694396972656 49.0Q737.9090576171875 -21 579.0389404296875 -21ZM579.0389404296875 202.70770263671875Q654.532470703125 202.70770263671875 702.6104125976562 243.720703125Q750.6883544921875 284.73370361328125 773.9351196289062 358.5032043457031Q797.181884765625 432.272705078125 797.181884765625 530.2337646484375V551Q797.181884765625 647.1104125976562 773.9351196289062 720.5714721679688Q750.6883544921875 794.0325317382812 702.1104125976562 835.6624145507812Q653.532470703125 877.2922973632812 577.0389404296875 877.2922973632812Q501.54541015625 877.2922973632812 452.96746826171875 835.6624145507812Q404.3895263671875 794.0325317382812 381.64276123046875 720.5714721679688Q358.89599609375 647.1104125976562 358.89599609375 551V530.2337646484375Q358.89599609375 431.65582275390625 381.64276123046875 357.8863220214844Q404.3895263671875 284.1168212890625 453.1590270996094 243.41226196289062Q501.92852783203125 202.70770263671875 579.0389404296875 202.70770263671875Z"/></g>
      <g transform="translate(11023, 0)"><path d="M55.70782470703125 0V174.73370361328125L211.30523681640625 205.20123291015625V1249.7987670898438L55.70782470703125 1280.2662963867188V1456H658.9025268554688V1280.2662963867188L503.30511474609375 1249.7987670898438V830.077880859375H1096.9026489257812V1249.7987670898438L941.3052368164062 1280.2662963867188V1456H1096.9026489257812H1388.28564453125H1543.883056640625V1280.2662963867188L1388.28564453125 1249.7987670898438V205.20123291015625L1543.883056640625 174.73370361328125V0H941.3052368164062V174.73370361328125L1096.9026489257812 205.20123291015625V604.7532958984375H503.30511474609375V205.20123291015625L658.9025268554688 174.73370361328125V0Z"/></g>
      <g transform="translate(12623, 0)"><path d="M521.6234130859375 -21Q350.5584716796875 -21 253.40911865234375 87.68182373046875Q156.259765625 196.3636474609375 156.259765625 424.87664794921875V875.7987670898438L37.19482421875 906.2662963867188V1082H156.259765625H448.2596435546875V422.87664794921875Q448.2596435546875 307.2467041015625 488.4642028808594 256.7434387207031Q528.6687622070312 206.24017333984375 611.3765869140625 206.24017333984375Q675.662353515625 206.24017333984375 725.6558837890625 231.46746826171875Q775.6494140625 256.69476318359375 807.5650024414062 304.467529296875V875.7987670898438L679.2208251953125 906.2662963867188V1082H807.5650024414062H1099.5648803710938V205.20123291015625L1230.3505859375 174.73370361328125V0H843.6039428710938L824.4351196289062 137.17535400390625Q772.8182373046875 60.662353515625 696.01953125 19.8311767578125Q619.2208251953125 -21 521.6234130859375 -21Z"/></g>
      <g transform="translate(13898, 0)"><path d="M488.077880859375 -20.7012939453125Q337.2337646484375 -20.7012939453125 255.6298828125 62.1363525390625Q174.0260009765625 144.9739990234375 174.0260009765625 325.26617431640625V876.779296875H25.2337646484375V1082H174.0260009765625V1346.7012939453125H464.7921142578125V1082H664.012939453125V876.779296875H464.7921142578125V325.883056640625Q464.7921142578125 263.30511474609375 491.47393798828125 236.17523193359375Q518.15576171875 209.04534912109375 563.9869384765625 209.04534912109375Q588.4999389648438 209.04534912109375 616.077880859375 212.76937866210938Q643.6558227539062 216.493408203125 663.9545288085938 220.2596435546875L689.1038818359375 9.21429443359375Q644.2532348632812 -3.78570556640625 591.6233520507812 -12.243499755859375Q538.9934692382812 -20.7012939453125 488.077880859375 -20.7012939453125Z"/></g>
      <g transform="translate(14633, 0)"><path d="M571.6363525390625 -21Q416 -21 302.68182373046875 49.042205810546875Q189.3636474609375 119.08441162109375 128.1298828125 242.31817626953125Q66.8961181640625 365.55194091796875 66.8961181640625 524.93505859375V555.2142944335938Q66.8961181640625 714.7662353515625 128.90585327148438 838.0Q190.91558837890625 961.2337646484375 303.9253234863281 1031.6168823242188Q416.93505859375 1102 569.7857055664062 1102Q715.5908813476562 1102 821.4934692382812 1056.532470703125Q927.3960571289062 1011.06494140625 992.54541015625 950.8701171875L990.7597045898438 640.9026489257812H770.7532958984375L731.8182373046875 834.2208251953125Q708.3052368164062 858.116943359375 671.1850891113281 872.9481201171875Q634.06494140625 887.779296875 595.9090576171875 887.779296875Q515.9285278320312 887.779296875 463.3083801269531 847.8085021972656Q410.688232421875 807.8377075195312 384.7921142578125 733.792236328125Q358.89599609375 659.7467651367188 358.89599609375 555.2142944335938V524.93505859375Q358.89599609375 413.72076416015625 387.84405517578125 342.4512634277344Q416.7921142578125 271.1817626953125 465.5616149902344 236.94473266601562Q514.3311157226562 202.70770263671875 573.7207641601562 202.70770263671875Q650.8961181640625 202.70770263671875 697.4643249511719 243.21096801757812Q744.0325317382812 283.7142333984375 761.5000610351562 358.12335205078125H1010.67529296875L1013.9090576171875 352.12335205078125Q997.1882934570312 236.91558837890625 946.5714111328125 153.13961791992188Q895.9545288085938 69.3636474609375 804.6882934570312 24.18182373046875Q713.4220581054688 -21 571.6363525390625 -21Z"/></g>
      <g transform="translate(15715, 0)"><path d="M47.14935302734375 0V174.73370361328125L187.94158935546875 205.20123291015625V1353.7987670898438L31.727294921875 1384.2662963867188V1560H478.70770263671875V944.1688232421875Q529.7726440429688 1019.0844116210938 605.220703125 1060.5422058105469Q680.6687622070312 1102 777.2012329101562 1102Q940.0973510742188 1102 1035.48046875 993.3733825683594Q1130.8635864257812 884.7467651367188 1130.8635864257812 658.259765625V205.20123291015625L1271.0389404296875 174.73370361328125V0H712.8766479492188V174.73370361328125L838.8637084960938 205.20123291015625V660.259765625Q838.8637084960938 776.987060546875 794.9351196289062 825.8734436035156Q751.0065307617188 874.7598266601562 666 874.7598266601562Q606.5908813476562 874.7598266601562 558.2889099121094 850.1396789550781Q509.9869384765625 825.51953125 478.70770263671875 778.6428833007812V205.20123291015625L604.6947631835938 174.73370361328125V0Z"/></g>
      <g transform="translate(17017, 0)"><path d="M54.04547119140625 0V174.73370361328125L194.83770751953125 205.20123291015625V875.7987670898438L39.24029541015625 906.2662963867188V1082H486.83758544921875V205.20123291015625L627.012939453125 174.73370361328125V0ZM184.83770751953125 1310.7532958984375V1560H486.83758544921875V1310.7532958984375Z"/></g>
      <g transform="translate(17678, 0)"><path d="M51.792236328125 0V174.73370361328125L191.96759033203125 205.20123291015625V875.7987670898438L36.987060546875 906.2662963867188V1082H464.20123291015625L476.96746826171875 927.1688232421875Q530.9674682617188 1010.0844116210938 610.6168212890625 1056.0422058105469Q690.2661743164062 1102 791.7986450195312 1102Q952.6103515625 1102 1043.67529296875 999.1915588378906Q1134.740234375 896.3831176757812 1134.740234375 676.2142944335938V205.20123291015625L1274.9155883789062 174.73370361328125V0H716.7532958984375V174.73370361328125L842.1234741210938 205.20123291015625V675.2987060546875Q842.1234741210938 783.7532958984375 798.8864440917969 829.2565612792969Q755.6494140625 874.7598266601562 671.1104125976562 874.7598266601562Q608.3181762695312 874.7598266601562 561.6330871582031 848.2565612792969Q514.947998046875 821.7532958984375 483.96746826171875 772.9610595703125V205.20123291015625L601.93505859375 174.73370361328125V0Z"/></g>
      <g transform="translate(18985, 0)"><path d="M526.80517578125 -21Q406.08441162109375 -21 301.5227355957031 1.925323486328125Q196.9610595703125 24.85064697265625 101.06494140625 67.7662353515625L97.8311767578125 374.1168212890625H301.1168212890625L339.96746826171875 217.883056640625Q374.3765869140625 201.0518798828125 414.8473815917969 191.16876220703125Q455.31817626953125 181.28564453125 507.06494140625 181.28564453125Q605.4740600585938 181.28564453125 645.1364135742188 213.09735107421875Q684.7987670898438 244.9090576171875 684.7987670898438 292.55194091796875Q684.7987670898438 338.04547119140625 642.1688842773438 372.67535400390625Q599.5390014648438 407.30523681640625 473.259765625 432.7532958984375Q280.9610595703125 472.8182373046875 190.00326538085938 556.95458984375Q99.04547119140625 641.0909423828125 99.04547119140625 772.0260009765625Q99.04547119140625 861.8766479492188 144.4935302734375 936.0032653808594Q189.94158935546875 1010.1298828125 283.7175598144531 1055.1396179199219Q377.4935302734375 1100.1493530273438 522.5519409179688 1100.1493530273438Q644.93505859375 1100.1493530273438 746.6233520507812 1076.467529296875Q848.3116455078125 1052.7857055664062 917.012939453125 1015.0389404296875L920.2272338867188 719.3052368164062H717.9415893554688L687.1753540039062 860.8377075195312Q659.5779418945312 880.6688842773438 623.2987060546875 890.9675903320312Q587.0194702148438 901.2662963867188 541.0584106445312 901.2662963867188Q464.48046875 901.2662963867188 423.3278503417969 869.987060546875Q382.17523193359375 838.7078247070312 382.17523193359375 790.3636474609375Q382.17523193359375 762.2337646484375 396.8245849609375 737.93505859375Q411.47393798828125 713.6363525390625 454.15576171875 692.6785583496094Q496.83758544921875 671.7207641601562 579.2012329101562 652.80517578125Q779.9090576171875 607.207763671875 871.8765869140625 530.7597045898438Q963.8441162109375 454.3116455078125 963.8441162109375 316.42205810546875Q963.8441162109375 165.2337646484375 854.3246459960938 72.11688232421875Q744.80517578125 -21 526.80517578125 -21Z"/></g>
      <g transform="translate(20019, 0)"><path d="M131.17535400390625 510.24029541015625V735.1817626953125H694.818115234375V510.24029541015625Z"/></g>
      <g transform="translate(20834, 0)"><path d="M55.7532958984375 0V174.73370361328125L210.73382568359375 205.20123291015625V1249.7987670898438L55.7532958984375 1280.2662963867188V1456H210.73382568359375H642.7595825195312L1039.5843505859375 441.0648193359375H1045.5843505859375L1430.4935302734375 1456H2017.5452880859375V1280.2662963867188L1861.9478759765625 1249.7987670898438V205.20123291015625L2017.5452880859375 174.73370361328125V0H1414.9674682617188V174.73370361328125L1577.7142333984375 205.20123291015625V484.08453369140625L1582.6492919921875 1140.7338256835938L1577.0324096679688 1141.7338256835938L1141.6622314453125 19.922119140625H921.2142944335938L476.012939453125 1132.9481201171875L469.7791748046875 1131.9481201171875L487.26617431640625 513.6948852539062V205.20123291015625L658.947998046875 174.73370361328125V0Z"/></g>
      <g transform="translate(22900, 0)"><path d="M54.04547119140625 0V174.73370361328125L194.83770751953125 205.20123291015625V875.7987670898438L39.24029541015625 906.2662963867188V1082H486.83758544921875V205.20123291015625L627.012939453125 174.73370361328125V0ZM184.83770751953125 1310.7532958984375V1560H486.83758544921875V1310.7532958984375Z"/></g>
      <g transform="translate(23561, 0)"><path d="M46.727294921875 0V174.73370361328125L188.13641357421875 205.20123291015625V1353.7987670898438L31.922119140625 1384.2662963867188V1560H480.13629150390625V205.20123291015625L620.9285278320312 174.73370361328125V0Z"/></g>
      <g transform="translate(24214, 0)"><path d="M46.727294921875 0V174.73370361328125L188.13641357421875 205.20123291015625V1353.7987670898438L31.922119140625 1384.2662963867188V1560H480.13629150390625V205.20123291015625L620.9285278320312 174.73370361328125V0Z"/></g>
      <g transform="translate(24867, 0)"><path d="M581.1882934570312 -21Q425.6363525390625 -21 310.0097351074219 47.5Q194.38311767578125 116 130.7987060546875 236.14935302734375Q67.21429443359375 356.2987060546875 67.21429443359375 510.1298828125V549.8117065429688Q67.21429443359375 710.597412109375 127.32144165039062 835.1818237304688Q187.4285888671875 959.7662353515625 296.9383239746094 1030.8831176757812Q406.44805908203125 1102 554.8895874023438 1102Q701.5064697265625 1102 801.8571166992188 1044.1590881347656Q902.207763671875 986.3181762695312 954.0584106445312 877.2012939453125Q1005.9090576171875 768.0844116210938 1005.9090576171875 613.06494140625V454.2857666015625H369.91546630859375L368.14923095703125 448.052001953125Q373.85052490234375 376.74676513671875 403.41546630859375 321.5389404296875Q432.98040771484375 266.33111572265625 486.87652587890625 234.5194091796875Q540.7726440429688 202.70770263671875 618.2012329101562 202.70770263671875Q698.4609985351562 202.70770263671875 767.7921752929688 223.188232421875Q837.1233520507812 243.66876220703125 903.2272338867188 283.79864501953125L982.077880859375 103.98052978515625Q914.8246459960938 50.44805908203125 813.4642639160156 14.724029541015625Q712.1038818359375 -21 581.1882934570312 -21ZM372.21417236328125 647.1493530273438H733.0325317382812V673.1493530273438Q733.0325317382812 738.8117065429688 715.4026489257812 786.4318542480469Q697.7727661132812 834.052001953125 659.6201477050781 859.9903259277344Q621.467529296875 885.9286499023438 559.8246459960938 885.9286499023438Q501.8441162109375 885.9286499023438 461.7239685058594 855.4481201171875Q421.60382080078125 824.9675903320312 399.2499084472656 772.2305603027344Q376.89599609375 719.4935302734375 368.98040771484375 652.1493530273438Z"/></g>
      <g transform="translate(25945, 0)"><path d="M84.95452880859375 0V174.73370361328125L225.1298828125 205.20123291015625V875.7987670898438L70.14935302734375 906.2662963867188V1082H496.74664306640625L508.1947021484375 947.7012939453125L510.1947021484375 923.7662353515625Q550.02587890625 1012.3181762695312 608.8895263671875 1057.1590881347656Q667.753173828125 1102 750.4349975585938 1102Q775.883056640625 1102 806.8408508300781 1097.7337646484375Q837.7986450195312 1093.467529296875 862.28564453125 1086L830.7337036132812 817.2533569335938L685.7142333984375 824.636474609375Q623.753173828125 827.7858276367188 585.2499084472656 803.941650390625Q546.7466430664062 780.0974731445312 517.1297607421875 734.922119140625V205.20123291015625L657.3051147460938 174.73370361328125V0Z"/></g>
  </g>
</svg>