<?xml version="1.0" encoding="UTF-8"?>
<svg xmlns="http://www.w3.org/2000/svg" viewBox="0 0 130 130" width="130" height="130">
  <g transform="translate(5, 5)">
    <!-- Starburst shadow -->
    <path d="M60,2 L64.8,24 L84,9 L75,30.6 L99,21 L84,42 L111,39 L91.2,55.2 L119,60 L91.2,64.8 L111,81 L84,78 L99,99 L75,89.4 L84,111 L64.8,96 L60,119 L55.2,96 L36,111 L45,89.4 L21,99 L36,78 L9,81 L28.8,64.8 L1,60 L28.8,55.2 L9,39 L36,42 L21,21 L45,30.6 L36,9 L55.2,24 Z" fill="#000" stroke="none" transform="translate(4, 4)"/>
    
    <!-- Starburst -->
    <path d="M60,2 L64.8,24 L84,9 L75,30.6 L99,21 L84,42 L111,39 L91.2,55.2 L119,60 L91.2,64.8 L111,81 L84,78 L99,99 L75,89.4 L84,111 L64.8,96 L60,119 L55.2,96 L36,111 L45,89.4 L21,99 L36,78 L9,81 L28.8,64.8 L1,60 L28.8,55.2 L9,39 L36,42 L21,21 L45,30.6 L36,9 L55.2,24 Z" fill="#FF1744" stroke="#000" stroke-width="5" stroke-linejoin="round"/>
    
    <!-- Number: Shadow layer -->
    <g transform="translate(38.8, 103.3) scale(0.101000, -0.101000)" 
       fill="#000" stroke="#000" stroke-width="72" stroke-linejoin="round">
      <g transform="translate(0, 0)"><path d="M1 9 18 135Q21 165 48.5 199.5Q76 234 116.0 269.5Q156 305 196 335Q238 367 276.0 397.0Q314 427 338.0 453.0Q362 479 362 497Q362 527 350.5 543.5Q339 560 322 560Q289 560 275.0 535.0Q261 510 261 479V469Q261 466 262 465Q249 464 234.5 463.0Q220 462 206 460Q193 459 179.5 458.0Q166 457 151 455Q135 453 120.0 451.5Q105 450 90 448Q89 456 88.5 464.5Q88 473 88 480Q88 539 110.5 585.5Q133 632 170.5 664.0Q208 696 254.0 712.5Q300 729 346 729Q397 729 440.5 707.5Q484 686 511.0 641.5Q538 597 538 529Q538 479 512.0 431.5Q486 384 440 339Q394 293 331.0 250.0Q268 207 194 168Q239 168 301.5 172.0Q364 176 447 183L431 38Q384 34 314.0 30.0Q244 26 170 21Z"/></g>
    </g>
    
    <!-- Number: Stroke layer -->
    <g transform="translate(32.8, 97.3) scale(0.101000, -0.101000)" 
       fill="#000" stroke="#000" stroke-width="72" stroke-linejoin="round">
      <g transform="translate(0, 0)"><path d="M1 9 18 135Q21 165 48.5 199.5Q76 234 116.0 269.5Q156 305 196 335Q238 367 276.0 397.0Q314 427 338.0 453.0Q362 479 362 497Q362 527 350.5 543.5Q339 560 322 560Q289 560 275.0 535.0Q261 510 261 479V469Q261 466 262 465Q249 464 234.5 463.0Q220 462 206 460Q193 459 179.5 458.0Q166 457 151 455Q135 453 120.0 451.5Q105 450 90 448Q89 456 88.5 464.5Q88 473 88 480Q88 539 110.5 585.5Q133 632 170.5 664.0Q208 696 254.0 712.5Q300 729 346 729Q397 729 440.5 707.5Q484 686 511.0 641.5Q538 597 538 529Q538 479 512.0 431.5Q486 384 440 339Q394 293 331.0 250.0Q268 207 194 168Q239 168 301.5 172.0Q364 176 447 183L431 38Q384 34 314.0 30.0Q244 26 170 21Z"/></g>
    </g>
    
    <!-- Number: Fill layer -->
    <g transform="translate(32.8, 97.3) scale(0.101000, -0.101000)" 
       fill="#FFEB3B" stroke="none">
      <g transform="translate(0, 0)"><path d="M1 9 18 135Q21 165 48.5 199.5Q76 234 116.0 269.5Q156 305 196 335Q238 367 276.0 397.0Q314 427 338.0 453.0Q362 479 362 497Q362 527 350.5 543.5Q339 560 322 560Q289 560 275.0 535.0Q261 510 261 479V469Q261 466 262 465Q249 464 234.5 463.0Q220 462 206 460Q193 459 179.5 458.0Q166 457 151 455Q135 453 120.0 451.5Q105 450 90 448Q89 456 88.5 464.5Q88 473 88 480Q88 539 110.5 585.5Q133 632 170.5 664.0Q208 696 254.0 712.5Q300 729 346 729Q397 729 440.5 707.5Q484 686 511.0 641.5Q538 597 538 529Q538 479 512.0 431.5Q486 384 440 339Q394 293 331.0 250.0Q268 207 194 168Q239 168 301.5 172.0Q364 176 447 183L431 38Q384 34 314.0 30.0Q244 26 170 21Z"/></g>
    </g>
  </g>
</svg>