<?xml version="1.0" encoding="UTF-8"?>
<svg xmlns="http://www.w3.org/2000/svg" viewBox="0 0 130 130" width="130" height="130">
  <g transform="translate(5, 5)">
    <!-- Starburst shadow -->
    <path d="M60,2 L64.8,24 L84,9 L75,30.6 L99,21 L84,42 L111,39 L91.2,55.2 L119,60 L91.2,64.8 L111,81 L84,78 L99,99 L75,89.4 L84,111 L64.8,96 L60,119 L55.2,96 L36,111 L45,89.4 L21,99 L36,78 L9,81 L28.8,64.8 L1,60 L28.8,55.2 L9,39 L36,42 L21,21 L45,30.6 L36,9 L55.2,24 Z" fill="#000" stroke="none" transform="translate(4, 4)"/>
    
    <!-- Starburst -->
    <path d="M60,2 L64.8,24 L84,9 L75,30.6 L99,21 L84,42 L111,39 L91.2,55.2 L119,60 L91.2,64.8 L111,81 L84,78 L99,99 L75,89.4 L84,111 L64.8,96 L60,119 L55.2,96 L36,111 L45,89.4 L21,99 L36,78 L9,81 L28.8,64.8 L1,60 L28.8,55.2 L9,39 L36,42 L21,21 L45,30.6 L36,9 L55.2,24 Z" fill="#FF1744" stroke="#000" stroke-width="5" stroke-linejoin="round"/>
    
    <!-- Number: Shadow layer -->
    <g transform="translate(37.7, 102.6) scale(0.101000, -0.101000)" 
       fill="#000" stroke="#000" stroke-width="72" stroke-linejoin="round">
      <g transform="translate(0, 0)"><path d="M206 -5Q130 -5 87.0 44.0Q44 93 44 173Q44 192 45.5 213.0Q47 234 49 257L203 245Q198 228 198 221Q198 201 210.0 192.0Q222 183 238 183Q266 183 290.5 207.0Q315 231 315 278Q315 304 294.5 322.0Q274 340 209 340Q198 340 184.5 339.0Q171 338 145.0 334.5Q119 331 69 322Q80 397 96.0 494.5Q112 592 135 715L516 729L496 566Q468 565 440.0 564.0Q412 563 383 562Q354 561 324.5 560.0Q295 559 265 557L255 473Q319 473 364.0 461.0Q409 449 437 428Q465 407 477.5 378.5Q490 350 490 315Q490 266 465.5 209.5Q441 153 397 103Q352 52 302.0 23.5Q252 -5 206 -5Z"/></g>
    </g>
    
    <!-- Number: Stroke layer -->
    <g transform="translate(31.7, 96.6) scale(0.101000, -0.101000)" 
       fill="#000" stroke="#000" stroke-width="72" stroke-linejoin="round">
      <g transform="translate(0, 0)"><path d="M206 -5Q130 -5 87.0 44.0Q44 93 44 173Q44 192 45.5 213.0Q47 234 49 257L203 245Q198 228 198 221Q198 201 210.0 192.0Q222 183 238 183Q266 183 290.5 207.0Q315 231 315 278Q315 304 294.5 322.0Q274 340 209 340Q198 340 184.5 339.0Q171 338 145.0 334.5Q119 331 69 322Q80 397 96.0 494.5Q112 592 135 715L516 729L496 566Q468 565 440.0 564.0Q412 563 383 562Q354 561 324.5 560.0Q295 559 265 557L255 473Q319 473 364.0 461.0Q409 449 437 428Q465 407 477.5 378.5Q490 350 490 315Q490 266 465.5 209.5Q441 153 397 103Q352 52 302.0 23.5Q252 -5 206 -5Z"/></g>
    </g>
    
    <!-- Number: Fill layer -->
    <g transform="translate(31.7, 96.6) scale(0.101000, -0.101000)" 
       fill="#FFEB3B" stroke="none">
      <g transform="translate(0, 0)"><path d="M206 -5Q130 -5 87.0 44.0Q44 93 44 173Q44 192 45.5 213.0Q47 234 49 257L203 245Q198 228 198 221Q198 201 210.0 192.0Q222 183 238 183Q266 183 290.5 207.0Q315 231 315 278Q315 304 294.5 322.0Q274 340 209 340Q198 340 184.5 339.0Q171 338 145.0 334.5Q119 331 69 322Q80 397 96.0 494.5Q112 592 135 715L516 729L496 566Q468 565 440.0 564.0Q412 563 383 562Q354 561 324.5 560.0Q295 559 265 557L255 473Q319 473 364.0 461.0Q409 449 437 428Q465 407 477.5 378.5Q490 350 490 315Q490 266 465.5 209.5Q441 153 397 103Q352 52 302.0 23.5Q252 -5 206 -5Z"/></g>
    </g>
  </g>
</svg>