<?xml version="1.0" encoding="UTF-8"?>
<svg xmlns="http://www.w3.org/2000/svg" viewBox="0 0 130 130" width="130" height="130">
  <g transform="translate(5, 5)">
    <!-- Starburst shadow -->
    <path d="M60,2 L64.8,24 L84,9 L75,30.6 L99,21 L84,42 L111,39 L91.2,55.2 L119,60 L91.2,64.8 L111,81 L84,78 L99,99 L75,89.4 L84,111 L64.8,96 L60,119 L55.2,96 L36,111 L45,89.4 L21,99 L36,78 L9,81 L28.8,64.8 L1,60 L28.8,55.2 L9,39 L36,42 L21,21 L45,30.6 L36,9 L55.2,24 Z" fill="#000" stroke="none" transform="translate(4, 4)"/>
    
    <!-- Starburst -->
    <path d="M60,2 L64.8,24 L84,9 L75,30.6 L99,21 L84,42 L111,39 L91.2,55.2 L119,60 L91.2,64.8 L111,81 L84,78 L99,99 L75,89.4 L84,111 L64.8,96 L60,119 L55.2,96 L36,111 L45,89.4 L21,99 L36,78 L9,81 L28.8,64.8 L1,60 L28.8,55.2 L9,39 L36,42 L21,21 L45,30.6 L36,9 L55.2,24 Z" fill="#FF1744" stroke="#000" stroke-width="5" stroke-linejoin="round"/>
    
    <!-- Number: Shadow layer -->
    <g transform="translate(42.2, 102.6) scale(0.101000, -0.101000)" 
       fill="#000" stroke="#000" stroke-width="72" stroke-linejoin="round">
      <g transform="translate(0, 0)"><path d="M91 4 130 184Q136 214 145.0 257.5Q154 301 163.5 349.0Q173 397 181.0 440.0Q189 483 194 513Q169 511 147 507L108 501Q88 497 73 495Q74 502 75.5 513.0Q77 524 79 538L88 596Q90 613 92.5 631.5Q95 650 98 670Q109 672 125.5 675.5Q142 679 162 683L255 698Q284 703 320.0 708.5Q356 714 399 721Q359 553 328.0 387.0Q297 221 269 43Q246 36 216.0 29.0Q186 22 157 17Q141 13 124.5 10.0Q108 7 91 4Z"/></g>
    </g>
    
    <!-- Number: Stroke layer -->
    <g transform="translate(36.2, 96.6) scale(0.101000, -0.101000)" 
       fill="#000" stroke="#000" stroke-width="72" stroke-linejoin="round">
      <g transform="translate(0, 0)"><path d="M91 4 130 184Q136 214 145.0 257.5Q154 301 163.5 349.0Q173 397 181.0 440.0Q189 483 194 513Q169 511 147 507L108 501Q88 497 73 495Q74 502 75.5 513.0Q77 524 79 538L88 596Q90 613 92.5 631.5Q95 650 98 670Q109 672 125.5 675.5Q142 679 162 683L255 698Q284 703 320.0 708.5Q356 714 399 721Q359 553 328.0 387.0Q297 221 269 43Q246 36 216.0 29.0Q186 22 157 17Q141 13 124.5 10.0Q108 7 91 4Z"/></g>
    </g>
    
    <!-- Number: Fill layer -->
    <g transform="translate(36.2, 96.6) scale(0.101000, -0.101000)" 
       fill="#FFEB3B" stroke="none">
      <g transform="translate(0, 0)"><path d="M91 4 130 184Q136 214 145.0 257.5Q154 301 163.5 349.0Q173 397 181.0 440.0Q189 483 194 513Q169 511 147 507L108 501Q88 497 73 495Q74 502 75.5 513.0Q77 524 79 538L88 596Q90 613 92.5 631.5Q95 650 98 670Q109 672 125.5 675.5Q142 679 162 683L255 698Q284 703 320.0 708.5Q356 714 399 721Q359 553 328.0 387.0Q297 221 269 43Q246 36 216.0 29.0Q186 22 157 17Q141 13 124.5 10.0Q108 7 91 4Z"/></g>
    </g>
  </g>
</svg>