<?xml version="1.0" encoding="UTF-8"?>
<svg xmlns="http://www.w3.org/2000/svg" viewBox="0 0 130 130" width="130" height="130">
  <g transform="translate(5, 5)">
    <!-- Starburst shadow -->
    <path d="M60,2 L64.8,24 L84,9 L75,30.6 L99,21 L84,42 L111,39 L91.2,55.2 L119,60 L91.2,64.8 L111,81 L84,78 L99,99 L75,89.4 L84,111 L64.8,96 L60,119 L55.2,96 L36,111 L45,89.4 L21,99 L36,78 L9,81 L28.8,64.8 L1,60 L28.8,55.2 L9,39 L36,42 L21,21 L45,30.6 L36,9 L55.2,24 Z" fill="#000" stroke="none" transform="translate(4, 4)"/>
    
    <!-- Starburst -->
    <path d="M60,2 L64.8,24 L84,9 L75,30.6 L99,21 L84,42 L111,39 L91.2,55.2 L119,60 L91.2,64.8 L111,81 L84,78 L99,99 L75,89.4 L84,111 L64.8,96 L60,119 L55.2,96 L36,111 L45,89.4 L21,99 L36,78 L9,81 L28.8,64.8 L1,60 L28.8,55.2 L9,39 L36,42 L21,21 L45,30.6 L36,9 L55.2,24 Z" fill="#FF1744" stroke="#000" stroke-width="5" stroke-linejoin="round"/>
    
    <!-- Number: Shadow layer -->
    <g transform="translate(36.5, 103.5) scale(0.101000, -0.101000)" 
       fill="#000" stroke="#000" stroke-width="72" stroke-linejoin="round">
      <g transform="translate(0, 0)"><path d="M261 5Q205 5 157.0 33.0Q109 61 80.5 116.0Q52 171 52 253Q52 375 85.0 466.5Q118 558 167 619Q217 679 274.5 708.5Q332 738 383 738Q455 738 493.5 688.5Q532 639 532 565L395 500Q395 571 358 571Q341 571 321.0 544.0Q301 517 282.5 474.5Q264 432 252 383Q274 390 294.5 393.0Q315 396 334 396Q389 396 426.5 371.5Q464 347 483.5 307.5Q503 268 503 224Q503 170 476.0 120.0Q449 70 395.5 37.5Q342 5 261 5ZM278 155Q318 155 345.0 180.5Q372 206 372 235Q372 251 355 263Q339 275 294 275Q280 275 264.5 273.0Q249 271 230 265Q229 262 229.0 259.0Q229 256 229 253V241Q229 195 244 175Q259 155 278 155Z"/></g>
    </g>
    
    <!-- Number: Stroke layer -->
    <g transform="translate(30.5, 97.5) scale(0.101000, -0.101000)" 
       fill="#000" stroke="#000" stroke-width="72" stroke-linejoin="round">
      <g transform="translate(0, 0)"><path d="M261 5Q205 5 157.0 33.0Q109 61 80.5 116.0Q52 171 52 253Q52 375 85.0 466.5Q118 558 167 619Q217 679 274.5 708.5Q332 738 383 738Q455 738 493.5 688.5Q532 639 532 565L395 500Q395 571 358 571Q341 571 321.0 544.0Q301 517 282.5 474.5Q264 432 252 383Q274 390 294.5 393.0Q315 396 334 396Q389 396 426.5 371.5Q464 347 483.5 307.5Q503 268 503 224Q503 170 476.0 120.0Q449 70 395.5 37.5Q342 5 261 5ZM278 155Q318 155 345.0 180.5Q372 206 372 235Q372 251 355 263Q339 275 294 275Q280 275 264.5 273.0Q249 271 230 265Q229 262 229.0 259.0Q229 256 229 253V241Q229 195 244 175Q259 155 278 155Z"/></g>
    </g>
    
    <!-- Number: Fill layer -->
    <g transform="translate(30.5, 97.5) scale(0.101000, -0.101000)" 
       fill="#FFEB3B" stroke="none">
      <g transform="translate(0, 0)"><path d="M261 5Q205 5 157.0 33.0Q109 61 80.5 116.0Q52 171 52 253Q52 375 85.0 466.5Q118 558 167 619Q217 679 274.5 708.5Q332 738 383 738Q455 738 493.5 688.5Q532 639 532 565L395 500Q395 571 358 571Q341 571 321.0 544.0Q301 517 282.5 474.5Q264 432 252 383Q274 390 294.5 393.0Q315 396 334 396Q389 396 426.5 371.5Q464 347 483.5 307.5Q503 268 503 224Q503 170 476.0 120.0Q449 70 395.5 37.5Q342 5 261 5ZM278 155Q318 155 345.0 180.5Q372 206 372 235Q372 251 355 263Q339 275 294 275Q280 275 264.5 273.0Q249 271 230 265Q229 262 229.0 259.0Q229 256 229 253V241Q229 195 244 175Q259 155 278 155Z"/></g>
    </g>
  </g>
</svg>