<?xml version="1.0" encoding="UTF-8"?>
<svg xmlns="http://www.w3.org/2000/svg" viewBox="0 0 130 130" width="130" height="130">
  <g transform="translate(5, 5)">
    <!-- Starburst shadow -->
    <path d="M60,2 L64.8,24 L84,9 L75,30.6 L99,21 L84,42 L111,39 L91.2,55.2 L119,60 L91.2,64.8 L111,81 L84,78 L99,99 L75,89.4 L84,111 L64.8,96 L60,119 L55.2,96 L36,111 L45,89.4 L21,99 L36,78 L9,81 L28.8,64.8 L1,60 L28.8,55.2 L9,39 L36,42 L21,21 L45,30.6 L36,9 L55.2,24 Z" fill="#000" stroke="none" transform="translate(4, 4)"/>
    
    <!-- Starburst -->
    <path d="M60,2 L64.8,24 L84,9 L75,30.6 L99,21 L84,42 L111,39 L91.2,55.2 L119,60 L91.2,64.8 L111,81 L84,78 L99,99 L75,89.4 L84,111 L64.8,96 L60,119 L55.2,96 L36,111 L45,89.4 L21,99 L36,78 L9,81 L28.8,64.8 L1,60 L28.8,55.2 L9,39 L36,42 L21,21 L45,30.6 L36,9 L55.2,24 Z" fill="#FF1744" stroke="#000" stroke-width="5" stroke-linejoin="round"/>
    
    <!-- Number: Shadow layer -->
    <g transform="translate(39.5, 102.4) scale(0.101000, -0.101000)" 
       fill="#000" stroke="#000" stroke-width="72" stroke-linejoin="round">
      <g transform="translate(0, 0)"><path d="M218 -2 238 158 66 145 22 235 85 424Q114 509 138.0 585.5Q162 662 180 712Q222 712 259.5 714.5Q297 717 340 723Q303 630 271.5 536.0Q240 442 210 345Q209 332 205 321H276Q282 362 290.0 399.5Q298 437 305 477Q310 506 316.0 538.0Q322 570 329 604L394 613Q421 617 450.0 620.0Q479 623 500 625Q499 609 491.0 569.5Q483 530 474 473Q468 438 460.5 396.5Q453 355 446 321H503L462 161H411L402 30Z"/></g>
    </g>
    
    <!-- Number: Stroke layer -->
    <g transform="translate(33.5, 96.4) scale(0.101000, -0.101000)" 
       fill="#000" stroke="#000" stroke-width="72" stroke-linejoin="round">
      <g transform="translate(0, 0)"><path d="M218 -2 238 158 66 145 22 235 85 424Q114 509 138.0 585.5Q162 662 180 712Q222 712 259.5 714.5Q297 717 340 723Q303 630 271.5 536.0Q240 442 210 345Q209 332 205 321H276Q282 362 290.0 399.5Q298 437 305 477Q310 506 316.0 538.0Q322 570 329 604L394 613Q421 617 450.0 620.0Q479 623 500 625Q499 609 491.0 569.5Q483 530 474 473Q468 438 460.5 396.5Q453 355 446 321H503L462 161H411L402 30Z"/></g>
    </g>
    
    <!-- Number: Fill layer -->
    <g transform="translate(33.5, 96.4) scale(0.101000, -0.101000)" 
       fill="#FFEB3B" stroke="none">
      <g transform="translate(0, 0)"><path d="M218 -2 238 158 66 145 22 235 85 424Q114 509 138.0 585.5Q162 662 180 712Q222 712 259.5 714.5Q297 717 340 723Q303 630 271.5 536.0Q240 442 210 345Q209 332 205 321H276Q282 362 290.0 399.5Q298 437 305 477Q310 506 316.0 538.0Q322 570 329 604L394 613Q421 617 450.0 620.0Q479 623 500 625Q499 609 491.0 569.5Q483 530 474 473Q468 438 460.5 396.5Q453 355 446 321H503L462 161H411L402 30Z"/></g>
    </g>
  </g>
</svg>