<?xml version="1.0" encoding="UTF-8"?>
<svg xmlns="http://www.w3.org/2000/svg" viewBox="0 0 24 24" width="30" height="30" fill="none" stroke-linecap="round" stroke-linejoin="round">
    <!-- Shadow layer (offset down-right) -->
    <g stroke="#000" stroke-width="2.5" transform="translate(1.5, 1.5)">
        <path d="M4 19.5A2.5 2.5 0 0 1 6.5 17H20"/>
        <path d="M6.5 2H20v20H6.5A2.5 2.5 0 0 1 4 19.5v-15A2.5 2.5 0 0 1 6.5 2z"/>
    </g>
    <!-- Black stroke layer -->
    <g stroke="#000" stroke-width="4">
        <path d="M4 19.5A2.5 2.5 0 0 1 6.5 17H20"/>
        <path d="M6.5 2H20v20H6.5A2.5 2.5 0 0 1 4 19.5v-15A2.5 2.5 0 0 1 6.5 2z"/>
    </g>
    <!-- White top layer -->
    <g stroke="#fff" stroke-width="2.5">
        <path d="M4 19.5A2.5 2.5 0 0 1 6.5 17H20"/>
        <path d="M6.5 2H20v20H6.5A2.5 2.5 0 0 1 4 19.5v-15A2.5 2.5 0 0 1 6.5 2z"/>
    </g>
</svg>
