<?xml version="1.0" encoding="UTF-8"?>
<svg xmlns="http://www.w3.org/2000/svg" viewBox="0 0 24 24" width="30" height="30" fill="none" stroke-linecap="round" stroke-linejoin="round">
    <!-- Shadow layer (offset down-right) -->
    <g stroke="#000" stroke-width="2.5" transform="translate(1.5, 1.5)">
        <path d="M10.29 3.86L1.82 18a2 2 0 0 0 1.71 3h16.94a2 2 0 0 0 1.71-3L13.71 3.86a2 2 0 0 0-3.42 0z"/>
        <line x1="12" y1="9" x2="12" y2="13"/>
        <line x1="12" y1="17" x2="12.01" y2="17"/>
    </g>
    <!-- Black stroke layer -->
    <g stroke="#000" stroke-width="4">
        <path d="M10.29 3.86L1.82 18a2 2 0 0 0 1.71 3h16.94a2 2 0 0 0 1.71-3L13.71 3.86a2 2 0 0 0-3.42 0z"/>
        <line x1="12" y1="9" x2="12" y2="13"/>
        <line x1="12" y1="17" x2="12.01" y2="17"/>
    </g>
    <!-- White top layer -->
    <g stroke="#fff" stroke-width="2.5">
        <path d="M10.29 3.86L1.82 18a2 2 0 0 0 1.71 3h16.94a2 2 0 0 0 1.71-3L13.71 3.86a2 2 0 0 0-3.42 0z"/>
        <line x1="12" y1="9" x2="12" y2="13"/>
        <line x1="12" y1="17" x2="12.01" y2="17"/>
    </g>
</svg>
