<?xml version="1.0" encoding="UTF-8"?>
<svg xmlns="http://www.w3.org/2000/svg" viewBox="0 0 148.8 18" 
     width="148.8" height="18">
  <g transform="translate(0, 15.299999999999999) scale(0.017578, -0.017578)" fill="#FFFFFF">
    <g transform="translate(0, 0)"><path d="M83 483Q41 500 13.5 531.0Q-14 562 -31 604Q-21 631 1.0 649.5Q23 668 50.5 681.0Q78 694 109.0 702.0Q140 710 169 716Q175 714 175.0 716.0Q175 718 180 714Q216 725 263.0 735.5Q310 746 363 743Q370 747 380.0 747.5Q390 748 401.0 748.0Q412 748 422.0 748.5Q432 749 439 752Q445 745 457.0 743.5Q469 742 482 733Q486 732 482.0 736.5Q478 741 483 743Q496 743 506.0 737.0Q516 731 524.5 723.5Q533 716 540.5 710.0Q548 704 557 704Q566 693 578.5 683.5Q591 674 602.5 664.0Q614 654 621.5 642.0Q629 630 629 615Q628 609 633.0 608.0Q638 607 640 602Q641 565 628.5 538.0Q616 511 597.0 488.5Q578 466 556.5 446.0Q535 426 517 403Q529 388 544.5 375.5Q560 363 576.0 351.0Q592 339 606.5 325.5Q621 312 631 295Q634 289 644 287Q647 275 652.5 262.5Q658 250 663.0 238.5Q668 227 669.0 218.0Q670 209 664 203Q671 199 672.0 190.5Q673 182 672 177Q650 150 642.0 139.0Q634 128 630.0 123.0Q626 118 622.0 114.0Q618 110 604 98Q551 66 493.5 40.5Q436 15 374 6Q369 -1 359.5 -5.5Q350 -10 338.0 -13.0Q326 -16 312.5 -18.0Q299 -20 288 -22Q283 -20 282.5 -15.5Q282 -11 277 -9Q276 -21 266.5 -21.5Q257 -22 243.0 -17.0Q229 -12 214.0 -3.0Q199 6 188 14Q183 5 175.5 -5.0Q168 -15 160 -19Q146 -17 139.5 -16.0Q133 -15 127 -21Q119 -17 115.0 -12.5Q111 -8 107.0 -3.5Q103 1 98.0 4.5Q93 8 83 11Q85 16 80.0 26.5Q75 37 66 39Q71 47 62.0 59.5Q53 72 48 88Q49 95 49.5 102.5Q50 110 51.5 116.5Q53 123 56.0 128.0Q59 133 66 135Q65 148 58 160Q67 167 70.0 177.5Q73 188 75.5 199.0Q78 210 82.0 220.5Q86 231 95 238Q93 241 91.0 243.0Q89 245 89 250Q104 275 110.0 292.5Q116 310 119.5 326.5Q123 343 127.0 362.0Q131 381 143 410Q142 428 147.0 442.0Q152 456 157.5 469.5Q163 483 166.0 498.0Q169 513 165 533Q148 531 140.5 521.0Q133 511 131 494Q122 486 108.0 486.5Q94 487 83 483ZM523 290Q485 311 453.5 315.0Q422 319 393.5 314.5Q365 310 339.0 302.0Q313 294 287 290Q274 256 260.0 215.0Q246 174 233 135Q269 140 299.0 150.0Q329 160 357.0 172.5Q385 185 412.0 197.5Q439 210 468 221Q471 233 481.0 240.0Q491 247 501.0 253.5Q511 260 518.0 268.0Q525 276 523 290ZM453 603Q391 605 331.0 592.0Q271 579 230 554Q250 537 271.5 524.0Q293 511 304 489Q352 508 388.0 537.5Q424 567 453 603Z"/></g>
    <g transform="translate(703, 0)"><path d="M583 300Q582 288 585.0 277.0Q588 266 592.5 255.5Q597 245 601.0 234.0Q605 223 607 212Q609 198 607.0 181.5Q605 165 600.0 149.5Q595 134 587.0 121.5Q579 109 568 103Q554 85 534.0 75.0Q514 65 497 51Q486 44 472.5 41.0Q459 38 445 35Q434 29 419.0 22.5Q404 16 388.0 10.5Q372 5 356.0 2.5Q340 0 328 1Q298 -10 269.5 -13.5Q241 -17 203 -9Q167 -14 136.5 -6.0Q106 2 82.5 19.5Q59 37 41.5 61.5Q24 86 13 113Q5 170 17.0 216.5Q29 263 51.5 302.5Q74 342 103.0 375.5Q132 409 159 441Q165 439 168.5 441.5Q172 444 175.0 448.5Q178 453 181.5 457.0Q185 461 190 462Q197 477 210.5 484.5Q224 492 232 506Q241 508 247.0 512.0Q253 516 258.5 521.0Q264 526 270.0 530.5Q276 535 284 537V548Q302 556 310.5 566.5Q319 577 331 592Q340 593 345.5 593.0Q351 593 362 595Q370 609 376.5 616.0Q383 623 396 631Q408 625 422.5 623.0Q437 621 448 610Q449 600 454.0 594.5Q459 589 465.0 584.5Q471 580 476.5 575.0Q482 570 484 561Q488 560 489.5 562.0Q491 564 495 563Q498 549 502.0 544.5Q506 540 510 527Q505 517 502.5 506.5Q500 496 490 491Q489 484 494.0 483.5Q499 483 500 478Q501 469 497 465Q521 426 540.0 382.5Q559 339 583 300ZM458 205Q462 216 468.5 223.0Q475 230 476 244Q471 252 470.0 256.5Q469 261 469 271Q447 302 431.0 337.5Q415 373 395 404Q393 400 388.0 396.0Q383 392 377 398Q375 390 370.0 386.5Q365 383 359.0 383.5Q353 384 346.5 386.5Q340 389 335 393Q306 370 277.0 348.0Q248 326 225 297Q221 295 220.0 295.5Q219 296 214 294Q206 275 194.5 259.5Q183 244 172.0 228.0Q161 212 153.0 194.0Q145 176 144 152Q161 138 184.0 135.0Q207 132 231.5 134.0Q256 136 279.5 140.5Q303 145 323 145Q365 155 395.0 171.5Q425 188 458 205Z"/></g>
    <g transform="translate(1347, 0)"><path d="M549 163Q555 160 556.0 153.0Q557 146 556 142Q538 119 531.0 110.0Q524 101 521.0 96.5Q518 92 514.5 89.0Q511 86 499 76Q454 49 406.5 28.0Q359 7 307 -1Q299 -12 276.5 -16.5Q254 -21 235 -25Q231 -23 230.5 -19.5Q230 -16 226 -14Q225 -24 217.0 -24.5Q209 -25 197.5 -20.5Q186 -16 173.5 -8.5Q161 -1 152 5Q147 -3 141.5 -11.0Q136 -19 128 -22Q117 -20 111.5 -19.0Q106 -18 101 -23Q95 -20 91.5 -16.0Q88 -12 84.5 -8.5Q81 -5 76.5 -2.0Q72 1 64 3Q66 7 62.0 15.5Q58 24 50 26Q54 33 46.5 43.5Q39 54 35 67Q37 78 38.0 91.0Q39 104 50 106Q49 113 47.0 118.0Q45 123 43 128Q50 134 53.0 142.5Q56 151 58.0 160.0Q60 169 63.0 178.0Q66 187 74 193Q83 223 88.0 237.5Q93 252 95.5 266.0Q98 280 101.5 296.0Q105 312 114 336Q113 351 117.0 362.5Q121 374 125.5 385.5Q130 397 133.0 409.5Q136 422 132 439Q118 438 112.0 429.5Q106 421 104 407Q96 399 84.5 399.5Q73 400 64 397Q29 411 6.0 437.0Q-17 463 -31 498Q-22 521 -4.0 536.5Q14 552 37.0 562.5Q60 573 86.0 579.5Q112 586 136 592Q175 599 214.0 608.0Q253 617 298 614Q304 617 312.5 617.5Q321 618 330.0 618.0Q339 618 347.5 618.5Q356 619 362 622Q367 616 376.5 614.5Q386 613 397 605Q409 614 417.5 609.0Q426 604 433.0 598.0Q440 592 446.5 587.0Q453 582 460 582Q467 573 477.5 565.0Q488 557 497.5 548.5Q507 540 513.5 530.0Q520 520 520 507Q519 502 523.0 501.0Q527 500 529 497Q530 466 519.5 443.5Q509 421 493.5 402.0Q478 383 459.5 366.0Q441 349 426 330Q436 317 449.0 307.0Q462 297 475.5 287.0Q489 277 501.0 266.0Q513 255 521 240Q523 238 526.0 236.5Q529 235 532 233Q535 223 540.0 212.5Q545 202 548.5 192.5Q552 183 553.0 175.5Q554 168 549 163ZM373 497Q322 499 271.5 488.0Q221 477 187 457Q204 443 221.5 432.0Q239 421 249 402Q288 418 318.0 442.5Q348 467 373 497ZM386 178Q389 188 397.0 194.0Q405 200 413.0 205.5Q421 211 427.0 217.5Q433 224 432 236Q400 253 373.5 256.5Q347 260 323.5 256.5Q300 253 278.5 246.0Q257 239 235 236Q224 207 212.0 173.0Q200 139 189 107Q219 111 244.0 119.5Q269 128 292.5 138.0Q316 148 338.5 158.5Q361 169 386 178Z"/></g>
    <g transform="translate(1934, 0)"><path d="M549 163Q555 160 556.0 153.0Q557 146 556 142Q538 119 531.0 110.0Q524 101 521.0 96.5Q518 92 514.5 89.0Q511 86 499 76Q454 49 406.5 28.0Q359 7 307 -1Q299 -12 276.5 -16.5Q254 -21 235 -25Q231 -23 230.5 -19.5Q230 -16 226 -14Q225 -24 217.0 -24.5Q209 -25 197.5 -20.5Q186 -16 173.5 -8.5Q161 -1 152 5Q147 -3 141.5 -11.0Q136 -19 128 -22Q117 -20 111.5 -19.0Q106 -18 101 -23Q95 -20 91.5 -16.0Q88 -12 84.5 -8.5Q81 -5 76.5 -2.0Q72 1 64 3Q66 7 62.0 15.5Q58 24 50 26Q54 33 46.5 43.5Q39 54 35 67Q37 78 38.0 91.0Q39 104 50 106Q49 113 47.0 118.0Q45 123 43 128Q50 134 53.0 142.5Q56 151 58.0 160.0Q60 169 63.0 178.0Q66 187 74 193Q83 223 88.0 237.5Q93 252 95.5 266.0Q98 280 101.5 296.0Q105 312 114 336Q113 351 117.0 362.5Q121 374 125.5 385.5Q130 397 133.0 409.5Q136 422 132 439Q118 438 112.0 429.5Q106 421 104 407Q96 399 84.5 399.5Q73 400 64 397Q29 411 6.0 437.0Q-17 463 -31 498Q-22 521 -4.0 536.5Q14 552 37.0 562.5Q60 573 86.0 579.5Q112 586 136 592Q175 599 214.0 608.0Q253 617 298 614Q304 617 312.5 617.5Q321 618 330.0 618.0Q339 618 347.5 618.5Q356 619 362 622Q367 616 376.5 614.5Q386 613 397 605Q409 614 417.5 609.0Q426 604 433.0 598.0Q440 592 446.5 587.0Q453 582 460 582Q467 573 477.5 565.0Q488 557 497.5 548.5Q507 540 513.5 530.0Q520 520 520 507Q519 502 523.0 501.0Q527 500 529 497Q530 466 519.5 443.5Q509 421 493.5 402.0Q478 383 459.5 366.0Q441 349 426 330Q436 317 449.0 307.0Q462 297 475.5 287.0Q489 277 501.0 266.0Q513 255 521 240Q523 238 526.0 236.5Q529 235 532 233Q535 223 540.0 212.5Q545 202 548.5 192.5Q552 183 553.0 175.5Q554 168 549 163ZM373 497Q322 499 271.5 488.0Q221 477 187 457Q204 443 221.5 432.0Q239 421 249 402Q288 418 318.0 442.5Q348 467 373 497ZM386 178Q389 188 397.0 194.0Q405 200 413.0 205.5Q421 211 427.0 217.5Q433 224 432 236Q400 253 373.5 256.5Q347 260 323.5 256.5Q300 253 278.5 246.0Q257 239 235 236Q224 207 212.0 173.0Q200 139 189 107Q219 111 244.0 119.5Q269 128 292.5 138.0Q316 148 338.5 158.5Q361 169 386 178Z"/></g>
    <g transform="translate(2521, 0)"><path d="M320 262Q313 256 308.0 247.5Q303 239 298 230Q293 219 287.0 209.0Q281 199 272 191Q267 176 262.0 167.5Q257 159 246 148Q236 108 199 61Q198 52 193.5 43.5Q189 35 184 27Q182 24 180.0 20.5Q178 17 177 15L175 5Q170 -3 164.0 -9.0Q158 -15 153 -20Q151 -23 146 -28L131 -34Q58 -24 42 44L43 54Q45 59 46.5 64.5Q48 70 50 76Q54 90 59.5 104.0Q65 118 76 129Q78 136 85.0 151.5Q92 167 109 198Q123 222 131.0 236.0Q139 250 144 258Q134 274 120 287Q107 312 97.5 335.0Q88 358 83 376Q82 389 80.0 398.0Q78 407 76 417Q73 428 71.0 439.0Q69 450 69 462Q64 469 63 476L65 486Q68 493 66.0 504.5Q64 516 61 528Q59 538 56.5 550.0Q54 562 55.0 574.0Q56 586 61.5 596.5Q67 607 80 615L97 616Q106 611 114.5 606.5Q123 602 131 597Q142 592 152.0 587.0Q162 582 173 574L180 560L193 549V538Q194 534 194 527Q194 514 198 511L202 499Q202 485 205.0 472.5Q208 460 211 449Q214 438 217.0 426.0Q220 414 218 400Q224 403 228 407Q230 409 232.0 410.0Q234 411 236 413L295 493L293 503L314 523Q322 531 329.5 538.0Q337 545 342 553L353 561Q385 611 444 623L458 625L462 612Q466 601 478.5 592.0Q491 583 505 575L514 569Q519 559 519.0 554.0Q519 549 518 545L522 535Q514 511 502.5 500.0Q491 489 480 480Q471 472 463.5 465.5Q456 459 452 449L445 441Q424 429 418 409L415 397H403Q402 397 398.5 393.5Q395 390 388 376Q381 366 378.0 363.0Q375 360 373 358Q372 354 370.5 350.5Q369 347 367 342Q354 329 351.0 322.5Q348 316 344 308Q340 300 336.5 292.5Q333 285 325 277Z"/></g>
    <g transform="translate(3310, 0)"><path d="M15 34Q12 33 11.0 36.0Q10 39 10.5 42.0Q11 45 13.5 47.0Q16 49 20 47Q7 63 3.5 76.0Q0 89 -10 108Q-7 111 -6.0 116.5Q-5 122 -3.5 127.0Q-2 132 0.5 134.5Q3 137 7 133Q5 144 7.0 151.0Q9 158 11.5 164.0Q14 170 15.0 176.0Q16 182 12 190Q31 216 37.0 246.5Q43 277 44 302Q53 311 59.5 326.0Q66 341 69.0 357.0Q72 373 72.0 388.5Q72 404 68 413Q69 417 72.5 417.5Q76 418 81 417Q88 457 90.5 506.0Q93 555 100.5 600.5Q108 646 125.0 680.5Q142 715 179 725Q186 700 197.5 681.0Q209 662 222.5 644.0Q236 626 250.0 608.0Q264 590 276 568Q275 545 271.5 515.0Q268 485 262.5 454.0Q257 423 251.5 394.0Q246 365 241 345Q242 340 248.0 338.5Q254 337 250 327Q279 334 310.5 340.5Q342 347 372.5 353.5Q403 360 432.5 369.0Q462 378 488 391Q494 439 503.0 486.0Q512 533 505 581Q511 586 515.0 593.0Q519 600 527 602Q521 625 522.0 650.5Q523 676 530.5 698.0Q538 720 553.0 736.5Q568 753 590 758Q603 739 613.0 717.0Q623 695 633.0 672.5Q643 650 654.5 630.0Q666 610 684 596Q687 561 689.0 524.5Q691 488 692 449Q683 404 671.5 361.5Q660 319 655 271Q647 262 642.0 249.5Q637 237 632.5 224.5Q628 212 622.0 200.0Q616 188 607 180Q611 166 608.5 153.5Q606 141 615 124Q617 93 607.5 72.5Q598 52 581.5 37.5Q565 23 543.5 14.5Q522 6 501 -1Q491 5 482.5 11.5Q474 18 462 21L467 30Q447 50 432.5 72.5Q418 95 419 124Q419 125 421.0 137.5Q423 150 425.5 164.0Q428 178 430.5 190.5Q433 203 433 204Q405 201 375.0 191.0Q345 181 316.5 168.5Q288 156 263.5 142.5Q239 129 224 120Q224 117 219.0 103.0Q214 89 207.0 73.5Q200 58 191.5 46.0Q183 34 174 35Q176 30 178.0 27.5Q180 25 178 18Q161 13 147.5 5.0Q134 -3 120.0 -8.5Q106 -14 89.5 -13.5Q73 -13 50 -1Q50 6 44.0 11.5Q38 17 31.5 21.0Q25 25 20.0 28.0Q15 31 15 34Z"/></g>
    <g transform="translate(4022, 0)"><path d="M558 563Q559 556 558.5 552.5Q558 549 557.5 546.0Q557 543 557.0 539.5Q557 536 559 529Q538 495 510.5 482.5Q483 470 451.0 464.5Q419 459 385.5 453.0Q352 447 319 427Q306 432 295.5 427.0Q285 422 265 424Q259 418 250.0 415.5Q241 413 232 410Q236 401 235.5 391.5Q235 382 238 376Q273 373 315.5 377.0Q358 381 399 382Q400 377 398.0 375.5Q396 374 397 370Q404 365 411.0 357.5Q418 350 425.0 343.0Q432 336 439.5 331.5Q447 327 457 328Q461 320 462.5 310.5Q464 301 460 291Q444 280 428.0 268.5Q412 257 394.5 248.0Q377 239 357.5 233.5Q338 228 314 229Q309 229 306.5 229.0Q304 229 300 232Q292 227 277.5 229.0Q263 231 255 226Q244 231 228.5 230.5Q213 230 201 234Q185 213 172.0 189.0Q159 165 149 138Q183 133 205.5 134.0Q228 135 248.0 137.5Q268 140 289.0 142.5Q310 145 342 144Q362 155 389.5 158.5Q417 162 440 170Q448 167 454.0 159.5Q460 152 465.5 145.5Q471 139 477.0 134.0Q483 129 492 130Q496 126 497.5 120.5Q499 115 500.0 110.0Q501 105 503.5 101.5Q506 98 512 99Q497 66 477.5 48.5Q458 31 433.0 22.0Q408 13 377.5 8.0Q347 3 310 -4Q301 -6 295.0 -3.5Q289 -1 281 -1Q258 -6 226.0 -10.0Q194 -14 161.0 -13.0Q128 -12 98.0 -4.5Q68 3 49 22Q41 29 38.5 38.5Q36 48 25 53Q24 66 21.0 82.0Q18 98 15.0 115.5Q12 133 10.5 150.0Q9 167 12 181Q15 196 24.5 208.0Q34 220 31 234Q36 235 37.0 239.5Q38 244 45 243Q51 261 58.0 277.0Q65 293 72.5 308.0Q80 323 87.5 338.5Q95 354 102 373Q88 386 81.5 401.5Q75 417 72.0 432.5Q69 448 67.0 464.5Q65 481 60 498Q70 513 84.5 522.5Q99 532 116.0 538.0Q133 544 153.0 548.0Q173 552 195 557Q235 570 266.5 577.0Q298 584 328.5 588.5Q359 593 392.0 597.0Q425 601 467 609Q476 600 484 600Q488 609 493.5 605.5Q499 602 498 611Q508 594 523.5 582.5Q539 571 558 563Z"/></g>
    <g transform="translate(4556, 0)"><path d="M161 104Q150 64 141.5 43.5Q133 23 116 1Q103 3 98.0 -2.0Q93 -7 87 -11Q78 -13 74.0 -11.0Q70 -9 67.0 -6.5Q64 -4 59.5 -1.5Q55 1 46 1Q44 9 41.5 16.0Q39 23 28 21Q30 29 29.0 34.5Q28 40 26.5 44.5Q25 49 24.0 53.5Q23 58 25 65Q20 65 17.0 72.0Q14 79 10 86Q13 104 16.0 120.0Q19 136 23.5 150.0Q28 164 31.0 178.0Q34 192 28 207Q32 204 34.0 208.5Q36 213 37.0 220.5Q38 228 38.0 235.5Q38 243 37 248Q47 274 53.5 301.5Q60 329 65.5 356.0Q71 383 77.0 409.0Q83 435 93 457Q104 459 117.5 454.5Q131 450 134 443Q160 463 180.0 491.5Q200 520 221.0 547.0Q242 574 267.5 595.0Q293 616 332 620Q352 605 376.5 589.5Q401 574 417 549Q425 545 430.5 540.5Q436 536 444 531V519Q456 508 463.5 493.5Q471 479 477.0 462.5Q483 446 489.0 429.5Q495 413 503 398Q501 393 501.0 389.5Q501 386 502.5 382.0Q504 378 505.0 374.0Q506 370 505 363Q502 319 476.5 292.0Q451 265 415.0 247.5Q379 230 338.0 218.0Q297 206 264 192Q264 188 267.5 188.0Q271 188 270 183Q294 168 308.0 159.0Q322 150 334.5 144.0Q347 138 361.5 133.5Q376 129 402 123Q428 117 442.5 113.5Q457 110 469.0 107.5Q481 105 493.5 103.5Q506 102 529 100Q538 91 544.5 78.5Q551 66 553.0 53.5Q555 41 554.0 29.5Q553 18 547 11Q548 8 551.5 8.5Q555 9 559 8Q553 4 549.0 -2.0Q545 -8 541.0 -14.0Q537 -20 532.0 -24.5Q527 -29 518 -30Q487 -42 440.0 -31.5Q393 -21 321 7Q285 21 262.5 31.5Q240 42 223.5 52.5Q207 63 193.5 75.0Q180 87 161 104ZM304 447Q293 431 279.5 418.0Q266 405 253.5 391.5Q241 378 231.0 361.5Q221 345 217 323Q252 327 290.0 342.5Q328 358 362 372Q358 403 340.5 422.0Q323 441 304 447Z"/></g>
    <g transform="translate(5110, 0)"><path d="M205 182Q196 180 192.0 171.5Q188 163 184.5 154.0Q181 145 177.5 137.5Q174 130 167 130Q166 122 161.5 116.0Q157 110 153.0 103.5Q149 97 147.0 89.5Q145 82 149 72Q141 66 139.0 55.0Q137 44 134.5 34.0Q132 24 126.0 17.0Q120 10 104 11Q101 7 103.0 6.0Q105 5 106 -1Q95 1 89.5 -2.5Q84 -6 76 -7Q57 -1 44.5 14.0Q32 29 22.5 47.5Q13 66 5.5 85.0Q-2 104 -9 118Q-6 129 -8.0 139.5Q-10 150 -15 157Q34 261 92.0 379.0Q150 497 202 612Q225 603 247.5 591.5Q270 580 288.5 565.0Q307 550 320.0 530.5Q333 511 337 487Q335 481 332.5 482.5Q330 484 328 481Q332 476 332.5 474.0Q333 472 332.5 470.0Q332 468 332.0 464.5Q332 461 335 455Q331 456 329.5 454.0Q328 452 323 454Q327 443 325.5 436.0Q324 429 321.0 423.5Q318 418 316.0 411.5Q314 405 317 395Q314 395 312.5 393.5Q311 392 310.0 390.5Q309 389 307.5 387.5Q306 386 303 387Q306 365 305.0 343.0Q304 321 303.5 298.5Q303 276 304.0 251.5Q305 227 311 201Q347 222 368.5 255.0Q390 288 403.5 329.0Q417 370 424.0 417.0Q431 464 439 513Q448 522 453.0 535.0Q458 548 462.0 562.5Q466 577 470.0 591.5Q474 606 480 618Q495 616 505.5 608.5Q516 601 525.0 592.5Q534 584 544.0 576.5Q554 569 569 567Q581 550 591.0 534.0Q601 518 604 500Q599 492 596.5 482.0Q594 472 591.0 462.0Q588 452 583.0 443.5Q578 435 569 429Q566 403 561.5 381.5Q557 360 552.5 339.0Q548 318 545.0 295.5Q542 273 543 246Q535 223 526.0 197.0Q517 171 512 150Q496 137 487.0 119.0Q478 101 468 83Q464 79 463.0 81.0Q462 83 456 84Q457 80 456.0 78.0Q455 76 453.5 74.5Q452 73 451.5 70.0Q451 67 453 62Q439 56 428.0 45.0Q417 34 404.5 25.0Q392 16 374.5 13.0Q357 10 329 20Q288 50 256.5 89.0Q225 128 205 182Z"/></g>
    <g transform="translate(5688, 0)"><path d="M529 84Q523 67 511.5 49.5Q500 32 484.5 18.5Q469 5 450.0 -4.0Q431 -13 410 -14Q397 -11 392.5 -7.5Q388 -4 383 -1Q380 1 377.5 2.5Q375 4 373 5L361 10L365 23Q367 31 364.0 35.5Q361 40 352 48Q349 51 346.0 54.0Q343 57 341 60L324 79L351 86Q376 93 384.5 104.0Q393 115 391 141Q371 145 357.5 142.0Q344 139 330 135Q312 130 293.5 126.5Q275 123 253 123Q245 123 238.0 123.5Q231 124 223 125L213 127Q211 138 209.0 139.5Q207 141 205 143Q200 148 194.5 156.5Q189 165 192 178Q187 187 186 196Q180 184 177 171L173 161L163 159Q161 158 160.0 154.5Q159 151 159 149L154 132Q152 130 150.0 128.5Q148 127 146 125Q144 116 141.0 107.0Q138 98 135 90Q130 77 126.5 64.5Q123 52 124 40L120 29Q115 23 109.0 19.5Q103 16 97 13Q95 11 91.5 9.5Q88 8 86 7L83 -4L71 -6Q60 -8 55.5 -9.0Q51 -10 45 -10L35 -9Q24 0 18.0 5.5Q12 11 4 16Q-5 28 -6.0 34.0Q-7 40 -8 45Q-10 51 -10.5 55.0Q-11 59 -13 61L-26 73L-15 82L-14 99Q6 150 28.5 197.0Q51 244 75 293Q83 309 90.5 325.0Q98 341 106 357Q105 360 105.0 364.0Q105 368 107 373Q118 390 125.0 403.5Q132 417 139 431Q147 448 155.5 464.0Q164 480 177 497L193 504Q196 505 200.0 506.5Q204 508 209 508L224 506Q252 519 273.0 542.5Q294 566 316 599L326 613L339 605Q344 602 353.0 599.5Q362 597 372 594Q390 590 406.0 585.0Q422 580 432 570Q438 554 439.0 546.0Q440 538 442 530Q445 513 447.5 496.0Q450 479 451 458Q456 441 459.5 424.5Q463 408 466 391Q471 367 476.0 344.5Q481 322 489 302Q497 302 499 301Q504 303 509.5 304.0Q515 305 522 306L533 307L537 297Q538 292 547 287Q560 286 566.0 281.5Q572 277 577 272Q581 268 585 266L600 260L592 245Q582 227 563.5 210.5Q545 194 522 183Q523 177 523.5 171.5Q524 166 526 160Q529 143 531.0 125.0Q533 107 531 88ZM240 257Q270 259 294.5 261.5Q319 264 349 270Q342 300 334.0 332.5Q326 365 317 397L311 387Q291 366 272.5 340.0Q254 314 241 291Q235 282 229.0 273.0Q223 264 218 255Q224 256 229.5 256.0Q235 256 240 257Z"/></g>
    <g transform="translate(6283, 0)"><path d="M205 182Q196 180 192.0 171.5Q188 163 184.5 154.0Q181 145 177.5 137.5Q174 130 167 130Q166 122 161.5 116.0Q157 110 153.0 103.5Q149 97 147.0 89.5Q145 82 149 72Q141 66 139.0 55.0Q137 44 134.5 34.0Q132 24 126.0 17.0Q120 10 104 11Q101 7 103.0 6.0Q105 5 106 -1Q95 1 89.5 -2.5Q84 -6 76 -7Q57 -1 44.5 14.0Q32 29 22.5 47.5Q13 66 5.5 85.0Q-2 104 -9 118Q-6 129 -8.0 139.5Q-10 150 -15 157Q34 261 92.0 379.0Q150 497 202 612Q225 603 247.5 591.5Q270 580 288.5 565.0Q307 550 320.0 530.5Q333 511 337 487Q335 481 332.5 482.5Q330 484 328 481Q332 476 332.5 474.0Q333 472 332.5 470.0Q332 468 332.0 464.5Q332 461 335 455Q331 456 329.5 454.0Q328 452 323 454Q327 443 325.5 436.0Q324 429 321.0 423.5Q318 418 316.0 411.5Q314 405 317 395Q314 395 312.5 393.5Q311 392 310.0 390.5Q309 389 307.5 387.5Q306 386 303 387Q306 365 305.0 343.0Q304 321 303.5 298.5Q303 276 304.0 251.5Q305 227 311 201Q347 222 368.5 255.0Q390 288 403.5 329.0Q417 370 424.0 417.0Q431 464 439 513Q448 522 453.0 535.0Q458 548 462.0 562.5Q466 577 470.0 591.5Q474 606 480 618Q495 616 505.5 608.5Q516 601 525.0 592.5Q534 584 544.0 576.5Q554 569 569 567Q581 550 591.0 534.0Q601 518 604 500Q599 492 596.5 482.0Q594 472 591.0 462.0Q588 452 583.0 443.5Q578 435 569 429Q566 403 561.5 381.5Q557 360 552.5 339.0Q548 318 545.0 295.5Q542 273 543 246Q535 223 526.0 197.0Q517 171 512 150Q496 137 487.0 119.0Q478 101 468 83Q464 79 463.0 81.0Q462 83 456 84Q457 80 456.0 78.0Q455 76 453.5 74.5Q452 73 451.5 70.0Q451 67 453 62Q439 56 428.0 45.0Q417 34 404.5 25.0Q392 16 374.5 13.0Q357 10 329 20Q288 50 256.5 89.0Q225 128 205 182Z"/></g>
    <g transform="translate(6861, 0)"><path d="M493 270Q492 265 491.0 261.5Q490 258 489.0 255.0Q488 252 488.0 247.5Q488 243 488 236Q458 183 412.5 147.0Q367 111 312.5 83.5Q258 56 199.0 33.5Q140 11 84 -15Q60 -9 47.5 5.0Q35 19 28.5 37.5Q22 56 19.5 78.5Q17 101 15 125Q18 136 23.5 143.5Q29 151 29 165Q37 191 45.0 216.0Q53 241 55 267Q58 275 66 278Q71 326 66.5 375.5Q62 425 50 468Q51 478 52.5 482.5Q54 487 52 489Q51 497 57.5 497.0Q64 497 71 497Q71 512 65.5 527.0Q60 542 55 561Q62 576 64.0 590.5Q66 605 73 616Q127 599 176.5 575.0Q226 551 274 540Q310 514 348.0 488.5Q386 463 417.0 432.5Q448 402 469.0 363.0Q490 324 493 270ZM256 215Q277 223 297.5 232.0Q318 241 335.5 252.5Q353 264 367.0 279.0Q381 294 390 315Q384 327 374.0 336.5Q364 346 354.0 354.5Q344 363 334.5 372.0Q325 381 319 394Q306 396 296.0 401.5Q286 407 276.5 412.5Q267 418 256.5 423.0Q246 428 232 429Q210 440 192.5 445.0Q175 450 166 458Q159 458 155 455Q165 417 170.0 383.5Q175 350 175.5 316.5Q176 283 172.0 248.0Q168 213 161 172Q171 173 179.5 176.5Q188 180 196.5 184.0Q205 188 214.5 191.5Q224 195 237 196Q240 202 245.5 206.0Q251 210 256 215Z"/></g>
    <g transform="translate(7370, 0)"><path d="M558 563Q559 556 558.5 552.5Q558 549 557.5 546.0Q557 543 557.0 539.5Q557 536 559 529Q538 495 510.5 482.5Q483 470 451.0 464.5Q419 459 385.5 453.0Q352 447 319 427Q306 432 295.5 427.0Q285 422 265 424Q259 418 250.0 415.5Q241 413 232 410Q236 401 235.5 391.5Q235 382 238 376Q273 373 315.5 377.0Q358 381 399 382Q400 377 398.0 375.5Q396 374 397 370Q404 365 411.0 357.5Q418 350 425.0 343.0Q432 336 439.5 331.5Q447 327 457 328Q461 320 462.5 310.5Q464 301 460 291Q444 280 428.0 268.5Q412 257 394.5 248.0Q377 239 357.5 233.5Q338 228 314 229Q309 229 306.5 229.0Q304 229 300 232Q292 227 277.5 229.0Q263 231 255 226Q244 231 228.5 230.5Q213 230 201 234Q185 213 172.0 189.0Q159 165 149 138Q183 133 205.5 134.0Q228 135 248.0 137.5Q268 140 289.0 142.5Q310 145 342 144Q362 155 389.5 158.5Q417 162 440 170Q448 167 454.0 159.5Q460 152 465.5 145.5Q471 139 477.0 134.0Q483 129 492 130Q496 126 497.5 120.5Q499 115 500.0 110.0Q501 105 503.5 101.5Q506 98 512 99Q497 66 477.5 48.5Q458 31 433.0 22.0Q408 13 377.5 8.0Q347 3 310 -4Q301 -6 295.0 -3.5Q289 -1 281 -1Q258 -6 226.0 -10.0Q194 -14 161.0 -13.0Q128 -12 98.0 -4.5Q68 3 49 22Q41 29 38.5 38.5Q36 48 25 53Q24 66 21.0 82.0Q18 98 15.0 115.5Q12 133 10.5 150.0Q9 167 12 181Q15 196 24.5 208.0Q34 220 31 234Q36 235 37.0 239.5Q38 244 45 243Q51 261 58.0 277.0Q65 293 72.5 308.0Q80 323 87.5 338.5Q95 354 102 373Q88 386 81.5 401.5Q75 417 72.0 432.5Q69 448 67.0 464.5Q65 481 60 498Q70 513 84.5 522.5Q99 532 116.0 538.0Q133 544 153.0 548.0Q173 552 195 557Q235 570 266.5 577.0Q298 584 328.5 588.5Q359 593 392.0 597.0Q425 601 467 609Q476 600 484 600Q488 609 493.5 605.5Q499 602 498 611Q508 594 523.5 582.5Q539 571 558 563Z"/></g>
    <g transform="translate(7904, 0)"><path d="M108 -39Q103 -37 97 -35L85 -13L69 -25Q62 -21 58.0 -17.5Q54 -14 49 -9Q38 -1 30.0 7.5Q22 16 21 24L20 34L10 36Q5 50 2.0 56.5Q-1 63 -8 67Q-14 117 -4.0 150.5Q6 184 26 222Q38 226 47.5 233.0Q57 240 65 247Q73 254 81.0 259.5Q89 265 96 266L105 271Q122 291 146.0 306.5Q170 322 196 338Q217 350 238.5 363.5Q260 377 277 393Q285 392 291 396Q295 401 295 409Q297 411 299.5 412.5Q302 414 304 416Q311 421 323.0 428.0Q335 435 339 446L361 467L331 466Q308 465 282.5 463.0Q257 461 239 459Q224 457 208.0 456.5Q192 456 173 455Q142 475 128.5 514.5Q115 554 127 592Q134 593 139.0 595.5Q144 598 149 600Q158 601 161.0 600.0Q164 599 169 599Q197 604 215.5 605.5Q234 607 250 607Q267 607 283.0 605.5Q299 604 314 599Q349 599 385.0 602.0Q421 605 459 597Q486 606 512.5 602.0Q539 598 559 578Q560 561 567.5 552.5Q575 544 587 540Q595 511 588.5 489.0Q582 467 567.0 450.0Q552 433 531.5 419.5Q511 406 491 394Q485 385 476.5 379.5Q468 374 461 366Q428 324 385.5 292.5Q343 261 298 232Q266 211 234.5 189.5Q203 168 174 143L164 134L173 124Q185 112 201 112Q210 112 218.5 114.5Q227 117 235 120Q243 122 249.0 124.5Q255 127 260 127H273Q281 132 289.0 135.0Q297 138 305 140Q313 142 320.0 144.0Q327 146 335 151Q357 151 376.5 157.0Q396 163 416 171Q428 176 439.5 180.0Q451 184 463 186Q467 181 472.5 177.5Q478 174 483 171Q496 163 497 156L500 128L519 147Q531 137 532.0 124.5Q533 112 529 92Q497 60 449.0 42.0Q401 24 347 7Q336 4 324.5 1.0Q313 -2 302 -6L303 11L281 -3Q277 -6 274.5 -9.0Q272 -12 270 -15Q244 -22 227.0 -25.0Q210 -28 195 -31Q178 -35 163.0 -37.5Q148 -40 131 -40Q126 -40 120.0 -40.0Q114 -40 108 -39Z"/></g>
  </g>
</svg>