<?xml version="1.0" encoding="UTF-8"?>
<svg xmlns="http://www.w3.org/2000/svg" viewBox="0 0 148.1 18" 
     width="148.1" height="18">
  <g transform="translate(0, 15.3) scale(0.017578, -0.017578)" fill="#FFFFFF">
    <g transform="translate(0, 0)"><path d="M93 87Q64 109 45.5 142.0Q27 175 16.5 212.0Q6 249 2.5 288.5Q-1 328 0 364Q9 391 22.0 413.5Q35 436 51.0 456.5Q67 477 84.5 495.5Q102 514 119 533Q125 533 130 530Q134 541 142.0 549.0Q150 557 159.0 563.5Q168 570 177.0 576.5Q186 583 192 592Q217 598 236.5 609.0Q256 620 274.0 633.0Q292 646 311.0 657.0Q330 668 355 674Q364 684 377.5 691.0Q391 698 404.5 704.0Q418 710 430.5 717.0Q443 724 451 736Q457 728 468.0 730.5Q479 733 488 736Q494 737 498.0 734.0Q502 731 505.5 727.5Q509 724 511.5 723.0Q514 722 517 729Q525 728 521.5 722.0Q518 716 517 714Q527 716 533.5 710.5Q540 705 554 703Q559 698 557.0 695.0Q555 692 554 685Q590 674 600.0 650.5Q610 627 602.0 601.5Q594 576 572.5 554.5Q551 533 525 526Q494 518 467.5 510.0Q441 502 416.5 492.0Q392 482 370.5 468.5Q349 455 333 437Q305 429 282.5 415.0Q260 401 240.5 384.0Q221 367 203.0 348.5Q185 330 167 312Q167 295 161.0 286.0Q155 277 148 268Q150 249 156.5 235.5Q163 222 170 208Q250 184 339.5 178.5Q429 173 517 172Q526 160 537.5 149.5Q549 139 558.5 128.0Q568 117 573.5 102.5Q579 88 576 68Q559 51 539.0 35.5Q519 20 499 5Q490 4 477.5 5.0Q465 6 451.5 6.0Q438 6 424.5 4.5Q411 3 399 -2Q336 0 270.0 13.5Q204 27 148 46Q137 59 125.0 70.5Q113 82 93 87Z"/></g>
    <g transform="translate(626, 0)"><path d="M583 300Q582 288 585.0 277.0Q588 266 592.5 255.5Q597 245 601.0 234.0Q605 223 607 212Q609 198 607.0 181.5Q605 165 600.0 149.5Q595 134 587.0 121.5Q579 109 568 103Q554 85 534.0 75.0Q514 65 497 51Q486 44 472.5 41.0Q459 38 445 35Q434 29 419.0 22.5Q404 16 388.0 10.5Q372 5 356.0 2.5Q340 0 328 1Q298 -10 269.5 -13.5Q241 -17 203 -9Q167 -14 136.5 -6.0Q106 2 82.5 19.5Q59 37 41.5 61.5Q24 86 13 113Q5 170 17.0 216.5Q29 263 51.5 302.5Q74 342 103.0 375.5Q132 409 159 441Q165 439 168.5 441.5Q172 444 175.0 448.5Q178 453 181.5 457.0Q185 461 190 462Q197 477 210.5 484.5Q224 492 232 506Q241 508 247.0 512.0Q253 516 258.5 521.0Q264 526 270.0 530.5Q276 535 284 537V548Q302 556 310.5 566.5Q319 577 331 592Q340 593 345.5 593.0Q351 593 362 595Q370 609 376.5 616.0Q383 623 396 631Q408 625 422.5 623.0Q437 621 448 610Q449 600 454.0 594.5Q459 589 465.0 584.5Q471 580 476.5 575.0Q482 570 484 561Q488 560 489.5 562.0Q491 564 495 563Q498 549 502.0 544.5Q506 540 510 527Q505 517 502.5 506.5Q500 496 490 491Q489 484 494.0 483.5Q499 483 500 478Q501 469 497 465Q521 426 540.0 382.5Q559 339 583 300ZM458 205Q462 216 468.5 223.0Q475 230 476 244Q471 252 470.0 256.5Q469 261 469 271Q447 302 431.0 337.5Q415 373 395 404Q393 400 388.0 396.0Q383 392 377 398Q375 390 370.0 386.5Q365 383 359.0 383.5Q353 384 346.5 386.5Q340 389 335 393Q306 370 277.0 348.0Q248 326 225 297Q221 295 220.0 295.5Q219 296 214 294Q206 275 194.5 259.5Q183 244 172.0 228.0Q161 212 153.0 194.0Q145 176 144 152Q161 138 184.0 135.0Q207 132 231.5 134.0Q256 136 279.5 140.5Q303 145 323 145Q365 155 395.0 171.5Q425 188 458 205Z"/></g>
    <g transform="translate(1270, 0)"><path d="M692 18Q682 13 673.5 9.0Q665 5 654 5Q615 34 613.5 106.0Q612 178 644 289Q649 292 649 301L640 311Q636 311 632.5 310.0Q629 309 627 303Q601 284 570.0 263.5Q539 243 505.5 225.5Q472 208 437.5 197.0Q403 186 370 186Q286 186 244 271L236 286L228 273Q225 269 219.0 256.5Q213 244 207.0 228.0Q201 212 196.5 195.5Q192 179 193 167Q184 158 174.0 146.0Q164 134 159 119Q157 111 161 104Q159 95 152 90Q148 85 143.5 80.5Q139 76 136 71Q134 66 133.5 61.0Q133 56 132 51Q132 44 130 38Q113 3 103.0 -7.5Q93 -18 76 -18Q68 -18 50 -15Q37 -1 26.5 23.5Q16 48 10.5 76.0Q5 104 5.5 132.5Q6 161 15 182Q15 183 23.0 202.0Q31 221 43.5 251.0Q56 281 72.0 317.5Q88 354 104.0 388.5Q120 423 134.5 452.0Q149 481 159 496Q167 508 173.5 518.5Q180 529 186 539Q204 570 220.5 590.5Q237 611 269 623Q291 614 301 602L303 591Q307 581 315 581Q326 578 333.5 575.5Q341 573 350 571Q357 563 363 552Q371 540 378.5 528.5Q386 517 390.5 505.5Q395 494 395.5 482.0Q396 470 391 457L392 447Q397 438 394 422Q393 415 393.0 407.5Q393 400 395 391Q413 377 427 377Q443 377 456.5 384.5Q470 392 482 400Q490 406 498.0 410.5Q506 415 514 416Q532 433 546.5 446.0Q561 459 577 472Q607 496 635.0 524.0Q663 552 680 594Q690 600 701 600Q712 600 724.0 595.0Q736 590 747 585Q750 583 752.5 582.0Q755 581 757 580Q757 570 765 563Q769 560 770.0 559.0Q771 558 773 557Q788 549 792 541Q799 518 817 506Q815 496 817.5 487.5Q820 479 824 470Q825 467 826.0 464.0Q827 461 829 457L810 459L813 440Q815 426 810.5 409.0Q806 392 800 382Q801 356 801.5 341.5Q802 327 800.0 314.5Q798 302 794.5 291.0Q791 280 785 267Q789 203 770.5 150.5Q752 98 732 52Q730 47 727.5 42.0Q725 37 723 32Q714 29 707.0 25.5Q700 22 692 18Z"/></g>
    <g transform="translate(2104, 0)"><path d="M377 620Q419 615 452.0 603.0Q485 591 508 571Q524 546 538.5 517.0Q553 488 560.5 456.5Q568 425 567.5 392.0Q567 359 553 325Q524 289 482.5 266.5Q441 244 393.0 230.0Q345 216 293.5 206.0Q242 196 193 186Q194 163 193.5 137.5Q193 112 188.5 86.5Q184 61 175.0 37.0Q166 13 151 -7Q134 -7 116.0 -11.5Q98 -16 84 -19Q77 -15 71.5 -11.5Q66 -8 56 -7Q58 3 51.0 13.5Q44 24 37.0 35.0Q30 46 27.5 56.0Q25 66 37 75Q30 82 30 93Q37 105 42.5 126.0Q48 147 51.5 167.5Q55 188 53.0 205.0Q51 222 33 230Q34 232 37.0 232.0Q40 232 43 233Q35 239 33.5 250.0Q32 261 26 269Q28 274 29.0 278.0Q30 282 36 281Q33 299 36.5 315.0Q40 331 47.0 345.5Q54 360 64.0 374.0Q74 388 83 402Q90 403 91.5 400.0Q93 397 98 401Q111 411 116.0 422.0Q121 433 121 447Q128 468 138.0 489.5Q148 511 160.0 529.0Q172 547 186.5 561.0Q201 575 217 582Q229 592 247.0 600.5Q265 609 286.0 613.5Q307 618 328.5 618.5Q350 619 368 614Q373 612 373.5 616.0Q374 620 377 620ZM336 381Q361 392 389.5 398.5Q418 405 437 423Q425 434 402.0 442.5Q379 451 352.0 453.0Q325 455 297.5 448.5Q270 442 250 424Q244 406 240.0 395.5Q236 385 229 370Q231 365 235.5 362.5Q240 360 242 355Q265 367 288.5 368.5Q312 370 336 381Z"/></g>
    <g transform="translate(2641, 0)"><path d="M529 84Q523 67 511.5 49.5Q500 32 484.5 18.5Q469 5 450.0 -4.0Q431 -13 410 -14Q397 -11 392.5 -7.5Q388 -4 383 -1Q380 1 377.5 2.5Q375 4 373 5L361 10L365 23Q367 31 364.0 35.5Q361 40 352 48Q349 51 346.0 54.0Q343 57 341 60L324 79L351 86Q376 93 384.5 104.0Q393 115 391 141Q371 145 357.5 142.0Q344 139 330 135Q312 130 293.5 126.5Q275 123 253 123Q245 123 238.0 123.5Q231 124 223 125L213 127Q211 138 209.0 139.5Q207 141 205 143Q200 148 194.5 156.5Q189 165 192 178Q187 187 186 196Q180 184 177 171L173 161L163 159Q161 158 160.0 154.5Q159 151 159 149L154 132Q152 130 150.0 128.5Q148 127 146 125Q144 116 141.0 107.0Q138 98 135 90Q130 77 126.5 64.5Q123 52 124 40L120 29Q115 23 109.0 19.5Q103 16 97 13Q95 11 91.5 9.5Q88 8 86 7L83 -4L71 -6Q60 -8 55.5 -9.0Q51 -10 45 -10L35 -9Q24 0 18.0 5.5Q12 11 4 16Q-5 28 -6.0 34.0Q-7 40 -8 45Q-10 51 -10.5 55.0Q-11 59 -13 61L-26 73L-15 82L-14 99Q6 150 28.5 197.0Q51 244 75 293Q83 309 90.5 325.0Q98 341 106 357Q105 360 105.0 364.0Q105 368 107 373Q118 390 125.0 403.5Q132 417 139 431Q147 448 155.5 464.0Q164 480 177 497L193 504Q196 505 200.0 506.5Q204 508 209 508L224 506Q252 519 273.0 542.5Q294 566 316 599L326 613L339 605Q344 602 353.0 599.5Q362 597 372 594Q390 590 406.0 585.0Q422 580 432 570Q438 554 439.0 546.0Q440 538 442 530Q445 513 447.5 496.0Q450 479 451 458Q456 441 459.5 424.5Q463 408 466 391Q471 367 476.0 344.5Q481 322 489 302Q497 302 499 301Q504 303 509.5 304.0Q515 305 522 306L533 307L537 297Q538 292 547 287Q560 286 566.0 281.5Q572 277 577 272Q581 268 585 266L600 260L592 245Q582 227 563.5 210.5Q545 194 522 183Q523 177 523.5 171.5Q524 166 526 160Q529 143 531.0 125.0Q533 107 531 88ZM240 257Q270 259 294.5 261.5Q319 264 349 270Q342 300 334.0 332.5Q326 365 317 397L311 387Q291 366 272.5 340.0Q254 314 241 291Q235 282 229.0 273.0Q223 264 218 255Q224 256 229.5 256.0Q235 256 240 257Z"/></g>
    <g transform="translate(3236, 0)"><path d="M205 182Q196 180 192.0 171.5Q188 163 184.5 154.0Q181 145 177.5 137.5Q174 130 167 130Q166 122 161.5 116.0Q157 110 153.0 103.5Q149 97 147.0 89.5Q145 82 149 72Q141 66 139.0 55.0Q137 44 134.5 34.0Q132 24 126.0 17.0Q120 10 104 11Q101 7 103.0 6.0Q105 5 106 -1Q95 1 89.5 -2.5Q84 -6 76 -7Q57 -1 44.5 14.0Q32 29 22.5 47.5Q13 66 5.5 85.0Q-2 104 -9 118Q-6 129 -8.0 139.5Q-10 150 -15 157Q34 261 92.0 379.0Q150 497 202 612Q225 603 247.5 591.5Q270 580 288.5 565.0Q307 550 320.0 530.5Q333 511 337 487Q335 481 332.5 482.5Q330 484 328 481Q332 476 332.5 474.0Q333 472 332.5 470.0Q332 468 332.0 464.5Q332 461 335 455Q331 456 329.5 454.0Q328 452 323 454Q327 443 325.5 436.0Q324 429 321.0 423.5Q318 418 316.0 411.5Q314 405 317 395Q314 395 312.5 393.5Q311 392 310.0 390.5Q309 389 307.5 387.5Q306 386 303 387Q306 365 305.0 343.0Q304 321 303.5 298.5Q303 276 304.0 251.5Q305 227 311 201Q347 222 368.5 255.0Q390 288 403.5 329.0Q417 370 424.0 417.0Q431 464 439 513Q448 522 453.0 535.0Q458 548 462.0 562.5Q466 577 470.0 591.5Q474 606 480 618Q495 616 505.5 608.5Q516 601 525.0 592.5Q534 584 544.0 576.5Q554 569 569 567Q581 550 591.0 534.0Q601 518 604 500Q599 492 596.5 482.0Q594 472 591.0 462.0Q588 452 583.0 443.5Q578 435 569 429Q566 403 561.5 381.5Q557 360 552.5 339.0Q548 318 545.0 295.5Q542 273 543 246Q535 223 526.0 197.0Q517 171 512 150Q496 137 487.0 119.0Q478 101 468 83Q464 79 463.0 81.0Q462 83 456 84Q457 80 456.0 78.0Q455 76 453.5 74.5Q452 73 451.5 70.0Q451 67 453 62Q439 56 428.0 45.0Q417 34 404.5 25.0Q392 16 374.5 13.0Q357 10 329 20Q288 50 256.5 89.0Q225 128 205 182Z"/></g>
    <g transform="translate(3814, 0)"><path d="M320 262Q313 256 308.0 247.5Q303 239 298 230Q293 219 287.0 209.0Q281 199 272 191Q267 176 262.0 167.5Q257 159 246 148Q236 108 199 61Q198 52 193.5 43.5Q189 35 184 27Q182 24 180.0 20.5Q178 17 177 15L175 5Q170 -3 164.0 -9.0Q158 -15 153 -20Q151 -23 146 -28L131 -34Q58 -24 42 44L43 54Q45 59 46.5 64.5Q48 70 50 76Q54 90 59.5 104.0Q65 118 76 129Q78 136 85.0 151.5Q92 167 109 198Q123 222 131.0 236.0Q139 250 144 258Q134 274 120 287Q107 312 97.5 335.0Q88 358 83 376Q82 389 80.0 398.0Q78 407 76 417Q73 428 71.0 439.0Q69 450 69 462Q64 469 63 476L65 486Q68 493 66.0 504.5Q64 516 61 528Q59 538 56.5 550.0Q54 562 55.0 574.0Q56 586 61.5 596.5Q67 607 80 615L97 616Q106 611 114.5 606.5Q123 602 131 597Q142 592 152.0 587.0Q162 582 173 574L180 560L193 549V538Q194 534 194 527Q194 514 198 511L202 499Q202 485 205.0 472.5Q208 460 211 449Q214 438 217.0 426.0Q220 414 218 400Q224 403 228 407Q230 409 232.0 410.0Q234 411 236 413L295 493L293 503L314 523Q322 531 329.5 538.0Q337 545 342 553L353 561Q385 611 444 623L458 625L462 612Q466 601 478.5 592.0Q491 583 505 575L514 569Q519 559 519.0 554.0Q519 549 518 545L522 535Q514 511 502.5 500.0Q491 489 480 480Q471 472 463.5 465.5Q456 459 452 449L445 441Q424 429 418 409L415 397H403Q402 397 398.5 393.5Q395 390 388 376Q381 366 378.0 363.0Q375 360 373 358Q372 354 370.5 350.5Q369 347 367 342Q354 329 351.0 322.5Q348 316 344 308Q340 300 336.5 292.5Q333 285 325 277Z"/></g>
    <g transform="translate(4474, 0)"><path d="M93 87Q64 109 45.5 142.0Q27 175 16.5 212.0Q6 249 2.5 288.5Q-1 328 0 364Q9 391 22.0 413.5Q35 436 51.0 456.5Q67 477 84.5 495.5Q102 514 119 533Q125 533 130 530Q134 541 142.0 549.0Q150 557 159.0 563.5Q168 570 177.0 576.5Q186 583 192 592Q217 598 236.5 609.0Q256 620 274.0 633.0Q292 646 311.0 657.0Q330 668 355 674Q364 684 377.5 691.0Q391 698 404.5 704.0Q418 710 430.5 717.0Q443 724 451 736Q457 728 468.0 730.5Q479 733 488 736Q494 737 498.0 734.0Q502 731 505.5 727.5Q509 724 511.5 723.0Q514 722 517 729Q525 728 521.5 722.0Q518 716 517 714Q527 716 533.5 710.5Q540 705 554 703Q559 698 557.0 695.0Q555 692 554 685Q590 674 600.0 650.5Q610 627 602.0 601.5Q594 576 572.5 554.5Q551 533 525 526Q494 518 467.5 510.0Q441 502 416.5 492.0Q392 482 370.5 468.5Q349 455 333 437Q305 429 282.5 415.0Q260 401 240.5 384.0Q221 367 203.0 348.5Q185 330 167 312Q167 295 161.0 286.0Q155 277 148 268Q150 249 156.5 235.5Q163 222 170 208Q250 184 339.5 178.5Q429 173 517 172Q526 160 537.5 149.5Q549 139 558.5 128.0Q568 117 573.5 102.5Q579 88 576 68Q559 51 539.0 35.5Q519 20 499 5Q490 4 477.5 5.0Q465 6 451.5 6.0Q438 6 424.5 4.5Q411 3 399 -2Q336 0 270.0 13.5Q204 27 148 46Q137 59 125.0 70.5Q113 82 93 87Z"/></g>
    <g transform="translate(5100, 0)"><path d="M590 569Q592 547 597.0 531.0Q602 515 608 500Q613 486 617.5 472.5Q622 459 624 440Q616 414 612.5 392.0Q609 370 605 346Q589 311 574.0 284.0Q559 257 550 237Q545 232 541.5 225.5Q538 219 534 212Q532 209 529.0 203.0Q526 197 524 195L504 202L500 177L486 173L476 161Q457 128 436.0 105.5Q415 83 388.5 65.5Q362 48 328.5 33.0Q295 18 253 0Q236 2 223.5 2.5Q211 3 200 4Q181 4 153 7Q150 15 144.0 18.0Q138 21 133 21Q116 29 107.5 44.5Q99 60 91 78Q86 89 81.0 98.5Q76 108 70 118L87 123L65 147Q63 150 60.0 152.5Q57 155 55 158L54 174Q51 243 51.5 300.5Q52 358 67 403V414Q70 436 73.0 450.5Q76 465 78 478Q81 500 87 519Q101 522 108.0 530.5Q115 539 120 546Q134 547 139.0 542.0Q144 537 149 526Q154 517 161.5 506.0Q169 495 184 489Q186 481 189.5 472.5Q193 464 197 454Q205 437 211.5 418.5Q218 400 219 383Q209 364 203.5 339.0Q198 314 196.5 288.5Q195 263 197.5 239.5Q200 216 206 200L212 187L229 189Q259 197 283.5 206.5Q308 216 329.0 229.0Q350 242 369.0 259.5Q388 277 409 300Q430 323 445.5 352.5Q461 382 471.5 414.0Q482 446 487.5 477.5Q493 509 495 537Q512 543 512 561L510 572Q506 578 510 586Q516 605 538 615Q554 605 566.5 593.0Q579 581 590 569Z"/></g>
    <g transform="translate(5699, 0)"><path d="M264 11Q236 2 203.0 -7.0Q170 -16 137 -16Q87 -16 58 9Q53 20 49 24Q46 28 43.5 32.5Q41 37 40 45Q28 59 21.0 77.5Q14 96 11.5 115.5Q9 135 10.5 155.0Q12 175 17 193Q19 197 19.5 201.0Q20 205 21 210Q25 226 29.5 241.0Q34 256 42 267Q38 276 42.0 287.0Q46 298 51 307Q65 345 74.5 371.5Q84 398 94 424Q111 469 126.0 513.0Q141 557 153 608Q161 613 165 615Q171 617 175 618Q193 609 217.0 600.5Q241 592 257 592Q265 587 267.0 584.5Q269 582 271 580Q282 567 290.0 553.5Q298 540 295 518Q289 509 286 509Q281 489 275.5 475.0Q270 461 264 447Q257 432 251.0 417.0Q245 402 241 380Q237 375 235.5 371.0Q234 367 232 362Q230 357 227.5 351.5Q225 346 220 342Q217 316 210.5 300.0Q204 284 197 268Q185 239 175.5 210.0Q166 181 164 144Q169 146 173.5 146.0Q178 146 182 146Q191 146 203 143Q233 159 268.5 162.0Q304 165 339 166Q353 166 367.0 166.0Q381 166 393 168Q402 163 404.5 162.5Q407 162 412 162Q419 162 424 161Q436 150 447.0 145.0Q458 140 470 136Q481 132 491.5 127.5Q502 123 512 115L519 72Q526 63 525 60Q525 52 521 48L523 37Q508 34 502.5 30.0Q497 26 492 21Q484 20 480.5 20.0Q477 20 474 20Q460 20 440 15Q413 24 384 24Q373 24 361.0 23.0Q349 22 337 21Q325 19 312.5 18.0Q300 17 287 17Z"/></g>
    <g transform="translate(6245, 0)"><path d="M569 481Q544 481 515.0 477.5Q486 474 458 470Q438 467 419.5 465.0Q401 463 386 462Q379 440 372.0 423.0Q365 406 357 390Q349 373 342.5 355.5Q336 338 330 318Q320 302 313.5 288.5Q307 275 303 258Q291 243 285.0 226.5Q279 210 276 198L272 186Q266 180 265.0 176.5Q264 173 260 170Q259 159 253 148Q251 143 250.0 138.5Q249 134 249 132Q249 122 244 119Q245 114 244.0 108.5Q243 103 242 98Q239 86 240 79Q243 75 245.5 72.0Q248 69 249 64Q255 60 258 59Q262 56 270 52L279 42Q284 13 270 -4Q255 -23 219 -23H207Q202 -18 201 -15Q193 -12 188.0 -10.0Q183 -8 179 -2Q166 4 158 8L149 13Q149 24 149 25Q142 34 138.5 45.0Q135 56 133 67Q131 76 128.5 84.0Q126 92 122 98Q120 156 133.0 196.0Q146 236 160 273Q168 293 176.0 313.5Q184 334 190 356L199 366Q206 382 210.5 392.5Q215 403 220 414Q223 421 225.5 427.5Q228 434 230 439Q224 439 219.0 438.5Q214 438 209 437Q203 436 198.0 435.5Q193 435 188 435Q181 435 178 436Q167 431 154 431H144Q141 431 138.5 431.5Q136 432 134 432Q124 432 118 429Q106 429 95 429H85Q83 429 80.0 428.5Q77 428 75 428Q68 428 60.0 429.5Q52 431 43 436Q31 452 27 453L18 465Q17 471 15.0 476.5Q13 482 11 489Q7 499 3.5 510.5Q0 522 0 538Q1 546 4.0 550.0Q7 554 9 557L12 572L25 571H53Q85 571 118.0 573.5Q151 576 186 579Q206 581 226.5 583.0Q247 585 269 587Q273 596 277 604L287 609Q305 610 312.5 604.5Q320 599 325 594Q347 596 369.5 598.5Q392 601 415 605Q449 610 483.5 614.0Q518 618 550 618Q564 618 577.0 617.0Q590 616 601 614L611 607Q614 601 619.5 596.0Q625 591 631 586Q643 575 655.0 560.0Q667 545 664 516Q656 504 652 502L643 490L633 491Q627 491 622.0 489.5Q617 488 612 486Q608 484 604.0 482.5Q600 481 595 480Q586 480 580.5 480.5Q575 481 569 481Z"/></g>
    <g transform="translate(6736, 0)"><path d="M590 569Q592 547 597.0 531.0Q602 515 608 500Q613 486 617.5 472.5Q622 459 624 440Q616 414 612.5 392.0Q609 370 605 346Q589 311 574.0 284.0Q559 257 550 237Q545 232 541.5 225.5Q538 219 534 212Q532 209 529.0 203.0Q526 197 524 195L504 202L500 177L486 173L476 161Q457 128 436.0 105.5Q415 83 388.5 65.5Q362 48 328.5 33.0Q295 18 253 0Q236 2 223.5 2.5Q211 3 200 4Q181 4 153 7Q150 15 144.0 18.0Q138 21 133 21Q116 29 107.5 44.5Q99 60 91 78Q86 89 81.0 98.5Q76 108 70 118L87 123L65 147Q63 150 60.0 152.5Q57 155 55 158L54 174Q51 243 51.5 300.5Q52 358 67 403V414Q70 436 73.0 450.5Q76 465 78 478Q81 500 87 519Q101 522 108.0 530.5Q115 539 120 546Q134 547 139.0 542.0Q144 537 149 526Q154 517 161.5 506.0Q169 495 184 489Q186 481 189.5 472.5Q193 464 197 454Q205 437 211.5 418.5Q218 400 219 383Q209 364 203.5 339.0Q198 314 196.5 288.5Q195 263 197.5 239.5Q200 216 206 200L212 187L229 189Q259 197 283.5 206.5Q308 216 329.0 229.0Q350 242 369.0 259.5Q388 277 409 300Q430 323 445.5 352.5Q461 382 471.5 414.0Q482 446 487.5 477.5Q493 509 495 537Q512 543 512 561L510 572Q506 578 510 586Q516 605 538 615Q554 605 566.5 593.0Q579 581 590 569Z"/></g>
    <g transform="translate(7335, 0)"><path d="M161 104Q150 64 141.5 43.5Q133 23 116 1Q103 3 98.0 -2.0Q93 -7 87 -11Q78 -13 74.0 -11.0Q70 -9 67.0 -6.5Q64 -4 59.5 -1.5Q55 1 46 1Q44 9 41.5 16.0Q39 23 28 21Q30 29 29.0 34.5Q28 40 26.5 44.5Q25 49 24.0 53.5Q23 58 25 65Q20 65 17.0 72.0Q14 79 10 86Q13 104 16.0 120.0Q19 136 23.5 150.0Q28 164 31.0 178.0Q34 192 28 207Q32 204 34.0 208.5Q36 213 37.0 220.5Q38 228 38.0 235.5Q38 243 37 248Q47 274 53.5 301.5Q60 329 65.5 356.0Q71 383 77.0 409.0Q83 435 93 457Q104 459 117.5 454.5Q131 450 134 443Q160 463 180.0 491.5Q200 520 221.0 547.0Q242 574 267.5 595.0Q293 616 332 620Q352 605 376.5 589.5Q401 574 417 549Q425 545 430.5 540.5Q436 536 444 531V519Q456 508 463.5 493.5Q471 479 477.0 462.5Q483 446 489.0 429.5Q495 413 503 398Q501 393 501.0 389.5Q501 386 502.5 382.0Q504 378 505.0 374.0Q506 370 505 363Q502 319 476.5 292.0Q451 265 415.0 247.5Q379 230 338.0 218.0Q297 206 264 192Q264 188 267.5 188.0Q271 188 270 183Q294 168 308.0 159.0Q322 150 334.5 144.0Q347 138 361.5 133.5Q376 129 402 123Q428 117 442.5 113.5Q457 110 469.0 107.5Q481 105 493.5 103.5Q506 102 529 100Q538 91 544.5 78.5Q551 66 553.0 53.5Q555 41 554.0 29.5Q553 18 547 11Q548 8 551.5 8.5Q555 9 559 8Q553 4 549.0 -2.0Q545 -8 541.0 -14.0Q537 -20 532.0 -24.5Q527 -29 518 -30Q487 -42 440.0 -31.5Q393 -21 321 7Q285 21 262.5 31.5Q240 42 223.5 52.5Q207 63 193.5 75.0Q180 87 161 104ZM304 447Q293 431 279.5 418.0Q266 405 253.5 391.5Q241 378 231.0 361.5Q221 345 217 323Q252 327 290.0 342.5Q328 358 362 372Q358 403 340.5 422.0Q323 441 304 447Z"/></g>
    <g transform="translate(7889, 0)"><path d="M558 563Q559 556 558.5 552.5Q558 549 557.5 546.0Q557 543 557.0 539.5Q557 536 559 529Q538 495 510.5 482.5Q483 470 451.0 464.5Q419 459 385.5 453.0Q352 447 319 427Q306 432 295.5 427.0Q285 422 265 424Q259 418 250.0 415.5Q241 413 232 410Q236 401 235.5 391.5Q235 382 238 376Q273 373 315.5 377.0Q358 381 399 382Q400 377 398.0 375.5Q396 374 397 370Q404 365 411.0 357.5Q418 350 425.0 343.0Q432 336 439.5 331.5Q447 327 457 328Q461 320 462.5 310.5Q464 301 460 291Q444 280 428.0 268.5Q412 257 394.5 248.0Q377 239 357.5 233.5Q338 228 314 229Q309 229 306.5 229.0Q304 229 300 232Q292 227 277.5 229.0Q263 231 255 226Q244 231 228.5 230.5Q213 230 201 234Q185 213 172.0 189.0Q159 165 149 138Q183 133 205.5 134.0Q228 135 248.0 137.5Q268 140 289.0 142.5Q310 145 342 144Q362 155 389.5 158.5Q417 162 440 170Q448 167 454.0 159.5Q460 152 465.5 145.5Q471 139 477.0 134.0Q483 129 492 130Q496 126 497.5 120.5Q499 115 500.0 110.0Q501 105 503.5 101.5Q506 98 512 99Q497 66 477.5 48.5Q458 31 433.0 22.0Q408 13 377.5 8.0Q347 3 310 -4Q301 -6 295.0 -3.5Q289 -1 281 -1Q258 -6 226.0 -10.0Q194 -14 161.0 -13.0Q128 -12 98.0 -4.5Q68 3 49 22Q41 29 38.5 38.5Q36 48 25 53Q24 66 21.0 82.0Q18 98 15.0 115.5Q12 133 10.5 150.0Q9 167 12 181Q15 196 24.5 208.0Q34 220 31 234Q36 235 37.0 239.5Q38 244 45 243Q51 261 58.0 277.0Q65 293 72.5 308.0Q80 323 87.5 338.5Q95 354 102 373Q88 386 81.5 401.5Q75 417 72.0 432.5Q69 448 67.0 464.5Q65 481 60 498Q70 513 84.5 522.5Q99 532 116.0 538.0Q133 544 153.0 548.0Q173 552 195 557Q235 570 266.5 577.0Q298 584 328.5 588.5Q359 593 392.0 597.0Q425 601 467 609Q476 600 484 600Q488 609 493.5 605.5Q499 602 498 611Q508 594 523.5 582.5Q539 571 558 563Z"/></g>
  </g>
</svg>