<?xml version="1.0" encoding="UTF-8"?>
<svg xmlns="http://www.w3.org/2000/svg" viewBox="0 0 126.2 18" 
     width="126.2" height="18">
  <g transform="translate(0, 15.299999999999999) scale(0.017578, -0.017578)" fill="#FFFFFF">
    <g transform="translate(0, 0)"><path d="M93 87Q64 109 45.5 142.0Q27 175 16.5 212.0Q6 249 2.5 288.5Q-1 328 0 364Q9 391 22.0 413.5Q35 436 51.0 456.5Q67 477 84.5 495.5Q102 514 119 533Q125 533 130 530Q134 541 142.0 549.0Q150 557 159.0 563.5Q168 570 177.0 576.5Q186 583 192 592Q217 598 236.5 609.0Q256 620 274.0 633.0Q292 646 311.0 657.0Q330 668 355 674Q364 684 377.5 691.0Q391 698 404.5 704.0Q418 710 430.5 717.0Q443 724 451 736Q457 728 468.0 730.5Q479 733 488 736Q494 737 498.0 734.0Q502 731 505.5 727.5Q509 724 511.5 723.0Q514 722 517 729Q525 728 521.5 722.0Q518 716 517 714Q527 716 533.5 710.5Q540 705 554 703Q559 698 557.0 695.0Q555 692 554 685Q590 674 600.0 650.5Q610 627 602.0 601.5Q594 576 572.5 554.5Q551 533 525 526Q494 518 467.5 510.0Q441 502 416.5 492.0Q392 482 370.5 468.5Q349 455 333 437Q305 429 282.5 415.0Q260 401 240.5 384.0Q221 367 203.0 348.5Q185 330 167 312Q167 295 161.0 286.0Q155 277 148 268Q150 249 156.5 235.5Q163 222 170 208Q250 184 339.5 178.5Q429 173 517 172Q526 160 537.5 149.5Q549 139 558.5 128.0Q568 117 573.5 102.5Q579 88 576 68Q559 51 539.0 35.5Q519 20 499 5Q490 4 477.5 5.0Q465 6 451.5 6.0Q438 6 424.5 4.5Q411 3 399 -2Q336 0 270.0 13.5Q204 27 148 46Q137 59 125.0 70.5Q113 82 93 87Z"/></g>
    <g transform="translate(626, 0)"><path d="M583 300Q582 288 585.0 277.0Q588 266 592.5 255.5Q597 245 601.0 234.0Q605 223 607 212Q609 198 607.0 181.5Q605 165 600.0 149.5Q595 134 587.0 121.5Q579 109 568 103Q554 85 534.0 75.0Q514 65 497 51Q486 44 472.5 41.0Q459 38 445 35Q434 29 419.0 22.5Q404 16 388.0 10.5Q372 5 356.0 2.5Q340 0 328 1Q298 -10 269.5 -13.5Q241 -17 203 -9Q167 -14 136.5 -6.0Q106 2 82.5 19.5Q59 37 41.5 61.5Q24 86 13 113Q5 170 17.0 216.5Q29 263 51.5 302.5Q74 342 103.0 375.5Q132 409 159 441Q165 439 168.5 441.5Q172 444 175.0 448.5Q178 453 181.5 457.0Q185 461 190 462Q197 477 210.5 484.5Q224 492 232 506Q241 508 247.0 512.0Q253 516 258.5 521.0Q264 526 270.0 530.5Q276 535 284 537V548Q302 556 310.5 566.5Q319 577 331 592Q340 593 345.5 593.0Q351 593 362 595Q370 609 376.5 616.0Q383 623 396 631Q408 625 422.5 623.0Q437 621 448 610Q449 600 454.0 594.5Q459 589 465.0 584.5Q471 580 476.5 575.0Q482 570 484 561Q488 560 489.5 562.0Q491 564 495 563Q498 549 502.0 544.5Q506 540 510 527Q505 517 502.5 506.5Q500 496 490 491Q489 484 494.0 483.5Q499 483 500 478Q501 469 497 465Q521 426 540.0 382.5Q559 339 583 300ZM458 205Q462 216 468.5 223.0Q475 230 476 244Q471 252 470.0 256.5Q469 261 469 271Q447 302 431.0 337.5Q415 373 395 404Q393 400 388.0 396.0Q383 392 377 398Q375 390 370.0 386.5Q365 383 359.0 383.5Q353 384 346.5 386.5Q340 389 335 393Q306 370 277.0 348.0Q248 326 225 297Q221 295 220.0 295.5Q219 296 214 294Q206 275 194.5 259.5Q183 244 172.0 228.0Q161 212 153.0 194.0Q145 176 144 152Q161 138 184.0 135.0Q207 132 231.5 134.0Q256 136 279.5 140.5Q303 145 323 145Q365 155 395.0 171.5Q425 188 458 205Z"/></g>
    <g transform="translate(1270, 0)"><path d="M493 270Q492 265 491.0 261.5Q490 258 489.0 255.0Q488 252 488.0 247.5Q488 243 488 236Q458 183 412.5 147.0Q367 111 312.5 83.5Q258 56 199.0 33.5Q140 11 84 -15Q60 -9 47.5 5.0Q35 19 28.5 37.5Q22 56 19.5 78.5Q17 101 15 125Q18 136 23.5 143.5Q29 151 29 165Q37 191 45.0 216.0Q53 241 55 267Q58 275 66 278Q71 326 66.5 375.5Q62 425 50 468Q51 478 52.5 482.5Q54 487 52 489Q51 497 57.5 497.0Q64 497 71 497Q71 512 65.5 527.0Q60 542 55 561Q62 576 64.0 590.5Q66 605 73 616Q127 599 176.5 575.0Q226 551 274 540Q310 514 348.0 488.5Q386 463 417.0 432.5Q448 402 469.0 363.0Q490 324 493 270ZM256 215Q277 223 297.5 232.0Q318 241 335.5 252.5Q353 264 367.0 279.0Q381 294 390 315Q384 327 374.0 336.5Q364 346 354.0 354.5Q344 363 334.5 372.0Q325 381 319 394Q306 396 296.0 401.5Q286 407 276.5 412.5Q267 418 256.5 423.0Q246 428 232 429Q210 440 192.5 445.0Q175 450 166 458Q159 458 155 455Q165 417 170.0 383.5Q175 350 175.5 316.5Q176 283 172.0 248.0Q168 213 161 172Q171 173 179.5 176.5Q188 180 196.5 184.0Q205 188 214.5 191.5Q224 195 237 196Q240 202 245.5 206.0Q251 210 256 215Z"/></g>
    <g transform="translate(1779, 0)"><path d="M558 563Q559 556 558.5 552.5Q558 549 557.5 546.0Q557 543 557.0 539.5Q557 536 559 529Q538 495 510.5 482.5Q483 470 451.0 464.5Q419 459 385.5 453.0Q352 447 319 427Q306 432 295.5 427.0Q285 422 265 424Q259 418 250.0 415.5Q241 413 232 410Q236 401 235.5 391.5Q235 382 238 376Q273 373 315.5 377.0Q358 381 399 382Q400 377 398.0 375.5Q396 374 397 370Q404 365 411.0 357.5Q418 350 425.0 343.0Q432 336 439.5 331.5Q447 327 457 328Q461 320 462.5 310.5Q464 301 460 291Q444 280 428.0 268.5Q412 257 394.5 248.0Q377 239 357.5 233.5Q338 228 314 229Q309 229 306.5 229.0Q304 229 300 232Q292 227 277.5 229.0Q263 231 255 226Q244 231 228.5 230.5Q213 230 201 234Q185 213 172.0 189.0Q159 165 149 138Q183 133 205.5 134.0Q228 135 248.0 137.5Q268 140 289.0 142.5Q310 145 342 144Q362 155 389.5 158.5Q417 162 440 170Q448 167 454.0 159.5Q460 152 465.5 145.5Q471 139 477.0 134.0Q483 129 492 130Q496 126 497.5 120.5Q499 115 500.0 110.0Q501 105 503.5 101.5Q506 98 512 99Q497 66 477.5 48.5Q458 31 433.0 22.0Q408 13 377.5 8.0Q347 3 310 -4Q301 -6 295.0 -3.5Q289 -1 281 -1Q258 -6 226.0 -10.0Q194 -14 161.0 -13.0Q128 -12 98.0 -4.5Q68 3 49 22Q41 29 38.5 38.5Q36 48 25 53Q24 66 21.0 82.0Q18 98 15.0 115.5Q12 133 10.5 150.0Q9 167 12 181Q15 196 24.5 208.0Q34 220 31 234Q36 235 37.0 239.5Q38 244 45 243Q51 261 58.0 277.0Q65 293 72.5 308.0Q80 323 87.5 338.5Q95 354 102 373Q88 386 81.5 401.5Q75 417 72.0 432.5Q69 448 67.0 464.5Q65 481 60 498Q70 513 84.5 522.5Q99 532 116.0 538.0Q133 544 153.0 548.0Q173 552 195 557Q235 570 266.5 577.0Q298 584 328.5 588.5Q359 593 392.0 597.0Q425 601 467 609Q476 600 484 600Q488 609 493.5 605.5Q499 602 498 611Q508 594 523.5 582.5Q539 571 558 563Z"/></g>
    <g transform="translate(2313, 0)"><path d="M0 237Q0 248 3.0 257.0Q6 266 4 280Q35 346 74.5 402.5Q114 459 169 502Q178 509 183.5 516.5Q189 524 194.5 531.0Q200 538 207.0 543.5Q214 549 225 551Q250 580 285.0 604.0Q320 628 358.0 650.0Q396 672 434.5 695.0Q473 718 504 745Q515 738 521.5 740.5Q528 743 535 741Q544 722 558.5 714.5Q573 707 588.5 699.5Q604 692 617.5 681.5Q631 671 638 653Q631 653 631.5 648.0Q632 643 634.0 637.0Q636 631 636.0 626.0Q636 621 627 621Q627 614 634.0 614.0Q641 614 641 607Q641 601 638.5 597.5Q636 594 638 586Q614 570 584.5 555.5Q555 541 522.5 525.0Q490 509 456.5 490.5Q423 472 390 448Q357 424 323.5 395.0Q290 366 259.0 333.5Q228 301 201.0 266.5Q174 232 155 199Q157 194 160.5 190.0Q164 186 166 181Q204 179 237.0 181.5Q270 184 303 177Q307 180 308.0 185.0Q309 190 314 192Q382 199 441.0 214.5Q500 230 561 246Q543 253 529 257Q523 263 529.5 267.5Q536 272 540 277Q524 286 513.5 301.0Q503 316 501 340Q508 346 508.0 354.0Q508 362 501 367Q496 369 495.0 367.0Q494 365 493.5 363.0Q493 361 491.5 359.0Q490 357 486 359Q487 370 491.0 377.0Q495 384 497 394L580 449Q593 439 612.0 428.0Q631 417 652.0 406.0Q673 395 695.0 383.5Q717 372 736 361Q754 353 767.0 341.5Q780 330 792.0 317.5Q804 305 816.0 293.0Q828 281 845 273Q843 257 847.0 247.0Q851 237 849 223Q830 189 803.0 165.5Q776 142 742.5 125.0Q709 108 671.0 96.5Q633 85 593.0 74.5Q553 64 512.5 52.5Q472 41 433 26Q416 26 404.0 25.0Q392 24 381.0 22.0Q370 20 359.0 18.0Q348 16 335 15Q330 16 328.5 13.0Q327 10 324 8Q304 5 288.0 5.0Q272 5 261 5Q247 5 232.0 1.0Q217 -3 204 -2Q114 2 63.0 62.0Q12 122 7 227Q8 232 5.0 233.5Q2 235 0 237Z"/></g>
    <g transform="translate(3121, 0)"><path d="M161 104Q150 64 141.5 43.5Q133 23 116 1Q103 3 98.0 -2.0Q93 -7 87 -11Q78 -13 74.0 -11.0Q70 -9 67.0 -6.5Q64 -4 59.5 -1.5Q55 1 46 1Q44 9 41.5 16.0Q39 23 28 21Q30 29 29.0 34.5Q28 40 26.5 44.5Q25 49 24.0 53.5Q23 58 25 65Q20 65 17.0 72.0Q14 79 10 86Q13 104 16.0 120.0Q19 136 23.5 150.0Q28 164 31.0 178.0Q34 192 28 207Q32 204 34.0 208.5Q36 213 37.0 220.5Q38 228 38.0 235.5Q38 243 37 248Q47 274 53.5 301.5Q60 329 65.5 356.0Q71 383 77.0 409.0Q83 435 93 457Q104 459 117.5 454.5Q131 450 134 443Q160 463 180.0 491.5Q200 520 221.0 547.0Q242 574 267.5 595.0Q293 616 332 620Q352 605 376.5 589.5Q401 574 417 549Q425 545 430.5 540.5Q436 536 444 531V519Q456 508 463.5 493.5Q471 479 477.0 462.5Q483 446 489.0 429.5Q495 413 503 398Q501 393 501.0 389.5Q501 386 502.5 382.0Q504 378 505.0 374.0Q506 370 505 363Q502 319 476.5 292.0Q451 265 415.0 247.5Q379 230 338.0 218.0Q297 206 264 192Q264 188 267.5 188.0Q271 188 270 183Q294 168 308.0 159.0Q322 150 334.5 144.0Q347 138 361.5 133.5Q376 129 402 123Q428 117 442.5 113.5Q457 110 469.0 107.5Q481 105 493.5 103.5Q506 102 529 100Q538 91 544.5 78.5Q551 66 553.0 53.5Q555 41 554.0 29.5Q553 18 547 11Q548 8 551.5 8.5Q555 9 559 8Q553 4 549.0 -2.0Q545 -8 541.0 -14.0Q537 -20 532.0 -24.5Q527 -29 518 -30Q487 -42 440.0 -31.5Q393 -21 321 7Q285 21 262.5 31.5Q240 42 223.5 52.5Q207 63 193.5 75.0Q180 87 161 104ZM304 447Q293 431 279.5 418.0Q266 405 253.5 391.5Q241 378 231.0 361.5Q221 345 217 323Q252 327 290.0 342.5Q328 358 362 372Q358 403 340.5 422.0Q323 441 304 447Z"/></g>
    <g transform="translate(3675, 0)"><path d="M529 84Q523 67 511.5 49.5Q500 32 484.5 18.5Q469 5 450.0 -4.0Q431 -13 410 -14Q397 -11 392.5 -7.5Q388 -4 383 -1Q380 1 377.5 2.5Q375 4 373 5L361 10L365 23Q367 31 364.0 35.5Q361 40 352 48Q349 51 346.0 54.0Q343 57 341 60L324 79L351 86Q376 93 384.5 104.0Q393 115 391 141Q371 145 357.5 142.0Q344 139 330 135Q312 130 293.5 126.5Q275 123 253 123Q245 123 238.0 123.5Q231 124 223 125L213 127Q211 138 209.0 139.5Q207 141 205 143Q200 148 194.5 156.5Q189 165 192 178Q187 187 186 196Q180 184 177 171L173 161L163 159Q161 158 160.0 154.5Q159 151 159 149L154 132Q152 130 150.0 128.5Q148 127 146 125Q144 116 141.0 107.0Q138 98 135 90Q130 77 126.5 64.5Q123 52 124 40L120 29Q115 23 109.0 19.5Q103 16 97 13Q95 11 91.5 9.5Q88 8 86 7L83 -4L71 -6Q60 -8 55.5 -9.0Q51 -10 45 -10L35 -9Q24 0 18.0 5.5Q12 11 4 16Q-5 28 -6.0 34.0Q-7 40 -8 45Q-10 51 -10.5 55.0Q-11 59 -13 61L-26 73L-15 82L-14 99Q6 150 28.5 197.0Q51 244 75 293Q83 309 90.5 325.0Q98 341 106 357Q105 360 105.0 364.0Q105 368 107 373Q118 390 125.0 403.5Q132 417 139 431Q147 448 155.5 464.0Q164 480 177 497L193 504Q196 505 200.0 506.5Q204 508 209 508L224 506Q252 519 273.0 542.5Q294 566 316 599L326 613L339 605Q344 602 353.0 599.5Q362 597 372 594Q390 590 406.0 585.0Q422 580 432 570Q438 554 439.0 546.0Q440 538 442 530Q445 513 447.5 496.0Q450 479 451 458Q456 441 459.5 424.5Q463 408 466 391Q471 367 476.0 344.5Q481 322 489 302Q497 302 499 301Q504 303 509.5 304.0Q515 305 522 306L533 307L537 297Q538 292 547 287Q560 286 566.0 281.5Q572 277 577 272Q581 268 585 266L600 260L592 245Q582 227 563.5 210.5Q545 194 522 183Q523 177 523.5 171.5Q524 166 526 160Q529 143 531.0 125.0Q533 107 531 88ZM240 257Q270 259 294.5 261.5Q319 264 349 270Q342 300 334.0 332.5Q326 365 317 397L311 387Q291 366 272.5 340.0Q254 314 241 291Q235 282 229.0 273.0Q223 264 218 255Q224 256 229.5 256.0Q235 256 240 257Z"/></g>
    <g transform="translate(4270, 0)"><path d="M493 270Q492 265 491.0 261.5Q490 258 489.0 255.0Q488 252 488.0 247.5Q488 243 488 236Q458 183 412.5 147.0Q367 111 312.5 83.5Q258 56 199.0 33.5Q140 11 84 -15Q60 -9 47.5 5.0Q35 19 28.5 37.5Q22 56 19.5 78.5Q17 101 15 125Q18 136 23.5 143.5Q29 151 29 165Q37 191 45.0 216.0Q53 241 55 267Q58 275 66 278Q71 326 66.5 375.5Q62 425 50 468Q51 478 52.5 482.5Q54 487 52 489Q51 497 57.5 497.0Q64 497 71 497Q71 512 65.5 527.0Q60 542 55 561Q62 576 64.0 590.5Q66 605 73 616Q127 599 176.5 575.0Q226 551 274 540Q310 514 348.0 488.5Q386 463 417.0 432.5Q448 402 469.0 363.0Q490 324 493 270ZM256 215Q277 223 297.5 232.0Q318 241 335.5 252.5Q353 264 367.0 279.0Q381 294 390 315Q384 327 374.0 336.5Q364 346 354.0 354.5Q344 363 334.5 372.0Q325 381 319 394Q306 396 296.0 401.5Q286 407 276.5 412.5Q267 418 256.5 423.0Q246 428 232 429Q210 440 192.5 445.0Q175 450 166 458Q159 458 155 455Q165 417 170.0 383.5Q175 350 175.5 316.5Q176 283 172.0 248.0Q168 213 161 172Q171 173 179.5 176.5Q188 180 196.5 184.0Q205 188 214.5 191.5Q224 195 237 196Q240 202 245.5 206.0Q251 210 256 215Z"/></g>
    <g transform="translate(4779, 0)"><path d="M558 563Q559 556 558.5 552.5Q558 549 557.5 546.0Q557 543 557.0 539.5Q557 536 559 529Q538 495 510.5 482.5Q483 470 451.0 464.5Q419 459 385.5 453.0Q352 447 319 427Q306 432 295.5 427.0Q285 422 265 424Q259 418 250.0 415.5Q241 413 232 410Q236 401 235.5 391.5Q235 382 238 376Q273 373 315.5 377.0Q358 381 399 382Q400 377 398.0 375.5Q396 374 397 370Q404 365 411.0 357.5Q418 350 425.0 343.0Q432 336 439.5 331.5Q447 327 457 328Q461 320 462.5 310.5Q464 301 460 291Q444 280 428.0 268.5Q412 257 394.5 248.0Q377 239 357.5 233.5Q338 228 314 229Q309 229 306.5 229.0Q304 229 300 232Q292 227 277.5 229.0Q263 231 255 226Q244 231 228.5 230.5Q213 230 201 234Q185 213 172.0 189.0Q159 165 149 138Q183 133 205.5 134.0Q228 135 248.0 137.5Q268 140 289.0 142.5Q310 145 342 144Q362 155 389.5 158.5Q417 162 440 170Q448 167 454.0 159.5Q460 152 465.5 145.5Q471 139 477.0 134.0Q483 129 492 130Q496 126 497.5 120.5Q499 115 500.0 110.0Q501 105 503.5 101.5Q506 98 512 99Q497 66 477.5 48.5Q458 31 433.0 22.0Q408 13 377.5 8.0Q347 3 310 -4Q301 -6 295.0 -3.5Q289 -1 281 -1Q258 -6 226.0 -10.0Q194 -14 161.0 -13.0Q128 -12 98.0 -4.5Q68 3 49 22Q41 29 38.5 38.5Q36 48 25 53Q24 66 21.0 82.0Q18 98 15.0 115.5Q12 133 10.5 150.0Q9 167 12 181Q15 196 24.5 208.0Q34 220 31 234Q36 235 37.0 239.5Q38 244 45 243Q51 261 58.0 277.0Q65 293 72.5 308.0Q80 323 87.5 338.5Q95 354 102 373Q88 386 81.5 401.5Q75 417 72.0 432.5Q69 448 67.0 464.5Q65 481 60 498Q70 513 84.5 522.5Q99 532 116.0 538.0Q133 544 153.0 548.0Q173 552 195 557Q235 570 266.5 577.0Q298 584 328.5 588.5Q359 593 392.0 597.0Q425 601 467 609Q476 600 484 600Q488 609 493.5 605.5Q499 602 498 611Q508 594 523.5 582.5Q539 571 558 563Z"/></g>
    <g transform="translate(5692, 0)"><path d="M22 564Q21 572 18.5 578.5Q16 585 13 593Q8 605 4.0 619.0Q0 633 0 652Q2 662 5.0 666.5Q8 671 11 674L15 692H30Q38 691 46.5 691.0Q55 691 63 691Q101 691 141.0 694.0Q181 697 223 701Q269 707 322 710Q327 721 328.5 724.0Q330 727 332 731L343 737Q366 738 375.0 731.5Q384 725 389 719Q415 721 442.0 724.5Q469 728 498 732Q538 737 579.0 742.0Q620 747 659 747Q676 747 691.0 746.0Q706 745 720 743L732 734Q736 727 742.0 721.0Q748 715 756 709Q771 697 785.5 679.0Q800 661 796 626L791 616Q787 612 781 608L771 595H760Q750 595 745.0 593.5Q740 592 733 589Q729 587 724.0 585.5Q719 584 713 582Q702 583 696.0 583.0Q690 583 682 583Q652 583 617.0 579.0Q582 575 549 570Q525 567 503.0 564.5Q481 562 463 560Q453 534 445.0 514.0Q437 494 428 474Q419 454 411.0 433.5Q403 413 396 388Q384 370 376.0 353.5Q368 337 363 316Q348 299 341.5 279.0Q335 259 330 245L326 230Q319 223 317.5 219.0Q316 215 312 210Q309 197 304 185Q302 180 300.0 174.5Q298 169 299 166Q297 155 293 149Q293 143 292.0 137.0Q291 131 290 125Q288 118 287.0 112.5Q286 107 288 102Q291 98 294.0 94.0Q297 90 299 84Q301 82 304.0 81.0Q307 80 309 78Q317 71 324 70L334 58Q340 22 323 2Q305 -21 263 -21L249 -20Q242 -13 241 -11Q232 -7 226.0 -4.5Q220 -2 215 5Q213 7 210.0 7.5Q207 8 205 10Q195 13 189 17L178 23Q179 33 179 37Q171 48 166.5 61.0Q162 74 159 88Q156 99 153.5 108.0Q151 117 146 124Q144 194 159.0 241.5Q174 289 192 334Q202 358 211.0 383.0Q220 408 227 434L238 445Q245 451 247 452Q247 465 252.0 477.5Q257 490 263 503Q267 511 270.5 519.0Q274 527 275 533Q268 533 262.5 532.5Q257 532 251 531Q238 528 226 528Q217 528 213 529Q205 525 198.0 524.5Q191 524 184 524H172H160Q148 524 141 521Q127 521 123.0 521.0Q119 521 114 521H102H90Q82 521 72.0 522.5Q62 524 51 530L44 538Q38 549 33 550L22 553Z"/></g>
    <g transform="translate(6314, 0)"><path d="M212 70Q217 40 208.5 23.0Q200 6 184.5 -2.5Q169 -11 149.0 -12.0Q129 -13 111 -10Q101 4 93.0 25.0Q85 46 78.0 68.5Q71 91 65.5 113.0Q60 135 56 152Q61 164 62.5 179.5Q64 195 64.5 211.0Q65 227 65.5 243.5Q66 260 68 275Q75 317 88.5 355.0Q102 393 110 434Q112 443 108.5 451.0Q105 459 107 466Q108 470 113.0 471.5Q118 473 119 478Q122 489 120.5 496.0Q119 503 124 513Q129 521 136.5 536.5Q144 552 142 569Q151 575 159.0 583.0Q167 591 175.5 597.5Q184 604 194.5 609.0Q205 614 220 614Q228 604 230.5 592.0Q233 580 235.5 568.0Q238 556 243.0 545.5Q248 535 260 529Q260 521 260.0 509.0Q260 497 261.0 485.5Q262 474 265.5 464.5Q269 455 277 452Q259 404 243.5 357.0Q228 310 218.0 262.5Q208 215 205.5 167.0Q203 119 212 70Z"/></g>
    <g transform="translate(6642, 0)"><path d="M377 620Q419 615 452.0 603.0Q485 591 508 571Q524 546 538.5 517.0Q553 488 560.5 456.5Q568 425 567.5 392.0Q567 359 553 325Q524 289 482.5 266.5Q441 244 393.0 230.0Q345 216 293.5 206.0Q242 196 193 186Q194 163 193.5 137.5Q193 112 188.5 86.5Q184 61 175.0 37.0Q166 13 151 -7Q134 -7 116.0 -11.5Q98 -16 84 -19Q77 -15 71.5 -11.5Q66 -8 56 -7Q58 3 51.0 13.5Q44 24 37.0 35.0Q30 46 27.5 56.0Q25 66 37 75Q30 82 30 93Q37 105 42.5 126.0Q48 147 51.5 167.5Q55 188 53.0 205.0Q51 222 33 230Q34 232 37.0 232.0Q40 232 43 233Q35 239 33.5 250.0Q32 261 26 269Q28 274 29.0 278.0Q30 282 36 281Q33 299 36.5 315.0Q40 331 47.0 345.5Q54 360 64.0 374.0Q74 388 83 402Q90 403 91.5 400.0Q93 397 98 401Q111 411 116.0 422.0Q121 433 121 447Q128 468 138.0 489.5Q148 511 160.0 529.0Q172 547 186.5 561.0Q201 575 217 582Q229 592 247.0 600.5Q265 609 286.0 613.5Q307 618 328.5 618.5Q350 619 368 614Q373 612 373.5 616.0Q374 620 377 620ZM336 381Q361 392 389.5 398.5Q418 405 437 423Q425 434 402.0 442.5Q379 451 352.0 453.0Q325 455 297.5 448.5Q270 442 250 424Q244 406 240.0 395.5Q236 385 229 370Q231 365 235.5 362.5Q240 360 242 355Q265 367 288.5 368.5Q312 370 336 381Z"/></g>
  </g>
</svg>