<?xml version="1.0" encoding="UTF-8"?>
<svg xmlns="http://www.w3.org/2000/svg" viewBox="0 0 102.2 18" 
     width="102.2" height="18">
  <g transform="translate(0, 15.299999999999999) scale(0.017578, -0.017578)" fill="#FFFFFF">
    <g transform="translate(0, 0)"><path d="M98 -11Q69 -4 53.5 12.5Q38 29 30.5 51.5Q23 74 20.5 101.0Q18 128 15 157Q19 170 25.5 179.0Q32 188 31 204Q42 236 51.0 266.0Q60 296 63 328Q69 337 75 340Q83 397 77.0 457.0Q71 517 57 568Q58 579 60.0 584.5Q62 590 60 594Q58 603 66.0 603.0Q74 603 82 603Q82 621 75.5 638.5Q69 656 63 679Q71 697 74.0 714.0Q77 731 85 745Q117 735 148.0 722.0Q179 709 209.0 696.5Q239 684 268.0 672.5Q297 661 325 654Q368 623 413.5 592.5Q459 562 496.5 525.5Q534 489 559.0 442.0Q584 395 588 331Q586 325 585.0 321.0Q584 317 583.0 313.0Q582 309 582.0 304.0Q582 299 582 290Q546 227 491.0 184.0Q436 141 371.0 108.0Q306 75 235.5 47.5Q165 20 98 -11ZM196 556Q187 556 183 552Q195 507 201.0 467.0Q207 427 207.5 387.0Q208 347 203.0 305.0Q198 263 189 214Q202 215 212.0 219.0Q222 223 232.5 228.0Q243 233 254.5 237.0Q266 241 281 242Q285 250 291.5 254.5Q298 259 303 264Q328 274 353.0 285.0Q378 296 399.0 310.0Q420 324 437.0 342.0Q454 360 465 385Q457 400 445.5 410.5Q434 421 421.5 431.5Q409 442 397.5 453.5Q386 465 379 480Q363 482 351.0 488.5Q339 495 328.0 501.5Q317 508 304.5 514.0Q292 520 275 521Q249 535 228.0 540.5Q207 546 196 556Z"/></g>
    <g transform="translate(603, 0)"><path d="M241 -4Q197 -10 161.0 0.0Q125 10 96.5 31.0Q68 52 47.5 81.0Q27 110 14 143Q5 211 19.0 266.5Q33 322 60.0 369.0Q87 416 121.5 457.0Q156 498 188 536Q195 533 199.5 536.0Q204 539 207.5 544.0Q211 549 215.5 554.0Q220 559 226 561Q230 570 236.5 576.0Q243 582 250.5 587.5Q258 593 264.5 599.0Q271 605 276 614Q286 616 293.5 621.0Q301 626 307.5 632.0Q314 638 321.0 643.0Q328 648 338 651V664Q360 674 370.0 686.0Q380 698 394 717Q405 718 411.5 718.0Q418 718 432 720Q441 737 449.0 745.0Q457 753 472 763Q487 755 504.0 753.5Q521 752 535 738Q536 726 542.0 719.5Q548 713 555.0 707.5Q562 702 569.0 696.0Q576 690 578 679Q583 679 584.5 681.0Q586 683 591 682Q593 674 595.0 669.0Q597 664 599.5 660.0Q602 656 604.5 651.0Q607 646 609 639Q604 627 600.0 613.5Q596 600 584 595Q584 587 590.0 586.5Q596 586 597 579Q598 570 594 564Q622 517 645.0 465.5Q668 414 697 367Q695 353 698.5 339.5Q702 326 707.5 313.0Q713 300 718.0 287.0Q723 274 725 261Q727 244 725.0 224.5Q723 205 717.0 187.0Q711 169 701.0 153.5Q691 138 678 130Q662 110 638.0 97.5Q614 85 594 68Q580 60 564.0 56.5Q548 53 531 49Q518 41 500.0 33.5Q482 26 463.0 20.0Q444 14 425.0 10.5Q406 7 391 9Q355 -4 321.0 -9.0Q287 -14 241 -4ZM254 360Q244 337 230.5 318.5Q217 300 204.0 281.0Q191 262 181.5 240.5Q172 219 171 190Q191 173 218.5 169.5Q246 166 275.0 168.5Q304 171 333.0 176.0Q362 181 385 181Q385 190 393 190Q435 194 471.0 213.5Q507 233 546 253Q551 265 559.0 274.0Q567 283 568 300Q563 309 561.5 315.0Q560 321 560 333Q534 369 515.0 411.5Q496 454 471 492Q469 487 463.0 482.0Q457 477 450 484Q447 474 441.0 470.5Q435 467 427.5 467.0Q420 467 412.5 470.0Q405 473 399 478Q364 450 329.5 424.0Q295 398 267 363Q262 360 261.0 361.0Q260 362 254 360Z"/></g>
    <g transform="translate(1365, 0)"><path d="M78 71Q73 82 68.0 92.0Q63 102 58 110Q46 134 37.0 153.0Q28 172 20 197Q23 214 30.5 254.0Q38 294 48.0 341.5Q58 389 69.5 438.0Q81 487 93 522Q104 553 117.5 588.0Q131 623 147.5 652.5Q164 682 183.0 703.0Q202 724 224 728Q230 720 237.0 715.5Q244 711 250 709Q267 685 283.0 668.5Q299 652 321 636Q315 606 303.5 569.5Q292 533 279.5 496.0Q267 459 255.0 424.5Q243 390 236 365Q230 345 224 319Q219 297 213.5 266.0Q208 235 203 198Q217 202 234.5 214.0Q252 226 267 239Q285 254 302 271Q325 294 341.0 313.0Q357 332 370.5 352.5Q384 373 398.5 397.5Q413 422 433 456Q451 485 470.5 518.0Q490 551 510.0 581.0Q530 611 549.0 636.5Q568 662 584 676Q595 665 609.5 653.0Q624 641 641 636Q648 625 654.5 616.5Q661 608 667 600Q675 589 681.5 580.0Q688 571 693 560Q692 552 689.5 539.0Q687 526 684.0 510.5Q681 495 677.5 479.0Q674 463 671 448Q661 403 656.0 380.0Q651 357 649.0 344.0Q647 331 646.5 322.0Q646 313 646 297Q646 285 648 273Q650 262 652.5 250.5Q655 239 662 229L710 266Q730 281 748.5 308.5Q767 336 784.5 371.5Q802 407 819.0 448.5Q836 490 853 534Q865 566 877.5 597.5Q890 629 903.0 657.5Q916 686 928.5 709.5Q941 733 953 749Q980 732 999.5 715.0Q1019 698 1033.5 677.5Q1048 657 1056.5 630.5Q1065 604 1069 568Q1047 526 1028.0 482.0Q1009 438 990 393Q966 335 940.5 277.5Q915 220 884.0 168.0Q853 116 814.5 72.5Q776 29 726 -1Q712 2 702 2Q691 2 683.5 -1.0Q676 -4 670 -9Q629 10 604.0 47.5Q579 85 555 131Q552 138 548.5 144.5Q545 151 541 158L524 189L514 208L500 195L479 176L467 164Q436 135 404.0 107.5Q372 80 337.0 57.5Q302 35 262.5 21.0Q223 7 178 6Q170 10 163.5 13.0Q157 16 151 19Q128 30 113.0 40.0Q98 50 78 71Z"/></g>
    <g transform="translate(2383, 0)"><path d="M181 94Q171 86 169.0 73.5Q167 61 164.0 49.0Q161 37 153.5 28.5Q146 20 127 21Q123 16 125.5 15.0Q128 14 130 6Q116 8 110.0 4.0Q104 0 95 -2Q72 5 56.5 23.5Q41 42 29.5 64.0Q18 86 9.5 109.0Q1 132 -8 149Q-8 153 -4.5 152.5Q-1 152 2 152Q-3 162 -5.5 174.5Q-8 187 -15 195Q14 257 47.0 324.5Q80 392 113.5 461.5Q147 531 180.5 601.5Q214 672 245 740Q273 730 299.5 716.5Q326 703 348.0 685.0Q370 667 385.5 643.5Q401 620 406 590Q404 584 401.0 586.0Q398 588 396 584Q401 578 401.5 575.5Q402 573 401.0 570.5Q400 568 400.0 564.0Q400 560 405 553Q400 554 398.0 551.5Q396 549 391 551Q396 537 394.0 529.0Q392 521 388.0 514.5Q384 508 381.5 500.5Q379 493 383 480Q379 480 377.5 478.5Q376 477 375.0 475.0Q374 473 372.5 471.5Q371 470 367 471Q370 445 369.0 418.5Q368 392 367.0 364.5Q366 337 367.0 308.0Q368 279 375 248Q418 273 444.5 313.0Q471 353 486.5 402.0Q502 451 510.5 507.0Q519 563 528 621Q539 632 545.5 648.0Q552 664 556.5 681.0Q561 698 565.5 715.5Q570 733 578 747Q596 745 608.5 736.5Q621 728 632.0 717.5Q643 707 655.0 698.0Q667 689 685 686Q699 666 711.0 647.5Q723 629 727 606Q721 596 718.0 584.0Q715 572 711.5 560.0Q708 548 702.0 538.0Q696 528 685 521Q682 491 676.0 465.0Q670 439 665.0 414.0Q660 389 656.0 362.0Q652 335 653 303Q644 274 633.0 243.5Q622 213 617 187Q598 172 587.0 150.0Q576 128 564 106Q559 102 558.0 104.5Q557 107 549 108Q550 99 545.5 96.5Q541 94 546 82Q529 74 516.0 61.0Q503 48 487.5 37.0Q472 26 451.5 22.5Q431 19 398 31Q349 67 310.0 114.0Q271 161 248 225Q238 222 233.0 212.0Q228 202 224.0 191.0Q220 180 216.0 171.0Q212 162 204 162Q202 153 196.5 145.5Q191 138 186.0 130.5Q181 123 178.5 114.0Q176 105 181 94Z"/></g>
    <g transform="translate(3084, 0)"><path d="M57 37Q53 41 50.0 46.5Q47 52 45 61Q31 78 23.0 100.0Q15 122 12.0 145.5Q9 169 11.0 193.0Q13 217 18 238Q21 248 23 259Q28 278 33.0 296.5Q38 315 48 327Q44 338 49.0 351.0Q54 364 59 375Q61 378 62.0 380.5Q63 383 64 385Q76 420 87.5 452.5Q99 485 110 515Q130 570 148.5 623.0Q167 676 182 736Q190 742 196 744Q198 745 201.0 746.0Q204 747 208 747Q229 736 257.5 726.5Q286 717 306 717L323 702Q336 687 345.5 670.5Q355 654 351 628Q345 619 341 617Q335 594 328.0 576.5Q321 559 314 543Q306 525 299.0 507.0Q292 489 287 463Q281 456 279.5 451.0Q278 446 276 441Q274 435 271.0 428.5Q268 422 262 417Q258 386 250.0 366.5Q242 347 234 328Q220 293 208.0 258.5Q196 224 194 180Q206 183 216 183Q229 183 241 179Q277 197 319.5 201.0Q362 205 404 206Q439 206 469 209Q479 202 482.0 201.5Q485 201 492 201Q495 201 498.0 201.0Q501 201 506 200Q520 186 533.0 180.5Q546 175 561 170Q574 165 586.5 159.5Q599 154 611 145L620 94Q628 83 627 79Q627 71 623 65L625 52Q606 48 600.0 43.5Q594 39 587 32Q576 31 566 31Q546 31 525 25Q495 36 459 36Q445 36 430.5 35.0Q416 34 402 32Q387 30 372.0 28.5Q357 27 342 27Q330 25 325.0 24.0Q320 23 315 21Q281 10 241.5 -1.0Q202 -12 162 -12Q103 -12 67 18Q63 27 61.0 30.0Q59 33 57 37Z"/></g>
    <g transform="translate(3732, 0)"><path d="M241 -4Q197 -10 161.0 0.0Q125 10 96.5 31.0Q68 52 47.5 81.0Q27 110 14 143Q5 211 19.0 266.5Q33 322 60.0 369.0Q87 416 121.5 457.0Q156 498 188 536Q195 533 199.5 536.0Q204 539 207.5 544.0Q211 549 215.5 554.0Q220 559 226 561Q230 570 236.5 576.0Q243 582 250.5 587.5Q258 593 264.5 599.0Q271 605 276 614Q286 616 293.5 621.0Q301 626 307.5 632.0Q314 638 321.0 643.0Q328 648 338 651V664Q360 674 370.0 686.0Q380 698 394 717Q405 718 411.5 718.0Q418 718 432 720Q441 737 449.0 745.0Q457 753 472 763Q487 755 504.0 753.5Q521 752 535 738Q536 726 542.0 719.5Q548 713 555.0 707.5Q562 702 569.0 696.0Q576 690 578 679Q583 679 584.5 681.0Q586 683 591 682Q593 674 595.0 669.0Q597 664 599.5 660.0Q602 656 604.5 651.0Q607 646 609 639Q604 627 600.0 613.5Q596 600 584 595Q584 587 590.0 586.5Q596 586 597 579Q598 570 594 564Q622 517 645.0 465.5Q668 414 697 367Q695 353 698.5 339.5Q702 326 707.5 313.0Q713 300 718.0 287.0Q723 274 725 261Q727 244 725.0 224.5Q723 205 717.0 187.0Q711 169 701.0 153.5Q691 138 678 130Q662 110 638.0 97.5Q614 85 594 68Q580 60 564.0 56.5Q548 53 531 49Q518 41 500.0 33.5Q482 26 463.0 20.0Q444 14 425.0 10.5Q406 7 391 9Q355 -4 321.0 -9.0Q287 -14 241 -4ZM254 360Q244 337 230.5 318.5Q217 300 204.0 281.0Q191 262 181.5 240.5Q172 219 171 190Q191 173 218.5 169.5Q246 166 275.0 168.5Q304 171 333.0 176.0Q362 181 385 181Q385 190 393 190Q435 194 471.0 213.5Q507 233 546 253Q551 265 559.0 274.0Q567 283 568 300Q563 309 561.5 315.0Q560 321 560 333Q534 369 515.0 411.5Q496 454 471 492Q469 487 463.0 482.0Q457 477 450 484Q447 474 441.0 470.5Q435 467 427.5 467.0Q420 467 412.5 470.0Q405 473 399 478Q364 450 329.5 424.0Q295 398 267 363Q262 360 261.0 361.0Q260 362 254 360Z"/></g>
    <g transform="translate(4494, 0)"><path d="M-26 95 -13 105 -12 126Q13 187 39.5 243.0Q66 299 95 358Q104 377 113.5 396.0Q123 415 132 435Q131 439 131.0 443.5Q131 448 133 454Q147 474 155.5 490.0Q164 506 172 523Q181 543 191.5 563.0Q202 583 218 602L225 612L236 611Q240 613 244.5 614.5Q249 616 256 616L274 613Q307 628 332.5 656.5Q358 685 384 725L396 742L412 732Q417 729 428.0 726.0Q439 723 451 719Q472 714 492.0 707.5Q512 701 523 690L528 681Q530 670 531.5 661.0Q533 652 535 643Q539 622 542.0 601.5Q545 581 546 556Q551 536 555.5 515.5Q560 495 564 475Q569 446 575.0 419.5Q581 393 591 369Q601 369 603 368Q615 373 631 374L644 375L648 363Q650 360 653.0 357.0Q656 354 660 351Q676 350 683.5 344.5Q691 339 696 334Q698 332 701.0 329.5Q704 327 706 326L724 319L714 300Q703 279 680.5 259.0Q658 239 630 226Q632 219 632.5 213.0Q633 207 635 199Q639 179 641.5 157.5Q644 136 641 113Q631 87 617.5 66.5Q604 46 585.5 29.5Q567 13 544.0 2.5Q521 -8 496 -9Q482 -6 475.5 -2.0Q469 2 464 6Q456 12 451 14L438 20L442 35Q445 43 441.5 49.0Q438 55 427 65Q423 68 420.0 71.5Q417 75 413 79L393 102L426 111Q456 119 466.0 131.5Q476 144 474 176Q449 181 433.0 177.5Q417 174 401 170Q378 164 356.0 159.5Q334 155 308 155Q291 155 272 158L261 159L258 170Q258 172 255.5 174.5Q253 177 251 179Q246 185 239.0 195.0Q232 205 236 220Q229 231 228 243Q224 235 221.5 227.5Q219 220 217 213L213 200L200 198Q198 196 196.5 192.0Q195 188 196 186L200 175L190 166Q188 163 185.0 161.0Q182 159 180 157Q178 146 174.5 136.0Q171 126 167 116Q162 100 157.5 85.0Q153 70 153 55L149 42Q144 34 136.5 30.0Q129 26 122 23Q112 19 108 15L105 2L90 0Q77 -3 71.5 -4.0Q66 -5 59 -5L46 -4Q34 8 26.5 14.5Q19 21 9 26L3 34Q-1 42 -2.0 48.5Q-3 55 -5 62Q-7 75 -11 80ZM293 355Q279 335 266 313Q273 314 279.5 314.0Q286 314 293 315Q328 317 358.0 320.0Q388 323 423 330Q415 367 405.5 405.5Q396 444 385 483L380 473Q355 446 332.0 415.0Q309 384 294 356Z"/></g>
    <g transform="translate(5213, 0)"><path d="M98 -11Q69 -4 53.5 12.5Q38 29 30.5 51.5Q23 74 20.5 101.0Q18 128 15 157Q19 170 25.5 179.0Q32 188 31 204Q42 236 51.0 266.0Q60 296 63 328Q69 337 75 340Q83 397 77.0 457.0Q71 517 57 568Q58 579 60.0 584.5Q62 590 60 594Q58 603 66.0 603.0Q74 603 82 603Q82 621 75.5 638.5Q69 656 63 679Q71 697 74.0 714.0Q77 731 85 745Q117 735 148.0 722.0Q179 709 209.0 696.5Q239 684 268.0 672.5Q297 661 325 654Q368 623 413.5 592.5Q459 562 496.5 525.5Q534 489 559.0 442.0Q584 395 588 331Q586 325 585.0 321.0Q584 317 583.0 313.0Q582 309 582.0 304.0Q582 299 582 290Q546 227 491.0 184.0Q436 141 371.0 108.0Q306 75 235.5 47.5Q165 20 98 -11ZM196 556Q187 556 183 552Q195 507 201.0 467.0Q207 427 207.5 387.0Q208 347 203.0 305.0Q198 263 189 214Q202 215 212.0 219.0Q222 223 232.5 228.0Q243 233 254.5 237.0Q266 241 281 242Q285 250 291.5 254.5Q298 259 303 264Q328 274 353.0 285.0Q378 296 399.0 310.0Q420 324 437.0 342.0Q454 360 465 385Q457 400 445.5 410.5Q434 421 421.5 431.5Q409 442 397.5 453.5Q386 465 379 480Q363 482 351.0 488.5Q339 495 328.0 501.5Q317 508 304.5 514.0Q292 520 275 521Q249 535 228.0 540.5Q207 546 196 556Z"/></g>
  </g>
</svg>