<?xml version="1.0" encoding="UTF-8"?>
<svg xmlns="http://www.w3.org/2000/svg" viewBox="0 0 105.2 18" 
     width="105.2" height="18">
  <g transform="translate(0, 15.3) scale(0.017578, -0.017578)" fill="#FFFFFF">
    <g transform="translate(0, 0)"><path d="M56 34Q48 42 44.5 53.0Q41 64 28 71Q26 86 22.5 105.5Q19 125 15.5 145.5Q12 166 10.5 186.5Q9 207 12 224Q14 233 18.5 241.0Q23 249 27.5 256.5Q32 264 34.5 272.0Q37 280 35 288Q41 289 42.5 294.5Q44 300 52 298Q59 320 67.0 339.0Q75 358 84.0 376.0Q93 394 102.5 412.5Q112 431 120 454Q103 470 95.5 488.5Q88 507 84.0 526.0Q80 545 78.0 564.5Q76 584 70 604Q82 622 99.0 633.5Q116 645 136.5 652.5Q157 660 181.0 664.5Q205 669 232 675Q280 690 318.0 698.5Q356 707 392.0 712.5Q428 718 467.0 722.5Q506 727 557 736Q558 733 560.5 733.0Q563 733 567 733Q570 726 578 726Q578 729 577.5 731.5Q577 734 577 736Q579 736 582.5 735.0Q586 734 588.5 733.0Q591 732 593.0 733.5Q595 735 594 740Q606 719 625.0 705.5Q644 692 667 682Q668 673 667.5 669.0Q667 665 666.0 661.5Q665 658 665.0 653.5Q665 649 667 641Q651 614 630.5 599.0Q610 584 587.0 576.0Q564 568 538.5 564.0Q513 560 486.5 555.5Q460 551 433.0 543.0Q406 535 380 519Q372 522 365.5 521.5Q359 521 352.0 519.0Q345 517 336.5 515.0Q328 513 316 515Q308 508 297.5 505.0Q287 502 276 499Q281 488 280.5 477.0Q280 466 283 458Q325 454 376.0 458.5Q427 463 476 465Q477 460 475.0 458.0Q473 456 473 451Q482 445 490.0 436.0Q498 427 506.5 418.5Q515 410 524.0 404.5Q533 399 545 400Q550 390 552.0 379.0Q554 368 549 356Q529 343 510.0 329.5Q491 316 470.5 305.0Q450 294 426.0 287.0Q402 280 374 281Q369 281 365.5 281.0Q362 281 357 285Q347 280 330.5 281.5Q314 283 303 278Q289 283 270.5 283.0Q252 283 238 288Q220 262 204.0 233.5Q188 205 176 173Q217 167 244.0 168.0Q271 169 295.0 172.0Q319 175 344.5 178.0Q370 181 407 180Q432 192 464.5 196.5Q497 201 525 210Q535 207 542.0 198.5Q549 190 555.5 181.5Q562 173 569.0 167.0Q576 161 587 163Q592 158 593.5 151.0Q595 144 596.5 138.0Q598 132 601.0 128.5Q604 125 612 126Q593 87 569.5 66.0Q546 45 516.5 33.5Q487 22 450.5 16.5Q414 11 369 3Q358 1 350.5 3.5Q343 6 335 6Q307 1 268.5 -4.0Q230 -9 191.0 -8.0Q152 -7 116.0 2.0Q80 11 56 34Z"/></g>
    <g transform="translate(642, 0)"><path d="M161 104Q150 64 141.5 43.5Q133 23 116 1Q103 3 98.0 -2.0Q93 -7 87 -11Q78 -13 74.0 -11.0Q70 -9 67.0 -6.5Q64 -4 59.5 -1.5Q55 1 46 1Q44 9 41.5 16.0Q39 23 28 21Q30 29 29.0 34.5Q28 40 26.5 44.5Q25 49 24.0 53.5Q23 58 25 65Q20 65 17.0 72.0Q14 79 10 86Q13 104 16.0 120.0Q19 136 23.5 150.0Q28 164 31.0 178.0Q34 192 28 207Q32 204 34.0 208.5Q36 213 37.0 220.5Q38 228 38.0 235.5Q38 243 37 248Q47 274 53.5 301.5Q60 329 65.5 356.0Q71 383 77.0 409.0Q83 435 93 457Q104 459 117.5 454.5Q131 450 134 443Q160 463 180.0 491.5Q200 520 221.0 547.0Q242 574 267.5 595.0Q293 616 332 620Q352 605 376.5 589.5Q401 574 417 549Q425 545 430.5 540.5Q436 536 444 531V519Q456 508 463.5 493.5Q471 479 477.0 462.5Q483 446 489.0 429.5Q495 413 503 398Q501 393 501.0 389.5Q501 386 502.5 382.0Q504 378 505.0 374.0Q506 370 505 363Q502 319 476.5 292.0Q451 265 415.0 247.5Q379 230 338.0 218.0Q297 206 264 192Q264 188 267.5 188.0Q271 188 270 183Q294 168 308.0 159.0Q322 150 334.5 144.0Q347 138 361.5 133.5Q376 129 402 123Q428 117 442.5 113.5Q457 110 469.0 107.5Q481 105 493.5 103.5Q506 102 529 100Q538 91 544.5 78.5Q551 66 553.0 53.5Q555 41 554.0 29.5Q553 18 547 11Q548 8 551.5 8.5Q555 9 559 8Q553 4 549.0 -2.0Q545 -8 541.0 -14.0Q537 -20 532.0 -24.5Q527 -29 518 -30Q487 -42 440.0 -31.5Q393 -21 321 7Q285 21 262.5 31.5Q240 42 223.5 52.5Q207 63 193.5 75.0Q180 87 161 104ZM304 447Q293 431 279.5 418.0Q266 405 253.5 391.5Q241 378 231.0 361.5Q221 345 217 323Q252 327 290.0 342.5Q328 358 362 372Q358 403 340.5 422.0Q323 441 304 447Z"/></g>
    <g transform="translate(1196, 0)"><path d="M161 104Q150 64 141.5 43.5Q133 23 116 1Q103 3 98.0 -2.0Q93 -7 87 -11Q78 -13 74.0 -11.0Q70 -9 67.0 -6.5Q64 -4 59.5 -1.5Q55 1 46 1Q44 9 41.5 16.0Q39 23 28 21Q30 29 29.0 34.5Q28 40 26.5 44.5Q25 49 24.0 53.5Q23 58 25 65Q20 65 17.0 72.0Q14 79 10 86Q13 104 16.0 120.0Q19 136 23.5 150.0Q28 164 31.0 178.0Q34 192 28 207Q32 204 34.0 208.5Q36 213 37.0 220.5Q38 228 38.0 235.5Q38 243 37 248Q47 274 53.5 301.5Q60 329 65.5 356.0Q71 383 77.0 409.0Q83 435 93 457Q104 459 117.5 454.5Q131 450 134 443Q160 463 180.0 491.5Q200 520 221.0 547.0Q242 574 267.5 595.0Q293 616 332 620Q352 605 376.5 589.5Q401 574 417 549Q425 545 430.5 540.5Q436 536 444 531V519Q456 508 463.5 493.5Q471 479 477.0 462.5Q483 446 489.0 429.5Q495 413 503 398Q501 393 501.0 389.5Q501 386 502.5 382.0Q504 378 505.0 374.0Q506 370 505 363Q502 319 476.5 292.0Q451 265 415.0 247.5Q379 230 338.0 218.0Q297 206 264 192Q264 188 267.5 188.0Q271 188 270 183Q294 168 308.0 159.0Q322 150 334.5 144.0Q347 138 361.5 133.5Q376 129 402 123Q428 117 442.5 113.5Q457 110 469.0 107.5Q481 105 493.5 103.5Q506 102 529 100Q538 91 544.5 78.5Q551 66 553.0 53.5Q555 41 554.0 29.5Q553 18 547 11Q548 8 551.5 8.5Q555 9 559 8Q553 4 549.0 -2.0Q545 -8 541.0 -14.0Q537 -20 532.0 -24.5Q527 -29 518 -30Q487 -42 440.0 -31.5Q393 -21 321 7Q285 21 262.5 31.5Q240 42 223.5 52.5Q207 63 193.5 75.0Q180 87 161 104ZM304 447Q293 431 279.5 418.0Q266 405 253.5 391.5Q241 378 231.0 361.5Q221 345 217 323Q252 327 290.0 342.5Q328 358 362 372Q358 403 340.5 422.0Q323 441 304 447Z"/></g>
    <g transform="translate(1750, 0)"><path d="M583 300Q582 288 585.0 277.0Q588 266 592.5 255.5Q597 245 601.0 234.0Q605 223 607 212Q609 198 607.0 181.5Q605 165 600.0 149.5Q595 134 587.0 121.5Q579 109 568 103Q554 85 534.0 75.0Q514 65 497 51Q486 44 472.5 41.0Q459 38 445 35Q434 29 419.0 22.5Q404 16 388.0 10.5Q372 5 356.0 2.5Q340 0 328 1Q298 -10 269.5 -13.5Q241 -17 203 -9Q167 -14 136.5 -6.0Q106 2 82.5 19.5Q59 37 41.5 61.5Q24 86 13 113Q5 170 17.0 216.5Q29 263 51.5 302.5Q74 342 103.0 375.5Q132 409 159 441Q165 439 168.5 441.5Q172 444 175.0 448.5Q178 453 181.5 457.0Q185 461 190 462Q197 477 210.5 484.5Q224 492 232 506Q241 508 247.0 512.0Q253 516 258.5 521.0Q264 526 270.0 530.5Q276 535 284 537V548Q302 556 310.5 566.5Q319 577 331 592Q340 593 345.5 593.0Q351 593 362 595Q370 609 376.5 616.0Q383 623 396 631Q408 625 422.5 623.0Q437 621 448 610Q449 600 454.0 594.5Q459 589 465.0 584.5Q471 580 476.5 575.0Q482 570 484 561Q488 560 489.5 562.0Q491 564 495 563Q498 549 502.0 544.5Q506 540 510 527Q505 517 502.5 506.5Q500 496 490 491Q489 484 494.0 483.5Q499 483 500 478Q501 469 497 465Q521 426 540.0 382.5Q559 339 583 300ZM458 205Q462 216 468.5 223.0Q475 230 476 244Q471 252 470.0 256.5Q469 261 469 271Q447 302 431.0 337.5Q415 373 395 404Q393 400 388.0 396.0Q383 392 377 398Q375 390 370.0 386.5Q365 383 359.0 383.5Q353 384 346.5 386.5Q340 389 335 393Q306 370 277.0 348.0Q248 326 225 297Q221 295 220.0 295.5Q219 296 214 294Q206 275 194.5 259.5Q183 244 172.0 228.0Q161 212 153.0 194.0Q145 176 144 152Q161 138 184.0 135.0Q207 132 231.5 134.0Q256 136 279.5 140.5Q303 145 323 145Q365 155 395.0 171.5Q425 188 458 205Z"/></g>
    <g transform="translate(2394, 0)"><path d="M161 104Q150 64 141.5 43.5Q133 23 116 1Q103 3 98.0 -2.0Q93 -7 87 -11Q78 -13 74.0 -11.0Q70 -9 67.0 -6.5Q64 -4 59.5 -1.5Q55 1 46 1Q44 9 41.5 16.0Q39 23 28 21Q30 29 29.0 34.5Q28 40 26.5 44.5Q25 49 24.0 53.5Q23 58 25 65Q20 65 17.0 72.0Q14 79 10 86Q13 104 16.0 120.0Q19 136 23.5 150.0Q28 164 31.0 178.0Q34 192 28 207Q32 204 34.0 208.5Q36 213 37.0 220.5Q38 228 38.0 235.5Q38 243 37 248Q47 274 53.5 301.5Q60 329 65.5 356.0Q71 383 77.0 409.0Q83 435 93 457Q104 459 117.5 454.5Q131 450 134 443Q160 463 180.0 491.5Q200 520 221.0 547.0Q242 574 267.5 595.0Q293 616 332 620Q352 605 376.5 589.5Q401 574 417 549Q425 545 430.5 540.5Q436 536 444 531V519Q456 508 463.5 493.5Q471 479 477.0 462.5Q483 446 489.0 429.5Q495 413 503 398Q501 393 501.0 389.5Q501 386 502.5 382.0Q504 378 505.0 374.0Q506 370 505 363Q502 319 476.5 292.0Q451 265 415.0 247.5Q379 230 338.0 218.0Q297 206 264 192Q264 188 267.5 188.0Q271 188 270 183Q294 168 308.0 159.0Q322 150 334.5 144.0Q347 138 361.5 133.5Q376 129 402 123Q428 117 442.5 113.5Q457 110 469.0 107.5Q481 105 493.5 103.5Q506 102 529 100Q538 91 544.5 78.5Q551 66 553.0 53.5Q555 41 554.0 29.5Q553 18 547 11Q548 8 551.5 8.5Q555 9 559 8Q553 4 549.0 -2.0Q545 -8 541.0 -14.0Q537 -20 532.0 -24.5Q527 -29 518 -30Q487 -42 440.0 -31.5Q393 -21 321 7Q285 21 262.5 31.5Q240 42 223.5 52.5Q207 63 193.5 75.0Q180 87 161 104ZM304 447Q293 431 279.5 418.0Q266 405 253.5 391.5Q241 378 231.0 361.5Q221 345 217 323Q252 327 290.0 342.5Q328 358 362 372Q358 403 340.5 422.0Q323 441 304 447Z"/></g>
    <g transform="translate(3198, 0)"><path d="M93 87Q64 109 45.5 142.0Q27 175 16.5 212.0Q6 249 2.5 288.5Q-1 328 0 364Q9 391 22.0 413.5Q35 436 51.0 456.5Q67 477 84.5 495.5Q102 514 119 533Q125 533 130 530Q134 541 142.0 549.0Q150 557 159.0 563.5Q168 570 177.0 576.5Q186 583 192 592Q217 598 236.5 609.0Q256 620 274.0 633.0Q292 646 311.0 657.0Q330 668 355 674Q364 684 377.5 691.0Q391 698 404.5 704.0Q418 710 430.5 717.0Q443 724 451 736Q457 728 468.0 730.5Q479 733 488 736Q494 737 498.0 734.0Q502 731 505.5 727.5Q509 724 511.5 723.0Q514 722 517 729Q525 728 521.5 722.0Q518 716 517 714Q527 716 533.5 710.5Q540 705 554 703Q559 698 557.0 695.0Q555 692 554 685Q590 674 600.0 650.5Q610 627 602.0 601.5Q594 576 572.5 554.5Q551 533 525 526Q494 518 467.5 510.0Q441 502 416.5 492.0Q392 482 370.5 468.5Q349 455 333 437Q305 429 282.5 415.0Q260 401 240.5 384.0Q221 367 203.0 348.5Q185 330 167 312Q167 295 161.0 286.0Q155 277 148 268Q150 249 156.5 235.5Q163 222 170 208Q250 184 339.5 178.5Q429 173 517 172Q526 160 537.5 149.5Q549 139 558.5 128.0Q568 117 573.5 102.5Q579 88 576 68Q559 51 539.0 35.5Q519 20 499 5Q490 4 477.5 5.0Q465 6 451.5 6.0Q438 6 424.5 4.5Q411 3 399 -2Q336 0 270.0 13.5Q204 27 148 46Q137 59 125.0 70.5Q113 82 93 87Z"/></g>
    <g transform="translate(3824, 0)"><path d="M583 300Q582 288 585.0 277.0Q588 266 592.5 255.5Q597 245 601.0 234.0Q605 223 607 212Q609 198 607.0 181.5Q605 165 600.0 149.5Q595 134 587.0 121.5Q579 109 568 103Q554 85 534.0 75.0Q514 65 497 51Q486 44 472.5 41.0Q459 38 445 35Q434 29 419.0 22.5Q404 16 388.0 10.5Q372 5 356.0 2.5Q340 0 328 1Q298 -10 269.5 -13.5Q241 -17 203 -9Q167 -14 136.5 -6.0Q106 2 82.5 19.5Q59 37 41.5 61.5Q24 86 13 113Q5 170 17.0 216.5Q29 263 51.5 302.5Q74 342 103.0 375.5Q132 409 159 441Q165 439 168.5 441.5Q172 444 175.0 448.5Q178 453 181.5 457.0Q185 461 190 462Q197 477 210.5 484.5Q224 492 232 506Q241 508 247.0 512.0Q253 516 258.5 521.0Q264 526 270.0 530.5Q276 535 284 537V548Q302 556 310.5 566.5Q319 577 331 592Q340 593 345.5 593.0Q351 593 362 595Q370 609 376.5 616.0Q383 623 396 631Q408 625 422.5 623.0Q437 621 448 610Q449 600 454.0 594.5Q459 589 465.0 584.5Q471 580 476.5 575.0Q482 570 484 561Q488 560 489.5 562.0Q491 564 495 563Q498 549 502.0 544.5Q506 540 510 527Q505 517 502.5 506.5Q500 496 490 491Q489 484 494.0 483.5Q499 483 500 478Q501 469 497 465Q521 426 540.0 382.5Q559 339 583 300ZM458 205Q462 216 468.5 223.0Q475 230 476 244Q471 252 470.0 256.5Q469 261 469 271Q447 302 431.0 337.5Q415 373 395 404Q393 400 388.0 396.0Q383 392 377 398Q375 390 370.0 386.5Q365 383 359.0 383.5Q353 384 346.5 386.5Q340 389 335 393Q306 370 277.0 348.0Q248 326 225 297Q221 295 220.0 295.5Q219 296 214 294Q206 275 194.5 259.5Q183 244 172.0 228.0Q161 212 153.0 194.0Q145 176 144 152Q161 138 184.0 135.0Q207 132 231.5 134.0Q256 136 279.5 140.5Q303 145 323 145Q365 155 395.0 171.5Q425 188 458 205Z"/></g>
    <g transform="translate(4468, 0)"><path d="M493 270Q492 265 491.0 261.5Q490 258 489.0 255.0Q488 252 488.0 247.5Q488 243 488 236Q458 183 412.5 147.0Q367 111 312.5 83.5Q258 56 199.0 33.5Q140 11 84 -15Q60 -9 47.5 5.0Q35 19 28.5 37.5Q22 56 19.5 78.5Q17 101 15 125Q18 136 23.5 143.5Q29 151 29 165Q37 191 45.0 216.0Q53 241 55 267Q58 275 66 278Q71 326 66.5 375.5Q62 425 50 468Q51 478 52.5 482.5Q54 487 52 489Q51 497 57.5 497.0Q64 497 71 497Q71 512 65.5 527.0Q60 542 55 561Q62 576 64.0 590.5Q66 605 73 616Q127 599 176.5 575.0Q226 551 274 540Q310 514 348.0 488.5Q386 463 417.0 432.5Q448 402 469.0 363.0Q490 324 493 270ZM256 215Q277 223 297.5 232.0Q318 241 335.5 252.5Q353 264 367.0 279.0Q381 294 390 315Q384 327 374.0 336.5Q364 346 354.0 354.5Q344 363 334.5 372.0Q325 381 319 394Q306 396 296.0 401.5Q286 407 276.5 412.5Q267 418 256.5 423.0Q246 428 232 429Q210 440 192.5 445.0Q175 450 166 458Q159 458 155 455Q165 417 170.0 383.5Q175 350 175.5 316.5Q176 283 172.0 248.0Q168 213 161 172Q171 173 179.5 176.5Q188 180 196.5 184.0Q205 188 214.5 191.5Q224 195 237 196Q240 202 245.5 206.0Q251 210 256 215Z"/></g>
    <g transform="translate(4977, 0)"><path d="M558 563Q559 556 558.5 552.5Q558 549 557.5 546.0Q557 543 557.0 539.5Q557 536 559 529Q538 495 510.5 482.5Q483 470 451.0 464.5Q419 459 385.5 453.0Q352 447 319 427Q306 432 295.5 427.0Q285 422 265 424Q259 418 250.0 415.5Q241 413 232 410Q236 401 235.5 391.5Q235 382 238 376Q273 373 315.5 377.0Q358 381 399 382Q400 377 398.0 375.5Q396 374 397 370Q404 365 411.0 357.5Q418 350 425.0 343.0Q432 336 439.5 331.5Q447 327 457 328Q461 320 462.5 310.5Q464 301 460 291Q444 280 428.0 268.5Q412 257 394.5 248.0Q377 239 357.5 233.5Q338 228 314 229Q309 229 306.5 229.0Q304 229 300 232Q292 227 277.5 229.0Q263 231 255 226Q244 231 228.5 230.5Q213 230 201 234Q185 213 172.0 189.0Q159 165 149 138Q183 133 205.5 134.0Q228 135 248.0 137.5Q268 140 289.0 142.5Q310 145 342 144Q362 155 389.5 158.5Q417 162 440 170Q448 167 454.0 159.5Q460 152 465.5 145.5Q471 139 477.0 134.0Q483 129 492 130Q496 126 497.5 120.5Q499 115 500.0 110.0Q501 105 503.5 101.5Q506 98 512 99Q497 66 477.5 48.5Q458 31 433.0 22.0Q408 13 377.5 8.0Q347 3 310 -4Q301 -6 295.0 -3.5Q289 -1 281 -1Q258 -6 226.0 -10.0Q194 -14 161.0 -13.0Q128 -12 98.0 -4.5Q68 3 49 22Q41 29 38.5 38.5Q36 48 25 53Q24 66 21.0 82.0Q18 98 15.0 115.5Q12 133 10.5 150.0Q9 167 12 181Q15 196 24.5 208.0Q34 220 31 234Q36 235 37.0 239.5Q38 244 45 243Q51 261 58.0 277.0Q65 293 72.5 308.0Q80 323 87.5 338.5Q95 354 102 373Q88 386 81.5 401.5Q75 417 72.0 432.5Q69 448 67.0 464.5Q65 481 60 498Q70 513 84.5 522.5Q99 532 116.0 538.0Q133 544 153.0 548.0Q173 552 195 557Q235 570 266.5 577.0Q298 584 328.5 588.5Q359 593 392.0 597.0Q425 601 467 609Q476 600 484 600Q488 609 493.5 605.5Q499 602 498 611Q508 594 523.5 582.5Q539 571 558 563Z"/></g>
    <g transform="translate(5511, 0)"><path d="M16 450Q23 471 38.5 486.0Q54 501 72.5 511.5Q91 522 111.0 529.0Q131 536 149 541Q189 558 234.5 573.5Q280 589 327.5 601.0Q375 613 425.0 616.5Q475 620 530 604Q533 594 539.0 585.0Q545 576 551.5 567.0Q558 558 563.0 549.5Q568 541 569 532Q579 523 585.0 512.5Q591 502 587 485Q577 477 567.5 470.5Q558 464 547 459Q510 468 472.0 465.0Q434 462 404 460Q395 469 382.5 469.0Q370 469 356.5 465.0Q343 461 329.5 457.0Q316 453 304 455Q294 447 279.5 444.5Q265 442 248 440Q247 435 250.0 433.5Q253 432 251 427Q257 420 266.5 417.0Q276 414 286.5 411.0Q297 408 305.0 403.5Q313 399 316 389Q331 389 342.0 382.0Q353 375 360.0 365.0Q367 355 370.5 343.5Q374 332 374 323Q377 315 381.0 316.0Q385 317 390 312Q393 299 405.0 285.5Q417 272 424 256Q426 231 427.0 211.5Q428 192 420 172Q405 135 378.5 106.0Q352 77 318.5 54.5Q285 32 247.0 16.0Q209 0 173 -11Q169 -10 165.0 -11.0Q161 -12 163 -6Q155 -13 145.5 -15.0Q136 -17 125.0 -16.5Q114 -16 102.5 -15.0Q91 -14 81 -16Q74 -9 68.5 -2.5Q63 4 60 14Q55 14 55.5 19.0Q56 24 52 24Q58 34 57.5 35.5Q57 37 54.5 38.0Q52 39 50.0 40.5Q48 42 49 45Q53 53 52.0 63.5Q51 74 50.0 85.0Q49 96 51.5 106.0Q54 116 66 122Q100 118 130.5 124.5Q161 131 188.0 143.0Q215 155 239.5 169.0Q264 183 288 194Q291 203 296.5 209.0Q302 215 308.0 220.0Q314 225 319.0 231.0Q324 237 326 246Q327 253 322.5 254.5Q318 256 318 262L307 265Q288 276 264.0 283.5Q240 291 223 300Q212 294 202.5 297.0Q193 300 178 303Q144 305 112.5 310.0Q81 315 52 328Q50 333 47.0 337.0Q44 341 36 339Q30 347 24.0 354.5Q18 362 13 371Q15 383 16.0 391.5Q17 400 10 408Q14 421 16.0 429.0Q18 437 16 450Z"/></g>
  </g>
</svg>