<?xml version="1.0" encoding="UTF-8"?>
<svg xmlns="http://www.w3.org/2000/svg" viewBox="0 0 141.5 18" 
     width="141.5" height="18">
  <g transform="translate(0, 15.3) scale(0.017578, -0.017578)" fill="#FFFFFF">
    <g transform="translate(0, 0)"><path d="M44 203Q14 220 -2.0 251.0Q-18 282 -20 310Q-17 334 -7.5 347.5Q2 361 15.0 369.5Q28 378 42.0 382.5Q56 387 69 390L84 385Q89 380 94.5 376.0Q100 372 105 368Q115 372 117.5 380.0Q120 388 123 396Q126 407 130.0 418.0Q134 429 140 440Q139 449 141.0 456.0Q143 463 145 468Q139 473 136.5 473.5Q134 474 128 476Q125 476 122.0 476.5Q119 477 115 478Q100 489 95.5 496.5Q91 504 86 512Q81 520 77.0 526.0Q73 532 68 537L56 545L62 557Q64 559 64.0 562.5Q64 566 60 573Q57 586 59 592L61 604Q71 617 72 619L82 629Q105 635 129.0 642.5Q153 650 176 658Q199 666 223.0 674.0Q247 682 271 688Q279 695 288.5 696.5Q298 698 306 699Q313 699 319.0 700.0Q325 701 328 705Q345 711 361 715Q391 723 440.0 734.0Q489 745 550 750L571 751Q577 750 583.0 750.5Q589 751 595 751Q647 751 664 719Q674 714 682.0 706.5Q690 699 697 692Q702 687 706.0 683.5Q710 680 713 678L721 670Q732 646 725 623Q719 611 712.0 609.0Q705 607 698 605L685 598Q672 599 665.5 599.0Q659 599 651 599Q621 599 581.5 595.5Q542 592 501.0 585.5Q460 579 421.0 569.5Q382 560 353 549Q345 543 332 538Q329 537 323 533Q324 525 323.0 517.5Q322 510 320 503Q319 498 318.5 492.5Q318 487 317 481Q296 456 297 422L292 412Q288 408 285.5 400.5Q283 393 285 385L289 373Q309 375 328.5 377.5Q348 380 370 383Q398 388 426.5 391.5Q455 395 486 395H525L516 386L527 385L521 369Q528 366 531.5 364.5Q535 363 538 361L545 351Q550 348 554.0 341.5Q558 335 559 324L556 314L509 254L503 246L493 249Q474 250 457 245Q449 243 440.0 240.5Q431 238 422 238Q398 234 382.0 231.5Q366 229 350 227Q328 223 307.5 219.5Q287 216 269 209Q258 208 256.0 208.5Q254 209 252 209Q242 209 232.0 206.0Q222 203 213 200Q207 195 205.0 189.5Q203 184 201 178Q199 171 195.5 164.5Q192 158 187 151L188 133Q179 131 179.0 130.5Q179 130 178 130Q178 122 175.5 115.0Q173 108 171 102Q169 98 168.0 95.0Q167 92 167 89Q177 71 172 48Q168 29 157.0 14.5Q146 0 131 -8Q115 -10 107.5 -7.0Q100 -4 92 -1Q87 1 82.0 2.5Q77 4 72 5L60 15Q57 21 53.0 26.5Q49 32 45 38Q40 45 35.0 52.0Q30 59 26 68Q19 103 23.5 126.5Q28 150 36 173Q38 181 40.0 188.0Q42 195 44 203Z"/></g>
    <g transform="translate(589, 0)"><path d="M56 34Q48 42 44.5 53.0Q41 64 28 71Q26 86 22.5 105.5Q19 125 15.5 145.5Q12 166 10.5 186.5Q9 207 12 224Q14 233 18.5 241.0Q23 249 27.5 256.5Q32 264 34.5 272.0Q37 280 35 288Q41 289 42.5 294.5Q44 300 52 298Q59 320 67.0 339.0Q75 358 84.0 376.0Q93 394 102.5 412.5Q112 431 120 454Q103 470 95.5 488.5Q88 507 84.0 526.0Q80 545 78.0 564.5Q76 584 70 604Q82 622 99.0 633.5Q116 645 136.5 652.5Q157 660 181.0 664.5Q205 669 232 675Q280 690 318.0 698.5Q356 707 392.0 712.5Q428 718 467.0 722.5Q506 727 557 736Q558 733 560.5 733.0Q563 733 567 733Q570 726 578 726Q578 729 577.5 731.5Q577 734 577 736Q579 736 582.5 735.0Q586 734 588.5 733.0Q591 732 593.0 733.5Q595 735 594 740Q606 719 625.0 705.5Q644 692 667 682Q668 673 667.5 669.0Q667 665 666.0 661.5Q665 658 665.0 653.5Q665 649 667 641Q651 614 630.5 599.0Q610 584 587.0 576.0Q564 568 538.5 564.0Q513 560 486.5 555.5Q460 551 433.0 543.0Q406 535 380 519Q372 522 365.5 521.5Q359 521 352.0 519.0Q345 517 336.5 515.0Q328 513 316 515Q308 508 297.5 505.0Q287 502 276 499Q281 488 280.5 477.0Q280 466 283 458Q325 454 376.0 458.5Q427 463 476 465Q477 460 475.0 458.0Q473 456 473 451Q482 445 490.0 436.0Q498 427 506.5 418.5Q515 410 524.0 404.5Q533 399 545 400Q550 390 552.0 379.0Q554 368 549 356Q529 343 510.0 329.5Q491 316 470.5 305.0Q450 294 426.0 287.0Q402 280 374 281Q369 281 365.5 281.0Q362 281 357 285Q347 280 330.5 281.5Q314 283 303 278Q289 283 270.5 283.0Q252 283 238 288Q220 262 204.0 233.5Q188 205 176 173Q217 167 244.0 168.0Q271 169 295.0 172.0Q319 175 344.5 178.0Q370 181 407 180Q432 192 464.5 196.5Q497 201 525 210Q535 207 542.0 198.5Q549 190 555.5 181.5Q562 173 569.0 167.0Q576 161 587 163Q592 158 593.5 151.0Q595 144 596.5 138.0Q598 132 601.0 128.5Q604 125 612 126Q593 87 569.5 66.0Q546 45 516.5 33.5Q487 22 450.5 16.5Q414 11 369 3Q358 1 350.5 3.5Q343 6 335 6Q307 1 268.5 -4.0Q230 -9 191.0 -8.0Q152 -7 116.0 2.0Q80 11 56 34Z"/></g>
    <g transform="translate(1231, 0)"><path d="M28 86Q23 85 19.0 93.5Q15 102 10 110H21Q14 132 17.5 150.5Q21 169 26.0 186.5Q31 204 34.5 220.5Q38 237 31 255Q36 252 38.5 257.5Q41 263 42.5 271.5Q44 280 43.5 289.5Q43 299 42 305Q55 336 62.5 369.0Q70 402 76.0 434.5Q82 467 89.5 497.5Q97 528 109 555Q123 557 138.5 551.5Q154 546 159 538Q190 562 214.0 596.0Q238 630 262.5 662.5Q287 695 318.0 720.0Q349 745 395 750Q419 733 449.0 713.5Q479 694 498 665Q506 660 513.5 654.5Q521 649 529 644V629Q543 616 552.5 598.5Q562 581 569.5 561.5Q577 542 584.0 522.0Q591 502 600 485Q598 479 598.5 474.5Q599 470 600.5 465.5Q602 461 603.0 455.5Q604 450 604 442Q600 389 569.5 356.5Q539 324 495.5 303.5Q452 283 403.0 268.5Q354 254 314 237Q314 233 318.5 233.0Q323 233 321 227Q351 209 367.5 198.0Q384 187 398.5 179.5Q413 172 430.5 167.0Q448 162 479 155Q510 148 527.5 143.5Q545 139 559.0 136.5Q573 134 589.0 132.0Q605 130 632 127Q643 116 650.0 101.0Q657 86 660.0 71.0Q663 56 661.5 42.5Q660 29 653 21Q654 17 658.5 17.5Q663 18 668 17Q661 12 656.0 5.0Q651 -2 646.0 -9.0Q641 -16 634.5 -22.0Q628 -28 618 -29Q582 -43 526.0 -30.0Q470 -17 383 16Q340 32 313.0 45.0Q286 58 266.0 70.5Q246 83 229.0 97.5Q212 112 190 132Q187 131 186.5 128.0Q186 125 183 124Q178 84 167.5 59.0Q157 34 137 8Q121 11 115.5 5.0Q110 -1 102 -6Q92 -8 87.0 -5.5Q82 -3 78.0 0.0Q74 3 69.0 6.0Q64 9 53 8Q50 17 47.0 25.5Q44 34 31 33Q34 42 33.0 48.5Q32 55 30.0 60.5Q28 66 26.5 72.0Q25 78 28 86ZM362 543Q349 524 333.0 508.5Q317 493 301.5 476.5Q286 460 274.0 440.5Q262 421 257 394Q299 399 345.0 417.5Q391 436 432 453Q427 490 406.0 512.5Q385 535 362 543Z"/></g>
    <g transform="translate(1893, 0)"><path d="M45 282Q46 286 49.5 285.5Q53 285 56 286Q48 294 46.0 307.5Q44 321 36 330Q38 335 39.5 340.0Q41 345 48 344Q45 366 49.0 385.0Q53 404 61.5 421.0Q70 438 81.5 454.5Q93 471 104 488Q113 490 115.0 486.5Q117 483 122 488Q138 499 144.0 512.5Q150 526 150 542Q159 568 170.5 593.5Q182 619 197.0 641.0Q212 663 229.0 679.5Q246 696 266 705Q280 717 301.5 727.0Q323 737 347.5 742.5Q372 748 398.0 748.5Q424 749 446 743Q451 741 452.0 745.5Q453 750 457 750Q507 744 546.5 730.0Q586 716 614 691Q633 661 650.0 626.5Q667 592 676.5 554.5Q686 517 685.0 477.0Q684 437 668 397Q633 353 583.0 326.5Q533 300 475.5 282.5Q418 265 356.5 254.0Q295 243 237 230Q238 203 237.0 172.5Q236 142 230.5 111.5Q225 81 214.5 52.0Q204 23 186 -2Q166 -1 144.5 -6.0Q123 -11 106 -16Q98 -11 90.5 -6.5Q83 -2 72 -1Q75 11 66.5 24.0Q58 37 49.5 49.5Q41 62 38.5 74.5Q36 87 50 97Q42 104 42 119Q46 115 52 115Q50 133 56.5 158.0Q63 183 67.5 207.5Q72 232 69.0 252.5Q66 273 45 282ZM305 516Q301 505 298.5 496.5Q296 488 293.0 481.0Q290 474 286.5 467.0Q283 460 279 451Q281 445 287.0 442.0Q293 439 295 433Q309 440 323.0 443.5Q337 447 351.0 449.0Q365 451 379.0 454.0Q393 457 408 464Q423 471 439.5 475.5Q456 480 472.0 485.0Q488 490 503.0 496.5Q518 503 529 514Q515 527 487.0 537.0Q459 547 426.5 549.5Q394 552 361.5 545.0Q329 538 305 516Z"/></g>
    <g transform="translate(2548, 0)"><path d="M-26 95 -13 105 -12 126Q13 187 39.5 243.0Q66 299 95 358Q104 377 113.5 396.0Q123 415 132 435Q131 439 131.0 443.5Q131 448 133 454Q147 474 155.5 490.0Q164 506 172 523Q181 543 191.5 563.0Q202 583 218 602L225 612L236 611Q240 613 244.5 614.5Q249 616 256 616L274 613Q307 628 332.5 656.5Q358 685 384 725L396 742L412 732Q417 729 428.0 726.0Q439 723 451 719Q472 714 492.0 707.5Q512 701 523 690L528 681Q530 670 531.5 661.0Q533 652 535 643Q539 622 542.0 601.5Q545 581 546 556Q551 536 555.5 515.5Q560 495 564 475Q569 446 575.0 419.5Q581 393 591 369Q601 369 603 368Q615 373 631 374L644 375L648 363Q650 360 653.0 357.0Q656 354 660 351Q676 350 683.5 344.5Q691 339 696 334Q698 332 701.0 329.5Q704 327 706 326L724 319L714 300Q703 279 680.5 259.0Q658 239 630 226Q632 219 632.5 213.0Q633 207 635 199Q639 179 641.5 157.5Q644 136 641 113Q631 87 617.5 66.5Q604 46 585.5 29.5Q567 13 544.0 2.5Q521 -8 496 -9Q482 -6 475.5 -2.0Q469 2 464 6Q456 12 451 14L438 20L442 35Q445 43 441.5 49.0Q438 55 427 65Q423 68 420.0 71.5Q417 75 413 79L393 102L426 111Q456 119 466.0 131.5Q476 144 474 176Q449 181 433.0 177.5Q417 174 401 170Q378 164 356.0 159.5Q334 155 308 155Q291 155 272 158L261 159L258 170Q258 172 255.5 174.5Q253 177 251 179Q246 185 239.0 195.0Q232 205 236 220Q229 231 228 243Q224 235 221.5 227.5Q219 220 217 213L213 200L200 198Q198 196 196.5 192.0Q195 188 196 186L200 175L190 166Q188 163 185.0 161.0Q182 159 180 157Q178 146 174.5 136.0Q171 126 167 116Q162 100 157.5 85.0Q153 70 153 55L149 42Q144 34 136.5 30.0Q129 26 122 23Q112 19 108 15L105 2L90 0Q77 -3 71.5 -4.0Q66 -5 59 -5L46 -4Q34 8 26.5 14.5Q19 21 9 26L3 34Q-1 42 -2.0 48.5Q-3 55 -5 62Q-7 75 -11 80ZM293 355Q279 335 266 313Q273 314 279.5 314.0Q286 314 293 315Q328 317 358.0 320.0Q388 323 423 330Q415 367 405.5 405.5Q396 444 385 483L380 473Q355 446 332.0 415.0Q309 384 294 356Z"/></g>
    <g transform="translate(3517, 0)"><path d="M28 86Q23 85 19.0 93.5Q15 102 10 110H21Q14 132 17.5 150.5Q21 169 26.0 186.5Q31 204 34.5 220.5Q38 237 31 255Q36 252 38.5 257.5Q41 263 42.5 271.5Q44 280 43.5 289.5Q43 299 42 305Q55 336 62.5 369.0Q70 402 76.0 434.5Q82 467 89.5 497.5Q97 528 109 555Q123 557 138.5 551.5Q154 546 159 538Q190 562 214.0 596.0Q238 630 262.5 662.5Q287 695 318.0 720.0Q349 745 395 750Q419 733 449.0 713.5Q479 694 498 665Q506 660 513.5 654.5Q521 649 529 644V629Q543 616 552.5 598.5Q562 581 569.5 561.5Q577 542 584.0 522.0Q591 502 600 485Q598 479 598.5 474.5Q599 470 600.5 465.5Q602 461 603.0 455.5Q604 450 604 442Q600 389 569.5 356.5Q539 324 495.5 303.5Q452 283 403.0 268.5Q354 254 314 237Q314 233 318.5 233.0Q323 233 321 227Q351 209 367.5 198.0Q384 187 398.5 179.5Q413 172 430.5 167.0Q448 162 479 155Q510 148 527.5 143.5Q545 139 559.0 136.5Q573 134 589.0 132.0Q605 130 632 127Q643 116 650.0 101.0Q657 86 660.0 71.0Q663 56 661.5 42.5Q660 29 653 21Q654 17 658.5 17.5Q663 18 668 17Q661 12 656.0 5.0Q651 -2 646.0 -9.0Q641 -16 634.5 -22.0Q628 -28 618 -29Q582 -43 526.0 -30.0Q470 -17 383 16Q340 32 313.0 45.0Q286 58 266.0 70.5Q246 83 229.0 97.5Q212 112 190 132Q187 131 186.5 128.0Q186 125 183 124Q178 84 167.5 59.0Q157 34 137 8Q121 11 115.5 5.0Q110 -1 102 -6Q92 -8 87.0 -5.5Q82 -3 78.0 0.0Q74 3 69.0 6.0Q64 9 53 8Q50 17 47.0 25.5Q44 34 31 33Q34 42 33.0 48.5Q32 55 30.0 60.5Q28 66 26.5 72.0Q25 78 28 86ZM362 543Q349 524 333.0 508.5Q317 493 301.5 476.5Q286 460 274.0 440.5Q262 421 257 394Q299 399 345.0 417.5Q391 436 432 453Q427 490 406.0 512.5Q385 535 362 543Z"/></g>
    <g transform="translate(4179, 0)"><path d="M558 563Q559 556 558.5 552.5Q558 549 557.5 546.0Q557 543 557.0 539.5Q557 536 559 529Q538 495 510.5 482.5Q483 470 451.0 464.5Q419 459 385.5 453.0Q352 447 319 427Q306 432 295.5 427.0Q285 422 265 424Q259 418 250.0 415.5Q241 413 232 410Q236 401 235.5 391.5Q235 382 238 376Q273 373 315.5 377.0Q358 381 399 382Q400 377 398.0 375.5Q396 374 397 370Q404 365 411.0 357.5Q418 350 425.0 343.0Q432 336 439.5 331.5Q447 327 457 328Q461 320 462.5 310.5Q464 301 460 291Q444 280 428.0 268.5Q412 257 394.5 248.0Q377 239 357.5 233.5Q338 228 314 229Q309 229 306.5 229.0Q304 229 300 232Q292 227 277.5 229.0Q263 231 255 226Q244 231 228.5 230.5Q213 230 201 234Q185 213 172.0 189.0Q159 165 149 138Q183 133 205.5 134.0Q228 135 248.0 137.5Q268 140 289.0 142.5Q310 145 342 144Q362 155 389.5 158.5Q417 162 440 170Q448 167 454.0 159.5Q460 152 465.5 145.5Q471 139 477.0 134.0Q483 129 492 130Q496 126 497.5 120.5Q499 115 500.0 110.0Q501 105 503.5 101.5Q506 98 512 99Q497 66 477.5 48.5Q458 31 433.0 22.0Q408 13 377.5 8.0Q347 3 310 -4Q301 -6 295.0 -3.5Q289 -1 281 -1Q258 -6 226.0 -10.0Q194 -14 161.0 -13.0Q128 -12 98.0 -4.5Q68 3 49 22Q41 29 38.5 38.5Q36 48 25 53Q24 66 21.0 82.0Q18 98 15.0 115.5Q12 133 10.5 150.0Q9 167 12 181Q15 196 24.5 208.0Q34 220 31 234Q36 235 37.0 239.5Q38 244 45 243Q51 261 58.0 277.0Q65 293 72.5 308.0Q80 323 87.5 338.5Q95 354 102 373Q88 386 81.5 401.5Q75 417 72.0 432.5Q69 448 67.0 464.5Q65 481 60 498Q70 513 84.5 522.5Q99 532 116.0 538.0Q133 544 153.0 548.0Q173 552 195 557Q235 570 266.5 577.0Q298 584 328.5 588.5Q359 593 392.0 597.0Q425 601 467 609Q476 600 484 600Q488 609 493.5 605.5Q499 602 498 611Q508 594 523.5 582.5Q539 571 558 563Z"/></g>
    <g transform="translate(4713, 0)"><path d="M692 18Q682 13 673.5 9.0Q665 5 654 5Q615 34 613.5 106.0Q612 178 644 289Q649 292 649 301L640 311Q636 311 632.5 310.0Q629 309 627 303Q601 284 570.0 263.5Q539 243 505.5 225.5Q472 208 437.5 197.0Q403 186 370 186Q286 186 244 271L236 286L228 273Q225 269 219.0 256.5Q213 244 207.0 228.0Q201 212 196.5 195.5Q192 179 193 167Q184 158 174.0 146.0Q164 134 159 119Q157 111 161 104Q159 95 152 90Q148 85 143.5 80.5Q139 76 136 71Q134 66 133.5 61.0Q133 56 132 51Q132 44 130 38Q113 3 103.0 -7.5Q93 -18 76 -18Q68 -18 50 -15Q37 -1 26.5 23.5Q16 48 10.5 76.0Q5 104 5.5 132.5Q6 161 15 182Q15 183 23.0 202.0Q31 221 43.5 251.0Q56 281 72.0 317.5Q88 354 104.0 388.5Q120 423 134.5 452.0Q149 481 159 496Q167 508 173.5 518.5Q180 529 186 539Q204 570 220.5 590.5Q237 611 269 623Q291 614 301 602L303 591Q307 581 315 581Q326 578 333.5 575.5Q341 573 350 571Q357 563 363 552Q371 540 378.5 528.5Q386 517 390.5 505.5Q395 494 395.5 482.0Q396 470 391 457L392 447Q397 438 394 422Q393 415 393.0 407.5Q393 400 395 391Q413 377 427 377Q443 377 456.5 384.5Q470 392 482 400Q490 406 498.0 410.5Q506 415 514 416Q532 433 546.5 446.0Q561 459 577 472Q607 496 635.0 524.0Q663 552 680 594Q690 600 701 600Q712 600 724.0 595.0Q736 590 747 585Q750 583 752.5 582.0Q755 581 757 580Q757 570 765 563Q769 560 770.0 559.0Q771 558 773 557Q788 549 792 541Q799 518 817 506Q815 496 817.5 487.5Q820 479 824 470Q825 467 826.0 464.0Q827 461 829 457L810 459L813 440Q815 426 810.5 409.0Q806 392 800 382Q801 356 801.5 341.5Q802 327 800.0 314.5Q798 302 794.5 291.0Q791 280 785 267Q789 203 770.5 150.5Q752 98 732 52Q730 47 727.5 42.0Q725 37 723 32Q714 29 707.0 25.5Q700 22 692 18Z"/></g>
    <g transform="translate(5547, 0)"><path d="M212 70Q217 40 208.5 23.0Q200 6 184.5 -2.5Q169 -11 149.0 -12.0Q129 -13 111 -10Q101 4 93.0 25.0Q85 46 78.0 68.5Q71 91 65.5 113.0Q60 135 56 152Q61 164 62.5 179.5Q64 195 64.5 211.0Q65 227 65.5 243.5Q66 260 68 275Q75 317 88.5 355.0Q102 393 110 434Q112 443 108.5 451.0Q105 459 107 466Q108 470 113.0 471.5Q118 473 119 478Q122 489 120.5 496.0Q119 503 124 513Q129 521 136.5 536.5Q144 552 142 569Q151 575 159.0 583.0Q167 591 175.5 597.5Q184 604 194.5 609.0Q205 614 220 614Q228 604 230.5 592.0Q233 580 235.5 568.0Q238 556 243.0 545.5Q248 535 260 529Q260 521 260.0 509.0Q260 497 261.0 485.5Q262 474 265.5 464.5Q269 455 277 452Q259 404 243.5 357.0Q228 310 218.0 262.5Q208 215 205.5 167.0Q203 119 212 70Z"/></g>
    <g transform="translate(5875, 0)"><path d="M205 182Q196 180 192.0 171.5Q188 163 184.5 154.0Q181 145 177.5 137.5Q174 130 167 130Q166 122 161.5 116.0Q157 110 153.0 103.5Q149 97 147.0 89.5Q145 82 149 72Q141 66 139.0 55.0Q137 44 134.5 34.0Q132 24 126.0 17.0Q120 10 104 11Q101 7 103.0 6.0Q105 5 106 -1Q95 1 89.5 -2.5Q84 -6 76 -7Q57 -1 44.5 14.0Q32 29 22.5 47.5Q13 66 5.5 85.0Q-2 104 -9 118Q-6 129 -8.0 139.5Q-10 150 -15 157Q34 261 92.0 379.0Q150 497 202 612Q225 603 247.5 591.5Q270 580 288.5 565.0Q307 550 320.0 530.5Q333 511 337 487Q335 481 332.5 482.5Q330 484 328 481Q332 476 332.5 474.0Q333 472 332.5 470.0Q332 468 332.0 464.5Q332 461 335 455Q331 456 329.5 454.0Q328 452 323 454Q327 443 325.5 436.0Q324 429 321.0 423.5Q318 418 316.0 411.5Q314 405 317 395Q314 395 312.5 393.5Q311 392 310.0 390.5Q309 389 307.5 387.5Q306 386 303 387Q306 365 305.0 343.0Q304 321 303.5 298.5Q303 276 304.0 251.5Q305 227 311 201Q347 222 368.5 255.0Q390 288 403.5 329.0Q417 370 424.0 417.0Q431 464 439 513Q448 522 453.0 535.0Q458 548 462.0 562.5Q466 577 470.0 591.5Q474 606 480 618Q495 616 505.5 608.5Q516 601 525.0 592.5Q534 584 544.0 576.5Q554 569 569 567Q581 550 591.0 534.0Q601 518 604 500Q599 492 596.5 482.0Q594 472 591.0 462.0Q588 452 583.0 443.5Q578 435 569 429Q566 403 561.5 381.5Q557 360 552.5 339.0Q548 318 545.0 295.5Q542 273 543 246Q535 223 526.0 197.0Q517 171 512 150Q496 137 487.0 119.0Q478 101 468 83Q464 79 463.0 81.0Q462 83 456 84Q457 80 456.0 78.0Q455 76 453.5 74.5Q452 73 451.5 70.0Q451 67 453 62Q439 56 428.0 45.0Q417 34 404.5 25.0Q392 16 374.5 13.0Q357 10 329 20Q288 50 256.5 89.0Q225 128 205 182Z"/></g>
    <g transform="translate(6453, 0)"><path d="M493 270Q492 265 491.0 261.5Q490 258 489.0 255.0Q488 252 488.0 247.5Q488 243 488 236Q458 183 412.5 147.0Q367 111 312.5 83.5Q258 56 199.0 33.5Q140 11 84 -15Q60 -9 47.5 5.0Q35 19 28.5 37.5Q22 56 19.5 78.5Q17 101 15 125Q18 136 23.5 143.5Q29 151 29 165Q37 191 45.0 216.0Q53 241 55 267Q58 275 66 278Q71 326 66.5 375.5Q62 425 50 468Q51 478 52.5 482.5Q54 487 52 489Q51 497 57.5 497.0Q64 497 71 497Q71 512 65.5 527.0Q60 542 55 561Q62 576 64.0 590.5Q66 605 73 616Q127 599 176.5 575.0Q226 551 274 540Q310 514 348.0 488.5Q386 463 417.0 432.5Q448 402 469.0 363.0Q490 324 493 270ZM256 215Q277 223 297.5 232.0Q318 241 335.5 252.5Q353 264 367.0 279.0Q381 294 390 315Q384 327 374.0 336.5Q364 346 354.0 354.5Q344 363 334.5 372.0Q325 381 319 394Q306 396 296.0 401.5Q286 407 276.5 412.5Q267 418 256.5 423.0Q246 428 232 429Q210 440 192.5 445.0Q175 450 166 458Q159 458 155 455Q165 417 170.0 383.5Q175 350 175.5 316.5Q176 283 172.0 248.0Q168 213 161 172Q171 173 179.5 176.5Q188 180 196.5 184.0Q205 188 214.5 191.5Q224 195 237 196Q240 202 245.5 206.0Q251 210 256 215Z"/></g>
    <g transform="translate(6962, 0)"><path d="M558 563Q559 556 558.5 552.5Q558 549 557.5 546.0Q557 543 557.0 539.5Q557 536 559 529Q538 495 510.5 482.5Q483 470 451.0 464.5Q419 459 385.5 453.0Q352 447 319 427Q306 432 295.5 427.0Q285 422 265 424Q259 418 250.0 415.5Q241 413 232 410Q236 401 235.5 391.5Q235 382 238 376Q273 373 315.5 377.0Q358 381 399 382Q400 377 398.0 375.5Q396 374 397 370Q404 365 411.0 357.5Q418 350 425.0 343.0Q432 336 439.5 331.5Q447 327 457 328Q461 320 462.5 310.5Q464 301 460 291Q444 280 428.0 268.5Q412 257 394.5 248.0Q377 239 357.5 233.5Q338 228 314 229Q309 229 306.5 229.0Q304 229 300 232Q292 227 277.5 229.0Q263 231 255 226Q244 231 228.5 230.5Q213 230 201 234Q185 213 172.0 189.0Q159 165 149 138Q183 133 205.5 134.0Q228 135 248.0 137.5Q268 140 289.0 142.5Q310 145 342 144Q362 155 389.5 158.5Q417 162 440 170Q448 167 454.0 159.5Q460 152 465.5 145.5Q471 139 477.0 134.0Q483 129 492 130Q496 126 497.5 120.5Q499 115 500.0 110.0Q501 105 503.5 101.5Q506 98 512 99Q497 66 477.5 48.5Q458 31 433.0 22.0Q408 13 377.5 8.0Q347 3 310 -4Q301 -6 295.0 -3.5Q289 -1 281 -1Q258 -6 226.0 -10.0Q194 -14 161.0 -13.0Q128 -12 98.0 -4.5Q68 3 49 22Q41 29 38.5 38.5Q36 48 25 53Q24 66 21.0 82.0Q18 98 15.0 115.5Q12 133 10.5 150.0Q9 167 12 181Q15 196 24.5 208.0Q34 220 31 234Q36 235 37.0 239.5Q38 244 45 243Q51 261 58.0 277.0Q65 293 72.5 308.0Q80 323 87.5 338.5Q95 354 102 373Q88 386 81.5 401.5Q75 417 72.0 432.5Q69 448 67.0 464.5Q65 481 60 498Q70 513 84.5 522.5Q99 532 116.0 538.0Q133 544 153.0 548.0Q173 552 195 557Q235 570 266.5 577.0Q298 584 328.5 588.5Q359 593 392.0 597.0Q425 601 467 609Q476 600 484 600Q488 609 493.5 605.5Q499 602 498 611Q508 594 523.5 582.5Q539 571 558 563Z"/></g>
    <g transform="translate(7496, 0)"><path d="M161 104Q150 64 141.5 43.5Q133 23 116 1Q103 3 98.0 -2.0Q93 -7 87 -11Q78 -13 74.0 -11.0Q70 -9 67.0 -6.5Q64 -4 59.5 -1.5Q55 1 46 1Q44 9 41.5 16.0Q39 23 28 21Q30 29 29.0 34.5Q28 40 26.5 44.5Q25 49 24.0 53.5Q23 58 25 65Q20 65 17.0 72.0Q14 79 10 86Q13 104 16.0 120.0Q19 136 23.5 150.0Q28 164 31.0 178.0Q34 192 28 207Q32 204 34.0 208.5Q36 213 37.0 220.5Q38 228 38.0 235.5Q38 243 37 248Q47 274 53.5 301.5Q60 329 65.5 356.0Q71 383 77.0 409.0Q83 435 93 457Q104 459 117.5 454.5Q131 450 134 443Q160 463 180.0 491.5Q200 520 221.0 547.0Q242 574 267.5 595.0Q293 616 332 620Q352 605 376.5 589.5Q401 574 417 549Q425 545 430.5 540.5Q436 536 444 531V519Q456 508 463.5 493.5Q471 479 477.0 462.5Q483 446 489.0 429.5Q495 413 503 398Q501 393 501.0 389.5Q501 386 502.5 382.0Q504 378 505.0 374.0Q506 370 505 363Q502 319 476.5 292.0Q451 265 415.0 247.5Q379 230 338.0 218.0Q297 206 264 192Q264 188 267.5 188.0Q271 188 270 183Q294 168 308.0 159.0Q322 150 334.5 144.0Q347 138 361.5 133.5Q376 129 402 123Q428 117 442.5 113.5Q457 110 469.0 107.5Q481 105 493.5 103.5Q506 102 529 100Q538 91 544.5 78.5Q551 66 553.0 53.5Q555 41 554.0 29.5Q553 18 547 11Q548 8 551.5 8.5Q555 9 559 8Q553 4 549.0 -2.0Q545 -8 541.0 -14.0Q537 -20 532.0 -24.5Q527 -29 518 -30Q487 -42 440.0 -31.5Q393 -21 321 7Q285 21 262.5 31.5Q240 42 223.5 52.5Q207 63 193.5 75.0Q180 87 161 104ZM304 447Q293 431 279.5 418.0Q266 405 253.5 391.5Q241 378 231.0 361.5Q221 345 217 323Q252 327 290.0 342.5Q328 358 362 372Q358 403 340.5 422.0Q323 441 304 447Z"/></g>
  </g>
</svg>