<svg xmlns="http://www.w3.org/2000/svg" width="198.6" height="24">
  <path d="M0 237Q0 248 3.0 257.0Q6 266 4 280Q35 346 74.5 402.5Q114 459 169 502Q178 509 183.5 516.5Q189 524 194.5 531.0Q200 538 207.0 543.5Q214 549 225 551Q250 580 285.0 604.0Q320 628 358.0 650.0Q396 672 434.5 695.0Q473 718 504 745Q515 738 521.5 740.5Q528 743 535 741Q544 722 558.5 714.5Q573 707 588.5 699.5Q604 692 617.5 681.5Q631 671 638 653Q631 653 631.5 648.0Q632 643 634.0 637.0Q636 631 636.0 626.0Q636 621 627 621Q627 614 634.0 614.0Q641 614 641 607Q641 601 638.5 597.5Q636 594 638 586Q614 570 584.5 555.5Q555 541 522.5 525.0Q490 509 456.5 490.5Q423 472 390 448Q357 424 323.5 395.0Q290 366 259.0 333.5Q228 301 201.0 266.5Q174 232 155 199Q157 194 160.5 190.0Q164 186 166 181Q204 179 237.0 181.5Q270 184 303 177Q307 180 308.0 185.0Q309 190 314 192Q382 199 441.0 214.5Q500 230 561 246Q543 253 529 257Q523 263 529.5 267.5Q536 272 540 277Q524 286 513.5 301.0Q503 316 501 340Q508 346 508.0 354.0Q508 362 501 367Q496 369 495.0 367.0Q494 365 493.5 363.0Q493 361 491.5 359.0Q490 357 486 359Q487 370 491.0 377.0Q495 384 497 394L580 449Q593 439 612.0 428.0Q631 417 652.0 406.0Q673 395 695.0 383.5Q717 372 736 361Q754 353 767.0 341.5Q780 330 792.0 317.5Q804 305 816.0 293.0Q828 281 845 273Q843 257 847.0 247.0Q851 237 849 223Q830 189 803.0 165.5Q776 142 742.5 125.0Q709 108 671.0 96.5Q633 85 593.0 74.5Q553 64 512.5 52.5Q472 41 433 26Q416 26 404.0 25.0Q392 24 381.0 22.0Q370 20 359.0 18.0Q348 16 335 15Q330 16 328.5 13.0Q327 10 324 8Q304 5 288.0 5.0Q272 5 261 5Q247 5 232.0 1.0Q217 -3 204 -2Q114 2 63.0 62.0Q12 122 7 227Q8 232 5.0 233.5Q2 235 0 237Z" transform="translate(2.0, 24.625) scale(0.0234375, -0.0234375)" fill="#FFFFFF"/>
<path d="M529 84Q523 67 511.5 49.5Q500 32 484.5 18.5Q469 5 450.0 -4.0Q431 -13 410 -14Q397 -11 392.5 -7.5Q388 -4 383 -1Q380 1 377.5 2.5Q375 4 373 5L361 10L365 23Q367 31 364.0 35.5Q361 40 352 48Q349 51 346.0 54.0Q343 57 341 60L324 79L351 86Q376 93 384.5 104.0Q393 115 391 141Q371 145 357.5 142.0Q344 139 330 135Q312 130 293.5 126.5Q275 123 253 123Q245 123 238.0 123.5Q231 124 223 125L213 127Q211 138 209.0 139.5Q207 141 205 143Q200 148 194.5 156.5Q189 165 192 178Q187 187 186 196Q180 184 177 171L173 161L163 159Q161 158 160.0 154.5Q159 151 159 149L154 132Q152 130 150.0 128.5Q148 127 146 125Q144 116 141.0 107.0Q138 98 135 90Q130 77 126.5 64.5Q123 52 124 40L120 29Q115 23 109.0 19.5Q103 16 97 13Q95 11 91.5 9.5Q88 8 86 7L83 -4L71 -6Q60 -8 55.5 -9.0Q51 -10 45 -10L35 -9Q24 0 18.0 5.5Q12 11 4 16Q-5 28 -6.0 34.0Q-7 40 -8 45Q-10 51 -10.5 55.0Q-11 59 -13 61L-26 73L-15 82L-14 99Q6 150 28.5 197.0Q51 244 75 293Q83 309 90.5 325.0Q98 341 106 357Q105 360 105.0 364.0Q105 368 107 373Q118 390 125.0 403.5Q132 417 139 431Q147 448 155.5 464.0Q164 480 177 497L193 504Q196 505 200.0 506.5Q204 508 209 508L224 506Q252 519 273.0 542.5Q294 566 316 599L326 613L339 605Q344 602 353.0 599.5Q362 597 372 594Q390 590 406.0 585.0Q422 580 432 570Q438 554 439.0 546.0Q440 538 442 530Q445 513 447.5 496.0Q450 479 451 458Q456 441 459.5 424.5Q463 408 466 391Q471 367 476.0 344.5Q481 322 489 302Q497 302 499 301Q504 303 509.5 304.0Q515 305 522 306L533 307L537 297Q538 292 547 287Q560 286 566.0 281.5Q572 277 577 272Q581 268 585 266L600 260L592 245Q582 227 563.5 210.5Q545 194 522 183Q523 177 523.5 171.5Q524 166 526 160Q529 143 531.0 125.0Q533 107 531 88ZM240 257Q270 259 294.5 261.5Q319 264 349 270Q342 300 334.0 332.5Q326 365 317 397L311 387Q291 366 272.5 340.0Q254 314 241 291Q235 282 229.0 273.0Q223 264 218 255Q224 256 229.5 256.0Q235 256 240 257Z" transform="translate(20.9375, 24.625) scale(0.0234375, -0.0234375)" fill="#FFFFFF"/>
<path d="M692 18Q682 13 673.5 9.0Q665 5 654 5Q615 34 613.5 106.0Q612 178 644 289Q649 292 649 301L640 311Q636 311 632.5 310.0Q629 309 627 303Q601 284 570.0 263.5Q539 243 505.5 225.5Q472 208 437.5 197.0Q403 186 370 186Q286 186 244 271L236 286L228 273Q225 269 219.0 256.5Q213 244 207.0 228.0Q201 212 196.5 195.5Q192 179 193 167Q184 158 174.0 146.0Q164 134 159 119Q157 111 161 104Q159 95 152 90Q148 85 143.5 80.5Q139 76 136 71Q134 66 133.5 61.0Q133 56 132 51Q132 44 130 38Q113 3 103.0 -7.5Q93 -18 76 -18Q68 -18 50 -15Q37 -1 26.5 23.5Q16 48 10.5 76.0Q5 104 5.5 132.5Q6 161 15 182Q15 183 23.0 202.0Q31 221 43.5 251.0Q56 281 72.0 317.5Q88 354 104.0 388.5Q120 423 134.5 452.0Q149 481 159 496Q167 508 173.5 518.5Q180 529 186 539Q204 570 220.5 590.5Q237 611 269 623Q291 614 301 602L303 591Q307 581 315 581Q326 578 333.5 575.5Q341 573 350 571Q357 563 363 552Q371 540 378.5 528.5Q386 517 390.5 505.5Q395 494 395.5 482.0Q396 470 391 457L392 447Q397 438 394 422Q393 415 393.0 407.5Q393 400 395 391Q413 377 427 377Q443 377 456.5 384.5Q470 392 482 400Q490 406 498.0 410.5Q506 415 514 416Q532 433 546.5 446.0Q561 459 577 472Q607 496 635.0 524.0Q663 552 680 594Q690 600 701 600Q712 600 724.0 595.0Q736 590 747 585Q750 583 752.5 582.0Q755 581 757 580Q757 570 765 563Q769 560 770.0 559.0Q771 558 773 557Q788 549 792 541Q799 518 817 506Q815 496 817.5 487.5Q820 479 824 470Q825 467 826.0 464.0Q827 461 829 457L810 459L813 440Q815 426 810.5 409.0Q806 392 800 382Q801 356 801.5 341.5Q802 327 800.0 314.5Q798 302 794.5 291.0Q791 280 785 267Q789 203 770.5 150.5Q752 98 732 52Q730 47 727.5 42.0Q725 37 723 32Q714 29 707.0 25.5Q700 22 692 18Z" transform="translate(34.8828125, 24.625) scale(0.0234375, -0.0234375)" fill="#FFFFFF"/>
<path d="M558 563Q559 556 558.5 552.5Q558 549 557.5 546.0Q557 543 557.0 539.5Q557 536 559 529Q538 495 510.5 482.5Q483 470 451.0 464.5Q419 459 385.5 453.0Q352 447 319 427Q306 432 295.5 427.0Q285 422 265 424Q259 418 250.0 415.5Q241 413 232 410Q236 401 235.5 391.5Q235 382 238 376Q273 373 315.5 377.0Q358 381 399 382Q400 377 398.0 375.5Q396 374 397 370Q404 365 411.0 357.5Q418 350 425.0 343.0Q432 336 439.5 331.5Q447 327 457 328Q461 320 462.5 310.5Q464 301 460 291Q444 280 428.0 268.5Q412 257 394.5 248.0Q377 239 357.5 233.5Q338 228 314 229Q309 229 306.5 229.0Q304 229 300 232Q292 227 277.5 229.0Q263 231 255 226Q244 231 228.5 230.5Q213 230 201 234Q185 213 172.0 189.0Q159 165 149 138Q183 133 205.5 134.0Q228 135 248.0 137.5Q268 140 289.0 142.5Q310 145 342 144Q362 155 389.5 158.5Q417 162 440 170Q448 167 454.0 159.5Q460 152 465.5 145.5Q471 139 477.0 134.0Q483 129 492 130Q496 126 497.5 120.5Q499 115 500.0 110.0Q501 105 503.5 101.5Q506 98 512 99Q497 66 477.5 48.5Q458 31 433.0 22.0Q408 13 377.5 8.0Q347 3 310 -4Q301 -6 295.0 -3.5Q289 -1 281 -1Q258 -6 226.0 -10.0Q194 -14 161.0 -13.0Q128 -12 98.0 -4.5Q68 3 49 22Q41 29 38.5 38.5Q36 48 25 53Q24 66 21.0 82.0Q18 98 15.0 115.5Q12 133 10.5 150.0Q9 167 12 181Q15 196 24.5 208.0Q34 220 31 234Q36 235 37.0 239.5Q38 244 45 243Q51 261 58.0 277.0Q65 293 72.5 308.0Q80 323 87.5 338.5Q95 354 102 373Q88 386 81.5 401.5Q75 417 72.0 432.5Q69 448 67.0 464.5Q65 481 60 498Q70 513 84.5 522.5Q99 532 116.0 538.0Q133 544 153.0 548.0Q173 552 195 557Q235 570 266.5 577.0Q298 584 328.5 588.5Q359 593 392.0 597.0Q425 601 467 609Q476 600 484 600Q488 609 493.5 605.5Q499 602 498 611Q508 594 523.5 582.5Q539 571 558 563Z" transform="translate(54.4296875, 24.625) scale(0.0234375, -0.0234375)" fill="#FFFFFF"/>
<path d="M90 -14Q80 -14 59 -11Q43 6 30.5 35.5Q18 65 11.5 98.5Q5 132 5.5 165.5Q6 199 17 225Q17 226 26.5 249.0Q36 272 51.0 307.5Q66 343 85.0 386.5Q104 430 123.0 472.0Q142 514 159.5 548.5Q177 583 190 602Q199 616 206.5 629.0Q214 642 221 653Q232 671 241.5 686.5Q251 702 262.5 714.5Q274 727 288.0 736.5Q302 746 322 753Q334 748 343.0 742.5Q352 737 359 729L362 715Q364 708 368.5 705.5Q373 703 376 703Q389 700 398.5 696.5Q408 693 419 692Q423 686 426.5 680.0Q430 674 434 669Q454 640 467.0 613.0Q480 586 467 554L468 543Q473 536 473.0 530.0Q473 524 471 513Q470 505 469.5 495.5Q469 486 472 475L479 467Q495 459 510 459Q530 459 546.0 468.0Q562 477 576 486Q587 494 596.5 499.0Q606 504 615 506Q636 526 653.5 541.5Q671 557 690 573Q726 602 760.0 635.5Q794 669 814 719Q825 726 839 726Q853 726 867.0 720.5Q881 715 895 708Q898 706 900.5 705.0Q903 704 906 702Q906 691 915 682Q920 678 922.0 677.0Q924 676 926 675Q934 670 939.5 666.0Q945 662 948 655Q957 628 978 613Q976 602 979.0 591.5Q982 581 986 571Q988 567 989.0 563.5Q990 560 992 555L970 557L973 535Q976 518 970.5 497.0Q965 476 958 464Q960 434 960.0 416.5Q960 399 958.0 384.0Q956 369 951.5 355.5Q947 342 940 327Q944 251 922.5 188.0Q901 125 876 70Q873 63 870.0 57.0Q867 51 865 45Q854 42 845.0 38.0Q836 34 828 29Q817 22 806.0 17.5Q795 13 783 13Q735 48 733.5 134.0Q732 220 770 353Q777 358 776 368V379L766 380Q761 380 757.0 379.0Q753 378 751 370Q719 347 681.5 322.5Q644 298 604.0 277.5Q564 257 522.5 243.5Q481 230 442 230Q342 230 291 332L282 350L272 334Q269 329 261.5 314.5Q254 300 246.5 281.0Q239 262 233.5 242.0Q228 222 230 207Q218 196 206.5 182.0Q195 168 190 150Q188 145 189.0 140.5Q190 136 192 131Q191 124 188.0 121.0Q185 118 181 115Q176 110 171.0 104.5Q166 99 162 92Q160 86 159.0 79.5Q158 73 157 68Q157 57 154 53Q144 32 136.5 18.5Q129 5 122.0 -2.0Q115 -9 107.5 -11.5Q100 -14 90 -14Z" transform="translate(75.828125, 24.625) scale(0.0234375, -0.0234375)" fill="#FFFFFF"/>
<path d="M558 563Q559 556 558.5 552.5Q558 549 557.5 546.0Q557 543 557.0 539.5Q557 536 559 529Q538 495 510.5 482.5Q483 470 451.0 464.5Q419 459 385.5 453.0Q352 447 319 427Q306 432 295.5 427.0Q285 422 265 424Q259 418 250.0 415.5Q241 413 232 410Q236 401 235.5 391.5Q235 382 238 376Q273 373 315.5 377.0Q358 381 399 382Q400 377 398.0 375.5Q396 374 397 370Q404 365 411.0 357.5Q418 350 425.0 343.0Q432 336 439.5 331.5Q447 327 457 328Q461 320 462.5 310.5Q464 301 460 291Q444 280 428.0 268.5Q412 257 394.5 248.0Q377 239 357.5 233.5Q338 228 314 229Q309 229 306.5 229.0Q304 229 300 232Q292 227 277.5 229.0Q263 231 255 226Q244 231 228.5 230.5Q213 230 201 234Q185 213 172.0 189.0Q159 165 149 138Q183 133 205.5 134.0Q228 135 248.0 137.5Q268 140 289.0 142.5Q310 145 342 144Q362 155 389.5 158.5Q417 162 440 170Q448 167 454.0 159.5Q460 152 465.5 145.5Q471 139 477.0 134.0Q483 129 492 130Q496 126 497.5 120.5Q499 115 500.0 110.0Q501 105 503.5 101.5Q506 98 512 99Q497 66 477.5 48.5Q458 31 433.0 22.0Q408 13 377.5 8.0Q347 3 310 -4Q301 -6 295.0 -3.5Q289 -1 281 -1Q258 -6 226.0 -10.0Q194 -14 161.0 -13.0Q128 -12 98.0 -4.5Q68 3 49 22Q41 29 38.5 38.5Q36 48 25 53Q24 66 21.0 82.0Q18 98 15.0 115.5Q12 133 10.5 150.0Q9 167 12 181Q15 196 24.5 208.0Q34 220 31 234Q36 235 37.0 239.5Q38 244 45 243Q51 261 58.0 277.0Q65 293 72.5 308.0Q80 323 87.5 338.5Q95 354 102 373Q88 386 81.5 401.5Q75 417 72.0 432.5Q69 448 67.0 464.5Q65 481 60 498Q70 513 84.5 522.5Q99 532 116.0 538.0Q133 544 153.0 548.0Q173 552 195 557Q235 570 266.5 577.0Q298 584 328.5 588.5Q359 593 392.0 597.0Q425 601 467 609Q476 600 484 600Q488 609 493.5 605.5Q499 602 498 611Q508 594 523.5 582.5Q539 571 558 563Z" transform="translate(99.1953125, 24.625) scale(0.0234375, -0.0234375)" fill="#FFFFFF"/>
<path d="M416 -2Q400 -3 376.5 -1.0Q353 1 333 -8Q280 -6 225.0 5.0Q170 16 124 32Q114 43 104.0 52.5Q94 62 77 66Q53 85 38.0 112.5Q23 140 14.0 171.0Q5 202 2.0 234.5Q-1 267 0 297Q15 342 42.5 374.5Q70 407 99 439Q112 445 118.5 451.5Q125 458 132.5 463.5Q140 469 147.5 474.5Q155 480 161 488Q182 493 197.5 502.5Q213 512 228.0 522.5Q243 533 259.0 542.0Q275 551 296 556Q304 565 315.0 570.5Q326 576 337.5 581.5Q349 587 359.5 593.0Q370 599 376 609Q381 601 390.0 603.5Q399 606 407 609Q412 610 415.5 607.0Q419 604 422.0 601.0Q425 598 427.5 597.5Q430 597 432 602Q437 602 435.0 597.0Q433 592 432 590Q440 591 445.5 586.5Q451 582 463 581Q467 576 465.0 573.5Q463 571 463 565Q493 556 501.0 536.5Q509 517 502.0 496.0Q495 475 477.0 457.0Q459 439 438 433Q390 420 347.5 404.5Q305 389 278 359Q254 352 235.5 340.5Q217 329 200.5 314.5Q184 300 169.5 284.5Q155 269 139 254Q140 240 134.5 232.5Q129 225 124 217Q126 202 131.0 190.5Q136 179 142 168Q208 148 282.5 143.0Q357 138 432 137Q439 127 448.5 118.5Q458 110 466.0 100.5Q474 91 479.0 79.5Q484 68 481 51Q467 36 450.0 23.5Q433 11 416 -2Z" transform="translate(111.7109375, 24.625) scale(0.0234375, -0.0234375)" fill="#FFFFFF"/>
<path d="M512 97Q514 71 506.0 54.0Q498 37 484.0 25.0Q470 13 452.0 6.0Q434 -1 417 -7Q409 -2 401.5 3.5Q394 9 384 12Q371 36 359.0 54.5Q347 73 348 97Q348 98 349.5 108.0Q351 118 353.5 130.0Q356 142 357.5 152.5Q359 163 359 164Q336 162 311.0 154.0Q286 146 262.5 135.0Q239 124 218.5 113.0Q198 102 185 94Q185 91 181.0 79.5Q177 68 171.0 55.5Q165 43 158.0 33.0Q151 23 144 23Q145 20 147.0 17.0Q149 14 147 9Q133 5 122.0 -1.5Q111 -8 99.0 -12.5Q87 -17 73.0 -17.0Q59 -17 40 -7Q40 -1 35.0 3.5Q30 8 24.5 11.5Q19 15 15.0 17.5Q11 20 11 22Q6 21 7.0 29.0Q8 37 15 33Q4 47 1.5 57.5Q-1 68 -10 84Q-8 86 -6.5 91.0Q-5 96 -4.0 100.0Q-3 104 -1.0 106.0Q1 108 4 105Q2 114 4.0 120.0Q6 126 8.0 131.0Q10 136 11.0 141.0Q12 146 8 152Q24 174 29.0 199.5Q34 225 35 246Q42 253 47.5 266.0Q53 279 56.0 292.5Q59 306 58.5 318.5Q58 331 55 339Q56 344 66 342Q72 375 74.5 416.5Q77 458 83.0 495.5Q89 533 103.0 561.5Q117 590 148 599Q154 578 163.5 562.0Q173 546 184.5 531.5Q196 517 207.5 502.0Q219 487 229 468Q228 449 225.0 424.0Q222 399 217.5 373.0Q213 347 208.5 323.0Q204 299 200 282Q201 277 205.5 276.0Q210 275 207 267Q231 273 257.0 278.0Q283 283 309.0 289.0Q335 295 359.5 302.5Q384 310 405 321Q410 360 418.0 399.0Q426 438 420 479Q425 483 428.0 489.0Q431 495 438 497Q433 516 434.0 537.0Q435 558 441.5 577.0Q448 596 460.5 609.5Q473 623 491 627Q502 611 510.0 592.5Q518 574 526.5 555.5Q535 537 544.5 520.5Q554 504 569 492Q572 463 573.5 432.0Q575 401 576 369Q568 331 558.5 295.5Q549 260 545 220Q538 212 534.0 202.0Q530 192 526.0 181.5Q522 171 517.0 161.5Q512 152 505 145Q509 133 506.5 122.5Q504 112 512 97Z" transform="translate(124.0390625, 24.625) scale(0.0234375, -0.0234375)" fill="#FFFFFF"/>
<path d="M529 84Q523 67 511.5 49.5Q500 32 484.5 18.5Q469 5 450.0 -4.0Q431 -13 410 -14Q397 -11 392.5 -7.5Q388 -4 383 -1Q380 1 377.5 2.5Q375 4 373 5L361 10L365 23Q367 31 364.0 35.5Q361 40 352 48Q349 51 346.0 54.0Q343 57 341 60L324 79L351 86Q376 93 384.5 104.0Q393 115 391 141Q371 145 357.5 142.0Q344 139 330 135Q312 130 293.5 126.5Q275 123 253 123Q245 123 238.0 123.5Q231 124 223 125L213 127Q211 138 209.0 139.5Q207 141 205 143Q200 148 194.5 156.5Q189 165 192 178Q187 187 186 196Q180 184 177 171L173 161L163 159Q161 158 160.0 154.5Q159 151 159 149L154 132Q152 130 150.0 128.5Q148 127 146 125Q144 116 141.0 107.0Q138 98 135 90Q130 77 126.5 64.5Q123 52 124 40L120 29Q115 23 109.0 19.5Q103 16 97 13Q95 11 91.5 9.5Q88 8 86 7L83 -4L71 -6Q60 -8 55.5 -9.0Q51 -10 45 -10L35 -9Q24 0 18.0 5.5Q12 11 4 16Q-5 28 -6.0 34.0Q-7 40 -8 45Q-10 51 -10.5 55.0Q-11 59 -13 61L-26 73L-15 82L-14 99Q6 150 28.5 197.0Q51 244 75 293Q83 309 90.5 325.0Q98 341 106 357Q105 360 105.0 364.0Q105 368 107 373Q118 390 125.0 403.5Q132 417 139 431Q147 448 155.5 464.0Q164 480 177 497L193 504Q196 505 200.0 506.5Q204 508 209 508L224 506Q252 519 273.0 542.5Q294 566 316 599L326 613L339 605Q344 602 353.0 599.5Q362 597 372 594Q390 590 406.0 585.0Q422 580 432 570Q438 554 439.0 546.0Q440 538 442 530Q445 513 447.5 496.0Q450 479 451 458Q456 441 459.5 424.5Q463 408 466 391Q471 367 476.0 344.5Q481 322 489 302Q497 302 499 301Q504 303 509.5 304.0Q515 305 522 306L533 307L537 297Q538 292 547 287Q560 286 566.0 281.5Q572 277 577 272Q581 268 585 266L600 260L592 245Q582 227 563.5 210.5Q545 194 522 183Q523 177 523.5 171.5Q524 166 526 160Q529 143 531.0 125.0Q533 107 531 88ZM240 257Q270 259 294.5 261.5Q319 264 349 270Q342 300 334.0 332.5Q326 365 317 397L311 387Q291 366 272.5 340.0Q254 314 241 291Q235 282 229.0 273.0Q223 264 218 255Q224 256 229.5 256.0Q235 256 240 257Z" transform="translate(138.0078125, 24.625) scale(0.0234375, -0.0234375)" fill="#FFFFFF"/>
<path d="M205 182Q196 180 192.0 171.5Q188 163 184.5 154.0Q181 145 177.5 137.5Q174 130 167 130Q166 122 161.5 116.0Q157 110 153.0 103.5Q149 97 147.0 89.5Q145 82 149 72Q141 66 139.0 55.0Q137 44 134.5 34.0Q132 24 126.0 17.0Q120 10 104 11Q101 7 103.0 6.0Q105 5 106 -1Q95 1 89.5 -2.5Q84 -6 76 -7Q57 -1 44.5 14.0Q32 29 22.5 47.5Q13 66 5.5 85.0Q-2 104 -9 118Q-6 129 -8.0 139.5Q-10 150 -15 157Q34 261 92.0 379.0Q150 497 202 612Q225 603 247.5 591.5Q270 580 288.5 565.0Q307 550 320.0 530.5Q333 511 337 487Q335 481 332.5 482.5Q330 484 328 481Q332 476 332.5 474.0Q333 472 332.5 470.0Q332 468 332.0 464.5Q332 461 335 455Q331 456 329.5 454.0Q328 452 323 454Q327 443 325.5 436.0Q324 429 321.0 423.5Q318 418 316.0 411.5Q314 405 317 395Q314 395 312.5 393.5Q311 392 310.0 390.5Q309 389 307.5 387.5Q306 386 303 387Q306 365 305.0 343.0Q304 321 303.5 298.5Q303 276 304.0 251.5Q305 227 311 201Q347 222 368.5 255.0Q390 288 403.5 329.0Q417 370 424.0 417.0Q431 464 439 513Q448 522 453.0 535.0Q458 548 462.0 562.5Q466 577 470.0 591.5Q474 606 480 618Q495 616 505.5 608.5Q516 601 525.0 592.5Q534 584 544.0 576.5Q554 569 569 567Q581 550 591.0 534.0Q601 518 604 500Q599 492 596.5 482.0Q594 472 591.0 462.0Q588 452 583.0 443.5Q578 435 569 429Q566 403 561.5 381.5Q557 360 552.5 339.0Q548 318 545.0 295.5Q542 273 543 246Q535 223 526.0 197.0Q517 171 512 150Q496 137 487.0 119.0Q478 101 468 83Q464 79 463.0 81.0Q462 83 456 84Q457 80 456.0 78.0Q455 76 453.5 74.5Q452 73 451.5 70.0Q451 67 453 62Q439 56 428.0 45.0Q417 34 404.5 25.0Q392 16 374.5 13.0Q357 10 329 20Q288 50 256.5 89.0Q225 128 205 182Z" transform="translate(151.953125, 24.625) scale(0.0234375, -0.0234375)" fill="#FFFFFF"/>
<path d="M212 70Q217 40 208.5 23.0Q200 6 184.5 -2.5Q169 -11 149.0 -12.0Q129 -13 111 -10Q101 4 93.0 25.0Q85 46 78.0 68.5Q71 91 65.5 113.0Q60 135 56 152Q61 164 62.5 179.5Q64 195 64.5 211.0Q65 227 65.5 243.5Q66 260 68 275Q75 317 88.5 355.0Q102 393 110 434Q112 443 108.5 451.0Q105 459 107 466Q108 470 113.0 471.5Q118 473 119 478Q122 489 120.5 496.0Q119 503 124 513Q129 521 136.5 536.5Q144 552 142 569Q151 575 159.0 583.0Q167 591 175.5 597.5Q184 604 194.5 609.0Q205 614 220 614Q228 604 230.5 592.0Q233 580 235.5 568.0Q238 556 243.0 545.5Q248 535 260 529Q260 521 260.0 509.0Q260 497 261.0 485.5Q262 474 265.5 464.5Q269 455 277 452Q259 404 243.5 357.0Q228 310 218.0 262.5Q208 215 205.5 167.0Q203 119 212 70Z" transform="translate(165.5, 24.625) scale(0.0234375, -0.0234375)" fill="#FFFFFF"/>
<path d="M416 -2Q400 -3 376.5 -1.0Q353 1 333 -8Q280 -6 225.0 5.0Q170 16 124 32Q114 43 104.0 52.5Q94 62 77 66Q53 85 38.0 112.5Q23 140 14.0 171.0Q5 202 2.0 234.5Q-1 267 0 297Q15 342 42.5 374.5Q70 407 99 439Q112 445 118.5 451.5Q125 458 132.5 463.5Q140 469 147.5 474.5Q155 480 161 488Q182 493 197.5 502.5Q213 512 228.0 522.5Q243 533 259.0 542.0Q275 551 296 556Q304 565 315.0 570.5Q326 576 337.5 581.5Q349 587 359.5 593.0Q370 599 376 609Q381 601 390.0 603.5Q399 606 407 609Q412 610 415.5 607.0Q419 604 422.0 601.0Q425 598 427.5 597.5Q430 597 432 602Q437 602 435.0 597.0Q433 592 432 590Q440 591 445.5 586.5Q451 582 463 581Q467 576 465.0 573.5Q463 571 463 565Q493 556 501.0 536.5Q509 517 502.0 496.0Q495 475 477.0 457.0Q459 439 438 433Q390 420 347.5 404.5Q305 389 278 359Q254 352 235.5 340.5Q217 329 200.5 314.5Q184 300 169.5 284.5Q155 269 139 254Q140 240 134.5 232.5Q129 225 124 217Q126 202 131.0 190.5Q136 179 142 168Q208 148 282.5 143.0Q357 138 432 137Q439 127 448.5 118.5Q458 110 466.0 100.5Q474 91 479.0 79.5Q484 68 481 51Q467 36 450.0 23.5Q433 11 416 -2Z" transform="translate(173.1875, 24.625) scale(0.0234375, -0.0234375)" fill="#FFFFFF"/>
<path d="M16 450Q23 471 38.5 486.0Q54 501 72.5 511.5Q91 522 111.0 529.0Q131 536 149 541Q189 558 234.5 573.5Q280 589 327.5 601.0Q375 613 425.0 616.5Q475 620 530 604Q533 594 539.0 585.0Q545 576 551.5 567.0Q558 558 563.0 549.5Q568 541 569 532Q579 523 585.0 512.5Q591 502 587 485Q577 477 567.5 470.5Q558 464 547 459Q510 468 472.0 465.0Q434 462 404 460Q395 469 382.5 469.0Q370 469 356.5 465.0Q343 461 329.5 457.0Q316 453 304 455Q294 447 279.5 444.5Q265 442 248 440Q247 435 250.0 433.5Q253 432 251 427Q257 420 266.5 417.0Q276 414 286.5 411.0Q297 408 305.0 403.5Q313 399 316 389Q331 389 342.0 382.0Q353 375 360.0 365.0Q367 355 370.5 343.5Q374 332 374 323Q377 315 381.0 316.0Q385 317 390 312Q393 299 405.0 285.5Q417 272 424 256Q426 231 427.0 211.5Q428 192 420 172Q405 135 378.5 106.0Q352 77 318.5 54.5Q285 32 247.0 16.0Q209 0 173 -11Q169 -10 165.0 -11.0Q161 -12 163 -6Q155 -13 145.5 -15.0Q136 -17 125.0 -16.5Q114 -16 102.5 -15.0Q91 -14 81 -16Q74 -9 68.5 -2.5Q63 4 60 14Q55 14 55.5 19.0Q56 24 52 24Q58 34 57.5 35.5Q57 37 54.5 38.0Q52 39 50.0 40.5Q48 42 49 45Q53 53 52.0 63.5Q51 74 50.0 85.0Q49 96 51.5 106.0Q54 116 66 122Q100 118 130.5 124.5Q161 131 188.0 143.0Q215 155 239.5 169.0Q264 183 288 194Q291 203 296.5 209.0Q302 215 308.0 220.0Q314 225 319.0 231.0Q324 237 326 246Q327 253 322.5 254.5Q318 256 318 262L307 265Q288 276 264.0 283.5Q240 291 223 300Q212 294 202.5 297.0Q193 300 178 303Q144 305 112.5 310.0Q81 315 52 328Q50 333 47.0 337.0Q44 341 36 339Q30 347 24.0 354.5Q18 362 13 371Q15 383 16.0 391.5Q17 400 10 408Q14 421 16.0 429.0Q18 437 16 450Z" transform="translate(185.515625, 24.625) scale(0.0234375, -0.0234375)" fill="#FFFFFF"/>
</svg>