<?xml version="1.0" encoding="UTF-8"?>
<svg xmlns="http://www.w3.org/2000/svg" viewBox="0 0 150.8 18" 
     width="150.8" height="18">
  <g transform="translate(0, 15.299999999999999) scale(0.017578, -0.017578)" fill="#FFFFFF">
    <g transform="translate(0, 0)"><path d="M17 -12Q3 -3 -5.5 11.0Q-14 25 -19.5 41.0Q-25 57 -28.5 74.5Q-32 92 -36 108Q-36 122 -30.0 128.5Q-24 135 -17 141Q7 142 26.0 145.0Q45 148 63.0 151.0Q81 154 99.0 156.5Q117 159 138 159Q153 190 166.0 218.5Q179 247 191 273Q197 298 206.5 319.5Q216 341 225.0 360.5Q234 380 241.0 399.5Q248 419 250 441Q262 476 271.5 505.5Q281 535 286 576Q248 570 225.0 564.5Q202 559 192 554Q172 555 160.5 562.0Q149 569 142.0 579.0Q135 589 130.0 602.0Q125 615 118 629Q122 638 120.0 655.5Q118 673 108 681Q116 683 120.0 694.5Q124 706 121 712Q138 717 157.0 718.5Q176 720 194.5 721.5Q213 723 230.0 725.5Q247 728 259 736Q311 738 367.5 740.0Q424 742 472 745Q490 739 513.5 739.0Q537 739 560.5 736.0Q584 733 602.5 723.0Q621 713 628 688Q643 686 650.5 680.0Q658 674 660.0 665.5Q662 657 661.5 646.5Q661 636 661 626Q645 614 620.5 606.5Q596 599 567.0 594.5Q538 590 506.5 588.5Q475 587 445 586Q440 553 427.5 508.5Q415 464 402.0 421.5Q389 379 379.5 345.5Q370 312 371 302Q361 279 354.5 263.0Q348 247 342.5 233.0Q337 219 331.5 205.5Q326 192 318 175H386Q388 164 395.0 160.0Q402 156 410.0 153.0Q418 150 424.5 145.5Q431 141 431 131Q450 126 455.0 116.0Q460 106 457.5 94.5Q455 83 447.5 71.0Q440 59 433 50Q424 52 416.0 45.5Q408 39 401 31Q372 35 344.0 32.0Q316 29 292 27Q287 26 288.0 21.5Q289 17 286 15Q255 25 222.5 23.0Q190 21 156.5 13.5Q123 6 88.0 -2.5Q53 -11 17 -12Z"/></g>
    <g transform="translate(528, 0)"><path d="M140 34Q134 0 106 -13Q93 -14 86.5 -12.0Q80 -10 73 -7Q64 -3 57 -2L46 6Q44 11 41.0 16.0Q38 21 34 26Q26 36 18 51Q12 80 16.0 99.5Q20 119 26 138Q28 144 30.0 150.5Q32 157 34 163Q8 177 -5.0 203.0Q-18 229 -20 253Q-17 272 -9.0 283.5Q-1 295 9.5 302.0Q20 309 31.5 313.0Q43 317 54 320L67 315Q76 306 85 301Q92 304 94.5 310.5Q97 317 99 325Q102 334 105.5 343.0Q109 352 114 361Q113 374 118 385Q111 390 103 391Q101 391 93 393Q81 402 76.5 408.5Q72 415 68 421Q62 434 53 442L43 449L48 459Q50 461 50.0 464.0Q50 467 46 473Q44 484 46 488L48 498Q56 509 56 510L65 519Q85 524 104.5 530.5Q124 537 144 544Q163 550 182.5 556.5Q202 563 222 568Q229 573 237.0 574.5Q245 576 252 577Q258 578 263.0 578.5Q268 579 270 582Q282 586 298 591Q323 598 364.0 606.5Q405 615 456 620L473 621Q478 620 483.0 620.5Q488 621 493 621Q538 621 550 594Q559 589 566.0 583.0Q573 577 579 571Q582 567 585.5 564.0Q589 561 591 560Q608 534 602 514Q593 501 579 499L568 493Q557 494 551.5 494.0Q546 494 540 494Q515 494 482.0 491.0Q449 488 414.5 482.5Q380 477 348.0 469.0Q316 461 292 452L274 443Q267 432 266.0 425.5Q265 419 264 413Q263 409 262.5 405.0Q262 401 261 396Q244 375 244 346Q237 334 235.0 328.5Q233 323 235 315Q254 307 271.0 309.0Q288 311 305 314Q328 318 352.5 321.0Q377 324 403 324H435L427 316L432 302Q438 299 440.5 298.0Q443 297 446 295L451 286Q455 284 458.5 279.0Q462 274 463 264L422 206L408 202Q391 203 378 198Q371 196 364.0 194.5Q357 193 349 193Q329 189 315.5 187.0Q302 185 288 183Q270 181 253.0 177.5Q236 174 221 168Q211 168 207 168Q199 168 190.5 165.5Q182 163 175 161Q170 157 168.0 152.5Q166 148 164 143Q160 129 153 120V105Q145 95 143.5 89.5Q142 84 140 79Q138 76 137.0 73.5Q136 71 136 68Q144 53 140 34Z"/></g>
    <g transform="translate(1373, 0)"><path d="M149 -33Q61 -21 42 60L43 71Q47 83 52 98Q57 115 63.0 131.5Q69 148 83 161Q86 170 94.5 188.5Q103 207 123 244Q139 273 148.5 290.0Q158 307 164 316Q154 334 136 351Q120 381 108.5 408.5Q97 436 91 458Q90 482 83 507Q80 520 77.0 533.0Q74 546 74 560Q70 567 67 578L69 590Q74 598 71.5 611.5Q69 625 65 639Q62 652 59.5 666.5Q57 681 58.0 695.0Q59 709 65.5 722.0Q72 735 88 744L98 751L108 745Q119 738 129.0 733.0Q139 728 149 723Q161 717 173.0 710.5Q185 704 199 696L209 689L208 678Q208 676 209.0 673.0Q210 670 212 668L223 665L224 651V639Q224 630 225.0 626.5Q226 623 229 619L234 606Q234 588 237.0 574.0Q240 560 244 546Q249 532 252.0 517.5Q255 503 253 486Q259 489 265 495Q267 497 269.5 499.0Q272 501 275 503L345 598L343 610L368 634Q378 642 387.0 650.5Q396 659 402 670L408 679Q453 739 524 753L541 757L546 741Q551 727 565.5 716.5Q580 706 597 696L608 689Q614 677 614.0 671.0Q614 665 613 661L618 648Q607 619 594.0 606.5Q581 594 567 583Q556 574 547.0 565.0Q538 556 533 545L525 535Q500 522 493 497L489 483H474Q473 483 469.0 478.5Q465 474 457 457Q448 445 444.5 441.5Q441 438 439 436Q437 431 435.5 427.0Q434 423 432 417L426 409Q417 401 413.0 393.5Q409 386 404 376Q400 367 395.0 357.5Q390 348 381 339L383 328L375 321Q367 314 361.0 303.5Q355 293 349 282Q343 270 336.0 258.0Q329 246 318 236Q311 218 305.5 208.0Q300 198 287 184Q275 136 230 81Q229 70 223.5 59.5Q218 49 212 40Q210 36 207.5 31.5Q205 27 204 25L201 14Q195 3 188.5 -4.0Q182 -11 176 -17Q173 -19 170.5 -22.0Q168 -25 166 -27Z"/></g>
    <g transform="translate(1878, 0)"><path d="M583 300Q582 288 585.0 277.0Q588 266 592.5 255.5Q597 245 601.0 234.0Q605 223 607 212Q609 198 607.0 181.5Q605 165 600.0 149.5Q595 134 587.0 121.5Q579 109 568 103Q554 85 534.0 75.0Q514 65 497 51Q486 44 472.5 41.0Q459 38 445 35Q434 29 419.0 22.5Q404 16 388.0 10.5Q372 5 356.0 2.5Q340 0 328 1Q298 -10 269.5 -13.5Q241 -17 203 -9Q167 -14 136.5 -6.0Q106 2 82.5 19.5Q59 37 41.5 61.5Q24 86 13 113Q5 170 17.0 216.5Q29 263 51.5 302.5Q74 342 103.0 375.5Q132 409 159 441Q165 439 168.5 441.5Q172 444 175.0 448.5Q178 453 181.5 457.0Q185 461 190 462Q197 477 210.5 484.5Q224 492 232 506Q241 508 247.0 512.0Q253 516 258.5 521.0Q264 526 270.0 530.5Q276 535 284 537V548Q302 556 310.5 566.5Q319 577 331 592Q340 593 345.5 593.0Q351 593 362 595Q370 609 376.5 616.0Q383 623 396 631Q408 625 422.5 623.0Q437 621 448 610Q449 600 454.0 594.5Q459 589 465.0 584.5Q471 580 476.5 575.0Q482 570 484 561Q488 560 489.5 562.0Q491 564 495 563Q498 549 502.0 544.5Q506 540 510 527Q505 517 502.5 506.5Q500 496 490 491Q489 484 494.0 483.5Q499 483 500 478Q501 469 497 465Q521 426 540.0 382.5Q559 339 583 300ZM458 205Q462 216 468.5 223.0Q475 230 476 244Q471 252 470.0 256.5Q469 261 469 271Q447 302 431.0 337.5Q415 373 395 404Q393 400 388.0 396.0Q383 392 377 398Q375 390 370.0 386.5Q365 383 359.0 383.5Q353 384 346.5 386.5Q340 389 335 393Q306 370 277.0 348.0Q248 326 225 297Q221 295 220.0 295.5Q219 296 214 294Q206 275 194.5 259.5Q183 244 172.0 228.0Q161 212 153.0 194.0Q145 176 144 152Q161 138 184.0 135.0Q207 132 231.5 134.0Q256 136 279.5 140.5Q303 145 323 145Q365 155 395.0 171.5Q425 188 458 205Z"/></g>
    <g transform="translate(2522, 0)"><path d="M590 569Q592 547 597.0 531.0Q602 515 608 500Q613 486 617.5 472.5Q622 459 624 440Q616 414 612.5 392.0Q609 370 605 346Q589 311 574.0 284.0Q559 257 550 237Q545 232 541.5 225.5Q538 219 534 212Q532 209 529.0 203.0Q526 197 524 195L504 202L500 177L486 173L476 161Q457 128 436.0 105.5Q415 83 388.5 65.5Q362 48 328.5 33.0Q295 18 253 0Q236 2 223.5 2.5Q211 3 200 4Q181 4 153 7Q150 15 144.0 18.0Q138 21 133 21Q116 29 107.5 44.5Q99 60 91 78Q86 89 81.0 98.5Q76 108 70 118L87 123L65 147Q63 150 60.0 152.5Q57 155 55 158L54 174Q51 243 51.5 300.5Q52 358 67 403V414Q70 436 73.0 450.5Q76 465 78 478Q81 500 87 519Q101 522 108.0 530.5Q115 539 120 546Q134 547 139.0 542.0Q144 537 149 526Q154 517 161.5 506.0Q169 495 184 489Q186 481 189.5 472.5Q193 464 197 454Q205 437 211.5 418.5Q218 400 219 383Q209 364 203.5 339.0Q198 314 196.5 288.5Q195 263 197.5 239.5Q200 216 206 200L212 187L229 189Q259 197 283.5 206.5Q308 216 329.0 229.0Q350 242 369.0 259.5Q388 277 409 300Q430 323 445.5 352.5Q461 382 471.5 414.0Q482 446 487.5 477.5Q493 509 495 537Q512 543 512 561L510 572Q506 578 510 586Q516 605 538 615Q554 605 566.5 593.0Q579 581 590 569Z"/></g>
    <g transform="translate(3500, 0)"><path d="M0 237Q0 248 3.0 257.0Q6 266 4 280Q35 346 74.5 402.5Q114 459 169 502Q178 509 183.5 516.5Q189 524 194.5 531.0Q200 538 207.0 543.5Q214 549 225 551Q250 580 285.0 604.0Q320 628 358.0 650.0Q396 672 434.5 695.0Q473 718 504 745Q515 738 521.5 740.5Q528 743 535 741Q544 722 558.5 714.5Q573 707 588.5 699.5Q604 692 617.5 681.5Q631 671 638 653Q631 653 631.5 648.0Q632 643 634.0 637.0Q636 631 636.0 626.0Q636 621 627 621Q627 614 634.0 614.0Q641 614 641 607Q641 601 638.5 597.5Q636 594 638 586Q614 570 584.5 555.5Q555 541 522.5 525.0Q490 509 456.5 490.5Q423 472 390 448Q357 424 323.5 395.0Q290 366 259.0 333.5Q228 301 201.0 266.5Q174 232 155 199Q157 194 160.5 190.0Q164 186 166 181Q204 179 237.0 181.5Q270 184 303 177Q307 180 308.0 185.0Q309 190 314 192Q382 199 441.0 214.5Q500 230 561 246Q543 253 529 257Q523 263 529.5 267.5Q536 272 540 277Q524 286 513.5 301.0Q503 316 501 340Q508 346 508.0 354.0Q508 362 501 367Q496 369 495.0 367.0Q494 365 493.5 363.0Q493 361 491.5 359.0Q490 357 486 359Q487 370 491.0 377.0Q495 384 497 394L580 449Q593 439 612.0 428.0Q631 417 652.0 406.0Q673 395 695.0 383.5Q717 372 736 361Q754 353 767.0 341.5Q780 330 792.0 317.5Q804 305 816.0 293.0Q828 281 845 273Q843 257 847.0 247.0Q851 237 849 223Q830 189 803.0 165.5Q776 142 742.5 125.0Q709 108 671.0 96.5Q633 85 593.0 74.5Q553 64 512.5 52.5Q472 41 433 26Q416 26 404.0 25.0Q392 24 381.0 22.0Q370 20 359.0 18.0Q348 16 335 15Q330 16 328.5 13.0Q327 10 324 8Q304 5 288.0 5.0Q272 5 261 5Q247 5 232.0 1.0Q217 -3 204 -2Q114 2 63.0 62.0Q12 122 7 227Q8 232 5.0 233.5Q2 235 0 237Z"/></g>
    <g transform="translate(4308, 0)"><path d="M558 563Q559 556 558.5 552.5Q558 549 557.5 546.0Q557 543 557.0 539.5Q557 536 559 529Q538 495 510.5 482.5Q483 470 451.0 464.5Q419 459 385.5 453.0Q352 447 319 427Q306 432 295.5 427.0Q285 422 265 424Q259 418 250.0 415.5Q241 413 232 410Q236 401 235.5 391.5Q235 382 238 376Q273 373 315.5 377.0Q358 381 399 382Q400 377 398.0 375.5Q396 374 397 370Q404 365 411.0 357.5Q418 350 425.0 343.0Q432 336 439.5 331.5Q447 327 457 328Q461 320 462.5 310.5Q464 301 460 291Q444 280 428.0 268.5Q412 257 394.5 248.0Q377 239 357.5 233.5Q338 228 314 229Q309 229 306.5 229.0Q304 229 300 232Q292 227 277.5 229.0Q263 231 255 226Q244 231 228.5 230.5Q213 230 201 234Q185 213 172.0 189.0Q159 165 149 138Q183 133 205.5 134.0Q228 135 248.0 137.5Q268 140 289.0 142.5Q310 145 342 144Q362 155 389.5 158.5Q417 162 440 170Q448 167 454.0 159.5Q460 152 465.5 145.5Q471 139 477.0 134.0Q483 129 492 130Q496 126 497.5 120.5Q499 115 500.0 110.0Q501 105 503.5 101.5Q506 98 512 99Q497 66 477.5 48.5Q458 31 433.0 22.0Q408 13 377.5 8.0Q347 3 310 -4Q301 -6 295.0 -3.5Q289 -1 281 -1Q258 -6 226.0 -10.0Q194 -14 161.0 -13.0Q128 -12 98.0 -4.5Q68 3 49 22Q41 29 38.5 38.5Q36 48 25 53Q24 66 21.0 82.0Q18 98 15.0 115.5Q12 133 10.5 150.0Q9 167 12 181Q15 196 24.5 208.0Q34 220 31 234Q36 235 37.0 239.5Q38 244 45 243Q51 261 58.0 277.0Q65 293 72.5 308.0Q80 323 87.5 338.5Q95 354 102 373Q88 386 81.5 401.5Q75 417 72.0 432.5Q69 448 67.0 464.5Q65 481 60 498Q70 513 84.5 522.5Q99 532 116.0 538.0Q133 544 153.0 548.0Q173 552 195 557Q235 570 266.5 577.0Q298 584 328.5 588.5Q359 593 392.0 597.0Q425 601 467 609Q476 600 484 600Q488 609 493.5 605.5Q499 602 498 611Q508 594 523.5 582.5Q539 571 558 563Z"/></g>
    <g transform="translate(4842, 0)"><path d="M569 481Q544 481 515.0 477.5Q486 474 458 470Q438 467 419.5 465.0Q401 463 386 462Q379 440 372.0 423.0Q365 406 357 390Q349 373 342.5 355.5Q336 338 330 318Q320 302 313.5 288.5Q307 275 303 258Q291 243 285.0 226.5Q279 210 276 198L272 186Q266 180 265.0 176.5Q264 173 260 170Q259 159 253 148Q251 143 250.0 138.5Q249 134 249 132Q249 122 244 119Q245 114 244.0 108.5Q243 103 242 98Q239 86 240 79Q243 75 245.5 72.0Q248 69 249 64Q255 60 258 59Q262 56 270 52L279 42Q284 13 270 -4Q255 -23 219 -23H207Q202 -18 201 -15Q193 -12 188.0 -10.0Q183 -8 179 -2Q166 4 158 8L149 13Q149 24 149 25Q142 34 138.5 45.0Q135 56 133 67Q131 76 128.5 84.0Q126 92 122 98Q120 156 133.0 196.0Q146 236 160 273Q168 293 176.0 313.5Q184 334 190 356L199 366Q206 382 210.5 392.5Q215 403 220 414Q223 421 225.5 427.5Q228 434 230 439Q224 439 219.0 438.5Q214 438 209 437Q203 436 198.0 435.5Q193 435 188 435Q181 435 178 436Q167 431 154 431H144Q141 431 138.5 431.5Q136 432 134 432Q124 432 118 429Q106 429 95 429H85Q83 429 80.0 428.5Q77 428 75 428Q68 428 60.0 429.5Q52 431 43 436Q31 452 27 453L18 465Q17 471 15.0 476.5Q13 482 11 489Q7 499 3.5 510.5Q0 522 0 538Q1 546 4.0 550.0Q7 554 9 557L12 572L25 571H53Q85 571 118.0 573.5Q151 576 186 579Q206 581 226.5 583.0Q247 585 269 587Q273 596 277 604L287 609Q305 610 312.5 604.5Q320 599 325 594Q347 596 369.5 598.5Q392 601 415 605Q449 610 483.5 614.0Q518 618 550 618Q564 618 577.0 617.0Q590 616 601 614L611 607Q614 601 619.5 596.0Q625 591 631 586Q643 575 655.0 560.0Q667 545 664 516Q656 504 652 502L643 490L633 491Q627 491 622.0 489.5Q617 488 612 486Q608 484 604.0 482.5Q600 481 595 480Q586 480 580.5 480.5Q575 481 569 481Z"/></g>
    <g transform="translate(5712, 0)"><path d="M13 451Q16 466 17.0 475.5Q18 485 10 496Q14 512 16.5 521.0Q19 530 17 546Q26 572 44.5 590.0Q63 608 85.0 620.5Q107 633 131.0 641.5Q155 650 176 656Q176 660 172.0 660.0Q168 660 170 665Q224 675 278.5 694.0Q333 713 390.0 728.0Q447 743 507.0 746.5Q567 750 633 731Q637 719 644.0 708.0Q651 697 658.5 686.5Q666 676 672.0 666.0Q678 656 679 645Q691 634 698.5 621.5Q706 609 701 588Q690 580 678.0 572.0Q666 564 653 557Q608 568 563.0 565.0Q518 562 482 558Q471 570 456.0 569.5Q441 569 424.5 564.5Q408 560 392.0 555.5Q376 551 362 553Q351 543 333.0 539.5Q315 536 295 534Q294 529 297.0 527.0Q300 525 298 519Q305 510 317.0 506.5Q329 503 341.5 500.0Q354 497 364.0 491.5Q374 486 377 474Q395 473 408.0 464.5Q421 456 430.0 444.0Q439 432 443.0 418.5Q447 405 446 394Q450 384 454.5 386.0Q459 388 465 381Q469 366 483.5 349.5Q498 333 506 314Q508 284 509.5 260.0Q511 236 501 213Q484 169 452.0 134.0Q420 99 379.5 72.5Q339 46 294.0 26.5Q249 7 205 -6Q201 -5 195.5 -6.0Q190 -7 193 0Q184 -8 172.5 -10.0Q161 -12 147.5 -11.5Q134 -11 120.5 -10.0Q107 -9 94 -11Q86 -3 79.5 5.0Q73 13 69 24Q64 25 64.5 30.5Q65 36 60 36Q60 40 61.0 42.0Q62 44 63 46Q67 49 66.5 50.5Q66 52 63.5 53.5Q61 55 58.5 57.0Q56 59 57 62Q62 71 60.5 83.5Q59 96 58.0 109.0Q57 122 60.0 133.5Q63 145 77 153Q118 149 154.5 157.0Q191 165 223.5 179.0Q256 193 285.5 209.5Q315 226 343 240Q346 250 352.5 257.0Q359 264 366.0 270.5Q373 277 379.0 284.5Q385 292 388 303Q389 307 388.0 309.0Q387 311 385.0 312.5Q383 314 381.0 316.0Q379 318 379 322Q376 323 373.5 324.0Q371 325 369 325Q343 338 314.0 347.0Q285 356 265 367Q253 359 241.0 363.0Q229 367 212 371Q170 373 132.5 379.0Q95 385 60 400Q58 406 55.0 410.5Q52 415 41 413Q34 423 26.5 431.5Q19 440 13 451Z"/></g>
    <g transform="translate(6302, 0)"><path d="M569 481Q544 481 515.0 477.5Q486 474 458 470Q438 467 419.5 465.0Q401 463 386 462Q379 440 372.0 423.0Q365 406 357 390Q349 373 342.5 355.5Q336 338 330 318Q320 302 313.5 288.5Q307 275 303 258Q291 243 285.0 226.5Q279 210 276 198L272 186Q266 180 265.0 176.5Q264 173 260 170Q259 159 253 148Q251 143 250.0 138.5Q249 134 249 132Q249 122 244 119Q245 114 244.0 108.5Q243 103 242 98Q239 86 240 79Q243 75 245.5 72.0Q248 69 249 64Q255 60 258 59Q262 56 270 52L279 42Q284 13 270 -4Q255 -23 219 -23H207Q202 -18 201 -15Q193 -12 188.0 -10.0Q183 -8 179 -2Q166 4 158 8L149 13Q149 24 149 25Q142 34 138.5 45.0Q135 56 133 67Q131 76 128.5 84.0Q126 92 122 98Q120 156 133.0 196.0Q146 236 160 273Q168 293 176.0 313.5Q184 334 190 356L199 366Q206 382 210.5 392.5Q215 403 220 414Q223 421 225.5 427.5Q228 434 230 439Q224 439 219.0 438.5Q214 438 209 437Q203 436 198.0 435.5Q193 435 188 435Q181 435 178 436Q167 431 154 431H144Q141 431 138.5 431.5Q136 432 134 432Q124 432 118 429Q106 429 95 429H85Q83 429 80.0 428.5Q77 428 75 428Q68 428 60.0 429.5Q52 431 43 436Q31 452 27 453L18 465Q17 471 15.0 476.5Q13 482 11 489Q7 499 3.5 510.5Q0 522 0 538Q1 546 4.0 550.0Q7 554 9 557L12 572L25 571H53Q85 571 118.0 573.5Q151 576 186 579Q206 581 226.5 583.0Q247 585 269 587Q273 596 277 604L287 609Q305 610 312.5 604.5Q320 599 325 594Q347 596 369.5 598.5Q392 601 415 605Q449 610 483.5 614.0Q518 618 550 618Q564 618 577.0 617.0Q590 616 601 614L611 607Q614 601 619.5 596.0Q625 591 631 586Q643 575 655.0 560.0Q667 545 664 516Q656 504 652 502L643 490L633 491Q627 491 622.0 489.5Q617 488 612 486Q608 484 604.0 482.5Q600 481 595 480Q586 480 580.5 480.5Q575 481 569 481Z"/></g>
    <g transform="translate(6793, 0)"><path d="M590 569Q592 547 597.0 531.0Q602 515 608 500Q613 486 617.5 472.5Q622 459 624 440Q616 414 612.5 392.0Q609 370 605 346Q589 311 574.0 284.0Q559 257 550 237Q545 232 541.5 225.5Q538 219 534 212Q532 209 529.0 203.0Q526 197 524 195L504 202L500 177L486 173L476 161Q457 128 436.0 105.5Q415 83 388.5 65.5Q362 48 328.5 33.0Q295 18 253 0Q236 2 223.5 2.5Q211 3 200 4Q181 4 153 7Q150 15 144.0 18.0Q138 21 133 21Q116 29 107.5 44.5Q99 60 91 78Q86 89 81.0 98.5Q76 108 70 118L87 123L65 147Q63 150 60.0 152.5Q57 155 55 158L54 174Q51 243 51.5 300.5Q52 358 67 403V414Q70 436 73.0 450.5Q76 465 78 478Q81 500 87 519Q101 522 108.0 530.5Q115 539 120 546Q134 547 139.0 542.0Q144 537 149 526Q154 517 161.5 506.0Q169 495 184 489Q186 481 189.5 472.5Q193 464 197 454Q205 437 211.5 418.5Q218 400 219 383Q209 364 203.5 339.0Q198 314 196.5 288.5Q195 263 197.5 239.5Q200 216 206 200L212 187L229 189Q259 197 283.5 206.5Q308 216 329.0 229.0Q350 242 369.0 259.5Q388 277 409 300Q430 323 445.5 352.5Q461 382 471.5 414.0Q482 446 487.5 477.5Q493 509 495 537Q512 543 512 561L510 572Q506 578 510 586Q516 605 538 615Q554 605 566.5 593.0Q579 581 590 569Z"/></g>
    <g transform="translate(7392, 0)"><path d="M416 -2Q400 -3 376.5 -1.0Q353 1 333 -8Q280 -6 225.0 5.0Q170 16 124 32Q114 43 104.0 52.5Q94 62 77 66Q53 85 38.0 112.5Q23 140 14.0 171.0Q5 202 2.0 234.5Q-1 267 0 297Q15 342 42.5 374.5Q70 407 99 439Q112 445 118.5 451.5Q125 458 132.5 463.5Q140 469 147.5 474.5Q155 480 161 488Q182 493 197.5 502.5Q213 512 228.0 522.5Q243 533 259.0 542.0Q275 551 296 556Q304 565 315.0 570.5Q326 576 337.5 581.5Q349 587 359.5 593.0Q370 599 376 609Q381 601 390.0 603.5Q399 606 407 609Q412 610 415.5 607.0Q419 604 422.0 601.0Q425 598 427.5 597.5Q430 597 432 602Q437 602 435.0 597.0Q433 592 432 590Q440 591 445.5 586.5Q451 582 463 581Q467 576 465.0 573.5Q463 571 463 565Q493 556 501.0 536.5Q509 517 502.0 496.0Q495 475 477.0 457.0Q459 439 438 433Q390 420 347.5 404.5Q305 389 278 359Q254 352 235.5 340.5Q217 329 200.5 314.5Q184 300 169.5 284.5Q155 269 139 254Q140 240 134.5 232.5Q129 225 124 217Q126 202 131.0 190.5Q136 179 142 168Q208 148 282.5 143.0Q357 138 432 137Q439 127 448.5 118.5Q458 110 466.0 100.5Q474 91 479.0 79.5Q484 68 481 51Q467 36 450.0 23.5Q433 11 416 -2Z"/></g>
    <g transform="translate(7918, 0)"><path d="M603 36Q555 34 518.5 38.0Q482 42 447 57Q445 58 443.0 62.0Q441 66 439 68Q433 71 424.5 70.5Q416 70 410 72Q402 76 385.0 87.5Q368 99 354 109Q336 123 320.0 137.0Q304 151 292 167Q289 171 284.0 171.5Q279 172 275 174Q246 156 226.0 129.0Q206 102 188.0 74.0Q170 46 150.0 21.0Q130 -4 99 -17Q90 -17 83.0 -14.0Q76 -11 70.0 -6.5Q64 -2 58.0 2.0Q52 6 45 8Q45 20 40.5 30.0Q36 40 31.5 49.0Q27 58 25.0 66.5Q23 75 29 83Q23 89 11 96Q17 102 16.5 107.0Q16 112 14.0 117.0Q12 122 10.5 128.0Q9 134 13 140Q18 140 25 142Q19 150 19.5 151.5Q20 153 17 156Q15 162 19.0 163.5Q23 165 27 167Q31 216 44.0 258.0Q57 300 73.0 339.0Q89 378 104.5 418.0Q120 458 130 504Q141 515 147.5 530.0Q154 545 161.5 560.0Q169 575 178.5 589.5Q188 604 205 613Q219 612 230.0 605.5Q241 599 257 600Q260 595 262.5 590.0Q265 585 269 580L284 583Q295 574 303.5 560.5Q312 547 315.0 532.0Q318 517 314.0 503.5Q310 490 295 482Q296 477 295.5 474.5Q295 472 294.0 470.0Q293 468 293.0 466.0Q293 464 296 460Q276 445 266.0 418.0Q256 391 255 370Q267 382 281.5 393.5Q296 405 311.5 416.0Q327 427 341.5 437.0Q356 447 368 457Q401 487 431.5 505.5Q462 524 496 547Q504 549 508.5 547.5Q513 546 518 544Q518 550 514.5 551.0Q511 552 512 559Q527 563 538.0 568.5Q549 574 562 579Q571 570 579.0 560.5Q587 551 601 549Q606 538 613.0 532.5Q620 527 627.0 522.0Q634 517 639.5 510.0Q645 503 646 488Q642 481 637.5 473.0Q633 465 629 454Q609 436 588.5 422.0Q568 408 547.0 395.0Q526 382 504.0 369.0Q482 356 459 338Q454 331 446.5 325.5Q439 320 431.0 314.5Q423 309 416.0 303.0Q409 297 405 289Q402 288 399.0 288.0Q396 288 393 287Q390 280 383.5 276.0Q377 272 375 265Q390 233 414.0 216.0Q438 199 468.0 191.5Q498 184 533.0 183.5Q568 183 606 183Q610 184 609.5 187.5Q609 191 614 190Q638 182 651.0 167.5Q664 153 682 139Q680 101 659.0 76.0Q638 51 603 36Z"/></g>
  </g>
</svg>