<?xml version="1.0" encoding="UTF-8"?>
<svg xmlns="http://www.w3.org/2000/svg" viewBox="0 0 63.0 18" width="63.0" height="18">
  <g transform="translate(0, 15.3) scale(0.017578, -0.017578)" fill="#FFFFFF">
    <g transform="translate(0, 0)"><path d="M57 37Q53 41 50.0 46.5Q47 52 45 61Q31 78 23.0 100.0Q15 122 12.0 145.5Q9 169 11.0 193.0Q13 217 18 238Q21 248 23 259Q28 278 33.0 296.5Q38 315 48 327Q44 338 49.0 351.0Q54 364 59 375Q61 378 62.0 380.5Q63 383 64 385Q76 420 87.5 452.5Q99 485 110 515Q130 570 148.5 623.0Q167 676 182 736Q190 742 196 744Q198 745 201.0 746.0Q204 747 208 747Q229 736 257.5 726.5Q286 717 306 717L323 702Q336 687 345.5 670.5Q355 654 351 628Q345 619 341 617Q335 594 328.0 576.5Q321 559 314 543Q306 525 299.0 507.0Q292 489 287 463Q281 456 279.5 451.0Q278 446 276 441Q274 435 271.0 428.5Q268 422 262 417Q258 386 250.0 366.5Q242 347 234 328Q220 293 208.0 258.5Q196 224 194 180Q206 183 216 183Q229 183 241 179Q277 197 319.5 201.0Q362 205 404 206Q439 206 469 209Q479 202 482.0 201.5Q485 201 492 201Q495 201 498.0 201.0Q501 201 506 200Q520 186 533.0 180.5Q546 175 561 170Q574 165 586.5 159.5Q599 154 611 145L620 94Q628 83 627 79Q627 71 623 65L625 52Q606 48 600.0 43.5Q594 39 587 32Q576 31 566 31Q546 31 525 25Q495 36 459 36Q445 36 430.5 35.0Q416 34 402 32Q387 30 372.0 28.5Q357 27 342 27Q330 25 325.0 24.0Q320 23 315 21Q281 10 241.5 -1.0Q202 -12 162 -12Q103 -12 67 18Q63 27 61.0 30.0Q59 33 57 37Z"/></g>
    <g transform="translate(648, 0)"><path d="M558 563Q559 556 558.5 552.5Q558 549 557.5 546.0Q557 543 557.0 539.5Q557 536 559 529Q538 495 510.5 482.5Q483 470 451.0 464.5Q419 459 385.5 453.0Q352 447 319 427Q306 432 295.5 427.0Q285 422 265 424Q259 418 250.0 415.5Q241 413 232 410Q236 401 235.5 391.5Q235 382 238 376Q273 373 315.5 377.0Q358 381 399 382Q400 377 398.0 375.5Q396 374 397 370Q404 365 411.0 357.5Q418 350 425.0 343.0Q432 336 439.5 331.5Q447 327 457 328Q461 320 462.5 310.5Q464 301 460 291Q444 280 428.0 268.5Q412 257 394.5 248.0Q377 239 357.5 233.5Q338 228 314 229Q309 229 306.5 229.0Q304 229 300 232Q292 227 277.5 229.0Q263 231 255 226Q244 231 228.5 230.5Q213 230 201 234Q185 213 172.0 189.0Q159 165 149 138Q183 133 205.5 134.0Q228 135 248.0 137.5Q268 140 289.0 142.5Q310 145 342 144Q362 155 389.5 158.5Q417 162 440 170Q448 167 454.0 159.5Q460 152 465.5 145.5Q471 139 477.0 134.0Q483 129 492 130Q496 126 497.5 120.5Q499 115 500.0 110.0Q501 105 503.5 101.5Q506 98 512 99Q497 66 477.5 48.5Q458 31 433.0 22.0Q408 13 377.5 8.0Q347 3 310 -4Q301 -6 295.0 -3.5Q289 -1 281 -1Q258 -6 226.0 -10.0Q194 -14 161.0 -13.0Q128 -12 98.0 -4.5Q68 3 49 22Q41 29 38.5 38.5Q36 48 25 53Q24 66 21.0 82.0Q18 98 15.0 115.5Q12 133 10.5 150.0Q9 167 12 181Q15 196 24.5 208.0Q34 220 31 234Q36 235 37.0 239.5Q38 244 45 243Q51 261 58.0 277.0Q65 293 72.5 308.0Q80 323 87.5 338.5Q95 354 102 373Q88 386 81.5 401.5Q75 417 72.0 432.5Q69 448 67.0 464.5Q65 481 60 498Q70 513 84.5 522.5Q99 532 116.0 538.0Q133 544 153.0 548.0Q173 552 195 557Q235 570 266.5 577.0Q298 584 328.5 588.5Q359 593 392.0 597.0Q425 601 467 609Q476 600 484 600Q488 609 493.5 605.5Q499 602 498 611Q508 594 523.5 582.5Q539 571 558 563Z"/></g>
    <g transform="translate(1182, 0)"><path d="M709 180Q685 137 646.0 113.5Q607 90 560.0 74.5Q513 59 461.5 47.0Q410 35 362 16Q348 16 337.5 15.0Q327 14 317.5 12.5Q308 11 299.0 9.5Q290 8 279 7Q275 8 274.0 5.5Q273 3 271 1Q254 -2 240.5 -2.0Q227 -2 218 -2Q206 -2 193.5 -5.5Q181 -9 171 -8Q96 -4 53.5 45.5Q11 95 6 183Q7 188 4.5 189.0Q2 190 0 192Q0 202 2.5 209.0Q5 216 3 227Q29 282 62.0 329.5Q95 377 141 413Q148 419 153.0 425.0Q158 431 162.5 437.0Q167 443 173.0 447.5Q179 452 188 454Q209 478 238.0 498.0Q267 518 299.0 536.5Q331 555 362.5 573.5Q394 592 420 615Q431 610 436.0 612.0Q441 614 447 612Q454 597 466.5 591.0Q479 585 491.5 578.5Q504 572 515.0 563.0Q526 554 532 539Q526 539 526.5 534.5Q527 530 529.0 525.5Q531 521 530.5 516.5Q530 512 523 512Q524 507 529.5 506.5Q535 506 535 501Q535 496 532.5 493.0Q530 490 532 483Q512 470 487.5 458.0Q463 446 436.5 432.5Q410 419 381.5 403.5Q353 388 326 368Q299 348 271.0 323.5Q243 299 217.0 272.0Q191 245 168.0 216.5Q145 188 129 160Q131 155 133.5 152.5Q136 150 138 145Q170 143 197.5 145.5Q225 148 253 142Q256 144 257.0 148.0Q258 152 262 154Q319 160 368.0 172.5Q417 185 468 199Q460 202 453.5 204.5Q447 207 441 209Q436 214 441.5 217.5Q447 221 451 225Q437 233 428.5 245.0Q420 257 418 277Q424 282 424.0 289.0Q424 296 418 300Q414 301 413.0 300.0Q412 299 411.5 297.0Q411 295 410.0 293.5Q409 292 405 294Q406 303 409.5 309.0Q413 315 415 323L484 369Q495 361 511.0 351.5Q527 342 544.5 332.5Q562 323 580.5 313.5Q599 304 615 295Q629 289 640.0 279.0Q651 269 661.0 258.5Q671 248 681.5 238.0Q692 228 706 221Q704 208 707.0 200.0Q710 192 709 180Z"/></g>
    <g transform="translate(1850, 0)"><path d="M558 563Q559 556 558.5 552.5Q558 549 557.5 546.0Q557 543 557.0 539.5Q557 536 559 529Q538 495 510.5 482.5Q483 470 451.0 464.5Q419 459 385.5 453.0Q352 447 319 427Q306 432 295.5 427.0Q285 422 265 424Q259 418 250.0 415.5Q241 413 232 410Q236 401 235.5 391.5Q235 382 238 376Q273 373 315.5 377.0Q358 381 399 382Q400 377 398.0 375.5Q396 374 397 370Q404 365 411.0 357.5Q418 350 425.0 343.0Q432 336 439.5 331.5Q447 327 457 328Q461 320 462.5 310.5Q464 301 460 291Q444 280 428.0 268.5Q412 257 394.5 248.0Q377 239 357.5 233.5Q338 228 314 229Q309 229 306.5 229.0Q304 229 300 232Q292 227 277.5 229.0Q263 231 255 226Q244 231 228.5 230.5Q213 230 201 234Q185 213 172.0 189.0Q159 165 149 138Q183 133 205.5 134.0Q228 135 248.0 137.5Q268 140 289.0 142.5Q310 145 342 144Q362 155 389.5 158.5Q417 162 440 170Q448 167 454.0 159.5Q460 152 465.5 145.5Q471 139 477.0 134.0Q483 129 492 130Q496 126 497.5 120.5Q499 115 500.0 110.0Q501 105 503.5 101.5Q506 98 512 99Q497 66 477.5 48.5Q458 31 433.0 22.0Q408 13 377.5 8.0Q347 3 310 -4Q301 -6 295.0 -3.5Q289 -1 281 -1Q258 -6 226.0 -10.0Q194 -14 161.0 -13.0Q128 -12 98.0 -4.5Q68 3 49 22Q41 29 38.5 38.5Q36 48 25 53Q24 66 21.0 82.0Q18 98 15.0 115.5Q12 133 10.5 150.0Q9 167 12 181Q15 196 24.5 208.0Q34 220 31 234Q36 235 37.0 239.5Q38 244 45 243Q51 261 58.0 277.0Q65 293 72.5 308.0Q80 323 87.5 338.5Q95 354 102 373Q88 386 81.5 401.5Q75 417 72.0 432.5Q69 448 67.0 464.5Q65 481 60 498Q70 513 84.5 522.5Q99 532 116.0 538.0Q133 544 153.0 548.0Q173 552 195 557Q235 570 266.5 577.0Q298 584 328.5 588.5Q359 593 392.0 597.0Q425 601 467 609Q476 600 484 600Q488 609 493.5 605.5Q499 602 498 611Q508 594 523.5 582.5Q539 571 558 563Z"/></g>
    <g transform="translate(2384, 0)"><path d="M205 182Q196 180 192.0 171.5Q188 163 184.5 154.0Q181 145 177.5 137.5Q174 130 167 130Q166 122 161.5 116.0Q157 110 153.0 103.5Q149 97 147.0 89.5Q145 82 149 72Q141 66 139.0 55.0Q137 44 134.5 34.0Q132 24 126.0 17.0Q120 10 104 11Q101 7 103.0 6.0Q105 5 106 -1Q95 1 89.5 -2.5Q84 -6 76 -7Q57 -1 44.5 14.0Q32 29 22.5 47.5Q13 66 5.5 85.0Q-2 104 -9 118Q-6 129 -8.0 139.5Q-10 150 -15 157Q34 261 92.0 379.0Q150 497 202 612Q225 603 247.5 591.5Q270 580 288.5 565.0Q307 550 320.0 530.5Q333 511 337 487Q335 481 332.5 482.5Q330 484 328 481Q332 476 332.5 474.0Q333 472 332.5 470.0Q332 468 332.0 464.5Q332 461 335 455Q331 456 329.5 454.0Q328 452 323 454Q327 443 325.5 436.0Q324 429 321.0 423.5Q318 418 316.0 411.5Q314 405 317 395Q314 395 312.5 393.5Q311 392 310.0 390.5Q309 389 307.5 387.5Q306 386 303 387Q306 365 305.0 343.0Q304 321 303.5 298.5Q303 276 304.0 251.5Q305 227 311 201Q347 222 368.5 255.0Q390 288 403.5 329.0Q417 370 424.0 417.0Q431 464 439 513Q448 522 453.0 535.0Q458 548 462.0 562.5Q466 577 470.0 591.5Q474 606 480 618Q495 616 505.5 608.5Q516 601 525.0 592.5Q534 584 544.0 576.5Q554 569 569 567Q581 550 591.0 534.0Q601 518 604 500Q599 492 596.5 482.0Q594 472 591.0 462.0Q588 452 583.0 443.5Q578 435 569 429Q566 403 561.5 381.5Q557 360 552.5 339.0Q548 318 545.0 295.5Q542 273 543 246Q535 223 526.0 197.0Q517 171 512 150Q496 137 487.0 119.0Q478 101 468 83Q464 79 463.0 81.0Q462 83 456 84Q457 80 456.0 78.0Q455 76 453.5 74.5Q452 73 451.5 70.0Q451 67 453 62Q439 56 428.0 45.0Q417 34 404.5 25.0Q392 16 374.5 13.0Q357 10 329 20Q288 50 256.5 89.0Q225 128 205 182Z"/></g>
    <g transform="translate(2962, 0)"><path d="M493 270Q492 265 491.0 261.5Q490 258 489.0 255.0Q488 252 488.0 247.5Q488 243 488 236Q458 183 412.5 147.0Q367 111 312.5 83.5Q258 56 199.0 33.5Q140 11 84 -15Q60 -9 47.5 5.0Q35 19 28.5 37.5Q22 56 19.5 78.5Q17 101 15 125Q18 136 23.5 143.5Q29 151 29 165Q37 191 45.0 216.0Q53 241 55 267Q58 275 66 278Q71 326 66.5 375.5Q62 425 50 468Q51 478 52.5 482.5Q54 487 52 489Q51 497 57.5 497.0Q64 497 71 497Q71 512 65.5 527.0Q60 542 55 561Q62 576 64.0 590.5Q66 605 73 616Q127 599 176.5 575.0Q226 551 274 540Q310 514 348.0 488.5Q386 463 417.0 432.5Q448 402 469.0 363.0Q490 324 493 270ZM256 215Q277 223 297.5 232.0Q318 241 335.5 252.5Q353 264 367.0 279.0Q381 294 390 315Q384 327 374.0 336.5Q364 346 354.0 354.5Q344 363 334.5 372.0Q325 381 319 394Q306 396 296.0 401.5Q286 407 276.5 412.5Q267 418 256.5 423.0Q246 428 232 429Q210 440 192.5 445.0Q175 450 166 458Q159 458 155 455Q165 417 170.0 383.5Q175 350 175.5 316.5Q176 283 172.0 248.0Q168 213 161 172Q171 173 179.5 176.5Q188 180 196.5 184.0Q205 188 214.5 191.5Q224 195 237 196Q240 202 245.5 206.0Q251 210 256 215Z"/></g>
  </g>
</svg>
