<?xml version="1.0" encoding="UTF-8"?>
<svg xmlns="http://www.w3.org/2000/svg" viewBox="0 0 92.3 18" 
     width="92.3" height="18">
  <g transform="translate(0, 15.299999999999999) scale(0.017578, -0.017578)" fill="#FFFFFF">
    <g transform="translate(0, 0)"><path d="M181 94Q171 86 169.0 73.5Q167 61 164.0 49.0Q161 37 153.5 28.5Q146 20 127 21Q123 16 125.5 15.0Q128 14 130 6Q116 8 110.0 4.0Q104 0 95 -2Q72 5 56.5 23.5Q41 42 29.5 64.0Q18 86 9.5 109.0Q1 132 -8 149Q-8 153 -4.5 152.5Q-1 152 2 152Q-3 162 -5.5 174.5Q-8 187 -15 195Q14 257 47.0 324.5Q80 392 113.5 461.5Q147 531 180.5 601.5Q214 672 245 740Q273 730 299.5 716.5Q326 703 348.0 685.0Q370 667 385.5 643.5Q401 620 406 590Q404 584 401.0 586.0Q398 588 396 584Q401 578 401.5 575.5Q402 573 401.0 570.5Q400 568 400.0 564.0Q400 560 405 553Q400 554 398.0 551.5Q396 549 391 551Q396 537 394.0 529.0Q392 521 388.0 514.5Q384 508 381.5 500.5Q379 493 383 480Q379 480 377.5 478.5Q376 477 375.0 475.0Q374 473 372.5 471.5Q371 470 367 471Q370 445 369.0 418.5Q368 392 367.0 364.5Q366 337 367.0 308.0Q368 279 375 248Q418 273 444.5 313.0Q471 353 486.5 402.0Q502 451 510.5 507.0Q519 563 528 621Q539 632 545.5 648.0Q552 664 556.5 681.0Q561 698 565.5 715.5Q570 733 578 747Q596 745 608.5 736.5Q621 728 632.0 717.5Q643 707 655.0 698.0Q667 689 685 686Q699 666 711.0 647.5Q723 629 727 606Q721 596 718.0 584.0Q715 572 711.5 560.0Q708 548 702.0 538.0Q696 528 685 521Q682 491 676.0 465.0Q670 439 665.0 414.0Q660 389 656.0 362.0Q652 335 653 303Q644 274 633.0 243.5Q622 213 617 187Q598 172 587.0 150.0Q576 128 564 106Q559 102 558.0 104.5Q557 107 549 108Q550 99 545.5 96.5Q541 94 546 82Q529 74 516.0 61.0Q503 48 487.5 37.0Q472 26 451.5 22.5Q431 19 398 31Q349 67 310.0 114.0Q271 161 248 225Q238 222 233.0 212.0Q228 202 224.0 191.0Q220 180 216.0 171.0Q212 162 204 162Q202 153 196.5 145.5Q191 138 186.0 130.5Q181 123 178.5 114.0Q176 105 181 94Z"/></g>
    <g transform="translate(701, 0)"><path d="M558 563Q559 556 558.5 552.5Q558 549 557.5 546.0Q557 543 557.0 539.5Q557 536 559 529Q538 495 510.5 482.5Q483 470 451.0 464.5Q419 459 385.5 453.0Q352 447 319 427Q306 432 295.5 427.0Q285 422 265 424Q259 418 250.0 415.5Q241 413 232 410Q236 401 235.5 391.5Q235 382 238 376Q273 373 315.5 377.0Q358 381 399 382Q400 377 398.0 375.5Q396 374 397 370Q404 365 411.0 357.5Q418 350 425.0 343.0Q432 336 439.5 331.5Q447 327 457 328Q461 320 462.5 310.5Q464 301 460 291Q444 280 428.0 268.5Q412 257 394.5 248.0Q377 239 357.5 233.5Q338 228 314 229Q309 229 306.5 229.0Q304 229 300 232Q292 227 277.5 229.0Q263 231 255 226Q244 231 228.5 230.5Q213 230 201 234Q185 213 172.0 189.0Q159 165 149 138Q183 133 205.5 134.0Q228 135 248.0 137.5Q268 140 289.0 142.5Q310 145 342 144Q362 155 389.5 158.5Q417 162 440 170Q448 167 454.0 159.5Q460 152 465.5 145.5Q471 139 477.0 134.0Q483 129 492 130Q496 126 497.5 120.5Q499 115 500.0 110.0Q501 105 503.5 101.5Q506 98 512 99Q497 66 477.5 48.5Q458 31 433.0 22.0Q408 13 377.5 8.0Q347 3 310 -4Q301 -6 295.0 -3.5Q289 -1 281 -1Q258 -6 226.0 -10.0Q194 -14 161.0 -13.0Q128 -12 98.0 -4.5Q68 3 49 22Q41 29 38.5 38.5Q36 48 25 53Q24 66 21.0 82.0Q18 98 15.0 115.5Q12 133 10.5 150.0Q9 167 12 181Q15 196 24.5 208.0Q34 220 31 234Q36 235 37.0 239.5Q38 244 45 243Q51 261 58.0 277.0Q65 293 72.5 308.0Q80 323 87.5 338.5Q95 354 102 373Q88 386 81.5 401.5Q75 417 72.0 432.5Q69 448 67.0 464.5Q65 481 60 498Q70 513 84.5 522.5Q99 532 116.0 538.0Q133 544 153.0 548.0Q173 552 195 557Q235 570 266.5 577.0Q298 584 328.5 588.5Q359 593 392.0 597.0Q425 601 467 609Q476 600 484 600Q488 609 493.5 605.5Q499 602 498 611Q508 594 523.5 582.5Q539 571 558 563Z"/></g>
    <g transform="translate(1235, 0)"><path d="M347 26Q332 76 303.5 122.0Q275 168 249 201Q208 170 171.5 132.5Q135 95 105 52Q103 31 100.0 17.5Q97 4 89.5 -5.0Q82 -14 70.5 -20.5Q59 -27 41 -34Q8 -10 -7.0 25.5Q-22 61 -11 96Q-10 121 1.5 145.0Q13 169 29.5 190.5Q46 212 65.0 231.5Q84 251 101 268Q104 278 112.5 285.5Q121 293 130.5 300.0Q140 307 149.5 315.0Q159 323 165 334Q158 357 138.0 380.5Q118 404 101 429Q99 434 93.5 432.0Q88 430 86 433Q88 446 80.5 461.0Q73 476 62 487Q65 498 69.0 513.5Q73 529 67 548Q67 556 70.0 563.5Q73 571 76.0 577.5Q79 584 81.0 590.5Q83 597 80 603Q93 605 103.0 602.0Q113 599 122.0 595.0Q131 591 138.5 589.0Q146 587 154 590Q153 585 154.0 583.0Q155 581 157.0 580.0Q159 579 161.0 577.5Q163 576 163 573Q179 568 198.0 551.5Q217 535 234.5 515.0Q252 495 266.0 475.0Q280 455 287 445Q311 460 339.0 480.5Q367 501 397.0 523.0Q427 545 457.5 564.5Q488 584 517 596Q534 588 543.5 576.5Q553 565 559.5 552.5Q566 540 571.0 526.5Q576 513 585 503Q577 486 567.5 474.5Q558 463 554 448Q533 439 504 421Q478 405 440.5 378.0Q403 351 350 306Q362 292 370.0 279.0Q378 266 383 257Q388 246 392 237Q401 230 407.0 221.0Q413 212 418.5 202.5Q424 193 431.0 184.5Q438 176 449 171Q455 141 466.0 117.5Q477 94 476 69Q469 46 455.5 31.0Q442 16 436 0Q427 -3 418.0 -6.0Q409 -9 404 -15Z"/></g>
    <g transform="translate(1754, 0)"><path d="M569 481Q544 481 515.0 477.5Q486 474 458 470Q438 467 419.5 465.0Q401 463 386 462Q379 440 372.0 423.0Q365 406 357 390Q349 373 342.5 355.5Q336 338 330 318Q320 302 313.5 288.5Q307 275 303 258Q291 243 285.0 226.5Q279 210 276 198L272 186Q266 180 265.0 176.5Q264 173 260 170Q259 159 253 148Q251 143 250.0 138.5Q249 134 249 132Q249 122 244 119Q245 114 244.0 108.5Q243 103 242 98Q239 86 240 79Q243 75 245.5 72.0Q248 69 249 64Q255 60 258 59Q262 56 270 52L279 42Q284 13 270 -4Q255 -23 219 -23H207Q202 -18 201 -15Q193 -12 188.0 -10.0Q183 -8 179 -2Q166 4 158 8L149 13Q149 24 149 25Q142 34 138.5 45.0Q135 56 133 67Q131 76 128.5 84.0Q126 92 122 98Q120 156 133.0 196.0Q146 236 160 273Q168 293 176.0 313.5Q184 334 190 356L199 366Q206 382 210.5 392.5Q215 403 220 414Q223 421 225.5 427.5Q228 434 230 439Q224 439 219.0 438.5Q214 438 209 437Q203 436 198.0 435.5Q193 435 188 435Q181 435 178 436Q167 431 154 431H144Q141 431 138.5 431.5Q136 432 134 432Q124 432 118 429Q106 429 95 429H85Q83 429 80.0 428.5Q77 428 75 428Q68 428 60.0 429.5Q52 431 43 436Q31 452 27 453L18 465Q17 471 15.0 476.5Q13 482 11 489Q7 499 3.5 510.5Q0 522 0 538Q1 546 4.0 550.0Q7 554 9 557L12 572L25 571H53Q85 571 118.0 573.5Q151 576 186 579Q206 581 226.5 583.0Q247 585 269 587Q273 596 277 604L287 609Q305 610 312.5 604.5Q320 599 325 594Q347 596 369.5 598.5Q392 601 415 605Q449 610 483.5 614.0Q518 618 550 618Q564 618 577.0 617.0Q590 616 601 614L611 607Q614 601 619.5 596.0Q625 591 631 586Q643 575 655.0 560.0Q667 545 664 516Q656 504 652 502L643 490L633 491Q627 491 622.0 489.5Q617 488 612 486Q608 484 604.0 482.5Q600 481 595 480Q586 480 580.5 480.5Q575 481 569 481Z"/></g>
    <g transform="translate(2624, 0)"><path d="M13 451Q16 466 17.0 475.5Q18 485 10 496Q14 512 16.5 521.0Q19 530 17 546Q26 572 44.5 590.0Q63 608 85.0 620.5Q107 633 131.0 641.5Q155 650 176 656Q176 660 172.0 660.0Q168 660 170 665Q224 675 278.5 694.0Q333 713 390.0 728.0Q447 743 507.0 746.5Q567 750 633 731Q637 719 644.0 708.0Q651 697 658.5 686.5Q666 676 672.0 666.0Q678 656 679 645Q691 634 698.5 621.5Q706 609 701 588Q690 580 678.0 572.0Q666 564 653 557Q608 568 563.0 565.0Q518 562 482 558Q471 570 456.0 569.5Q441 569 424.5 564.5Q408 560 392.0 555.5Q376 551 362 553Q351 543 333.0 539.5Q315 536 295 534Q294 529 297.0 527.0Q300 525 298 519Q305 510 317.0 506.5Q329 503 341.5 500.0Q354 497 364.0 491.5Q374 486 377 474Q395 473 408.0 464.5Q421 456 430.0 444.0Q439 432 443.0 418.5Q447 405 446 394Q450 384 454.5 386.0Q459 388 465 381Q469 366 483.5 349.5Q498 333 506 314Q508 284 509.5 260.0Q511 236 501 213Q484 169 452.0 134.0Q420 99 379.5 72.5Q339 46 294.0 26.5Q249 7 205 -6Q201 -5 195.5 -6.0Q190 -7 193 0Q184 -8 172.5 -10.0Q161 -12 147.5 -11.5Q134 -11 120.5 -10.0Q107 -9 94 -11Q86 -3 79.5 5.0Q73 13 69 24Q64 25 64.5 30.5Q65 36 60 36Q60 40 61.0 42.0Q62 44 63 46Q67 49 66.5 50.5Q66 52 63.5 53.5Q61 55 58.5 57.0Q56 59 57 62Q62 71 60.5 83.5Q59 96 58.0 109.0Q57 122 60.0 133.5Q63 145 77 153Q118 149 154.5 157.0Q191 165 223.5 179.0Q256 193 285.5 209.5Q315 226 343 240Q346 250 352.5 257.0Q359 264 366.0 270.5Q373 277 379.0 284.5Q385 292 388 303Q389 307 388.0 309.0Q387 311 385.0 312.5Q383 314 381.0 316.0Q379 318 379 322Q376 323 373.5 324.0Q371 325 369 325Q343 338 314.0 347.0Q285 356 265 367Q253 359 241.0 363.0Q229 367 212 371Q170 373 132.5 379.0Q95 385 60 400Q58 406 55.0 410.5Q52 415 41 413Q34 423 26.5 431.5Q19 440 13 451Z"/></g>
    <g transform="translate(3214, 0)"><path d="M569 481Q544 481 515.0 477.5Q486 474 458 470Q438 467 419.5 465.0Q401 463 386 462Q379 440 372.0 423.0Q365 406 357 390Q349 373 342.5 355.5Q336 338 330 318Q320 302 313.5 288.5Q307 275 303 258Q291 243 285.0 226.5Q279 210 276 198L272 186Q266 180 265.0 176.5Q264 173 260 170Q259 159 253 148Q251 143 250.0 138.5Q249 134 249 132Q249 122 244 119Q245 114 244.0 108.5Q243 103 242 98Q239 86 240 79Q243 75 245.5 72.0Q248 69 249 64Q255 60 258 59Q262 56 270 52L279 42Q284 13 270 -4Q255 -23 219 -23H207Q202 -18 201 -15Q193 -12 188.0 -10.0Q183 -8 179 -2Q166 4 158 8L149 13Q149 24 149 25Q142 34 138.5 45.0Q135 56 133 67Q131 76 128.5 84.0Q126 92 122 98Q120 156 133.0 196.0Q146 236 160 273Q168 293 176.0 313.5Q184 334 190 356L199 366Q206 382 210.5 392.5Q215 403 220 414Q223 421 225.5 427.5Q228 434 230 439Q224 439 219.0 438.5Q214 438 209 437Q203 436 198.0 435.5Q193 435 188 435Q181 435 178 436Q167 431 154 431H144Q141 431 138.5 431.5Q136 432 134 432Q124 432 118 429Q106 429 95 429H85Q83 429 80.0 428.5Q77 428 75 428Q68 428 60.0 429.5Q52 431 43 436Q31 452 27 453L18 465Q17 471 15.0 476.5Q13 482 11 489Q7 499 3.5 510.5Q0 522 0 538Q1 546 4.0 550.0Q7 554 9 557L12 572L25 571H53Q85 571 118.0 573.5Q151 576 186 579Q206 581 226.5 583.0Q247 585 269 587Q273 596 277 604L287 609Q305 610 312.5 604.5Q320 599 325 594Q347 596 369.5 598.5Q392 601 415 605Q449 610 483.5 614.0Q518 618 550 618Q564 618 577.0 617.0Q590 616 601 614L611 607Q614 601 619.5 596.0Q625 591 631 586Q643 575 655.0 560.0Q667 545 664 516Q656 504 652 502L643 490L633 491Q627 491 622.0 489.5Q617 488 612 486Q608 484 604.0 482.5Q600 481 595 480Q586 480 580.5 480.5Q575 481 569 481Z"/></g>
    <g transform="translate(3705, 0)"><path d="M558 563Q559 556 558.5 552.5Q558 549 557.5 546.0Q557 543 557.0 539.5Q557 536 559 529Q538 495 510.5 482.5Q483 470 451.0 464.5Q419 459 385.5 453.0Q352 447 319 427Q306 432 295.5 427.0Q285 422 265 424Q259 418 250.0 415.5Q241 413 232 410Q236 401 235.5 391.5Q235 382 238 376Q273 373 315.5 377.0Q358 381 399 382Q400 377 398.0 375.5Q396 374 397 370Q404 365 411.0 357.5Q418 350 425.0 343.0Q432 336 439.5 331.5Q447 327 457 328Q461 320 462.5 310.5Q464 301 460 291Q444 280 428.0 268.5Q412 257 394.5 248.0Q377 239 357.5 233.5Q338 228 314 229Q309 229 306.5 229.0Q304 229 300 232Q292 227 277.5 229.0Q263 231 255 226Q244 231 228.5 230.5Q213 230 201 234Q185 213 172.0 189.0Q159 165 149 138Q183 133 205.5 134.0Q228 135 248.0 137.5Q268 140 289.0 142.5Q310 145 342 144Q362 155 389.5 158.5Q417 162 440 170Q448 167 454.0 159.5Q460 152 465.5 145.5Q471 139 477.0 134.0Q483 129 492 130Q496 126 497.5 120.5Q499 115 500.0 110.0Q501 105 503.5 101.5Q506 98 512 99Q497 66 477.5 48.5Q458 31 433.0 22.0Q408 13 377.5 8.0Q347 3 310 -4Q301 -6 295.0 -3.5Q289 -1 281 -1Q258 -6 226.0 -10.0Q194 -14 161.0 -13.0Q128 -12 98.0 -4.5Q68 3 49 22Q41 29 38.5 38.5Q36 48 25 53Q24 66 21.0 82.0Q18 98 15.0 115.5Q12 133 10.5 150.0Q9 167 12 181Q15 196 24.5 208.0Q34 220 31 234Q36 235 37.0 239.5Q38 244 45 243Q51 261 58.0 277.0Q65 293 72.5 308.0Q80 323 87.5 338.5Q95 354 102 373Q88 386 81.5 401.5Q75 417 72.0 432.5Q69 448 67.0 464.5Q65 481 60 498Q70 513 84.5 522.5Q99 532 116.0 538.0Q133 544 153.0 548.0Q173 552 195 557Q235 570 266.5 577.0Q298 584 328.5 588.5Q359 593 392.0 597.0Q425 601 467 609Q476 600 484 600Q488 609 493.5 605.5Q499 602 498 611Q508 594 523.5 582.5Q539 571 558 563Z"/></g>
    <g transform="translate(4239, 0)"><path d="M377 620Q419 615 452.0 603.0Q485 591 508 571Q524 546 538.5 517.0Q553 488 560.5 456.5Q568 425 567.5 392.0Q567 359 553 325Q524 289 482.5 266.5Q441 244 393.0 230.0Q345 216 293.5 206.0Q242 196 193 186Q194 163 193.5 137.5Q193 112 188.5 86.5Q184 61 175.0 37.0Q166 13 151 -7Q134 -7 116.0 -11.5Q98 -16 84 -19Q77 -15 71.5 -11.5Q66 -8 56 -7Q58 3 51.0 13.5Q44 24 37.0 35.0Q30 46 27.5 56.0Q25 66 37 75Q30 82 30 93Q37 105 42.5 126.0Q48 147 51.5 167.5Q55 188 53.0 205.0Q51 222 33 230Q34 232 37.0 232.0Q40 232 43 233Q35 239 33.5 250.0Q32 261 26 269Q28 274 29.0 278.0Q30 282 36 281Q33 299 36.5 315.0Q40 331 47.0 345.5Q54 360 64.0 374.0Q74 388 83 402Q90 403 91.5 400.0Q93 397 98 401Q111 411 116.0 422.0Q121 433 121 447Q128 468 138.0 489.5Q148 511 160.0 529.0Q172 547 186.5 561.0Q201 575 217 582Q229 592 247.0 600.5Q265 609 286.0 613.5Q307 618 328.5 618.5Q350 619 368 614Q373 612 373.5 616.0Q374 620 377 620ZM336 381Q361 392 389.5 398.5Q418 405 437 423Q425 434 402.0 442.5Q379 451 352.0 453.0Q325 455 297.5 448.5Q270 442 250 424Q244 406 240.0 395.5Q236 385 229 370Q231 365 235.5 362.5Q240 360 242 355Q265 367 288.5 368.5Q312 370 336 381Z"/></g>
    <g transform="translate(4776, 0)"><path d="M16 450Q23 471 38.5 486.0Q54 501 72.5 511.5Q91 522 111.0 529.0Q131 536 149 541Q189 558 234.5 573.5Q280 589 327.5 601.0Q375 613 425.0 616.5Q475 620 530 604Q533 594 539.0 585.0Q545 576 551.5 567.0Q558 558 563.0 549.5Q568 541 569 532Q579 523 585.0 512.5Q591 502 587 485Q577 477 567.5 470.5Q558 464 547 459Q510 468 472.0 465.0Q434 462 404 460Q395 469 382.5 469.0Q370 469 356.5 465.0Q343 461 329.5 457.0Q316 453 304 455Q294 447 279.5 444.5Q265 442 248 440Q247 435 250.0 433.5Q253 432 251 427Q257 420 266.5 417.0Q276 414 286.5 411.0Q297 408 305.0 403.5Q313 399 316 389Q331 389 342.0 382.0Q353 375 360.0 365.0Q367 355 370.5 343.5Q374 332 374 323Q377 315 381.0 316.0Q385 317 390 312Q393 299 405.0 285.5Q417 272 424 256Q426 231 427.0 211.5Q428 192 420 172Q405 135 378.5 106.0Q352 77 318.5 54.5Q285 32 247.0 16.0Q209 0 173 -11Q169 -10 165.0 -11.0Q161 -12 163 -6Q155 -13 145.5 -15.0Q136 -17 125.0 -16.5Q114 -16 102.5 -15.0Q91 -14 81 -16Q74 -9 68.5 -2.5Q63 4 60 14Q55 14 55.5 19.0Q56 24 52 24Q58 34 57.5 35.5Q57 37 54.5 38.0Q52 39 50.0 40.5Q48 42 49 45Q53 53 52.0 63.5Q51 74 50.0 85.0Q49 96 51.5 106.0Q54 116 66 122Q100 118 130.5 124.5Q161 131 188.0 143.0Q215 155 239.5 169.0Q264 183 288 194Q291 203 296.5 209.0Q302 215 308.0 220.0Q314 225 319.0 231.0Q324 237 326 246Q327 253 322.5 254.5Q318 256 318 262L307 265Q288 276 264.0 283.5Q240 291 223 300Q212 294 202.5 297.0Q193 300 178 303Q144 305 112.5 310.0Q81 315 52 328Q50 333 47.0 337.0Q44 341 36 339Q30 347 24.0 354.5Q18 362 13 371Q15 383 16.0 391.5Q17 400 10 408Q14 421 16.0 429.0Q18 437 16 450Z"/></g>
  </g>
</svg>