<?xml version="1.0" encoding="UTF-8"?>
<svg xmlns="http://www.w3.org/2000/svg" viewBox="0 0 140.8 18" 
     width="140.8" height="18">
  <g transform="translate(0, 15.299999999999999) scale(0.017578, -0.017578)" fill="#FFFFFF">
    <g transform="translate(0, 0)"><path d="M22 564Q21 572 18.5 578.5Q16 585 13 593Q8 605 4.0 619.0Q0 633 0 652Q2 662 5.0 666.5Q8 671 11 674L15 692H30Q38 691 46.5 691.0Q55 691 63 691Q101 691 141.0 694.0Q181 697 223 701Q269 707 322 710Q327 721 328.5 724.0Q330 727 332 731L343 737Q366 738 375.0 731.5Q384 725 389 719Q415 721 442.0 724.5Q469 728 498 732Q538 737 579.0 742.0Q620 747 659 747Q676 747 691.0 746.0Q706 745 720 743L732 734Q736 727 742.0 721.0Q748 715 756 709Q771 697 785.5 679.0Q800 661 796 626L791 616Q787 612 781 608L771 595H760Q750 595 745.0 593.5Q740 592 733 589Q729 587 724.0 585.5Q719 584 713 582Q702 583 696.0 583.0Q690 583 682 583Q652 583 617.0 579.0Q582 575 549 570Q525 567 503.0 564.5Q481 562 463 560Q453 534 445.0 514.0Q437 494 428 474Q419 454 411.0 433.5Q403 413 396 388Q384 370 376.0 353.5Q368 337 363 316Q348 299 341.5 279.0Q335 259 330 245L326 230Q319 223 317.5 219.0Q316 215 312 210Q309 197 304 185Q302 180 300.0 174.5Q298 169 299 166Q297 155 293 149Q293 143 292.0 137.0Q291 131 290 125Q288 118 287.0 112.5Q286 107 288 102Q291 98 294.0 94.0Q297 90 299 84Q301 82 304.0 81.0Q307 80 309 78Q317 71 324 70L334 58Q340 22 323 2Q305 -21 263 -21L249 -20Q242 -13 241 -11Q232 -7 226.0 -4.5Q220 -2 215 5Q213 7 210.0 7.5Q207 8 205 10Q195 13 189 17L178 23Q179 33 179 37Q171 48 166.5 61.0Q162 74 159 88Q156 99 153.5 108.0Q151 117 146 124Q144 194 159.0 241.5Q174 289 192 334Q202 358 211.0 383.0Q220 408 227 434L238 445Q245 451 247 452Q247 465 252.0 477.5Q257 490 263 503Q267 511 270.5 519.0Q274 527 275 533Q268 533 262.5 532.5Q257 532 251 531Q238 528 226 528Q217 528 213 529Q205 525 198.0 524.5Q191 524 184 524H172H160Q148 524 141 521Q127 521 123.0 521.0Q119 521 114 521H102H90Q82 521 72.0 522.5Q62 524 51 530L44 538Q38 549 33 550L22 553Z"/></g>
    <g transform="translate(622, 0)"><path d="M558 563Q559 556 558.5 552.5Q558 549 557.5 546.0Q557 543 557.0 539.5Q557 536 559 529Q538 495 510.5 482.5Q483 470 451.0 464.5Q419 459 385.5 453.0Q352 447 319 427Q306 432 295.5 427.0Q285 422 265 424Q259 418 250.0 415.5Q241 413 232 410Q236 401 235.5 391.5Q235 382 238 376Q273 373 315.5 377.0Q358 381 399 382Q400 377 398.0 375.5Q396 374 397 370Q404 365 411.0 357.5Q418 350 425.0 343.0Q432 336 439.5 331.5Q447 327 457 328Q461 320 462.5 310.5Q464 301 460 291Q444 280 428.0 268.5Q412 257 394.5 248.0Q377 239 357.5 233.5Q338 228 314 229Q309 229 306.5 229.0Q304 229 300 232Q292 227 277.5 229.0Q263 231 255 226Q244 231 228.5 230.5Q213 230 201 234Q185 213 172.0 189.0Q159 165 149 138Q183 133 205.5 134.0Q228 135 248.0 137.5Q268 140 289.0 142.5Q310 145 342 144Q362 155 389.5 158.5Q417 162 440 170Q448 167 454.0 159.5Q460 152 465.5 145.5Q471 139 477.0 134.0Q483 129 492 130Q496 126 497.5 120.5Q499 115 500.0 110.0Q501 105 503.5 101.5Q506 98 512 99Q497 66 477.5 48.5Q458 31 433.0 22.0Q408 13 377.5 8.0Q347 3 310 -4Q301 -6 295.0 -3.5Q289 -1 281 -1Q258 -6 226.0 -10.0Q194 -14 161.0 -13.0Q128 -12 98.0 -4.5Q68 3 49 22Q41 29 38.5 38.5Q36 48 25 53Q24 66 21.0 82.0Q18 98 15.0 115.5Q12 133 10.5 150.0Q9 167 12 181Q15 196 24.5 208.0Q34 220 31 234Q36 235 37.0 239.5Q38 244 45 243Q51 261 58.0 277.0Q65 293 72.5 308.0Q80 323 87.5 338.5Q95 354 102 373Q88 386 81.5 401.5Q75 417 72.0 432.5Q69 448 67.0 464.5Q65 481 60 498Q70 513 84.5 522.5Q99 532 116.0 538.0Q133 544 153.0 548.0Q173 552 195 557Q235 570 266.5 577.0Q298 584 328.5 588.5Q359 593 392.0 597.0Q425 601 467 609Q476 600 484 600Q488 609 493.5 605.5Q499 602 498 611Q508 594 523.5 582.5Q539 571 558 563Z"/></g>
    <g transform="translate(1156, 0)"><path d="M347 26Q332 76 303.5 122.0Q275 168 249 201Q208 170 171.5 132.5Q135 95 105 52Q103 31 100.0 17.5Q97 4 89.5 -5.0Q82 -14 70.5 -20.5Q59 -27 41 -34Q8 -10 -7.0 25.5Q-22 61 -11 96Q-10 121 1.5 145.0Q13 169 29.5 190.5Q46 212 65.0 231.5Q84 251 101 268Q104 278 112.5 285.5Q121 293 130.5 300.0Q140 307 149.5 315.0Q159 323 165 334Q158 357 138.0 380.5Q118 404 101 429Q99 434 93.5 432.0Q88 430 86 433Q88 446 80.5 461.0Q73 476 62 487Q65 498 69.0 513.5Q73 529 67 548Q67 556 70.0 563.5Q73 571 76.0 577.5Q79 584 81.0 590.5Q83 597 80 603Q93 605 103.0 602.0Q113 599 122.0 595.0Q131 591 138.5 589.0Q146 587 154 590Q153 585 154.0 583.0Q155 581 157.0 580.0Q159 579 161.0 577.5Q163 576 163 573Q179 568 198.0 551.5Q217 535 234.5 515.0Q252 495 266.0 475.0Q280 455 287 445Q311 460 339.0 480.5Q367 501 397.0 523.0Q427 545 457.5 564.5Q488 584 517 596Q534 588 543.5 576.5Q553 565 559.5 552.5Q566 540 571.0 526.5Q576 513 585 503Q577 486 567.5 474.5Q558 463 554 448Q533 439 504 421Q478 405 440.5 378.0Q403 351 350 306Q362 292 370.0 279.0Q378 266 383 257Q388 246 392 237Q401 230 407.0 221.0Q413 212 418.5 202.5Q424 193 431.0 184.5Q438 176 449 171Q455 141 466.0 117.5Q477 94 476 69Q469 46 455.5 31.0Q442 16 436 0Q427 -3 418.0 -6.0Q409 -9 404 -15Z"/></g>
    <g transform="translate(1675, 0)"><path d="M569 481Q544 481 515.0 477.5Q486 474 458 470Q438 467 419.5 465.0Q401 463 386 462Q379 440 372.0 423.0Q365 406 357 390Q349 373 342.5 355.5Q336 338 330 318Q320 302 313.5 288.5Q307 275 303 258Q291 243 285.0 226.5Q279 210 276 198L272 186Q266 180 265.0 176.5Q264 173 260 170Q259 159 253 148Q251 143 250.0 138.5Q249 134 249 132Q249 122 244 119Q245 114 244.0 108.5Q243 103 242 98Q239 86 240 79Q243 75 245.5 72.0Q248 69 249 64Q255 60 258 59Q262 56 270 52L279 42Q284 13 270 -4Q255 -23 219 -23H207Q202 -18 201 -15Q193 -12 188.0 -10.0Q183 -8 179 -2Q166 4 158 8L149 13Q149 24 149 25Q142 34 138.5 45.0Q135 56 133 67Q131 76 128.5 84.0Q126 92 122 98Q120 156 133.0 196.0Q146 236 160 273Q168 293 176.0 313.5Q184 334 190 356L199 366Q206 382 210.5 392.5Q215 403 220 414Q223 421 225.5 427.5Q228 434 230 439Q224 439 219.0 438.5Q214 438 209 437Q203 436 198.0 435.5Q193 435 188 435Q181 435 178 436Q167 431 154 431H144Q141 431 138.5 431.5Q136 432 134 432Q124 432 118 429Q106 429 95 429H85Q83 429 80.0 428.5Q77 428 75 428Q68 428 60.0 429.5Q52 431 43 436Q31 452 27 453L18 465Q17 471 15.0 476.5Q13 482 11 489Q7 499 3.5 510.5Q0 522 0 538Q1 546 4.0 550.0Q7 554 9 557L12 572L25 571H53Q85 571 118.0 573.5Q151 576 186 579Q206 581 226.5 583.0Q247 585 269 587Q273 596 277 604L287 609Q305 610 312.5 604.5Q320 599 325 594Q347 596 369.5 598.5Q392 601 415 605Q449 610 483.5 614.0Q518 618 550 618Q564 618 577.0 617.0Q590 616 601 614L611 607Q614 601 619.5 596.0Q625 591 631 586Q643 575 655.0 560.0Q667 545 664 516Q656 504 652 502L643 490L633 491Q627 491 622.0 489.5Q617 488 612 486Q608 484 604.0 482.5Q600 481 595 480Q586 480 580.5 480.5Q575 481 569 481Z"/></g>
    <g transform="translate(2166, 0)"><path d="M549 163Q555 160 556.0 153.0Q557 146 556 142Q538 119 531.0 110.0Q524 101 521.0 96.5Q518 92 514.5 89.0Q511 86 499 76Q454 49 406.5 28.0Q359 7 307 -1Q299 -12 276.5 -16.5Q254 -21 235 -25Q231 -23 230.5 -19.5Q230 -16 226 -14Q225 -24 217.0 -24.5Q209 -25 197.5 -20.5Q186 -16 173.5 -8.5Q161 -1 152 5Q147 -3 141.5 -11.0Q136 -19 128 -22Q117 -20 111.5 -19.0Q106 -18 101 -23Q95 -20 91.5 -16.0Q88 -12 84.5 -8.5Q81 -5 76.5 -2.0Q72 1 64 3Q66 7 62.0 15.5Q58 24 50 26Q54 33 46.5 43.5Q39 54 35 67Q37 78 38.0 91.0Q39 104 50 106Q49 113 47.0 118.0Q45 123 43 128Q50 134 53.0 142.5Q56 151 58.0 160.0Q60 169 63.0 178.0Q66 187 74 193Q83 223 88.0 237.5Q93 252 95.5 266.0Q98 280 101.5 296.0Q105 312 114 336Q113 351 117.0 362.5Q121 374 125.5 385.5Q130 397 133.0 409.5Q136 422 132 439Q118 438 112.0 429.5Q106 421 104 407Q96 399 84.5 399.5Q73 400 64 397Q29 411 6.0 437.0Q-17 463 -31 498Q-22 521 -4.0 536.5Q14 552 37.0 562.5Q60 573 86.0 579.5Q112 586 136 592Q175 599 214.0 608.0Q253 617 298 614Q304 617 312.5 617.5Q321 618 330.0 618.0Q339 618 347.5 618.5Q356 619 362 622Q367 616 376.5 614.5Q386 613 397 605Q409 614 417.5 609.0Q426 604 433.0 598.0Q440 592 446.5 587.0Q453 582 460 582Q467 573 477.5 565.0Q488 557 497.5 548.5Q507 540 513.5 530.0Q520 520 520 507Q519 502 523.0 501.0Q527 500 529 497Q530 466 519.5 443.5Q509 421 493.5 402.0Q478 383 459.5 366.0Q441 349 426 330Q436 317 449.0 307.0Q462 297 475.5 287.0Q489 277 501.0 266.0Q513 255 521 240Q523 238 526.0 236.5Q529 235 532 233Q535 223 540.0 212.5Q545 202 548.5 192.5Q552 183 553.0 175.5Q554 168 549 163ZM373 497Q322 499 271.5 488.0Q221 477 187 457Q204 443 221.5 432.0Q239 421 249 402Q288 418 318.0 442.5Q348 467 373 497ZM386 178Q389 188 397.0 194.0Q405 200 413.0 205.5Q421 211 427.0 217.5Q433 224 432 236Q400 253 373.5 256.5Q347 260 323.5 256.5Q300 253 278.5 246.0Q257 239 235 236Q224 207 212.0 173.0Q200 139 189 107Q219 111 244.0 119.5Q269 128 292.5 138.0Q316 148 338.5 158.5Q361 169 386 178Z"/></g>
    <g transform="translate(2753, 0)"><path d="M583 300Q582 288 585.0 277.0Q588 266 592.5 255.5Q597 245 601.0 234.0Q605 223 607 212Q609 198 607.0 181.5Q605 165 600.0 149.5Q595 134 587.0 121.5Q579 109 568 103Q554 85 534.0 75.0Q514 65 497 51Q486 44 472.5 41.0Q459 38 445 35Q434 29 419.0 22.5Q404 16 388.0 10.5Q372 5 356.0 2.5Q340 0 328 1Q298 -10 269.5 -13.5Q241 -17 203 -9Q167 -14 136.5 -6.0Q106 2 82.5 19.5Q59 37 41.5 61.5Q24 86 13 113Q5 170 17.0 216.5Q29 263 51.5 302.5Q74 342 103.0 375.5Q132 409 159 441Q165 439 168.5 441.5Q172 444 175.0 448.5Q178 453 181.5 457.0Q185 461 190 462Q197 477 210.5 484.5Q224 492 232 506Q241 508 247.0 512.0Q253 516 258.5 521.0Q264 526 270.0 530.5Q276 535 284 537V548Q302 556 310.5 566.5Q319 577 331 592Q340 593 345.5 593.0Q351 593 362 595Q370 609 376.5 616.0Q383 623 396 631Q408 625 422.5 623.0Q437 621 448 610Q449 600 454.0 594.5Q459 589 465.0 584.5Q471 580 476.5 575.0Q482 570 484 561Q488 560 489.5 562.0Q491 564 495 563Q498 549 502.0 544.5Q506 540 510 527Q505 517 502.5 506.5Q500 496 490 491Q489 484 494.0 483.5Q499 483 500 478Q501 469 497 465Q521 426 540.0 382.5Q559 339 583 300ZM458 205Q462 216 468.5 223.0Q475 230 476 244Q471 252 470.0 256.5Q469 261 469 271Q447 302 431.0 337.5Q415 373 395 404Q393 400 388.0 396.0Q383 392 377 398Q375 390 370.0 386.5Q365 383 359.0 383.5Q353 384 346.5 386.5Q340 389 335 393Q306 370 277.0 348.0Q248 326 225 297Q221 295 220.0 295.5Q219 296 214 294Q206 275 194.5 259.5Q183 244 172.0 228.0Q161 212 153.0 194.0Q145 176 144 152Q161 138 184.0 135.0Q207 132 231.5 134.0Q256 136 279.5 140.5Q303 145 323 145Q365 155 395.0 171.5Q425 188 458 205Z"/></g>
    <g transform="translate(3397, 0)"><path d="M583 300Q582 288 585.0 277.0Q588 266 592.5 255.5Q597 245 601.0 234.0Q605 223 607 212Q609 198 607.0 181.5Q605 165 600.0 149.5Q595 134 587.0 121.5Q579 109 568 103Q554 85 534.0 75.0Q514 65 497 51Q486 44 472.5 41.0Q459 38 445 35Q434 29 419.0 22.5Q404 16 388.0 10.5Q372 5 356.0 2.5Q340 0 328 1Q298 -10 269.5 -13.5Q241 -17 203 -9Q167 -14 136.5 -6.0Q106 2 82.5 19.5Q59 37 41.5 61.5Q24 86 13 113Q5 170 17.0 216.5Q29 263 51.5 302.5Q74 342 103.0 375.5Q132 409 159 441Q165 439 168.5 441.5Q172 444 175.0 448.5Q178 453 181.5 457.0Q185 461 190 462Q197 477 210.5 484.5Q224 492 232 506Q241 508 247.0 512.0Q253 516 258.5 521.0Q264 526 270.0 530.5Q276 535 284 537V548Q302 556 310.5 566.5Q319 577 331 592Q340 593 345.5 593.0Q351 593 362 595Q370 609 376.5 616.0Q383 623 396 631Q408 625 422.5 623.0Q437 621 448 610Q449 600 454.0 594.5Q459 589 465.0 584.5Q471 580 476.5 575.0Q482 570 484 561Q488 560 489.5 562.0Q491 564 495 563Q498 549 502.0 544.5Q506 540 510 527Q505 517 502.5 506.5Q500 496 490 491Q489 484 494.0 483.5Q499 483 500 478Q501 469 497 465Q521 426 540.0 382.5Q559 339 583 300ZM458 205Q462 216 468.5 223.0Q475 230 476 244Q471 252 470.0 256.5Q469 261 469 271Q447 302 431.0 337.5Q415 373 395 404Q393 400 388.0 396.0Q383 392 377 398Q375 390 370.0 386.5Q365 383 359.0 383.5Q353 384 346.5 386.5Q340 389 335 393Q306 370 277.0 348.0Q248 326 225 297Q221 295 220.0 295.5Q219 296 214 294Q206 275 194.5 259.5Q183 244 172.0 228.0Q161 212 153.0 194.0Q145 176 144 152Q161 138 184.0 135.0Q207 132 231.5 134.0Q256 136 279.5 140.5Q303 145 323 145Q365 155 395.0 171.5Q425 188 458 205Z"/></g>
    <g transform="translate(4041, 0)"><path d="M603 36Q555 34 518.5 38.0Q482 42 447 57Q445 58 443.0 62.0Q441 66 439 68Q433 71 424.5 70.5Q416 70 410 72Q402 76 385.0 87.5Q368 99 354 109Q336 123 320.0 137.0Q304 151 292 167Q289 171 284.0 171.5Q279 172 275 174Q246 156 226.0 129.0Q206 102 188.0 74.0Q170 46 150.0 21.0Q130 -4 99 -17Q90 -17 83.0 -14.0Q76 -11 70.0 -6.5Q64 -2 58.0 2.0Q52 6 45 8Q45 20 40.5 30.0Q36 40 31.5 49.0Q27 58 25.0 66.5Q23 75 29 83Q23 89 11 96Q17 102 16.5 107.0Q16 112 14.0 117.0Q12 122 10.5 128.0Q9 134 13 140Q18 140 25 142Q19 150 19.5 151.5Q20 153 17 156Q15 162 19.0 163.5Q23 165 27 167Q31 216 44.0 258.0Q57 300 73.0 339.0Q89 378 104.5 418.0Q120 458 130 504Q141 515 147.5 530.0Q154 545 161.5 560.0Q169 575 178.5 589.5Q188 604 205 613Q219 612 230.0 605.5Q241 599 257 600Q260 595 262.5 590.0Q265 585 269 580L284 583Q295 574 303.5 560.5Q312 547 315.0 532.0Q318 517 314.0 503.5Q310 490 295 482Q296 477 295.5 474.5Q295 472 294.0 470.0Q293 468 293.0 466.0Q293 464 296 460Q276 445 266.0 418.0Q256 391 255 370Q267 382 281.5 393.5Q296 405 311.5 416.0Q327 427 341.5 437.0Q356 447 368 457Q401 487 431.5 505.5Q462 524 496 547Q504 549 508.5 547.5Q513 546 518 544Q518 550 514.5 551.0Q511 552 512 559Q527 563 538.0 568.5Q549 574 562 579Q571 570 579.0 560.5Q587 551 601 549Q606 538 613.0 532.5Q620 527 627.0 522.0Q634 517 639.5 510.0Q645 503 646 488Q642 481 637.5 473.0Q633 465 629 454Q609 436 588.5 422.0Q568 408 547.0 395.0Q526 382 504.0 369.0Q482 356 459 338Q454 331 446.5 325.5Q439 320 431.0 314.5Q423 309 416.0 303.0Q409 297 405 289Q402 288 399.0 288.0Q396 288 393 287Q390 280 383.5 276.0Q377 272 375 265Q390 233 414.0 216.0Q438 199 468.0 191.5Q498 184 533.0 183.5Q568 183 606 183Q610 184 609.5 187.5Q609 191 614 190Q638 182 651.0 167.5Q664 153 682 139Q680 101 659.0 76.0Q638 51 603 36Z"/></g>
    <g transform="translate(5081, 0)"><path d="M45 282Q46 286 49.5 285.5Q53 285 56 286Q48 294 46.0 307.5Q44 321 36 330Q38 335 39.5 340.0Q41 345 48 344Q45 366 49.0 385.0Q53 404 61.5 421.0Q70 438 81.5 454.5Q93 471 104 488Q113 490 115.0 486.5Q117 483 122 488Q138 499 144.0 512.5Q150 526 150 542Q159 568 170.5 593.5Q182 619 197.0 641.0Q212 663 229.0 679.5Q246 696 266 705Q280 717 301.5 727.0Q323 737 347.5 742.5Q372 748 398.0 748.5Q424 749 446 743Q451 741 452.0 745.5Q453 750 457 750Q507 744 546.5 730.0Q586 716 614 691Q633 661 650.0 626.5Q667 592 676.5 554.5Q686 517 685.0 477.0Q684 437 668 397Q633 353 583.0 326.5Q533 300 475.5 282.5Q418 265 356.5 254.0Q295 243 237 230Q238 203 237.0 172.5Q236 142 230.5 111.5Q225 81 214.5 52.0Q204 23 186 -2Q166 -1 144.5 -6.0Q123 -11 106 -16Q98 -11 90.5 -6.5Q83 -2 72 -1Q75 11 66.5 24.0Q58 37 49.5 49.5Q41 62 38.5 74.5Q36 87 50 97Q42 104 42 119Q46 115 52 115Q50 133 56.5 158.0Q63 183 67.5 207.5Q72 232 69.0 252.5Q66 273 45 282ZM305 516Q301 505 298.5 496.5Q296 488 293.0 481.0Q290 474 286.5 467.0Q283 460 279 451Q281 445 287.0 442.0Q293 439 295 433Q309 440 323.0 443.5Q337 447 351.0 449.0Q365 451 379.0 454.0Q393 457 408 464Q423 471 439.5 475.5Q456 480 472.0 485.0Q488 490 503.0 496.5Q518 503 529 514Q515 527 487.0 537.0Q459 547 426.5 549.5Q394 552 361.5 545.0Q329 538 305 516Z"/></g>
    <g transform="translate(5736, 0)"><path d="M529 84Q523 67 511.5 49.5Q500 32 484.5 18.5Q469 5 450.0 -4.0Q431 -13 410 -14Q397 -11 392.5 -7.5Q388 -4 383 -1Q380 1 377.5 2.5Q375 4 373 5L361 10L365 23Q367 31 364.0 35.5Q361 40 352 48Q349 51 346.0 54.0Q343 57 341 60L324 79L351 86Q376 93 384.5 104.0Q393 115 391 141Q371 145 357.5 142.0Q344 139 330 135Q312 130 293.5 126.5Q275 123 253 123Q245 123 238.0 123.5Q231 124 223 125L213 127Q211 138 209.0 139.5Q207 141 205 143Q200 148 194.5 156.5Q189 165 192 178Q187 187 186 196Q180 184 177 171L173 161L163 159Q161 158 160.0 154.5Q159 151 159 149L154 132Q152 130 150.0 128.5Q148 127 146 125Q144 116 141.0 107.0Q138 98 135 90Q130 77 126.5 64.5Q123 52 124 40L120 29Q115 23 109.0 19.5Q103 16 97 13Q95 11 91.5 9.5Q88 8 86 7L83 -4L71 -6Q60 -8 55.5 -9.0Q51 -10 45 -10L35 -9Q24 0 18.0 5.5Q12 11 4 16Q-5 28 -6.0 34.0Q-7 40 -8 45Q-10 51 -10.5 55.0Q-11 59 -13 61L-26 73L-15 82L-14 99Q6 150 28.5 197.0Q51 244 75 293Q83 309 90.5 325.0Q98 341 106 357Q105 360 105.0 364.0Q105 368 107 373Q118 390 125.0 403.5Q132 417 139 431Q147 448 155.5 464.0Q164 480 177 497L193 504Q196 505 200.0 506.5Q204 508 209 508L224 506Q252 519 273.0 542.5Q294 566 316 599L326 613L339 605Q344 602 353.0 599.5Q362 597 372 594Q390 590 406.0 585.0Q422 580 432 570Q438 554 439.0 546.0Q440 538 442 530Q445 513 447.5 496.0Q450 479 451 458Q456 441 459.5 424.5Q463 408 466 391Q471 367 476.0 344.5Q481 322 489 302Q497 302 499 301Q504 303 509.5 304.0Q515 305 522 306L533 307L537 297Q538 292 547 287Q560 286 566.0 281.5Q572 277 577 272Q581 268 585 266L600 260L592 245Q582 227 563.5 210.5Q545 194 522 183Q523 177 523.5 171.5Q524 166 526 160Q529 143 531.0 125.0Q533 107 531 88ZM240 257Q270 259 294.5 261.5Q319 264 349 270Q342 300 334.0 332.5Q326 365 317 397L311 387Q291 366 272.5 340.0Q254 314 241 291Q235 282 229.0 273.0Q223 264 218 255Q224 256 229.5 256.0Q235 256 240 257Z"/></g>
    <g transform="translate(6331, 0)"><path d="M709 180Q685 137 646.0 113.5Q607 90 560.0 74.5Q513 59 461.5 47.0Q410 35 362 16Q348 16 337.5 15.0Q327 14 317.5 12.5Q308 11 299.0 9.5Q290 8 279 7Q275 8 274.0 5.5Q273 3 271 1Q254 -2 240.5 -2.0Q227 -2 218 -2Q206 -2 193.5 -5.5Q181 -9 171 -8Q96 -4 53.5 45.5Q11 95 6 183Q7 188 4.5 189.0Q2 190 0 192Q0 202 2.5 209.0Q5 216 3 227Q29 282 62.0 329.5Q95 377 141 413Q148 419 153.0 425.0Q158 431 162.5 437.0Q167 443 173.0 447.5Q179 452 188 454Q209 478 238.0 498.0Q267 518 299.0 536.5Q331 555 362.5 573.5Q394 592 420 615Q431 610 436.0 612.0Q441 614 447 612Q454 597 466.5 591.0Q479 585 491.5 578.5Q504 572 515.0 563.0Q526 554 532 539Q526 539 526.5 534.5Q527 530 529.0 525.5Q531 521 530.5 516.5Q530 512 523 512Q524 507 529.5 506.5Q535 506 535 501Q535 496 532.5 493.0Q530 490 532 483Q512 470 487.5 458.0Q463 446 436.5 432.5Q410 419 381.5 403.5Q353 388 326 368Q299 348 271.0 323.5Q243 299 217.0 272.0Q191 245 168.0 216.5Q145 188 129 160Q131 155 133.5 152.5Q136 150 138 145Q170 143 197.5 145.5Q225 148 253 142Q256 144 257.0 148.0Q258 152 262 154Q319 160 368.0 172.5Q417 185 468 199Q460 202 453.5 204.5Q447 207 441 209Q436 214 441.5 217.5Q447 221 451 225Q437 233 428.5 245.0Q420 257 418 277Q424 282 424.0 289.0Q424 296 418 300Q414 301 413.0 300.0Q412 299 411.5 297.0Q411 295 410.0 293.5Q409 292 405 294Q406 303 409.5 309.0Q413 315 415 323L484 369Q495 361 511.0 351.5Q527 342 544.5 332.5Q562 323 580.5 313.5Q599 304 615 295Q629 289 640.0 279.0Q651 269 661.0 258.5Q671 248 681.5 238.0Q692 228 706 221Q704 208 707.0 200.0Q710 192 709 180Z"/></g>
    <g transform="translate(6999, 0)"><path d="M558 563Q559 556 558.5 552.5Q558 549 557.5 546.0Q557 543 557.0 539.5Q557 536 559 529Q538 495 510.5 482.5Q483 470 451.0 464.5Q419 459 385.5 453.0Q352 447 319 427Q306 432 295.5 427.0Q285 422 265 424Q259 418 250.0 415.5Q241 413 232 410Q236 401 235.5 391.5Q235 382 238 376Q273 373 315.5 377.0Q358 381 399 382Q400 377 398.0 375.5Q396 374 397 370Q404 365 411.0 357.5Q418 350 425.0 343.0Q432 336 439.5 331.5Q447 327 457 328Q461 320 462.5 310.5Q464 301 460 291Q444 280 428.0 268.5Q412 257 394.5 248.0Q377 239 357.5 233.5Q338 228 314 229Q309 229 306.5 229.0Q304 229 300 232Q292 227 277.5 229.0Q263 231 255 226Q244 231 228.5 230.5Q213 230 201 234Q185 213 172.0 189.0Q159 165 149 138Q183 133 205.5 134.0Q228 135 248.0 137.5Q268 140 289.0 142.5Q310 145 342 144Q362 155 389.5 158.5Q417 162 440 170Q448 167 454.0 159.5Q460 152 465.5 145.5Q471 139 477.0 134.0Q483 129 492 130Q496 126 497.5 120.5Q499 115 500.0 110.0Q501 105 503.5 101.5Q506 98 512 99Q497 66 477.5 48.5Q458 31 433.0 22.0Q408 13 377.5 8.0Q347 3 310 -4Q301 -6 295.0 -3.5Q289 -1 281 -1Q258 -6 226.0 -10.0Q194 -14 161.0 -13.0Q128 -12 98.0 -4.5Q68 3 49 22Q41 29 38.5 38.5Q36 48 25 53Q24 66 21.0 82.0Q18 98 15.0 115.5Q12 133 10.5 150.0Q9 167 12 181Q15 196 24.5 208.0Q34 220 31 234Q36 235 37.0 239.5Q38 244 45 243Q51 261 58.0 277.0Q65 293 72.5 308.0Q80 323 87.5 338.5Q95 354 102 373Q88 386 81.5 401.5Q75 417 72.0 432.5Q69 448 67.0 464.5Q65 481 60 498Q70 513 84.5 522.5Q99 532 116.0 538.0Q133 544 153.0 548.0Q173 552 195 557Q235 570 266.5 577.0Q298 584 328.5 588.5Q359 593 392.0 597.0Q425 601 467 609Q476 600 484 600Q488 609 493.5 605.5Q499 602 498 611Q508 594 523.5 582.5Q539 571 558 563Z"/></g>
    <g transform="translate(7533, 0)"><path d="M16 450Q23 471 38.5 486.0Q54 501 72.5 511.5Q91 522 111.0 529.0Q131 536 149 541Q189 558 234.5 573.5Q280 589 327.5 601.0Q375 613 425.0 616.5Q475 620 530 604Q533 594 539.0 585.0Q545 576 551.5 567.0Q558 558 563.0 549.5Q568 541 569 532Q579 523 585.0 512.5Q591 502 587 485Q577 477 567.5 470.5Q558 464 547 459Q510 468 472.0 465.0Q434 462 404 460Q395 469 382.5 469.0Q370 469 356.5 465.0Q343 461 329.5 457.0Q316 453 304 455Q294 447 279.5 444.5Q265 442 248 440Q247 435 250.0 433.5Q253 432 251 427Q257 420 266.5 417.0Q276 414 286.5 411.0Q297 408 305.0 403.5Q313 399 316 389Q331 389 342.0 382.0Q353 375 360.0 365.0Q367 355 370.5 343.5Q374 332 374 323Q377 315 381.0 316.0Q385 317 390 312Q393 299 405.0 285.5Q417 272 424 256Q426 231 427.0 211.5Q428 192 420 172Q405 135 378.5 106.0Q352 77 318.5 54.5Q285 32 247.0 16.0Q209 0 173 -11Q169 -10 165.0 -11.0Q161 -12 163 -6Q155 -13 145.5 -15.0Q136 -17 125.0 -16.5Q114 -16 102.5 -15.0Q91 -14 81 -16Q74 -9 68.5 -2.5Q63 4 60 14Q55 14 55.5 19.0Q56 24 52 24Q58 34 57.5 35.5Q57 37 54.5 38.0Q52 39 50.0 40.5Q48 42 49 45Q53 53 52.0 63.5Q51 74 50.0 85.0Q49 96 51.5 106.0Q54 116 66 122Q100 118 130.5 124.5Q161 131 188.0 143.0Q215 155 239.5 169.0Q264 183 288 194Q291 203 296.5 209.0Q302 215 308.0 220.0Q314 225 319.0 231.0Q324 237 326 246Q327 253 322.5 254.5Q318 256 318 262L307 265Q288 276 264.0 283.5Q240 291 223 300Q212 294 202.5 297.0Q193 300 178 303Q144 305 112.5 310.0Q81 315 52 328Q50 333 47.0 337.0Q44 341 36 339Q30 347 24.0 354.5Q18 362 13 371Q15 383 16.0 391.5Q17 400 10 408Q14 421 16.0 429.0Q18 437 16 450Z"/></g>
  </g>
</svg>