<?xml version="1.0" encoding="UTF-8"?>
<svg xmlns="http://www.w3.org/2000/svg" viewBox="0 0 152.3 18" 
     width="152.3" height="18">
  <g transform="translate(0, 15.3) scale(0.017578, -0.017578)" fill="#FFFFFF">
    <g transform="translate(0, 0)"><path d="M79 376Q74 404 76.0 434.0Q78 464 78 492Q78 519 74.5 549.5Q71 580 68.5 608.0Q66 636 66.5 659.5Q67 683 73 696Q81 711 93.0 719.5Q105 728 116 739Q129 737 139.5 731.5Q150 726 157.5 717.5Q165 709 168.5 700.0Q172 691 170 682Q195 667 210.5 641.5Q226 616 234.5 585.5Q243 555 246.5 521.0Q250 487 252.5 454.0Q255 421 257.5 391.5Q260 362 267 340Q311 404 341.5 453.5Q372 503 403.0 548.5Q434 594 472.5 641.0Q511 688 571 747Q584 745 591.0 742.0Q598 739 605.0 736.0Q612 733 620.0 731.5Q628 730 642 732Q647 720 649.5 714.5Q652 709 654.0 704.0Q656 699 659.0 691.0Q662 683 668 667Q671 663 670.5 656.5Q670 650 669.0 645.0Q668 640 668.5 637.0Q669 634 675 637Q671 620 662.0 606.5Q653 593 654 574Q627 538 594.0 500.0Q561 462 528.0 420.5Q495 379 464.5 334.5Q434 290 413 240Q407 240 404.0 237.0Q401 234 398.5 230.0Q396 226 393.5 222.0Q391 218 385 218Q383 186 361.5 157.5Q340 129 318 109Q320 101 320.0 96.0Q320 91 319.0 86.0Q318 81 317.5 75.5Q317 70 318 62Q309 38 294.5 22.0Q280 6 263.0 -2.0Q246 -10 228.0 -8.5Q210 -7 194 4Q187 8 182.0 15.0Q177 22 171.5 28.5Q166 35 160.5 40.5Q155 46 147 48Q149 58 147.5 69.0Q146 80 143.0 89.0Q140 98 136.0 104.0Q132 110 128 110Q124 135 117.5 164.5Q111 194 104.5 223.0Q98 252 94.0 280.0Q90 308 91 332Q92 344 86.5 353.5Q81 363 79 376Z"/></g>
    <g transform="translate(598, 0)"><path d="M212 70Q217 40 208.5 23.0Q200 6 184.5 -2.5Q169 -11 149.0 -12.0Q129 -13 111 -10Q101 4 93.0 25.0Q85 46 78.0 68.5Q71 91 65.5 113.0Q60 135 56 152Q61 164 62.5 179.5Q64 195 64.5 211.0Q65 227 65.5 243.5Q66 260 68 275Q75 317 88.5 355.0Q102 393 110 434Q112 443 108.5 451.0Q105 459 107 466Q108 470 113.0 471.5Q118 473 119 478Q122 489 120.5 496.0Q119 503 124 513Q129 521 136.5 536.5Q144 552 142 569Q151 575 159.0 583.0Q167 591 175.5 597.5Q184 604 194.5 609.0Q205 614 220 614Q228 604 230.5 592.0Q233 580 235.5 568.0Q238 556 243.0 545.5Q248 535 260 529Q260 521 260.0 509.0Q260 497 261.0 485.5Q262 474 265.5 464.5Q269 455 277 452Q259 404 243.5 357.0Q228 310 218.0 262.5Q208 215 205.5 167.0Q203 119 212 70Z"/></g>
    <g transform="translate(926, 0)"><path d="M558 563Q559 556 558.5 552.5Q558 549 557.5 546.0Q557 543 557.0 539.5Q557 536 559 529Q538 495 510.5 482.5Q483 470 451.0 464.5Q419 459 385.5 453.0Q352 447 319 427Q306 432 295.5 427.0Q285 422 265 424Q259 418 250.0 415.5Q241 413 232 410Q236 401 235.5 391.5Q235 382 238 376Q273 373 315.5 377.0Q358 381 399 382Q400 377 398.0 375.5Q396 374 397 370Q404 365 411.0 357.5Q418 350 425.0 343.0Q432 336 439.5 331.5Q447 327 457 328Q461 320 462.5 310.5Q464 301 460 291Q444 280 428.0 268.5Q412 257 394.5 248.0Q377 239 357.5 233.5Q338 228 314 229Q309 229 306.5 229.0Q304 229 300 232Q292 227 277.5 229.0Q263 231 255 226Q244 231 228.5 230.5Q213 230 201 234Q185 213 172.0 189.0Q159 165 149 138Q183 133 205.5 134.0Q228 135 248.0 137.5Q268 140 289.0 142.5Q310 145 342 144Q362 155 389.5 158.5Q417 162 440 170Q448 167 454.0 159.5Q460 152 465.5 145.5Q471 139 477.0 134.0Q483 129 492 130Q496 126 497.5 120.5Q499 115 500.0 110.0Q501 105 503.5 101.5Q506 98 512 99Q497 66 477.5 48.5Q458 31 433.0 22.0Q408 13 377.5 8.0Q347 3 310 -4Q301 -6 295.0 -3.5Q289 -1 281 -1Q258 -6 226.0 -10.0Q194 -14 161.0 -13.0Q128 -12 98.0 -4.5Q68 3 49 22Q41 29 38.5 38.5Q36 48 25 53Q24 66 21.0 82.0Q18 98 15.0 115.5Q12 133 10.5 150.0Q9 167 12 181Q15 196 24.5 208.0Q34 220 31 234Q36 235 37.0 239.5Q38 244 45 243Q51 261 58.0 277.0Q65 293 72.5 308.0Q80 323 87.5 338.5Q95 354 102 373Q88 386 81.5 401.5Q75 417 72.0 432.5Q69 448 67.0 464.5Q65 481 60 498Q70 513 84.5 522.5Q99 532 116.0 538.0Q133 544 153.0 548.0Q173 552 195 557Q235 570 266.5 577.0Q298 584 328.5 588.5Q359 593 392.0 597.0Q425 601 467 609Q476 600 484 600Q488 609 493.5 605.5Q499 602 498 611Q508 594 523.5 582.5Q539 571 558 563Z"/></g>
    <g transform="translate(1460, 0)"><path d="M563 -13Q528 3 507.5 34.0Q487 65 467 103Q464 109 461.0 115.0Q458 121 455 126L441 152L433 168L421 157L403 141L393 131Q367 107 340.5 83.5Q314 60 284.5 41.5Q255 23 222.5 11.5Q190 0 152 -1L130 10Q111 20 98.0 28.0Q85 36 68 53Q63 62 59.5 70.0Q56 78 52 86Q41 106 34.0 122.0Q27 138 20 158Q23 172 29.0 205.5Q35 239 43.5 279.0Q52 319 61.5 359.5Q71 400 81 430Q90 456 101.5 485.0Q113 514 126.5 538.5Q140 563 156.0 580.5Q172 598 190 601Q195 594 201.0 591.0Q207 588 212 586Q226 566 239.5 552.0Q253 538 271 524Q266 499 256.5 468.5Q247 438 236.5 407.5Q226 377 216.0 348.0Q206 319 200 298Q194 281 190 260Q181 223 173 159Q185 162 199.0 172.0Q213 182 226 193Q241 205 256 220Q275 239 288.0 255.0Q301 271 312.5 288.0Q324 305 336.0 325.5Q348 346 365 374Q380 398 396.5 425.5Q413 453 429.5 478.5Q446 504 462.0 525.0Q478 546 491 558Q499 548 511.5 539.0Q524 530 538 525Q544 516 549.5 508.5Q555 501 560 495Q566 486 571.5 478.0Q577 470 582 462Q581 455 579.0 444.0Q577 433 574.5 420.0Q572 407 569.0 393.5Q566 380 563 368Q555 330 551.0 311.0Q547 292 545.5 281.0Q544 270 543.5 262.5Q543 255 543 242Q542 232 544 222Q545 213 548.0 203.0Q551 193 556 185L596 216Q613 229 628.5 251.5Q644 274 658.5 303.5Q673 333 687.0 368.0Q701 403 715 439Q736 492 757.5 542.0Q779 592 799 619Q821 605 837.5 590.5Q854 576 866.0 559.0Q878 542 885.5 520.0Q893 498 896 468Q878 433 861.5 396.0Q845 359 830 322Q810 274 788.5 226.0Q767 178 741.0 134.5Q715 91 683.0 54.5Q651 18 609 -7Q598 -4 590 -4Q574 -4 563 -13Z"/></g>
    <g transform="translate(2305, 0)"><path d="M212 70Q217 40 208.5 23.0Q200 6 184.5 -2.5Q169 -11 149.0 -12.0Q129 -13 111 -10Q101 4 93.0 25.0Q85 46 78.0 68.5Q71 91 65.5 113.0Q60 135 56 152Q61 164 62.5 179.5Q64 195 64.5 211.0Q65 227 65.5 243.5Q66 260 68 275Q75 317 88.5 355.0Q102 393 110 434Q112 443 108.5 451.0Q105 459 107 466Q108 470 113.0 471.5Q118 473 119 478Q122 489 120.5 496.0Q119 503 124 513Q129 521 136.5 536.5Q144 552 142 569Q151 575 159.0 583.0Q167 591 175.5 597.5Q184 604 194.5 609.0Q205 614 220 614Q228 604 230.5 592.0Q233 580 235.5 568.0Q238 556 243.0 545.5Q248 535 260 529Q260 521 260.0 509.0Q260 497 261.0 485.5Q262 474 265.5 464.5Q269 455 277 452Q259 404 243.5 357.0Q228 310 218.0 262.5Q208 215 205.5 167.0Q203 119 212 70Z"/></g>
    <g transform="translate(2633, 0)"><path d="M205 182Q196 180 192.0 171.5Q188 163 184.5 154.0Q181 145 177.5 137.5Q174 130 167 130Q166 122 161.5 116.0Q157 110 153.0 103.5Q149 97 147.0 89.5Q145 82 149 72Q141 66 139.0 55.0Q137 44 134.5 34.0Q132 24 126.0 17.0Q120 10 104 11Q101 7 103.0 6.0Q105 5 106 -1Q95 1 89.5 -2.5Q84 -6 76 -7Q57 -1 44.5 14.0Q32 29 22.5 47.5Q13 66 5.5 85.0Q-2 104 -9 118Q-6 129 -8.0 139.5Q-10 150 -15 157Q34 261 92.0 379.0Q150 497 202 612Q225 603 247.5 591.5Q270 580 288.5 565.0Q307 550 320.0 530.5Q333 511 337 487Q335 481 332.5 482.5Q330 484 328 481Q332 476 332.5 474.0Q333 472 332.5 470.0Q332 468 332.0 464.5Q332 461 335 455Q331 456 329.5 454.0Q328 452 323 454Q327 443 325.5 436.0Q324 429 321.0 423.5Q318 418 316.0 411.5Q314 405 317 395Q314 395 312.5 393.5Q311 392 310.0 390.5Q309 389 307.5 387.5Q306 386 303 387Q306 365 305.0 343.0Q304 321 303.5 298.5Q303 276 304.0 251.5Q305 227 311 201Q347 222 368.5 255.0Q390 288 403.5 329.0Q417 370 424.0 417.0Q431 464 439 513Q448 522 453.0 535.0Q458 548 462.0 562.5Q466 577 470.0 591.5Q474 606 480 618Q495 616 505.5 608.5Q516 601 525.0 592.5Q534 584 544.0 576.5Q554 569 569 567Q581 550 591.0 534.0Q601 518 604 500Q599 492 596.5 482.0Q594 472 591.0 462.0Q588 452 583.0 443.5Q578 435 569 429Q566 403 561.5 381.5Q557 360 552.5 339.0Q548 318 545.0 295.5Q542 273 543 246Q535 223 526.0 197.0Q517 171 512 150Q496 137 487.0 119.0Q478 101 468 83Q464 79 463.0 81.0Q462 83 456 84Q457 80 456.0 78.0Q455 76 453.5 74.5Q452 73 451.5 70.0Q451 67 453 62Q439 56 428.0 45.0Q417 34 404.5 25.0Q392 16 374.5 13.0Q357 10 329 20Q288 50 256.5 89.0Q225 128 205 182Z"/></g>
    <g transform="translate(3211, 0)"><path d="M709 180Q685 137 646.0 113.5Q607 90 560.0 74.5Q513 59 461.5 47.0Q410 35 362 16Q348 16 337.5 15.0Q327 14 317.5 12.5Q308 11 299.0 9.5Q290 8 279 7Q275 8 274.0 5.5Q273 3 271 1Q254 -2 240.5 -2.0Q227 -2 218 -2Q206 -2 193.5 -5.5Q181 -9 171 -8Q96 -4 53.5 45.5Q11 95 6 183Q7 188 4.5 189.0Q2 190 0 192Q0 202 2.5 209.0Q5 216 3 227Q29 282 62.0 329.5Q95 377 141 413Q148 419 153.0 425.0Q158 431 162.5 437.0Q167 443 173.0 447.5Q179 452 188 454Q209 478 238.0 498.0Q267 518 299.0 536.5Q331 555 362.5 573.5Q394 592 420 615Q431 610 436.0 612.0Q441 614 447 612Q454 597 466.5 591.0Q479 585 491.5 578.5Q504 572 515.0 563.0Q526 554 532 539Q526 539 526.5 534.5Q527 530 529.0 525.5Q531 521 530.5 516.5Q530 512 523 512Q524 507 529.5 506.5Q535 506 535 501Q535 496 532.5 493.0Q530 490 532 483Q512 470 487.5 458.0Q463 446 436.5 432.5Q410 419 381.5 403.5Q353 388 326 368Q299 348 271.0 323.5Q243 299 217.0 272.0Q191 245 168.0 216.5Q145 188 129 160Q131 155 133.5 152.5Q136 150 138 145Q170 143 197.5 145.5Q225 148 253 142Q256 144 257.0 148.0Q258 152 262 154Q319 160 368.0 172.5Q417 185 468 199Q460 202 453.5 204.5Q447 207 441 209Q436 214 441.5 217.5Q447 221 451 225Q437 233 428.5 245.0Q420 257 418 277Q424 282 424.0 289.0Q424 296 418 300Q414 301 413.0 300.0Q412 299 411.5 297.0Q411 295 410.0 293.5Q409 292 405 294Q406 303 409.5 309.0Q413 315 415 323L484 369Q495 361 511.0 351.5Q527 342 544.5 332.5Q562 323 580.5 313.5Q599 304 615 295Q629 289 640.0 279.0Q651 269 661.0 258.5Q671 248 681.5 238.0Q692 228 706 221Q704 208 707.0 200.0Q710 192 709 180Z"/></g>
    <g transform="translate(4129, 0)"><path d="M44 203Q14 220 -2.0 251.0Q-18 282 -20 310Q-17 334 -7.5 347.5Q2 361 15.0 369.5Q28 378 42.0 382.5Q56 387 69 390L84 385Q89 380 94.5 376.0Q100 372 105 368Q115 372 117.5 380.0Q120 388 123 396Q126 407 130.0 418.0Q134 429 140 440Q139 449 141.0 456.0Q143 463 145 468Q139 473 136.5 473.5Q134 474 128 476Q125 476 122.0 476.5Q119 477 115 478Q100 489 95.5 496.5Q91 504 86 512Q81 520 77.0 526.0Q73 532 68 537L56 545L62 557Q64 559 64.0 562.5Q64 566 60 573Q57 586 59 592L61 604Q71 617 72 619L82 629Q105 635 129.0 642.5Q153 650 176 658Q199 666 223.0 674.0Q247 682 271 688Q279 695 288.5 696.5Q298 698 306 699Q313 699 319.0 700.0Q325 701 328 705Q345 711 361 715Q391 723 440.0 734.0Q489 745 550 750L571 751Q577 750 583.0 750.5Q589 751 595 751Q647 751 664 719Q674 714 682.0 706.5Q690 699 697 692Q702 687 706.0 683.5Q710 680 713 678L721 670Q732 646 725 623Q719 611 712.0 609.0Q705 607 698 605L685 598Q672 599 665.5 599.0Q659 599 651 599Q621 599 581.5 595.5Q542 592 501.0 585.5Q460 579 421.0 569.5Q382 560 353 549Q345 543 332 538Q329 537 323 533Q324 525 323.0 517.5Q322 510 320 503Q319 498 318.5 492.5Q318 487 317 481Q296 456 297 422L292 412Q288 408 285.5 400.5Q283 393 285 385L289 373Q309 375 328.5 377.5Q348 380 370 383Q398 388 426.5 391.5Q455 395 486 395H525L516 386L527 385L521 369Q528 366 531.5 364.5Q535 363 538 361L545 351Q550 348 554.0 341.5Q558 335 559 324L556 314L509 254L503 246L493 249Q474 250 457 245Q449 243 440.0 240.5Q431 238 422 238Q398 234 382.0 231.5Q366 229 350 227Q328 223 307.5 219.5Q287 216 269 209Q258 208 256.0 208.5Q254 209 252 209Q242 209 232.0 206.0Q222 203 213 200Q207 195 205.0 189.5Q203 184 201 178Q199 171 195.5 164.5Q192 158 187 151L188 133Q179 131 179.0 130.5Q179 130 178 130Q178 122 175.5 115.0Q173 108 171 102Q169 98 168.0 95.0Q167 92 167 89Q177 71 172 48Q168 29 157.0 14.5Q146 0 131 -8Q115 -10 107.5 -7.0Q100 -4 92 -1Q87 1 82.0 2.5Q77 4 72 5L60 15Q57 21 53.0 26.5Q49 32 45 38Q40 45 35.0 52.0Q30 59 26 68Q19 103 23.5 126.5Q28 150 36 173Q38 181 40.0 188.0Q42 195 44 203Z"/></g>
    <g transform="translate(4718, 0)"><path d="M558 563Q559 556 558.5 552.5Q558 549 557.5 546.0Q557 543 557.0 539.5Q557 536 559 529Q538 495 510.5 482.5Q483 470 451.0 464.5Q419 459 385.5 453.0Q352 447 319 427Q306 432 295.5 427.0Q285 422 265 424Q259 418 250.0 415.5Q241 413 232 410Q236 401 235.5 391.5Q235 382 238 376Q273 373 315.5 377.0Q358 381 399 382Q400 377 398.0 375.5Q396 374 397 370Q404 365 411.0 357.5Q418 350 425.0 343.0Q432 336 439.5 331.5Q447 327 457 328Q461 320 462.5 310.5Q464 301 460 291Q444 280 428.0 268.5Q412 257 394.5 248.0Q377 239 357.5 233.5Q338 228 314 229Q309 229 306.5 229.0Q304 229 300 232Q292 227 277.5 229.0Q263 231 255 226Q244 231 228.5 230.5Q213 230 201 234Q185 213 172.0 189.0Q159 165 149 138Q183 133 205.5 134.0Q228 135 248.0 137.5Q268 140 289.0 142.5Q310 145 342 144Q362 155 389.5 158.5Q417 162 440 170Q448 167 454.0 159.5Q460 152 465.5 145.5Q471 139 477.0 134.0Q483 129 492 130Q496 126 497.5 120.5Q499 115 500.0 110.0Q501 105 503.5 101.5Q506 98 512 99Q497 66 477.5 48.5Q458 31 433.0 22.0Q408 13 377.5 8.0Q347 3 310 -4Q301 -6 295.0 -3.5Q289 -1 281 -1Q258 -6 226.0 -10.0Q194 -14 161.0 -13.0Q128 -12 98.0 -4.5Q68 3 49 22Q41 29 38.5 38.5Q36 48 25 53Q24 66 21.0 82.0Q18 98 15.0 115.5Q12 133 10.5 150.0Q9 167 12 181Q15 196 24.5 208.0Q34 220 31 234Q36 235 37.0 239.5Q38 244 45 243Q51 261 58.0 277.0Q65 293 72.5 308.0Q80 323 87.5 338.5Q95 354 102 373Q88 386 81.5 401.5Q75 417 72.0 432.5Q69 448 67.0 464.5Q65 481 60 498Q70 513 84.5 522.5Q99 532 116.0 538.0Q133 544 153.0 548.0Q173 552 195 557Q235 570 266.5 577.0Q298 584 328.5 588.5Q359 593 392.0 597.0Q425 601 467 609Q476 600 484 600Q488 609 493.5 605.5Q499 602 498 611Q508 594 523.5 582.5Q539 571 558 563Z"/></g>
    <g transform="translate(5252, 0)"><path d="M558 563Q559 556 558.5 552.5Q558 549 557.5 546.0Q557 543 557.0 539.5Q557 536 559 529Q538 495 510.5 482.5Q483 470 451.0 464.5Q419 459 385.5 453.0Q352 447 319 427Q306 432 295.5 427.0Q285 422 265 424Q259 418 250.0 415.5Q241 413 232 410Q236 401 235.5 391.5Q235 382 238 376Q273 373 315.5 377.0Q358 381 399 382Q400 377 398.0 375.5Q396 374 397 370Q404 365 411.0 357.5Q418 350 425.0 343.0Q432 336 439.5 331.5Q447 327 457 328Q461 320 462.5 310.5Q464 301 460 291Q444 280 428.0 268.5Q412 257 394.5 248.0Q377 239 357.5 233.5Q338 228 314 229Q309 229 306.5 229.0Q304 229 300 232Q292 227 277.5 229.0Q263 231 255 226Q244 231 228.5 230.5Q213 230 201 234Q185 213 172.0 189.0Q159 165 149 138Q183 133 205.5 134.0Q228 135 248.0 137.5Q268 140 289.0 142.5Q310 145 342 144Q362 155 389.5 158.5Q417 162 440 170Q448 167 454.0 159.5Q460 152 465.5 145.5Q471 139 477.0 134.0Q483 129 492 130Q496 126 497.5 120.5Q499 115 500.0 110.0Q501 105 503.5 101.5Q506 98 512 99Q497 66 477.5 48.5Q458 31 433.0 22.0Q408 13 377.5 8.0Q347 3 310 -4Q301 -6 295.0 -3.5Q289 -1 281 -1Q258 -6 226.0 -10.0Q194 -14 161.0 -13.0Q128 -12 98.0 -4.5Q68 3 49 22Q41 29 38.5 38.5Q36 48 25 53Q24 66 21.0 82.0Q18 98 15.0 115.5Q12 133 10.5 150.0Q9 167 12 181Q15 196 24.5 208.0Q34 220 31 234Q36 235 37.0 239.5Q38 244 45 243Q51 261 58.0 277.0Q65 293 72.5 308.0Q80 323 87.5 338.5Q95 354 102 373Q88 386 81.5 401.5Q75 417 72.0 432.5Q69 448 67.0 464.5Q65 481 60 498Q70 513 84.5 522.5Q99 532 116.0 538.0Q133 544 153.0 548.0Q173 552 195 557Q235 570 266.5 577.0Q298 584 328.5 588.5Q359 593 392.0 597.0Q425 601 467 609Q476 600 484 600Q488 609 493.5 605.5Q499 602 498 611Q508 594 523.5 582.5Q539 571 558 563Z"/></g>
    <g transform="translate(5786, 0)"><path d="M493 270Q492 265 491.0 261.5Q490 258 489.0 255.0Q488 252 488.0 247.5Q488 243 488 236Q458 183 412.5 147.0Q367 111 312.5 83.5Q258 56 199.0 33.5Q140 11 84 -15Q60 -9 47.5 5.0Q35 19 28.5 37.5Q22 56 19.5 78.5Q17 101 15 125Q18 136 23.5 143.5Q29 151 29 165Q37 191 45.0 216.0Q53 241 55 267Q58 275 66 278Q71 326 66.5 375.5Q62 425 50 468Q51 478 52.5 482.5Q54 487 52 489Q51 497 57.5 497.0Q64 497 71 497Q71 512 65.5 527.0Q60 542 55 561Q62 576 64.0 590.5Q66 605 73 616Q127 599 176.5 575.0Q226 551 274 540Q310 514 348.0 488.5Q386 463 417.0 432.5Q448 402 469.0 363.0Q490 324 493 270ZM256 215Q277 223 297.5 232.0Q318 241 335.5 252.5Q353 264 367.0 279.0Q381 294 390 315Q384 327 374.0 336.5Q364 346 354.0 354.5Q344 363 334.5 372.0Q325 381 319 394Q306 396 296.0 401.5Q286 407 276.5 412.5Q267 418 256.5 423.0Q246 428 232 429Q210 440 192.5 445.0Q175 450 166 458Q159 458 155 455Q165 417 170.0 383.5Q175 350 175.5 316.5Q176 283 172.0 248.0Q168 213 161 172Q171 173 179.5 176.5Q188 180 196.5 184.0Q205 188 214.5 191.5Q224 195 237 196Q240 202 245.5 206.0Q251 210 256 215Z"/></g>
    <g transform="translate(6295, 0)"><path d="M549 163Q555 160 556.0 153.0Q557 146 556 142Q538 119 531.0 110.0Q524 101 521.0 96.5Q518 92 514.5 89.0Q511 86 499 76Q454 49 406.5 28.0Q359 7 307 -1Q299 -12 276.5 -16.5Q254 -21 235 -25Q231 -23 230.5 -19.5Q230 -16 226 -14Q225 -24 217.0 -24.5Q209 -25 197.5 -20.5Q186 -16 173.5 -8.5Q161 -1 152 5Q147 -3 141.5 -11.0Q136 -19 128 -22Q117 -20 111.5 -19.0Q106 -18 101 -23Q95 -20 91.5 -16.0Q88 -12 84.5 -8.5Q81 -5 76.5 -2.0Q72 1 64 3Q66 7 62.0 15.5Q58 24 50 26Q54 33 46.5 43.5Q39 54 35 67Q37 78 38.0 91.0Q39 104 50 106Q49 113 47.0 118.0Q45 123 43 128Q50 134 53.0 142.5Q56 151 58.0 160.0Q60 169 63.0 178.0Q66 187 74 193Q83 223 88.0 237.5Q93 252 95.5 266.0Q98 280 101.5 296.0Q105 312 114 336Q113 351 117.0 362.5Q121 374 125.5 385.5Q130 397 133.0 409.5Q136 422 132 439Q118 438 112.0 429.5Q106 421 104 407Q96 399 84.5 399.5Q73 400 64 397Q29 411 6.0 437.0Q-17 463 -31 498Q-22 521 -4.0 536.5Q14 552 37.0 562.5Q60 573 86.0 579.5Q112 586 136 592Q175 599 214.0 608.0Q253 617 298 614Q304 617 312.5 617.5Q321 618 330.0 618.0Q339 618 347.5 618.5Q356 619 362 622Q367 616 376.5 614.5Q386 613 397 605Q409 614 417.5 609.0Q426 604 433.0 598.0Q440 592 446.5 587.0Q453 582 460 582Q467 573 477.5 565.0Q488 557 497.5 548.5Q507 540 513.5 530.0Q520 520 520 507Q519 502 523.0 501.0Q527 500 529 497Q530 466 519.5 443.5Q509 421 493.5 402.0Q478 383 459.5 366.0Q441 349 426 330Q436 317 449.0 307.0Q462 297 475.5 287.0Q489 277 501.0 266.0Q513 255 521 240Q523 238 526.0 236.5Q529 235 532 233Q535 223 540.0 212.5Q545 202 548.5 192.5Q552 183 553.0 175.5Q554 168 549 163ZM373 497Q322 499 271.5 488.0Q221 477 187 457Q204 443 221.5 432.0Q239 421 249 402Q288 418 318.0 442.5Q348 467 373 497ZM386 178Q389 188 397.0 194.0Q405 200 413.0 205.5Q421 211 427.0 217.5Q433 224 432 236Q400 253 373.5 256.5Q347 260 323.5 256.5Q300 253 278.5 246.0Q257 239 235 236Q224 207 212.0 173.0Q200 139 189 107Q219 111 244.0 119.5Q269 128 292.5 138.0Q316 148 338.5 158.5Q361 169 386 178Z"/></g>
    <g transform="translate(6882, 0)"><path d="M529 84Q523 67 511.5 49.5Q500 32 484.5 18.5Q469 5 450.0 -4.0Q431 -13 410 -14Q397 -11 392.5 -7.5Q388 -4 383 -1Q380 1 377.5 2.5Q375 4 373 5L361 10L365 23Q367 31 364.0 35.5Q361 40 352 48Q349 51 346.0 54.0Q343 57 341 60L324 79L351 86Q376 93 384.5 104.0Q393 115 391 141Q371 145 357.5 142.0Q344 139 330 135Q312 130 293.5 126.5Q275 123 253 123Q245 123 238.0 123.5Q231 124 223 125L213 127Q211 138 209.0 139.5Q207 141 205 143Q200 148 194.5 156.5Q189 165 192 178Q187 187 186 196Q180 184 177 171L173 161L163 159Q161 158 160.0 154.5Q159 151 159 149L154 132Q152 130 150.0 128.5Q148 127 146 125Q144 116 141.0 107.0Q138 98 135 90Q130 77 126.5 64.5Q123 52 124 40L120 29Q115 23 109.0 19.5Q103 16 97 13Q95 11 91.5 9.5Q88 8 86 7L83 -4L71 -6Q60 -8 55.5 -9.0Q51 -10 45 -10L35 -9Q24 0 18.0 5.5Q12 11 4 16Q-5 28 -6.0 34.0Q-7 40 -8 45Q-10 51 -10.5 55.0Q-11 59 -13 61L-26 73L-15 82L-14 99Q6 150 28.5 197.0Q51 244 75 293Q83 309 90.5 325.0Q98 341 106 357Q105 360 105.0 364.0Q105 368 107 373Q118 390 125.0 403.5Q132 417 139 431Q147 448 155.5 464.0Q164 480 177 497L193 504Q196 505 200.0 506.5Q204 508 209 508L224 506Q252 519 273.0 542.5Q294 566 316 599L326 613L339 605Q344 602 353.0 599.5Q362 597 372 594Q390 590 406.0 585.0Q422 580 432 570Q438 554 439.0 546.0Q440 538 442 530Q445 513 447.5 496.0Q450 479 451 458Q456 441 459.5 424.5Q463 408 466 391Q471 367 476.0 344.5Q481 322 489 302Q497 302 499 301Q504 303 509.5 304.0Q515 305 522 306L533 307L537 297Q538 292 547 287Q560 286 566.0 281.5Q572 277 577 272Q581 268 585 266L600 260L592 245Q582 227 563.5 210.5Q545 194 522 183Q523 177 523.5 171.5Q524 166 526 160Q529 143 531.0 125.0Q533 107 531 88ZM240 257Q270 259 294.5 261.5Q319 264 349 270Q342 300 334.0 332.5Q326 365 317 397L311 387Q291 366 272.5 340.0Q254 314 241 291Q235 282 229.0 273.0Q223 264 218 255Q224 256 229.5 256.0Q235 256 240 257Z"/></g>
    <g transform="translate(7477, 0)"><path d="M416 -2Q400 -3 376.5 -1.0Q353 1 333 -8Q280 -6 225.0 5.0Q170 16 124 32Q114 43 104.0 52.5Q94 62 77 66Q53 85 38.0 112.5Q23 140 14.0 171.0Q5 202 2.0 234.5Q-1 267 0 297Q15 342 42.5 374.5Q70 407 99 439Q112 445 118.5 451.5Q125 458 132.5 463.5Q140 469 147.5 474.5Q155 480 161 488Q182 493 197.5 502.5Q213 512 228.0 522.5Q243 533 259.0 542.0Q275 551 296 556Q304 565 315.0 570.5Q326 576 337.5 581.5Q349 587 359.5 593.0Q370 599 376 609Q381 601 390.0 603.5Q399 606 407 609Q412 610 415.5 607.0Q419 604 422.0 601.0Q425 598 427.5 597.5Q430 597 432 602Q437 602 435.0 597.0Q433 592 432 590Q440 591 445.5 586.5Q451 582 463 581Q467 576 465.0 573.5Q463 571 463 565Q493 556 501.0 536.5Q509 517 502.0 496.0Q495 475 477.0 457.0Q459 439 438 433Q390 420 347.5 404.5Q305 389 278 359Q254 352 235.5 340.5Q217 329 200.5 314.5Q184 300 169.5 284.5Q155 269 139 254Q140 240 134.5 232.5Q129 225 124 217Q126 202 131.0 190.5Q136 179 142 168Q208 148 282.5 143.0Q357 138 432 137Q439 127 448.5 118.5Q458 110 466.0 100.5Q474 91 479.0 79.5Q484 68 481 51Q467 36 450.0 23.5Q433 11 416 -2Z"/></g>
    <g transform="translate(8003, 0)"><path d="M603 36Q555 34 518.5 38.0Q482 42 447 57Q445 58 443.0 62.0Q441 66 439 68Q433 71 424.5 70.5Q416 70 410 72Q402 76 385.0 87.5Q368 99 354 109Q336 123 320.0 137.0Q304 151 292 167Q289 171 284.0 171.5Q279 172 275 174Q246 156 226.0 129.0Q206 102 188.0 74.0Q170 46 150.0 21.0Q130 -4 99 -17Q90 -17 83.0 -14.0Q76 -11 70.0 -6.5Q64 -2 58.0 2.0Q52 6 45 8Q45 20 40.5 30.0Q36 40 31.5 49.0Q27 58 25.0 66.5Q23 75 29 83Q23 89 11 96Q17 102 16.5 107.0Q16 112 14.0 117.0Q12 122 10.5 128.0Q9 134 13 140Q18 140 25 142Q19 150 19.5 151.5Q20 153 17 156Q15 162 19.0 163.5Q23 165 27 167Q31 216 44.0 258.0Q57 300 73.0 339.0Q89 378 104.5 418.0Q120 458 130 504Q141 515 147.5 530.0Q154 545 161.5 560.0Q169 575 178.5 589.5Q188 604 205 613Q219 612 230.0 605.5Q241 599 257 600Q260 595 262.5 590.0Q265 585 269 580L284 583Q295 574 303.5 560.5Q312 547 315.0 532.0Q318 517 314.0 503.5Q310 490 295 482Q296 477 295.5 474.5Q295 472 294.0 470.0Q293 468 293.0 466.0Q293 464 296 460Q276 445 266.0 418.0Q256 391 255 370Q267 382 281.5 393.5Q296 405 311.5 416.0Q327 427 341.5 437.0Q356 447 368 457Q401 487 431.5 505.5Q462 524 496 547Q504 549 508.5 547.5Q513 546 518 544Q518 550 514.5 551.0Q511 552 512 559Q527 563 538.0 568.5Q549 574 562 579Q571 570 579.0 560.5Q587 551 601 549Q606 538 613.0 532.5Q620 527 627.0 522.0Q634 517 639.5 510.0Q645 503 646 488Q642 481 637.5 473.0Q633 465 629 454Q609 436 588.5 422.0Q568 408 547.0 395.0Q526 382 504.0 369.0Q482 356 459 338Q454 331 446.5 325.5Q439 320 431.0 314.5Q423 309 416.0 303.0Q409 297 405 289Q402 288 399.0 288.0Q396 288 393 287Q390 280 383.5 276.0Q377 272 375 265Q390 233 414.0 216.0Q438 199 468.0 191.5Q498 184 533.0 183.5Q568 183 606 183Q610 184 609.5 187.5Q609 191 614 190Q638 182 651.0 167.5Q664 153 682 139Q680 101 659.0 76.0Q638 51 603 36Z"/></g>
  </g>
</svg>