<svg xmlns="http://www.w3.org/2000/svg" width="168.7" height="24">
  <path d="M78 71Q73 82 68.0 92.0Q63 102 58 110Q46 134 37.0 153.0Q28 172 20 197Q23 214 30.5 254.0Q38 294 48.0 341.5Q58 389 69.5 438.0Q81 487 93 522Q104 553 117.5 588.0Q131 623 147.5 652.5Q164 682 183.0 703.0Q202 724 224 728Q230 720 237.0 715.5Q244 711 250 709Q267 685 283.0 668.5Q299 652 321 636Q315 606 303.5 569.5Q292 533 279.5 496.0Q267 459 255.0 424.5Q243 390 236 365Q230 345 224 319Q219 297 213.5 266.0Q208 235 203 198Q217 202 234.5 214.0Q252 226 267 239Q285 254 302 271Q325 294 341.0 313.0Q357 332 370.5 352.5Q384 373 398.5 397.5Q413 422 433 456Q451 485 470.5 518.0Q490 551 510.0 581.0Q530 611 549.0 636.5Q568 662 584 676Q595 665 609.5 653.0Q624 641 641 636Q648 625 654.5 616.5Q661 608 667 600Q675 589 681.5 580.0Q688 571 693 560Q692 552 689.5 539.0Q687 526 684.0 510.5Q681 495 677.5 479.0Q674 463 671 448Q661 403 656.0 380.0Q651 357 649.0 344.0Q647 331 646.5 322.0Q646 313 646 297Q646 285 648 273Q650 262 652.5 250.5Q655 239 662 229L710 266Q730 281 748.5 308.5Q767 336 784.5 371.5Q802 407 819.0 448.5Q836 490 853 534Q865 566 877.5 597.5Q890 629 903.0 657.5Q916 686 928.5 709.5Q941 733 953 749Q980 732 999.5 715.0Q1019 698 1033.5 677.5Q1048 657 1056.5 630.5Q1065 604 1069 568Q1047 526 1028.0 482.0Q1009 438 990 393Q966 335 940.5 277.5Q915 220 884.0 168.0Q853 116 814.5 72.5Q776 29 726 -1Q712 2 702 2Q691 2 683.5 -1.0Q676 -4 670 -9Q629 10 604.0 47.5Q579 85 555 131Q552 138 548.5 144.5Q545 151 541 158L524 189L514 208L500 195L479 176L467 164Q436 135 404.0 107.5Q372 80 337.0 57.5Q302 35 262.5 21.0Q223 7 178 6Q170 10 163.5 13.0Q157 16 151 19Q128 30 113.0 40.0Q98 50 78 71Z" transform="translate(2.0, 24.625) scale(0.0234375, -0.0234375)" fill="#FFFFFF"/>
<path d="M212 70Q217 40 208.5 23.0Q200 6 184.5 -2.5Q169 -11 149.0 -12.0Q129 -13 111 -10Q101 4 93.0 25.0Q85 46 78.0 68.5Q71 91 65.5 113.0Q60 135 56 152Q61 164 62.5 179.5Q64 195 64.5 211.0Q65 227 65.5 243.5Q66 260 68 275Q75 317 88.5 355.0Q102 393 110 434Q112 443 108.5 451.0Q105 459 107 466Q108 470 113.0 471.5Q118 473 119 478Q122 489 120.5 496.0Q119 503 124 513Q129 521 136.5 536.5Q144 552 142 569Q151 575 159.0 583.0Q167 591 175.5 597.5Q184 604 194.5 609.0Q205 614 220 614Q228 604 230.5 592.0Q233 580 235.5 568.0Q238 556 243.0 545.5Q248 535 260 529Q260 521 260.0 509.0Q260 497 261.0 485.5Q262 474 265.5 464.5Q269 455 277 452Q259 404 243.5 357.0Q228 310 218.0 262.5Q208 215 205.5 167.0Q203 119 212 70Z" transform="translate(25.859375, 24.625) scale(0.0234375, -0.0234375)" fill="#FFFFFF"/>
<path d="M205 182Q196 180 192.0 171.5Q188 163 184.5 154.0Q181 145 177.5 137.5Q174 130 167 130Q166 122 161.5 116.0Q157 110 153.0 103.5Q149 97 147.0 89.5Q145 82 149 72Q141 66 139.0 55.0Q137 44 134.5 34.0Q132 24 126.0 17.0Q120 10 104 11Q101 7 103.0 6.0Q105 5 106 -1Q95 1 89.5 -2.5Q84 -6 76 -7Q57 -1 44.5 14.0Q32 29 22.5 47.5Q13 66 5.5 85.0Q-2 104 -9 118Q-6 129 -8.0 139.5Q-10 150 -15 157Q34 261 92.0 379.0Q150 497 202 612Q225 603 247.5 591.5Q270 580 288.5 565.0Q307 550 320.0 530.5Q333 511 337 487Q335 481 332.5 482.5Q330 484 328 481Q332 476 332.5 474.0Q333 472 332.5 470.0Q332 468 332.0 464.5Q332 461 335 455Q331 456 329.5 454.0Q328 452 323 454Q327 443 325.5 436.0Q324 429 321.0 423.5Q318 418 316.0 411.5Q314 405 317 395Q314 395 312.5 393.5Q311 392 310.0 390.5Q309 389 307.5 387.5Q306 386 303 387Q306 365 305.0 343.0Q304 321 303.5 298.5Q303 276 304.0 251.5Q305 227 311 201Q347 222 368.5 255.0Q390 288 403.5 329.0Q417 370 424.0 417.0Q431 464 439 513Q448 522 453.0 535.0Q458 548 462.0 562.5Q466 577 470.0 591.5Q474 606 480 618Q495 616 505.5 608.5Q516 601 525.0 592.5Q534 584 544.0 576.5Q554 569 569 567Q581 550 591.0 534.0Q601 518 604 500Q599 492 596.5 482.0Q594 472 591.0 462.0Q588 452 583.0 443.5Q578 435 569 429Q566 403 561.5 381.5Q557 360 552.5 339.0Q548 318 545.0 295.5Q542 273 543 246Q535 223 526.0 197.0Q517 171 512 150Q496 137 487.0 119.0Q478 101 468 83Q464 79 463.0 81.0Q462 83 456 84Q457 80 456.0 78.0Q455 76 453.5 74.5Q452 73 451.5 70.0Q451 67 453 62Q439 56 428.0 45.0Q417 34 404.5 25.0Q392 16 374.5 13.0Q357 10 329 20Q288 50 256.5 89.0Q225 128 205 182Z" transform="translate(33.546875, 24.625) scale(0.0234375, -0.0234375)" fill="#FFFFFF"/>
<path d="M93 87Q64 109 45.5 142.0Q27 175 16.5 212.0Q6 249 2.5 288.5Q-1 328 0 364Q9 391 22.0 413.5Q35 436 51.0 456.5Q67 477 84.5 495.5Q102 514 119 533Q125 533 130 530Q134 541 142.0 549.0Q150 557 159.0 563.5Q168 570 177.0 576.5Q186 583 192 592Q217 598 236.5 609.0Q256 620 274.0 633.0Q292 646 311.0 657.0Q330 668 355 674Q364 684 377.5 691.0Q391 698 404.5 704.0Q418 710 430.5 717.0Q443 724 451 736Q457 728 468.0 730.5Q479 733 488 736Q494 737 498.0 734.0Q502 731 505.5 727.5Q509 724 511.5 723.0Q514 722 517 729Q525 728 521.5 722.0Q518 716 517 714Q527 716 533.5 710.5Q540 705 554 703Q559 698 557.0 695.0Q555 692 554 685Q590 674 600.0 650.5Q610 627 602.0 601.5Q594 576 572.5 554.5Q551 533 525 526Q494 518 467.5 510.0Q441 502 416.5 492.0Q392 482 370.5 468.5Q349 455 333 437Q305 429 282.5 415.0Q260 401 240.5 384.0Q221 367 203.0 348.5Q185 330 167 312Q167 295 161.0 286.0Q155 277 148 268Q150 249 156.5 235.5Q163 222 170 208Q250 184 339.5 178.5Q429 173 517 172Q526 160 537.5 149.5Q549 139 558.5 128.0Q568 117 573.5 102.5Q579 88 576 68Q559 51 539.0 35.5Q519 20 499 5Q490 4 477.5 5.0Q465 6 451.5 6.0Q438 6 424.5 4.5Q411 3 399 -2Q336 0 270.0 13.5Q204 27 148 46Q137 59 125.0 70.5Q113 82 93 87Z" transform="translate(55.9765625, 24.625) scale(0.0234375, -0.0234375)" fill="#FFFFFF"/>
<path d="M583 300Q582 288 585.0 277.0Q588 266 592.5 255.5Q597 245 601.0 234.0Q605 223 607 212Q609 198 607.0 181.5Q605 165 600.0 149.5Q595 134 587.0 121.5Q579 109 568 103Q554 85 534.0 75.0Q514 65 497 51Q486 44 472.5 41.0Q459 38 445 35Q434 29 419.0 22.5Q404 16 388.0 10.5Q372 5 356.0 2.5Q340 0 328 1Q298 -10 269.5 -13.5Q241 -17 203 -9Q167 -14 136.5 -6.0Q106 2 82.5 19.5Q59 37 41.5 61.5Q24 86 13 113Q5 170 17.0 216.5Q29 263 51.5 302.5Q74 342 103.0 375.5Q132 409 159 441Q165 439 168.5 441.5Q172 444 175.0 448.5Q178 453 181.5 457.0Q185 461 190 462Q197 477 210.5 484.5Q224 492 232 506Q241 508 247.0 512.0Q253 516 258.5 521.0Q264 526 270.0 530.5Q276 535 284 537V548Q302 556 310.5 566.5Q319 577 331 592Q340 593 345.5 593.0Q351 593 362 595Q370 609 376.5 616.0Q383 623 396 631Q408 625 422.5 623.0Q437 621 448 610Q449 600 454.0 594.5Q459 589 465.0 584.5Q471 580 476.5 575.0Q482 570 484 561Q488 560 489.5 562.0Q491 564 495 563Q498 549 502.0 544.5Q506 540 510 527Q505 517 502.5 506.5Q500 496 490 491Q489 484 494.0 483.5Q499 483 500 478Q501 469 497 465Q521 426 540.0 382.5Q559 339 583 300ZM458 205Q462 216 468.5 223.0Q475 230 476 244Q471 252 470.0 256.5Q469 261 469 271Q447 302 431.0 337.5Q415 373 395 404Q393 400 388.0 396.0Q383 392 377 398Q375 390 370.0 386.5Q365 383 359.0 383.5Q353 384 346.5 386.5Q340 389 335 393Q306 370 277.0 348.0Q248 326 225 297Q221 295 220.0 295.5Q219 296 214 294Q206 275 194.5 259.5Q183 244 172.0 228.0Q161 212 153.0 194.0Q145 176 144 152Q161 138 184.0 135.0Q207 132 231.5 134.0Q256 136 279.5 140.5Q303 145 323 145Q365 155 395.0 171.5Q425 188 458 205Z" transform="translate(70.6484375, 24.625) scale(0.0234375, -0.0234375)" fill="#FFFFFF"/>
<path d="M205 182Q196 180 192.0 171.5Q188 163 184.5 154.0Q181 145 177.5 137.5Q174 130 167 130Q166 122 161.5 116.0Q157 110 153.0 103.5Q149 97 147.0 89.5Q145 82 149 72Q141 66 139.0 55.0Q137 44 134.5 34.0Q132 24 126.0 17.0Q120 10 104 11Q101 7 103.0 6.0Q105 5 106 -1Q95 1 89.5 -2.5Q84 -6 76 -7Q57 -1 44.5 14.0Q32 29 22.5 47.5Q13 66 5.5 85.0Q-2 104 -9 118Q-6 129 -8.0 139.5Q-10 150 -15 157Q34 261 92.0 379.0Q150 497 202 612Q225 603 247.5 591.5Q270 580 288.5 565.0Q307 550 320.0 530.5Q333 511 337 487Q335 481 332.5 482.5Q330 484 328 481Q332 476 332.5 474.0Q333 472 332.5 470.0Q332 468 332.0 464.5Q332 461 335 455Q331 456 329.5 454.0Q328 452 323 454Q327 443 325.5 436.0Q324 429 321.0 423.5Q318 418 316.0 411.5Q314 405 317 395Q314 395 312.5 393.5Q311 392 310.0 390.5Q309 389 307.5 387.5Q306 386 303 387Q306 365 305.0 343.0Q304 321 303.5 298.5Q303 276 304.0 251.5Q305 227 311 201Q347 222 368.5 255.0Q390 288 403.5 329.0Q417 370 424.0 417.0Q431 464 439 513Q448 522 453.0 535.0Q458 548 462.0 562.5Q466 577 470.0 591.5Q474 606 480 618Q495 616 505.5 608.5Q516 601 525.0 592.5Q534 584 544.0 576.5Q554 569 569 567Q581 550 591.0 534.0Q601 518 604 500Q599 492 596.5 482.0Q594 472 591.0 462.0Q588 452 583.0 443.5Q578 435 569 429Q566 403 561.5 381.5Q557 360 552.5 339.0Q548 318 545.0 295.5Q542 273 543 246Q535 223 526.0 197.0Q517 171 512 150Q496 137 487.0 119.0Q478 101 468 83Q464 79 463.0 81.0Q462 83 456 84Q457 80 456.0 78.0Q455 76 453.5 74.5Q452 73 451.5 70.0Q451 67 453 62Q439 56 428.0 45.0Q417 34 404.5 25.0Q392 16 374.5 13.0Q357 10 329 20Q288 50 256.5 89.0Q225 128 205 182Z" transform="translate(85.7421875, 24.625) scale(0.0234375, -0.0234375)" fill="#FFFFFF"/>
<path d="M493 270Q492 265 491.0 261.5Q490 258 489.0 255.0Q488 252 488.0 247.5Q488 243 488 236Q458 183 412.5 147.0Q367 111 312.5 83.5Q258 56 199.0 33.5Q140 11 84 -15Q60 -9 47.5 5.0Q35 19 28.5 37.5Q22 56 19.5 78.5Q17 101 15 125Q18 136 23.5 143.5Q29 151 29 165Q37 191 45.0 216.0Q53 241 55 267Q58 275 66 278Q71 326 66.5 375.5Q62 425 50 468Q51 478 52.5 482.5Q54 487 52 489Q51 497 57.5 497.0Q64 497 71 497Q71 512 65.5 527.0Q60 542 55 561Q62 576 64.0 590.5Q66 605 73 616Q127 599 176.5 575.0Q226 551 274 540Q310 514 348.0 488.5Q386 463 417.0 432.5Q448 402 469.0 363.0Q490 324 493 270ZM256 215Q277 223 297.5 232.0Q318 241 335.5 252.5Q353 264 367.0 279.0Q381 294 390 315Q384 327 374.0 336.5Q364 346 354.0 354.5Q344 363 334.5 372.0Q325 381 319 394Q306 396 296.0 401.5Q286 407 276.5 412.5Q267 418 256.5 423.0Q246 428 232 429Q210 440 192.5 445.0Q175 450 166 458Q159 458 155 455Q165 417 170.0 383.5Q175 350 175.5 316.5Q176 283 172.0 248.0Q168 213 161 172Q171 173 179.5 176.5Q188 180 196.5 184.0Q205 188 214.5 191.5Q224 195 237 196Q240 202 245.5 206.0Q251 210 256 215Z" transform="translate(99.2890625, 24.625) scale(0.0234375, -0.0234375)" fill="#FFFFFF"/>
<path d="M212 70Q217 40 208.5 23.0Q200 6 184.5 -2.5Q169 -11 149.0 -12.0Q129 -13 111 -10Q101 4 93.0 25.0Q85 46 78.0 68.5Q71 91 65.5 113.0Q60 135 56 152Q61 164 62.5 179.5Q64 195 64.5 211.0Q65 227 65.5 243.5Q66 260 68 275Q75 317 88.5 355.0Q102 393 110 434Q112 443 108.5 451.0Q105 459 107 466Q108 470 113.0 471.5Q118 473 119 478Q122 489 120.5 496.0Q119 503 124 513Q129 521 136.5 536.5Q144 552 142 569Q151 575 159.0 583.0Q167 591 175.5 597.5Q184 604 194.5 609.0Q205 614 220 614Q228 604 230.5 592.0Q233 580 235.5 568.0Q238 556 243.0 545.5Q248 535 260 529Q260 521 260.0 509.0Q260 497 261.0 485.5Q262 474 265.5 464.5Q269 455 277 452Q259 404 243.5 357.0Q228 310 218.0 262.5Q208 215 205.5 167.0Q203 119 212 70Z" transform="translate(111.21875, 24.625) scale(0.0234375, -0.0234375)" fill="#FFFFFF"/>
<path d="M569 481Q544 481 515.0 477.5Q486 474 458 470Q438 467 419.5 465.0Q401 463 386 462Q379 440 372.0 423.0Q365 406 357 390Q349 373 342.5 355.5Q336 338 330 318Q320 302 313.5 288.5Q307 275 303 258Q291 243 285.0 226.5Q279 210 276 198L272 186Q266 180 265.0 176.5Q264 173 260 170Q259 159 253 148Q251 143 250.0 138.5Q249 134 249 132Q249 122 244 119Q245 114 244.0 108.5Q243 103 242 98Q239 86 240 79Q243 75 245.5 72.0Q248 69 249 64Q255 60 258 59Q262 56 270 52L279 42Q284 13 270 -4Q255 -23 219 -23H207Q202 -18 201 -15Q193 -12 188.0 -10.0Q183 -8 179 -2Q166 4 158 8L149 13Q149 24 149 25Q142 34 138.5 45.0Q135 56 133 67Q131 76 128.5 84.0Q126 92 122 98Q120 156 133.0 196.0Q146 236 160 273Q168 293 176.0 313.5Q184 334 190 356L199 366Q206 382 210.5 392.5Q215 403 220 414Q223 421 225.5 427.5Q228 434 230 439Q224 439 219.0 438.5Q214 438 209 437Q203 436 198.0 435.5Q193 435 188 435Q181 435 178 436Q167 431 154 431H144Q141 431 138.5 431.5Q136 432 134 432Q124 432 118 429Q106 429 95 429H85Q83 429 80.0 428.5Q77 428 75 428Q68 428 60.0 429.5Q52 431 43 436Q31 452 27 453L18 465Q17 471 15.0 476.5Q13 482 11 489Q7 499 3.5 510.5Q0 522 0 538Q1 546 4.0 550.0Q7 554 9 557L12 572L25 571H53Q85 571 118.0 573.5Q151 576 186 579Q206 581 226.5 583.0Q247 585 269 587Q273 596 277 604L287 609Q305 610 312.5 604.5Q320 599 325 594Q347 596 369.5 598.5Q392 601 415 605Q449 610 483.5 614.0Q518 618 550 618Q564 618 577.0 617.0Q590 616 601 614L611 607Q614 601 619.5 596.0Q625 591 631 586Q643 575 655.0 560.0Q667 545 664 516Q656 504 652 502L643 490L633 491Q627 491 622.0 489.5Q617 488 612 486Q608 484 604.0 482.5Q600 481 595 480Q586 480 580.5 480.5Q575 481 569 481Z" transform="translate(118.90625, 24.625) scale(0.0234375, -0.0234375)" fill="#FFFFFF"/>
<path d="M212 70Q217 40 208.5 23.0Q200 6 184.5 -2.5Q169 -11 149.0 -12.0Q129 -13 111 -10Q101 4 93.0 25.0Q85 46 78.0 68.5Q71 91 65.5 113.0Q60 135 56 152Q61 164 62.5 179.5Q64 195 64.5 211.0Q65 227 65.5 243.5Q66 260 68 275Q75 317 88.5 355.0Q102 393 110 434Q112 443 108.5 451.0Q105 459 107 466Q108 470 113.0 471.5Q118 473 119 478Q122 489 120.5 496.0Q119 503 124 513Q129 521 136.5 536.5Q144 552 142 569Q151 575 159.0 583.0Q167 591 175.5 597.5Q184 604 194.5 609.0Q205 614 220 614Q228 604 230.5 592.0Q233 580 235.5 568.0Q238 556 243.0 545.5Q248 535 260 529Q260 521 260.0 509.0Q260 497 261.0 485.5Q262 474 265.5 464.5Q269 455 277 452Q259 404 243.5 357.0Q228 310 218.0 262.5Q208 215 205.5 167.0Q203 119 212 70Z" transform="translate(130.4140625, 24.625) scale(0.0234375, -0.0234375)" fill="#FFFFFF"/>
<path d="M583 300Q582 288 585.0 277.0Q588 266 592.5 255.5Q597 245 601.0 234.0Q605 223 607 212Q609 198 607.0 181.5Q605 165 600.0 149.5Q595 134 587.0 121.5Q579 109 568 103Q554 85 534.0 75.0Q514 65 497 51Q486 44 472.5 41.0Q459 38 445 35Q434 29 419.0 22.5Q404 16 388.0 10.5Q372 5 356.0 2.5Q340 0 328 1Q298 -10 269.5 -13.5Q241 -17 203 -9Q167 -14 136.5 -6.0Q106 2 82.5 19.5Q59 37 41.5 61.5Q24 86 13 113Q5 170 17.0 216.5Q29 263 51.5 302.5Q74 342 103.0 375.5Q132 409 159 441Q165 439 168.5 441.5Q172 444 175.0 448.5Q178 453 181.5 457.0Q185 461 190 462Q197 477 210.5 484.5Q224 492 232 506Q241 508 247.0 512.0Q253 516 258.5 521.0Q264 526 270.0 530.5Q276 535 284 537V548Q302 556 310.5 566.5Q319 577 331 592Q340 593 345.5 593.0Q351 593 362 595Q370 609 376.5 616.0Q383 623 396 631Q408 625 422.5 623.0Q437 621 448 610Q449 600 454.0 594.5Q459 589 465.0 584.5Q471 580 476.5 575.0Q482 570 484 561Q488 560 489.5 562.0Q491 564 495 563Q498 549 502.0 544.5Q506 540 510 527Q505 517 502.5 506.5Q500 496 490 491Q489 484 494.0 483.5Q499 483 500 478Q501 469 497 465Q521 426 540.0 382.5Q559 339 583 300ZM458 205Q462 216 468.5 223.0Q475 230 476 244Q471 252 470.0 256.5Q469 261 469 271Q447 302 431.0 337.5Q415 373 395 404Q393 400 388.0 396.0Q383 392 377 398Q375 390 370.0 386.5Q365 383 359.0 383.5Q353 384 346.5 386.5Q340 389 335 393Q306 370 277.0 348.0Q248 326 225 297Q221 295 220.0 295.5Q219 296 214 294Q206 275 194.5 259.5Q183 244 172.0 228.0Q161 212 153.0 194.0Q145 176 144 152Q161 138 184.0 135.0Q207 132 231.5 134.0Q256 136 279.5 140.5Q303 145 323 145Q365 155 395.0 171.5Q425 188 458 205Z" transform="translate(138.1015625, 24.625) scale(0.0234375, -0.0234375)" fill="#FFFFFF"/>
<path d="M205 182Q196 180 192.0 171.5Q188 163 184.5 154.0Q181 145 177.5 137.5Q174 130 167 130Q166 122 161.5 116.0Q157 110 153.0 103.5Q149 97 147.0 89.5Q145 82 149 72Q141 66 139.0 55.0Q137 44 134.5 34.0Q132 24 126.0 17.0Q120 10 104 11Q101 7 103.0 6.0Q105 5 106 -1Q95 1 89.5 -2.5Q84 -6 76 -7Q57 -1 44.5 14.0Q32 29 22.5 47.5Q13 66 5.5 85.0Q-2 104 -9 118Q-6 129 -8.0 139.5Q-10 150 -15 157Q34 261 92.0 379.0Q150 497 202 612Q225 603 247.5 591.5Q270 580 288.5 565.0Q307 550 320.0 530.5Q333 511 337 487Q335 481 332.5 482.5Q330 484 328 481Q332 476 332.5 474.0Q333 472 332.5 470.0Q332 468 332.0 464.5Q332 461 335 455Q331 456 329.5 454.0Q328 452 323 454Q327 443 325.5 436.0Q324 429 321.0 423.5Q318 418 316.0 411.5Q314 405 317 395Q314 395 312.5 393.5Q311 392 310.0 390.5Q309 389 307.5 387.5Q306 386 303 387Q306 365 305.0 343.0Q304 321 303.5 298.5Q303 276 304.0 251.5Q305 227 311 201Q347 222 368.5 255.0Q390 288 403.5 329.0Q417 370 424.0 417.0Q431 464 439 513Q448 522 453.0 535.0Q458 548 462.0 562.5Q466 577 470.0 591.5Q474 606 480 618Q495 616 505.5 608.5Q516 601 525.0 592.5Q534 584 544.0 576.5Q554 569 569 567Q581 550 591.0 534.0Q601 518 604 500Q599 492 596.5 482.0Q594 472 591.0 462.0Q588 452 583.0 443.5Q578 435 569 429Q566 403 561.5 381.5Q557 360 552.5 339.0Q548 318 545.0 295.5Q542 273 543 246Q535 223 526.0 197.0Q517 171 512 150Q496 137 487.0 119.0Q478 101 468 83Q464 79 463.0 81.0Q462 83 456 84Q457 80 456.0 78.0Q455 76 453.5 74.5Q452 73 451.5 70.0Q451 67 453 62Q439 56 428.0 45.0Q417 34 404.5 25.0Q392 16 374.5 13.0Q357 10 329 20Q288 50 256.5 89.0Q225 128 205 182Z" transform="translate(153.1953125, 24.625) scale(0.0234375, -0.0234375)" fill="#FFFFFF"/>
</svg>