<?xml version="1.0" encoding="UTF-8"?>
<svg xmlns="http://www.w3.org/2000/svg" viewBox="0 0 103.8 18" 
     width="103.8" height="18">
  <g transform="translate(0, 15.299999999999999) scale(0.017578, -0.017578)" fill="#FFFFFF">
    <g transform="translate(0, 0)"><path d="M78 71Q73 82 68.0 92.0Q63 102 58 110Q46 134 37.0 153.0Q28 172 20 197Q23 214 30.5 254.0Q38 294 48.0 341.5Q58 389 69.5 438.0Q81 487 93 522Q104 553 117.5 588.0Q131 623 147.5 652.5Q164 682 183.0 703.0Q202 724 224 728Q230 720 237.0 715.5Q244 711 250 709Q267 685 283.0 668.5Q299 652 321 636Q315 606 303.5 569.5Q292 533 279.5 496.0Q267 459 255.0 424.5Q243 390 236 365Q230 345 224 319Q219 297 213.5 266.0Q208 235 203 198Q217 202 234.5 214.0Q252 226 267 239Q285 254 302 271Q325 294 341.0 313.0Q357 332 370.5 352.5Q384 373 398.5 397.5Q413 422 433 456Q451 485 470.5 518.0Q490 551 510.0 581.0Q530 611 549.0 636.5Q568 662 584 676Q595 665 609.5 653.0Q624 641 641 636Q648 625 654.5 616.5Q661 608 667 600Q675 589 681.5 580.0Q688 571 693 560Q692 552 689.5 539.0Q687 526 684.0 510.5Q681 495 677.5 479.0Q674 463 671 448Q661 403 656.0 380.0Q651 357 649.0 344.0Q647 331 646.5 322.0Q646 313 646 297Q646 285 648 273Q650 262 652.5 250.5Q655 239 662 229L710 266Q730 281 748.5 308.5Q767 336 784.5 371.5Q802 407 819.0 448.5Q836 490 853 534Q865 566 877.5 597.5Q890 629 903.0 657.5Q916 686 928.5 709.5Q941 733 953 749Q980 732 999.5 715.0Q1019 698 1033.5 677.5Q1048 657 1056.5 630.5Q1065 604 1069 568Q1047 526 1028.0 482.0Q1009 438 990 393Q966 335 940.5 277.5Q915 220 884.0 168.0Q853 116 814.5 72.5Q776 29 726 -1Q712 2 702 2Q691 2 683.5 -1.0Q676 -4 670 -9Q629 10 604.0 47.5Q579 85 555 131Q552 138 548.5 144.5Q545 151 541 158L524 189L514 208L500 195L479 176L467 164Q436 135 404.0 107.5Q372 80 337.0 57.5Q302 35 262.5 21.0Q223 7 178 6Q170 10 163.5 13.0Q157 16 151 19Q128 30 113.0 40.0Q98 50 78 71Z"/></g>
    <g transform="translate(1018, 0)"><path d="M512 97Q514 71 506.0 54.0Q498 37 484.0 25.0Q470 13 452.0 6.0Q434 -1 417 -7Q409 -2 401.5 3.5Q394 9 384 12Q371 36 359.0 54.5Q347 73 348 97Q348 98 349.5 108.0Q351 118 353.5 130.0Q356 142 357.5 152.5Q359 163 359 164Q336 162 311.0 154.0Q286 146 262.5 135.0Q239 124 218.5 113.0Q198 102 185 94Q185 91 181.0 79.5Q177 68 171.0 55.5Q165 43 158.0 33.0Q151 23 144 23Q145 20 147.0 17.0Q149 14 147 9Q133 5 122.0 -1.5Q111 -8 99.0 -12.5Q87 -17 73.0 -17.0Q59 -17 40 -7Q40 -1 35.0 3.5Q30 8 24.5 11.5Q19 15 15.0 17.5Q11 20 11 22Q6 21 7.0 29.0Q8 37 15 33Q4 47 1.5 57.5Q-1 68 -10 84Q-8 86 -6.5 91.0Q-5 96 -4.0 100.0Q-3 104 -1.0 106.0Q1 108 4 105Q2 114 4.0 120.0Q6 126 8.0 131.0Q10 136 11.0 141.0Q12 146 8 152Q24 174 29.0 199.5Q34 225 35 246Q42 253 47.5 266.0Q53 279 56.0 292.5Q59 306 58.5 318.5Q58 331 55 339Q56 344 66 342Q72 375 74.5 416.5Q77 458 83.0 495.5Q89 533 103.0 561.5Q117 590 148 599Q154 578 163.5 562.0Q173 546 184.5 531.5Q196 517 207.5 502.0Q219 487 229 468Q228 449 225.0 424.0Q222 399 217.5 373.0Q213 347 208.5 323.0Q204 299 200 282Q201 277 205.5 276.0Q210 275 207 267Q231 273 257.0 278.0Q283 283 309.0 289.0Q335 295 359.5 302.5Q384 310 405 321Q410 360 418.0 399.0Q426 438 420 479Q425 483 428.0 489.0Q431 495 438 497Q433 516 434.0 537.0Q435 558 441.5 577.0Q448 596 460.5 609.5Q473 623 491 627Q502 611 510.0 592.5Q518 574 526.5 555.5Q535 537 544.5 520.5Q554 504 569 492Q572 463 573.5 432.0Q575 401 576 369Q568 331 558.5 295.5Q549 260 545 220Q538 212 534.0 202.0Q530 192 526.0 181.5Q522 171 517.0 161.5Q512 152 505 145Q509 133 506.5 122.5Q504 112 512 97Z"/></g>
    <g transform="translate(1614, 0)"><path d="M529 84Q523 67 511.5 49.5Q500 32 484.5 18.5Q469 5 450.0 -4.0Q431 -13 410 -14Q397 -11 392.5 -7.5Q388 -4 383 -1Q380 1 377.5 2.5Q375 4 373 5L361 10L365 23Q367 31 364.0 35.5Q361 40 352 48Q349 51 346.0 54.0Q343 57 341 60L324 79L351 86Q376 93 384.5 104.0Q393 115 391 141Q371 145 357.5 142.0Q344 139 330 135Q312 130 293.5 126.5Q275 123 253 123Q245 123 238.0 123.5Q231 124 223 125L213 127Q211 138 209.0 139.5Q207 141 205 143Q200 148 194.5 156.5Q189 165 192 178Q187 187 186 196Q180 184 177 171L173 161L163 159Q161 158 160.0 154.5Q159 151 159 149L154 132Q152 130 150.0 128.5Q148 127 146 125Q144 116 141.0 107.0Q138 98 135 90Q130 77 126.5 64.5Q123 52 124 40L120 29Q115 23 109.0 19.5Q103 16 97 13Q95 11 91.5 9.5Q88 8 86 7L83 -4L71 -6Q60 -8 55.5 -9.0Q51 -10 45 -10L35 -9Q24 0 18.0 5.5Q12 11 4 16Q-5 28 -6.0 34.0Q-7 40 -8 45Q-10 51 -10.5 55.0Q-11 59 -13 61L-26 73L-15 82L-14 99Q6 150 28.5 197.0Q51 244 75 293Q83 309 90.5 325.0Q98 341 106 357Q105 360 105.0 364.0Q105 368 107 373Q118 390 125.0 403.5Q132 417 139 431Q147 448 155.5 464.0Q164 480 177 497L193 504Q196 505 200.0 506.5Q204 508 209 508L224 506Q252 519 273.0 542.5Q294 566 316 599L326 613L339 605Q344 602 353.0 599.5Q362 597 372 594Q390 590 406.0 585.0Q422 580 432 570Q438 554 439.0 546.0Q440 538 442 530Q445 513 447.5 496.0Q450 479 451 458Q456 441 459.5 424.5Q463 408 466 391Q471 367 476.0 344.5Q481 322 489 302Q497 302 499 301Q504 303 509.5 304.0Q515 305 522 306L533 307L537 297Q538 292 547 287Q560 286 566.0 281.5Q572 277 577 272Q581 268 585 266L600 260L592 245Q582 227 563.5 210.5Q545 194 522 183Q523 177 523.5 171.5Q524 166 526 160Q529 143 531.0 125.0Q533 107 531 88ZM240 257Q270 259 294.5 261.5Q319 264 349 270Q342 300 334.0 332.5Q326 365 317 397L311 387Q291 366 272.5 340.0Q254 314 241 291Q235 282 229.0 273.0Q223 264 218 255Q224 256 229.5 256.0Q235 256 240 257Z"/></g>
    <g transform="translate(2209, 0)"><path d="M569 481Q544 481 515.0 477.5Q486 474 458 470Q438 467 419.5 465.0Q401 463 386 462Q379 440 372.0 423.0Q365 406 357 390Q349 373 342.5 355.5Q336 338 330 318Q320 302 313.5 288.5Q307 275 303 258Q291 243 285.0 226.5Q279 210 276 198L272 186Q266 180 265.0 176.5Q264 173 260 170Q259 159 253 148Q251 143 250.0 138.5Q249 134 249 132Q249 122 244 119Q245 114 244.0 108.5Q243 103 242 98Q239 86 240 79Q243 75 245.5 72.0Q248 69 249 64Q255 60 258 59Q262 56 270 52L279 42Q284 13 270 -4Q255 -23 219 -23H207Q202 -18 201 -15Q193 -12 188.0 -10.0Q183 -8 179 -2Q166 4 158 8L149 13Q149 24 149 25Q142 34 138.5 45.0Q135 56 133 67Q131 76 128.5 84.0Q126 92 122 98Q120 156 133.0 196.0Q146 236 160 273Q168 293 176.0 313.5Q184 334 190 356L199 366Q206 382 210.5 392.5Q215 403 220 414Q223 421 225.5 427.5Q228 434 230 439Q224 439 219.0 438.5Q214 438 209 437Q203 436 198.0 435.5Q193 435 188 435Q181 435 178 436Q167 431 154 431H144Q141 431 138.5 431.5Q136 432 134 432Q124 432 118 429Q106 429 95 429H85Q83 429 80.0 428.5Q77 428 75 428Q68 428 60.0 429.5Q52 431 43 436Q31 452 27 453L18 465Q17 471 15.0 476.5Q13 482 11 489Q7 499 3.5 510.5Q0 522 0 538Q1 546 4.0 550.0Q7 554 9 557L12 572L25 571H53Q85 571 118.0 573.5Q151 576 186 579Q206 581 226.5 583.0Q247 585 269 587Q273 596 277 604L287 609Q305 610 312.5 604.5Q320 599 325 594Q347 596 369.5 598.5Q392 601 415 605Q449 610 483.5 614.0Q518 618 550 618Q564 618 577.0 617.0Q590 616 601 614L611 607Q614 601 619.5 596.0Q625 591 631 586Q643 575 655.0 560.0Q667 545 664 516Q656 504 652 502L643 490L633 491Q627 491 622.0 489.5Q617 488 612 486Q608 484 604.0 482.5Q600 481 595 480Q586 480 580.5 480.5Q575 481 569 481Z"/></g>
    <g transform="translate(2700, 0)"><path d="M254 739Q266 729 277.0 721.0Q288 713 297.0 704.0Q306 695 310.5 683.5Q315 672 313 655Q305 646 294.0 621.5Q283 597 267 551Q259 528 251.5 488.5Q244 449 233.5 406.5Q223 364 208.0 326.5Q193 289 170 272Q161 275 151.0 277.0Q141 279 133.0 283.0Q125 287 120.5 294.5Q116 302 117 316Q94 329 87.5 347.5Q81 366 82.0 386.5Q83 407 86.5 427.5Q90 448 87 465Q97 506 108.5 553.5Q120 601 129 645Q138 654 143.5 667.5Q149 681 153.0 697.0Q157 713 161.5 728.5Q166 744 174 758Q179 753 191.0 753.5Q203 754 206 760Q212 750 228.0 743.5Q244 737 254 739Z"/></g>
    <g transform="translate(2972, 0)"><path d="M16 450Q23 471 38.5 486.0Q54 501 72.5 511.5Q91 522 111.0 529.0Q131 536 149 541Q189 558 234.5 573.5Q280 589 327.5 601.0Q375 613 425.0 616.5Q475 620 530 604Q533 594 539.0 585.0Q545 576 551.5 567.0Q558 558 563.0 549.5Q568 541 569 532Q579 523 585.0 512.5Q591 502 587 485Q577 477 567.5 470.5Q558 464 547 459Q510 468 472.0 465.0Q434 462 404 460Q395 469 382.5 469.0Q370 469 356.5 465.0Q343 461 329.5 457.0Q316 453 304 455Q294 447 279.5 444.5Q265 442 248 440Q247 435 250.0 433.5Q253 432 251 427Q257 420 266.5 417.0Q276 414 286.5 411.0Q297 408 305.0 403.5Q313 399 316 389Q331 389 342.0 382.0Q353 375 360.0 365.0Q367 355 370.5 343.5Q374 332 374 323Q377 315 381.0 316.0Q385 317 390 312Q393 299 405.0 285.5Q417 272 424 256Q426 231 427.0 211.5Q428 192 420 172Q405 135 378.5 106.0Q352 77 318.5 54.5Q285 32 247.0 16.0Q209 0 173 -11Q169 -10 165.0 -11.0Q161 -12 163 -6Q155 -13 145.5 -15.0Q136 -17 125.0 -16.5Q114 -16 102.5 -15.0Q91 -14 81 -16Q74 -9 68.5 -2.5Q63 4 60 14Q55 14 55.5 19.0Q56 24 52 24Q58 34 57.5 35.5Q57 37 54.5 38.0Q52 39 50.0 40.5Q48 42 49 45Q53 53 52.0 63.5Q51 74 50.0 85.0Q49 96 51.5 106.0Q54 116 66 122Q100 118 130.5 124.5Q161 131 188.0 143.0Q215 155 239.5 169.0Q264 183 288 194Q291 203 296.5 209.0Q302 215 308.0 220.0Q314 225 319.0 231.0Q324 237 326 246Q327 253 322.5 254.5Q318 256 318 262L307 265Q288 276 264.0 283.5Q240 291 223 300Q212 294 202.5 297.0Q193 300 178 303Q144 305 112.5 310.0Q81 315 52 328Q50 333 47.0 337.0Q44 341 36 339Q30 347 24.0 354.5Q18 362 13 371Q15 383 16.0 391.5Q17 400 10 408Q14 421 16.0 429.0Q18 437 16 450Z"/></g>
    <g transform="translate(3826, 0)"><path d="M181 94Q171 86 169.0 73.5Q167 61 164.0 49.0Q161 37 153.5 28.5Q146 20 127 21Q123 16 125.5 15.0Q128 14 130 6Q116 8 110.0 4.0Q104 0 95 -2Q72 5 56.5 23.5Q41 42 29.5 64.0Q18 86 9.5 109.0Q1 132 -8 149Q-8 153 -4.5 152.5Q-1 152 2 152Q-3 162 -5.5 174.5Q-8 187 -15 195Q14 257 47.0 324.5Q80 392 113.5 461.5Q147 531 180.5 601.5Q214 672 245 740Q273 730 299.5 716.5Q326 703 348.0 685.0Q370 667 385.5 643.5Q401 620 406 590Q404 584 401.0 586.0Q398 588 396 584Q401 578 401.5 575.5Q402 573 401.0 570.5Q400 568 400.0 564.0Q400 560 405 553Q400 554 398.0 551.5Q396 549 391 551Q396 537 394.0 529.0Q392 521 388.0 514.5Q384 508 381.5 500.5Q379 493 383 480Q379 480 377.5 478.5Q376 477 375.0 475.0Q374 473 372.5 471.5Q371 470 367 471Q370 445 369.0 418.5Q368 392 367.0 364.5Q366 337 367.0 308.0Q368 279 375 248Q418 273 444.5 313.0Q471 353 486.5 402.0Q502 451 510.5 507.0Q519 563 528 621Q539 632 545.5 648.0Q552 664 556.5 681.0Q561 698 565.5 715.5Q570 733 578 747Q596 745 608.5 736.5Q621 728 632.0 717.5Q643 707 655.0 698.0Q667 689 685 686Q699 666 711.0 647.5Q723 629 727 606Q721 596 718.0 584.0Q715 572 711.5 560.0Q708 548 702.0 538.0Q696 528 685 521Q682 491 676.0 465.0Q670 439 665.0 414.0Q660 389 656.0 362.0Q652 335 653 303Q644 274 633.0 243.5Q622 213 617 187Q598 172 587.0 150.0Q576 128 564 106Q559 102 558.0 104.5Q557 107 549 108Q550 99 545.5 96.5Q541 94 546 82Q529 74 516.0 61.0Q503 48 487.5 37.0Q472 26 451.5 22.5Q431 19 398 31Q349 67 310.0 114.0Q271 161 248 225Q238 222 233.0 212.0Q228 202 224.0 191.0Q220 180 216.0 171.0Q212 162 204 162Q202 153 196.5 145.5Q191 138 186.0 130.5Q181 123 178.5 114.0Q176 105 181 94Z"/></g>
    <g transform="translate(4527, 0)"><path d="M558 563Q559 556 558.5 552.5Q558 549 557.5 546.0Q557 543 557.0 539.5Q557 536 559 529Q538 495 510.5 482.5Q483 470 451.0 464.5Q419 459 385.5 453.0Q352 447 319 427Q306 432 295.5 427.0Q285 422 265 424Q259 418 250.0 415.5Q241 413 232 410Q236 401 235.5 391.5Q235 382 238 376Q273 373 315.5 377.0Q358 381 399 382Q400 377 398.0 375.5Q396 374 397 370Q404 365 411.0 357.5Q418 350 425.0 343.0Q432 336 439.5 331.5Q447 327 457 328Q461 320 462.5 310.5Q464 301 460 291Q444 280 428.0 268.5Q412 257 394.5 248.0Q377 239 357.5 233.5Q338 228 314 229Q309 229 306.5 229.0Q304 229 300 232Q292 227 277.5 229.0Q263 231 255 226Q244 231 228.5 230.5Q213 230 201 234Q185 213 172.0 189.0Q159 165 149 138Q183 133 205.5 134.0Q228 135 248.0 137.5Q268 140 289.0 142.5Q310 145 342 144Q362 155 389.5 158.5Q417 162 440 170Q448 167 454.0 159.5Q460 152 465.5 145.5Q471 139 477.0 134.0Q483 129 492 130Q496 126 497.5 120.5Q499 115 500.0 110.0Q501 105 503.5 101.5Q506 98 512 99Q497 66 477.5 48.5Q458 31 433.0 22.0Q408 13 377.5 8.0Q347 3 310 -4Q301 -6 295.0 -3.5Q289 -1 281 -1Q258 -6 226.0 -10.0Q194 -14 161.0 -13.0Q128 -12 98.0 -4.5Q68 3 49 22Q41 29 38.5 38.5Q36 48 25 53Q24 66 21.0 82.0Q18 98 15.0 115.5Q12 133 10.5 150.0Q9 167 12 181Q15 196 24.5 208.0Q34 220 31 234Q36 235 37.0 239.5Q38 244 45 243Q51 261 58.0 277.0Q65 293 72.5 308.0Q80 323 87.5 338.5Q95 354 102 373Q88 386 81.5 401.5Q75 417 72.0 432.5Q69 448 67.0 464.5Q65 481 60 498Q70 513 84.5 522.5Q99 532 116.0 538.0Q133 544 153.0 548.0Q173 552 195 557Q235 570 266.5 577.0Q298 584 328.5 588.5Q359 593 392.0 597.0Q425 601 467 609Q476 600 484 600Q488 609 493.5 605.5Q499 602 498 611Q508 594 523.5 582.5Q539 571 558 563Z"/></g>
    <g transform="translate(5061, 0)"><path d="M563 -13Q528 3 507.5 34.0Q487 65 467 103Q464 109 461.0 115.0Q458 121 455 126L441 152L433 168L421 157L403 141L393 131Q367 107 340.5 83.5Q314 60 284.5 41.5Q255 23 222.5 11.5Q190 0 152 -1L130 10Q111 20 98.0 28.0Q85 36 68 53Q63 62 59.5 70.0Q56 78 52 86Q41 106 34.0 122.0Q27 138 20 158Q23 172 29.0 205.5Q35 239 43.5 279.0Q52 319 61.5 359.5Q71 400 81 430Q90 456 101.5 485.0Q113 514 126.5 538.5Q140 563 156.0 580.5Q172 598 190 601Q195 594 201.0 591.0Q207 588 212 586Q226 566 239.5 552.0Q253 538 271 524Q266 499 256.5 468.5Q247 438 236.5 407.5Q226 377 216.0 348.0Q206 319 200 298Q194 281 190 260Q181 223 173 159Q185 162 199.0 172.0Q213 182 226 193Q241 205 256 220Q275 239 288.0 255.0Q301 271 312.5 288.0Q324 305 336.0 325.5Q348 346 365 374Q380 398 396.5 425.5Q413 453 429.5 478.5Q446 504 462.0 525.0Q478 546 491 558Q499 548 511.5 539.0Q524 530 538 525Q544 516 549.5 508.5Q555 501 560 495Q566 486 571.5 478.0Q577 470 582 462Q581 455 579.0 444.0Q577 433 574.5 420.0Q572 407 569.0 393.5Q566 380 563 368Q555 330 551.0 311.0Q547 292 545.5 281.0Q544 270 543.5 262.5Q543 255 543 242Q542 232 544 222Q545 213 548.0 203.0Q551 193 556 185L596 216Q613 229 628.5 251.5Q644 274 658.5 303.5Q673 333 687.0 368.0Q701 403 715 439Q736 492 757.5 542.0Q779 592 799 619Q821 605 837.5 590.5Q854 576 866.0 559.0Q878 542 885.5 520.0Q893 498 896 468Q878 433 861.5 396.0Q845 359 830 322Q810 274 788.5 226.0Q767 178 741.0 134.5Q715 91 683.0 54.5Q651 18 609 -7Q598 -4 590 -4Q574 -4 563 -13Z"/></g>
  </g>
</svg>