<?xml version="1.0" encoding="UTF-8"?>
<svg xmlns="http://www.w3.org/2000/svg" viewBox="0 0 162.9 18" 
     width="162.9" height="18">
  <g transform="translate(0, 15.3) scale(0.017578, -0.017578)" fill="#FFFFFF">
    <g transform="translate(0, 0)"><path d="M78 71Q73 82 68.0 92.0Q63 102 58 110Q46 134 37.0 153.0Q28 172 20 197Q23 214 30.5 254.0Q38 294 48.0 341.5Q58 389 69.5 438.0Q81 487 93 522Q104 553 117.5 588.0Q131 623 147.5 652.5Q164 682 183.0 703.0Q202 724 224 728Q230 720 237.0 715.5Q244 711 250 709Q267 685 283.0 668.5Q299 652 321 636Q315 606 303.5 569.5Q292 533 279.5 496.0Q267 459 255.0 424.5Q243 390 236 365Q230 345 224 319Q219 297 213.5 266.0Q208 235 203 198Q217 202 234.5 214.0Q252 226 267 239Q285 254 302 271Q325 294 341.0 313.0Q357 332 370.5 352.5Q384 373 398.5 397.5Q413 422 433 456Q451 485 470.5 518.0Q490 551 510.0 581.0Q530 611 549.0 636.5Q568 662 584 676Q595 665 609.5 653.0Q624 641 641 636Q648 625 654.5 616.5Q661 608 667 600Q675 589 681.5 580.0Q688 571 693 560Q692 552 689.5 539.0Q687 526 684.0 510.5Q681 495 677.5 479.0Q674 463 671 448Q661 403 656.0 380.0Q651 357 649.0 344.0Q647 331 646.5 322.0Q646 313 646 297Q646 285 648 273Q650 262 652.5 250.5Q655 239 662 229L710 266Q730 281 748.5 308.5Q767 336 784.5 371.5Q802 407 819.0 448.5Q836 490 853 534Q865 566 877.5 597.5Q890 629 903.0 657.5Q916 686 928.5 709.5Q941 733 953 749Q980 732 999.5 715.0Q1019 698 1033.5 677.5Q1048 657 1056.5 630.5Q1065 604 1069 568Q1047 526 1028.0 482.0Q1009 438 990 393Q966 335 940.5 277.5Q915 220 884.0 168.0Q853 116 814.5 72.5Q776 29 726 -1Q712 2 702 2Q691 2 683.5 -1.0Q676 -4 670 -9Q629 10 604.0 47.5Q579 85 555 131Q552 138 548.5 144.5Q545 151 541 158L524 189L514 208L500 195L479 176L467 164Q436 135 404.0 107.5Q372 80 337.0 57.5Q302 35 262.5 21.0Q223 7 178 6Q170 10 163.5 13.0Q157 16 151 19Q128 30 113.0 40.0Q98 50 78 71Z"/></g>
    <g transform="translate(1018, 0)"><path d="M512 97Q514 71 506.0 54.0Q498 37 484.0 25.0Q470 13 452.0 6.0Q434 -1 417 -7Q409 -2 401.5 3.5Q394 9 384 12Q371 36 359.0 54.5Q347 73 348 97Q348 98 349.5 108.0Q351 118 353.5 130.0Q356 142 357.5 152.5Q359 163 359 164Q336 162 311.0 154.0Q286 146 262.5 135.0Q239 124 218.5 113.0Q198 102 185 94Q185 91 181.0 79.5Q177 68 171.0 55.5Q165 43 158.0 33.0Q151 23 144 23Q145 20 147.0 17.0Q149 14 147 9Q133 5 122.0 -1.5Q111 -8 99.0 -12.5Q87 -17 73.0 -17.0Q59 -17 40 -7Q40 -1 35.0 3.5Q30 8 24.5 11.5Q19 15 15.0 17.5Q11 20 11 22Q6 21 7.0 29.0Q8 37 15 33Q4 47 1.5 57.5Q-1 68 -10 84Q-8 86 -6.5 91.0Q-5 96 -4.0 100.0Q-3 104 -1.0 106.0Q1 108 4 105Q2 114 4.0 120.0Q6 126 8.0 131.0Q10 136 11.0 141.0Q12 146 8 152Q24 174 29.0 199.5Q34 225 35 246Q42 253 47.5 266.0Q53 279 56.0 292.5Q59 306 58.5 318.5Q58 331 55 339Q56 344 66 342Q72 375 74.5 416.5Q77 458 83.0 495.5Q89 533 103.0 561.5Q117 590 148 599Q154 578 163.5 562.0Q173 546 184.5 531.5Q196 517 207.5 502.0Q219 487 229 468Q228 449 225.0 424.0Q222 399 217.5 373.0Q213 347 208.5 323.0Q204 299 200 282Q201 277 205.5 276.0Q210 275 207 267Q231 273 257.0 278.0Q283 283 309.0 289.0Q335 295 359.5 302.5Q384 310 405 321Q410 360 418.0 399.0Q426 438 420 479Q425 483 428.0 489.0Q431 495 438 497Q433 516 434.0 537.0Q435 558 441.5 577.0Q448 596 460.5 609.5Q473 623 491 627Q502 611 510.0 592.5Q518 574 526.5 555.5Q535 537 544.5 520.5Q554 504 569 492Q572 463 573.5 432.0Q575 401 576 369Q568 331 558.5 295.5Q549 260 545 220Q538 212 534.0 202.0Q530 192 526.0 181.5Q522 171 517.0 161.5Q512 152 505 145Q509 133 506.5 122.5Q504 112 512 97Z"/></g>
    <g transform="translate(1614, 0)"><path d="M529 84Q523 67 511.5 49.5Q500 32 484.5 18.5Q469 5 450.0 -4.0Q431 -13 410 -14Q397 -11 392.5 -7.5Q388 -4 383 -1Q380 1 377.5 2.5Q375 4 373 5L361 10L365 23Q367 31 364.0 35.5Q361 40 352 48Q349 51 346.0 54.0Q343 57 341 60L324 79L351 86Q376 93 384.5 104.0Q393 115 391 141Q371 145 357.5 142.0Q344 139 330 135Q312 130 293.5 126.5Q275 123 253 123Q245 123 238.0 123.5Q231 124 223 125L213 127Q211 138 209.0 139.5Q207 141 205 143Q200 148 194.5 156.5Q189 165 192 178Q187 187 186 196Q180 184 177 171L173 161L163 159Q161 158 160.0 154.5Q159 151 159 149L154 132Q152 130 150.0 128.5Q148 127 146 125Q144 116 141.0 107.0Q138 98 135 90Q130 77 126.5 64.5Q123 52 124 40L120 29Q115 23 109.0 19.5Q103 16 97 13Q95 11 91.5 9.5Q88 8 86 7L83 -4L71 -6Q60 -8 55.5 -9.0Q51 -10 45 -10L35 -9Q24 0 18.0 5.5Q12 11 4 16Q-5 28 -6.0 34.0Q-7 40 -8 45Q-10 51 -10.5 55.0Q-11 59 -13 61L-26 73L-15 82L-14 99Q6 150 28.5 197.0Q51 244 75 293Q83 309 90.5 325.0Q98 341 106 357Q105 360 105.0 364.0Q105 368 107 373Q118 390 125.0 403.5Q132 417 139 431Q147 448 155.5 464.0Q164 480 177 497L193 504Q196 505 200.0 506.5Q204 508 209 508L224 506Q252 519 273.0 542.5Q294 566 316 599L326 613L339 605Q344 602 353.0 599.5Q362 597 372 594Q390 590 406.0 585.0Q422 580 432 570Q438 554 439.0 546.0Q440 538 442 530Q445 513 447.5 496.0Q450 479 451 458Q456 441 459.5 424.5Q463 408 466 391Q471 367 476.0 344.5Q481 322 489 302Q497 302 499 301Q504 303 509.5 304.0Q515 305 522 306L533 307L537 297Q538 292 547 287Q560 286 566.0 281.5Q572 277 577 272Q581 268 585 266L600 260L592 245Q582 227 563.5 210.5Q545 194 522 183Q523 177 523.5 171.5Q524 166 526 160Q529 143 531.0 125.0Q533 107 531 88ZM240 257Q270 259 294.5 261.5Q319 264 349 270Q342 300 334.0 332.5Q326 365 317 397L311 387Q291 366 272.5 340.0Q254 314 241 291Q235 282 229.0 273.0Q223 264 218 255Q224 256 229.5 256.0Q235 256 240 257Z"/></g>
    <g transform="translate(2209, 0)"><path d="M569 481Q544 481 515.0 477.5Q486 474 458 470Q438 467 419.5 465.0Q401 463 386 462Q379 440 372.0 423.0Q365 406 357 390Q349 373 342.5 355.5Q336 338 330 318Q320 302 313.5 288.5Q307 275 303 258Q291 243 285.0 226.5Q279 210 276 198L272 186Q266 180 265.0 176.5Q264 173 260 170Q259 159 253 148Q251 143 250.0 138.5Q249 134 249 132Q249 122 244 119Q245 114 244.0 108.5Q243 103 242 98Q239 86 240 79Q243 75 245.5 72.0Q248 69 249 64Q255 60 258 59Q262 56 270 52L279 42Q284 13 270 -4Q255 -23 219 -23H207Q202 -18 201 -15Q193 -12 188.0 -10.0Q183 -8 179 -2Q166 4 158 8L149 13Q149 24 149 25Q142 34 138.5 45.0Q135 56 133 67Q131 76 128.5 84.0Q126 92 122 98Q120 156 133.0 196.0Q146 236 160 273Q168 293 176.0 313.5Q184 334 190 356L199 366Q206 382 210.5 392.5Q215 403 220 414Q223 421 225.5 427.5Q228 434 230 439Q224 439 219.0 438.5Q214 438 209 437Q203 436 198.0 435.5Q193 435 188 435Q181 435 178 436Q167 431 154 431H144Q141 431 138.5 431.5Q136 432 134 432Q124 432 118 429Q106 429 95 429H85Q83 429 80.0 428.5Q77 428 75 428Q68 428 60.0 429.5Q52 431 43 436Q31 452 27 453L18 465Q17 471 15.0 476.5Q13 482 11 489Q7 499 3.5 510.5Q0 522 0 538Q1 546 4.0 550.0Q7 554 9 557L12 572L25 571H53Q85 571 118.0 573.5Q151 576 186 579Q206 581 226.5 583.0Q247 585 269 587Q273 596 277 604L287 609Q305 610 312.5 604.5Q320 599 325 594Q347 596 369.5 598.5Q392 601 415 605Q449 610 483.5 614.0Q518 618 550 618Q564 618 577.0 617.0Q590 616 601 614L611 607Q614 601 619.5 596.0Q625 591 631 586Q643 575 655.0 560.0Q667 545 664 516Q656 504 652 502L643 490L633 491Q627 491 622.0 489.5Q617 488 612 486Q608 484 604.0 482.5Q600 481 595 480Q586 480 580.5 480.5Q575 481 569 481Z"/></g>
    <g transform="translate(2950, 0)"><path d="M529 84Q523 67 511.5 49.5Q500 32 484.5 18.5Q469 5 450.0 -4.0Q431 -13 410 -14Q397 -11 392.5 -7.5Q388 -4 383 -1Q380 1 377.5 2.5Q375 4 373 5L361 10L365 23Q367 31 364.0 35.5Q361 40 352 48Q349 51 346.0 54.0Q343 57 341 60L324 79L351 86Q376 93 384.5 104.0Q393 115 391 141Q371 145 357.5 142.0Q344 139 330 135Q312 130 293.5 126.5Q275 123 253 123Q245 123 238.0 123.5Q231 124 223 125L213 127Q211 138 209.0 139.5Q207 141 205 143Q200 148 194.5 156.5Q189 165 192 178Q187 187 186 196Q180 184 177 171L173 161L163 159Q161 158 160.0 154.5Q159 151 159 149L154 132Q152 130 150.0 128.5Q148 127 146 125Q144 116 141.0 107.0Q138 98 135 90Q130 77 126.5 64.5Q123 52 124 40L120 29Q115 23 109.0 19.5Q103 16 97 13Q95 11 91.5 9.5Q88 8 86 7L83 -4L71 -6Q60 -8 55.5 -9.0Q51 -10 45 -10L35 -9Q24 0 18.0 5.5Q12 11 4 16Q-5 28 -6.0 34.0Q-7 40 -8 45Q-10 51 -10.5 55.0Q-11 59 -13 61L-26 73L-15 82L-14 99Q6 150 28.5 197.0Q51 244 75 293Q83 309 90.5 325.0Q98 341 106 357Q105 360 105.0 364.0Q105 368 107 373Q118 390 125.0 403.5Q132 417 139 431Q147 448 155.5 464.0Q164 480 177 497L193 504Q196 505 200.0 506.5Q204 508 209 508L224 506Q252 519 273.0 542.5Q294 566 316 599L326 613L339 605Q344 602 353.0 599.5Q362 597 372 594Q390 590 406.0 585.0Q422 580 432 570Q438 554 439.0 546.0Q440 538 442 530Q445 513 447.5 496.0Q450 479 451 458Q456 441 459.5 424.5Q463 408 466 391Q471 367 476.0 344.5Q481 322 489 302Q497 302 499 301Q504 303 509.5 304.0Q515 305 522 306L533 307L537 297Q538 292 547 287Q560 286 566.0 281.5Q572 277 577 272Q581 268 585 266L600 260L592 245Q582 227 563.5 210.5Q545 194 522 183Q523 177 523.5 171.5Q524 166 526 160Q529 143 531.0 125.0Q533 107 531 88ZM240 257Q270 259 294.5 261.5Q319 264 349 270Q342 300 334.0 332.5Q326 365 317 397L311 387Q291 366 272.5 340.0Q254 314 241 291Q235 282 229.0 273.0Q223 264 218 255Q224 256 229.5 256.0Q235 256 240 257Z"/></g>
    <g transform="translate(3545, 0)"><path d="M161 104Q150 64 141.5 43.5Q133 23 116 1Q103 3 98.0 -2.0Q93 -7 87 -11Q78 -13 74.0 -11.0Q70 -9 67.0 -6.5Q64 -4 59.5 -1.5Q55 1 46 1Q44 9 41.5 16.0Q39 23 28 21Q30 29 29.0 34.5Q28 40 26.5 44.5Q25 49 24.0 53.5Q23 58 25 65Q20 65 17.0 72.0Q14 79 10 86Q13 104 16.0 120.0Q19 136 23.5 150.0Q28 164 31.0 178.0Q34 192 28 207Q32 204 34.0 208.5Q36 213 37.0 220.5Q38 228 38.0 235.5Q38 243 37 248Q47 274 53.5 301.5Q60 329 65.5 356.0Q71 383 77.0 409.0Q83 435 93 457Q104 459 117.5 454.5Q131 450 134 443Q160 463 180.0 491.5Q200 520 221.0 547.0Q242 574 267.5 595.0Q293 616 332 620Q352 605 376.5 589.5Q401 574 417 549Q425 545 430.5 540.5Q436 536 444 531V519Q456 508 463.5 493.5Q471 479 477.0 462.5Q483 446 489.0 429.5Q495 413 503 398Q501 393 501.0 389.5Q501 386 502.5 382.0Q504 378 505.0 374.0Q506 370 505 363Q502 319 476.5 292.0Q451 265 415.0 247.5Q379 230 338.0 218.0Q297 206 264 192Q264 188 267.5 188.0Q271 188 270 183Q294 168 308.0 159.0Q322 150 334.5 144.0Q347 138 361.5 133.5Q376 129 402 123Q428 117 442.5 113.5Q457 110 469.0 107.5Q481 105 493.5 103.5Q506 102 529 100Q538 91 544.5 78.5Q551 66 553.0 53.5Q555 41 554.0 29.5Q553 18 547 11Q548 8 551.5 8.5Q555 9 559 8Q553 4 549.0 -2.0Q545 -8 541.0 -14.0Q537 -20 532.0 -24.5Q527 -29 518 -30Q487 -42 440.0 -31.5Q393 -21 321 7Q285 21 262.5 31.5Q240 42 223.5 52.5Q207 63 193.5 75.0Q180 87 161 104ZM304 447Q293 431 279.5 418.0Q266 405 253.5 391.5Q241 378 231.0 361.5Q221 345 217 323Q252 327 290.0 342.5Q328 358 362 372Q358 403 340.5 422.0Q323 441 304 447Z"/></g>
    <g transform="translate(4099, 0)"><path d="M558 563Q559 556 558.5 552.5Q558 549 557.5 546.0Q557 543 557.0 539.5Q557 536 559 529Q538 495 510.5 482.5Q483 470 451.0 464.5Q419 459 385.5 453.0Q352 447 319 427Q306 432 295.5 427.0Q285 422 265 424Q259 418 250.0 415.5Q241 413 232 410Q236 401 235.5 391.5Q235 382 238 376Q273 373 315.5 377.0Q358 381 399 382Q400 377 398.0 375.5Q396 374 397 370Q404 365 411.0 357.5Q418 350 425.0 343.0Q432 336 439.5 331.5Q447 327 457 328Q461 320 462.5 310.5Q464 301 460 291Q444 280 428.0 268.5Q412 257 394.5 248.0Q377 239 357.5 233.5Q338 228 314 229Q309 229 306.5 229.0Q304 229 300 232Q292 227 277.5 229.0Q263 231 255 226Q244 231 228.5 230.5Q213 230 201 234Q185 213 172.0 189.0Q159 165 149 138Q183 133 205.5 134.0Q228 135 248.0 137.5Q268 140 289.0 142.5Q310 145 342 144Q362 155 389.5 158.5Q417 162 440 170Q448 167 454.0 159.5Q460 152 465.5 145.5Q471 139 477.0 134.0Q483 129 492 130Q496 126 497.5 120.5Q499 115 500.0 110.0Q501 105 503.5 101.5Q506 98 512 99Q497 66 477.5 48.5Q458 31 433.0 22.0Q408 13 377.5 8.0Q347 3 310 -4Q301 -6 295.0 -3.5Q289 -1 281 -1Q258 -6 226.0 -10.0Q194 -14 161.0 -13.0Q128 -12 98.0 -4.5Q68 3 49 22Q41 29 38.5 38.5Q36 48 25 53Q24 66 21.0 82.0Q18 98 15.0 115.5Q12 133 10.5 150.0Q9 167 12 181Q15 196 24.5 208.0Q34 220 31 234Q36 235 37.0 239.5Q38 244 45 243Q51 261 58.0 277.0Q65 293 72.5 308.0Q80 323 87.5 338.5Q95 354 102 373Q88 386 81.5 401.5Q75 417 72.0 432.5Q69 448 67.0 464.5Q65 481 60 498Q70 513 84.5 522.5Q99 532 116.0 538.0Q133 544 153.0 548.0Q173 552 195 557Q235 570 266.5 577.0Q298 584 328.5 588.5Q359 593 392.0 597.0Q425 601 467 609Q476 600 484 600Q488 609 493.5 605.5Q499 602 498 611Q508 594 523.5 582.5Q539 571 558 563Z"/></g>
    <g transform="translate(4883, 0)"><path d="M83 483Q41 500 13.5 531.0Q-14 562 -31 604Q-21 631 1.0 649.5Q23 668 50.5 681.0Q78 694 109.0 702.0Q140 710 169 716Q175 714 175.0 716.0Q175 718 180 714Q216 725 263.0 735.5Q310 746 363 743Q370 747 380.0 747.5Q390 748 401.0 748.0Q412 748 422.0 748.5Q432 749 439 752Q445 745 457.0 743.5Q469 742 482 733Q486 732 482.0 736.5Q478 741 483 743Q496 743 506.0 737.0Q516 731 524.5 723.5Q533 716 540.5 710.0Q548 704 557 704Q566 693 578.5 683.5Q591 674 602.5 664.0Q614 654 621.5 642.0Q629 630 629 615Q628 609 633.0 608.0Q638 607 640 602Q641 565 628.5 538.0Q616 511 597.0 488.5Q578 466 556.5 446.0Q535 426 517 403Q529 388 544.5 375.5Q560 363 576.0 351.0Q592 339 606.5 325.5Q621 312 631 295Q634 289 644 287Q647 275 652.5 262.5Q658 250 663.0 238.5Q668 227 669.0 218.0Q670 209 664 203Q671 199 672.0 190.5Q673 182 672 177Q650 150 642.0 139.0Q634 128 630.0 123.0Q626 118 622.0 114.0Q618 110 604 98Q551 66 493.5 40.5Q436 15 374 6Q369 -1 359.5 -5.5Q350 -10 338.0 -13.0Q326 -16 312.5 -18.0Q299 -20 288 -22Q283 -20 282.5 -15.5Q282 -11 277 -9Q276 -21 266.5 -21.5Q257 -22 243.0 -17.0Q229 -12 214.0 -3.0Q199 6 188 14Q183 5 175.5 -5.0Q168 -15 160 -19Q146 -17 139.5 -16.0Q133 -15 127 -21Q119 -17 115.0 -12.5Q111 -8 107.0 -3.5Q103 1 98.0 4.5Q93 8 83 11Q85 16 80.0 26.5Q75 37 66 39Q71 47 62.0 59.5Q53 72 48 88Q49 95 49.5 102.5Q50 110 51.5 116.5Q53 123 56.0 128.0Q59 133 66 135Q65 148 58 160Q67 167 70.0 177.5Q73 188 75.5 199.0Q78 210 82.0 220.5Q86 231 95 238Q93 241 91.0 243.0Q89 245 89 250Q104 275 110.0 292.5Q116 310 119.5 326.5Q123 343 127.0 362.0Q131 381 143 410Q142 428 147.0 442.0Q152 456 157.5 469.5Q163 483 166.0 498.0Q169 513 165 533Q148 531 140.5 521.0Q133 511 131 494Q122 486 108.0 486.5Q94 487 83 483ZM523 290Q485 311 453.5 315.0Q422 319 393.5 314.5Q365 310 339.0 302.0Q313 294 287 290Q274 256 260.0 215.0Q246 174 233 135Q269 140 299.0 150.0Q329 160 357.0 172.5Q385 185 412.0 197.5Q439 210 468 221Q471 233 481.0 240.0Q491 247 501.0 253.5Q511 260 518.0 268.0Q525 276 523 290ZM453 603Q391 605 331.0 592.0Q271 579 230 554Q250 537 271.5 524.0Q293 511 304 489Q352 508 388.0 537.5Q424 567 453 603Z"/></g>
    <g transform="translate(5586, 0)"><path d="M583 300Q582 288 585.0 277.0Q588 266 592.5 255.5Q597 245 601.0 234.0Q605 223 607 212Q609 198 607.0 181.5Q605 165 600.0 149.5Q595 134 587.0 121.5Q579 109 568 103Q554 85 534.0 75.0Q514 65 497 51Q486 44 472.5 41.0Q459 38 445 35Q434 29 419.0 22.5Q404 16 388.0 10.5Q372 5 356.0 2.5Q340 0 328 1Q298 -10 269.5 -13.5Q241 -17 203 -9Q167 -14 136.5 -6.0Q106 2 82.5 19.5Q59 37 41.5 61.5Q24 86 13 113Q5 170 17.0 216.5Q29 263 51.5 302.5Q74 342 103.0 375.5Q132 409 159 441Q165 439 168.5 441.5Q172 444 175.0 448.5Q178 453 181.5 457.0Q185 461 190 462Q197 477 210.5 484.5Q224 492 232 506Q241 508 247.0 512.0Q253 516 258.5 521.0Q264 526 270.0 530.5Q276 535 284 537V548Q302 556 310.5 566.5Q319 577 331 592Q340 593 345.5 593.0Q351 593 362 595Q370 609 376.5 616.0Q383 623 396 631Q408 625 422.5 623.0Q437 621 448 610Q449 600 454.0 594.5Q459 589 465.0 584.5Q471 580 476.5 575.0Q482 570 484 561Q488 560 489.5 562.0Q491 564 495 563Q498 549 502.0 544.5Q506 540 510 527Q505 517 502.5 506.5Q500 496 490 491Q489 484 494.0 483.5Q499 483 500 478Q501 469 497 465Q521 426 540.0 382.5Q559 339 583 300ZM458 205Q462 216 468.5 223.0Q475 230 476 244Q471 252 470.0 256.5Q469 261 469 271Q447 302 431.0 337.5Q415 373 395 404Q393 400 388.0 396.0Q383 392 377 398Q375 390 370.0 386.5Q365 383 359.0 383.5Q353 384 346.5 386.5Q340 389 335 393Q306 370 277.0 348.0Q248 326 225 297Q221 295 220.0 295.5Q219 296 214 294Q206 275 194.5 259.5Q183 244 172.0 228.0Q161 212 153.0 194.0Q145 176 144 152Q161 138 184.0 135.0Q207 132 231.5 134.0Q256 136 279.5 140.5Q303 145 323 145Q365 155 395.0 171.5Q425 188 458 205Z"/></g>
    <g transform="translate(6230, 0)"><path d="M583 300Q582 288 585.0 277.0Q588 266 592.5 255.5Q597 245 601.0 234.0Q605 223 607 212Q609 198 607.0 181.5Q605 165 600.0 149.5Q595 134 587.0 121.5Q579 109 568 103Q554 85 534.0 75.0Q514 65 497 51Q486 44 472.5 41.0Q459 38 445 35Q434 29 419.0 22.5Q404 16 388.0 10.5Q372 5 356.0 2.5Q340 0 328 1Q298 -10 269.5 -13.5Q241 -17 203 -9Q167 -14 136.5 -6.0Q106 2 82.5 19.5Q59 37 41.5 61.5Q24 86 13 113Q5 170 17.0 216.5Q29 263 51.5 302.5Q74 342 103.0 375.5Q132 409 159 441Q165 439 168.5 441.5Q172 444 175.0 448.5Q178 453 181.5 457.0Q185 461 190 462Q197 477 210.5 484.5Q224 492 232 506Q241 508 247.0 512.0Q253 516 258.5 521.0Q264 526 270.0 530.5Q276 535 284 537V548Q302 556 310.5 566.5Q319 577 331 592Q340 593 345.5 593.0Q351 593 362 595Q370 609 376.5 616.0Q383 623 396 631Q408 625 422.5 623.0Q437 621 448 610Q449 600 454.0 594.5Q459 589 465.0 584.5Q471 580 476.5 575.0Q482 570 484 561Q488 560 489.5 562.0Q491 564 495 563Q498 549 502.0 544.5Q506 540 510 527Q505 517 502.5 506.5Q500 496 490 491Q489 484 494.0 483.5Q499 483 500 478Q501 469 497 465Q521 426 540.0 382.5Q559 339 583 300ZM458 205Q462 216 468.5 223.0Q475 230 476 244Q471 252 470.0 256.5Q469 261 469 271Q447 302 431.0 337.5Q415 373 395 404Q393 400 388.0 396.0Q383 392 377 398Q375 390 370.0 386.5Q365 383 359.0 383.5Q353 384 346.5 386.5Q340 389 335 393Q306 370 277.0 348.0Q248 326 225 297Q221 295 220.0 295.5Q219 296 214 294Q206 275 194.5 259.5Q183 244 172.0 228.0Q161 212 153.0 194.0Q145 176 144 152Q161 138 184.0 135.0Q207 132 231.5 134.0Q256 136 279.5 140.5Q303 145 323 145Q365 155 395.0 171.5Q425 188 458 205Z"/></g>
    <g transform="translate(6874, 0)"><path d="M603 36Q555 34 518.5 38.0Q482 42 447 57Q445 58 443.0 62.0Q441 66 439 68Q433 71 424.5 70.5Q416 70 410 72Q402 76 385.0 87.5Q368 99 354 109Q336 123 320.0 137.0Q304 151 292 167Q289 171 284.0 171.5Q279 172 275 174Q246 156 226.0 129.0Q206 102 188.0 74.0Q170 46 150.0 21.0Q130 -4 99 -17Q90 -17 83.0 -14.0Q76 -11 70.0 -6.5Q64 -2 58.0 2.0Q52 6 45 8Q45 20 40.5 30.0Q36 40 31.5 49.0Q27 58 25.0 66.5Q23 75 29 83Q23 89 11 96Q17 102 16.5 107.0Q16 112 14.0 117.0Q12 122 10.5 128.0Q9 134 13 140Q18 140 25 142Q19 150 19.5 151.5Q20 153 17 156Q15 162 19.0 163.5Q23 165 27 167Q31 216 44.0 258.0Q57 300 73.0 339.0Q89 378 104.5 418.0Q120 458 130 504Q141 515 147.5 530.0Q154 545 161.5 560.0Q169 575 178.5 589.5Q188 604 205 613Q219 612 230.0 605.5Q241 599 257 600Q260 595 262.5 590.0Q265 585 269 580L284 583Q295 574 303.5 560.5Q312 547 315.0 532.0Q318 517 314.0 503.5Q310 490 295 482Q296 477 295.5 474.5Q295 472 294.0 470.0Q293 468 293.0 466.0Q293 464 296 460Q276 445 266.0 418.0Q256 391 255 370Q267 382 281.5 393.5Q296 405 311.5 416.0Q327 427 341.5 437.0Q356 447 368 457Q401 487 431.5 505.5Q462 524 496 547Q504 549 508.5 547.5Q513 546 518 544Q518 550 514.5 551.0Q511 552 512 559Q527 563 538.0 568.5Q549 574 562 579Q571 570 579.0 560.5Q587 551 601 549Q606 538 613.0 532.5Q620 527 627.0 522.0Q634 517 639.5 510.0Q645 503 646 488Q642 481 637.5 473.0Q633 465 629 454Q609 436 588.5 422.0Q568 408 547.0 395.0Q526 382 504.0 369.0Q482 356 459 338Q454 331 446.5 325.5Q439 320 431.0 314.5Q423 309 416.0 303.0Q409 297 405 289Q402 288 399.0 288.0Q396 288 393 287Q390 280 383.5 276.0Q377 272 375 265Q390 233 414.0 216.0Q438 199 468.0 191.5Q498 184 533.0 183.5Q568 183 606 183Q610 184 609.5 187.5Q609 191 614 190Q638 182 651.0 167.5Q664 153 682 139Q680 101 659.0 76.0Q638 51 603 36Z"/></g>
    <g transform="translate(7535, 0)"><path d="M56 34Q48 42 44.5 53.0Q41 64 28 71Q26 86 22.5 105.5Q19 125 15.5 145.5Q12 166 10.5 186.5Q9 207 12 224Q14 233 18.5 241.0Q23 249 27.5 256.5Q32 264 34.5 272.0Q37 280 35 288Q41 289 42.5 294.5Q44 300 52 298Q59 320 67.0 339.0Q75 358 84.0 376.0Q93 394 102.5 412.5Q112 431 120 454Q103 470 95.5 488.5Q88 507 84.0 526.0Q80 545 78.0 564.5Q76 584 70 604Q82 622 99.0 633.5Q116 645 136.5 652.5Q157 660 181.0 664.5Q205 669 232 675Q280 690 318.0 698.5Q356 707 392.0 712.5Q428 718 467.0 722.5Q506 727 557 736Q558 733 560.5 733.0Q563 733 567 733Q570 726 578 726Q578 729 577.5 731.5Q577 734 577 736Q579 736 582.5 735.0Q586 734 588.5 733.0Q591 732 593.0 733.5Q595 735 594 740Q606 719 625.0 705.5Q644 692 667 682Q668 673 667.5 669.0Q667 665 666.0 661.5Q665 658 665.0 653.5Q665 649 667 641Q651 614 630.5 599.0Q610 584 587.0 576.0Q564 568 538.5 564.0Q513 560 486.5 555.5Q460 551 433.0 543.0Q406 535 380 519Q372 522 365.5 521.5Q359 521 352.0 519.0Q345 517 336.5 515.0Q328 513 316 515Q308 508 297.5 505.0Q287 502 276 499Q281 488 280.5 477.0Q280 466 283 458Q325 454 376.0 458.5Q427 463 476 465Q477 460 475.0 458.0Q473 456 473 451Q482 445 490.0 436.0Q498 427 506.5 418.5Q515 410 524.0 404.5Q533 399 545 400Q550 390 552.0 379.0Q554 368 549 356Q529 343 510.0 329.5Q491 316 470.5 305.0Q450 294 426.0 287.0Q402 280 374 281Q369 281 365.5 281.0Q362 281 357 285Q347 280 330.5 281.5Q314 283 303 278Q289 283 270.5 283.0Q252 283 238 288Q220 262 204.0 233.5Q188 205 176 173Q217 167 244.0 168.0Q271 169 295.0 172.0Q319 175 344.5 178.0Q370 181 407 180Q432 192 464.5 196.5Q497 201 525 210Q535 207 542.0 198.5Q549 190 555.5 181.5Q562 173 569.0 167.0Q576 161 587 163Q592 158 593.5 151.0Q595 144 596.5 138.0Q598 132 601.0 128.5Q604 125 612 126Q593 87 569.5 66.0Q546 45 516.5 33.5Q487 22 450.5 16.5Q414 11 369 3Q358 1 350.5 3.5Q343 6 335 6Q307 1 268.5 -4.0Q230 -9 191.0 -8.0Q152 -7 116.0 2.0Q80 11 56 34Z"/></g>
    <g transform="translate(8177, 0)"><path d="M347 26Q332 76 303.5 122.0Q275 168 249 201Q208 170 171.5 132.5Q135 95 105 52Q103 31 100.0 17.5Q97 4 89.5 -5.0Q82 -14 70.5 -20.5Q59 -27 41 -34Q8 -10 -7.0 25.5Q-22 61 -11 96Q-10 121 1.5 145.0Q13 169 29.5 190.5Q46 212 65.0 231.5Q84 251 101 268Q104 278 112.5 285.5Q121 293 130.5 300.0Q140 307 149.5 315.0Q159 323 165 334Q158 357 138.0 380.5Q118 404 101 429Q99 434 93.5 432.0Q88 430 86 433Q88 446 80.5 461.0Q73 476 62 487Q65 498 69.0 513.5Q73 529 67 548Q67 556 70.0 563.5Q73 571 76.0 577.5Q79 584 81.0 590.5Q83 597 80 603Q93 605 103.0 602.0Q113 599 122.0 595.0Q131 591 138.5 589.0Q146 587 154 590Q153 585 154.0 583.0Q155 581 157.0 580.0Q159 579 161.0 577.5Q163 576 163 573Q179 568 198.0 551.5Q217 535 234.5 515.0Q252 495 266.0 475.0Q280 455 287 445Q311 460 339.0 480.5Q367 501 397.0 523.0Q427 545 457.5 564.5Q488 584 517 596Q534 588 543.5 576.5Q553 565 559.5 552.5Q566 540 571.0 526.5Q576 513 585 503Q577 486 567.5 474.5Q558 463 554 448Q533 439 504 421Q478 405 440.5 378.0Q403 351 350 306Q362 292 370.0 279.0Q378 266 383 257Q388 246 392 237Q401 230 407.0 221.0Q413 212 418.5 202.5Q424 193 431.0 184.5Q438 176 449 171Q455 141 466.0 117.5Q477 94 476 69Q469 46 455.5 31.0Q442 16 436 0Q427 -3 418.0 -6.0Q409 -9 404 -15Z"/></g>
    <g transform="translate(8696, 0)"><path d="M604 689Q611 681 616.0 672.5Q621 664 631 660Q626 635 628.0 612.5Q630 590 631 564Q617 488 569.0 442.5Q521 397 458 380Q458 370 452 366Q432 363 422.0 356.0Q412 349 403.5 341.0Q395 333 383.5 325.5Q372 318 348 314Q343 303 334.5 300.0Q326 297 317.5 295.5Q309 294 301.0 290.5Q293 287 289 274L232 221Q208 227 190.0 226.5Q172 226 160.0 228.0Q148 230 141.5 240.0Q135 250 133 278Q134 288 140.5 291.5Q147 295 149 303Q149 325 155.5 335.5Q162 346 172.0 353.0Q182 360 193.0 368.5Q204 377 212 395Q228 402 247.5 417.5Q267 433 283 448Q308 461 325.5 471.0Q343 481 358.0 491.0Q373 501 388.0 513.0Q403 525 424 543Q419 556 405.5 557.5Q392 559 375 557Q346 566 318.5 568.5Q291 571 254 573Q240 572 233.5 570.5Q227 569 214 571Q208 566 200.5 563.0Q193 560 184.5 557.5Q176 555 167.5 552.5Q159 550 152 546Q132 551 120.0 565.0Q108 579 91 587Q89 594 94.0 596.0Q99 598 97 608Q87 613 87.5 616.0Q88 619 81 624Q85 640 92.5 651.5Q100 663 109.0 673.5Q118 684 127.0 694.0Q136 704 143 717Q159 721 170.5 729.5Q182 738 193 748Q247 754 298.0 751.5Q349 749 399.5 741.0Q450 733 500.5 719.0Q551 705 604 689ZM220 114Q218 99 216.5 92.0Q215 85 215.0 79.0Q215 73 216.5 64.0Q218 55 222 36L225 20L211 17Q206 16 194.5 8.0Q183 0 174 -5Q160 -13 147.5 -22.5Q135 -32 122 -32Q107 -24 101.0 -20.0Q95 -16 89 -12Q84 -3 80.0 6.0Q76 15 71 24Q68 31 67.0 33.0Q66 35 65.5 36.0Q65 37 63.5 37.5Q62 38 57 43L51 55Q50 63 52.5 70.5Q55 78 57 85Q58 88 59.5 92.5Q61 97 61 99L55 109L63 120Q69 131 72.0 135.0Q75 139 80 144L89 151Q116 152 133 156Q150 153 155.0 149.5Q160 146 165 142Q176 134 181 134H201L199 119Z"/></g>
  </g>
</svg>