<?xml version="1.0" encoding="UTF-8"?>
<svg xmlns="http://www.w3.org/2000/svg" viewBox="0 0 158.6 18" 
     width="158.6" height="18">
  <g transform="translate(0, 15.3) scale(0.017578, -0.017578)" fill="#FFFFFF">
    <g transform="translate(0, 0)"><path d="M78 71Q73 82 68.0 92.0Q63 102 58 110Q46 134 37.0 153.0Q28 172 20 197Q23 214 30.5 254.0Q38 294 48.0 341.5Q58 389 69.5 438.0Q81 487 93 522Q104 553 117.5 588.0Q131 623 147.5 652.5Q164 682 183.0 703.0Q202 724 224 728Q230 720 237.0 715.5Q244 711 250 709Q267 685 283.0 668.5Q299 652 321 636Q315 606 303.5 569.5Q292 533 279.5 496.0Q267 459 255.0 424.5Q243 390 236 365Q230 345 224 319Q219 297 213.5 266.0Q208 235 203 198Q217 202 234.5 214.0Q252 226 267 239Q285 254 302 271Q325 294 341.0 313.0Q357 332 370.5 352.5Q384 373 398.5 397.5Q413 422 433 456Q451 485 470.5 518.0Q490 551 510.0 581.0Q530 611 549.0 636.5Q568 662 584 676Q595 665 609.5 653.0Q624 641 641 636Q648 625 654.5 616.5Q661 608 667 600Q675 589 681.5 580.0Q688 571 693 560Q692 552 689.5 539.0Q687 526 684.0 510.5Q681 495 677.5 479.0Q674 463 671 448Q661 403 656.0 380.0Q651 357 649.0 344.0Q647 331 646.5 322.0Q646 313 646 297Q646 285 648 273Q650 262 652.5 250.5Q655 239 662 229L710 266Q730 281 748.5 308.5Q767 336 784.5 371.5Q802 407 819.0 448.5Q836 490 853 534Q865 566 877.5 597.5Q890 629 903.0 657.5Q916 686 928.5 709.5Q941 733 953 749Q980 732 999.5 715.0Q1019 698 1033.5 677.5Q1048 657 1056.5 630.5Q1065 604 1069 568Q1047 526 1028.0 482.0Q1009 438 990 393Q966 335 940.5 277.5Q915 220 884.0 168.0Q853 116 814.5 72.5Q776 29 726 -1Q712 2 702 2Q691 2 683.5 -1.0Q676 -4 670 -9Q629 10 604.0 47.5Q579 85 555 131Q552 138 548.5 144.5Q545 151 541 158L524 189L514 208L500 195L479 176L467 164Q436 135 404.0 107.5Q372 80 337.0 57.5Q302 35 262.5 21.0Q223 7 178 6Q170 10 163.5 13.0Q157 16 151 19Q128 30 113.0 40.0Q98 50 78 71Z"/></g>
    <g transform="translate(1018, 0)"><path d="M15 34Q12 33 11.0 36.0Q10 39 10.5 42.0Q11 45 13.5 47.0Q16 49 20 47Q7 63 3.5 76.0Q0 89 -10 108Q-7 111 -6.0 116.5Q-5 122 -3.5 127.0Q-2 132 0.5 134.5Q3 137 7 133Q5 144 7.0 151.0Q9 158 11.5 164.0Q14 170 15.0 176.0Q16 182 12 190Q31 216 37.0 246.5Q43 277 44 302Q53 311 59.5 326.0Q66 341 69.0 357.0Q72 373 72.0 388.5Q72 404 68 413Q69 417 72.5 417.5Q76 418 81 417Q88 457 90.5 506.0Q93 555 100.5 600.5Q108 646 125.0 680.5Q142 715 179 725Q186 700 197.5 681.0Q209 662 222.5 644.0Q236 626 250.0 608.0Q264 590 276 568Q275 545 271.5 515.0Q268 485 262.5 454.0Q257 423 251.5 394.0Q246 365 241 345Q242 340 248.0 338.5Q254 337 250 327Q279 334 310.5 340.5Q342 347 372.5 353.5Q403 360 432.5 369.0Q462 378 488 391Q494 439 503.0 486.0Q512 533 505 581Q511 586 515.0 593.0Q519 600 527 602Q521 625 522.0 650.5Q523 676 530.5 698.0Q538 720 553.0 736.5Q568 753 590 758Q603 739 613.0 717.0Q623 695 633.0 672.5Q643 650 654.5 630.0Q666 610 684 596Q687 561 689.0 524.5Q691 488 692 449Q683 404 671.5 361.5Q660 319 655 271Q647 262 642.0 249.5Q637 237 632.5 224.5Q628 212 622.0 200.0Q616 188 607 180Q611 166 608.5 153.5Q606 141 615 124Q617 93 607.5 72.5Q598 52 581.5 37.5Q565 23 543.5 14.5Q522 6 501 -1Q491 5 482.5 11.5Q474 18 462 21L467 30Q447 50 432.5 72.5Q418 95 419 124Q419 125 421.0 137.5Q423 150 425.5 164.0Q428 178 430.5 190.5Q433 203 433 204Q405 201 375.0 191.0Q345 181 316.5 168.5Q288 156 263.5 142.5Q239 129 224 120Q224 117 219.0 103.0Q214 89 207.0 73.5Q200 58 191.5 46.0Q183 34 174 35Q176 30 178.0 27.5Q180 25 178 18Q161 13 147.5 5.0Q134 -3 120.0 -8.5Q106 -14 89.5 -13.5Q73 -13 50 -1Q50 6 44.0 11.5Q38 17 31.5 21.0Q25 25 20.0 28.0Q15 31 15 34Z"/></g>
    <g transform="translate(1730, 0)"><path d="M-26 95 -13 105 -12 126Q13 187 39.5 243.0Q66 299 95 358Q104 377 113.5 396.0Q123 415 132 435Q131 439 131.0 443.5Q131 448 133 454Q147 474 155.5 490.0Q164 506 172 523Q181 543 191.5 563.0Q202 583 218 602L225 612L236 611Q240 613 244.5 614.5Q249 616 256 616L274 613Q307 628 332.5 656.5Q358 685 384 725L396 742L412 732Q417 729 428.0 726.0Q439 723 451 719Q472 714 492.0 707.5Q512 701 523 690L528 681Q530 670 531.5 661.0Q533 652 535 643Q539 622 542.0 601.5Q545 581 546 556Q551 536 555.5 515.5Q560 495 564 475Q569 446 575.0 419.5Q581 393 591 369Q601 369 603 368Q615 373 631 374L644 375L648 363Q650 360 653.0 357.0Q656 354 660 351Q676 350 683.5 344.5Q691 339 696 334Q698 332 701.0 329.5Q704 327 706 326L724 319L714 300Q703 279 680.5 259.0Q658 239 630 226Q632 219 632.5 213.0Q633 207 635 199Q639 179 641.5 157.5Q644 136 641 113Q631 87 617.5 66.5Q604 46 585.5 29.5Q567 13 544.0 2.5Q521 -8 496 -9Q482 -6 475.5 -2.0Q469 2 464 6Q456 12 451 14L438 20L442 35Q445 43 441.5 49.0Q438 55 427 65Q423 68 420.0 71.5Q417 75 413 79L393 102L426 111Q456 119 466.0 131.5Q476 144 474 176Q449 181 433.0 177.5Q417 174 401 170Q378 164 356.0 159.5Q334 155 308 155Q291 155 272 158L261 159L258 170Q258 172 255.5 174.5Q253 177 251 179Q246 185 239.0 195.0Q232 205 236 220Q229 231 228 243Q224 235 221.5 227.5Q219 220 217 213L213 200L200 198Q198 196 196.5 192.0Q195 188 196 186L200 175L190 166Q188 163 185.0 161.0Q182 159 180 157Q178 146 174.5 136.0Q171 126 167 116Q162 100 157.5 85.0Q153 70 153 55L149 42Q144 34 136.5 30.0Q129 26 122 23Q112 19 108 15L105 2L90 0Q77 -3 71.5 -4.0Q66 -5 59 -5L46 -4Q34 8 26.5 14.5Q19 21 9 26L3 34Q-1 42 -2.0 48.5Q-3 55 -5 62Q-7 75 -11 80ZM293 355Q279 335 266 313Q273 314 279.5 314.0Q286 314 293 315Q328 317 358.0 320.0Q388 323 423 330Q415 367 405.5 405.5Q396 444 385 483L380 473Q355 446 332.0 415.0Q309 384 294 356Z"/></g>
    <g transform="translate(2449, 0)"><path d="M22 564Q21 572 18.5 578.5Q16 585 13 593Q8 605 4.0 619.0Q0 633 0 652Q2 662 5.0 666.5Q8 671 11 674L15 692H30Q38 691 46.5 691.0Q55 691 63 691Q101 691 141.0 694.0Q181 697 223 701Q269 707 322 710Q327 721 328.5 724.0Q330 727 332 731L343 737Q366 738 375.0 731.5Q384 725 389 719Q415 721 442.0 724.5Q469 728 498 732Q538 737 579.0 742.0Q620 747 659 747Q676 747 691.0 746.0Q706 745 720 743L732 734Q736 727 742.0 721.0Q748 715 756 709Q771 697 785.5 679.0Q800 661 796 626L791 616Q787 612 781 608L771 595H760Q750 595 745.0 593.5Q740 592 733 589Q729 587 724.0 585.5Q719 584 713 582Q702 583 696.0 583.0Q690 583 682 583Q652 583 617.0 579.0Q582 575 549 570Q525 567 503.0 564.5Q481 562 463 560Q453 534 445.0 514.0Q437 494 428 474Q419 454 411.0 433.5Q403 413 396 388Q384 370 376.0 353.5Q368 337 363 316Q348 299 341.5 279.0Q335 259 330 245L326 230Q319 223 317.5 219.0Q316 215 312 210Q309 197 304 185Q302 180 300.0 174.5Q298 169 299 166Q297 155 293 149Q293 143 292.0 137.0Q291 131 290 125Q288 118 287.0 112.5Q286 107 288 102Q291 98 294.0 94.0Q297 90 299 84Q301 82 304.0 81.0Q307 80 309 78Q317 71 324 70L334 58Q340 22 323 2Q305 -21 263 -21L249 -20Q242 -13 241 -11Q232 -7 226.0 -4.5Q220 -2 215 5Q213 7 210.0 7.5Q207 8 205 10Q195 13 189 17L178 23Q179 33 179 37Q171 48 166.5 61.0Q162 74 159 88Q156 99 153.5 108.0Q151 117 146 124Q144 194 159.0 241.5Q174 289 192 334Q202 358 211.0 383.0Q220 408 227 434L238 445Q245 451 247 452Q247 465 252.0 477.5Q257 490 263 503Q267 511 270.5 519.0Q274 527 275 533Q268 533 262.5 532.5Q257 532 251 531Q238 528 226 528Q217 528 213 529Q205 525 198.0 524.5Q191 524 184 524H172H160Q148 524 141 521Q127 521 123.0 521.0Q119 521 114 521H102H90Q82 521 72.0 522.5Q62 524 51 530L44 538Q38 549 33 550L22 553Z"/></g>
    <g transform="translate(3071, 0)"><path d="M13 451Q16 466 17.0 475.5Q18 485 10 496Q14 512 16.5 521.0Q19 530 17 546Q26 572 44.5 590.0Q63 608 85.0 620.5Q107 633 131.0 641.5Q155 650 176 656Q176 660 172.0 660.0Q168 660 170 665Q224 675 278.5 694.0Q333 713 390.0 728.0Q447 743 507.0 746.5Q567 750 633 731Q637 719 644.0 708.0Q651 697 658.5 686.5Q666 676 672.0 666.0Q678 656 679 645Q691 634 698.5 621.5Q706 609 701 588Q690 580 678.0 572.0Q666 564 653 557Q608 568 563.0 565.0Q518 562 482 558Q471 570 456.0 569.5Q441 569 424.5 564.5Q408 560 392.0 555.5Q376 551 362 553Q351 543 333.0 539.5Q315 536 295 534Q294 529 297.0 527.0Q300 525 298 519Q305 510 317.0 506.5Q329 503 341.5 500.0Q354 497 364.0 491.5Q374 486 377 474Q395 473 408.0 464.5Q421 456 430.0 444.0Q439 432 443.0 418.5Q447 405 446 394Q450 384 454.5 386.0Q459 388 465 381Q469 366 483.5 349.5Q498 333 506 314Q508 284 509.5 260.0Q511 236 501 213Q484 169 452.0 134.0Q420 99 379.5 72.5Q339 46 294.0 26.5Q249 7 205 -6Q201 -5 195.5 -6.0Q190 -7 193 0Q184 -8 172.5 -10.0Q161 -12 147.5 -11.5Q134 -11 120.5 -10.0Q107 -9 94 -11Q86 -3 79.5 5.0Q73 13 69 24Q64 25 64.5 30.5Q65 36 60 36Q60 40 61.0 42.0Q62 44 63 46Q67 49 66.5 50.5Q66 52 63.5 53.5Q61 55 58.5 57.0Q56 59 57 62Q62 71 60.5 83.5Q59 96 58.0 109.0Q57 122 60.0 133.5Q63 145 77 153Q118 149 154.5 157.0Q191 165 223.5 179.0Q256 193 285.5 209.5Q315 226 343 240Q346 250 352.5 257.0Q359 264 366.0 270.5Q373 277 379.0 284.5Q385 292 388 303Q389 307 388.0 309.0Q387 311 385.0 312.5Q383 314 381.0 316.0Q379 318 379 322Q376 323 373.5 324.0Q371 325 369 325Q343 338 314.0 347.0Q285 356 265 367Q253 359 241.0 363.0Q229 367 212 371Q170 373 132.5 379.0Q95 385 60 400Q58 406 55.0 410.5Q52 415 41 413Q34 423 26.5 431.5Q19 440 13 451Z"/></g>
    <g transform="translate(3961, 0)"><path d="M17 -12Q3 -3 -5.5 11.0Q-14 25 -19.5 41.0Q-25 57 -28.5 74.5Q-32 92 -36 108Q-36 122 -30.0 128.5Q-24 135 -17 141Q7 142 26.0 145.0Q45 148 63.0 151.0Q81 154 99.0 156.5Q117 159 138 159Q153 190 166.0 218.5Q179 247 191 273Q197 298 206.5 319.5Q216 341 225.0 360.5Q234 380 241.0 399.5Q248 419 250 441Q262 476 271.5 505.5Q281 535 286 576Q248 570 225.0 564.5Q202 559 192 554Q172 555 160.5 562.0Q149 569 142.0 579.0Q135 589 130.0 602.0Q125 615 118 629Q122 638 120.0 655.5Q118 673 108 681Q116 683 120.0 694.5Q124 706 121 712Q138 717 157.0 718.5Q176 720 194.5 721.5Q213 723 230.0 725.5Q247 728 259 736Q311 738 367.5 740.0Q424 742 472 745Q490 739 513.5 739.0Q537 739 560.5 736.0Q584 733 602.5 723.0Q621 713 628 688Q643 686 650.5 680.0Q658 674 660.0 665.5Q662 657 661.5 646.5Q661 636 661 626Q645 614 620.5 606.5Q596 599 567.0 594.5Q538 590 506.5 588.5Q475 587 445 586Q440 553 427.5 508.5Q415 464 402.0 421.5Q389 379 379.5 345.5Q370 312 371 302Q361 279 354.5 263.0Q348 247 342.5 233.0Q337 219 331.5 205.5Q326 192 318 175H386Q388 164 395.0 160.0Q402 156 410.0 153.0Q418 150 424.5 145.5Q431 141 431 131Q450 126 455.0 116.0Q460 106 457.5 94.5Q455 83 447.5 71.0Q440 59 433 50Q424 52 416.0 45.5Q408 39 401 31Q372 35 344.0 32.0Q316 29 292 27Q287 26 288.0 21.5Q289 17 286 15Q255 25 222.5 23.0Q190 21 156.5 13.5Q123 6 88.0 -2.5Q53 -11 17 -12Z"/></g>
    <g transform="translate(4489, 0)"><path d="M181 94Q171 86 169.0 73.5Q167 61 164.0 49.0Q161 37 153.5 28.5Q146 20 127 21Q123 16 125.5 15.0Q128 14 130 6Q116 8 110.0 4.0Q104 0 95 -2Q72 5 56.5 23.5Q41 42 29.5 64.0Q18 86 9.5 109.0Q1 132 -8 149Q-8 153 -4.5 152.5Q-1 152 2 152Q-3 162 -5.5 174.5Q-8 187 -15 195Q14 257 47.0 324.5Q80 392 113.5 461.5Q147 531 180.5 601.5Q214 672 245 740Q273 730 299.5 716.5Q326 703 348.0 685.0Q370 667 385.5 643.5Q401 620 406 590Q404 584 401.0 586.0Q398 588 396 584Q401 578 401.5 575.5Q402 573 401.0 570.5Q400 568 400.0 564.0Q400 560 405 553Q400 554 398.0 551.5Q396 549 391 551Q396 537 394.0 529.0Q392 521 388.0 514.5Q384 508 381.5 500.5Q379 493 383 480Q379 480 377.5 478.5Q376 477 375.0 475.0Q374 473 372.5 471.5Q371 470 367 471Q370 445 369.0 418.5Q368 392 367.0 364.5Q366 337 367.0 308.0Q368 279 375 248Q418 273 444.5 313.0Q471 353 486.5 402.0Q502 451 510.5 507.0Q519 563 528 621Q539 632 545.5 648.0Q552 664 556.5 681.0Q561 698 565.5 715.5Q570 733 578 747Q596 745 608.5 736.5Q621 728 632.0 717.5Q643 707 655.0 698.0Q667 689 685 686Q699 666 711.0 647.5Q723 629 727 606Q721 596 718.0 584.0Q715 572 711.5 560.0Q708 548 702.0 538.0Q696 528 685 521Q682 491 676.0 465.0Q670 439 665.0 414.0Q660 389 656.0 362.0Q652 335 653 303Q644 274 633.0 243.5Q622 213 617 187Q598 172 587.0 150.0Q576 128 564 106Q559 102 558.0 104.5Q557 107 549 108Q550 99 545.5 96.5Q541 94 546 82Q529 74 516.0 61.0Q503 48 487.5 37.0Q472 26 451.5 22.5Q431 19 398 31Q349 67 310.0 114.0Q271 161 248 225Q238 222 233.0 212.0Q228 202 224.0 191.0Q220 180 216.0 171.0Q212 162 204 162Q202 153 196.5 145.5Q191 138 186.0 130.5Q181 123 178.5 114.0Q176 105 181 94Z"/></g>
    <g transform="translate(5190, 0)"><path d="M93 87Q64 109 45.5 142.0Q27 175 16.5 212.0Q6 249 2.5 288.5Q-1 328 0 364Q9 391 22.0 413.5Q35 436 51.0 456.5Q67 477 84.5 495.5Q102 514 119 533Q125 533 130 530Q134 541 142.0 549.0Q150 557 159.0 563.5Q168 570 177.0 576.5Q186 583 192 592Q217 598 236.5 609.0Q256 620 274.0 633.0Q292 646 311.0 657.0Q330 668 355 674Q364 684 377.5 691.0Q391 698 404.5 704.0Q418 710 430.5 717.0Q443 724 451 736Q457 728 468.0 730.5Q479 733 488 736Q494 737 498.0 734.0Q502 731 505.5 727.5Q509 724 511.5 723.0Q514 722 517 729Q525 728 521.5 722.0Q518 716 517 714Q527 716 533.5 710.5Q540 705 554 703Q559 698 557.0 695.0Q555 692 554 685Q590 674 600.0 650.5Q610 627 602.0 601.5Q594 576 572.5 554.5Q551 533 525 526Q494 518 467.5 510.0Q441 502 416.5 492.0Q392 482 370.5 468.5Q349 455 333 437Q305 429 282.5 415.0Q260 401 240.5 384.0Q221 367 203.0 348.5Q185 330 167 312Q167 295 161.0 286.0Q155 277 148 268Q150 249 156.5 235.5Q163 222 170 208Q250 184 339.5 178.5Q429 173 517 172Q526 160 537.5 149.5Q549 139 558.5 128.0Q568 117 573.5 102.5Q579 88 576 68Q559 51 539.0 35.5Q519 20 499 5Q490 4 477.5 5.0Q465 6 451.5 6.0Q438 6 424.5 4.5Q411 3 399 -2Q336 0 270.0 13.5Q204 27 148 46Q137 59 125.0 70.5Q113 82 93 87Z"/></g>
    <g transform="translate(5816, 0)"><path d="M57 37Q53 41 50.0 46.5Q47 52 45 61Q31 78 23.0 100.0Q15 122 12.0 145.5Q9 169 11.0 193.0Q13 217 18 238Q21 248 23 259Q28 278 33.0 296.5Q38 315 48 327Q44 338 49.0 351.0Q54 364 59 375Q61 378 62.0 380.5Q63 383 64 385Q76 420 87.5 452.5Q99 485 110 515Q130 570 148.5 623.0Q167 676 182 736Q190 742 196 744Q198 745 201.0 746.0Q204 747 208 747Q229 736 257.5 726.5Q286 717 306 717L323 702Q336 687 345.5 670.5Q355 654 351 628Q345 619 341 617Q335 594 328.0 576.5Q321 559 314 543Q306 525 299.0 507.0Q292 489 287 463Q281 456 279.5 451.0Q278 446 276 441Q274 435 271.0 428.5Q268 422 262 417Q258 386 250.0 366.5Q242 347 234 328Q220 293 208.0 258.5Q196 224 194 180Q206 183 216 183Q229 183 241 179Q277 197 319.5 201.0Q362 205 404 206Q439 206 469 209Q479 202 482.0 201.5Q485 201 492 201Q495 201 498.0 201.0Q501 201 506 200Q520 186 533.0 180.5Q546 175 561 170Q574 165 586.5 159.5Q599 154 611 145L620 94Q628 83 627 79Q627 71 623 65L625 52Q606 48 600.0 43.5Q594 39 587 32Q576 31 566 31Q546 31 525 25Q495 36 459 36Q445 36 430.5 35.0Q416 34 402 32Q387 30 372.0 28.5Q357 27 342 27Q330 25 325.0 24.0Q320 23 315 21Q281 10 241.5 -1.0Q202 -12 162 -12Q103 -12 67 18Q63 27 61.0 30.0Q59 33 57 37Z"/></g>
    <g transform="translate(6464, 0)"><path d="M72 495Q70 508 67 511Q74 529 77.5 546.5Q81 564 83 580Q85 594 87.5 606.0Q90 618 94 629Q111 633 119.5 643.5Q128 654 133 662Q151 663 156.5 657.0Q162 651 169 637Q174 626 183.0 613.5Q192 601 210 594Q213 583 217.0 573.0Q221 563 226 552Q235 531 243.0 508.5Q251 486 252 466Q240 443 233.5 413.0Q227 383 225.5 352.5Q224 322 227.0 294.0Q230 266 237 247L243 231L265 233Q301 242 330.0 253.5Q359 265 384.0 281.0Q409 297 432.0 317.5Q455 338 480 366Q504 394 523.0 429.5Q542 465 554.5 503.0Q567 541 574.0 579.0Q581 617 583 650Q602 659 604 679L601 692Q598 697 598.5 701.5Q599 706 601 710Q609 733 635 744Q653 732 668.5 718.0Q684 704 697 690Q699 663 705.0 643.5Q711 624 718 606Q725 589 730.5 573.0Q736 557 738 534Q728 504 723.5 477.5Q719 451 715 422L713 411Q695 380 677.5 347.5Q660 315 649 291Q643 285 638.5 277.0Q634 269 630 261Q628 258 624.5 251.0Q621 244 618 241L594 250L588 219L572 215L560 201Q537 161 511.5 134.0Q486 107 454.5 86.0Q423 65 383.5 46.5Q344 28 293 7Q273 10 258.5 10.5Q244 11 230 12Q216 12 203.0 13.0Q190 14 173 16Q169 25 162.0 29.0Q155 33 149 33Q129 43 119.0 61.0Q109 79 98 101Q93 113 87.5 125.0Q82 137 74 148L94 154L68 184Q65 187 61.5 190.0Q58 193 55 197V216Q51 298 51.5 367.5Q52 437 70 490Z"/></g>
    <g transform="translate(7176, 0)"><path d="M98 -11Q69 -4 53.5 12.5Q38 29 30.5 51.5Q23 74 20.5 101.0Q18 128 15 157Q19 170 25.5 179.0Q32 188 31 204Q42 236 51.0 266.0Q60 296 63 328Q69 337 75 340Q83 397 77.0 457.0Q71 517 57 568Q58 579 60.0 584.5Q62 590 60 594Q58 603 66.0 603.0Q74 603 82 603Q82 621 75.5 638.5Q69 656 63 679Q71 697 74.0 714.0Q77 731 85 745Q117 735 148.0 722.0Q179 709 209.0 696.5Q239 684 268.0 672.5Q297 661 325 654Q368 623 413.5 592.5Q459 562 496.5 525.5Q534 489 559.0 442.0Q584 395 588 331Q586 325 585.0 321.0Q584 317 583.0 313.0Q582 309 582.0 304.0Q582 299 582 290Q546 227 491.0 184.0Q436 141 371.0 108.0Q306 75 235.5 47.5Q165 20 98 -11ZM196 556Q187 556 183 552Q195 507 201.0 467.0Q207 427 207.5 387.0Q208 347 203.0 305.0Q198 263 189 214Q202 215 212.0 219.0Q222 223 232.5 228.0Q243 233 254.5 237.0Q266 241 281 242Q285 250 291.5 254.5Q298 259 303 264Q328 274 353.0 285.0Q378 296 399.0 310.0Q420 324 437.0 342.0Q454 360 465 385Q457 400 445.5 410.5Q434 421 421.5 431.5Q409 442 397.5 453.5Q386 465 379 480Q363 482 351.0 488.5Q339 495 328.0 501.5Q317 508 304.5 514.0Q292 520 275 521Q249 535 228.0 540.5Q207 546 196 556Z"/></g>
    <g transform="translate(7779, 0)"><path d="M56 34Q48 42 44.5 53.0Q41 64 28 71Q26 86 22.5 105.5Q19 125 15.5 145.5Q12 166 10.5 186.5Q9 207 12 224Q14 233 18.5 241.0Q23 249 27.5 256.5Q32 264 34.5 272.0Q37 280 35 288Q41 289 42.5 294.5Q44 300 52 298Q59 320 67.0 339.0Q75 358 84.0 376.0Q93 394 102.5 412.5Q112 431 120 454Q103 470 95.5 488.5Q88 507 84.0 526.0Q80 545 78.0 564.5Q76 584 70 604Q82 622 99.0 633.5Q116 645 136.5 652.5Q157 660 181.0 664.5Q205 669 232 675Q280 690 318.0 698.5Q356 707 392.0 712.5Q428 718 467.0 722.5Q506 727 557 736Q558 733 560.5 733.0Q563 733 567 733Q570 726 578 726Q578 729 577.5 731.5Q577 734 577 736Q579 736 582.5 735.0Q586 734 588.5 733.0Q591 732 593.0 733.5Q595 735 594 740Q606 719 625.0 705.5Q644 692 667 682Q668 673 667.5 669.0Q667 665 666.0 661.5Q665 658 665.0 653.5Q665 649 667 641Q651 614 630.5 599.0Q610 584 587.0 576.0Q564 568 538.5 564.0Q513 560 486.5 555.5Q460 551 433.0 543.0Q406 535 380 519Q372 522 365.5 521.5Q359 521 352.0 519.0Q345 517 336.5 515.0Q328 513 316 515Q308 508 297.5 505.0Q287 502 276 499Q281 488 280.5 477.0Q280 466 283 458Q325 454 376.0 458.5Q427 463 476 465Q477 460 475.0 458.0Q473 456 473 451Q482 445 490.0 436.0Q498 427 506.5 418.5Q515 410 524.0 404.5Q533 399 545 400Q550 390 552.0 379.0Q554 368 549 356Q529 343 510.0 329.5Q491 316 470.5 305.0Q450 294 426.0 287.0Q402 280 374 281Q369 281 365.5 281.0Q362 281 357 285Q347 280 330.5 281.5Q314 283 303 278Q289 283 270.5 283.0Q252 283 238 288Q220 262 204.0 233.5Q188 205 176 173Q217 167 244.0 168.0Q271 169 295.0 172.0Q319 175 344.5 178.0Q370 181 407 180Q432 192 464.5 196.5Q497 201 525 210Q535 207 542.0 198.5Q549 190 555.5 181.5Q562 173 569.0 167.0Q576 161 587 163Q592 158 593.5 151.0Q595 144 596.5 138.0Q598 132 601.0 128.5Q604 125 612 126Q593 87 569.5 66.0Q546 45 516.5 33.5Q487 22 450.5 16.5Q414 11 369 3Q358 1 350.5 3.5Q343 6 335 6Q307 1 268.5 -4.0Q230 -9 191.0 -8.0Q152 -7 116.0 2.0Q80 11 56 34Z"/></g>
    <g transform="translate(8421, 0)"><path d="M98 -11Q69 -4 53.5 12.5Q38 29 30.5 51.5Q23 74 20.5 101.0Q18 128 15 157Q19 170 25.5 179.0Q32 188 31 204Q42 236 51.0 266.0Q60 296 63 328Q69 337 75 340Q83 397 77.0 457.0Q71 517 57 568Q58 579 60.0 584.5Q62 590 60 594Q58 603 66.0 603.0Q74 603 82 603Q82 621 75.5 638.5Q69 656 63 679Q71 697 74.0 714.0Q77 731 85 745Q117 735 148.0 722.0Q179 709 209.0 696.5Q239 684 268.0 672.5Q297 661 325 654Q368 623 413.5 592.5Q459 562 496.5 525.5Q534 489 559.0 442.0Q584 395 588 331Q586 325 585.0 321.0Q584 317 583.0 313.0Q582 309 582.0 304.0Q582 299 582 290Q546 227 491.0 184.0Q436 141 371.0 108.0Q306 75 235.5 47.5Q165 20 98 -11ZM196 556Q187 556 183 552Q195 507 201.0 467.0Q207 427 207.5 387.0Q208 347 203.0 305.0Q198 263 189 214Q202 215 212.0 219.0Q222 223 232.5 228.0Q243 233 254.5 237.0Q266 241 281 242Q285 250 291.5 254.5Q298 259 303 264Q328 274 353.0 285.0Q378 296 399.0 310.0Q420 324 437.0 342.0Q454 360 465 385Q457 400 445.5 410.5Q434 421 421.5 431.5Q409 442 397.5 453.5Q386 465 379 480Q363 482 351.0 488.5Q339 495 328.0 501.5Q317 508 304.5 514.0Q292 520 275 521Q249 535 228.0 540.5Q207 546 196 556Z"/></g>
  </g>
</svg>