<?xml version="1.0" encoding="UTF-8"?>
<svg xmlns="http://www.w3.org/2000/svg" viewBox="0 0 86.8 18" 
     width="86.8" height="18">
  <g transform="translate(0, 15.3) scale(0.017578, -0.017578)" fill="#FFFFFF">
    <g transform="translate(0, 0)"><path d="M149 -33Q61 -21 42 60L43 71Q47 83 52 98Q57 115 63.0 131.5Q69 148 83 161Q86 170 94.5 188.5Q103 207 123 244Q139 273 148.5 290.0Q158 307 164 316Q154 334 136 351Q120 381 108.5 408.5Q97 436 91 458Q90 482 83 507Q80 520 77.0 533.0Q74 546 74 560Q70 567 67 578L69 590Q74 598 71.5 611.5Q69 625 65 639Q62 652 59.5 666.5Q57 681 58.0 695.0Q59 709 65.5 722.0Q72 735 88 744L98 751L108 745Q119 738 129.0 733.0Q139 728 149 723Q161 717 173.0 710.5Q185 704 199 696L209 689L208 678Q208 676 209.0 673.0Q210 670 212 668L223 665L224 651V639Q224 630 225.0 626.5Q226 623 229 619L234 606Q234 588 237.0 574.0Q240 560 244 546Q249 532 252.0 517.5Q255 503 253 486Q259 489 265 495Q267 497 269.5 499.0Q272 501 275 503L345 598L343 610L368 634Q378 642 387.0 650.5Q396 659 402 670L408 679Q453 739 524 753L541 757L546 741Q551 727 565.5 716.5Q580 706 597 696L608 689Q614 677 614.0 671.0Q614 665 613 661L618 648Q607 619 594.0 606.5Q581 594 567 583Q556 574 547.0 565.0Q538 556 533 545L525 535Q500 522 493 497L489 483H474Q473 483 469.0 478.5Q465 474 457 457Q448 445 444.5 441.5Q441 438 439 436Q437 431 435.5 427.0Q434 423 432 417L426 409Q417 401 413.0 393.5Q409 386 404 376Q400 367 395.0 357.5Q390 348 381 339L383 328L375 321Q367 314 361.0 303.5Q355 293 349 282Q343 270 336.0 258.0Q329 246 318 236Q311 218 305.5 208.0Q300 198 287 184Q275 136 230 81Q229 70 223.5 59.5Q218 49 212 40Q210 36 207.5 31.5Q205 27 204 25L201 14Q195 3 188.5 -4.0Q182 -11 176 -17Q173 -19 170.5 -22.0Q168 -25 166 -27Z"/></g>
    <g transform="translate(505, 0)"><path d="M583 300Q582 288 585.0 277.0Q588 266 592.5 255.5Q597 245 601.0 234.0Q605 223 607 212Q609 198 607.0 181.5Q605 165 600.0 149.5Q595 134 587.0 121.5Q579 109 568 103Q554 85 534.0 75.0Q514 65 497 51Q486 44 472.5 41.0Q459 38 445 35Q434 29 419.0 22.5Q404 16 388.0 10.5Q372 5 356.0 2.5Q340 0 328 1Q298 -10 269.5 -13.5Q241 -17 203 -9Q167 -14 136.5 -6.0Q106 2 82.5 19.5Q59 37 41.5 61.5Q24 86 13 113Q5 170 17.0 216.5Q29 263 51.5 302.5Q74 342 103.0 375.5Q132 409 159 441Q165 439 168.5 441.5Q172 444 175.0 448.5Q178 453 181.5 457.0Q185 461 190 462Q197 477 210.5 484.5Q224 492 232 506Q241 508 247.0 512.0Q253 516 258.5 521.0Q264 526 270.0 530.5Q276 535 284 537V548Q302 556 310.5 566.5Q319 577 331 592Q340 593 345.5 593.0Q351 593 362 595Q370 609 376.5 616.0Q383 623 396 631Q408 625 422.5 623.0Q437 621 448 610Q449 600 454.0 594.5Q459 589 465.0 584.5Q471 580 476.5 575.0Q482 570 484 561Q488 560 489.5 562.0Q491 564 495 563Q498 549 502.0 544.5Q506 540 510 527Q505 517 502.5 506.5Q500 496 490 491Q489 484 494.0 483.5Q499 483 500 478Q501 469 497 465Q521 426 540.0 382.5Q559 339 583 300ZM458 205Q462 216 468.5 223.0Q475 230 476 244Q471 252 470.0 256.5Q469 261 469 271Q447 302 431.0 337.5Q415 373 395 404Q393 400 388.0 396.0Q383 392 377 398Q375 390 370.0 386.5Q365 383 359.0 383.5Q353 384 346.5 386.5Q340 389 335 393Q306 370 277.0 348.0Q248 326 225 297Q221 295 220.0 295.5Q219 296 214 294Q206 275 194.5 259.5Q183 244 172.0 228.0Q161 212 153.0 194.0Q145 176 144 152Q161 138 184.0 135.0Q207 132 231.5 134.0Q256 136 279.5 140.5Q303 145 323 145Q365 155 395.0 171.5Q425 188 458 205Z"/></g>
    <g transform="translate(1149, 0)"><path d="M590 569Q592 547 597.0 531.0Q602 515 608 500Q613 486 617.5 472.5Q622 459 624 440Q616 414 612.5 392.0Q609 370 605 346Q589 311 574.0 284.0Q559 257 550 237Q545 232 541.5 225.5Q538 219 534 212Q532 209 529.0 203.0Q526 197 524 195L504 202L500 177L486 173L476 161Q457 128 436.0 105.5Q415 83 388.5 65.5Q362 48 328.5 33.0Q295 18 253 0Q236 2 223.5 2.5Q211 3 200 4Q181 4 153 7Q150 15 144.0 18.0Q138 21 133 21Q116 29 107.5 44.5Q99 60 91 78Q86 89 81.0 98.5Q76 108 70 118L87 123L65 147Q63 150 60.0 152.5Q57 155 55 158L54 174Q51 243 51.5 300.5Q52 358 67 403V414Q70 436 73.0 450.5Q76 465 78 478Q81 500 87 519Q101 522 108.0 530.5Q115 539 120 546Q134 547 139.0 542.0Q144 537 149 526Q154 517 161.5 506.0Q169 495 184 489Q186 481 189.5 472.5Q193 464 197 454Q205 437 211.5 418.5Q218 400 219 383Q209 364 203.5 339.0Q198 314 196.5 288.5Q195 263 197.5 239.5Q200 216 206 200L212 187L229 189Q259 197 283.5 206.5Q308 216 329.0 229.0Q350 242 369.0 259.5Q388 277 409 300Q430 323 445.5 352.5Q461 382 471.5 414.0Q482 446 487.5 477.5Q493 509 495 537Q512 543 512 561L510 572Q506 578 510 586Q516 605 538 615Q554 605 566.5 593.0Q579 581 590 569Z"/></g>
    <g transform="translate(1748, 0)"><path d="M161 104Q150 64 141.5 43.5Q133 23 116 1Q103 3 98.0 -2.0Q93 -7 87 -11Q78 -13 74.0 -11.0Q70 -9 67.0 -6.5Q64 -4 59.5 -1.5Q55 1 46 1Q44 9 41.5 16.0Q39 23 28 21Q30 29 29.0 34.5Q28 40 26.5 44.5Q25 49 24.0 53.5Q23 58 25 65Q20 65 17.0 72.0Q14 79 10 86Q13 104 16.0 120.0Q19 136 23.5 150.0Q28 164 31.0 178.0Q34 192 28 207Q32 204 34.0 208.5Q36 213 37.0 220.5Q38 228 38.0 235.5Q38 243 37 248Q47 274 53.5 301.5Q60 329 65.5 356.0Q71 383 77.0 409.0Q83 435 93 457Q104 459 117.5 454.5Q131 450 134 443Q160 463 180.0 491.5Q200 520 221.0 547.0Q242 574 267.5 595.0Q293 616 332 620Q352 605 376.5 589.5Q401 574 417 549Q425 545 430.5 540.5Q436 536 444 531V519Q456 508 463.5 493.5Q471 479 477.0 462.5Q483 446 489.0 429.5Q495 413 503 398Q501 393 501.0 389.5Q501 386 502.5 382.0Q504 378 505.0 374.0Q506 370 505 363Q502 319 476.5 292.0Q451 265 415.0 247.5Q379 230 338.0 218.0Q297 206 264 192Q264 188 267.5 188.0Q271 188 270 183Q294 168 308.0 159.0Q322 150 334.5 144.0Q347 138 361.5 133.5Q376 129 402 123Q428 117 442.5 113.5Q457 110 469.0 107.5Q481 105 493.5 103.5Q506 102 529 100Q538 91 544.5 78.5Q551 66 553.0 53.5Q555 41 554.0 29.5Q553 18 547 11Q548 8 551.5 8.5Q555 9 559 8Q553 4 549.0 -2.0Q545 -8 541.0 -14.0Q537 -20 532.0 -24.5Q527 -29 518 -30Q487 -42 440.0 -31.5Q393 -21 321 7Q285 21 262.5 31.5Q240 42 223.5 52.5Q207 63 193.5 75.0Q180 87 161 104ZM304 447Q293 431 279.5 418.0Q266 405 253.5 391.5Q241 378 231.0 361.5Q221 345 217 323Q252 327 290.0 342.5Q328 358 362 372Q358 403 340.5 422.0Q323 441 304 447Z"/></g>
    <g transform="translate(2552, 0)"><path d="M28 86Q23 85 19.0 93.5Q15 102 10 110H21Q14 132 17.5 150.5Q21 169 26.0 186.5Q31 204 34.5 220.5Q38 237 31 255Q36 252 38.5 257.5Q41 263 42.5 271.5Q44 280 43.5 289.5Q43 299 42 305Q55 336 62.5 369.0Q70 402 76.0 434.5Q82 467 89.5 497.5Q97 528 109 555Q123 557 138.5 551.5Q154 546 159 538Q190 562 214.0 596.0Q238 630 262.5 662.5Q287 695 318.0 720.0Q349 745 395 750Q419 733 449.0 713.5Q479 694 498 665Q506 660 513.5 654.5Q521 649 529 644V629Q543 616 552.5 598.5Q562 581 569.5 561.5Q577 542 584.0 522.0Q591 502 600 485Q598 479 598.5 474.5Q599 470 600.5 465.5Q602 461 603.0 455.5Q604 450 604 442Q600 389 569.5 356.5Q539 324 495.5 303.5Q452 283 403.0 268.5Q354 254 314 237Q314 233 318.5 233.0Q323 233 321 227Q351 209 367.5 198.0Q384 187 398.5 179.5Q413 172 430.5 167.0Q448 162 479 155Q510 148 527.5 143.5Q545 139 559.0 136.5Q573 134 589.0 132.0Q605 130 632 127Q643 116 650.0 101.0Q657 86 660.0 71.0Q663 56 661.5 42.5Q660 29 653 21Q654 17 658.5 17.5Q663 18 668 17Q661 12 656.0 5.0Q651 -2 646.0 -9.0Q641 -16 634.5 -22.0Q628 -28 618 -29Q582 -43 526.0 -30.0Q470 -17 383 16Q340 32 313.0 45.0Q286 58 266.0 70.5Q246 83 229.0 97.5Q212 112 190 132Q187 131 186.5 128.0Q186 125 183 124Q178 84 167.5 59.0Q157 34 137 8Q121 11 115.5 5.0Q110 -1 102 -6Q92 -8 87.0 -5.5Q82 -3 78.0 0.0Q74 3 69.0 6.0Q64 9 53 8Q50 17 47.0 25.5Q44 34 31 33Q34 42 33.0 48.5Q32 55 30.0 60.5Q28 66 26.5 72.0Q25 78 28 86ZM362 543Q349 524 333.0 508.5Q317 493 301.5 476.5Q286 460 274.0 440.5Q262 421 257 394Q299 399 345.0 417.5Q391 436 432 453Q427 490 406.0 512.5Q385 535 362 543Z"/></g>
    <g transform="translate(3214, 0)"><path d="M583 300Q582 288 585.0 277.0Q588 266 592.5 255.5Q597 245 601.0 234.0Q605 223 607 212Q609 198 607.0 181.5Q605 165 600.0 149.5Q595 134 587.0 121.5Q579 109 568 103Q554 85 534.0 75.0Q514 65 497 51Q486 44 472.5 41.0Q459 38 445 35Q434 29 419.0 22.5Q404 16 388.0 10.5Q372 5 356.0 2.5Q340 0 328 1Q298 -10 269.5 -13.5Q241 -17 203 -9Q167 -14 136.5 -6.0Q106 2 82.5 19.5Q59 37 41.5 61.5Q24 86 13 113Q5 170 17.0 216.5Q29 263 51.5 302.5Q74 342 103.0 375.5Q132 409 159 441Q165 439 168.5 441.5Q172 444 175.0 448.5Q178 453 181.5 457.0Q185 461 190 462Q197 477 210.5 484.5Q224 492 232 506Q241 508 247.0 512.0Q253 516 258.5 521.0Q264 526 270.0 530.5Q276 535 284 537V548Q302 556 310.5 566.5Q319 577 331 592Q340 593 345.5 593.0Q351 593 362 595Q370 609 376.5 616.0Q383 623 396 631Q408 625 422.5 623.0Q437 621 448 610Q449 600 454.0 594.5Q459 589 465.0 584.5Q471 580 476.5 575.0Q482 570 484 561Q488 560 489.5 562.0Q491 564 495 563Q498 549 502.0 544.5Q506 540 510 527Q505 517 502.5 506.5Q500 496 490 491Q489 484 494.0 483.5Q499 483 500 478Q501 469 497 465Q521 426 540.0 382.5Q559 339 583 300ZM458 205Q462 216 468.5 223.0Q475 230 476 244Q471 252 470.0 256.5Q469 261 469 271Q447 302 431.0 337.5Q415 373 395 404Q393 400 388.0 396.0Q383 392 377 398Q375 390 370.0 386.5Q365 383 359.0 383.5Q353 384 346.5 386.5Q340 389 335 393Q306 370 277.0 348.0Q248 326 225 297Q221 295 220.0 295.5Q219 296 214 294Q206 275 194.5 259.5Q183 244 172.0 228.0Q161 212 153.0 194.0Q145 176 144 152Q161 138 184.0 135.0Q207 132 231.5 134.0Q256 136 279.5 140.5Q303 145 323 145Q365 155 395.0 171.5Q425 188 458 205Z"/></g>
    <g transform="translate(3858, 0)"><path d="M264 11Q236 2 203.0 -7.0Q170 -16 137 -16Q87 -16 58 9Q53 20 49 24Q46 28 43.5 32.5Q41 37 40 45Q28 59 21.0 77.5Q14 96 11.5 115.5Q9 135 10.5 155.0Q12 175 17 193Q19 197 19.5 201.0Q20 205 21 210Q25 226 29.5 241.0Q34 256 42 267Q38 276 42.0 287.0Q46 298 51 307Q65 345 74.5 371.5Q84 398 94 424Q111 469 126.0 513.0Q141 557 153 608Q161 613 165 615Q171 617 175 618Q193 609 217.0 600.5Q241 592 257 592Q265 587 267.0 584.5Q269 582 271 580Q282 567 290.0 553.5Q298 540 295 518Q289 509 286 509Q281 489 275.5 475.0Q270 461 264 447Q257 432 251.0 417.0Q245 402 241 380Q237 375 235.5 371.0Q234 367 232 362Q230 357 227.5 351.5Q225 346 220 342Q217 316 210.5 300.0Q204 284 197 268Q185 239 175.5 210.0Q166 181 164 144Q169 146 173.5 146.0Q178 146 182 146Q191 146 203 143Q233 159 268.5 162.0Q304 165 339 166Q353 166 367.0 166.0Q381 166 393 168Q402 163 404.5 162.5Q407 162 412 162Q419 162 424 161Q436 150 447.0 145.0Q458 140 470 136Q481 132 491.5 127.5Q502 123 512 115L519 72Q526 63 525 60Q525 52 521 48L523 37Q508 34 502.5 30.0Q497 26 492 21Q484 20 480.5 20.0Q477 20 474 20Q460 20 440 15Q413 24 384 24Q373 24 361.0 23.0Q349 22 337 21Q325 19 312.5 18.0Q300 17 287 17Z"/></g>
    <g transform="translate(4404, 0)"><path d="M558 563Q559 556 558.5 552.5Q558 549 557.5 546.0Q557 543 557.0 539.5Q557 536 559 529Q538 495 510.5 482.5Q483 470 451.0 464.5Q419 459 385.5 453.0Q352 447 319 427Q306 432 295.5 427.0Q285 422 265 424Q259 418 250.0 415.5Q241 413 232 410Q236 401 235.5 391.5Q235 382 238 376Q273 373 315.5 377.0Q358 381 399 382Q400 377 398.0 375.5Q396 374 397 370Q404 365 411.0 357.5Q418 350 425.0 343.0Q432 336 439.5 331.5Q447 327 457 328Q461 320 462.5 310.5Q464 301 460 291Q444 280 428.0 268.5Q412 257 394.5 248.0Q377 239 357.5 233.5Q338 228 314 229Q309 229 306.5 229.0Q304 229 300 232Q292 227 277.5 229.0Q263 231 255 226Q244 231 228.5 230.5Q213 230 201 234Q185 213 172.0 189.0Q159 165 149 138Q183 133 205.5 134.0Q228 135 248.0 137.5Q268 140 289.0 142.5Q310 145 342 144Q362 155 389.5 158.5Q417 162 440 170Q448 167 454.0 159.5Q460 152 465.5 145.5Q471 139 477.0 134.0Q483 129 492 130Q496 126 497.5 120.5Q499 115 500.0 110.0Q501 105 503.5 101.5Q506 98 512 99Q497 66 477.5 48.5Q458 31 433.0 22.0Q408 13 377.5 8.0Q347 3 310 -4Q301 -6 295.0 -3.5Q289 -1 281 -1Q258 -6 226.0 -10.0Q194 -14 161.0 -13.0Q128 -12 98.0 -4.5Q68 3 49 22Q41 29 38.5 38.5Q36 48 25 53Q24 66 21.0 82.0Q18 98 15.0 115.5Q12 133 10.5 150.0Q9 167 12 181Q15 196 24.5 208.0Q34 220 31 234Q36 235 37.0 239.5Q38 244 45 243Q51 261 58.0 277.0Q65 293 72.5 308.0Q80 323 87.5 338.5Q95 354 102 373Q88 386 81.5 401.5Q75 417 72.0 432.5Q69 448 67.0 464.5Q65 481 60 498Q70 513 84.5 522.5Q99 532 116.0 538.0Q133 544 153.0 548.0Q173 552 195 557Q235 570 266.5 577.0Q298 584 328.5 588.5Q359 593 392.0 597.0Q425 601 467 609Q476 600 484 600Q488 609 493.5 605.5Q499 602 498 611Q508 594 523.5 582.5Q539 571 558 563Z"/></g>
  </g>
</svg>